<svg xmlns="http://www.w3.org/2000/svg" xmlns:xlink="http://www.w3.org/1999/xlink" fill="currentColor" version="1.1" id="Capa_1" viewBox="0 0 276.351 276.351" xml:space="preserve"><g><path d="M259.276,162.479c5.598-1.186,10.425-5.515,10.415-11.855c-0.007-4.012-2.398-7.656-5.563-9.956   c-2.084-1.515-4.503-2.392-7.031-2.841c-0.47-0.083-1.592-0.058-2.891-0.019c17.213-6.311,31.845-27.185,14.033-41.445   c-18.642-14.924-45.345-0.741-55.044,18.148c-2.207-6.342-5.584-11.476-10.72-13.795c-0.293-0.482-0.769-0.859-1.479-0.91   c-33.329-2.405-66.695-4.184-100.098-5.145c-15.691-0.452-36.799-3.908-47.587,10.409c-5.185-11.494-19.35-38.524-34.622-26.648   c-9.472,7.365-5.406,22.406,2.483,31.766c-8.679-2.629-17.93-0.966-20.628,9.754c-2.777,11.031,5.453,21.755,15.845,23.306   c-6.803,3.21-12.638,9.262-15.036,16.119c-0.943,0.03-1.094,1.152-0.504,1.671c-1.381,5.28-0.695,10.927,3.223,16.073   c11.836,15.545,33.474,4.711,43.841-6.657c3.19,9.772,8.102,15.865,15.389,18.801c-0.208,0.348-0.159,0.875,0.319,0.94   c2.202,0.298,4.425,0.546,6.636,0.825c0.502,0.068,1,0.14,1.519,0.189c40.014,4.964,81.277,6.852,121.449,5.768   c0.688-0.018,1.079-0.45,1.205-0.955c9.244-0.981,14.577-7.908,17.732-16.458c3.465,7.275,11.973,13.322,18.395,16.827   c9.284,5.066,21.46,6.62,30.696,0.576c7.433-4.864,11.617-14.406,8.54-22.982C267.879,168.647,263.98,164.908,259.276,162.479z    M125.566,112.865c4.454,0.694,8.887,1.475,13.391,1.728c0.856,0.048,1.057-1.337,0.204-1.508c-4.469-0.899-9-1.261-13.532-1.719   c0.088-1.832,0.228-3.677,0.424-5.537c0.037,0.007,0.051,0.043,0.092,0.046c3.931,0.269,7.861,0.596,11.799,0.745   c1.156,0.044,1.132-1.697,0-1.782c-3.885-0.294-7.783-0.414-11.674-0.588c0.176-1.425,0.351-2.849,0.607-4.294   c0.039-0.224,0.029-0.43-0.01-0.621c9.674,0.402,19.343,0.914,29.012,1.436c-7.255,17.018-3.247,37.934,5.779,56.476   c-9.191-0.63-18.389-0.698-27.595-0.897c-1.205-2.783-2.256-5.613-3.232-8.465c3.704,0.492,7.412,0.861,11.156,0.939   c0.736,0.015,0.728-1.099,0-1.138c-3.849-0.205-7.692-0.486-11.522-0.924c-0.897-2.715-1.647-5.473-2.319-8.253   c3.938,0.2,7.88,0.507,11.819,0.409c1.01-0.025,0.99-1.482,0-1.555c-4.031-0.295-8.088-0.164-12.133-0.161   c-0.565-2.48-1.014-4.992-1.386-7.525c2.82,0.217,5.647,0.359,8.464,0.638c0.684,0.068,0.849-1.098,0.163-1.21   c-2.906-0.477-5.87-0.783-8.822-0.674c-0.346-2.592-0.554-5.221-0.68-7.871c5.8,0.508,11.603,1.065,17.428,1.093   c0.763,0.004,0.989-1.269,0.186-1.378c-5.852-0.797-11.752-1.072-17.647-1.39C125.477,116.896,125.501,114.886,125.566,112.865z    M10.054,177.872c-0.844-0.61-1.538-1.302-2.2-2.009c1.053,0.049,2.294,0.285,2.945,0.309c1.353,0.05,2.709,0.065,4.064,0.065   c3.171-0.002,6.326-0.12,9.474-0.518c1.066-0.135,1.144-1.746,0-1.726c-4.063,0.072-8.119,0.288-12.184,0.23   c-1.392-0.02-4.005-0.631-5.688-0.153c-1.123-1.659-1.822-3.49-2.2-5.388c2.87,0.148,5.748,0.311,8.612,0.17   c0.932-0.046,0.896-1.323,0-1.422c-2.929-0.324-5.893-0.332-8.846-0.362c-0.176-1.861,0.037-3.757,0.456-5.627   c7.048,0.296,14.198,0.225,21.121-1.089c1.016-0.193,0.788-1.86-0.244-1.807c-6.809,0.354-13.526,0.874-20.32,0.838   c0.69-2.022,1.659-3.978,2.972-5.733c2.574-3.437,5.756-5.593,9.241-7.399c0.057,0.033,0.083,0.09,0.161,0.103   c2.373,0.405,4.855,0.551,7.26,0.614c1.005,0.026,0.964-1.439,0-1.536c-1.7-0.171-3.441-0.268-5.171-0.292   c1.498-0.706,3.035-1.385,4.595-2.101c0.623-0.286,0.67-0.845,0.426-1.302c-0.033-0.444-0.329-0.856-0.886-0.832   c-5.748,0.242-11.709-1.79-15.677-5.554c5.006,0.301,10.012,0.63,15.027,0.711c0.836,0.013,0.822-1.237,0-1.289   c-5.359-0.344-10.732-0.403-16.1-0.518c-1.521-1.742-2.631-3.795-3.172-6.113c4.062,0.196,8.126,0.417,12.192,0.337   c1.009-0.02,0.992-1.489,0-1.555c-4.144-0.277-8.302-0.24-12.456-0.236c-0.204-1.663-0.085-3.46,0.343-5.355   c6.029,0.398,12.161,0.438,18.18,0.147c1.031-0.05,1.017-1.514,0-1.593c-5.833-0.449-11.781-0.576-17.649-0.379   c4.411-12.874,19.263-4.487,27.358-0.006c1.389,0.769,2.909-1.084,1.723-2.233c-1.589-1.541-3.49-2.94-5.547-4.145   c-0.792-0.747-1.523-1.556-2.216-2.4c2.145,0.279,4.307,0.458,6.436,0.367c0.94-0.04,0.886-1.308,0-1.422   c-2.587-0.333-5.19-0.528-7.788-0.776c-1.352-1.916-2.512-3.982-3.577-6.087c4.998,0.862,10.028,1.692,15.06,2.158   c0.814,0.075,1.002-1.282,0.194-1.434c-5.269-0.991-10.65-1.593-15.994-2.164c-0.885-1.86-1.706-3.822-2.272-5.835   c4.793,0.297,9.591,0.626,14.385,0.835c0.928,0.04,0.894-1.332,0-1.422c-4.838-0.488-9.779-0.549-14.658-0.411   c-0.421-1.817-0.591-3.672-0.355-5.533c4.099,0.391,8.201,0.837,12.316,0.987c0.961,0.035,0.907-1.35,0-1.46   c-3.996-0.483-8.023-0.687-12.042-0.934c0.03-0.12,0.038-0.241,0.071-0.361c0.361-1.317,0.96-2.441,1.684-3.422   c2.753,0.19,5.505,0.38,8.264,0.502c1.024,0.045,0.993-1.482,0-1.574c-2.262-0.209-4.525-0.355-6.789-0.514   c2.727-2.292,6.618-2.847,10.399-0.998c10.083,4.93,15.307,17.553,19.871,27.088c0.042,0.088,0.105,0.13,0.153,0.204   c-1.773,2.998-3.18,6.295-4.285,9.775c-0.04-0.119-0.082-0.24-0.198-0.331c-1.908-1.482-3.745-2.17-4.751-4.603   c-0.338-0.817-1.546-0.533-1.353,0.373c0.54,2.536,2.632,5.633,5.493,5.703c0.201,0.005,0.376-0.092,0.525-0.224   c-1.225,4.095-2.011,8.441-2.461,12.873c-1.299-0.173-2.601-0.304-3.874-0.628c-1.229-0.313-1.698,1.474-0.519,1.883   c1.437,0.498,2.801,0.782,4.256,0.7c-0.424,5.433-0.324,10.953,0.151,16.295c-1.663,0.466-3.165,1.532-4.38,2.73   c-0.718,0.709,0.335,1.699,1.086,1.086c1.098-0.896,2.253-1.354,3.484-1.757c0.615,5.648,1.657,11.044,3.014,15.833   c0.05,0.176,0.111,0.328,0.161,0.502C36.805,176.046,22.951,187.193,10.054,177.872z M76.177,189.461   c-26.682-4.149-30.531-32.053-28.384-55.013c1.306-13.961,4.453-26.259,16.157-32.593c-7.153,30.894-0.407,64.704,21.796,88.006   C82.556,189.73,79.367,189.59,76.177,189.461z M88.071,189.958c-1.396-1.817-2.724-3.658-4.01-5.512   c4.362,0.255,8.717,0.453,13.09,0.476c0.744,0.004,0.717-1.072,0-1.138c-4.692-0.431-9.383-0.668-14.09-0.838   c-1.279-1.899-2.479-3.823-3.64-5.759c9.019,1.631,18.344,2.639,27.506,2.575c1.01-0.007,0.989-1.484,0-1.555   c-9.248-0.662-18.415-1.344-27.625-2.449c-0.26-0.031-0.423,0.116-0.537,0.304c-1.019-1.74-1.972-3.499-2.893-5.267   c3.615,0.018,7.219,0.049,10.831-0.162c0.622-0.036,0.623-0.931,0-0.967c-3.821-0.224-7.635-0.178-11.461-0.161   c-0.008,0-0.01,0.007-0.018,0.007c-1.117-2.213-2.137-4.454-3.096-6.71c4.298,0.351,8.605,0.443,12.897-0.063   c0.707-0.084,0.752-1.147,0-1.138c-4.499,0.052-8.976,0.101-13.466-0.115c-0.792-1.935-1.483-3.896-2.155-5.862   c1.945,0.135,3.894,0.264,5.837,0.303c0.787,0.016,0.773-1.162,0-1.214c-2.075-0.138-4.166-0.19-6.252-0.217   c-0.76-2.315-1.418-4.653-2.005-7.009c4.551,0.061,9.105,0.149,13.651-0.076c0.817-0.04,0.818-1.228,0-1.271   c-4.651-0.24-9.311-0.152-13.968-0.1c-0.496-2.124-0.899-4.269-1.25-6.425c2.898,0.143,5.825,0.143,8.671-0.432   c0.802-0.162,0.612-1.43-0.192-1.415c-2.911,0.052-5.8,0.263-8.71,0.235c-0.397-2.718-0.661-5.463-0.823-8.228   c5.422,0.473,10.85,0.657,16.276,0.117c1.011-0.101,1.055-1.645,0-1.612c-5.461,0.173-10.901,0.308-16.357,0.038   c-0.102-2.375-0.106-4.768-0.028-7.176c0.07,0.028,0.112,0.087,0.2,0.089c3.389,0.092,6.732,0.228,10.113-0.076   c0.718-0.065,0.72-1.054,0-1.119c-3.38-0.304-6.726-0.168-10.113-0.076c-0.056,0.002-0.078,0.044-0.126,0.056   c0.088-1.988,0.257-3.991,0.468-6c6.392,0.415,12.8,0.985,19.209,1.027c1.096,0.007,1.046-1.559,0-1.668   c-6.306-0.664-12.669-0.818-19.001-1.113c0.223-1.811,0.506-3.632,0.831-5.459c3.474,0.169,6.94,0.299,10.419,0.355   c0.931,0.015,0.922-1.396,0-1.441c-3.384-0.164-6.761-0.253-10.147-0.309c0.325-1.686,0.672-3.376,1.103-5.078   c2.3-0.912,4.849-1.651,7.736-2.157c5.03-0.881,10.523-0.546,15.838-0.213c-9.031,31.807,6.002,70.124,28.121,93.287   C108.625,190.815,98.349,190.382,88.071,189.958z M120.882,191.331c-19.597-25.415-36.214-60.25-26.789-93.027   c0.018-0.062,0.003-0.112,0.014-0.172c0.982,0.053,1.983,0.121,2.938,0.147c8.962,0.248,17.921,0.56,26.877,0.92   c-7.92,33.466,6.51,69.849,30.473,93.534C143.224,192.264,132.054,191.803,120.882,191.331z M156.5,192.822   c-0.016-0.026-0.004-0.053-0.025-0.079c-1.525-1.92-3.002-3.861-4.45-5.814c5.779,0.8,12.125,2.143,17.782,0.715   c0.714-0.18,0.397-1.188-0.297-1.079c-5.983,0.936-12.17-0.099-18.173-0.589c-1.147-1.566-2.267-3.143-3.358-4.73   c3.827,0.564,7.687,0.963,11.545,1.226c0.652,0.044,0.815-1.053,0.156-1.155c-3.964-0.614-7.957-1.104-11.958-1.392   c-0.211-0.015-0.357,0.092-0.466,0.236c-1.549-2.287-3.015-4.604-4.435-6.938c7.361,0.396,14.73,0.542,22.092,0.05   c0.88-0.059,0.9-1.396,0-1.384c-7.642,0.104-15.269,0.21-22.907-0.001c-1.22-2.051-2.368-4.126-3.477-6.214   c3.86,0.052,7.694,0.321,11.542,0.704c0.621,0.062,0.774-1.012,0.149-1.099c-4.03-0.557-8.087-0.61-12.146-0.46   c-1.208-2.313-2.329-4.654-3.387-7.015c9.175,0.468,18.332,1.057,27.525,1.065c0.089,0,0.126-0.061,0.2-0.082   c7.264,14.372,17.483,27.192,27.74,35.443C178.935,193.773,167.717,193.293,156.5,192.822z M191.534,193.92   c-0.027-0.1-0.029-0.2-0.118-0.298c-19.924-21.634-45.919-60.838-32.665-92.17c0.077-0.182,0.101-0.359,0.112-0.534   c8.309,0.459,16.61,1.037,24.915,1.573c-0.018,0.077-0.055,0.138-0.062,0.223c-2.345,27.411,7.047,55.234,24.743,76.132   C205.247,185.956,200.032,191.668,191.534,193.92z M209.215,177.044c-3.186-4.712-5.92-9.467-8.396-14.267   c2.174,0.398,4.404,0.619,6.563,0.494c0.538-0.031,0.74-0.92,0.136-1.006c-2.467-0.35-4.951-0.59-7.43-0.867   c-0.799-1.595-1.513-3.206-2.237-4.815c3.629,0.179,7.286,0.221,10.888-0.243c0.714-0.092,0.767-1.165,0-1.157   c-3.813,0.04-7.615,0.238-11.427,0.24c-1.129-2.579-2.131-5.187-3.075-7.811c3.545,0.37,7.036,0.418,10.599-0.151   c0.602-0.096,0.459-1.088-0.144-1.062c-3.638,0.157-7.277,0.185-10.907-0.1c-0.735-2.118-1.306-4.286-1.925-6.439   c4.15,0.438,8.323,0.57,12.489,0.314c0.906-0.056,0.923-1.419,0-1.422c-4.29-0.013-8.576-0.082-12.864-0.147   c-0.63-2.281-1.154-4.6-1.662-6.925c5.282,0.292,10.597,0.712,15.874,0.404c0.687-0.04,0.945-1.178,0.174-1.285   c-5.442-0.755-10.977-0.757-16.468-0.906c-0.468-2.297-0.867-4.621-1.216-6.968c4.147,0.294,8.321,0.623,12.456,0.49   c1.062-0.034,1.008-1.493,0-1.612c-4.181-0.491-8.441-0.514-12.67-0.577c-0.238-1.756-0.379-3.56-0.554-5.346   c2.272,0.063,4.544,0.116,6.816,0.24c1.129,0.062,1.108-1.655,0-1.745c-2.324-0.188-4.656-0.204-6.985-0.129   c-0.327-3.772-0.559-7.593-0.576-11.532c0-0.016-0.007-0.025-0.008-0.041c4.654,0.306,9.311,0.544,13.964,0.881   c0.035,0.017,0.055,0.046,0.093,0.062c11.988,4.912,12.639,32.797,12.697,43.32C213.468,156.175,212.916,167.629,209.215,177.044z    M247.861,197.123c-11.976,0.39-29.099-9.49-34.56-21.002c1.367-4.673,2.18-9.62,2.707-14.263c2.703,1.628,5.178,3.402,7.539,5.611   c0.891,0.833,2.114-0.419,1.328-1.327c-2.286-2.639-5.39-4.757-8.671-6.067c0.135-1.353,0.258-2.695,0.35-3.961   c0.24-3.302,0.467-7.709,0.47-12.61c1.706,0.186,3.666-0.073,5.227-0.169c2.453-0.151,4.874-0.478,7.275-0.996   c0.944-0.203,0.755-1.822-0.232-1.713c-4.083,0.449-8.187,0.901-12.298,1.029c-0.043-3.875-0.232-7.995-0.668-12.088   c3.763,0.217,7.57-0.738,10.687-2.86c0.906-0.617,0.123-1.977-0.861-1.474c-3.242,1.658-6.457,2.539-10.046,2.728   c-0.445-3.613-1.057-7.188-1.985-10.513c8.215-13.855,26.146-27.659,42.832-22.224c12.532,4.083,20.536,16.982,10.198,28.782   c-5.69,6.494-13.021,10.835-21.41,12.676c-1.628,0.357-1.299,3.069,0.398,2.943c0.335-0.025,0.673-0.074,1.009-0.112   c0.369,0.188,0.807,0.329,1.391,0.438c4.51,0.84,8.756,0.101,12.872,2.853c4.587,3.066,6.498,9.032,2.47,13.438   c-3.447,3.769-8.307,3.385-12.905,2.919c-0.358-0.036-0.632,0.122-0.849,0.35c-1.665-0.282-3.337-0.489-4.993-0.539   c-1.685-0.051-2.096,2.621-0.404,2.98c8.984,1.903,18.684,4.716,21.22,14.612C268.837,187.816,258.827,196.766,247.861,197.123z"></path><path d="M22.317,152.348c-2.358-0.132-4.719-0.04-7.079,0.01c-2.054,0.044-4.215-0.115-6.186,0.508   c-0.423,0.134-0.424,0.725,0,0.859c1.961,0.62,4.142,0.465,6.186,0.508c2.36,0.05,4.721,0.142,7.079,0.01   C23.537,154.175,23.539,152.416,22.317,152.348z"></path></g><g></g><g></g><g></g><g></g><g></g><g></g><g></g><g></g><g></g><g></g><g></g><g></g><g></g><g></g><g></g></svg>