<svg xmlns="http://www.w3.org/2000/svg" xmlns:xlink="http://www.w3.org/1999/xlink" fill="currentColor" version="1.1" id="Capa_1" viewBox="0 0 284.985 284.985" xml:space="preserve"><g><path d="M177.064,135.269c7.414,6.494,20.919,11.003,30.641,9.136c13.596,1.091,19.695-15.014,14.564-26.971   c-3.826-8.915-12.36-14.662-20.373-19.459c-11.752-7.036-22.616-13.896-31.766-23.852c10.866,1.779,17.287-10.546,14.581-21.449   c-5.371-21.633-31.136-40.493-48.318-52.533c-0.787-0.551-1.63,0.64-0.999,1.295c0.062,0.064,0.13,0.123,0.192,0.187   c-3.164,20.876-17.525,31.35-29.486,47.366c-4.974,6.66-8.272,13.74-3.193,21.225c0.244,0.36,0.557,0.464,0.869,0.463   c0.936,1.2,2.21,2.255,3.581,2.604c0.676,0.449,1.346,0.905,2.177,1.208c3.962,1.442,8.423,0.742,12.191-1.149   c-11.991,20.55-36.176,20.253-51.902,36.815c-6.506,6.852-7.433,16.368-3.4,23.94c-0.633,0.069-0.618,1.06,0.068,1.092   c0.226,0.011,0.45,0.038,0.676,0.05c0.413,0.668,0.797,1.349,1.291,1.977c0.115,0.199,0.283,0.345,0.409,0.533   c0.046,0.055,0.085,0.112,0.131,0.167c0.805,1.147,1.799,2.097,2.971,2.848c0.112,0.09,0.209,0.189,0.324,0.277   c0.027,0.021,0.052,0.002,0.079,0.02c8.322,4.854,23.959,0.973,32.5-4.589c-13.828,22.423-38.239,25.586-57.636,41.56   c-8.558,7.048-11.909,16.824-8.596,27.531c9.452,30.552,55.156,37.012,88.662,37.556c-4.884,16.161-3.171,42.421,19.272,41.859   c22.89-0.573,20.136-26.836,17.378-42.371c30.337-1.038,68.958-7.682,80.889-33.984   C263.404,167.693,182.667,168.162,177.064,135.269z M144.325,281.117c-5.122-0.493-8.641-2.417-11.062-5.202   c1.788,0.271,3.575,0.559,5.375,0.742c0.579,0.059,0.721-0.938,0.139-1.024c-2.086-0.309-4.185-0.496-6.283-0.702   c-0.968-1.329-1.658-2.863-2.237-4.472c5.979,0.983,12.125,1.677,18.151,1.088c0.802-0.078,0.83-1.235,0-1.271   c-6.223-0.263-12.357-0.267-18.542-1.013c-0.511-1.712-0.822-3.548-1.029-5.432c2.361,0.224,4.72,0.438,7.093,0.467   c0.591,0.007,0.76-0.976,0.144-1.061c-2.448-0.339-4.908-0.487-7.372-0.628c-0.126-1.581-0.161-3.199-0.143-4.822   c6.691,0.581,13.483,1.463,20.182,1.385c0.881-0.01,1.156-1.47,0.217-1.602c-6.689-0.94-13.581-0.954-20.344-1.238   c0.055-1.706,0.175-3.399,0.317-5.069c3.812,0.1,7.589,0.492,11.383,0.86c0.947,0.092,1.179-1.532,0.226-1.676   c-3.815-0.576-7.648-0.63-11.498-0.499c0.088-0.93,0.187-1.832,0.286-2.73c2.556,0.092,5.074,0.408,7.614,0.699   c0.775,0.089,0.94-1.194,0.185-1.359c-2.518-0.551-5.086-0.66-7.656-0.631c0.11-0.951,0.221-1.891,0.331-2.78   c7.166,0.056,13.708-0.142,19.094-0.417c3.6,0.069,7.49,0.07,11.542-0.015c0.002,0.081-0.024,0.151-0.011,0.236   C162.439,256.458,167.082,283.307,144.325,281.117z M206.813,231.273c-18.353,5.57-37.609,7.244-56.634,9.099   c-0.229-0.305-0.585-0.524-1.094-0.533c-19.509-0.341-39.628-1.184-58.788-5.11c-3.938-0.807-8.775-2.22-13.862-4.128   c3.986,0.375,7.971,0.772,11.969,1.01c0.764,0.046,0.74-1.101,0-1.176c-5.12-0.52-10.253-0.884-15.391-1.18   c-4.932-2.032-9.961-4.514-14.548-7.36c12.109,1.669,24.488,2.486,36.679,2.188c1.185-0.029,1.183-1.797,0-1.839   c-13.19-0.468-26.268-1.145-39.424-2.201c-0.03-0.002-0.044,0.025-0.073,0.027c-2.593-1.776-4.955-3.688-7.037-5.697   c3.464,0.464,7.001,0.679,10.464,0.847c0.907,0.044,0.864-1.285,0-1.384c-3.921-0.451-7.957-0.938-11.916-0.928   c-1.748-1.871-3.211-3.831-4.313-5.864c0.86,0.084,1.74,0.007,2.589-0.257c7.622,1.132,15.805,0.884,23.413,1.006   c1.23,0.02,1.208-1.817,0-1.896c-8.223-0.538-17.109-1.652-25.326-0.793c-0.564-0.107-1.135-0.204-1.717-0.278   c-1.186-2.991-1.533-6.13-0.83-9.378c3.932,0.633,7.922,0.829,11.867,0.142c0.725-0.126,0.559-1.326-0.174-1.285   c-3.831,0.214-7.543,0.234-11.313-0.282c0.714-2.293,2.004-4.64,3.884-7.026c9.327,0.547,18.647,1.067,27.99,1.351   c0.895,0.027,0.883-1.331,0-1.384c-9.004-0.546-18.007-0.869-27.02-1.163c1.892-2.169,4.31-4.368,7.317-6.592   c6.45,0.832,12.862,1.255,19.369,1.003c0.972-0.038,0.981-1.511,0-1.517c-5.912-0.034-11.826-0.211-17.724-0.635   c0.584-0.405,1.135-0.809,1.759-1.215c2.398-1.561,4.995-3.047,7.698-4.511c14.106,0.185,28.207,0.682,42.313,0.792   c0.921,0.007,0.907-1.367,0-1.422c-13.289-0.803-26.629-0.795-39.945-0.628c5.318-2.799,10.962-5.562,16.357-8.632   c5.054,0.31,10.093,0.301,15.164-0.139c0.814-0.07,0.84-1.322,0-1.289c-4.306,0.168-8.614,0.185-12.92,0.112   c3.103-1.847,6.07-3.835,8.833-5.995c7.793,0.046,15.549-0.248,23.292-1.248c0.951-0.123,1.007-1.606,0-1.536   c-7.066,0.493-14.134,0.887-21.214,1.072c2.401-2.06,4.588-4.293,6.48-6.749c3.573-0.1,7.128-0.225,10.695-0.492   c0.963-0.072,0.989-1.501,0-1.517c-3.124-0.05-6.234,0.034-9.351,0.12c1.101-1.631,2.058-3.369,2.88-5.203   c0.082,0.012,0.143,0.066,0.238,0.047c2.401-0.496,4.798-0.647,7.243-0.636c0.828,0.004,0.805-1.206,0-1.27   c-2.327-0.187-4.618,0.033-6.902,0.451c0.694-1.763,1.28-3.603,1.676-5.577c0.026-0.128-0.043-0.23-0.06-0.349   c0.279-1.312-1.29-2.505-2.571-1.431c-8.381,7.031-27.569,14.045-36.063,4.694c2.011,0.185,4.018,0.407,6.018,0.678   c0.681,0.092,1.001-0.928,0.292-1.06c-2.404-0.451-4.813-0.692-7.234-0.857c-1.22-2.071-1.967-4.038-2.345-5.92   c10.076,1.266,20.278,1.602,30.365,0.248c0.923-0.124,0.988-1.557,0-1.498c-10.271,0.613-20.363,0.742-30.594-0.201   c-0.275-2.792,0.347-5.369,1.569-7.775c6.292,0.471,12.568,0.684,18.88,0.264c0.808-0.054,0.826-1.267,0-1.271   c-6.045-0.028-12.088-0.063-18.127-0.298c1.32-2.134,3.15-4.116,5.284-5.979c7.348,0.616,14.953,0.435,22.283,0.23   c0.905-0.025,0.903-1.367,0-1.403c-6.809-0.275-13.854-0.523-20.722-0.141c2.375-1.881,5.068-3.616,7.863-5.254   c4.956-0.227,9.921-0.27,14.881-0.202c0.98,0.014,0.972-1.473,0-1.517c-4.047-0.185-8.073-0.085-12.103,0.126   c4.976-2.737,10.065-5.15,14.327-7.368c4.634,0.369,9.231,0.221,13.814-0.751c0.935-0.198,0.518-1.545-0.388-1.408   c-3.681,0.555-7.342,0.876-11.026,0.875c0.226-0.125,0.493-0.257,0.711-0.381c2.825-1.598,5.536-3.342,8.055-5.256   c2.844,0.056,5.689,0.098,8.523-0.112c1.06-0.079,1.062-1.571,0-1.65c-2.038-0.151-4.083-0.172-6.129-0.152   c1.983-1.718,3.709-3.639,5.243-5.699c3.3-0.254,6.698-0.427,9.866-1.257c0.874-0.229,0.65-1.48-0.206-1.527   c-2.67-0.146-5.406,0.185-8.107,0.532c0.992-1.637,1.765-3.426,2.414-5.299c2.455-0.122,4.909-0.086,7.368-0.094   c1.073-0.004,1.02-1.519,0-1.631c-2.3-0.251-4.577-0.138-6.867,0.077c0.13-0.482,0.329-0.918,0.432-1.419   c0.097-0.078,0.205-0.145,0.3-0.224c0.56-0.47,0.446-1.088,0.061-1.507c0.047-0.788-1.081-1.482-1.478-0.571   c-0.047,0.108-0.106,0.197-0.154,0.304c-4.257,2.108-8.516,4.674-13.471,2.912c-2.342-0.833-3.773-2.383-4.887-4.197   c5.06,0.498,10.101,0.441,15.134-0.629c0.781-0.166,0.623-1.502-0.192-1.415c-5.281,0.563-10.509,0.868-15.787,0.542   c-0.221-0.445-0.45-0.883-0.655-1.344c-0.059-2.536,0.605-5.271,1.62-7.901c14.431,0.994,29.018,1.943,43.47,1.653   c1.171-0.023,1.147-1.717,0-1.801c-14.212-1.05-28.569-1.156-42.832-1.418c1.439-3.223,3.343-6.175,5.07-8.225   c0.024-0.028,0.05-0.055,0.074-0.083c0.475,0.085,0.945,0.096,1.415,0.05c0.058,0.168,0.162,0.311,0.37,0.345   c4.304,0.704,8.524,0.783,12.813-0.059c0.702-0.138,0.554-1.359-0.171-1.267c-3.613,0.461-7.216,0.597-10.83,0.282   c-0.015-0.147-0.114-0.286-0.294-0.293c-0.744-0.03-1.471-0.166-2.198-0.302c2.266-2.593,4.631-5.101,6.938-7.656   c9.634,0.043,19.36,0.081,28.972-0.502c0.956-0.058,0.971-1.473,0-1.498c-9.166-0.234-18.415,0.1-27.59,0.462   c2.193-2.435,4.306-4.948,6.317-7.538c4.169,0.158,8.337,0.294,12.51,0.32c1.028,0.006,1.021-1.55,0-1.593   c-3.789-0.16-7.579-0.213-11.37-0.26c0.602-0.821,1.265-1.597,1.823-2.45c0.599-0.915,1.164-1.838,1.702-2.769   c1.223,0.149,2.475,0.132,3.654-0.146c0.25-0.059,0.377-0.217,0.448-0.4c2.598,0.032,5.197,0.065,7.789-0.132   c1.048-0.08,1.05-1.551,0-1.631c-3.252-0.248-6.518-0.139-9.776-0.114c-0.483,0.004-0.718,0.325-0.811,0.685   c-0.116-0.01-0.232-0.015-0.347-0.025c1.201-2.284,2.124-4.635,2.844-7.034c2.259-0.113,4.493-0.271,6.741-0.517   c0.758-0.083,0.799-1.206,0-1.214c-2.087-0.019-4.155,0.048-6.236,0.145c0.27-1.102,0.413-2.234,0.558-3.366   c0.064,0.208,0.184,0.39,0.437,0.44c0.86,0.168,1.671,0.326,2.544,0.384c0.794,0.053,0.948-1.189,0.187-1.378   c-0.848-0.21-1.673-0.3-2.541-0.403c-0.226-0.027-0.385,0.075-0.504,0.221c0.172-1.69,0.228-3.407,0.083-5.172   c7.635,7.671,16.184,14.375,23.943,21.93c3.474,3.383,6.885,6.846,9.978,10.587c3.088,3.638,5.79,7.535,8.107,11.691   c7.552,13.466,3.483,21.077-12.205,22.833c-0.163-0.057-0.318-0.062-0.469-0.058c-0.761-0.311-1.665,0.489-1.372,1.341   c-0.093,0.558,0.084,1.14,0.694,1.438c0.101,0.049,0.196,0.073,0.296,0.12c5.353,8.164,12.393,14.442,20.567,19.857   c5.116,3.39,10.607,6.144,15.767,9.454c3.655,2.345,7.686,4.802,10.625,8.038c7.141,7.861,16.987,31.676-7.705,31.675   c-0.072,0-0.107,0.057-0.172,0.069c-10.345-0.693-19.771-6.012-28.73-10.998c-0.364-0.313-0.851-0.449-1.33-0.427   c-0.017,0.004-0.032,0.004-0.048,0.008c-0.833,0.058-1.616,0.608-1.596,1.689c0.464,26.567,33.154,32.118,51.335,42.898   C260.586,196.384,233.229,223.256,206.813,231.273z"></path></g><g></g><g></g><g></g><g></g><g></g><g></g><g></g><g></g><g></g><g></g><g></g><g></g><g></g><g></g><g></g></svg>