<svg xmlns="http://www.w3.org/2000/svg" xmlns:xlink="http://www.w3.org/1999/xlink" fill="currentColor" version="1.1" id="Capa_1" viewBox="0 0 267.805 267.805" xml:space="preserve"><g><path d="M138.066,205.463c-1.272-2.47-3.598-4.144-6.169-4.646c5.299-5.993-3.042-17.71-9.678-20.721   c1.808-11.445,4.236-23.1,4.891-34.637c0.416-7.34-0.824-15.207-6.973-19.977c-9.653-7.487-18.508-0.166-21.753,9.032   C89.862,99.116,59.784,32.045,15.006,68.766c-2.141,1.756-3.971,3.634-5.581,5.596c-0.391,0.003-0.785,0.001-1.175,0.004   c-1.123,0.009-1.143,1.475-0.209,1.774c-7.465,10.293-8.668,22.926-7.664,35.791c-0.542,0.346-0.499,1.163,0.123,1.425   c0.312,3.467,0.762,6.945,1.29,10.392c0.003,0.021,0.008,0.043,0.011,0.064c-0.619,0.169-0.464,1.255,0.22,1.217   c4.764,29.91,15.845,59.667,33.659,84.287c-7.521-0.98-14.381,3.286-17.373,9.735c-0.08,0.088-0.1,0.203-0.129,0.318   c-1.622,3.689-2.008,8.05-0.526,12.555c0.26,0.791,0.591,1.502,0.934,2.198c-0.341,0.23-0.279,0.825,0.236,0.855   c0.071,0.004,0.145,0.008,0.217,0.013c6.821,11.945,25.913,8.52,31.585-3.708c0.192,0.072,0.39,0.115,0.584,0.175   c-3.431,8.684,4.277,17.653,13.488,16.936c8.29-0.645,14.785-8.262,15.132-16.31c4.215,6.1,12.466,8.743,19.785,5.966   c7.463-2.831,14.516-11.719,13.216-19.988c5.821,6.819,17.253,6.995,23.266-0.382C138.829,214.324,140.141,209.492,138.066,205.463   z M35.317,204.342c-3.127-5.49-6.139-11.006-8.987-16.593c0.973,0.208,2.014,0.224,2.984,0.265   c1.749,0.075,3.479,0.016,5.213-0.223c0.7-0.096,0.507-1.197-0.163-1.204c-1.683-0.02-3.367,0.027-5.05-0.007   c-1.187-0.024-2.429-0.211-3.606-0.037c-1.206-2.391-2.37-4.801-3.503-7.226c7.794,0.342,15.61,0.35,23.364-0.589   c0.88-0.106,0.938-1.438,0-1.419c-8.033,0.163-16.046,0.493-24.08,0.44c-0.87-1.895-1.715-3.8-2.535-5.72   c3.749-0.243,7.481-0.512,11.212-1.024c0.63-0.086,0.473-1.118-0.149-1.101c-3.882,0.105-7.724,0.473-11.581,0.861   c-1.66-3.957-3.163-7.998-4.567-12.095c7.952,0.339,15.959,0.191,23.807-1.198c0.838-0.148,0.654-1.571-0.203-1.497   c-8.032,0.695-15.984,1.401-24.04,1.422c-0.327-0.979-0.692-1.937-1.001-2.927c-0.628-2.011-1.281-4.13-1.934-6.301   c2.979,0.12,5.971,0.12,8.946,0.163c1.15,0.016,1.152-1.803,0-1.787c-3.12,0.044-6.26,0.035-9.382,0.179   c-1.03-3.467-2.053-7.103-2.995-10.832c5.576,0.092,11.162,0.252,16.73-0.04c1.093-0.057,1.095-1.642,0-1.699   c-5.711-0.3-11.442-0.124-17.162-0.033c-0.734-3.018-1.371-6.096-1.941-9.187c5.332-0.254,10.645-0.275,15.993-0.305   c1.041-0.006,1.008-1.505,0-1.594c-5.401-0.477-10.869-0.188-16.261,0.439c-0.575-3.319-1.022-6.652-1.299-9.954   c9.993,0.216,20.007,0.29,29.997,0.097c1.285-0.025,1.287-1.972,0-1.997c-10.026-0.194-20.076-0.12-30.105,0.098   c-0.203-3.156-0.229-6.273-0.054-9.319c4.671-0.395,9.304-0.647,13.991-0.795c1.013-0.032,1.017-1.554,0-1.577   c-4.633-0.102-9.38,0.376-13.925,1.332c0.368-4.954,1.34-9.684,3.088-14.037c7.319,0.326,14.705,0.838,22.031,0.683   c1.151-0.024,1.125-1.683,0-1.77c-7.065-0.542-14.219-0.467-21.31-0.534c1.594-3.517,3.546-6.549,5.737-9.18   c5.391,0.327,10.828,0.546,16.195,0.352c1.236-0.045,1.197-1.776,0-1.892c-4.679-0.452-9.432-0.588-14.167-0.618   c1.902-1.934,3.98-3.545,6.158-4.917c4.946-0.19,9.927,0.006,14.853,0.486c0.973,0.095,1.209-1.563,0.233-1.721   c-3.786-0.612-7.516-0.877-11.297-0.83c16.659-7.693,38.334-1.099,49.952,16.966c10.794,16.783,17.21,36.153,21.311,55.548   c0.188,0.89,0.823,1.289,1.509,1.321c0.483,0.679,1.77,0.684,2.002-0.305c0.52-2.814,1.417-5.512,2.689-8.094   c10.816-8.209,17.726-7.285,20.73,2.772c1.614,5.044,0.519,11.334-0.157,16.343c-1.219,9.041-2.652,18.055-3.966,27.083   c-8.649-1.508-17.458,4.237-19.19,12.928c-2.922-6.275-11.286-10.422-17.562-6.842c-3.415,1.948-4.816,5.746-4.774,9.53   c0.003,0.226,0.008,0.496,0.016,0.769c-6.576-8.589-18.245-12.075-29.07-8.143C41.18,189.753,35.17,197.168,35.317,204.342z    M135.061,212.578c-1.127,3.411-4.222,5.885-7.619,6.872c-5.873,1.707-11.362-1.253-15.03-5.733   c-0.445-0.544-1.024-0.357-1.382,0.062c-0.961-0.457-2.303,0.519-2.077,1.759c3.202,17.535-22.204,29.07-29.479,10.616   c-0.204-0.517-0.639-0.686-1.061-0.683c-0.87-0.699-2.412-0.417-2.348,0.998c0.335,7.41-0.615,15.528-9.005,18.096   c-4.583,1.403-8.761-0.117-11.341-3.083c3.661,0.083,7.321,0.136,10.983,0.054c1.059-0.024,1.061-1.623,0-1.647   c-4.034-0.091-8.065-0.043-12.099,0.059c-0.637-1.075-1.129-2.249-1.359-3.529c2.829,0.092,5.654,0.217,8.484,0.133   c1.048-0.031,1.05-1.598,0-1.629c-2.881-0.085-5.757,0.045-8.637,0.138c-0.055-1.034,0.023-2.105,0.274-3.198   c0.852,0.038,1.696-0.065,2.497-0.37c1.224-0.466,1.058-2.224-0.312-2.306c-1.533-0.091-3.007,0.079-4.506-0.379   c-1.586-0.484-2.898-1.393-4.012-2.605c-0.925-1.007-2.298,0.452-1.474,1.474c0.737,0.914,1.732,1.774,2.846,2.488   c-2.956,2.428-5.257,5.499-8.79,7.332c-5.691,2.952-12.325,2.256-16.244-2.272c3.266,0.163,6.573,0.246,9.753-0.065   c0.855-0.083,0.857-1.248,0-1.331c-3.533-0.345-7.226-0.215-10.842-0.016c-0.435-0.689-0.846-1.409-1.167-2.232   c-0.344-0.885-0.572-1.758-0.746-2.624c4.657-0.402,9.324-0.531,13.998-0.604c0.901-0.014,0.878-1.313,0-1.384   c-4.774-0.385-9.507-0.133-14.249,0.41c-0.228-2.539,0.251-4.937,1.244-7.059c4.02,0.001,8.03-0.306,11.94-1.305   c0.636-0.163,0.524-1.221-0.158-1.17c-3.618,0.269-7.222,0.586-10.838,0.79c3.28-5.059,9.731-7.984,16.412-6.251   c0.157,0.167,0.28,0.343,0.449,0.507c0.444,0.428,0.968,0.228,1.23-0.168c0.865-0.177,1.317-1.587,0.352-2.025   c-0.299-0.136-0.597-0.212-0.896-0.33c-0.709-1.776-1.095-3.442-1.254-5.015c2.652,0.03,5.277-0.288,7.772-1.266   c0.834-0.327,0.531-1.588-0.377-1.368c-2.483,0.601-4.945,1.08-7.474,1.216c-0.008-2.225,0.54-4.203,1.474-5.947   c3.726-0.135,7.459-0.244,11.163-0.654c0.963-0.107,1.016-1.526,0-1.542c-3.316-0.051-6.631,0.142-9.943,0.339   c7.644-9.693,29.462-9.401,35.996,5.457c-1.14,0.741-2.116,1.642-2.68,2.533c-0.495,0.781,0.525,1.891,1.318,1.318   c1.004-0.724,1.991-1.369,3.111-1.838c0.541,0.073,1.086-0.099,1.444-0.456c1.15-0.156,2.319-0.002,3.408-0.372   c0.981-0.333,1.236-1.683,0.293-2.242c-0.956-0.567-2.122-0.637-3.317-0.418c-0.067-0.041-0.093-0.111-0.176-0.137   c-1.347-0.422-0.806-6.322-0.577-7.331c0.727-3.196,3.119-5.464,6.421-5.662c6.28-0.376,8.381,4.772,11.514,8.97   c0.903,1.21,2.642,0.494,2.402-1.012c-0.001-0.007-0.004-0.013-0.005-0.02c0.361-0.064,0.702-0.24,0.824-0.653   c2.046-6.948,8.12-13.057,15.892-12.081c0.508,0.064,1.018,0.166,1.528,0.296c0.527,0.815,1.595,1.182,2.385,0.86   c6.991,3.139,12.532,11.653,5.628,17.722c-0.494,0.434-0.481,1.093-0.199,1.601c0.014,0.884,0.712,1.739,1.871,1.46   C133.495,202.874,136.575,207.996,135.061,212.578z"></path><path d="M234.293,162.712c23.379-31.712,57.414-112.479,8.666-138.212c-15.531-8.199-39.352-6.311-53.643,3.82   c-20.499,14.532-16.95,39.062-13.357,61.28c-4.938-8.071-13.908-14.246-22.149-6.825c-12.347,11.119,0.121,37.274,5.492,48.95   c0.513,1.114,2.233,0.314,1.937-0.817c-0.285-1.088-0.609-2.169-0.915-3.252c5.143,0.261,10.29,0.106,15.387-0.674   c0.784-0.12,0.607-1.463-0.189-1.394c-5.206,0.449-10.379,0.709-15.598,0.651c-0.767-2.645-1.57-5.282-2.362-7.922   c2.877,0.055,5.76,0.141,8.633-0.006c0.924-0.048,0.925-1.389,0-1.437c-3.016-0.155-6.044-0.053-9.064,0.002   c-0.76-2.556-1.468-5.124-2.131-7.702c2.487,0.197,4.975,0.394,7.469,0.484c1.087,0.039,1.046-1.561,0-1.664   c-2.626-0.259-5.262-0.401-7.896-0.547c-0.182-0.749-0.39-1.493-0.556-2.245c-0.218-0.991-0.553-2.547-0.851-4.369   c5.995,0.137,12.015,0.365,18.005,0.12c0.991-0.041,0.993-1.501,0-1.542c-6.054-0.248-12.137-0.012-18.196,0.124   c-0.402-2.854-0.629-6.168-0.217-9.086c2.558-0.075,5.129,0.048,7.647,0.483c0.938,0.162,1.358-1.221,0.4-1.453   c-2.583-0.625-5.118-0.792-7.718-0.706c1.221-4.803,4.769-7.821,13.415-4.234c6.054,2.512,8.789,9.609,9.799,15.48   c0.18,1.045,1.005,1.358,1.789,1.186c0.69,0.424,1.94,0.013,1.874-0.982c-0.067-1.008-0.16-2.053-0.255-3.1   c2.553,0.084,5.078,0.066,7.629-0.129c0.698-0.053,0.699-1.033,0-1.086c-2.591-0.198-5.156-0.216-7.75-0.127   c-0.292-2.981-0.666-6.104-1.04-9.295c2.873,0.676,5.844,1.092,8.79,0.745c0.915-0.108,0.973-1.469,0-1.472   c-2.876-0.007-5.686-0.013-8.529-0.523c-0.157-0.028-0.279,0.026-0.396,0.083c-0.317-2.731-0.619-5.515-0.871-8.312   c4.243-0.57,8.487-0.448,12.74,0.136c0.809,0.111,1.196-1.064,0.349-1.267c-4.4-1.054-8.8-0.996-13.208-0.227   c-0.307-3.721-0.493-7.458-0.449-11.131c1.579-0.22,3.165-0.348,4.769-0.341c0.893,0.004,0.862-1.289,0-1.366   c-1.608-0.144-3.172-0.013-4.731,0.222c0.087-2.874,0.342-5.695,0.796-8.435c5.866,0.453,11.734,0.855,17.613,1.096   c1.126,0.046,1.099-1.644,0-1.735c-5.751-0.474-11.511-0.792-17.275-1.061c0.713-3.53,1.803-6.9,3.406-10.017   c3.166,0.338,6.333,0.692,9.517,0.812c0.892,0.033,0.86-1.283,0-1.367c-2.975-0.288-5.962-0.369-8.948-0.451   c1.267-2.259,2.886-4.341,4.78-6.279c8.235,0.153,16.457,0.453,24.691,0.652c0.962,0.023,0.926-1.382,0-1.472   c-7.687-0.74-15.491-0.866-23.231-0.645c2.844-2.537,6.022-4.561,9.383-6.18c4.839-0.019,9.657,0.164,14.475,0.695   c0.822,0.091,0.802-1.177,0-1.279c-3.899-0.497-7.8-0.712-11.71-0.633c20.656-8.206,47.447-0.511,56.828,20.124   c16.537,36.375-4.932,85.631-26.987,114.995c-0.079,0.106-0.095,0.208-0.147,0.312c-4.057-0.065-8.132,1.245-11.333,3.988   c-0.191-5.727-4.414-11.674-9.484-13.69c-5.359-2.131-11.308-0.599-15.311,3.13c-0.005-0.559-0.033-1.102-0.104-1.585   c-0.429-2.942-1.945-5.747-4.463-7.412c-4.092-2.704-9.555-1.793-12.856,1.471c1.059-8.741-8.407-16.843-17.076-15.812   c-4.36,0.518-8.723,3.138-10.433,7.318c-1.003,2.451-0.999,5.324,0.058,7.673c-6.85-1.389-14.46,4.044-15.751,11.106   c-0.794,4.344,0.388,8.924,4.519,11.034c3.037,1.551,6.448,2.144,9.812,1.922c-5.689,6.155-5.169,16.631,3.05,20.872   c6.716,3.466,18.21,2.237,21.717-4.573c0.402,6.367,4.352,12.477,10.818,14.327c4.921,1.409,12.315-0.531,15.897-4.871   c1.053,11.378,11.314,20.606,23.396,18.998c6.188-0.824,12.327-4.55,14.847-10.448c2.855-6.683-0.669-12.522-5.193-17.264   c9.553,0.41,17.401-10.238,11.122-19.213C241.06,165.743,237.798,163.663,234.293,162.712z M240.783,181.088   c-2.396,3.441-6.078,3.791-9.794,3.802c-0.209-1.709-0.873-3.378-1.893-4.596c-0.763-0.912-2.31,0.282-1.651,1.274   c0.769,1.156,1.047,2.249,1.019,3.315c-0.059,0-0.12-0.001-0.18-0.001c-1.533,0.003-1.603,1.921-0.403,2.496   c-0.318,0.773-0.728,1.548-1.192,2.338c-0.606,1.033,0.619,2.315,1.666,1.666c0.522-0.324,0.912-0.745,1.267-1.187   c4.02,4.34,7.445,10.071,3.728,15.731c-2.995,4.56-8.717,6.908-14.027,6.803c-11.578-0.23-17.413-10.799-17.958-21.13   c-0.001-0.017-0.017-0.025-0.019-0.042c0-0.061,0.014-0.117,0.013-0.178c-0.016-1.332-1.663-1.632-2.367-0.641   c-3.629,5.112-7.604,9.908-14.77,8.07c-7.255-1.861-10.401-10.106-9.359-16.891c0.148-0.961-1.059-1.357-1.479-0.547   c-0.379-0.996-1.854-0.991-1.94,0.25c-0.641,9.219-12.743,10.842-19.412,7.131c-1.256-0.699-2.191-1.486-2.906-2.324   c3.386,0.517,6.833,0.887,10.224,0.937c0.801,0.012,1.014-1.269,0.193-1.428c-3.774-0.733-7.692-1.128-11.548-1.28   c-0.698-1.591-0.718-3.314-0.307-5.05c2.994-0.478,5.991-0.346,8.994,0.211c0.855,0.159,1.216-1.057,0.363-1.318   c-2.952-0.902-5.914-0.952-8.883-0.437c0.862-2.297,2.364-4.553,3.971-6.488c0.814,0.972,1.82,1.791,2.891,2.379   c1.204,0.661,2.109-1.018,1.052-1.8c-0.994-0.735-1.619-1.572-2.114-2.475c0.404-0.619,0.064-1.445-0.719-1.58   c-0.27-0.733-0.52-1.494-0.783-2.312c-0.311-0.967-2.02-1.194-2.196,0c-0.131,0.889-0.007,1.753,0.225,2.59   c-3.046,0.344-6.085,0.122-9.037-0.942c-3.14-1.133-4.754-3.333-4.914-6.152c4.077,0.589,8.127,0.876,12.243,0.519   c0.863-0.075,0.894-1.362,0-1.367c-4.079-0.021-8.145-0.154-12.193-0.679c0.056-0.492,0.148-0.998,0.281-1.517   c0.44-1.721,1.315-3.267,2.488-4.539c3.968,0.134,7.946,0.149,11.912,0.088c0.969-0.015,0.971-1.492,0-1.507   c-3.468-0.054-6.944-0.036-10.416,0.05c0.649-0.462,1.358-0.851,2.123-1.145c3.437-1.323,6.441-0.334,9.731,0.733   c1.276,0.414,2.407-1.415,1.347-2.313c-0.207-0.175-0.427-0.305-0.64-0.461c-0.965-1.484-1.453-2.997-1.577-4.455   c2.295,0.349,4.587,0.684,6.906,0.868c0.764,0.061,0.934-1.184,0.182-1.342c-2.344-0.494-4.706-0.825-7.076-1.149   c0.152-1.333,0.665-2.559,1.414-3.641c3.526-0.203,6.946,0.171,10.45,0.517c0.709,0.07,0.828-1.043,0.165-1.222   c-3.044-0.821-6.219-0.913-9.358-0.725c1.86-1.689,4.536-2.694,7.722-2.439c3.075,0.247,6.15,1.812,8.149,4.16   c2.906,3.413,2.645,7.213,2.791,11.341c0.027,0.75,0.739,1.233,1.411,1.228c0.404,0.406,1.195,0.488,1.574-0.093   c2.463-3.778,8.03-5.81,11.901-2.79c1.771,1.382,2.689,3.535,2.799,5.749c0.11,2.215-1.08,3.708-1.445,5.747   c-0.186,1.037,0.774,1.807,1.737,1.335c0.022-0.011,0.038-0.03,0.06-0.041c0.399,0.062,0.825-0.016,1.067-0.415   c3.36-5.541,10.591-9.005,16.777-5.789c6.022,3.131,6.362,9.12,5.936,14.99c-0.14,0.404-0.031,0.752,0.218,0.984   c0.505,0.692,1.755,0.75,2.25-0.082c0.292-0.492,0.523-1.002,0.721-1.521c5.616-5.79,14.874-7.263,21.036-1.085   C242.509,172.57,243.521,177.156,240.783,181.088z"></path></g><g></g><g></g><g></g><g></g><g></g><g></g><g></g><g></g><g></g><g></g><g></g><g></g><g></g><g></g><g></g></svg>