<svg xmlns="http://www.w3.org/2000/svg" xmlns:xlink="http://www.w3.org/1999/xlink" fill="currentColor" version="1.1" id="Capa_1" viewBox="0 0 252.495 252.495" xml:space="preserve"><g><path d="M231.751,145.085c-2.06-41.471-3.081-83.122-6.492-124.507c-0.025-0.304-0.172-0.516-0.345-0.69   c0.782-0.415,1.32-1.418,0.812-2.347c-7.09-12.959-34.613-14.707-47.463-16.259c-23.362-2.821-46.851-1.044-69.339,5.913   c-1.337,0.413-1.063,2.127,0.026,2.435c-0.607,0.444-1.014,1.172-0.833,2.105c7.74,39.878,17.405,79.14,27.469,118.476   c1.194,4.148,2.224,8.335,3.09,12.563c-0.472,8.669-4.149,10.966-11.033,6.891c-6.409,0.655-15.978-3.219-22.524-3.945   c-15.878-1.762-32.307-1.29-47.356,4.63c-36.859,14.499-59.624,80.868-13.021,99.453c13.237,5.279,28.727,1.529,42.229-0.584   c24.652-3.858,45.168-5.366,69.791-0.932c23.952,4.313,48.717,6.888,64.708-15.356   C239.309,208.115,233.161,173.464,231.751,145.085z M209.988,32.774c0.357-7.101,0.494-14.293,0.41-21.419   c5.256,2.051,9.733,4.714,12.709,8.207c0.086,0.101,0.185,0.15,0.278,0.22c-0.194,0.175-0.322,0.439-0.318,0.795   c0.07,5.54,0.182,11.082,0.325,16.624c-4.442-1.569-8.965-2.936-13.539-4.132C209.896,32.968,209.981,32.905,209.988,32.774z    M191.404,6.573c-1.076,6.911-0.157,14.601,0.593,21.442c0.133,1.213,2.043,1.241,1.925,0c-0.671-7.039-0.096-14.113-0.549-21.11   c5.002,0.854,9.918,2.007,14.412,3.528c-0.111,7.387,0.038,14.856,0.406,22.224c-11.804-2.963-23.962-4.719-36.173-5.181   c-0.778-7.69-1.458-15.422-2.598-23.065C175.788,4.774,183.606,5.355,191.404,6.573z M164.168,4.131   c0.979,0.049,2.022,0.102,3.118,0.16c0.001,0.011-0.01,0.015-0.009,0.026c0.725,7.713,1.945,15.406,3.053,23.078   c-5.643-0.159-11.29-0.012-16.915,0.379c-0.903-7.864-1.454-16.037-3.283-23.691C154.791,3.899,159.467,3.894,164.168,4.131z    M112.087,10.64c-0.129-0.664-0.486-1.08-0.935-1.298c12.321-2.577,24.685-4.527,37.177-5.157   c0.364,7.874,2.118,15.888,3.452,23.705c-5.656,0.448-11.28,1.189-16.848,2.197c0.027-0.111,0.083-0.207,0.049-0.346   c-0.918-3.798-1.874-7.573-2.576-11.419c-0.698-3.824-0.81-7.8-1.837-11.54c-0.289-1.052-1.799-0.796-1.854,0.251   c-0.383,7.406,2.393,16.191,4.851,23.098c0.03,0.085,0.102,0.108,0.149,0.171c-5.688,1.074-11.312,2.436-16.834,4.119   C115.238,26.504,113.628,18.579,112.087,10.64z M77.952,247.017c-24.658,1.626-46.546-2.105-53.267-27.69   c-7.073-26.925,8.44-53.455,32.663-64.297c3.308,3.538,6.169,7.223,8.761,10.992c-0.054,0.076-0.105,0.154-0.159,0.231   c-1.465-0.305-2.932-0.592-4.374-0.838c-1.057-0.18-1.532,1.391-0.451,1.636c1.221,0.277,2.427,0.597,3.625,0.94   c-0.636,0.924-1.277,1.845-1.913,2.769c-0.557,0.81,0.765,1.853,1.377,1.063c0.835-1.078,1.671-2.159,2.507-3.239   c0.468,0.142,0.94,0.277,1.407,0.423c2.662,4.211,4.956,8.535,6.835,12.973c-0.149,0.233-0.297,0.467-0.447,0.699   c-1.947-0.348-3.895-0.666-5.709-0.893c-0.779-0.097-0.943,1.197-0.185,1.367c1.607,0.36,3.197,0.776,4.791,1.173   c-1.005,1.498-2.042,2.979-3.207,4.395c-0.683,0.831,0.469,2.029,1.2,1.2c1.423-1.615,2.826-3.312,4.139-5.073   c0.244,0.066,0.494,0.112,0.738,0.181c2.387,6.298,4.013,12.796,4.908,19.451c-1.498-0.838-2.995-1.652-4.444-2.442   c-0.861-0.469-1.617,0.817-0.77,1.317c1.613,0.952,3.154,2.027,4.693,3.104c-1.528,1.181-3.045,2.374-4.679,3.438   c-0.807,0.525-0.081,1.797,0.76,1.3c1.622-0.959,3.228-1.984,4.81-3.05c0.645,6.815,0.599,13.771-0.193,20.837   c-0.191,0.142-0.378,0.289-0.569,0.433c-1.195-0.671-2.412-1.29-3.566-1.757c-0.804-0.325-1.395,1.059-0.595,1.411   c0.946,0.416,1.844,0.916,2.722,1.451c-1.508,1.165-3,2.34-4.466,3.482c-0.649,0.505,0.193,1.58,0.878,1.138   c1.722-1.111,3.491-2.239,5.249-3.394C80.327,236.797,79.331,241.889,77.952,247.017z M221.377,225.999   c-11.818,20.752-30.325,22.495-49.695,20.207c-1.39-5.338-2.315-10.691-2.524-15.932c1.589,1.424,3.141,2.909,4.645,4.515   c0.868,0.927,2.163-0.429,1.375-1.375c-1.765-2.119-3.842-3.979-6.051-5.679c0.003-0.446,0.046-0.885,0.061-1.33   c1.301-1.082,2.623-2.141,3.815-3.347c0.679-0.687-0.319-1.621-1.038-1.038c-0.9,0.73-1.788,1.47-2.678,2.209   c0.479-6.323,2.233-12.389,5.687-17.978c0.866,1.824,1.769,3.616,2.741,5.291c0.577,0.994,2.349,0.333,1.916-0.808   c-0.797-2.102-1.757-4.231-2.783-6.338c0.682-0.144,1.365-0.289,2.028-0.439c1.077-0.245,0.868-2.106-0.266-1.966   c-0.207,0.026-0.426,0.068-0.635,0.094c1.079-1.321,2.228-2.621,3.549-3.869c3.466-3.273,7.47-6.201,11.768-8.541   c0.356,1.902,0.723,3.831,1.657,5.493c0.452,0.805,1.629,0.406,1.669-0.452c0.093-1.985-0.512-3.994-1.075-5.949   c2.663,0.847,5.359,1.543,8.068,1.836c1.169,0.126,1.258-1.603,0.264-1.947c-1.655-0.573-3.324-1.083-4.997-1.573   c4.866-1.913,9.974-2.98,15.048-2.837c-0.391,1.851-0.511,3.694-0.156,5.386c0.229,1.091,1.751,0.937,2.059,0   c0.539-1.641,0.63-3.412,0.9-5.139c0.906,0.108,1.808,0.271,2.707,0.461c0.477,0.345,0.947,0.682,1.436,1.035   c0.41,0.295,0.889,0.03,1.113-0.359c2.279,0.698,4.524,1.659,6.7,3.001c0.488,0.301,0.96,0.339,1.367,0.21   C229.76,201.87,227.81,214.701,221.377,225.999z M217.685,180.85c0.507-1.547,1.085-3.068,1.795-4.538   c0.611-1.267-1.205-2.373-1.909-1.116c-0.733,1.309-1.47,2.838-2.132,4.433c-1.766-0.866-3.615-1.563-5.439-1.971   c-1.072-0.24-1.479,1.277-0.451,1.636c1.153,0.403,2.222,0.88,3.248,1.404c-6.187,0.083-12.429,1.652-18.214,4.416   c-0.513-2.064-1.029-4.128-1.654-6.16c-0.352-1.146-1.957-0.658-1.764,0.486c0.325,1.926,0.76,3.834,1.187,5.742   c-2.251-0.67-4.494-1.373-6.702-2.236c-0.967-0.378-1.671,1.267-0.712,1.69c1.95,0.86,3.972,1.703,6.019,2.509   c-3.791,2.17-7.37,4.68-10.453,7.524c-2.076,1.916-3.886,3.969-5.504,6.107c-0.806-1.504-1.627-2.985-2.461-4.4   c-0.445-0.755-1.789-0.258-1.463,0.617c0.704,1.892,1.494,3.836,2.325,5.772c-2.003,0.357-3.989,0.798-5.854,1.422   c-0.757,0.253-0.668,1.462,0.195,1.442c1.454-0.034,2.945-0.196,4.436-0.405c-3.682,6.311-5.746,13.24-6.019,20.415   c-2.2-1.429-4.481-2.729-6.825-3.797c-0.758-0.345-1.429,0.752-0.664,1.136c2.484,1.245,4.719,2.718,6.847,4.32   c-1.554,1.261-3.112,2.516-4.739,3.692c-0.724,0.523-0.048,1.734,0.712,1.218c1.598-1.085,3.161-2.226,4.71-3.383   c0.166,5.713,1.3,11.498,3.477,17.132c-8.441-1.108-17.006-2.875-25.219-4.084c-17.007-2.504-41.125,3.092-63.426,4.924   c1.513-3.954,2.673-7.984,3.507-12.057c0.616,0.68,1.221,1.37,1.889,2.012c0.691,0.664,1.773-0.176,1.317-1.016   c-0.687-1.269-1.672-2.405-2.803-3.43c0.207-1.204,0.347-2.414,0.499-3.624c1.235-0.917,2.438-1.861,3.564-2.865   c0.686-0.611-0.191-1.669-0.959-1.242c-0.781,0.433-1.54,0.929-2.304,1.413c0.488-5.373,0.408-10.771-0.143-16.125   c1.413,0.965,2.84,1.903,4.322,2.742c0.803,0.455,1.663-0.622,0.993-1.287c-1.663-1.651-3.617-3.065-5.653-4.38   c-0.061-0.44-0.17-0.873-0.237-1.312c1.657-1.296,3.255-2.659,4.689-4.178c0.798-0.846-0.384-1.966-1.253-1.254   c-1.29,1.057-2.567,2.109-3.845,3.165c-1.06-5.903-2.771-11.685-4.965-17.286c2.158,0.772,4.299,1.637,6.519,2.115   c0.953,0.205,1.589-1.102,0.683-1.62c-2.426-1.387-5.267-2.338-8.191-3.059c-0.276-0.647-0.627-1.26-0.918-1.901   c0.826-1.345,1.591-2.72,2.194-4.163c0.403-0.964-1.08-1.449-1.603-0.676c-0.577,0.854-1.131,1.716-1.683,2.577   c-1.558-3.211-3.351-6.301-5.252-9.323c1.313,0.403,2.629,0.794,3.96,1.146c1.019,0.269,1.756-1.277,0.742-1.759   c-2.085-0.992-4.317-1.726-6.59-2.33c-0.26-0.382-0.564-0.732-0.829-1.11c0.981-1.32,1.959-2.641,2.858-4.017   c0.588-0.9-0.815-2.022-1.512-1.167c-0.917,1.126-1.763,2.307-2.618,3.481c-2.581-3.508-5.332-6.89-8.424-9.971   c1.955-0.804,3.948-1.536,6.002-2.13c25.179-7.272,51.328-1.111,76.095,4.808c1.262,0.302,2.591-0.601,2.573-1.96   c-0.308-22.397-9.303-44.77-14.577-66.377c-4.225-17.309-8.111-34.691-11.757-52.126c36.848-7.484,70.091-6.453,106.175,4.238   c1.093,38.679,3.701,77.38,5.431,116.012c0.412,9.205,1.167,18.907,1.158,28.568C226.177,182.811,221.978,181.413,217.685,180.85z"></path><path d="M207.072,90.757c-2.018-0.065-4.042-0.073-6.063-0.105c1.232-1.596,2.732-3.006,4.302-4.227   c0.695-0.54-0.194-1.621-0.924-1.197c-2.471,1.436-4.377,3.28-6.153,5.376c-4.664-0.046-9.331-0.05-14.002-0.01   c1.276-1.275,2.542-2.57,3.778-3.885c0.023-0.001,0.038,0.014,0.061,0.012c2.503-0.216,5.672,0.037,7.96-1.043   c0.805-0.38,0.552-1.636-0.242-1.846c-1.612-0.427-3.565-0.16-5.406,0.117c0.706-0.837,1.459-1.646,2.099-2.524   c0.986-1.355-1.053-2.606-2.171-1.675c-0.4,0.334-0.754,0.741-1.145,1.091c0.011-1.568,0.051-3.138,0.042-4.692   c-0.006-1.019-1.482-0.991-1.563,0c-0.179,2.191-0.301,4.422-0.514,6.631c-2.07,2.062-4.07,4.227-5.997,6.45   c-0.517-4.325-1.12-8.638-1.789-12.924c0.202-0.168,0.372-0.369,0.452-0.608c0.907-2.718,2.116-5.576,2.456-8.426   c0.145-1.218-1.742-1.639-2.273-0.616c-0.674,1.295-1.157,2.732-1.573,4.193c-0.402-2.363-0.779-4.742-1.217-7.078   c-0.145-0.773-1.456-0.607-1.385,0.187c0.228,2.555,0.398,5.123,0.605,7.683c-1.874-1.767-3.718-3.574-5.574-5.338   c-0.733-0.697-1.776,0.359-1.105,1.105c2.315,2.575,4.733,5.112,6.958,7.775c0.355,4.551,0.735,9.094,1.075,13.649   c-2.512-1.859-4.998-3.752-7.496-5.63c-0.492-1.377-0.961-2.743-1.206-4.201c-0.281-1.673,0.029-3.51-0.492-5.11   c-0.207-0.634-1.221-0.906-1.551-0.203c-0.904,1.93-0.617,4.664,0.086,7.139c-0.961-0.728-1.934-1.44-2.892-2.172   c-0.847-0.647-1.95,0.784-1.143,1.482c1.193,1.032,2.432,2.123,3.657,3.198c-1.693,0.074-3.386,0.149-5.079,0.224   c-0.93,0.041-0.935,1.417,0,1.449c2.424,0.082,4.849,0.162,7.273,0.246c2.057,1.801,4.153,3.622,6.288,5.413   c-4.324,0.053-8.648,0.1-12.969,0.126c-1.653-2.199-3.499-4.568-5.64-5.899c-0.914-0.568-1.705,0.515-1.343,1.343   c0.693,1.584,1.923,3.114,3.257,4.557c-2.118,0.003-4.237,0.021-6.353,0.002c-1.192-0.01-1.159,1.736,0,1.83   c2.898,0.236,5.824,0.438,8.747,0.642c0.087,0.087,0.17,0.173,0.256,0.259c-1.995,1.976-4.228,3.624-6.732,4.932   c-1.087,0.568-0.132,2.143,0.952,1.629c3.1-1.468,5.78-3.396,8.33-5.674c0.284-0.254,0.358-0.587,0.315-0.917   c4.234,0.273,8.482,0.505,12.736,0.666c-1.83,1.999-3.715,3.98-5.532,6.015c-2.289,0.106-4.589,0.133-6.875,0.196   c-1.082,0.03-1.078,1.632,0,1.678c1.694,0.071,3.396,0.122,5.097,0.193c-1.087,1.289-2.145,2.6-3.114,3.97   c-0.571,0.809,0.614,1.516,1.272,0.982c0.967-0.785,1.909-1.608,2.83-2.459c-0.51,1.696-0.764,3.453-0.295,4.878   c0.243,0.737,1.405,1.044,1.794,0.234c0.605-1.259,0.58-2.601,0.882-3.962c0.33-1.488,0.843-2.889,1.422-4.295   c0.082-0.2,0.063-0.41,0.001-0.613c1.391-1.437,2.762-2.895,4.123-4.348c0.33,4.262,0.685,8.519,1.066,12.772   c-1.73,2.657-3.706,5.168-5.584,7.721c-0.591,0.803,0.77,1.866,1.392,1.074c1.488-1.896,2.962-3.818,4.491-5.688   c0.2,2.118,0.386,4.24,0.612,6.353c0.177,1.657,2.64,1.745,2.65,0c0.009-1.554-0.086-3.123-0.118-4.683   c2.135,2.303,4.557,4.389,7.297,5.7c0.941,0.45,2.037-0.728,1.178-1.527c-2.901-2.697-5.857-5.132-8.571-7.971   c-0.189-4.795-0.482-9.602-0.946-14.415c2.193,1.649,4.433,3.162,6.695,4.579c0.435,1.841,0.672,3.747,1.065,5.595   c0.167,0.786,1.437,0.614,1.404-0.19c-0.056-1.37-0.188-2.749-0.288-4.127c0.815,0.47,1.616,1.003,2.44,1.429   c1.191,0.616,2.559-0.94,1.49-1.931c-0.084-0.078-0.182-0.142-0.266-0.219c0.951,0.059,1.889,0.063,2.755-0.133   c0.758-0.172,1.013-1.444,0.232-1.777c-1.92-0.82-4.26-0.837-6.436-0.922c-1.778-1.357-3.607-2.665-5.465-3.934   c3.674,0.042,7.344,0.027,11.002-0.073c0.114,0.191,0.27,0.372,0.483,0.535c2.735,2.096,6.237,5.573,9.63,6.343   c0.839,0.191,1.633-0.708,1.152-1.498c-0.943-1.548-2.335-2.363-3.8-3.41c-1.035-0.74-2.08-1.467-3.117-2.205   c2.088-0.101,4.182-0.161,6.257-0.338C208.933,93.534,208.987,90.818,207.072,90.757z"></path></g><g></g><g></g><g></g><g></g><g></g><g></g><g></g><g></g><g></g><g></g><g></g><g></g><g></g><g></g><g></g></svg>