<svg xmlns="http://www.w3.org/2000/svg" xmlns:xlink="http://www.w3.org/1999/xlink" fill="currentColor" version="1.1" id="Capa_1" viewBox="0 0 286.663 286.663" xml:space="preserve"><g><path d="M138.645,204.877c-6.388,0.365-10.263,13.231-10.77,18.031c-0.734,6.948,2.649,14.388,10.906,12.253   c7.359-1.902,12.626-12.27,12.423-19.356C151.01,209.041,145.417,202.791,138.645,204.877z M134.631,231.438   c-1.909-0.731-2.843-2.268-3.173-4.154c0.972-0.136,1.942-0.154,2.926-0.133c0.471,0.01,0.597-0.752,0.114-0.841   c-1.098-0.201-2.089-0.091-3.13,0.164c-0.077-0.893-0.027-1.847,0.087-2.814c0.025,0.002,0.035,0.023,0.062,0.019   c1.385-0.171,2.737-0.366,4.107-0.63c0.338-0.065,0.264-0.625-0.082-0.603c-1.335,0.086-2.65,0.23-3.976,0.404   c0.506-3.164,1.73-6.369,2.523-8.161c0.08-0.181,0.184-0.346,0.271-0.523c1.724,0.09,3.485,0.255,5.193,0.059   c0.559-0.064,0.561-0.807,0-0.872c-1.576-0.181-3.196-0.054-4.793,0.038c0.459-0.827,0.983-1.61,1.515-2.384   c1.067-0.177,2.138-0.259,3.272-0.167c0.512,0.041,0.635-0.814,0.122-0.904c-0.897-0.157-1.778-0.158-2.639-0.037   c0.392-0.556,0.788-1.111,1.162-1.671c0.178,0.033,0.363,0.045,0.552,0.013C155.053,205.509,145.305,235.523,134.631,231.438z"></path><path d="M192.048,215.543c-4.026-9.2-15.039-16.15-25.009-16.12c-1.229,0.004-1.715,0.943-1.577,1.832   c-2.533,2.295-3.502,5.717-3.584,9.413c-0.024,0.004-0.05,0.007-0.074,0.011c-0.521,0.093-0.371,0.733,0.055,0.855   c0.077,5.188,1.802,10.786,3.452,14.533c3.504,7.954,9.891,15.159,19.247,11.598C193.374,234.311,195.551,223.548,192.048,215.543z    M185.38,232.918c-4.385,3.122-8.521,2.091-11.888-1.048c1.32-0.082,2.643-0.148,3.955-0.305c0.601-0.072,0.639-0.986,0-0.969   c-1.628,0.046-3.253,0.214-4.876,0.344c-0.909-0.993-1.731-2.168-2.497-3.425c2.118-0.036,4.268-0.014,6.354-0.311   c0.584-0.083,0.399-0.954-0.133-0.984c-2.234-0.124-4.529,0.139-6.769,0.281c-0.697-1.258-1.289-2.621-1.829-4.015   c1.762-0.251,3.528-0.449,5.292-0.705c0.583-0.085,0.432-1.021-0.138-1.015c-1.853,0.021-3.698,0.343-5.522,0.72   c-0.504-1.429-0.899-2.896-1.217-4.362c1.715-0.271,3.427-0.553,5.125-0.925c0.515-0.113,0.288-0.859-0.214-0.779   c-1.704,0.272-3.389,0.632-5.073,1.002c-0.347-1.777-0.483-3.508-0.513-5.188c1.414-0.11,2.831-0.195,4.256-0.28   c0.741-0.045,0.754-1.171,0-1.163c-1.417,0.017-2.836,0.146-4.25,0.326c0.082-2.844,0.626-5.42,1.873-7.278   c6.331,0.842,12.342,3.369,16.915,7.96C189.907,216.502,193.146,227.39,185.38,232.918z"></path><path d="M143.736,173.772c-0.733-0.606-1.674-0.67-2.406,0c-0.189,0.173-0.301,0.39-0.428,0.598   c-0.066,0.064-0.146,0.093-0.208,0.169c-0.906,1.116-0.84,3.317,0.123,4.375c1.158,1.273,3.085,0.917,4.045-0.409   C146.037,176.882,145.112,174.909,143.736,173.772z"></path><path d="M168.373,172.934c-0.549-1.432-2.587-1.661-3.175-0.149c-1.013,1.189-1.249,2.743-0.837,4.428   c0.222,0.91,1.167,1.308,2.017,1.145C169.004,177.858,169.151,174.963,168.373,172.934z"></path><path d="M229.904,3.748c-17.928-6.833-36.54-4.173-50.642,6.752c-0.225,0.015-0.452,0.031-0.677,0.046   c-0.609,0.041-0.812,0.605-0.695,1.056c-3.714,3.086-7.107,6.735-10.038,10.994c-17.751,25.795-17.135,63.948-7.661,92.592   c-2.439,1.005-4.268,2.964-4.258,6.139c-1.891-0.24-3.865-0.421-6.033-0.479c-0.515-0.014-0.763,0.293-0.875,0.651   c-1.212-0.024-2.346,0.084-3.464,0.22c-1.43-3.633-4.141-5.608-7.195-6.181c-1.559-28.513,2.609-60.42-22.442-80.17   C98.486,21.622,67.831,10.81,46.56,21.438c-7.696,3.846-13.111,9.255-16.634,15.346l-0.023,0.001   c-0.422,0.009-0.537,0.428-0.396,0.717c-4.739,8.636-5.723,18.565-3.807,27.42c-0.287,0.379-0.196,0.94,0.26,1.11   c1.342,5.45,3.819,10.402,7.148,14.36c-0.135,0.377,0.013,0.856,0.526,0.83c0.058-0.003,0.115-0.006,0.173-0.009   c8.723,9.631,22.99,12.435,39.396-0.932c0.402-0.328,0.495-0.767,0.424-1.195c2.408-1.414,6.733-2.523,7.725-2.52   c2.896,0.01,5.932,1.56,7.122,4.31c-0.25,0.23-0.168,0.678,0.272,0.736c0.004,0.001,0.008,0,0.012,0.001   c1.496,5.2-3.572,8.502-5.221,12.649c-1.58,3.974,0.39,8.178,4.305,9.62c0.218,0.08,0.424,0.034,0.62-0.033   c3.186,0.999,7.749-0.674,11.128-1.786c1.216-0.4,4.185-1.476,5.274-0.816c0.587,0.355,1.016,0.936,1.375,1.577   c-0.09,0.202-0.008,0.473,0.263,0.52c0.516,1.175,0.735,2.511,0.583,3.519c-0.256,1.692-1.146,3.062-0.917,4.839   c0.308,2.384,1.73,3.846,4.083,4.015c0.097,0.007,0.151-0.057,0.236-0.072c0.793,0.415,1.704,0.671,2.719,0.686   c2.032,0.03,4.021-0.584,6.06-0.536c1.103,0.027,7.83,1.116,6.975,3.855c-0.109,0.35-0.019,0.689,0.165,0.975   c-1.486,2.016-2.29,4.495-1.206,6.954c0.754,1.711,2.812,3.777,4.766,3.621c-1.73,2.281-3.251,4.831-4.555,7.605   c-7.61-4.214-15.021-10.302-24.169-9.607c-11.278,0.858-20.026,10.598-30.798,13.267c-1.371,0.34-1.441,2.547,0,2.845   c10.61,2.193,17.051,10.454,28.768,9.424c9.702-0.853,16.4-7.394,24.47-11.893c-0.323,0.833-0.633,1.676-0.928,2.529   c-4.227,12.2-7.272,23.163-14.677,33.955c-5.049,7.358-10.572,14.418-12.5,23.31c-0.299,1.378-0.502,2.707-0.661,4.013   c-0.063,0.126-0.075,0.255-0.04,0.392c-1.701,15.2,5.861,25.508,17.144,32.075c-0.655,1.836-1.316,3.661-1.835,5.555   c-0.624,2.272-1.612,4.615-1.472,6.983c0.003,0.048,0.039,0.075,0.047,0.12c-0.247,0.441-0.228,1.065,0.291,1.345   c22.811,12.341,49.56,13.847,74.297,7.008c-0.039,9.165,4.849,19.962,8.926,25.543c0.012,0.017,0.03,0.013,0.043,0.029   c-0.012,0.515,0.277,1.012,0.929,0.962c6.301-0.483,14.176-3.535,20.347-8.193c1.973,4.524,6.926,7.889,11.274,3.54   c4.206-4.208,1.462-10.287-3.346-12.257c0.804-1.44,1.428-2.936,1.803-4.486c0.193-0.799-0.267-1.373-0.86-1.618   c-3.29-3.605-8.703-9.339-14.651-13.403c4.026-1.784,8.08-4.635,10.548-8.118c0.832-0.108,1.594-0.8,1.206-1.725   c-0.889-2.121-2.44-3.988-3.79-5.845c-1.139-1.567-2.318-3.119-3.597-4.577c7.327-7.441,10.379-17.474,4.865-30.771   c-3.403-8.208-9.75-14.622-15.728-20.968c-10.866-11.533-16.28-21.399-21.56-36.497c-0.187-0.535-0.387-1.03-0.581-1.541   c8.784,5.605,18.191,10.73,28.853,11.021c13.138,0.358,21.482-8.889,33.471-12.611c1.326-0.412,0.951-2.136-0.31-2.287   c-12.069-1.443-18.665-14.5-30.995-14.764c-12.521-0.268-21.63,13.57-33.845,12.528c-1.114-1.951-2.372-3.597-3.736-5.068   c0.117-0.048,0.235-0.045,0.349-0.145c3.03-2.643,2.642-6.55,0.733-9.587c0.017-0.01,0.034-0.009,0.05-0.02   c3.921-2.516,10.641,0.13,13.42-4.659c0.909-1.566,0.716-3.273,0.542-4.992c-0.301-2.969-0.814-5.414,1.882-7.729   c1.277-1.097,3.711-1.379,5.712-1.768c5.22,0.111,10.052-3.441,10.482-8.938c0.248-3.171-1.059-6.234-2.952-8.7   c-0.926-1.207-2.199-2.038-3.193-3.153c-3.462-2.003-4.415-5.469-2.858-10.396c1.916-1.03,3.897-1.632,5.942-1.811   c17.873,8.324,47.306,13.635,56.738-9.554C268.65,34.982,250.15,11.465,229.904,3.748z M122.937,139.921   c-5.552-2.241-11.243-3.486-17.295-3.031c-7.386,0.555-13.866,4.213-21.048,5.647c-0.565,0.113-0.446,1.062,0.137,1.015   c5.173-0.42,9.708-2.526,14.731-3.689c7.121-1.648,14.145-0.987,20.876,1.515c-7.786,4.607-14.472,10.771-24.324,10.573   c-2.797-0.056-5.278-0.701-7.621-1.61c0.787,0.066,1.575,0.135,2.361,0.188c0.579,0.04,0.555-0.823,0-0.888   c-1.664-0.193-3.34-0.348-5.017-0.452c-1.121-0.543-2.219-1.131-3.315-1.727c1.437,0.043,2.873,0.104,4.317,0.225   c0.565,0.048,0.702-0.906,0.135-0.999c-2.106-0.346-4.26-0.44-6.393-0.28c-1.564-0.849-3.148-1.673-4.797-2.387   c2.058,0.017,4.116,0.042,6.173-0.039c0.665-0.026,0.666-1.007,0-1.034c-1.417-0.055-2.835-0.059-4.253-0.052   c2.583-1.214,5.033-2.644,7.5-4.061c2.413-0.366,4.825-0.727,7.225-1.179c0.556-0.105,0.437-1.07-0.135-0.999   c-1.44,0.178-2.869,0.423-4.302,0.638c1.464-0.806,2.968-1.556,4.507-2.257c1.559-0.038,3.118-0.092,4.671-0.226   c0.724-0.062,0.75-1.142,0-1.146c-0.456-0.002-0.91,0.028-1.366,0.037c11.222-3.741,17.957,2.292,27.379,6.135   C123.033,139.864,122.986,139.895,122.937,139.921z M219.527,131.387c-12.593-5.008-24.591,4.809-37.275,4.203   c4.707-0.974,8.68-4.049,13.828-6.737c12.167-6.352,19.083-4.269,30.081,3.445c2.144,1.504,4.565,3.655,7.077,4.575   c1.063,0.389,1.831,0.744,2.406,1.026c-2.831,1.372-9.562,5.114-10.132,5.412c-16.804,8.795-31.271,2.893-46.064-6.323   c13.255,3.658,25.891-7.154,39.586-3.81C220.22,133.467,220.615,131.82,219.527,131.387z M157.884,120.261   c1.799,0.358,3.925-0.101,5.587-0.571c0.465-0.131,0.267-0.803-0.198-0.716c-1.56,0.293-3.203,0.212-4.78,0.36   c0.707-0.929,1.653-1.522,2.674-1.964c0.737,0,1.473,0.008,2.21-0.014c0.356-0.011,0.368-0.488,0.063-0.569   c1.378-0.131,2.827-0.006,4.254,0.531c5.045,1.897,5.514,5.926,3.635,10.297c-0.014,0.033,0.003,0.062-0.009,0.095   c-3.612-3.313-8.159-5.253-13.994-6.179C157.473,121.065,157.674,120.657,157.884,120.261z M125.883,114.866   c-1.376-0.925-2.981-1.43-4.618-1.629c-3.093-0.376-9.502,1.995-11.481-0.975c-0.367-0.86-0.329-1.922-0.143-3.05   c1.985,0.056,3.951-0.015,5.92-0.33c0.498-0.08,0.387-0.942-0.12-0.888c-1.871,0.199-3.735,0.287-5.611,0.26   c0.356-1.639,0.868-3.336,0.829-4.715c1.115,0.048,2.23,0.11,3.346,0.143c0.521,0.016,0.517-0.783,0-0.807   c-1.149-0.054-2.298-0.079-3.447-0.117c-0.011-0.048-0.006-0.104-0.019-0.151c-0.498-1.728-1.843-3.024-3.423-3.793   c-6.231-3.032-15.292,6.364-19.946,1.177c2.539-0.102,5.078-0.277,7.606-0.508c0.6-0.055,0.622-0.973,0-0.953   c-2.684,0.085-5.373,0.228-8.05,0.463c-0.387-1.224-0.228-2.479,0.231-3.759c2.994,0.037,5.978-0.031,8.967-0.33   c0.629-0.063,0.652-1.04,0-1.002c-2.835,0.169-5.673,0.225-8.511,0.206c0.838-1.779,2.073-3.598,3.047-5.435   c2.095,0.37,4.203,0.687,6.325,0.753c0.693,0.022,0.649-0.967,0-1.049c-1.941-0.248-3.882-0.468-5.819-0.726   c0.409-0.89,0.731-1.782,0.875-2.675c0.177-1.103,0.119-2.17-0.053-3.206c1.482,0.014,2.968-0.025,4.422-0.069   c0.675-0.02,0.676-1.029,0-1.049c-1.554-0.047-3.143-0.082-4.725-0.053c-0.598-1.964-1.762-3.721-3.565-4.99   c-4.359-3.068-13.709-2.402-16.963,2.576c-8.113,5.809-17.93,10.623-27.339,7.283c2.86-0.265,5.698-0.628,8.521-1.224   c0.636-0.134,0.36-1.073-0.266-0.965c-3.37,0.581-6.757,1.068-10.162,1.388c-1.806-0.866-3.594-2.017-5.343-3.584   c4.832-0.243,9.665-0.493,14.487-0.891c0.633-0.052,0.653-1.016,0-1.001c-5.242,0.117-10.477,0.407-15.712,0.695   c-1.936-1.985-3.525-4.232-4.752-6.68c4.244,0.199,8.498,0.031,12.717-0.469c0.934-0.111,0.955-1.586,0-1.485   c-4.425,0.468-8.833,0.653-13.279,0.682c-0.844-1.905-1.555-3.873-2.011-5.924c6.149-0.508,12.293-1.052,18.448-1.503   c1.034-0.076,1.06-1.66,0-1.631C40,63.049,33.715,63.571,27.504,64.462c-0.444-2.557-0.582-5.175-0.459-7.771   c2.867-0.059,5.734-0.117,8.599-0.232c0.693-0.028,0.699-1.094,0-1.082c-2.847,0.048-5.691,0.153-8.536,0.258   c0.169-2.207,0.54-4.389,1.101-6.497c11.472-0.637,22.937-0.974,34.417-1.398c0.912-0.034,0.917-1.399,0-1.421   c-11.321-0.261-22.696,0.343-33.97,1.401c0.52-1.658,1.128-3.278,1.895-4.798c0.942-1.868,1.987-3.549,3.08-5.141   c4.082-0.046,8.14-0.298,12.202-0.878c0.608-0.087,0.47-1.129-0.146-1.078c-3.719,0.308-7.442,0.563-11.169,0.751   c1.622-2.187,3.394-4.089,5.28-5.754c6.707-0.426,13.461-0.682,20.114-1.623c0.679-0.097,0.496-1.171-0.159-1.174   c-5.881-0.025-11.77,0.495-17.641,0.956c2.223-1.653,4.597-2.973,7.07-4.048c4.004-0.041,8.012-0.067,12.008-0.308   c0.711-0.042,0.723-1.099,0-1.114c-2.819-0.057-5.639-0.003-8.459,0.073c12.044-3.863,26.157-2.015,39.103,2.541   c19.914,7.008,35.77,19.463,40.829,40.867c3.735,15.801,1.742,32.384,3.952,48.406c-2.666-0.029-5.438,0.931-7.816,2.815   C128.322,116.876,127.039,115.644,125.883,114.866z M127.432,126.253c0.973,0.136,1.958,0.297,2.931,0.271   c0.58-0.015,0.749-0.914,0.142-1.046c-1.069-0.232-2.183-0.25-3.276-0.311c0.011-0.738,0.249-1.443,0.605-2.111   c1.704,0.056,3.418,0.141,5.115,0.06c0.779-0.037,0.78-1.174,0-1.211c-1.454-0.07-2.919-0.017-4.381,0.035   c0.862-1.081,1.999-1.998,3.008-2.646c4.105-2.638,9.376-1.727,11.403,2.929c-5.02,1.232-9.03,4.11-12.255,8.044   C129.345,129.932,127.948,127.713,127.432,126.253z M111.965,234.748c-1.673-1.065-3.207-2.234-4.662-3.458   c2.7,0.142,5.34,0.562,8.038,0.95c0.439,0.063,0.643-0.561,0.189-0.685c-2.897-0.791-5.955-0.936-8.959-0.903   c-0.425-0.378-0.89-0.729-1.289-1.123c0.147-1.069,0.39-2.095,0.626-3.125c3.325,0.132,6.66,0.132,9.953-0.364   c0.567-0.085,0.418-0.985-0.133-0.983c-3.204,0.013-6.402,0.191-9.604,0.267c0.457-1.75,1.082-3.418,1.781-5.048   c2.891-0.225,5.784-0.311,8.685-0.468c0.733-0.04,0.721-1.069,0-1.13c-2.685-0.228-5.378-0.073-8.055,0.222   c0.735-1.536,1.609-2.995,2.543-4.417c2.403-0.234,4.802-0.314,7.233-0.313c0.862,0.001,0.816-1.214,0-1.308   c-2.053-0.233-4.111-0.166-6.157,0.049c1.325-1.822,2.828-3.53,4.45-5.147c4.204-0.093,8.422-0.213,12.616-0.392   c0.978-0.042,0.976-1.465,0-1.518c-3.594-0.194-7.276-0.023-10.915,0.315c2.019-1.824,4.236-3.484,6.58-5.011   c2.398,0.137,4.789,0.192,7.204-0.009c0.745-0.062,0.77-1.175,0-1.179c-1.763-0.01-3.527-0.011-5.291-0.029   c30.208-18.047,81.442-12.382,83.976,26.183c0.015,0.235,0.076,0.439,0.167,0.616c-10.46,13.644-33.187,17.361-48.73,18.697   c-14.873,1.279-34.22-1.559-47.943-9.292c2.48,0.367,4.968,0.649,7.493,0.659c0.551,0.003,0.526-0.785,0-0.84   C118.486,235.622,115.216,235.268,111.965,234.748z M222.871,280.501c-3.281,2.939-6.118-0.336-7.822-3.209   c1.917-1.604,3.614-3.37,4.998-5.267C223.543,273.245,226.291,277.438,222.871,280.501z M209.485,255.408   c3.823,3.049,7.35,6.398,10.92,9.729c-3.161,11.25-17.541,16.267-27.346,19.528c-0.83-1.88-1.65-3.758-2.433-5.65   c1.663-0.423,3.344-0.744,5.048-0.978c0.639-0.087,0.473-1.117-0.15-1.11c-1.861,0.022-3.645,0.357-5.425,0.826   c-0.592-1.485-1.124-2.994-1.617-4.518c3.688-0.153,7.394-0.277,11.06-0.695c0.633-0.072,0.67-1.038,0-1.017   c-3.773,0.118-7.543,0.548-11.298,0.937c-0.19-0.617-0.4-1.227-0.567-1.853c-0.345-1.293-0.766-2.969-1.116-4.815   c2.387-0.004,4.772-0.132,7.119-0.595c0.773-0.152,0.434-1.288-0.322-1.167c-2.324,0.369-4.635,0.591-6.968,0.685   c-0.217-1.298-0.385-2.655-0.463-4.004c3.736-0.301,7.482-0.737,11.183-1.302c0.606-0.092,0.47-1.134-0.146-1.078   c-3.689,0.331-7.396,0.801-11.059,1.391c-0.038-1.736,0.133-3.408,0.547-4.916c2.696-0.244,5.39-0.498,8.07-0.876   c0.602-0.085,0.461-1.097-0.144-1.063c-2.486,0.139-4.963,0.386-7.439,0.648c0.536-1.246,1.258-2.353,2.382-3.113   c4.037-2.729,9.641-2.007,13.486,0.215C205.169,251.982,207.356,253.71,209.485,255.408z M213.349,236.452   c0.936,1.448,1.853,3.047,2.979,4.396c-1.694,1.442-3.204,3.104-4.959,4.496c-1.696,1.345-3.485,2.577-5.272,3.799   c-5.751-3.533-11.848-5.232-16.935-1.743c-2.377,1.63-3.855,3.853-4.749,6.381c-0.411,0.044-0.823,0.087-1.234,0.13   c-0.755,0.079-0.769,1.266,0,1.195c0.273-0.025,0.545-0.05,0.817-0.075c-0.222,0.848-0.409,1.713-0.511,2.615   c-0.164-0.027-0.344-0.019-0.539,0.034c-22.409,6.102-43.497,4.352-64.595-3.045c1.994,0.264,3.99,0.517,5.995,0.697   c0.287,0.026,0.357-0.46,0.069-0.508c-2.917-0.479-5.853-0.809-8.787-1.159c-1.513-0.566-3.027-1.157-4.542-1.779   c0.354-0.634,0.608-1.322,0.83-2.026c3.853,0.108,7.708,0.238,11.561,0.217c0.458-0.003,0.456-0.695,0-0.711   c-3.79-0.134-7.584-0.122-11.377-0.129c0.346-1.258,0.587-2.559,0.882-3.794c0.003-0.013,0.005-0.026,0.008-0.04   c1.961,0.275,3.923,0.561,5.896,0.719c0.538,0.044,0.669-0.86,0.129-0.951c-1.932-0.326-3.883-0.531-5.831-0.743   c0.308-1.395,0.596-2.79,0.832-4.194c13.456,7.062,31.379,9.274,45.255,8.421c15.471-0.952,38.422-5.723,51.179-17.047   C211.338,233.267,212.329,234.872,213.349,236.452z M180.657,153.738c3.542,8.963,8.597,15.853,14.94,22.921   c11.123,12.394,27.859,27.536,17.756,46.412c-6.426-51.852-105.334-45.083-109.383,2.307c-0.099,0-0.198,0.008-0.298,0.008   c-0.595-0.003-0.588,0.889,0,0.92c0.075,0.004,0.15,0.006,0.225,0.01c-0.031,0.535-0.117,1.047-0.123,1.592   c-2.423-2.747-4.273-5.833-5.395-9.266c0.691,0.04,1.38,0.113,2.083,0.216c0.259,0.038,0.38-0.333,0.112-0.404   c-0.783-0.209-1.561-0.297-2.345-0.33c-0.451-1.493-0.729-3.066-0.892-4.689c1.634,0.099,3.27,0.156,4.904,0.061   c0.597-0.035,0.608-0.94,0-0.937c-1.673,0.011-3.341,0.015-5.01-0.014c-0.105-1.623-0.048-3.316,0.157-5.069   c1.523,0.029,3.047,0.045,4.562-0.081c0.633-0.053,0.634-0.932,0-0.985c-1.459-0.122-2.927-0.11-4.395-0.084   c0.268-1.73,0.739-3.54,1.327-5.393c3.702-0.046,7.403,0.025,11.105-0.042c0.734-0.013,0.719-1.078,0-1.13   c-3.594-0.264-7.178-0.128-10.768,0.087c0.629-1.808,1.47-3.693,2.422-5.617c1.924,0.132,3.83,0.266,5.763,0.214   c0.609-0.017,0.572-0.848,0-0.92c-1.745-0.22-3.485-0.284-5.235-0.339c0.24-0.46,0.431-0.903,0.692-1.37   c0.738-1.322,1.539-2.601,2.361-3.866c2.066-0.236,4.118-0.282,6.2-0.211c0.809,0.028,0.785-1.174,0-1.243   c-1.776-0.157-3.542-0.078-5.307,0.097c1.558-2.314,3.19-4.578,4.794-6.861c2.087,0.034,4.173,0.135,6.255,0.278   c0.734,0.05,0.918-1.189,0.176-1.3c-1.831-0.275-3.65-0.343-5.477-0.336c1.203-1.745,2.34-3.532,3.416-5.359   c1.258,0.11,2.508,0.276,3.761,0.502c0.624,0.112,0.899-0.799,0.266-0.965c-1.16-0.304-2.333-0.427-3.514-0.484   c0.59-1.044,1.201-2.074,1.716-3.167c0.28-0.594,0.526-1.235,0.785-1.858c2.551,0.095,5.113,0.093,7.631-0.352   c0.63-0.111,0.479-1.129-0.151-1.11c-2.325,0.07-4.637,0.211-6.96,0.231c0.804-2.087,1.517-4.308,2.197-6.597   c1.394,0.06,2.802,0.107,4.189,0.042c0.737-0.035,0.739-1.111,0-1.147c-1.285-0.061-2.587-0.011-3.881,0.039   c0.404-1.392,0.801-2.807,1.199-4.228c1.761-0.074,3.516-0.148,5.271-0.356c0.672-0.079,0.715-1.094,0-1.081   c-1.661,0.027-3.308,0.174-4.958,0.327c0.553-1.963,1.122-3.931,1.731-5.871c1.747-0.027,3.49-0.082,5.236-0.235   c0.672-0.059,0.697-1.068,0-1.066c-1.634,0.006-3.258,0.098-4.883,0.216c0.539-1.657,1.122-3.281,1.758-4.861   c1.585-0.131,3.158-0.279,4.732-0.567c0.697-0.127,0.539-1.274-0.167-1.237c-1.348,0.069-2.67,0.242-3.994,0.434   c0.59-1.36,1.249-2.657,1.951-3.912c0.013-0.001,0.016,0.011,0.03,0.009c2.831-0.304,5.712-0.481,8.509-1.033   c0.791-0.156,0.604-1.412-0.189-1.396c-2.434,0.052-4.869,0.389-7.291,0.677c0.992-1.547,2.107-2.976,3.362-4.264   c5.459,0.294,11.403-0.367,16.763-1.204c0.812-0.127,0.616-1.459-0.193-1.427c-5.095,0.198-10.669,0.677-15.729,1.852   c3.86-3.582,9.011-5.866,16.296-5.911C172.265,125.397,173.924,136.699,180.657,153.738z M236.742,70.295   c-11.795,2.572-23.376-2.167-34.243-6.249c-0.454-0.171-0.851-0.036-1.156,0.226c-4.291-0.236-8.557,3.067-9.454,7.632   c-0.659,3.354,0.526,5.267,2.778,7.534c2.305,2.318,5.351,3.43,6.921,6.586c3.693,7.422-1.551,10.754-7.198,12.092   c-0.005,0.001-0.005,0.005-0.009,0.006c-4.584-0.467-9.712,1.482-10.465,6.569c-0.718,4.851,3.063,9.144-4.319,10.01   c-2.955,0.346-5.262,0.261-7.571,2.338c-0.038,0.034-0.05,0.076-0.082,0.111c-0.81-0.769-1.719-1.402-2.677-1.821   c-2.156-0.942-4.872-1.178-7.303-0.674c-0.342-1.707-0.672-3.488-0.992-5.302c2.417-0.146,4.836-0.557,7.135-1.27   c0.634-0.197,0.373-1.158-0.274-0.996c-2.332,0.583-4.665,0.973-7.031,1.306c-0.293-1.705-0.569-3.463-0.834-5.245   c2.939-0.502,5.897-0.848,8.864-1.158c0.496-0.052,0.52-0.783,0-0.791c-3.051-0.048-6.041,0.316-9.025,0.865   c-0.251-1.75-0.48-3.541-0.695-5.35c4.587-0.257,9.163-0.536,13.738-0.996c0.567-0.057,0.592-0.924,0-0.904   c-4.634,0.154-9.245,0.491-13.864,0.85c-0.24-2.108-0.437-4.262-0.614-6.43c0.137-0.011,0.275,0.004,0.411-0.02   c0.413-0.046,0.569-0.369,0.519-0.664c1.821,0.207,3.55,0.139,5.344-0.327c0.576-0.149,0.332-1.01-0.245-0.887   c-1.776,0.378-3.531,0.462-5.331,0.246c-0.289-0.035-0.448,0.22-0.46,0.477c-0.113-0.016-0.227-0.01-0.34-0.017   c-0.177-2.343-0.32-4.708-0.41-7.092c0.927-0.049,1.848-0.159,2.559-0.173c3.59-0.072,7.141-0.322,10.707-0.748   c0.711-0.085,0.756-1.168,0-1.146c-1.135,0.032-9.408-0.152-13.331,0.224c-0.07-2.527-0.061-5.068-0.013-7.608   c2.725,0.179,5.464,0.15,8.177-0.149c0.645-0.071,0.676-1.068,0-1.034c-2.723,0.139-5.43,0.114-8.147,0.045   c0.072-2.702,0.242-5.395,0.469-8.076c7.442-0.236,14.88-0.486,22.318-0.858c0.804-0.04,0.815-1.279,0-1.26   c-7.407,0.177-14.805,0.476-22.206,0.788c0.274-2.874,0.658-5.717,1.139-8.519c3.961,0.034,7.919,0.066,11.881-0.022   c0.665-0.014,0.666-1.018,0-1.033c-3.9-0.087-7.798-0.056-11.697-0.023c0.486-2.661,1.075-5.277,1.776-7.832   c9.072,0.063,18.12-0.167,27.145-1.144c0.646-0.07,0.675-1.07,0-1.033c-8.937,0.491-17.866,0.982-26.817,1.083   c0.861-2.979,1.892-5.86,3.085-8.632c4.079,0.072,8.114-0.239,12.119-1.143c0.748-0.169,0.423-1.268-0.314-1.137   c-3.765,0.672-7.523,1.095-11.326,1.179c1.245-2.751,2.709-5.349,4.329-7.827c5.548,0.054,11.121-0.154,16.623-0.854   c0.718-0.092,0.768-1.193,0-1.163c-5.279,0.208-10.552,0.511-15.829,0.754c1.596-2.294,3.388-4.433,5.358-6.423   c5.412-0.052,10.772-0.447,16.105-1.41c0.752-0.136,0.589-1.438-0.182-1.348c-4.763,0.558-9.532,0.988-14.32,1.226   c1.459-1.337,3.046-2.564,4.705-3.725c4.55-0.263,9.101-0.524,13.638-0.95c0.924-0.087,0.96-1.502,0-1.469   c-3.604,0.121-7.203,0.349-10.802,0.594c3.349-1.994,7.04-3.672,11.195-4.9c20.225-5.981,46.665,3.478,56.787,22.474   C261.906,44.41,256.698,65.944,236.742,70.295z"></path><path d="M138.118,218.372c-1.728,0.149-3.446,0.373-5.167,0.582c-0.364,0.044-0.376,0.619,0,0.581   c1.751-0.177,3.502-0.339,5.246-0.577C138.528,218.914,138.453,218.343,138.118,218.372z"></path></g><g></g><g></g><g></g><g></g><g></g><g></g><g></g><g></g><g></g><g></g><g></g><g></g><g></g><g></g><g></g></svg>