<svg xmlns="http://www.w3.org/2000/svg" xmlns:xlink="http://www.w3.org/1999/xlink" fill="currentColor" version="1.1" id="Capa_1" viewBox="0 0 233.361 233.361" xml:space="preserve"><g><path d="M216.709,122.915c-3.619-33.245-24.35-59.146-51.943-72.684c0.034-0.114,0.094-0.207,0.11-0.335   c2.593-21.543-6.334-47.749-31.347-49.778C110.876-1.719,94.201,18.147,95.14,39.693C75.948,43.02,59.165,51.23,46,63.057   c-0.346,0.032-0.522,0.269-0.594,0.537c-2.897,2.649-5.676,5.414-8.193,8.412c-0.451,0.03-0.655,0.387-0.617,0.761   c-2.746,3.345-5.275,6.874-7.515,10.612c-0.476,0.065-0.644,0.485-0.531,0.893c-9.096,15.595-13.701,34.361-12.182,55.278   c4.248,58.513,52.172,99.536,111.064,93.157C181.458,226.856,222.652,177.512,216.709,122.915z M98.435,34.654   c2.838,0.73,6.005,1.099,8.839,1.091c0.696-0.002,0.836-1.019,0.164-1.211c-2.678-0.763-5.798-1.265-8.692-1.343   c0.367-1.629,0.841-3.231,1.368-4.811c3.045,0.216,6.171,0.186,9.186,0.054c0.975-0.043,0.977-1.474,0-1.517   c-2.858-0.126-5.814-0.146-8.71,0.029c0.93-2.525,2.078-4.948,3.412-7.225c4.006,0.17,8.1,0.409,12.028-0.027   c0.986-0.109,0.988-1.426,0-1.536c-3.595-0.399-7.332-0.228-11.011-0.065c1.368-2.104,2.951-4.011,4.67-5.753   c6.362,0.159,12.811,0.502,19.128-0.059c0.974-0.086,0.976-1.43,0-1.517c-5.724-0.508-11.556-0.271-17.334-0.103   c2.832-2.464,6.079-4.367,9.69-5.569c3.416,0.555,6.899,0.778,10.334,0.333c0.807-0.104,0.869-1.319,0-1.308   c-2.096,0.025-4.167,0.021-6.234-0.059c3.073-0.503,6.376-0.511,9.91,0.101c21.423,3.708,27.989,25.46,26.051,44.491   c-5.329-2.365-10.861-4.336-16.582-5.766c3.8-10.29-4.772-21.769-15.397-22.233c-9.759-0.426-17.418,8.029-15.777,17.335   c-5.387,0.072-10.643,0.503-15.746,1.264C97.887,37.713,98.139,36.18,98.435,34.654z M130.652,24.386   c9.206,1.685,11.409,9.706,10.875,17.77c-8.196-1.777-16.685-2.586-25.28-2.288c0.009-0.114,0.083-0.191,0.061-0.319   C114.81,30.935,121.611,22.731,130.652,24.386z M30.23,84.989c11.114,1.013,22.183,2.439,33.298,3.423   c0.874,0.078,1.085-1.396,0.209-1.546c-10.799-1.838-21.722-2.701-32.647-3.409c1.828-3.157,3.864-6.209,6.182-9.098   c0.224-0.28,0.484-0.542,0.715-0.818c5.566,0.374,11.092,1.102,16.6,1.984c0.884,0.141,1.288-1.172,0.378-1.371   c-5.198-1.141-10.422-1.745-15.717-2.056c2.423-2.714,5.189-5.254,8.171-7.651c8.085-0.225,16.101,0.234,24.183,0.559   c1.145,0.046,1.088-1.62,0-1.744c-7.36-0.843-14.808-0.736-22.209-0.377c3.967-2.987,8.342-5.671,12.935-8.089   c0.12,0.121,0.285,0.209,0.516,0.207c8.097-0.077,16.148,0.059,24.234,0.541c1.053,0.063,1.006-1.494,0-1.612   c-7.261-0.847-14.59-1.044-21.887-0.567c5.121-2.508,10.5-4.646,15.947-6.419c0.132,0.161,0.323,0.282,0.577,0.31   c5.154,0.56,10.301,1.058,15.478,1.356c1.067,0.062,1.016-1.51,0-1.631c-4.132-0.491-8.271-0.836-12.417-1.142   c8.725-2.552,17.532-4.145,25.703-4.575c-0.025,0.564,0.318,1.124,1.073,1.126c40.899,0.056,80.172,18.893,95.636,56.607   c-3.983,3.017-7.3,7.219-10.712,10.818c-3.899,4.113-7.697,8.306-11.198,12.764c-2.658-3.019-5.58-5.853-8.522-8.661   c2.636,0.237,5.272,0.464,7.918,0.569c0.794,0.031,0.761-1.133,0-1.214c-3.087-0.325-6.183-0.489-9.281-0.657   c-1.775-1.691-3.544-3.383-5.252-5.106c-0.213-0.215-0.421-0.436-0.633-0.652c3.262,0.537,6.527,1.08,9.809,1.439   c0.76,0.083,0.936-1.198,0.181-1.341c-3.827-0.726-7.71-1.196-11.572-1.725c-2.091-2.14-4.179-4.283-6.256-6.437   c3.596,0.65,7.214,0.991,10.894,0.82c0.766-0.036,0.772-1.173,0-1.195c-4.185-0.117-8.326-0.455-12.442-1.211   c-1.548-1.598-3.087-3.203-4.659-4.776c3.765,1.039,7.885,1.675,11.718,1.982c0.891,0.071,1.06-1.333,0.209-1.546   c-4.118-1.028-8.735-1.868-12.985-1.967c-0.213-0.005-0.355,0.091-0.459,0.22c-1.156-0.417-2.293,0.915-1.766,2.135   c-0.527-0.705-1.644-0.979-2.502-0.266c-5.733,4.763-10.337,11.337-15.506,16.742c-4.967,5.193-10.118,10.191-15.18,15.287   c-2.077-2.834-4.577-5.422-7.159-7.931c1.553,0.181,3.096,0.439,4.676,0.788c0.778,0.172,1.037-0.886,0.323-1.17   c-2.084-0.827-4.384-1.206-6.654-1.205c-1.769-1.687-3.54-3.361-5.214-5.053l-0.005-0.006c5.057,0.254,10.096,0.191,15.133-0.477   c0.809-0.107,0.857-1.373,0-1.308c-5.473,0.414-10.932,0.649-16.416,0.471c-1.946-1.988-3.89-3.995-5.851-5.984   c3.596,0.469,7.197,0.945,10.809,1.174c0.714,0.045,0.896-1.169,0.171-1.266c-4.017-0.541-8.076-0.787-12.124-1.069   c-1.516-1.521-3.059-3.009-4.625-4.469c4.196-0.066,8.376,0.17,12.553,0.652c0.675,0.078,0.831-1.064,0.161-1.192   c-4.682-0.891-9.345-1.014-14.084-0.691c-0.742-0.671-1.471-1.359-2.232-2.006c-0.118-0.1-0.251-0.166-0.388-0.216   c-0.551-0.846-1.632-1.388-2.601-0.721c-12.703,8.739-25.143,18.864-35.595,30.258c-1.904-2.804-3.837-5.575-5.745-8.365   c2.203,0.45,4.459,0.89,6.606,0.78c0.83-0.042,0.955-1.139,0.192-1.415c-2.497-0.904-5.4-1.068-8.119-1.346   c-1.332-1.974-2.597-3.998-3.87-6.017c3.25,0.527,6.513,1.096,9.797,1.199c0.752,0.024,0.924-1.151,0.179-1.322   c-3.598-0.824-7.314-1.072-10.985-1.446c-0.241-0.394-0.511-0.765-0.748-1.162c-1.39-2.34-2.67-5.285-4.259-7.934   c4.361,0.711,8.728,1.484,13.12,1.929c0.919,0.093,1.132-1.449,0.219-1.62c-4.77-0.894-9.629-1.392-14.443-2.014   c-1.233-1.74-2.667-3.234-4.462-4.148C28.223,88.765,29.202,86.865,30.23,84.989z M133.109,228.684   c-26.676,4.495-51.804-1.516-71.618-15.05c5.145,0.788,10.295,1.545,15.472,2.095c0.789,0.084,0.981-1.272,0.189-1.397   c-5.926-0.932-11.886-1.596-17.848-2.244c-4.156-3.016-8.08-6.347-11.697-10.017c5.298,0.714,10.609,1.373,15.927,1.895   c0.811,0.079,0.78-1.149,0-1.252c-5.676-0.747-11.378-1.348-17.08-1.876c-2.385-2.508-4.674-5.118-6.784-7.897   c9.938,2.798,20.402,4.843,30.571,5.938c0.884,0.095,1.065-1.35,0.209-1.546c-10.662-2.436-21.562-4.618-32.361-6.477   c-1.591-2.22-3.117-4.495-4.524-6.868c5.289,0.537,10.54,1.309,15.828,1.88c0.744,0.08,0.901-1.143,0.176-1.304   c-5.507-1.222-11.208-1.659-16.849-1.962c-1.492-2.618-2.902-5.3-4.16-8.089c9.736,2.361,19.563,4.17,29.579,4.771   c0.969,0.058,0.92-1.366,0-1.479c-10.177-1.251-20.282-2.681-30.288-4.925c-1.003-2.337-1.955-4.709-2.785-7.156   c3.84,0.697,7.67,1.433,11.563,1.753c0.676,0.056,0.805-1.013,0.159-1.173c-4.022-0.996-8.133-1.516-12.228-2.124   c-0.656-2.041-1.273-4.105-1.804-6.217c3.77,1.523,8.536,1.735,12.516,2.259c0.759,0.1,0.932-1.191,0.181-1.341   c-4.028-0.804-8.81-2.257-12.933-1.888c-0.576-2.39-1.1-4.808-1.512-7.281c2.419,0.706,4.851,1.372,7.32,1.873   c0.905,0.184,1.274-1.107,0.383-1.39c-2.608-0.827-5.269-1.467-7.94-2.061c-0.137-0.911-0.294-1.812-0.409-2.734   c-0.149-1.194-0.205-2.406-0.315-3.608c2.315,0.705,4.759,1.208,7.141,0.993c0.865-0.078,0.866-1.267,0-1.346   c-2.477-0.228-4.851-0.349-7.248-0.875c-0.317-3.912-0.51-7.845-0.451-11.794c5.274,6.596,10.491,13.243,15.598,19.967   c4.427,5.829,8.36,12.394,13.506,17.597c0.907,0.917,2.119,0.344,2.471-0.608c0.254-0.031,0.515-0.125,0.761-0.362   c0.847-0.814,1.682-1.639,2.524-2.457c3.51,0.08,7.02,0.179,10.528,0.024c0.841-0.037,0.843-1.271,0-1.308   c-3.068-0.135-6.137-0.073-9.206-0.003c1.371-1.336,2.757-2.655,4.127-3.992c6.205,0.044,12.381,0.487,18.539,1.255   c0.714,0.089,0.889-1.152,0.171-1.266c-5.729-0.913-11.468-1.332-17.254-1.398c2.258-2.198,4.509-4.403,6.796-6.572   c5.889,0.479,11.787,1.019,17.695,1.092c0.866,0.011,0.81-1.205,0-1.308c-5.333-0.678-10.711-0.972-16.081-1.28   c1.949-1.795,3.959-3.55,5.968-5.31c0.004-0.001,0.004,0.003,0.004,0.003c3.8-0.439,7.511-0.145,11.238,0.681   c0.973,0.216,1.381-1.223,0.413-1.499c-3.182-0.908-6.412-1.154-9.675-0.925c1.864-1.65,3.675-3.344,5.44-5.074   c1.794,0.007,3.587,0.028,5.379-0.046c0.231-0.009,0.377-0.123,0.476-0.268c11.659,10.018,22.754,20.844,34.681,30.439   c0.605,0.486,1.251,0.542,1.803,0.366l0.14,0.099c0.459,0.326,1.275,0.322,1.734,0c1.166-0.818,2.264-1.77,3.341-2.758   c3.654,0.656,7.303,1.316,10.993,1.748c0.708,0.083,0.868-1.109,0.169-1.248c-3.321-0.66-6.672-1.121-10.026-1.577   c1.292-1.268,2.508-2.645,3.725-4.013c3.391,0.067,6.779,0.128,10.171,0.045c0.744-0.018,0.745-1.138,0-1.157   c-3.06-0.075-6.117-0.016-9.176,0.04c1.611-1.837,3.188-3.678,4.773-5.386c2.351-2.534,4.677-5.091,7.026-7.627   c0.028,0.005,0.038,0.032,0.069,0.034c4.037,0.269,8.071,0.565,12.114,0.702c0.837,0.028,0.818-1.226,0-1.29   c-3.702-0.286-7.411-0.438-11.12-0.6c2.515-2.721,5.053-5.422,7.531-8.176c9.641,9.28,19.402,18.428,28.971,27.785   c0.767,0.75,1.686,0.696,2.392,0.267c0.407,0.09,0.86,0.019,1.278-0.354c0.439-0.391,0.852-0.803,1.287-1.198   c2.432,0.484,4.869,0.996,7.328,1.261c0.786,0.085,0.954-1.211,0.186-1.378c-2.082-0.452-4.211-0.717-6.336-0.979   c1.427-1.313,2.783-2.701,4.184-4.038c2.233,0.069,4.469,0.154,6.7,0.101c0.781-0.018,0.782-1.195,0-1.214   c-1.871-0.044-3.745,0.01-5.619,0.069c1.445-1.391,2.89-2.786,4.334-4.182c2.221,0.117,4.479,0.252,6.669,0.047   c0.913-0.086,0.915-1.336,0-1.422c-1.715-0.161-3.47-0.107-5.22-0.023c0.207-0.205,0.422-0.399,0.627-0.605   c3.295-3.31,7.036-6.573,10.081-10.227C210.898,182.837,177.203,221.255,133.109,228.684z M213.751,134.255   c-4.847,3.322-8.816,8.245-12.918,12.434c-4.252,4.342-8.417,8.712-12.431,13.268c-9.98-9.977-20.466-19.533-31.64-28.159   c-0.413-0.319-0.855-0.271-1.21-0.044c-0.492-0.031-1.008,0.147-1.461,0.628c-5.026,5.33-9.951,10.757-14.895,16.164   c-4.152,4.541-8.339,10.884-13.267,14.739c-10.699-12.607-25.068-23.396-38.584-32.809c-0.617-0.429-1.292-0.203-1.744,0.258   c-0.509-0.522-1.27-0.751-2.05-0.225c-12.464,8.41-23.785,21.017-33.273,32.642c-7.2-13.685-19.781-26.373-30.037-37.641   c-0.214-0.235-0.447-0.335-0.678-0.381c0.522-11.106,2.692-22.135,6.908-32.318c2.386,1.972,3.405,5.252,4.789,7.915   c1.728,3.324,3.648,6.546,5.624,9.727c3.361,5.41,6.883,10.783,10.939,15.699c0.343,0.416,0.794,0.518,1.233,0.45   c0.437,0.274,1.03,0.32,1.564-0.108c12.247-9.821,24.176-19.953,36.569-29.601c4.31,5.484,9.254,10.501,14.101,15.503   c5.056,5.217,10.047,11.381,16.075,15.461c0.246,0.167,0.509,0.214,0.77,0.21c0.542,0.465,1.397,0.619,2.127,0.048   c6.315-4.938,12.192-10.478,17.74-16.258c4.953-5.161,10.799-10.579,14.253-16.883c0.292-0.534,0.264-1.031,0.073-1.443   c0.027,0.041,0.034,0.084,0.066,0.124c9.041,11.42,19.737,23.668,31.389,32.47c0.951,0.718,1.873,0.21,2.315-0.621   c0.182-0.062,0.366-0.161,0.545-0.317c4.49-3.909,8.633-8.166,12.702-12.506c3.002-3.202,6.512-6.382,9.217-9.949   c1.676,4.694,3.08,9.599,4.004,14.843c0.98,5.569,1.394,11.119,1.345,16.609C213.857,134.214,213.803,134.22,213.751,134.255z"></path><path d="M151.7,151.529c-3.133-0.131-6.287,0.019-9.422,0.066c-0.757,0.011-0.758,1.164,0,1.175   c3.135,0.048,6.289,0.198,9.422,0.066C152.542,152.802,152.543,151.564,151.7,151.529z"></path></g><g></g><g></g><g></g><g></g><g></g><g></g><g></g><g></g><g></g><g></g><g></g><g></g><g></g><g></g><g></g></svg>