<svg xmlns="http://www.w3.org/2000/svg" xmlns:xlink="http://www.w3.org/1999/xlink" fill="currentColor" version="1.1" id="Capa_1" viewBox="0 0 283.766 283.766" xml:space="preserve"><g><path d="M262.806,135.732c0.252-9.777-3.22-21.352-12.508-25.176c7.234-5.769,12.5-15.087,10.58-24.492   c-1.565-7.667-8.359-14.807-16.235-15.292c4.71-6.659,4.573-15.599-0.686-22.407c-5.671-7.34-16.145-10.406-25.011-7.839   c6.48-10.22-4.043-24.991-13.645-30.182c-13.198-7.136-29.469-3.828-38.657,7.698c-0.071-0.029-0.134-0.069-0.205-0.098   c1.722-8.138-6.19-16.031-13.794-17.549c-7.031-1.404-19.224,0.844-22.688,8.22c-4.398-6.12-15.786-3.592-20.696,1.041   c-3.245,3.062-5.494,7.356-5.801,11.847c-9.388-8.142-25.67-7.964-35.003-0.016c-5.157,4.392-8.503,10.829-9.184,17.574   c-0.25,2.469-0.289,7.484,1.088,10.915c-13.103-3.366-26.384,6.264-31.215,18.601c-2.544,6.497-3.116,14.197-0.376,20.739   c0.659,1.573,2.206,4.748,4.142,6.304c-15.524,6.709-16.439,37.881,0.177,38.774c-7.628,2.882-8.602,13.843-7.518,20.885   c1.363,8.85,7.491,17.102,16.35,18.148c-3.146,5.868-0.982,13.891,4.058,18.15c2.462,2.081,8.276,4.452,11.641,3.011   c-0.229,10.389,4.75,20.711,13.354,26.731c9.041,6.325,22.097,7.854,30.238-0.138c0.837,3.73,4.45,6.779,7.93,7.919   c2.882,0.944,5.908,0.782,8.532-0.376c-1.485,4.993-2.554,10.153-3.164,15.49c-1.235,10.805-2.097,29.034,4.371,38.601   c0.363,0.537,0.961,0.998,1.652,0.948c0.452-0.033,0.905-0.065,1.357-0.098c0.304-0.022,0.502-0.182,0.723-0.312   c0.452,0.201,1.008,0.156,1.38-0.419c4.358-6.756,7.587-14.159,10.28-21.722c5.439,4.931,11.332,9.286,17.741,12.905   c0.046,0.026,0.09,0.023,0.136,0.045c1.087,0.979,3.417-0.21,2.826-1.849c-6.113-16.928-8.755-33.266-9.002-50.488   c9.006,16.448,13.861,32.608,17.827,51.305c0.153,0.724,0.728,1.057,1.338,1.093c0.202,0.447,0.874,0.552,1.233,0.075   c5.155-6.827,7.368-15.418,8.903-23.793c5.455,3.794,10.983,7.468,16.603,11.018c1.248,0.788,2.839-0.246,2.862-1.642   c0.234-14.682-3.881-28.065-12.145-39.894c2.903,0.265,5.901,0.105,9-0.627c0.036-0.008,0.067-0.022,0.102-0.03   c17.876,9.752,40.577-5.649,36.18-26.531c-0.042-0.202-0.16-0.332-0.26-0.478c8.162,2.714,17.692-0.51,21.668-8.428   c3.294-6.557,1.823-14.847-3.075-20.12C257.883,158.602,262.471,148.717,262.806,135.732z M149.798,268.512   c-5.343-3.444-10.342-7.272-15.04-11.645c-1.004-0.934-2.555-0.508-2.974,0.785c-2.557,7.898-5.85,15.402-9.25,22.953   c-0.085-0.044-0.11-0.129-0.207-0.163c-1.856-0.634-3.046-3.056-3.769-6.453c1.735,0.196,3.361,0.022,5.012-0.717   c0.601-0.269,0.174-1.249-0.445-1.057c-1.588,0.491-3.146,0.712-4.796,0.524c-0.138-0.81-0.262-1.647-0.358-2.536   c0.052-0.006,0.097-0.011,0.15-0.017c1.795-0.21,3.537-0.486,5.294-0.917c0.785-0.192,0.638-1.491-0.195-1.434   c-1.133,0.078-2.253,0.174-3.375,0.361c-0.519,0.087-1.038,0.192-1.556,0.29c-0.021,0.004-0.205,0.051-0.445,0.113   c-0.196-2.47-0.253-5.155-0.225-7.879c3.295-0.055,6.657-0.147,9.874-0.674c0.928-0.152,0.656-1.552-0.214-1.583   c-3.171-0.113-6.445,0.209-9.636,0.565c0.051-2.19,0.159-4.375,0.293-6.487c4.794,0.204,9.608-0.058,14.239-1.384   c0.901-0.258,0.507-1.51-0.378-1.372c-4.607,0.72-9.135,1.326-13.768,1.38c0.468-6.577,1.201-12.136,1.521-13.831   c0.078-0.415,0.208-0.81,0.292-1.224c2.792-0.447,5.6-0.87,8.317-1.623c0.678-0.188,0.573-1.331-0.172-1.266   c-2.606,0.225-5.182,0.737-7.754,1.251c0.649-2.892,1.466-5.717,2.37-8.507c2.982-0.201,5.966-0.349,8.909-0.889   c0.768-0.141,0.573-1.343-0.181-1.341c-2.742,0.009-5.463,0.363-8.184,0.691c0.863-2.524,1.882-4.989,2.919-7.447   c2.715-0.185,5.47-0.286,8.149-0.73c0.887-0.147,0.659-1.552-0.209-1.546c-2.421,0.018-4.861,0.33-7.282,0.596   c0.894-2.033,1.939-4.01,2.946-6.001c2.805-0.44,5.547-0.273,8.368-0.574c0.668-0.071,0.865-0.993,0.164-1.211   c-2.384-0.74-5.092-0.52-7.627-0.058c0.262-0.497,0.471-1.014,0.741-1.509c1.98-0.974,3.893-2.022,5.691-3.132   c1.494,1.936,3.677,3.38,6.039,3.707c0.214,0.297,0.548,0.511,1.015,0.545c-0.558,2.795-0.966,5.616-1.28,8.448   c-0.04,0.1-0.022,0.198-0.025,0.306C140.844,233.553,143.549,251.835,149.798,268.512z M101.03,198.506   c-3.195-0.297-6.426-0.208-9.64-0.156c-1.36-2.056-2.341-4.369-2.978-6.842c4.158,0.121,8.278,0.543,12.385,1.251   c1.086,0.187,1.574-1.424,0.464-1.682c-4.366-1.016-8.758-1.402-13.223-1.358c-0.331-1.783-0.485-3.638-0.492-5.528   c3.145,0.254,6.292,0.509,9.444,0.513c1.135,0.001,1.079-1.607,0-1.726c-3.114-0.342-6.251-0.438-9.385-0.534   c0.075-1.567,0.225-3.148,0.517-4.74c0.065-0.354,0.194-0.716,0.27-1.073c3.081,0.094,6.241,0.296,9.273-0.06   c1.034-0.121,1.036-1.49,0-1.612c-2.888-0.339-5.892-0.171-8.835-0.072c0.4-1.524,0.917-3.042,1.502-4.54   c1.75,0.119,3.566,0.197,5.314,0.063c0.902-0.069,0.904-1.333,0-1.403c-1.559-0.12-3.167-0.061-4.739,0.035   c1.46-3.377,3.337-6.564,5.709-9.084c6.147,16.944,21.745,30.234,39.463,33.452c-0.973,1.994-1.299,4.278-0.658,6.478   c0.079,0.273,0.255,0.508,0.361,0.772c-0.701,0.231-1.405,0.488-2.108,0.736c0.018-0.877-1.19-1.386-1.845-0.531   c-0.4,0.522-0.751,1.066-1.138,1.594c-8.453,3.105-17.047,6.472-26.149,4.521c-5.231-1.121-9.155-3.606-11.915-6.949   c2.804,0.103,5.612,0.197,8.403-0.006C102.012,199.951,102,198.596,101.03,198.506z M80.567,80.67   c0.067-0.115,0.123-0.233,0.188-0.349c1.478,1.96,4.635,2.954,6.819,3.383c4.462,0.876,9.335-0.101,13.21-2.444   c6.605-3.993,11.957-14.03,10.552-22.145c2.531,0.963,5.427,0.916,7.917-0.359c2.531-1.296,4.776-4.135,5.228-7.082   c7.325,15.886,36.2,11.462,41.286-4.801c0.817,4.909,3.699,9.231,8.369,11.482c3.398,1.639,8.415,2.194,12.271,0.691   c-4.34,14.68,9.569,29.555,24.28,31.194c-7.368,8.387-5.684,23.3,3.873,29.103c-8.948,3.927-11.544,23.41-3.618,31.599   c-7.204,2.169-11.712,9.292-11.764,16.913c-3.361-2.439-7.542-3.822-12.709-3.49c-15.353,0.983-28.542,13.181-34.488,26.673   c-2.159-2.391-5.411-3.809-8.657-3.291c-0.611,0.098-1.199,0.279-1.77,0.498c-4.433-13.662-12.425-30.825-26.547-36.408   c-9.232-3.65-16.987,0.025-22.43,6.455c-0.512-3.35-1.957-6.508-4.303-9.026c-1.734-1.861-4.636-4.086-7.526-4.875   c9.673-7.367,9.572-28.928-0.431-35.355c3.583-2.09,5.996-6.782,6.649-10.797C87.93,92.335,85.965,84.093,80.567,80.67z    M196.673,170.391c-6.765,16.473-26.268,22.7-42.875,22.251c0.011-0.018,0.029-0.02,0.039-0.04   c5.098-8.904,12.089-16.648,21.468-21.163C181.915,168.258,190.173,166.359,196.673,170.391z M144.283,199.355   c-2.013-0.789-4.075-0.875-6.174-0.599c-0.329-1.686,0.082-3.444,0.991-4.911c0.531,0.061,1.059,0.15,1.593,0.193   c0.485,0.039,0.766-0.272,0.921-0.645c1.707,0.305,3.419,0.574,5.153,0.685c0.718,0.046,0.857-1.075,0.169-1.248   c-1.96-0.493-3.958-0.772-5.961-1.025c0.667-0.496,1.401-0.904,2.222-1.121c3.816-1.009,8.027,2.129,8.416,6.004   c0.433,4.301-3.284,7.441-7.324,7.6c-2.312-0.544-4.447-1.688-5.624-3.933c-0.08-0.152-0.099-0.316-0.164-0.472   c1.847-0.041,3.649,0.169,5.475,0.588C144.716,200.641,144.966,199.623,144.283,199.355z M137.747,190.95   c-17.69-4.99-30.985-16.275-38.145-33.632c4.948-3.577,11.191-4.394,18.331,0.331c10.574,6.997,16.69,20.956,20.625,32.476   C138.27,190.383,138.004,190.663,137.747,190.95z M190.836,256.335c-5.372-3.419-10.683-6.92-15.936-10.525   c-0.901-0.618-2.522-0.038-2.696,1.097c-1.15,7.513-3.619,14.371-5.669,21.489c-0.459-5.287-1.518-10.575-2.98-15.789   c1.264,0.456,2.742,0.748,4.082,0.721c0.827-0.016,0.932-1.132,0.189-1.397c-1.283-0.457-2.862-0.656-4.229-0.608   c-0.161,0.006-0.276,0.071-0.375,0.148c-0.564-1.921-1.208-3.824-1.889-5.715c1.435,0.012,2.868,0.038,4.306-0.027   c0.829-0.037,0.831-1.252,0-1.289c-1.605-0.072-3.205-0.048-4.808-0.03c-0.948-2.526-2.003-5.014-3.138-7.462   c3.991,0.09,8.002,0.257,11.984,0.07c0.878-0.041,0.88-1.324,0-1.365c-4.184-0.197-8.403,0-12.595,0.084   c-1.092-2.281-2.282-4.503-3.515-6.693c2.218-0.242,4.43-0.298,6.682-0.174c0.619,0.034,0.777-0.997,0.149-1.099   c-2.514-0.41-4.992-0.283-7.465,0.16c-1.117-1.932-2.287-3.82-3.502-5.662c3.686,0.032,7.366-0.14,11.004-0.778   c0.761-0.133,0.594-1.428-0.184-1.36c-3.951,0.35-7.878,0.664-11.842,0.682c-0.803-1.172-1.596-2.355-2.444-3.477   c0.018-1.935,0.121-3.913,0.187-5.871c3.448,0.211,6.826,0.061,10.258-0.632c0.691-0.139,0.547-1.335-0.169-1.248   c-3.332,0.407-6.69,0.58-10.046,0.523c0.044-1.089,0.038-2.152,0.104-3.253c2.805-0.547,5.317-2.285,6.8-4.696   c6.711,7.289,14.918,14.285,24.343,16.887C185.79,230.18,190.307,242.595,190.836,256.335z M183.628,216.193   c-4.257-0.234-8.151-1.47-11.753-3.328c3.075,0.152,6.168,0.135,9.244,0.172c1.195,0.014,1.198-1.873,0-1.858   c-3.359,0.04-6.741-0.007-10.096,0.199c-0.423,0.026-0.627,0.32-0.67,0.634c-2.906-1.677-5.628-3.724-8.179-5.984   c3.63-0.08,7.277-0.174,10.865-0.618c0.929-0.115,0.993-1.488,0-1.498c-3.882-0.041-7.786,0.327-11.666,0.683   c-0.038-0.178-0.128-0.337-0.344-0.368c-0.337-0.049-0.56,0.003-0.815,0.023c-1.883-1.79-3.691-3.651-5.408-5.517   c-0.118-0.128-0.247-0.187-0.372-0.27c0.082-0.644,0.111-1.302,0.045-1.974c-0.045-0.459-0.164-0.898-0.283-1.337   c17.393,1.928,38.578-5.183,45.475-22.269c4.173,4.453,5.981,12.673,6.282,18.525C206.656,205.108,198.414,217.006,183.628,216.193   z M244.311,162.061c-0.318-0.251-0.597-0.544-0.936-0.772c-1.624-1.088-3.536,1.391-2.091,2.71   c5.207,4.756,8.078,12.034,4.657,18.779c-3.186,6.283-10.587,8.975-17.212,7.563c0.457-0.734,0.838-1.488,1.058-2.272   c0.301-1.077-1.028-1.757-1.806-1.052c-1.264,1.145-2.056,2.717-3.065,4.078c-1.172,1.579-2.498,3.024-3.913,4.388   c-0.891,0.859,0.407,2.062,1.328,1.327c0.646-0.515,1.349-1.083,2.059-1.691c0.113,16.322-13.747,27.81-29.236,23.071   c11.585-4.732,15.891-17.55,14.374-29.825c-0.777-6.287-2.884-12.314-6.468-16.778c0.117-0.311,0.185-0.651,0.112-1.047   c-1.501-8.193,3.329-14.673,10.44-17.487c0.69,0.388,1.422,0.723,2.217,0.971c1.693,0.527,2.361-1.71,1.159-2.657   c0.051-0.52-0.251-1.092-0.892-1.111c-0.142-0.005-0.274,0.014-0.415,0.013c-4.796-4.141-6.767-9.351-5.621-16.02   c1.035-6.025,3.583-10.721,9.061-13.025c0,0,0.002,0.001,0.003,0.001c0.679,0.166,1.197-0.113,1.493-0.549   c0.145-0.046,0.268-0.11,0.416-0.152c0.68-0.194,0.633-1.121,0-1.335c-0.125-0.042-0.243-0.06-0.367-0.097   c-0.107-0.178-0.242-0.346-0.439-0.483c-10.016-6.973-13.054-16.013-7.539-26.059c0.762,1.321,1.825,2.43,3.319,3.067   c0.969,0.413,2.562-0.578,1.7-1.699c-1.176-1.531-2.218-3.021-2.913-4.588c0.007-0.042-0.015-0.08-0.012-0.121   c0.378-0.539,0.005-1.181-0.522-1.448c-0.42-1.596-0.445-3.301,0.24-5.255c0.427-1.218-1.52-2.051-2.097-0.884   c-0.738,1.492-1.119,3.329-1.146,5.187c-5.848-1.921-11.388-3.822-15.893-8.473c-5.622-5.805-7.201-13.805-5.628-21.53   c0.149-0.162,0.33-0.284,0.466-0.459c0.745-0.964,0.093-2.408-1.227-2.108c-4.474,1.019-7.917,2.905-12.625,1.132   c-4.319-1.627-7.281-5.512-8.299-9.916c1.824,0.301,3.618,0.099,5.021-0.943c0.965-0.717,0.634-2.141-0.608-2.244   c-1.714-0.142-3.362,0.423-5.105,0.168c-1.969-0.288-3.76-1.161-5.301-2.406c-1.011-0.816-2.349,0.451-1.448,1.448   c0.679,0.752,1.609,1.494,2.669,2.142c-3.557,8.791-10.141,13.842-20.069,13.932c-7.33,0.066-14.409-2.658-17.728-9.543   c-0.354-0.734-1.153-0.637-1.657-0.201c-0.616-0.795-1.977-0.501-2.253,0.465c-0.81,2.836-0.815,5.667-3.594,7.475   c-2.492,1.621-5.54,1.312-7.939-0.181c-0.121-0.103-0.226-0.209-0.375-0.257c-0.249-0.173-0.499-0.346-0.73-0.545   c-1.093-0.941-2.529,0.489-1.582,1.582c0.101,0.117,0.223,0.209,0.329,0.32c-1.571,6.65-0.578,12.86-5.685,18.48   c-2.224,2.448-5.182,4.165-8.396,4.94c-2.138,0.515-4.478,0.619-6.642,0.2c-0.643-0.125-3.724-0.869-5.337-1.188   c0.183-0.163,0.32-0.384,0.267-0.659c-0.017-0.089-0.034-0.179-0.051-0.268c-0.003-0.017-0.022-0.023-0.027-0.039   c0.437-1.104,0.741-2.223,0.799-3.328c0.061-1.167-1.516-1.443-2.085-0.565c-1.04,1.606-1.469,3.534-2.297,5.253   c-0.832,1.729-1.829,3.368-2.897,4.96c-0.629,0.937,0.836,2.092,1.579,1.218c0.573-0.675,1.179-1.422,1.775-2.213   c2.437,3.589,4.677,6.544,4.891,11.383c0.252,5.703-2.4,10.808-7.579,12.588c-1.223-0.204-2.506-0.294-3.918-0.112   c-1.427,0.185-1.971,2.239-0.363,2.682c8.302,2.287,12.316,7.452,12.834,16.352c0.376,6.475-0.865,13.294-6.481,17.165   c-0.225-1.443-0.691-2.766-1.665-3.645c-0.733-0.661-2.075-0.24-2.039,0.845c0.056,1.679,1.027,3.151,1.291,4.83   c0.307,1.949,0.122,3.851-0.418,5.743c-0.336,1.178,1.36,1.577,1.792,0.494c0.48-1.204,0.917-2.846,1.12-4.559   c0.999,0.327,2.047,0.496,3.053,0.894c1.718,0.679,3.294,1.729,4.643,2.981c2.721,2.527,4.508,5.742,5.029,9.419   c-2.367,3.358-4.187,7.23-5.347,11.125c-3.666,12.316-3.39,27.881,8.593,35.57c9.913,6.362,22.187,4.98,32.921,0.658   c-3.483,5.595-6.264,11.487-8.363,17.656c-2.577,1.131-5.424,1.62-8.192,0.776c-3-0.915-4.522-2.95-6.031-5.229   c0.652-0.063,1.28-0.221,1.827-0.567c0.686-0.434,0.657-1.676-0.243-1.854c-1.131-0.224-2.251-0.03-3.389-0.183   c-0.232-0.32-0.618-0.436-1.044-0.282c-1.008-0.319-1.967-0.789-2.906-1.267c-0.515-0.262-1.103,0.274-0.804,0.804   c0.368,0.654,0.972,1.229,1.659,1.746c-8.771,6.026-20.68,4.24-28.601-2.694c2.167,0.19,4.426,0.173,6.521-0.016   c0.792-0.072,0.793-1.161,0-1.233c-2.514-0.227-5.294-0.293-7.818,0.083c-2.264-2.261-3.95-4.691-5.223-7.257   c5.913,0.075,11.846,0.191,17.752-0.105c1.097-0.055,1.099-1.651,0-1.707c-6.002-0.301-12.032-0.177-18.04-0.102   c0.004,0.032,0.009,0.063,0.013,0.095c-0.178,0.016-0.352,0.036-0.478,0.121c-0.896-2.163-1.517-4.42-1.934-6.76   c2.774,0.045,5.556,0.13,8.324,0.01c0.756-0.033,0.757-1.143,0-1.176c-2.822-0.122-5.658-0.031-8.484,0.013   c-0.274-1.853-0.458-3.742-0.51-5.694c0.923,0.444,1.846,0.803,2.696,1.073c0.92,0.292,1.546-1.135,0.665-1.577   c-1.225-0.615-2.336-1.385-3.384-2.248c0.001-0.125-0.005-0.245-0.003-0.37c0.017-1.041-1.002-1.606-1.868-1.486   c-0.771-0.954-1.481-1.959-2.392-2.766c-0.873-0.773-2.378-0.041-2.028,1.181c0.471,1.643,1.65,3.034,3.097,4.184   c-0.023,0.166-0.013,0.333-0.034,0.499c-1.724,1.437-5.777-0.1-7.135-0.833c-2.182-1.177-4.05-2.977-5.238-5.16   c-0.187-0.343-0.322-0.687-0.466-1.031c2.383,0.084,4.795-0.072,7.069-0.783c0.598-0.187,0.53-1.246-0.156-1.155   c-2.474,0.327-4.888,0.613-7.36,0.637c-0.57-2.088-0.424-4.181,0.016-6.27c2.103,0.262,4.132,0.156,6.193-0.498   c0.718-0.228,0.422-1.336-0.313-1.134c-1.875,0.516-3.756,0.697-5.674,0.602c0.214-0.827,0.469-1.653,0.747-2.477   c0.117-0.012,0.23-0.007,0.348-0.021c1.163-0.137,1.167-1.599,0.075-1.821c-0.159-0.934-1.448-1.489-2.183-0.723   c-0.057,0.059-0.087,0.132-0.142,0.192c-3.505-0.973-6.616-3.102-9.093-5.871c4.309,0.246,8.707,0.277,12.895-0.57   c0.81-0.164,0.605-1.411-0.192-1.415c-4.684-0.022-9.331,0.379-14.013,0.353c-1.652-2.219-2.911-4.742-3.707-7.36   c2.311-0.133,4.62-0.271,6.923-0.517c0.984-0.105,1.03-1.622,0-1.574c-2.451,0.115-4.892,0.35-7.334,0.587   c-0.689-2.995-0.695-6.052,0.043-8.897c5.325,0.561,10.704,0.895,16.037,0.352c0.915-0.093,0.959-1.466,0-1.46   c-5.239,0.034-10.427,0.131-15.644-0.24c1.075-2.991,3.077-5.673,6.244-7.657c0.339,0.713,0.73,1.387,1.215,1.915   c0.405,0.441,1.279,0.114,1.23-0.51c-0.114-1.47-0.515-2.883-0.616-4.35c-0.104-1.513,0.245-3.008,0.102-4.51   c-0.102-1.076-1.638-1.755-2.226-0.603c-0.518,1.016-0.668,2.265-0.665,3.543c-5.013-1.085-8.168-5.055-9.659-9.736   c2.188,0.024,4.374,0.036,6.561-0.028c0.768-0.022,0.77-1.172,0-1.194c-2.244-0.066-4.486-0.054-6.73-0.028   c-0.076,0.001-0.11,0.054-0.172,0.075c-0.759-3.015-0.834-6.22-0.259-9.145c7.133-0.401,14.177-0.049,21.306,0.407   c0.998,0.064,1.249-1.608,0.24-1.769c-7.028-1.12-14.13-0.979-21.188-0.238c0.015-0.05,0.02-0.106,0.035-0.156   c1.011-3.291,2.77-5.716,4.938-7.775c3.241-0.338,6.423-0.169,9.716,0.392c0.979,0.167,1.415-1.246,0.418-1.518   c-2.638-0.72-5.34-0.89-8.026-0.69c1.793-1.404,3.76-2.685,5.774-4.04c1.143-0.77,0.541-2.157-0.619-2.292   c-0.237-0.442-0.779-0.721-1.419-0.447c-1.903,0.815-3.575-5.425-4.423-9.822c5.746,0.102,11.495,0.249,17.236-0.046   c0.866-0.045,0.867-1.302,0-1.346c-5.827-0.299-11.662-0.144-17.495-0.042c-0.213-1.263-0.335-2.232-0.334-2.558   c0.005-2.263,0.354-4.54,0.93-6.76c3.157,0.191,6.352,0.213,9.496,0.014c0.963-0.061,0.965-1.437,0-1.498   c-2.999-0.19-6.045-0.169-9.061-0.004c0.677-2.133,1.557-4.202,2.682-6.096c0.323-0.544,0.707-0.996,1.054-1.505   c4.643,0.403,9.223,1.168,13.846,1.79c1.019,0.137,1.49-1.276,0.438-1.591c-4.213-1.261-8.586-1.802-12.97-2.077   c1.75-2.163,3.756-3.896,5.933-5.276c5.146,0.521,10.212,1.417,15.303,2.394c1.125,0.216,1.617-1.452,0.479-1.737   c-4.413-1.105-8.917-1.694-13.446-2c5.208-2.498,11.291-2.981,17.678-1.412c1.615,0.397,2.835-1.714,1.789-2.79   c-0.143-0.479-0.563-0.854-1.148-0.681c-0.264,0.078-0.37-1.942-0.382-4.507c2.249,0.077,4.512,0.144,6.746,0.051   c0.939-0.039,0.941-1.421,0-1.46c-2.233-0.093-4.496-0.026-6.744,0.051c0.021-3.079,0.151-6.493,0.299-8.051   c3.912,0.092,7.937,0.439,11.83,0.076c0.986-0.092,0.988-1.444,0-1.536c-3.783-0.353-7.689-0.038-11.496,0.065   c0.715-2.309,1.81-4.49,3.155-6.495c3.761,0.291,7.622,0.323,11.272-0.604c0.849-0.216,0.688-1.583-0.209-1.546   c-3.301,0.138-6.537,0.452-9.814,0.473c1.501-1.848,3.236-3.503,5.298-4.753c10.079-6.106,19.815-2.355,28.729,3.066   c-1.091,0.557-2.136,1.221-3.072,2.08c-0.98,0.899,0.307,2.613,1.436,1.861c2.805-1.868,5.935-2.406,9.22-1.737   c2.2,0.448,3.147-2.91,0.933-3.382c-1.514-0.323-3.005-0.279-4.464-0.072c-0.071-0.094-0.156-0.173-0.229-0.266   c-0.004-0.379-0.027-0.757-0.003-1.137c0.075-1.18,0.288-2.381,0.622-3.516c0.01-0.035,0.028-0.067,0.038-0.101   c3.102,0.352,6.146,0.293,9.19-0.473c0.887-0.223,0.488-1.458-0.368-1.335c-2.762,0.398-5.518,0.562-8.296,0.4   c0.375-0.923,0.891-1.781,1.421-2.626c3.689-0.561,7.334-0.546,11.055-0.519c1.088,0.007,1.027-1.529,0-1.65   c-3.268-0.383-6.558-0.092-9.791,0.471c0.514-0.623,0.997-1.275,1.599-1.81c5.187-4.608,12.929-5.267,17.148,0.853   c0.888,1.288,2.945,0.52,2.565-1.081c-0.014-0.061-0.04-0.108-0.056-0.168c0.12-0.124,0.224-0.276,0.299-0.464   c2.716-6.829,14.899-8.62,21.07-6.863c6.383,1.817,9.239,6.711,9.846,12.648c-1.057-0.11-2.081-0.116-2.972-0.006   c-1.58,0.195-1.681,2.496,0,2.541c1.098,0.029,2.161,0.195,3.202,0.457c0.294,0.899,1.258,1.152,2.065,0.836   c-0.038,0.886,1.056,1.613,1.87,1.117c0.735,0.567,1.461,1.14,2.304,1.505c0.929,0.403,2.408-0.287,1.95-1.499   c-0.352-0.929-0.961-1.713-1.728-2.37c7.55-6.941,17.181-10.993,27.657-8.277c13.131,3.404,25.153,17.723,16.39,30.9   c-0.213,0.321-0.253,0.682-0.179,1.027c-1.042,1.118-0.155,3.241,1.562,2.736c8.777-2.581,17.626-4.026,24.78,3.224   c5.926,6.005,6.371,15.121,1.564,21.736c-0.172-0.351-0.31-0.723-0.549-1.03c-0.927-1.194-2.369,0.182-2.219,1.291   c0.184,1.354,0.85,2.597,1.181,3.927c0.361,1.453,0.525,2.915,0.552,4.409c0.025,1.393,1.94,1.307,2.105,0   c0.195-1.541,0.286-3.306,0.082-5.006c8.574,1.274,15.17,7.06,15.261,16.285c0.077,7.752-4.376,13.833-9.683,18.939   c-0.674-0.157-1.365-0.289-2.09-0.37c-1.991-0.222-1.942,2.548-0.432,3.185c11.531,4.862,14.427,14.883,13.475,26.923   C257.824,150.602,253.707,157.005,244.311,162.061z"></path><path d="M127.951,242.971c-2.725,0.307-5.316,0.78-8.077,0.664c-1.009-0.043-0.985,1.474,0,1.555   c2.725,0.224,5.678,0.225,8.281-0.71C128.908,244.209,128.87,242.868,127.951,242.971z"></path><path d="M164.294,198.656c-2.684-0.143-5.394,0.05-8.076,0.161c-0.646,0.027-0.648,0.978,0,1.005   c2.682,0.112,5.392,0.304,8.076,0.161C165.147,199.938,165.148,198.702,164.294,198.656z"></path></g><g></g><g></g><g></g><g></g><g></g><g></g><g></g><g></g><g></g><g></g><g></g><g></g><g></g><g></g><g></g></svg>