<svg xmlns="http://www.w3.org/2000/svg" xmlns:xlink="http://www.w3.org/1999/xlink" fill="currentColor" version="1.1" id="Capa_1" viewBox="0 0 228.024 228.024" xml:space="preserve"><g><path d="M221.102,81.098c-3.732-5.162-12.604-7.903-18.015-3.888C185.672,55.666,184.943,24.5,158.446,8.82   c-19.072-11.286-43.2-11.969-62.326-0.73c-2.521-2.639-6.141-4.524-9.754-4.948c-8.138-0.954-20.007,7.637-14.534,16.65   c0.057,0.093,0.152,0.113,0.223,0.184c-0.933,0.549-1.793,1.422-2.277,2.139c-1.668,2.471-1.951,5.788-0.98,8.603   C51.758,41.527,38.534,58.075,30.057,76.84c-8.093,1.088-15.962,0.135-23.748-2.614c-1.457-0.515-2.41,0.999-2.235,2.235   c1.542,10.899,7.347,21.181,16.769,27.135c0.227,0.143,0.461,0.155,0.679,0.109c-2.107,10.884-2.617,21.935-1.472,32.624   c-0.606,0.14-0.57,1.085,0.117,1.196c0.475,3.982,1.17,7.914,2.124,11.759l-0.042-0.004c-0.571-0.058-0.711,0.922-0.137,1.011   c0.144,0.022,0.289,0.043,0.433,0.065c4.019,15.385,11.997,29.382,24.513,40.104c-4.438,3.132-8.109,10.319-4.114,15.185   c2.41,2.935,6.628,3.107,10.186,1.697c-1.114,2.962-1.147,6.136,1.738,8.302c2.9,2.178,6.525,1.431,9.307-0.556   c0.427,4.22,4.969,7.799,9.553,7.306c4.62-0.497,8.22-3.878,10.137-8.046c0.315,4.9,2.441,9.449,7.605,11.432   c3.83,1.47,8.688-0.24,10.907-3.437c1.054,2.775,2.988,5.09,6.173,5.591c4.887,0.769,8.928-3.388,10.654-7.911   c3.01,4.867,10.048,6.572,14.655,2.345c6.099-5.596,1.425-13.141-4.073-17.124c10.9-4.29,20.398-11.493,26.753-22.198   c10.749-18.108,15.196-42.098,12.6-64.554c1.544-0.17,3.176-0.676,4.095-1.033c5.854-2.272,10.857-6.607,14.07-11.993   c1.653-2.771,5.866-10.272,1.075-12.062c-3.102-1.159-7.921,0.712-11.25,0.821c-4.464,0.147-9.18-1.044-13.526-0.159   c-0.178,0.036-0.289,0.155-0.417,0.254c-1.769-4.492-3.861-8.794-6.358-12.782c0.182,0.031,0.357,0.087,0.541,0.107   c4.606,0.493,10.47-1.589,13.035-5.579c0.537-0.836,0.914-1.679,1.209-2.52c6.813,6.304,15.995,11.001,25.395,12.243   c-4.928,4.003-4.159,11.996,0.563,16.149c6.104,5.369,15.636,4.555,21.46-0.795C224.694,95.939,225.631,87.363,221.102,81.098z    M21.894,101.793c-2.579-2.298-4.875-4.77-6.847-7.424c2.18,0.082,4.368,0.146,6.51-0.078c0.82-0.086,0.822-1.191,0-1.277   c-2.461-0.258-4.983-0.14-7.479-0.047c-1.289-1.891-2.387-3.887-3.331-5.967c3.096,0.669,6.301,0.844,9.455,0.713   c1.079-0.045,1.076-1.745,0-1.678c-3.406,0.214-6.703-0.056-10.078-0.479c-0.881-2.186-1.587-4.465-2.036-6.876   c6.578,2.127,13.334,2.831,20.172,2.278C25.508,87.708,23.386,94.704,21.894,101.793z M76.597,218.164   c-4.422,2.618-11.579-0.383-9.583-5.986c0.312-0.464,0.603-0.938,0.821-1.427c0.391-0.876-0.464-2.055-1.434-1.435   c-2.651,1.695-5.587,5.761-9.177,4.133c-3.447-1.563-2.034-5.42-0.585-8.283c0.789-0.71,1.491-1.483,1.952-2.367   c0.452-0.866-0.31-2.151-1.367-1.778c-3.473,1.225-7.03,6.044-11.119,3.257c-4.414-3.008-0.407-10.088,2.401-12.571   c5.778,4.7,12.454,8.74,20.116,11.919c4.304,1.786,8.891,3.192,13.608,4.276C81.224,211.843,80.527,215.838,76.597,218.164z    M132.299,219.117c-3.757,5.313-9.597,1.812-12.307-2.378c0.035-0.307,0.11-0.625,0.118-0.924c0.039-1.393-1.848-1.799-2.54-0.688   c-2.205,3.543-2.72,9.943-8.246,9.811c-3.412-0.082-5.076-3.349-5.756-6.465c-0.016-0.561-0.11-1.139-0.288-1.73   c-0.015-0.139-0.042-0.287-0.054-0.423c-0.03-0.35-0.217-0.566-0.448-0.713c-0.667-0.963-2.34-0.37-2.327,0.802   c0.07,6.329-6.255,8.926-10.872,4.563c-3.332-3.148-3.651-7.859-2.999-12.182c13.061,2.329,26.959,1.851,39.367-2.151   c0.051,0.059,0.075,0.126,0.138,0.182C129.376,209.755,135.946,213.958,132.299,219.117z M59.26,194.248   c-7.761-4.595-14.19-10.272-19.397-16.694c0.082-0.098,0.201-0.137,0.254-0.272c20.285-51.068,95.462-42.732,109.915,7.043   C129.64,211.048,87.843,211.17,59.26,194.248z M175.241,98.177c2.601-0.015,10.5-2.093,10.917,0.747   c0.445,3.027-4.547,8.548-6.438,10.416c-0.503,0.497-7.995,5.537-10.949,6.63c-0.277-1.976-0.628-3.93-1.016-5.871   c1.639,0.29,3.29,0.565,4.934,0.555c0.722-0.005,0.892-1.089,0.172-1.273c-1.753-0.447-3.591-0.568-5.41-0.69   c-0.877-4.073-1.973-8.064-3.354-11.91C167.51,98.305,171.539,98.198,175.241,98.177z M157.595,170.679   c-1.298,3.403-2.931,6.442-4.703,9.319c-13.862-51.207-98.118-56.829-114.548-4.409c-3.032-4.022-5.576-8.327-7.684-12.831   c2.159,0.205,4.321,0.379,6.489,0.44c0.604,0.017,0.567-0.844,0-0.915c-2.311-0.288-4.633-0.448-6.957-0.575   c-1.561-3.474-2.777-7.094-3.81-10.774c4.031,0.613,8.069,1.193,12.127,1.555c0.678,0.061,0.841-1.084,0.162-1.198   c-4.192-0.703-8.42-1.173-12.65-1.612c-1.013-3.854-1.732-7.801-2.187-11.803c8.269,0.753,16.548,1.579,24.837,1.945   c1.07,0.047,1.029-1.533,0-1.639c-8.288-0.852-16.633-1.245-24.957-1.713c-0.397-4.087-0.416-8.235-0.247-12.397   c2.852,0.238,5.611,0.093,8.406-0.716c0.616-0.178,0.346-1.03-0.258-0.938c-2.685,0.409-5.389,0.589-8.099,0.477   c0.14-2.624,0.412-5.254,0.762-7.882c3.841-0.43,7.631-0.408,11.507-0.247c0.948,0.04,0.906-1.35,0-1.449   c-3.768-0.41-7.579-0.18-11.332,0.334c0.518-3.504,1.224-7.003,2.171-10.476c5.345-0.154,10.618,0.269,15.943,0.699   c0.815,0.066,1.013-1.303,0.195-1.442c-5.187-0.88-10.443-0.939-15.688-0.71c1.091-3.847,2.326-7.526,3.655-11.108   c2.36,0.203,4.723,0.398,7.087,0.44c0.907,0.016,0.851-1.268,0-1.372c-2.154-0.265-4.325-0.403-6.496-0.525   c1.602-4.178,3.417-8.147,5.34-12.026c4.665,0.657,9.348,1.293,14.04,1.611c0.74,0.05,0.925-1.193,0.178-1.311   c-4.505-0.709-9.066-1.129-13.617-1.516c1.564-3.079,3.26-6.055,5.025-8.984c4.828,0.679,9.665,1.402,14.519,1.758   c0.91,0.067,1.132-1.455,0.218-1.61c-4.564-0.776-9.19-1.232-13.805-1.702c1.733-2.798,3.569-5.53,5.487-8.223   c4.475,0.553,9.008,1.319,13.513,1.374c0.819,0.01,1.036-1.294,0.198-1.46c-4.132-0.818-8.407-1.05-12.619-1.384   c2.122-2.91,4.387-5.759,6.722-8.586c3.911,0.44,8.006,0.674,11.814,0.166c1.002-0.133,1.055-1.524,0-1.601   c-3.444-0.25-6.944-0.227-10.429-0.235c1.743-2.063,3.548-4.108,5.404-6.146c3.022,0.413,6.047,0.834,9.086,1.073   c1.048,0.083,1.303-1.676,0.251-1.853c-2.537-0.427-5.095-0.727-7.655-1.012c1.536-1.649,3.075-3.297,4.698-4.936   c1.467,2.333,3.87,3.89,6.639,4.295c1.623,0.237,3.572,0.067,5.239-0.602c-6.765,8.619-4.068,21.95,5.269,27.953   c7.923,5.094,22.425,5.178,28.782-2.557c0.666,2.794,2.589,5.295,5.387,6.353c2.856,1.08,6.321,0.447,8.746-1.383   c-1.125,5.229,1.008,10.909,6.028,13.501c4.672,2.411,11.844,1.167,15.104-3.159c0.328,0.972,0.904,1.826,1.67,2.536   c-0.394,0.507-0.532,1.211-0.117,1.974C167.469,109.107,168.837,141.196,157.595,170.679z M164.987,76.625   c-3.126,1.906-12.246,3.775-12.13-2.153c0.512,0.052,1.024,0.117,1.542,0.098c1.332-0.049,1.786-2.231,0.332-2.453   c-2.519-0.384-4.85-0.757-7.161-1.901c-1.418-0.702-2.668,1.382-1.251,2.14c0.907,0.484,1.866,0.897,2.844,1.257   c-3.374,3.172-7.319,5.769-12.135,3.388c-4.636-2.291-6.15-8.19-4.377-12.736c0.169-0.434-0.057-0.773-0.376-1   c0.175-0.471,0.338-0.948,0.406-1.47c0.191-1.455-1.818-1.61-2.486-0.673c-1.909,2.676-4.609,5.175-8.183,3.958   c-3.471-1.182-4.648-5.144-3.823-8.408c0.003-0.012-0.007-0.02-0.005-0.032c0.044-0.161,0.114-0.302,0.152-0.466   c0.359-1.53-1.782-2.54-2.596-1.094c-5.398,9.589-17.951,11.962-27.191,6.183c-8.918-5.578-9.846-17.314-4.098-25.369   c1.028,0.739,2.208,1.195,3.53,1.182c1.096-0.011,1.352-1.376,0.529-1.954c-1.304-0.915-2.675-1.501-3.823-2.57   c-0.135-0.421-0.401-0.769-0.803-0.885c-1.134-1.482-1.765-3.243-1.809-5.118c-0.03-1.268-1.902-1.259-1.963,0   c-0.087,1.785,0.436,3.908,1.403,5.791c-2.754,1.076-5.542,1.896-8.12-0.541c-1.312-1.24-1.898-3.097-1.87-4.87   c0.015-0.913,0.214-1.803,0.556-2.649c0.099-0.245,1.398-2.43,1.502-2.316c0.88,0.969,2.406-0.272,1.781-1.374   c-0.36-0.635-0.811-0.958-1.299-1.076c0.041-0.122,0.128-0.214,0.129-0.359c0.065-6.457,2.155-12.618,9.962-12.759   c5.2-0.094,11.044,3.241,12.386,8.076c-0.145-0.005-0.291-0.008-0.436-0.013c-0.873-0.03-0.867,1.309,0,1.353   c0.229,0.012,0.458,0.026,0.688,0.038c0.133,1.47-0.126,3.045-0.951,4.691c-0.288,0.575,0.176,1.221,0.701,1.313   c0.254,0.462,0.76,0.772,1.384,0.644c1.773-0.364,3.138-1.518,5.025-1.644c1.995-0.133,4.121,0.5,5.624,1.842   c2.907,2.595,3.11,7.192,1.419,10.495c-0.427,0.834,0.682,1.84,1.365,1.069c0.175,0.038,0.333,0.124,0.532,0.08   c4.69-1.04,9.459-3.172,14.302-1.469c4.216,1.483,7.308,5.84,5.759,10.281c-0.364,1.044,1.13,1.745,1.781,1.018   c0.283,0.173,0.61,0.274,0.987,0.178c5.657-1.434,10.605-4.021,16.261-0.553c4.486,2.751,6.476,8.469,4.609,13.272   c-0.27,0.251-0.412,0.584-0.444,0.936c-0.118,0.23-0.192,0.471-0.329,0.694c-0.83,1.353,1.195,2.46,2.09,1.222   c0.086-0.119,0.133-0.252,0.214-0.373c5.004,1.253,10.251,3.264,11.318,9.013C169.04,71.766,167.787,74.918,164.987,76.625z    M174.271,72.876c2.409,0.239,4.819,0.469,7.237,0.553c1.002,0.035,0.95-1.415,0-1.525c-3.108-0.358-6.236-0.483-9.36-0.644   c0.19-1.664-0.026-3.295-0.58-4.825c2.187,0.11,4.378,0.179,6.552,0.136c0.901-0.018,0.89-1.34,0-1.391   c-2.385-0.14-4.797-0.146-7.201-0.105c-2.038-4.005-6.248-7.145-10.853-8.072c3.97,0.345,7.983,0.389,11.954,0.804   c0.837,0.088,1.036-1.334,0.2-1.479c-3.72-0.645-7.697-1.076-11.523-0.728c1.379-2.025,2.336-4.181,2.91-6.41   c3.578,0.276,7.338,0.192,10.694-0.641c0.9-0.223,0.721-1.66-0.22-1.629c-3.378,0.111-6.711,0.345-10.068,0.465   c0.538-3.259,0.323-6.624-0.504-9.897c1.939,0.052,3.881,0.089,5.801-0.119c0.832-0.09,0.834-1.206,0-1.296   c-2.061-0.223-4.148-0.167-6.227-0.11c-0.644-2.051-1.489-4.06-2.57-5.96c1.803,0.031,3.601,0.028,5.408-0.175   c0.722-0.081,0.723-1.043,0-1.125c-2.109-0.237-4.205-0.208-6.312-0.158c-1.448-2.256-3.165-4.35-5.117-6.169   c-0.837-0.78-2.388,0.26-1.661,1.282c5.071,7.132,10.019,15.53,8.809,23.801c-0.381,0.002-0.753,0.04-1.135,0.035   c-0.749-0.01-0.965,1.241-0.182,1.348c0.336,0.046,0.695,0.069,1.038,0.11c-0.44,1.835-1.181,3.66-2.337,5.458   c0.636-4.517-1.116-9.304-4.765-12.351c-4.935-4.121-14.182-4.87-19.587-0.898c0.116-1.044-0.005-2.062-0.229-3.058   c2.587,0.062,5.175,0.13,7.758-0.008c0.895-0.048,0.896-1.343,0-1.391c-2.715-0.146-5.437-0.063-8.155,0   c-0.474-1.218-1.164-2.37-2.079-3.391c2.733,0.046,5.465,0.067,8.201-0.029c0.809-0.028,0.811-1.229,0-1.258   c-3.185-0.113-6.366-0.067-9.549-0.004c-0.121-0.1-0.208-0.224-0.334-0.32c-4.712-3.579-11.614-2.99-17.027-0.832   c0.803-2.491,0.564-5.233-0.604-7.597c3.068,0.235,6.141,0.465,9.216,0.466c0.793,0,0.747-1.112,0-1.201   c-3.355-0.397-6.742-0.526-10.119-0.668c-0.328-0.449-0.608-0.926-1.02-1.324c-1.882-1.817-4.449-2.773-7.044-2.86   c-1.451-0.048-3.253,0.235-4.762,0.925c0.322-0.879,0.442-1.75,0.478-2.615c4.546,0.263,9.099,0.543,13.648,0.503   c0.835-0.007,0.805-1.201,0-1.277c-4.543-0.429-9.115-0.538-13.68-0.665c-0.146-1.17-0.503-2.31-1.057-3.387   c3.191,0.184,6.354-0.09,9.483-0.97c0.781-0.22,0.454-1.399-0.334-1.213c-3.26,0.767-6.522,1.152-9.834,1.078   c-0.17-0.259-0.296-0.536-0.487-0.785c28.68-11.107,60.344-5.596,78.449,21.166c10.569,15.622,12.572,36.148,25.477,49.872   c0.121,0.428,0.401,0.729,0.83,0.817c0.543,0.547,1.07,1.104,1.652,1.626C192.549,81.681,183.365,79.101,174.271,72.876z    M218.315,96.634c-3.378,4.682-9.584,6.609-15.007,4.697c-5.056-1.782-7.413-6.537-6.184-10.974   c5.274,0.291,10.562,0.259,15.779-0.634c0.863-0.148,0.67-1.598-0.208-1.535c-4.995,0.359-9.946,0.723-14.944,0.673   c0.466-0.975,1.05-1.927,1.903-2.793c0.02-0.021,0.012-0.045,0.029-0.066c2.076,0.125,4.153,0.138,6.208-0.112   c0.502-0.061,0.854-0.297,1.078-0.606c2.111-0.368,4.255-0.509,6.396-0.567c0.592-0.016,0.788-0.996,0.147-1.086   c-1.998-0.279-3.889-0.176-5.802,0.188c0.315-0.507,0.332-1.166-0.262-1.749c-0.659-0.646-1.233-1.342-1.851-2.011   c3.8-1.272,7.538-1.941,11.103,1.316C221.015,85.316,221.71,91.928,218.315,96.634z"></path><path d="M114.292,85.224c-6.71-0.211-12.646,4.044-15.418,9.816c-0.361-2.055-0.961-4.085-1.865-6.021   c-3.829-8.203-16.388-17.404-24.44-9.521c-8.878,4.392-15.034,13.765-13.395,24.068c1.883,11.835,13.824,20.849,25.671,16.859   c0.6-0.202,1.102-0.527,1.667-0.775c1.63,4.85,4.159,9.433,7.05,13.619c0.684,0.99,2.205,1.144,2.855,0   c2.617-4.603,5.72-8.714,9.519-12.398c1.85,0.781,3.988,1.235,6.501,1.202c9.5-0.125,18.52-8.114,18.955-17.749   C131.817,94.923,123.919,85.526,114.292,85.224z M74.066,116.63c-8.303-2.856-12.916-12.212-10.934-20.634   c1.281-5.444,4.773-9.808,9.098-13.131c0.578,0.338,1.344,0.372,2.038-0.206c10.546-8.783,21.149,8.138,21.094,17.064   C95.294,110.65,85.154,120.444,74.066,116.63z M94.873,129.377c-2.326-3.44-4.223-7.046-5.994-10.827   c3.876-2.331,6.722-5.802,8.443-9.805c0.741,4.186,2.564,7.884,5.633,10.331C99.854,122.188,97.135,125.622,94.873,129.377z    M112.438,117.99c-10.786,0.137-11.584-10.058-11.836-18.233c-0.014-0.457-0.171-0.79-0.381-1.055   c2.157-5.387,7.032-9.642,13.199-9.654c7.986-0.015,14.816,8.028,13.822,15.868C126.336,112.056,119.683,117.898,112.438,117.99z"></path><path d="M114.967,107.125c-2.708-0.889-5.473,1.494-5.462,4.198c0.003,0.652,0.361,1.384,0.967,1.686l0.259,0.129   c0.063,0.105,0.082,0.235,0.154,0.333c1.528,2.05,4.522,1.728,5.856-0.373C118.059,111.022,117.485,107.952,114.967,107.125z"></path><path d="M83.467,105.013c-1.349-0.946-2.824-0.842-4.049-0.158c-2.025-0.084-3.487,2.142-2.819,4.125   c0.86,2.551,4.55,3.511,6.796,2.259C85.778,109.911,85.58,106.496,83.467,105.013z"></path><path d="M174.284,102.872c-2.317-0.328-4.661-0.436-6.994-0.603c-0.956-0.068-0.917,1.36,0,1.468   c2.255,0.265,4.512,0.6,6.781,0.708C174.955,104.487,175.187,103,174.284,102.872z"></path><path d="M206.587,95.668c-2.723-0.319-5.561-0.182-8.27,0.199c-0.492,0.069-0.492,0.923,0,0.993c2.707,0.382,5.548,0.519,8.27,0.2   C207.481,96.954,207.482,95.772,206.587,95.668z"></path></g><g></g><g></g><g></g><g></g><g></g><g></g><g></g><g></g><g></g><g></g><g></g><g></g><g></g><g></g><g></g></svg>