<svg xmlns="http://www.w3.org/2000/svg" xmlns:xlink="http://www.w3.org/1999/xlink" fill="currentColor" version="1.1" id="Capa_1" viewBox="0 0 268.038 268.038" xml:space="preserve"><g><path d="M129.328,169.457c-3.125-41.09-3.899-82.346-7.16-123.402c-0.026-0.32-0.202-0.509-0.417-0.635   c-0.002-0.008-0.002-0.015-0.005-0.023c-0.152-0.47-0.621-0.678-1.052-0.648c-1.297-1.714-3.619-2.306-5.96-2.359   c-4.83-0.108-10.651-0.09-15.501,1.093c-0.357-1.99-0.664-3.975-0.901-5.969c4.184-0.701,7.946-3.704,9.358-7.886   c3.662-10.848-10.768-17.195-10.103-27.682c0.01-0.159-0.019-0.298-0.061-0.429c0.004-0.001,0.008-0.004,0.012-0.006   c0.964-0.321,0.563-1.662-0.413-1.499c-7.01,1.17-12.287,13.909-13.046,20.329c-0.008,0.035-0.012,0.061-0.014,0.097   c-0.002,0.022-0.007,0.047-0.01,0.069c-0.731,6.743,2.106,14.265,9.017,16.637c1.011,0.347,2.039,0.475,3.064,0.511   c0.103,1.602,0.321,3.192,0.563,4.773c-5.745-1.403-21.773-2.273-24.72,4.279c-0.418-0.318-1.127-0.159-1.159,0.536   c-1.694,37.142,0.653,75.621,3.177,112.918c-0.32,0.055-0.642,0.175-0.941,0.462c-9.248,8.854-21.51,11.321-33.472,6.714   c-0.174-0.067-0.341-0.09-0.497-0.078c-0.007-0.013-0.01-0.028-0.017-0.042c-0.613-1.209-2.749-0.68-2.623,0.71   c0.618,6.808,1.694,12.687-1.153,19.261c-3.171,7.322-9.426,11.677-17.517,10.751c-0.845-0.097-1.272,0.64-1.233,1.352   c-0.629,0.371-1.007,1.121-0.493,1.882c7.991,11.834,7.354,25.421-5.76,33.495c-0.06,0.037-0.091,0.085-0.14,0.127   c-0.766,0.239-1.25,1.182-0.523,1.913c4.315,4.331,8.842,7.65,12.306,12.83c3.365,5.033,5.374,10.588,6.888,16.413   c0.143,0.551,0.528,0.79,0.935,0.803c0.288,0.118,0.625,0.091,0.931-0.014c-0.074,0.938,1.176,1.818,1.875,0.926   c4.232-5.404,8.819-10.076,14.997-13.25c6.113-3.14,12.153-3.786,18.767-4.84c0.396,0.16,0.843,0.026,1.131-0.285   c0.914-0.531,0.612-1.885-0.242-2.496c-4.228-15.525,8.215-28.801,24.312-25.069c1.086,0.252,1.835-0.35,2.113-1.13   c0.403-0.218,0.683-0.658,0.553-1.284c-1.262-6.094-2.383-12.033,1.023-17.699c3.342-5.56,8.319-6.565,14.154-7.733   c0.426-0.085,0.72-0.34,0.909-0.661c0.254-0.296,0.361-0.696,0.206-1.103c-0.045-0.349-0.187-0.67-0.427-0.921   c-0.867-1.608-1.544-3.294-1.896-5.099c-0.19-0.971-0.113-2.067-0.181-3.107c8.183-1.097,15.61-5.002,21.457-11.299   C130.133,170.944,129.901,170.007,129.328,169.457z M87.496,27.403c-0.675-2.006-0.883-4.178-0.731-6.297   c1.258-0.006,2.495-0.182,3.729-0.646c0.546-0.205,0.341-1.015-0.244-0.884c-1.117,0.251-2.228,0.383-3.345,0.433   c0.045-0.341,0.07-0.688,0.133-1.023c0.188-1.004,0.598-2.374,1.149-3.889c1.363-0.279,2.731-0.554,4.064-0.943   c0.7-0.204,0.399-1.192-0.296-1.073c-1.102,0.188-2.192,0.452-3.278,0.727c0.464-1.159,1.023-2.365,1.619-3.563   c1.159-0.248,2.314-0.36,3.528-0.263c0.656,0.053,0.641-0.948,0-1.015c-1.026-0.106-1.998-0.007-2.96,0.186   c1.178-2.207,2.515-4.291,3.941-5.746c-0.541,8.992,9.837,13.982,9.738,22.511c-2.447-4.144-7.543-6.504-12.302-4.475   C89.644,22.551,87.963,24.902,87.496,27.403z M96.299,28.615c-0.224,1.974-0.295,3.997-0.283,6.03   c-1.958-0.087-3.972-0.903-5.719-2.658c-1.618-3.507,0.185-7.785,4.377-8.582c4.589-0.873,7.645,2.716,8.902,6.685   c-1.159,2.312-3.23,3.86-5.562,4.372c-0.164-1.925-0.284-3.865-0.323-5.847C97.672,27.699,96.397,27.745,96.299,28.615z    M96.888,43.77c0.335,1.848,0.762,3.67,1.322,5.427c0.419,1.314,2.379,0.778,2.068-0.57c-0.269-1.168-0.479-2.32-0.706-3.476   c2.263,0.236,4.547,0.09,6.84,0.015c3.174-0.104,11.396-1.668,13.022,2.285c0.085,0.205,0.209,0.354,0.347,0.476   c-1.436,8.718-16.286,8.955-22.658,8.979c-3.642,0.013-22.269-0.578-23.092-7.618C76.112,41.645,90.494,43.639,96.888,43.77z    M28.566,256.32c-1.716-4.549-4.203-9.026-7.269-12.848c2.115,0.074,4.176,0.42,6.31,0.485c0.499,0.015,0.504-0.639,0.109-0.804   c-2.197-0.913-4.838-0.886-7.241-0.687c-2.297-2.678-4.89-4.983-7.748-6.65c5.101,0.421,10.383,1.16,15.449,0.846   c0.56-0.035,0.768-0.938,0.142-1.045c-4.63-0.787-9.525-0.716-14.283-0.795c2.345-1.577,4.337-3.573,5.968-5.812   c3.109,0.252,6.228,0.541,9.342,0.559c0.711,0.004,0.675-1.006,0-1.08c-2.855-0.313-5.739-0.398-8.616-0.493   c1.092-1.668,1.921-3.479,2.584-5.341c3.167,0.077,6.36,0.238,9.516,0.041c0.789-0.049,0.791-1.178,0-1.227   c-3.011-0.189-6.055-0.051-9.079,0.029c0.676-2.247,0.989-4.578,0.981-6.902c2.306,0.407,4.61,0.827,6.937,1.103   c0.665,0.079,0.818-1.048,0.159-1.173c-2.348-0.449-4.721-0.74-7.089-1.056c-0.083-1.558-0.396-3.092-0.82-4.604   c3.925,0.126,7.903,0.104,11.814,0.003c0.91-0.024,0.878-1.307,0-1.391c-3.976-0.383-8.172-0.329-12.171,0.206   c-0.841-2.431-2.104-4.758-3.939-6.837c2.603,0.338,5.031,0.006,7.267-0.789c5.062,0.585,10.152,1.079,15.236,1.148   c0.873,0.012,0.851-1.276,0-1.342c-4.306-0.333-8.616-0.566-12.924-0.837c2.024-1.099,3.802-2.666,5.371-4.474   c4.276-0.332,8.497-0.158,12.775-0.172c0.931-0.003,0.873-1.299,0-1.408c-3.853-0.48-7.82-0.22-11.682,0.228   c1.654-2.217,2.955-4.777,3.886-7.471c0.01,0.002,0.011,0.013,0.022,0.014c3.543,0.509,7.101,0.931,10.679,1.06   c0.778,0.028,0.977-1.235,0.187-1.382c-3.437-0.643-6.913-1.015-10.399-1.293c0.579-2.051,0.904-4.159,1.011-6.248   c4.798,0.584,9.606,1.219,14.433,1.381c0.822,0.028,1.036-1.312,0.198-1.463c-4.826-0.87-9.735-1.27-14.621-1.718   c-0.038-1.897-0.242-3.769-0.744-5.537c4.45,1.908,9.221,2.686,13.923,2.453c-0.093,0.415,0.089,0.872,0.649,0.849   c4.734-0.197,9.251,0.328,13.948,0.773c0.81,0.077,0.926-1.167,0.187-1.383c-2.873-0.838-5.938-1.12-8.985-1.115   c2.118-0.507,4.164-1.279,6.144-2.204c1.671,0.067,3.347,0.116,4.987-0.042c0.841-0.081,0.843-1.228,0-1.309   c-0.768-0.074-1.552-0.05-2.332-0.053c1.936-1.149,3.787-2.466,5.448-4.07c0.109,1.598,0.216,3.208,0.325,4.801   c0.016,0.238,0.094,0.431,0.198,0.6c-0.052,0.007-0.104,0.014-0.156,0.02c-0.613,0.078-0.636,1.045,0,0.982   c0.472-0.047,0.944-0.094,1.416-0.14c1.449,3.731,4.7,6.463,8.583,8.403C57.486,191.163,29.585,225.123,28.566,256.32z    M92.861,198.394c-4.237,6.073-3.905,12.863-1.685,19.46c-16.92-4.787-32.27,12.491-26.546,28.485   c-12.775-0.713-26.611,8.316-33.149,18.901c-0.097-3.051,0.062-6.001,0.332-8.905c0.725,0.002,1.449,0.019,2.179-0.021   c0.694-0.038,0.696-1.042,0-1.08c-0.687-0.037-1.369-0.02-2.052-0.019c0.257-2.348,0.658-4.637,1.136-6.892   c2.819,0.199,5.639,0.398,8.463,0.447c0.61,0.011,0.587-0.877,0-0.933c-2.734-0.261-5.479-0.381-8.224-0.498   c0.621-2.737,1.443-5.386,2.36-7.991c1.376,0.045,2.752,0.087,4.126,0.038c0.59-0.021,0.591-0.896,0-0.917   c-1.274-0.045-2.552-0.011-3.829,0.029c0.898-2.455,1.951-4.838,3.086-7.181c2.73-0.235,5.437-0.039,8.191,0.437   c0.489,0.084,0.708-0.632,0.209-0.758c-2.663-0.673-5.348-0.77-8.025-0.466c1.22-2.452,2.568-4.841,4.017-7.176   c2.655,0.045,5.325,0.132,7.97-0.03c0.852-0.052,0.854-1.274,0-1.326c-2.346-0.143-4.71-0.09-7.069-0.044   c2.034-3.153,4.311-6.168,6.694-9.118c2.833,0.235,5.665,0.473,8.508,0.572c0.819,0.029,0.798-1.194,0-1.26   c-2.54-0.212-5.085-0.311-7.631-0.402c1.863-2.251,3.838-4.427,5.86-6.567c2.888-0.482,5.785-0.6,8.741-0.494   c0.796,0.029,0.781-1.171,0-1.228c-2.578-0.187-5.122,0.047-7.629,0.545c2.65-2.743,5.439-5.368,8.281-7.94   c3.643,0.313,7.337,0.719,10.969,0.535c0.752-0.038,1.025-1.28,0.189-1.399c-3.171-0.449-6.423-0.461-9.65-0.471   c2.194-1.946,4.455-3.806,6.714-5.665c2.601-0.177,5.141,0.068,7.817,0.458c0.812,0.118,1.178-1.014,0.348-1.262   c-2.102-0.63-4.292-0.766-6.472-0.624c3.215-2.601,6.467-5.127,9.741-7.545c4.24,1.733,8.898,2.668,12.612,3.038   c1.66,0.165,3.295,0.189,4.914,0.137c-0.003,1.268,0.342,2.622,0.642,3.706c0.355,1.281,0.89,2.465,1.555,3.575   C101.169,190.637,95.87,194.08,92.861,198.394z M78.168,170.495c1.788-0.18,3.575-0.376,5.353-0.645   c0.562-0.085,0.434-1.04-0.135-0.997c-2.001,0.152-3.991,0.397-5.98,0.654c-0.081-0.119-0.18-0.215-0.259-0.336   c-0.042-1.996-0.077-4.005-0.116-6.006c5.589,0.225,11.203,0.547,16.791,0.447c0.656-0.012,0.65-0.982,0-1.015   c-5.585-0.281-11.208-0.141-16.804-0.098c-0.054-2.812-0.105-5.637-0.156-8.458c2.33,0.575,4.694,0.851,7.089,0.604   c0.666-0.069,0.699-1.069,0-1.064c-2.312,0.016-4.559-0.092-6.832-0.554c-0.109-0.022-0.189,0.022-0.275,0.052   c-0.047-2.594-0.094-5.195-0.142-7.795c4.073,0.265,8.069-0.011,12.036-1.114c0.594-0.165,0.342-1.036-0.252-0.915   c-3.906,0.791-7.828,1.226-11.8,1.159c-0.04-2.207-0.093-4.425-0.135-6.635c2.341-0.233,4.678-0.456,6.981-0.957   c0.572-0.124,0.44-1.021-0.137-1.013c-2.307,0.033-4.588,0.338-6.872,0.635c-0.057-2.937-0.134-5.88-0.197-8.821   c2.599-0.209,5.199-0.415,7.757-0.926c0.567-0.113,0.43-1.003-0.135-0.997c-2.565,0.028-5.108,0.362-7.65,0.69   c-0.059-2.675-0.14-5.352-0.207-8.028c3.934-0.393,7.806-0.199,11.736,0.413c0.896,0.14,1.305-1.201,0.383-1.389   c-4.043-0.825-8.094-0.824-12.152-0.293c-0.08-3.138-0.185-6.274-0.28-9.411c1.372,0.062,2.756,0.046,4.106-0.069   c0.715-0.061,0.716-1.052,0-1.113c-1.36-0.115-2.758-0.132-4.143-0.066c-0.073-2.346-0.167-4.688-0.25-7.033   c3.773,0.136,7.605,0.323,11.364,0.071c0.705-0.047,0.706-1.049,0-1.097c-3.771-0.253-7.614-0.064-11.398,0.072   c-0.1-2.748-0.218-5.492-0.335-8.236c2.553,0.046,5.118,0.152,7.667,0.023c0.779-0.039,0.78-1.172,0-1.211   c-2.565-0.129-5.146-0.021-7.714,0.024c-0.109-2.503-0.268-4.995-0.394-7.494c1.988-0.091,3.982-0.151,5.953-0.421   c0.604-0.082,0.458-1.087-0.144-1.061c-1.96,0.084-3.908,0.385-5.854,0.646c-0.151-2.943-0.336-5.877-0.51-8.814   c2.189-0.022,4.47-0.079,6.524-0.586c0.706-0.174,0.498-1.152-0.163-1.206c-2.073-0.168-4.301,0.139-6.438,0.465   c-0.153-2.508-0.373-4.997-0.547-7.5c3.722-0.2,7.339,0.242,11.044,0.463c0.819,0.049,0.966-1.208,0.191-1.415   c-3.644-0.972-7.519-0.852-11.24-0.472c-0.042,0.004-0.057,0.041-0.095,0.05c-0.219-3.061-0.395-6.134-0.669-9.179   c2.876,5.732,18.064,6.891,22.751,7.035c6.097,0.188,20.022-0.368,24.993-6.148c-0.312,38.876,3.049,78.063,6.02,116.76   C114.782,181.855,89.292,185.022,78.168,170.495z"></path><path d="M258.496,228.139c-9.988-9.661-11.399-20.685-7.464-33.489c0.171-0.555,0.006-1.001-0.303-1.309   c0.991-0.848,0.064-2.399-1.186-1.813c-5.395,2.53-13.938,6.207-19.289,1.998c-4.702-3.698-6.758-11.037-4.333-16.505   c0.282-0.344,0.311-0.738,0.118-1.095c-0.258-1.199-1.874-1.782-2.814-0.495c-0.017,0.024-0.024,0.052-0.041,0.076   c-4.748,0.339-9.481-0.678-13.158-3.977c-4.001-3.59-4.963-8.256-5.549-13.339c-0.047-0.405-0.263-0.725-0.545-0.954   c-0.093-0.581-0.566-1.079-1.265-0.819c-3.003,1.119-6.06,1.673-9.264,1.167c-2.195-0.347-4.024-1.316-5.951-2.192   c-0.507-18.459-0.771-37.01-2.157-55.376c0.069-0.716,0.089-1.462-0.004-2.276c-0.127-1.108-1.47-1.218-1.846-0.342   c-6.091-2.868-13.114-3.46-19.562-1.493c-0.194-0.608-0.371-1.22-0.493-1.845c0.642-0.124,1.283-0.323,1.918-0.605   c11.906-5.292,6.044-26.036-4.167-30.207c-0.079-0.097-0.135-0.193-0.219-0.291c-0.399-0.459-0.968-0.452-1.437-0.218   c-0.452-0.017-0.701,0.318-0.688,0.695c-0.155,0.336-0.173,0.722,0.093,1.09c3.091,4.257-0.156,8.273-3.041,12.527   c-0.133,0.061-0.213,0.183-0.218,0.33c-2.149,3.203-4.001,6.546-2.714,10.235c1.308,3.748,4.655,6.337,8.347,6.561   c0.032,0.384,0.101,0.757,0.155,1.136c-5.586-0.767-13.373-0.686-17.228,3.589c-1.388,1.539-1.837,4.135-1.164,6.112   c0.06,4.046,0.188,8.089,0.315,12.132c-0.168,0.225-0.166,0.563,0.02,0.773c0.536,16.644,1.439,33.273,1.407,49.947   c-0.002,1.18,0.983,1.61,1.843,1.369c1.523,3.33,5.146,5.303,8.973,6.404c-0.075,0.167-0.197,0.285-0.22,0.496   c-0.443,4.021,0.179,7.852-0.883,11.886c-0.84,3.192-2.863,5.991-3.282,9.233c-0.056,0.431,0.262,0.727,0.639,0.85   c-0.656,0.967-0.266,2.511,1.219,2.494c6.669-0.076,12.374,0.975,16.737,6.61c4.156,5.369,4.829,11.827,4.385,18.386   c-0.046,0.673,0.447,1.083,1.004,1.187c0.242,0.4,0.647,0.688,1.151,0.65c8.047-0.606,15.073-1.325,22.355,3.132   c6.012,3.679,9.106,9.169,12.108,15.229c-0.104,0.165-0.243,0.323-0.342,0.49c-0.844,1.417,1.015,2.648,2.172,1.676   c7.323-6.152,13.382-11.934,22.749-14.99c5.645-1.841,11.231-1.856,16.886-2.235c1.393,0.162,2.785,0.344,4.183,0.437   c0.636,0.042,1.033-0.433,1.139-0.97c0.09-0.013,0.179-0.019,0.269-0.033c0.317-0.047,0.48-0.35,0.492-0.658   C258.768,229.196,258.969,228.597,258.496,228.139z M156.509,80.35c0.402-0.794,0.907-1.585,1.438-2.377   c2.127,0.17,4.244,0.088,6.341-0.464c0.535-0.14,0.445-1.073-0.135-0.997c-1.851,0.244-3.688,0.403-5.535,0.462   c0.815-1.167,1.664-2.338,2.398-3.523c1.214-0.21,2.439-0.314,3.681-0.249c0.453,0.023,0.568-0.728,0.108-0.804   c-1.111-0.183-2.146-0.169-3.178-0.01c1.011-1.862,1.63-3.765,1.227-5.754c3.813,3.916,6.676,10.933,6.675,15.154   c0,1.114-0.204,2.312-0.566,3.48c-1.155-3.254-5.457-5.692-8.71-4.66c-2.649,0.84-4.271,3.381-4.452,5.989   C155.332,84.538,155.568,82.206,156.509,80.35z M161.205,91.532c-1.228-0.062-2.27-0.431-3.092-1.062   c-1.328-2.582-0.383-6.401,2.422-7.598c1.652-0.704,3.44-0.155,4.722,1.03c1.452,1.341,1.548,2.825,1.761,4.65   c0.012,0.1,0.081,0.178,0.122,0.269c-1.007,1.258-2.32,2.219-3.955,2.567c-0.026,0.006-0.049,0.004-0.075,0.009   c-0.124-1.734-0.134-3.468,0.063-5.22c0.081-0.718-1.092-0.862-1.254-0.17C161.538,87.635,161.266,89.56,161.205,91.532z    M145.533,101.177c1.054-1.837,3.7-2.604,5.58-3.053c3.414-0.815,7.027-1.19,10.551-1.474c0.404,1.784,1.087,3.434,2.209,4.717   c0.6,0.686,1.473-0.077,1.368-0.796c-0.176-1.199-0.576-2.36-0.976-3.527c6.577-0.639,12.557,0.142,18.769,2.544   c-1.921,8.301-13.443,9.004-20.098,9.225c-3.959,0.132-11.282,0.618-15.354-1.882c0.064-0.343-0.027-0.709-0.404-0.897   C145.379,105.134,144.467,103.036,145.533,101.177z M147.978,167.663c0.142-0.344,0.284-0.688,0.426-1.031   c0.189-0.457,0.003-0.857-0.319-1.126c2.828-0.113,5.662-0.21,8.477-0.473c0.679-0.064,0.707-1.099,0-1.08   c-2.998,0.08-5.994,0.349-8.987,0.587c-0.005-0.321-0.011-0.641-0.021-0.961c0.694-1.674,1.046-3.939,1.187-6.489   c2.055,0.409,4.249,0.555,6.205-0.204c0.435-0.169,0.417-0.883-0.118-0.868c-2.082,0.058-4.001,0.261-6.041-0.022   c0.066-2.101-0.001-4.365-0.136-6.649c1.671,0.04,3.342,0.073,5.01-0.011c0.579-0.029,0.58-0.871,0-0.9   c-1.69-0.085-3.383-0.05-5.075-0.009c-0.118-1.779-0.276-3.551-0.442-5.263c4.742,0.069,9.493,0.2,14.231,0.027   c0.895-0.033,0.897-1.358,0-1.391c-4.781-0.174-9.577-0.039-14.363,0.029c-0.267-2.627-0.537-5.016-0.715-6.96   c2.735,0.309,5.309-0.025,7.829-1.138c0.572-0.253,0.163-1.234-0.429-1.017c-2.407,0.881-4.862,1.31-7.424,1.106   c-0.028-0.002-0.037,0.02-0.063,0.022c-0.035-0.444-0.072-0.898-0.091-1.271c-0.086-1.714-0.242-3.42-0.352-5.131   c2.866-0.539,5.729-0.7,8.634-0.964c0.631-0.057,0.632-0.924,0-0.982c-2.915-0.267-5.86,0.208-8.707,0.874   c-0.185-2.746-0.413-5.488-0.663-8.227c2.545,0.046,5.09,0.094,7.63-0.011c0.789-0.033,0.791-1.195,0-1.228   c-2.574-0.107-5.153-0.056-7.731-0.01c-0.311-3.243-0.681-6.48-1.143-9.706c0.18,0.102,0.337,0.231,0.541,0.302   c4.915,5.597,19.082,3.84,24.722,3.009c4.747-0.7,10.413-2.225,13.343-5.808c-0.87,16.739-0.247,33.763,0.789,50.549   c-0.358,0.597-0.382,1.462,0.095,2.029c0.009,0.01,0.021,0.017,0.03,0.027c0.179,2.805,0.365,5.605,0.56,8.393   c-1.201,1.121-2.589,2.174-4.097,3.141c-0.127,0.008-0.255,0.018-0.382,0.026c-0.291,0.018-0.438,0.247-0.449,0.474   C170.028,175.29,155.212,177.333,147.978,167.663z M212.55,243.296c-0.664-2.64-1.824-5.085-3.311-7.323   c2.387,0.044,4.775,0.115,7.162,0.05c0.747-0.02,0.749-1.142,0-1.162c-2.517-0.068-5.036,0.015-7.552,0.057   c-0.13,0.002-0.214,0.066-0.294,0.13c-1.139-1.558-2.398-3.034-3.847-4.334c1.752,0.14,3.508,0.144,5.303-0.058   c0.551-0.062,0.583-0.891,0-0.884c-2.313,0.028-4.626-0.112-6.924-0.382c-1.994-1.548-4.167-2.882-6.488-3.897   c2.144,0.218,4.29,0.42,6.441,0.583c0.66,0.05,0.635-0.941,0-1.015c-3.482-0.403-6.972-0.7-10.464-0.993   c-5.153-1.433-10.634-1.487-15.66,0.305c0.423-2.499,0.503-5.061,0.236-7.578c1.821,0.009,3.607,0.143,5.425,0.534   c0.646,0.139,0.914-0.804,0.274-0.994c-1.918-0.571-3.893-0.7-5.873-0.576c-0.327-2.237-0.89-4.435-1.807-6.494   c2.126,0.009,4.25,0.007,6.375-0.069c0.61-0.022,0.612-0.927,0-0.949c-2.297-0.082-4.593-0.079-6.89-0.067   c-0.729-1.429-1.592-2.796-2.644-4.05c-0.545-0.65-1.152-1.273-1.802-1.871c2.222-0.072,4.446-0.066,6.685,0.023   c0.631,0.025,0.606-0.903,0-0.966c-2.609-0.27-5.211-0.215-7.805,0.018c-4.256-3.418-10.061-5.525-15.287-4.158   c0.437-0.391,0.824-0.885,1.211-1.38c2.85-0.279,5.704-0.541,8.542-0.915c0.648-0.085,0.686-1.1,0-1.048   c-2.579,0.198-5.152,0.489-7.724,0.776c1.208-1.947,2.134-4.333,2.696-6.861c1.866,0.059,3.736,0.118,5.592,0.018   c0.694-0.038,0.696-1.042,0-1.08c-1.794-0.097-3.599-0.044-5.401,0.012c0.362-1.966,0.545-3.955,0.492-5.793   c2.024,0.058,4.049,0.091,6.071,0.012c0.852-0.033,0.854-1.293,0-1.326c-2.053-0.08-4.11-0.046-6.164,0.014   c-0.109-1.201-0.282-2.343-0.601-3.298c1.228,0.221,2.434,0.384,3.54,0.463c4.654,0.336,9.18-0.386,13.378-1.984   c11.633,25.227,35.725,45.421,62.745,53.149C228.13,230.334,218.191,236.238,212.55,243.296z M247.946,226.813   c-5.139-1.305-10.052-2.888-14.782-4.713c1.744-0.132,3.456-0.502,4.982-1.314c0.48-0.255,0.135-0.936-0.353-0.838   c-2.692,0.54-5.148,0.996-7.73,0.908c-2.987-1.25-5.874-2.631-8.695-4.104c2.683-0.086,5.35-0.419,7.944-1.169   c0.616-0.178,0.353-1.057-0.261-0.947c-3.145,0.562-6.265,0.996-9.438,1.123c-2.848-1.554-5.58-3.27-8.26-5.06   c3.218,0.48,6.436,0.664,9.695,0.311c0.705-0.076,0.743-1.14,0-1.129c-3.645,0.052-7.272-0.023-10.887-0.529   c-0.215-0.03-0.378,0.058-0.506,0.183c-2.86-1.992-5.609-4.145-8.276-6.419c2.486,0.206,4.975,0.405,7.464,0.428   c0.667,0.006,0.635-0.945,0-1.015c-2.9-0.316-5.827-0.398-8.746-0.505c-2.78-2.447-5.415-5.115-7.983-7.888   c5.194-0.313,10.396-0.578,15.573-1.104c0.739-0.075,0.771-1.212,0-1.178c-5.513,0.239-11.01,0.775-16.509,1.234   c-2.064-2.285-4.047-4.699-5.98-7.194c2.966,0.228,5.995-0.04,8.743-1.235c0.399-0.173,0.111-0.794-0.29-0.688   c-2.871,0.762-5.634,1.292-8.618,1.098c-0.175-0.011-0.269,0.081-0.327,0.195c-1.747-2.286-3.418-4.695-5.05-7.171   c3.956-0.159,7.977-0.365,11.887-0.912c0.512-0.072,0.389-0.921-0.122-0.9c-4.028,0.162-8.113,0.705-12.115,1.268   c-0.75-1.151-1.513-2.278-2.234-3.478c2.57-1.145,5.004-2.611,7.247-4.375c2.763-0.071,5.526-0.16,8.271-0.445   c0.626-0.065,0.657-0.992,0-0.998c-2.289-0.021-4.578,0.094-6.865,0.242c0.313-0.275,0.639-0.531,0.943-0.819   c0.609-0.094,1.139-0.522,1.11-1.339c-0.001-0.026-0.002-0.052-0.003-0.077c0.02-0.146,0.019-0.286-0.012-0.426   c-0.072-2.037-0.118-4.083-0.179-6.124c4.197,2.028,9.854,1.613,14.007-0.313c-1.549,11.014,9.66,20.255,20.183,18.921   c-2.063,5.976,0.89,13.504,5.426,17.597c5.689,5.134,13.751,3.188,20.013-0.31c-5.258,10.345-1.185,24.749,7.527,32.12   C252.589,227.138,250.307,226.852,247.946,226.813z"></path></g><g></g><g></g><g></g><g></g><g></g><g></g><g></g><g></g><g></g><g></g><g></g><g></g><g></g><g></g><g></g></svg>