<svg xmlns="http://www.w3.org/2000/svg" xmlns:xlink="http://www.w3.org/1999/xlink" fill="currentColor" version="1.1" id="Capa_1" viewBox="0 0 232.689 232.689" xml:space="preserve"><g><path d="M232.654,104.983c-0.051-0.175-0.136-0.351-0.269-0.521c-12.372-15.849-7.348-32.586-9.42-50.734   c0.104-0.518,0.244-1.027,0.341-1.546c0.228-1.219-1.545-1.748-1.883-0.519c-0.13,0.472-0.283,0.925-0.417,1.395   c-4.751,4.775-7.582,11.313-12.595,16.051c-8.287,7.832-17.536,10.281-28.665,8.483c-0.351-0.057-0.691,0.035-0.979,0.212   c-0.412,0.08-0.731,0.409-0.713,0.891c-0.133,0.378-0.117,0.779,0.164,1.088c0.238,1.096,0.41,2.193,0.545,3.289   c-0.025-0.003-0.049-0.007-0.074-0.01c-0.881-0.117-1.098,1.424-0.212,1.564c0.148,0.023,0.296,0.044,0.444,0.068   c0.375,5.501-0.851,10.826-5.191,15.048c-5.727,5.57-12.41,5.194-19.713,4.25c-0.159-0.021-0.257,0.073-0.388,0.108   c-0.436-0.299-1.142-0.194-1.079,0.485c0.323,3.569-1.008,6.835-2.569,9.974c-1.496,3.007-3.174,4.714-5.809,6.242   c-1.769-2.721-3.957-5.138-6.458-7.206c0.028-0.052,0.083-0.067,0.106-0.124c1.176-2.894,1.379-6.132,2.557-9.069   c0.969-2.414,2.45-4.378,3.922-6.421c0.504-0.183,0.831-0.604,0.823-1.171c0.132-0.19,0.268-0.372,0.398-0.565   c0.337-0.503-0.228-1.273-0.814-1.058c-0.054,0.02-0.101,0.062-0.154,0.083c-2.523-4.709-4.572-8.936-4.495-14.546   c0.038-2.743,0.507-5.493,1.176-8.149c0.279-1.106,1.837-7.961,2.85-8.296c0.272-0.09,0.366-0.307,0.371-0.542   c0.441-0.718,0.305-1.882-0.733-2.277c-15.675-5.968-21.713-20.394-22.459-36.325c-0.044-0.939-0.925-1.743-1.896-1.444   c-17.461,5.372-33.097,2.839-49.387-4.98c-0.9-0.432-1.6,0.76-0.791,1.334c-0.024-0.013-0.044-0.029-0.068-0.042   c-1.26-0.693-2.378,0.739-1.914,1.76c0.007,0.02-0.005,0.041,0.004,0.061c6.933,14.796,7.756,26.902,2.615,42.398   c-0.21,0.632,0.093,1.143,0.553,1.428c0.099,0.182,0.265,0.327,0.521,0.382c6.218,1.34,11.773,4.656,14.565,10.589   c2.263,4.807,1.663,8.936,0.36,13.304c-0.063,0-0.127,0.005-0.191,0.005c-0.895-0.003-0.951,1.149-0.268,1.452   c-0.345,1.067-0.706,2.147-1.076,3.266c-0.211,0.638,0.171,1.134,0.685,1.35c0.072,0.208,0.201,0.393,0.462,0.46   c3.435,0.886,6.655,2.614,9.245,5.051c1.176,1.107,2.223,2.355,3.061,3.737c0.652,1.077,1.033,2.286,1.567,3.407   c-6.303,3.382-11.196,9.402-14.045,16.414c-4.537-0.632-9.891-5.811-8.069-10.595c0.192-0.504-0.346-0.968-0.814-0.924   c-0.191-0.258-0.456-0.456-0.871-0.446c-7.012,0.173-14.901-0.772-17.676-8.327c-1.91-5.2-1.293-13.47,1.591-18.381   c0.661-0.357,0.661-1.4-0.164-1.701c-7.094-2.582-13.595-4.358-19.274-9.718c-5.47-5.162-8.562-11.725-10.552-18.862   c-0.218-0.783-1-0.757-1.43-0.322c-0.36-0.366-1.127-0.295-1.302,0.311c-5.999,20.812-12.935,36.651-26.38,53.814   c-0.755,0.964-0.084,2.168,0.829,2.292c-0.031,0.241,0.027,0.481,0.332,0.619c6.184,2.787,12.095,5.96,16.531,11.256   c5.453,6.51,6.378,13.746,6.451,21.926c0.008,0.847,0.736,1.196,1.397,1.09c0.069,0.35,0.298,0.672,0.772,0.701   c6.8,0.416,13.559-0.079,18.758,5.135c4.384,4.397,5.572,9.491,6.846,15.313c0.064,0.294,0.23,0.458,0.402,0.603   c-0.049,0.31,0.166,0.663,0.468,0.757c0.249,0.079,0.498,0.157,0.747,0.235c0.147,0.046,0.276-0.09,0.268-0.236   c1.905-0.063,3.8-0.475,5.726-0.449c1.578,0.021,3.091,0.414,4.617,0.662c-2.892,10.393-1.847,22.951,3.016,29.851   c14.173,20.111,43.565,15.874,52.581-5.833c7.075,16.5,28.702,26.786,46.476,15.454c17.625-11.237,17.437-32.704,7.075-46.889   c0.516-0.09,0.961-0.43,1.068-1.136c1.068-7.055,7.657-11.854,13.759-14.758c6.3-2.998,11.502-2.032,17.922-1.444   c0.732,0.527,2.085,0.01,2.156-1.077c0.591-9.006,1.704-16.932,7.182-24.449c4.221-5.792,9.891-8.893,15.492-12.901   c0.843,0.181,1.581-0.564,1.486-1.424C232.683,105.13,232.679,105.058,232.654,104.983z M151.63,118.289   c4.053,0.496,8.132,0.854,12.212,0.914c0.57,0.008,0.733-0.939,0.138-1.024c-3.871-0.552-7.779-0.833-11.689-0.989   c0.958-1.763,1.628-3.702,2.006-5.623c2.506,0.268,5.003,0.516,7.525,0.653c0.838,0.046,0.811-1.209,0-1.29   c-2.452-0.244-4.898-0.376-7.353-0.494c0.15-1.166,0.22-2.316,0.099-3.39c5.889,2.71,12.028,1.538,17.02-1.737   c2.469,0.22,4.936,0.357,7.423,0.253c0.875-0.036,0.882-1.351,0-1.365c-1.878-0.03-3.756-0.078-5.632-0.152   c1.354-1.09,2.556-2.375,3.651-3.745c3.569,0.372,7.168,0.613,10.748,0.396c0.933-0.057,0.947-1.433,0-1.46   c-3.239-0.091-6.467-0.149-9.696-0.307c1.397-2.028,2.476-4.263,3.157-6.589c3.07,0.397,6.139,0.778,9.229,0.992   c0.746,0.052,0.705-1.045,0-1.138c-2.988-0.394-5.987-0.628-8.991-0.844c0.489-2.036,0.626-4.126,0.428-6.201   c2.962,0.452,5.925,0.881,8.909,1.205c0.812,0.088,1.002-1.286,0.193-1.434c-3.09-0.567-6.191-1.014-9.299-1.441   c-0.171-0.865-0.412-1.723-0.731-2.57c12.661,3.706,27.977-4.669,36.235-16.041c-12.803,35.684-35.704,63.157-69.734,82.565   c0.932-2.97,1.464-6.102,1.533-9.339c1.772,0.423,3.572,0.902,5.391,0.969c0.557,0.021,0.613-0.763,0.126-0.931   c-1.752-0.604-3.659-0.791-5.494-1.046c-0.001-0.112,0.01-0.222,0.007-0.334c-0.032-1.48-0.195-2.907-0.421-4.307   c3.17,0.187,6.332,0.498,9.49,0.821c0.456,0.046,0.557-0.71,0.109-0.801c-3.249-0.662-6.5-0.92-9.797-1.04   c-0.47-2.393-1.237-4.641-2.206-6.769c4.975,0.334,9.948,0.82,14.927,0.995c0.585,0.021,0.74-0.944,0.141-1.043   c-5.112-0.844-10.342-1.009-15.521-1.027c-0.013-0.025-0.02-0.054-0.033-0.079C148.087,122.654,150.097,120.694,151.63,118.289z    M91.666,29.146c6.548,1.024,12.471-0.22,18.92-0.121c6.604,0.101,5.178-1.953,8.224,3.259c3.523,6.028,2.926,13.796,7.536,20.046   c4.079,5.531,9.228,9.034,15.479,11.432c-3.625,3.327-4.846,11.807-5.085,15.875c-0.347,5.912,1.099,12.771,5.295,17.183   c-4.04,3.328-6.534,9.972-6.757,14.935c-5.987-4.102-13.367-6.402-21.019-6.342c-0.217,0.002-0.379,0.072-0.512,0.174   c0.077-0.089,0.133-0.198,0.121-0.341c-0.164-2.026-0.367-4.064-0.602-6.108c1.691,0.024,3.379,0.051,5.066-0.119   c0.706-0.071,0.707-1.028,0-1.1c-1.745-0.176-3.49-0.142-5.24-0.118c-0.238-1.947-0.519-3.897-0.827-5.848   c4.385-0.054,8.759-0.058,13.145,0.028c0.735,0.015,0.728-1.101,0-1.138c-4.413-0.222-8.861-0.049-13.246,0.519   c-0.483-2.989-1.063-5.975-1.721-8.947c2.073-0.112,4.141-0.214,6.206-0.442c0.816-0.09,0.861-1.327,0-1.308   c-2.177,0.047-4.339,0.225-6.507,0.394c-0.745-3.219-1.631-6.402-2.601-9.555c3.936,0.064,7.866,0.127,11.803,0.024   c0.903-0.023,0.904-1.379,0-1.403c-4.088-0.107-8.169-0.036-12.257,0.031c-2.264-7.067-5.13-13.897-8.697-20.265   c2.378,0.048,4.755,0.104,7.132,0.035c0.869-0.025,0.864-1.303,0-1.346c-2.666-0.132-5.333-0.11-8.001-0.115   c-1.866-3.195-3.986-6.208-6.229-9.126c3.667-0.053,7.454-0.079,11.027-0.859c0.646-0.141,0.489-1.134-0.154-1.136   c-3.932-0.015-7.881,0.58-11.814,0.739c-0.022,0.001-0.029,0.021-0.049,0.023c-1.028-1.283-2.1-2.531-3.202-3.754   c2.103-0.05,4.202,0.024,6.294,0.26c0.642,0.072,0.799-1.038,0.154-1.136c-2.531-0.387-5.015-0.482-7.57-0.311   c-3.368-3.583-7.069-6.881-11.255-9.725C79.97,26.281,85.49,28.18,91.666,29.146z M98.241,100.855   c2.303,0.36,4.651,0.738,6.943,0.658c0.738-0.026,0.913-1.097,0.177-1.304c-2.867-0.803-5.987-0.879-8.937-1.184   c-0.035-0.004-0.051,0.028-0.084,0.03c-2.776-2.309-5.952-3.596-9.479-3.948c0.938-1.069,1.634-2.32,2.194-3.644   c3.203-0.042,6.385-0.216,9.581-0.726c0.796-0.127,0.617-1.484-0.192-1.416c-2.923,0.248-5.858,0.41-8.794,0.506   c0.869-2.905,0.916-6.104,0.418-9.133c2.205,0.051,4.341-0.19,6.525-0.814c0.784-0.224,0.45-1.355-0.333-1.207   c-2.133,0.403-4.29,0.571-6.454,0.572c-0.347-1.473-0.793-2.897-1.424-4.167c-0.687-1.381-1.543-2.634-2.507-3.78   c0.106,0.104,0.241,0.187,0.433,0.192c1.475,0.041,2.912,0.085,4.382-0.085c0.743-0.086,0.744-1.071,0-1.157   c-1.468-0.17-2.906-0.126-4.382-0.085c-0.604,0.017-0.759,0.652-0.508,1.037c-3.29-3.863-7.996-6.303-13.122-6.774   c0.505-0.942,0.885-1.956,1.301-2.949c3.214-0.056,6.421-0.116,9.632-0.284c1.041-0.055,1.057-1.644,0-1.631   c-2.98,0.036-5.95,0.174-8.925,0.312c0.824-2.28,1.363-4.68,1.746-7.117c2.928,0.108,5.912,0.001,8.714-0.805   c0.731-0.21,0.616-1.396-0.184-1.359c-2.766,0.128-5.5,0.408-8.256,0.537c0.36-3.102,0.342-6.265,0.016-9.392   c2.188,0.118,4.387,0.221,6.553,0.098c0.866-0.049,0.867-1.297,0-1.346c-2.2-0.125-4.435-0.018-6.657,0.103   c-0.285-2.169-0.79-4.293-1.401-6.376c1.338,0.02,2.675,0.058,4.013,0.018c1.061-0.032,1.063-1.618,0-1.65   c-1.497-0.044-2.994-0.005-4.492,0.02c-1.009-2.976-2.333-5.816-4.02-8.391c29.084,18.211,35.851,49.117,42.052,81.181   c0.086,0.446,0.65,0.489,0.935,0.241c-0.087,0.077-0.172,0.158-0.23,0.26c-4.082-0.447-7.892,0.113-11.349,1.443   C101.579,105.018,99.943,102.674,98.241,100.855z M84.909,139.945c2.115,0.554,4.259,0.846,6.456,0.593   c0.756-0.087,0.801-1.207,0-1.214c-2.177-0.019-4.307-0.111-6.447-0.496c-0.006-1.728,0.084-3.428,0.327-5.072   c0.018,0.015,0.018,0.039,0.039,0.052c1.313,0.842,2.718,0.923,4.214,0.614c0.671-0.139,0.533-1.281-0.164-1.21   c-1.276,0.13-2.406-0.081-3.633-0.391c-0.108-0.027-0.194,0.005-0.281,0.032c0.297-1.687,0.692-3.334,1.227-4.91   c0.638-0.352,0.861-1.121,0.662-1.765c4.621-11.338,15.474-19.035,28.921-18.674c0.01,0,0.015-0.009,0.025-0.009   c33.224,1.586,42.494,51.545,7.358,59.718c-12.69,2.952-26.111-1.919-33.332-11.8c0.771,0.055,1.563,0.021,2.151,0.071   c2.676,0.227,5.348,0.439,8.031,0.557c0.755,0.033,0.729-1.086,0-1.156c-2.045-0.199-4.089-0.355-6.141-0.471   c-0.945-0.053-1.89-0.106-2.835-0.16c-0.472-0.027-0.945-0.053-1.417-0.08c-0.246-0.09-0.469-0.101-0.68-0.072   c-1.15-1.777-2.129-3.684-2.856-5.738c4.904,1.304,10.277,1.631,15.288,2.235c0.672,0.081,0.838-1.091,0.161-1.192   c-5.134-0.768-10.565-1.937-15.769-1.916c-0.736-2.328-1.203-4.803-1.306-7.433C84.907,140.02,84.911,139.983,84.909,139.945z    M57.188,86.483c-4.1,4.907-4.412,14.557-2.208,19.905c3.206,7.777,12.174,11.161,19.99,9.2c-1.892,5.189,3.965,11.367,9.25,12.388   c-0.831,2.639-1.403,5.369-1.638,8.125c-0.511,5.976,0.692,11.536,3.086,16.407c-6.482-2.027-12.335-4.892-17.683-8.328   c2.939,0.66,6.079,0.888,9.037,0.372c0.616-0.107,0.464-1.092-0.146-1.08c-3.193,0.061-6.262,0.093-9.443-0.265   c-0.249-0.028-0.388,0.166-0.406,0.376c-2.755-1.831-5.322-3.87-7.775-6.022c1.635,0.386,3.276,0.534,4.981,0.289   c0.742-0.107,0.544-1.286-0.174-1.285c-2.016,0.001-3.958-0.029-5.934-0.491c-0.198-0.046-0.352,0.01-0.473,0.107   c-2.128-1.975-4.11-4.09-6-6.285c4.809,0.113,9.623,0.25,14.431,0.082c1.074-0.038,1.075-1.631,0-1.669   c-5.166-0.18-10.34-0.011-15.506,0.104c-0.067,0.002-0.093,0.052-0.15,0.066c-1.715-2.088-3.296-4.288-4.806-6.539   c1.875,0.044,3.751,0.073,5.629,0.018c0.732-0.021,0.733-1.116,0-1.138c-2.124-0.062-4.244-0.019-6.366,0.035   c-1.466-2.258-2.822-4.595-4.089-6.988c1.973,0.323,3.919,0.446,5.908,0.089c0.682-0.122,0.527-1.247-0.164-1.211   c-2.041,0.109-4.035,0.182-6.069-0.068c-0.089-0.011-0.145,0.042-0.214,0.071c-1.055-2.058-2.029-4.163-2.941-6.3   c1.609,0.125,3.221,0.236,4.831,0.205c0.966-0.019,0.908-1.347,0-1.46c-1.804-0.225-3.628-0.274-5.449-0.323   c-0.792-1.946-1.511-3.927-2.188-5.925c2.208,0.059,4.43,0.152,6.627-0.028c1.011-0.082,1.013-1.491,0-1.574   c-2.366-0.193-4.763-0.071-7.139-0.015c-0.81-2.522-1.485-5.094-2.116-7.677c1.847,0.103,3.692,0.194,5.545,0.179   c1.009-0.008,0.963-1.433,0-1.536c-1.994-0.213-3.99-0.303-5.99-0.387c-0.48-2.11-0.89-4.237-1.252-6.373   c1.628-0.007,3.254,0.036,4.883,0.111c0.904,0.041,0.868-1.293,0-1.384c-1.705-0.179-3.39-0.148-5.086-0.042   c-1.032-6.538-1.531-13.162-1.425-19.741C32.052,73.188,43.717,85.673,57.188,86.483z M54.688,167.471   c0.119-1.821-0.121-3.664-0.589-5.473c1.859,0.449,3.693,0.924,5.593,1.165c0.435,0.055,0.469-0.599,0.098-0.726   c-1.862-0.641-3.781-1.02-5.701-1.454c-0.107-0.024-0.185,0.017-0.268,0.047c-0.404-1.294-0.971-2.54-1.604-3.753   c2.139,0.342,4.284,0.684,6.44,0.809c0.623,0.036,0.769-0.973,0.149-1.099c-2.398-0.486-4.852-0.703-7.289-0.951   c-1.259-2.105-2.792-4.015-4.517-5.57c1.639,0.108,3.279,0.197,4.924,0.183c0.794-0.006,0.765-1.141,0-1.214   c-2.196-0.209-4.397-0.243-6.6-0.277c-5.498-3.884-11.674-3.45-18.427-3.103c0.451-1.49,0.679-2.978,0.802-4.459   c4.479,0.292,8.951,0.555,13.438,0.687c0.885,0.026,0.869-1.306,0-1.365c-4.44-0.305-8.879-0.479-13.326-0.627   c0.053-2.405-0.315-4.77-0.997-7.055c2.528,0.118,5.048,0.251,7.58,0.193c0.648-0.014,0.646-0.982,0-1.005   c-2.602-0.094-5.195,0.012-7.796,0.097c-0.727-2.196-1.814-4.282-3.088-6.268c1.83,0.082,3.659,0.145,5.49,0.1   c0.758-0.019,0.729-1.083,0-1.156c-2.129-0.216-4.264-0.288-6.402-0.35c-1.434-1.99-3.131-3.81-4.98-5.459   c1.04,0.125,2.079,0.244,3.119,0.361c2.422,0.272,4.815,0.479,7.253,0.5c0.635,0.006,0.809-1.012,0.154-1.136   c-3.01-0.569-6.03-0.837-9.08-1.088c-0.838-0.069-2.318-0.407-3.592-0.411c-3.938-2.989-8.45-5.146-13.02-6.031   c1.148-1.117,2.257-2.316,3.356-3.53c6.713,0.564,13.418,0.999,20.159,0.969c0.993-0.005,0.985-1.492,0-1.536   c-6.283-0.283-12.567-0.521-18.844-0.913c2.035-2.361,3.957-4.897,5.775-7.537c3.009-0.08,6.007-0.021,9.021,0.154   c0.888,0.052,0.859-1.279,0-1.365c-2.68-0.27-5.373-0.275-8.064-0.194c1.276-1.928,2.46-3.936,3.599-5.972   c1.938,0.123,3.878,0.24,5.817,0.227c1.09-0.007,1.054-1.574,0-1.668c-1.628-0.146-3.266-0.199-4.904-0.237   c1.101-2.064,2.1-4.182,3.045-6.321c1.181,0.13,2.365,0.235,3.553,0.274c0.803,0.026,1.02-1.31,0.194-1.434   c-1.035-0.155-2.076-0.248-3.117-0.332c1.821-4.325,3.337-8.753,4.374-13.219c0.99,34.426,20.82,76.001,55.608,83.837   c-8.248,0.075-13.757,6.223-16.68,14.249C62.213,165.914,57.773,166.128,54.688,167.471z M118.688,189.916   c-0.179,0.159-0.336,0.353-0.43,0.627c-6.935,20.151-32.146,25.814-46.575,9.678c2.285,0.621,4.68,0.915,7.011,0.552   c0.605-0.094,0.419-0.997-0.139-1.024c-2.799-0.139-5.429-0.317-8.097-1.093c-1.102-1.428-1.971-2.939-2.734-4.48   c6.277,0.778,12.598,1.196,18.921,0.957c0.734-0.028,0.731-1.099,0-1.138c-6.512-0.341-13.02-0.601-19.526-1.064   c-0.747-1.733-1.266-3.52-1.625-5.326c2.216,0.093,4.441,0.114,6.655,0.051c0.683-0.019,0.684-1.042,0-1.062   c-2.275-0.065-4.562-0.048-6.837,0.053c-0.335-2.081-0.397-4.183-0.258-6.27c5.954,0.293,11.949,0.379,17.886-0.208   c0.916-0.091,0.959-1.467,0-1.46c-5.929,0.041-11.851,0.284-17.781,0.302c0.281-2.451,0.932-4.843,1.811-7.149   c2.625,0.224,5.247,0.291,7.876,0.045c0.787-0.074,0.818-1.274,0-1.251c-2.496,0.068-4.986,0.105-7.482,0.067   c0.901-2.105,2.059-4.096,3.421-5.943c4.057,0.151,8.118,0.183,12.151-0.337c0.714-0.092,0.767-1.163,0-1.157   c-3.743,0.033-7.479,0.232-11.22,0.332c1.168-1.426,2.517-2.695,3.946-3.879c0.085,0.207,0.238,0.383,0.532,0.388   c1.91,0.028,3.821,0.086,5.731,0.028c0.866-0.026,0.867-1.32,0-1.346c-1.694-0.051-3.388-0.004-5.083,0.025   c2.833-2.102,6.052-3.751,9.707-4.614c6.14,10.752,18.492,17.566,32.067,16.465c0.608-0.049,1.198-0.153,1.796-0.235   C117.337,177.118,117.035,183.825,118.688,189.916z M163.469,207.433c-10.442,5.929-23.822,4.388-32.958-3.244   c2.338,0.41,4.742,0.707,7.035,0.75c0.671,0.012,0.842-1.052,0.161-1.192c-2.826-0.581-5.904-0.882-8.818-0.902   c-0.03-0.03-0.066-0.051-0.097-0.08c-1.383-1.355-2.506-2.796-3.508-4.275c5.054,0.528,10.238,0.856,15.298,0.441   c0.865-0.071,0.89-1.345,0-1.365c-5.327-0.119-10.641,0.015-15.97-0.182c-1.381-2.273-2.329-4.674-2.975-7.148   c0.061,0.074,0.122,0.151,0.246,0.177c3.012,0.637,6.018,0.747,9.055,0.211c0.657-0.116,0.365-1.075-0.273-0.987   c-2.869,0.396-5.663,0.357-8.505-0.229c-0.322-0.066-0.549,0.144-0.623,0.389c-0.598-2.451-0.795-4.99-0.803-7.556   c6.817,0.412,13.7,0.786,20.522,0.573c0.927-0.029,0.902-1.342,0-1.422c-6.805-0.607-13.704-0.633-20.54-0.616   c0.079-2.202,0.393-4.426,0.811-6.652c3.778-0.139,7.537-0.281,11.303-0.66c0.619-0.063,0.648-0.982,0-0.986   c-3.689-0.024-7.352,0.179-11.03,0.39c0.196-0.91,0.342-1.82,0.591-2.728c2.511-0.499,4.896-1.306,7.155-2.333   c4.246-0.051,8.494-0.111,12.725-0.5c0.907-0.083,0.944-1.44,0-1.441c-3.299-0.003-6.59,0.204-9.878,0.447   c1.85-1.073,3.539-2.365,5.139-3.756c3.085,0.099,6.221,0.352,9.277-0.146c0.561-0.092,0.561-1.042,0-1.134   c-2.541-0.414-5.139-0.309-7.717-0.205c2.952-2.921,5.423-6.319,7.114-10.169C174.784,151.707,191.33,191.613,163.469,207.433z    M205.772,142.951c-10.681-8.194-31.841,5.518-34.111,16.985c-3.402-3.901-7.659-7.058-12.552-9.067   c3.147,0.331,6.291,0.689,9.453,0.832c0.345,0.016,0.436-0.562,0.083-0.615c-3.495-0.518-7.015-0.779-10.533-1.099   c-0.255-0.023-0.374,0.166-0.368,0.364c-2.874-1.027-5.941-1.684-9.195-1.828c3.603-1.707,7.111-3.617,10.546-5.656   c3.96,0.128,7.895,0.474,11.828,0.995c0.619,0.082,0.77-0.996,0.148-1.099c-3.415-0.563-6.85-0.784-10.298-0.873   c3.776-2.319,7.425-4.85,10.961-7.54c4.555,0.555,9.105,1.106,13.68,1.472c0.642,0.051,0.801-1.039,0.154-1.136   c-4.093-0.615-8.2-1.077-12.312-1.526c2.216-1.736,4.347-3.583,6.455-5.455c2.77,0.163,5.529,0.475,8.27,0.913   c0.613,0.098,0.893-0.816,0.262-0.951c-2.448-0.526-4.907-0.782-7.389-0.928c1.753-1.59,3.435-3.26,5.107-4.938   c3.633,0.444,7.261,0.866,10.921,1.1c0.588,0.038,0.737-0.958,0.141-1.043c-3.332-0.472-6.669-0.786-10.013-1.074   c2.144-2.199,4.194-4.488,6.191-6.823c4.383,1.134,8.767,2.44,13.248,3.123c0.921,0.141,1.324-1.136,0.393-1.426   c-4.131-1.287-8.433-2.025-12.675-2.87c1.802-2.153,3.515-4.378,5.187-6.634c2.994,0.244,5.986,0.504,8.989,0.628   c0.78,0.032,0.751-1.119,0-1.195c-2.712-0.272-5.432-0.423-8.152-0.586c1.388-1.913,2.654-3.907,3.944-5.886   c4.193,0.602,8.4,1.217,12.632,1.447c0.819,0.044,1.026-1.313,0.197-1.453c-3.95-0.667-7.952-0.997-11.944-1.313   c1.282-2.014,2.486-4.075,3.664-6.148c2.591-0.033,5.162,0.186,7.738,0.502c0.818,0.101,0.958-1.21,0.192-1.415   c-2.313-0.62-4.637-0.799-6.995-0.728c0.821-1.49,1.596-3.003,2.36-4.521c1.713,0.196,3.413,0.385,5.136,0.481   c0.819,0.046,1.026-1.317,0.197-1.453c-1.516-0.248-3.036-0.409-4.56-0.572c2.604-5.338,4.863-10.835,6.681-16.484   c-1.077,13.665,0.978,28.746,10.029,37.71C214.405,108.891,204.263,128.298,205.772,142.951z"></path><path d="M98.785,123.375c-1.432-0.036-2.772,0.431-3.901,1.222c-0.256-0.545-0.432-1.152-0.483-1.859   c-0.066-0.918-1.409-0.936-1.441,0c-0.035,1.027,0.209,2.075,0.643,3.034c-0.521,0.581-0.98,1.22-1.311,1.932   c-0.367,0.79,0.691,1.434,1.179,0.689c0.297-0.454,0.631-0.834,0.98-1.184c0.964,1.223,2.34,2.081,3.981,2.141   c0.996,0.036,1.003-1.275,0.217-1.602c-1.052-0.438-1.973-0.992-2.704-1.7c0.905-0.524,1.92-0.88,3.045-1.146   C99.863,124.697,99.646,123.397,98.785,123.375z"></path><path d="M164.082,166.798c0.51-0.692,1.117-1.33,1.905-1.825c0.884-0.555,0.323-2.175-0.745-1.768   c-1.504,0.575-2.606,1.671-3.289,2.986c-1.2-0.146-2.432-0.016-3.494,0.487c-0.683,0.324-0.188,1.337,0.497,1.178   c0.871-0.202,1.65-0.145,2.382,0.028c-0.282,1.35-0.17,2.798,0.429,4.134c0.339,0.755,1.448,0.199,1.282-0.541   c-0.218-0.976-0.122-1.881,0.105-2.74c0.908,0.664,1.683,1.569,2.268,2.668c0.538,1.012,1.83,0.245,1.698-0.716   C166.868,168.857,165.638,167.54,164.082,166.798z"></path><path d="M99.369,200.191c0.521-0.538,0.003-1.652-0.784-1.347c-1.368,0.529-2.562,0.913-3.748,1.069   c0.197-0.945,0.539-1.877,1.09-2.835c0.495-0.86-0.728-1.887-1.415-1.091c-0.964,1.117-1.48,2.496-1.608,3.909   c-0.819-0.116-1.662-0.337-2.591-0.814c-0.622-0.32-1.4,0.534-0.793,1.027c0.947,0.769,2.185,1.323,3.493,1.601   c0.158,0.945,0.436,1.87,0.975,2.697c0.35,0.535,1.285,0.21,1.075-0.453c-0.227-0.716-0.336-1.394-0.38-2.056   C96.44,201.93,98.168,201.429,99.369,200.191z"></path><path d="M109.767,58.868c-1.96,0.51-3.938,0.716-5.951,0.471c-0.537-0.065-0.663,0.852-0.128,0.95   c2.223,0.408,4.223,0.334,6.342-0.47C110.612,59.598,110.393,58.706,109.767,58.868z"></path><path d="M105.187,160.647c-3.129-0.071-6.199-0.215-9.298-0.695c-0.578-0.089-0.841,0.776-0.247,0.896   c3.139,0.633,6.338,1.056,9.545,1.013C105.968,161.85,105.968,160.664,105.187,160.647z"></path><path d="M149.006,156.312c-1.421-0.019-2.764,0.002-4.169-0.279c-1.083-0.217-1.548,1.44-0.458,1.664   c1.619,0.333,3.206,0.493,4.836,0.161C150.102,157.677,149.873,156.324,149.006,156.312z"></path></g><g></g><g></g><g></g><g></g><g></g><g></g><g></g><g></g><g></g><g></g><g></g><g></g><g></g><g></g><g></g></svg>