<svg xmlns="http://www.w3.org/2000/svg" xmlns:xlink="http://www.w3.org/1999/xlink" fill="currentColor" version="1.1" id="Capa_1" viewBox="0 0 242.867 242.867" xml:space="preserve"><g><path d="M175.242,175.029c-0.022-4.458,2.232-8.883,1.165-13.402c-0.98-4.151-3.41-6.9-7.464-8.425   c-12.794-4.812-29.966,7.828-39.273,16.377c1.16-12.481,0.886-25.23,1.435-37.749c0.005-0.126-0.026-0.227-0.051-0.331   c35.057-1.982,58.289-35.023,57.042-69.418c-1.41-38.853-34.316-65.112-72.374-61.801C78.499,3.52,52.003,33.016,54.947,70.842   c0.78,10.025,3.946,19.431,8.836,27.746c-0.379,0.09-0.365,0.688,0.074,0.702c0.111,0.004,0.22-0.002,0.331,0.002   c9.063,14.993,23.868,26.273,40.985,30.674c-0.005,0.053-0.027,0.093-0.025,0.151c0.505,12.898,0.691,25.885,1.94,38.741   c-9.055-11.244-24.996-24.903-39.888-22.25c-10.791,1.923-12.674,7.534-11.887,14.226c-0.032,0.162-0.01,0.311,0.064,0.459   c0.884,6.58,4.172,14.131,4.072,20.231c-0.196,11.977-11.106,29.611,6.59,35.494c13.905,4.622,28.087-6.885,39.163-16.556   c-0.528,10.749-1.182,23.218,1.307,33.253c1.383,5.576,5.433,10.188,11.124,8.952c5.194,0.432,10.302-1.489,12.211-6.968   c1.824-5.232,0.411-12.339,0.175-17.739c-0.356-8.151-0.697-16.304-1.088-24.453c10.796,9.68,28.211,22.58,43.107,20.695   c11.616-1.47,15.455-11.187,10.84-21.076C179.787,186.501,175.282,183.379,175.242,175.029z M126.088,129.644   c-0.004-0.001-0.005-0.005-0.009-0.006c-4.487-0.947-9.475-1.068-14.145-0.947c0.022-0.166,0.015-0.345-0.04-0.54   c-0.425-1.511-0.781-3.06-1.106-4.623c9.139,2.28,19.169,2.087,28.378,0.783c0.707-0.1,0.546-1.309-0.169-1.253   c-9.693,0.765-18.869-0.015-28.46-0.811c-0.317-1.687-0.556-3.403-0.752-5.129c4.253-0.067,8.513-0.275,12.756-0.54   c0.812-0.051,0.828-1.289,0-1.276c-4.301,0.068-8.616,0.193-12.912,0.466c-0.142-1.507-0.192-3.03-0.238-4.551   c3.062,0.051,6.118,0.122,9.18,0.029c0.534-0.016,0.535-0.813,0-0.829c-3.075-0.093-6.145-0.022-9.221,0.03   c-0.027-1.41,0.021-2.822,0.079-4.233c0.028,0.006,0.039,0.032,0.069,0.034c2.46,0.141,4.906,0.275,7.37,0.294   c0.643,0.005,0.628-0.941,0-0.989c-2.457-0.187-4.907-0.259-7.37-0.326c-0.022-0.001-0.03,0.019-0.051,0.02   c0.115-2.078,0.363-4.143,0.672-6.197c4.331,0.069,8.655,0.138,12.988,0.008c0.902-0.027,0.904-1.376,0-1.403   c-4.257-0.127-8.506-0.062-12.761,0.005c0.331-1.907,0.775-3.787,1.282-5.644c2.315,0.064,4.625,0.123,6.942,0.079   c0.698-0.013,0.699-1.071,0-1.084c-2.233-0.042-4.46,0.012-6.691,0.073c0.511-1.757,1.115-3.479,1.793-5.168   c2.39-0.06,4.779-0.015,7.164-0.212c0.634-0.052,0.897-1.098,0.163-1.206c-2.212-0.325-4.402-0.286-6.614-0.15   c0.594-1.347,1.255-2.66,1.959-3.95c1.188,0.047,2.36,0.11,3.537-0.105c0.639-0.117,0.64-1.175,0-1.291   c-0.88-0.161-1.76-0.158-2.643-0.132c1.602-2.697,3.441-5.255,5.63-7.572c0.017-0.012,0.041,0.003,0.057-0.012   c0.06-0.006,0.092-0.077,0.145-0.103c-3.565,23.429,15.218,45.841,38.848,45.619C152.29,124.912,140.099,129.858,126.088,129.644z    M128.659,170.516c-0.048,0.045-0.104,0.095-0.152,0.141c-2.499-2.829-5.786-4.559-9.395-3.424   c-4.241-0.509-7.993,0.824-10.619,3.408c-0.044-0.058-0.096-0.119-0.14-0.178c0.056-2.194,0.035-4.391,0.031-6.587   c0.387,0.122,0.848,0.099,1.288,0.108c1.651,0.032,3.286-0.094,4.93-0.22c0.634-0.048,0.639-0.946,0-0.989   c-1.095-0.074-2.188-0.162-3.286-0.179c-0.187-0.003-1.623-0.003-2.503,0.183c-0.055-0.116-0.146-0.215-0.261-0.253   c-0.067-0.022-0.108-0.006-0.162-0.013c-0.007-1.032-0.04-2.065-0.057-3.097c0.014,0.003,0.019,0.016,0.035,0.018   c5.74,0.454,11.51,0.521,17.169-0.644c0.618-0.127,0.489-1.163-0.151-1.112c-5.685,0.449-11.305,1.029-17.018,0.879   c-0.023-0.001-0.03,0.018-0.051,0.02c-0.032-1.698-0.115-3.396-0.165-5.095c0.067,0.035,0.118,0.087,0.214,0.086   c2.365-0.041,4.733-0.046,7.088-0.292c0.61-0.063,0.639-0.957,0-0.973c-2.366-0.057-4.728,0.128-7.088,0.276   c-0.105,0.007-0.168,0.066-0.239,0.116c-0.059-1.884-0.151-3.763-0.222-5.647c4.245,0.312,8.412,0.367,12.652-0.066   c0.549-0.056,0.576-0.88,0-0.877c-4.228,0.02-8.465,0.078-12.691-0.049c-0.062-1.623-0.128-3.242-0.192-4.865   c3.233,0.185,6.431,0.258,9.631-0.279c0.615-0.103,0.451-1.061-0.145-1.065c-3.181-0.019-6.351,0.194-9.535,0.123   c-0.125-3.186-0.247-6.374-0.375-9.552c5.248,1.167,10.672,1.764,16.219,1.554c0.189-0.007,0.316-0.084,0.408-0.188   c1.259,0.099,2.517,0.075,3.679-0.189c0.458,0.001,0.904-0.027,1.358-0.036c-0.027,0.089-0.067,0.168-0.075,0.272   C127.905,144.521,127.037,157.839,128.659,170.516z M164.383,114.605c-0.119-0.036-0.242-0.067-0.392-0.06   c-11.562,0.565-22.437-4.09-29.811-13.086c-7.174-8.752-8.833-18.831-9.482-29.645c11.52,18.356,35.326,26.37,55.674,18.799   C176.774,99.766,171.338,108.05,164.383,114.605z M185.328,62.082c0.298,9.111-1.211,18.179-4.237,26.588   c-0.008,0.002-0.011-0.004-0.018-0.002c-13.196,3.491-25.19,2.69-35.728-2.191c3.623,0.477,7.282,0.585,10.933,0.261   c0.733-0.065,0.761-1.174,0-1.164c-4.714,0.059-9.346-0.171-14.018-0.819c-0.061-0.008-0.099,0.032-0.155,0.038   c-2.873-1.614-5.66-3.468-8.287-5.734c2.069,0.652,5.177,0.799,6.461,1.035c4.273,0.783,8.558,1.4,12.878,1.846   c0.731,0.075,0.708-1.042,0-1.132c-1.451-0.186-20.491-2.937-20.48-3.006c0.04-0.246-0.187-0.447-0.422-0.324   c-0.037,0.019-0.073,0.038-0.109,0.057c-1.4-1.308-2.774-2.682-4.097-4.183c6.949,1.36,14.072,1.891,21.141,1.733   c0.759-0.017,0.761-1.166,0-1.18c-7.424-0.138-14.729-0.771-22.095-1.654c-0.777-0.922-1.549-1.859-2.298-2.85   c0.075-0.079,0.133-0.169,0.207-0.249c18.967,7.449,44.608,5.591,60.201-8.617C185.235,61.055,185.311,61.556,185.328,62.082z    M185.102,59.224c-18.443,9.102-34.294,13.785-54.05,10.274c9.564-0.846,17.967-8.552,23.628-16.08   c7.452-9.911,11.057-21.753,10.968-34.029C176.547,29.183,183.846,42.869,185.102,59.224z M163.834,17.816   c-0.179,20.568-13.954,50.412-37.886,50.171c1.001-1.184,1.894-2.437,2.724-3.728c2.365,0.126,4.692,0.075,7.04-0.291   c0.529-0.083,0.41-0.983-0.127-0.94c-2.109,0.168-4.221,0.262-6.336,0.244c1.076-1.793,1.965-3.692,2.748-5.645   c3.654-0.019,7.311-0.014,10.958-0.224c0.824-0.048,0.839-1.287,0-1.292c-3.488-0.022-6.974,0.155-10.459,0.318   c0.662-1.808,1.188-3.679,1.627-5.584c1.81,0.063,3.615,0.124,5.429,0.076c0.598-0.016,0.592-0.89,0-0.925   c-1.735-0.102-3.465-0.104-5.2-0.1c0.368-1.75,0.623-3.54,0.822-5.345c5.135,0.23,10.294,0.534,15.434,0.4   c0.919-0.024,0.908-1.363,0-1.419c-5.091-0.315-10.216-0.2-15.317-0.153c0.186-2.054,0.238-4.135,0.228-6.223   c2.78-0.018,5.518,0.239,8.286,0.468c0.557,0.046,0.696-0.908,0.134-0.987c-2.795-0.389-5.628-0.325-8.437-0.118   c-0.024-1.722-0.127-3.448-0.27-5.172c4.69,0.438,9.543,0.773,14.242,0.603c0.986-0.036,0.939-1.39,0-1.499   c-4.716-0.549-9.632-0.603-14.386-0.538c-0.207-2.046-0.526-4.075-0.88-6.091c2.813,0.352,5.632,0.646,8.464,0.77   c0.581,0.026,0.734-0.947,0.14-1.034c-2.912-0.426-5.843-0.681-8.78-0.869c-0.386-2.043-0.862-4.047-1.381-6.024   c0.174-0.001,0.35,0.006,0.524-0.001c0.051,0.119,0.137,0.217,0.294,0.24c5.208,0.791,10.452,1.287,15.723,1.242   c0.766-0.006,0.752-1.131,0-1.18c-4.704-0.309-9.408-0.567-14.109-0.915c-0.037-0.148-0.139-0.283-0.35-0.307   c-0.796-0.09-1.584-0.125-2.374-0.11c-0.445-1.613-0.966-3.163-1.485-4.713c4.214,0.326,8.418,0.674,12.649,0.639   c0.719-0.006,0.671-0.997,0-1.084c-4.343-0.563-8.707-0.721-13.077-0.915c-0.77-2.181-1.603-4.289-2.517-6.275   C141.518,4.505,153.993,9.656,163.834,17.816z M115.722,3.197c3.184-0.259,6.318-0.232,9.422-0.076   c9.709,19.637,12.354,46.532-1.392,65.137c4.514-22.316-15.771-46.886-34.353-57.364C97.198,6.705,106.065,3.982,115.722,3.197z    M63.894,36.874c8.022,0.171,16.039,0.328,24.058,0.634c0.818,0.031,0.798-1.194,0-1.26c-7.828-0.647-15.682-0.818-23.526-0.427   c0.995-1.869,2.113-3.656,3.293-5.399c3.909,0.336,7.812,0.595,11.735,0.707c0.764,0.022,0.727-1.084,0-1.164   c-3.611-0.398-7.222-0.661-10.846-0.864c1.053-1.471,2.199-2.87,3.379-4.239c4.986,0.781,10.101,1.469,15.121,1.297   c0.993-0.034,0.954-1.415,0-1.515c-4.611-0.48-9.212-0.708-13.811-1.237c1.373-1.493,2.844-2.896,4.36-4.253   c4.004,0.33,7.992,0.935,11.998,1.107c0.786,0.034,0.959-1.199,0.186-1.378c-3.453-0.801-7.072-1.001-10.646-1.082   c0.906-0.758,1.857-1.468,2.808-2.178c2.172,0.155,4.341,0.307,6.521,0.4c0.965,0.041,0.936-1.398,0-1.483   c-1.514-0.138-3.028-0.222-4.541-0.33c0.986-0.675,1.972-1.352,3.007-1.968c19.518,10.142,37.669,32.736,35.248,55.822   C110.563,47.26,85.108,37.999,62.191,40.454C62.713,39.233,63.297,38.049,63.894,36.874z M61.182,43.041   c25.66-3.464,44.107,7.361,59.72,26.171c-18.92-11.32-44.422-9.112-63.557,0.553C56.735,60.197,58.132,51.18,61.182,43.041z    M75.674,110.051c-2.245-2.201-4.304-4.582-6.197-7.1c0.772,0.046,1.544,0.088,2.314,0.067c0.397-0.011,0.518-0.635,0.098-0.721   c-1.008-0.206-2.039-0.233-3.071-0.212c-0.656-0.905-1.277-1.837-1.884-2.781c2.951,0.016,5.902-0.056,8.831-0.446   c0.621-0.083,0.658-1.057,0-1.004c-3.125,0.249-6.24,0.476-9.366,0.597c-0.819-1.32-1.527-2.721-2.248-4.113   c5.53,0.069,11.204-0.234,16.584-1.389c0.613-0.132,0.49-1.178-0.15-1.112c-5.645,0.579-11.227,1.285-16.883,1.679   c-0.697-1.401-1.328-2.848-1.923-4.317c2.444,0.064,4.872,0.049,7.313-0.288c0.551-0.076,0.421-1.001-0.131-0.971   c-2.519,0.135-5.038,0.284-7.561,0.304c-0.644-1.669-1.195-3.396-1.701-5.15c7.88,0.111,15.908,0.237,23.72-0.78   c0.846-0.11,0.911-1.379,0-1.371c-8.021,0.064-16.036,0.777-24.062,0.93c-0.425-1.6-0.782-3.239-1.089-4.906   c0.066,0.03,0.115,0.082,0.195,0.088c5.108,0.346,10.48-0.364,15.601-0.593c0.943-0.042,0.946-1.428,0-1.467   c-5.098-0.213-10.784-0.405-15.764,0.854c-0.086,0.022-0.12,0.084-0.18,0.127c-0.177-1.065-0.364-2.124-0.483-3.219   c1.54-0.77,3.067-1.456,4.587-2.1c0.036,0.232,0.183,0.435,0.494,0.406c6.24-0.572,12.463-0.532,18.718-0.231   c0.708,0.034,0.68-1.013,0-1.084c-5.729-0.602-11.438-0.473-17.155,0.076c18.009-7.014,34.869-5.487,53.387,0.166   C97.298,71.635,77.824,90.06,75.674,110.051z M77.709,111.942c0.029-0.085,0.07-0.16,0.081-0.258   c2.489-22.855,21.276-33.67,41.136-39.351c-14.375,11.852-14.025,40.209-9.701,55.991   C97.318,125.347,86.424,119.783,77.709,111.942z M78.109,213.811c-10.591,1.86-15.679-0.273-17.858-4.133   c2.806,0.085,5.622,0.086,8.425,0.03c0.646-0.013,0.647-0.992,0-1.005c-2.969-0.058-5.956-0.062-8.926,0.041   c-0.765-1.83-0.974-3.974-0.88-6.229c6.598,0.408,13.138,0.48,19.728-0.157c0.671-0.065,0.7-1.084,0-1.068   c-6.55,0.142-13.106,0.246-19.654-0.008c0.204-2.298,0.704-4.644,1.247-6.908c2.971,0.386,6.069,0.356,9.052,0.355   c0.745,0,0.733-1.102,0-1.148c-2.893-0.181-5.905-0.419-8.812-0.234c0.062-0.248,0.115-0.515,0.177-0.759   c0.422-1.642,0.995-3.139,1.531-4.631c3.312,0.342,6.606,0.687,9.937,0.813c0.682,0.026,0.644-0.959,0-1.037   c-3.193-0.388-6.387-0.569-9.594-0.75c0.419-1.235,0.711-2.518,0.894-3.857c5.354,0.131,10.723,0.385,16.073,0.125   c0.893-0.043,0.894-1.344,0-1.387c-5.308-0.257-10.635-0.01-15.946,0.122c0.011-0.21,0.067-0.397,0.069-0.612   c0.014-2.283-0.449-4.338-1.089-6.384c2.915,0.142,5.827,0.333,8.745,0.464c0.608,0.027,0.765-0.978,0.146-1.081   c-3.08-0.512-6.178-0.655-9.287-0.619c-0.338-0.978-0.7-1.963-1.079-2.98c-0.332-0.89-0.781-1.893-1.268-2.959   c4.768,0.403,9.533,0.816,14.317,0.999c0.845,0.032,0.809-1.205,0-1.292c-4.976-0.532-9.969-0.816-14.963-1.12   c-0.688-1.51-1.389-3.111-1.926-4.7c4.873,0.171,9.752,0.375,14.627,0.203c0.827-0.029,0.815-1.218,0-1.276   c-5.004-0.355-10.028-0.316-15.044-0.321c-0.421-1.562-0.613-3.08-0.422-4.462c4.618,0.528,9.407,0.57,14.048,0.443   c0.889-0.024,0.876-1.313,0-1.371c-4.551-0.307-9.252-0.448-13.811-0.126c1.206-3.823,6.209-6.224,19.567-4.68   c11.761,1.359,23.694,13.503,31.44,21.502c-0.982,1.217-1.715,2.667-2.206,4.279c-2.323-1.406-5.984-1.016-8.21-0.076   c-0.808,0.341-0.228,1.632,0.59,1.399c1.457-0.415,2.954-0.565,4.451-0.273c0.963,0.188,1.814,0.673,2.712,1.007   c-0.079,0.548-0.163,1.093-0.181,1.673c-0.042,1.319,0.04,2.577,0.213,3.778c-1.88,0.956-3.478,1.575-5.779,0.913   c-0.558-0.16-0.74,0.638-0.233,0.846c1.935,0.795,4.459,0.932,6.439,0.012c0.754,3.016,2.168,5.597,4.366,7.435   C100.764,199.94,89.922,211.736,78.109,213.811z M116.004,241.025c-2.823-0.543-4.669-2.251-5.899-4.556   c2.551,0.153,5.272-0.005,7.573-1.028c0.498-0.221,0.103-0.861-0.338-0.801c-2.666,0.361-5.123,0.806-7.78,0.679   c-0.673-1.616-1.084-3.462-1.357-5.379c4.652,0.189,9.42,0.331,14.057-0.039c0.727-0.058,0.728-1.074,0-1.132   c-4.687-0.373-9.509-0.226-14.209-0.033c-0.198-1.814-0.263-3.65-0.294-5.429c2.565,0.057,5.134,0.11,7.699,0.05   c0.697-0.016,0.698-1.068,0-1.085c-2.572-0.06-5.148-0.007-7.721,0.051c-0.016-1.809-0.006-3.455-0.024-4.93   c0.036,0.008,0.05,0.04,0.09,0.042c3.802,0.173,7.555,0.156,11.34-0.259c0.747-0.082,0.784-1.233,0-1.196   c-3.777,0.176-7.559,0.347-11.34,0.307c-0.045,0-0.061,0.034-0.101,0.042c0-0.016,0-0.036,0-0.051   c-0.062-2.082-0.14-4.16-0.219-6.238c3.637,0.096,7.412,0.146,10.952-0.565c0.572-0.115,0.429-1.003-0.136-1.003   c-3.618,0-7.229,0.393-10.855,0.467c-0.069-1.686-0.199-3.369-0.295-5.053c0.031,0.006,0.05,0.034,0.086,0.029   c3.765-0.49,7.551-0.439,11.341-0.36c0.753,0.016,0.745-1.126,0-1.164c-3.854-0.198-7.63,0.235-11.442,0.772   c-0.012,0.002-0.015,0.015-0.026,0.018c-0.083-1.39-0.128-2.782-0.243-4.171c1.925-1.69,3.757-3.301,5.452-4.711   c1.806,0.884,3.912,1.438,6.337,1.568c2.998,0.162,5.687-0.516,7.945-1.791c0.306,7.963,0.657,15.923,0.995,23.884   C128.017,228.064,128.801,240.261,116.004,241.025z M117.823,193.158c-3.378-0.328-5.835-1.683-7.552-3.666   c2.744,0.15,5.516-0.026,8.19-0.632c0.678-0.154,0.547-1.325-0.167-1.237c-3.015,0.369-5.977,0.573-9,0.561   c-0.665-1.07-1.143-2.284-1.478-3.586c4.714,0.01,9.45,0.177,14.158,0.033c0.819-0.025,0.802-1.198,0-1.26   c-4.749-0.368-9.615-0.12-14.366,0.238c-0.231-1.229-0.35-2.523-0.313-3.886c3.355,0.386,6.705,0.433,10.018-0.282   c0.648-0.14,0.518-1.241-0.159-1.175c-3.256,0.318-6.47,0.569-9.739,0.352c0.665-6.425,5.322-8.259,10.748-9.724   c0.204,0.231,0.483,0.404,0.897,0.347c5.704-0.78,9.537,3.731,10.725,9.04c-0.112,0.273-0.028,0.575,0.169,0.81   C131.146,186.113,127.732,194.12,117.823,193.158z M171.804,210.714c-3.617,0.489-7.152,0.137-10.589-1.218   c-11.347-3.289-22.07-10.845-31.372-17.992c1.533-1.716,2.618-3.867,3.101-6.367c2.758,1.051,6.396,1.368,8.865-0.135   c0.757-0.461,0.507-1.872-0.483-1.783c-1.441,0.13-2.802,0.588-4.262,0.594c-1.358,0.006-2.632-0.302-3.909-0.693   c0.017-0.298,0.076-0.573,0.076-0.879c0.001-1.026-0.196-2.163-0.483-3.324c2.315-0.255,4.451,0.385,6.681,1.521   c0.889,0.453,1.947-0.719,1.121-1.453c-2.277-2.024-5.42-2.458-8.304-1.779c-0.48-1.37-1.098-2.745-1.883-4.026   c0.018-0.015,0.037-0.017,0.055-0.034c4.673-4.321,9.577-8.256,15.155-11.348c6.105-3.385,25.46-13.496,28.058,3.029   c0.969,6.167-2.508,11.236-0.348,17.687c0.498,1.487,1.432,2.924,2.456,4.349C178.676,195.855,180.51,204.833,171.804,210.714z"></path><path d="M118.006,134.269c-3.305-0.282-6.608-0.224-9.922-0.211c-0.745,0.003-0.733,1.104,0,1.148   c3.309,0.202,6.605,0.448,9.922,0.354C118.847,135.537,118.826,134.339,118.006,134.269z"></path><path d="M116.871,174.14c-2.184-0.155-4.331-0.143-6.52-0.104c-0.749,0.013-0.75,1.151,0,1.164c2.188,0.039,4.336,0.051,6.52-0.104   C117.487,175.053,117.487,174.184,116.871,174.14z"></path></g><g></g><g></g><g></g><g></g><g></g><g></g><g></g><g></g><g></g><g></g><g></g><g></g><g></g><g></g><g></g></svg>