<svg xmlns="http://www.w3.org/2000/svg" xmlns:xlink="http://www.w3.org/1999/xlink" fill="currentColor" version="1.1" id="Capa_1" viewBox="0 0 246.077 246.077" xml:space="preserve"><g><path d="M243.927,46.714c-0.288-0.234-0.647-0.4-1.132-0.386c-11.139,0.319-22.324,0.378-33.527,0.331   c2.52-9.065,2.2-25.853-8.586-29.857c-11.159-4.142-23.58,9.162-29.133,17.97c-1.026-0.979-2.327-1.656-3.936-1.801   c-1.383-0.125-2.706,0.267-3.882,0.926c-6.223-6.654-18.048-16.339-27.636-12.007c-7.635,3.449-10.686,17.676-5.862,24.391   c-10.94,0.182-21.853,0.565-32.714,1.294c-0.633-1.408-3.222-1.174-3.217,0.716c0.034,10.998-0.799,21.958-0.904,32.946   c-0.006,0.688,0.66,1.019,1.238,0.952c0.1,0.331,0.327,0.626,0.793,0.653c3.008,0.177,6.044,0.288,9.067,0.432   c-0.037,2.686-0.001,5.373-0.014,8.06c-0.55,0.308-0.552,1.092-0.003,1.402c-0.017,4.82-0.066,9.64-0.025,14.459   c0.04,4.736-0.863,10.329,0.594,14.965c-3.189-0.169-6.375-0.358-9.573-0.483c1.192-5.796,0.679-12.025-0.563-17.777   c-0.726-3.361-1.834-7.428-5.663-8.272c-4.178-0.921-8.664,2.733-11.726,5.071c-4.182,3.192-7.835,7.135-10.777,11.491   c-1.614-1.072-3.601-1.55-5.585-1.114c-0.425,0.093-0.788,0.301-1.175,0.468c-4.43-5.777-13.921-15.821-21.67-12.887   c-7.399,2.802-5.921,17.469-2.309,23.044c-10.607,0.364-21.183,0.845-31.662,1.537c-1.261-0.653-3.17-0.085-3.179,1.774   c-0.05,10.115-0.687,20.152-1.164,30.249c-0.03,0.631,0.326,1.082,0.801,1.328c0.166,0.424,0.474,0.794,1.074,0.837   c3.229,0.23,6.524,0.392,9.773,0.604c-1.532,22.412,0.038,45.711,2.448,67.977c0.076,0.705,0.432,1.215,0.899,1.553   c-0.023,0.877,0.534,1.779,1.684,1.827c32.033,1.333,64.213,0.425,96.247-0.559c1.189-0.037,1.839-0.856,2.011-1.769   c0.535-0.356,0.927-0.926,0.927-1.766c-0.001-2.229,0.025-4.468,0.036-6.702c38.906,1.42,77.907,0.52,116.837,1.589   c1.047,0.029,1.702-0.562,1.968-1.316c0.725,0.402,1.818,0.118,1.85-0.979c1.341-45.562-0.162-91.256-0.271-136.835   c1.717-0.116,3.446-0.218,5.158-0.339c0.42-0.03,0.734-0.202,0.984-0.428c0.674,0.177,1.531-0.258,1.509-1.016   c0.934-4.678,0.757-9.566,1.017-14.324c0.304-5.541,1.081-11.086,1.123-16.629C246.086,47.129,244.891,46.513,243.927,46.714z    M177.148,31.468c3.768-0.312,7.675-0.39,11.358-1.256c0.815-0.192,0.617-1.421-0.194-1.434c-3.168-0.052-6.373,0.479-9.533,0.941   c1.666-1.726,3.477-3.398,5.365-4.885c0.049,0.005,0.067,0.048,0.122,0.045c3.592-0.176,7.192-0.293,10.764-0.726   c1.058-0.128,1.129-1.724,0-1.706c-2.777,0.043-5.544,0.282-8.311,0.531c3.135-2.033,6.427-3.355,9.676-3.212   c12.34,0.543,10.286,18.762,9.44,26.608c-0.011,0.1,0.02,0.177,0.026,0.268c-10.897-0.067-21.809-0.22-32.721-0.346   c0.363-0.709,0.62-1.482,0.796-2.28c2.585,0.464,5.212,0.623,7.822,0.2c0.782-0.127,0.596-1.41-0.187-1.378   c-2.54,0.104-5.002,0.128-7.491-0.182c0.112-1.258,0.007-2.532-0.284-3.74c3.387,0.133,6.827-0.097,10.01-1.307   c0.824-0.313,0.507-1.465-0.363-1.316c-3.382,0.579-6.682,1.177-10.117,1.179c-0.138-0.332-0.27-0.668-0.447-0.976   C174.102,34.97,175.548,33.232,177.148,31.468z M163.347,39.424c0.644-1.947,2.929-3.669,5.006-2.601   c4.003,2.06,1.644,6.283,0.69,9.427c-1.402-0.015-2.804-0.018-4.207-0.031c0.002-0.229-0.039-0.463-0.19-0.691   C163.454,43.721,162.629,41.592,163.347,39.424z M132.156,35.635c0.08,0.04,0.145,0.103,0.248,0.102   c3.6-0.036,7.208-0.062,10.807-0.127c0.99-0.018,0.933-1.386,0-1.498c-3.574-0.431-7.336-0.285-10.887,0.33   c0.364-2.131,1.05-4.128,2.116-5.746c2.252,0.092,4.501,0.19,6.754,0.102c0.903-0.035,0.904-1.368,0-1.403   c-1.919-0.075-3.836-0.012-5.753,0.064c1.82-1.959,4.427-3.034,8.057-2.462c6.868,1.082,12.943,6.232,18.303,10.411   c-0.589,0.646-1.099,1.363-1.438,2.172c-1.243,2.97-0.451,6.066,1.247,8.615c-9.602-0.076-19.194-0.072-28.768,0.06   c0.126-0.274,0.173-0.584,0.081-0.899c-0.336-1.156-0.581-2.44-0.739-3.776c2.778,0.11,5.578,0.285,8.336-0.023   c0.864-0.097,0.866-1.25,0-1.346c-2.802-0.313-5.65-0.127-8.471-0.018C131.951,38.69,131.982,37.143,132.156,35.635z    M95.495,80.998c0.332-2.06,0.573-4.134,0.805-6.208c6.91,1.076,13.95,1.58,20.902,0.641c0.979-0.132,0.736-1.742-0.232-1.714   c-6.892,0.203-13.616,0.297-20.459-0.581c0.185-1.833,0.251-3.679,0.377-5.519c4.013-0.193,8.033-0.402,12.02-0.874   c0.871-0.103,0.925-1.432,0-1.403c-3.982,0.125-7.96,0.512-11.926,0.914c0.148-2.375,0.178-4.75,0.278-7.128   c6.956,0.412,14.121,0.597,21.051,0.119c1.109-0.077,1.111-1.649,0-1.726c-6.91-0.477-14.054-0.293-20.993,0.116   c0.043-1.134,0.08-2.266,0.132-3.4c2.691,0.091,5.383,0.199,8.074,0.09c0.841-0.034,0.842-1.275,0-1.308   c-2.675-0.108-5.353-0.002-8.029,0.089c0.05-1.166,0.116-2.333,0.136-3.497c16.693,1.927,33.714,2.698,50.833,2.872   c-0.147,8.683-0.184,17.374-0.142,26.07C130.634,79.077,112.989,79.847,95.495,80.998z M68.416,113.599l0.004-0.004   c2.31,0.113,4.78,0.341,6.959-0.185c0.506-0.122,0.507-0.902,0-1.024c-1.798-0.435-3.803-0.345-5.748-0.239   c0.927-1.096,1.918-2.224,2.96-3.334c2.752-0.197,5.633-0.28,8.248-0.989c0.745-0.202,0.573-1.296-0.179-1.322   c-2.099-0.074-4.283,0.275-6.43,0.634c2.968-2.921,6.309-5.527,9.916-6.82c10.597-3.799,8.163,15.794,8.127,21.255   c-7.506-0.259-15.026-0.431-22.556-0.463c0.204-0.613,0.278-1.298,0.297-1.995c1.833,0.161,3.774,0.181,5.395-0.208   c0.614-0.147,0.614-1.096,0-1.243c-1.647-0.395-3.627-0.371-5.484-0.202c-0.148-1.051-0.43-2.044-0.798-2.754   c-0.211-0.406-0.528-0.712-0.804-1.059C68.351,113.618,68.389,113.631,68.416,113.599z M62.559,113.806   c2.01-0.091,3.683,1.114,4.293,3.023c0.512,1.604-0.132,2.86-0.373,4.25c-1.612,0-3.222,0.021-4.833,0.03   c-0.047-0.038-0.056-0.102-0.116-0.13C58.068,119.365,58.312,113.999,62.559,113.806z M36.79,107.433   c2.049,0.061,4.1,0.12,6.143,0.071c0.853-0.02,0.855-1.307,0-1.327c-2.008-0.048-4.021,0.008-6.034,0.068   c0.453-3.008,1.948-5.027,5.526-4.315c5.841,1.162,11.451,6.594,15.62,10.89c-1.164,1.136-1.912,2.655-1.856,4.416   c0.049,1.532,0.695,2.899,1.696,3.912c-6.458,0.067-12.899,0.283-19.341,0.487c0.003-0.093,0.055-0.157,0.041-0.259   c-0.089-0.598-0.255-1.425-0.448-2.387c2.498,0.039,4.993,0.085,7.489-0.045c0.854-0.044,0.855-1.283,0-1.327   c-2.591-0.135-5.18-0.081-7.772-0.041c-0.235-1.187-0.48-2.509-0.683-3.868c1.539,0.047,3.099,0.126,4.604-0.135   c0.67-0.116,0.67-1.237,0-1.353c-1.575-0.273-3.211-0.174-4.819-0.129C36.768,110.479,36.698,108.887,36.79,107.433z    M3.233,154.797c0.371-2.014,0.66-4.046,0.928-6.08c5.271,0.656,10.581,1.053,15.89,0.714c1.087-0.069,1.108-1.694,0-1.706   c-5.242-0.061-10.448-0.139-15.667-0.655c0.203-1.708,0.277-3.43,0.419-5.146c2.394,0.029,4.774,0.036,7.172-0.172   c0.755-0.066,0.756-1.11,0-1.176c-2.355-0.204-4.696-0.2-7.048-0.173c0.111-1.538,0.175-3.077,0.254-4.616   c6.303-0.728,12.597-0.568,18.906,0.097c0.844,0.089,1.04-1.333,0.201-1.49c-6.368-1.188-12.633-1.103-19.018-0.223   c0.081-1.894,0.085-3.785,0.106-5.676c0.08,0.237,0.238,0.451,0.547,0.486c3.501,0.401,6.865,0.337,10.279-0.562   c0.65-0.171,0.541-1.304-0.164-1.21c-3.359,0.443-6.73,0.72-10.115,0.464c-0.302-0.023-0.454,0.143-0.538,0.345   c0.006-0.801,0.055-1.605,0.045-2.405c13.89,0.097,27.787,0.312,41.684,0.544c-0.951,9.224-1.52,18.521-1.803,27.854   C31.135,153.942,17.031,154.2,3.233,154.797z M18.301,225.854c-0.086-1.504-0.144-3.014-0.222-4.519   c4.47,0.238,8.933,0.46,13.412,0.503c0.741,0.007,0.72-1.079,0-1.138c-4.49-0.362-8.98-0.542-13.479-0.708   c-0.084-1.654-0.149-3.312-0.227-4.967c1.877,0.015,3.754,0.042,5.63,0c0.646-0.015,0.648-0.99,0-1.005   c-1.891-0.043-3.785-0.015-5.676,0c-0.087-1.885-0.163-3.773-0.246-5.66c5.33,0.52,10.667,1.15,16.01,1.415   c0.72,0.036,0.687-1.023,0-1.1c-5.324-0.597-10.697-0.831-16.048-1.176c-0.105-2.434-0.207-4.87-0.309-7.305   c2.268,0.102,4.524,0.312,6.805,0.689c0.639,0.106,0.925-0.856,0.272-0.987c-2.342-0.472-4.73-0.658-7.119-0.682   c-0.083-1.974-0.181-3.947-0.265-5.922c6.244-0.168,12.429,0.12,18.686,0.409c0.864,0.04,0.837-1.248,0-1.327   c-6.202-0.591-12.499-0.425-18.729-0.044c-0.135-3.138-0.293-6.273-0.439-9.409c3.23,0.445,6.501,0.711,9.75,0.522   c0.69-0.04,0.701-1.073,0-1.081c-3.286-0.038-6.535-0.125-9.795-0.396c-0.083-1.756-0.181-3.509-0.27-5.265   c4.91-0.51,9.838-0.647,14.775-0.494c0.934,0.029,0.916-1.376,0-1.441c-4.993-0.357-9.906-0.081-14.844,0.583   c-0.127-2.473-0.307-4.938-0.45-7.409c3.512,0.137,7.089,0.424,10.584,0.135c0.852-0.071,0.854-1.257,0-1.327   c-3.515-0.291-7.115,0.001-10.648,0.137c-0.171-2.885-0.311-5.776-0.526-8.654c10.01,0.632,20.103,1.132,30.217,1.567   c-0.39,21.896,0.703,43.925,2.243,65.544c0.003,0.054,0.031,0.09,0.039,0.141C37.723,225.57,28.012,225.672,18.301,225.854z    M78.498,126.672c-0.053,9.392-0.024,18.786,0.043,28.179c-9.752-0.425-19.536-0.728-29.307-0.819   c0.023-9.268,0.038-18.544-0.025-27.84C58.973,126.356,68.736,126.518,78.498,126.672z M50.45,225.456   c0.001-0.042,0.019-0.071,0.017-0.114c-1.245-21.862-1.293-43.608-1.246-65.387c9.786,0.393,19.59,0.674,29.373,0.87   c0.186,21.451,0.502,42.903,0.46,64.354C69.52,225.296,59.985,225.373,50.45,225.456z M111.33,224.54   c-9.563,0.288-19.126,0.456-28.688,0.585c0.005-1.986-0.005-3.975-0.001-5.962c4.226,0.221,8.593,0.42,12.788,0.014   c0.792-0.077,0.793-1.156,0-1.232c-4.196-0.406-8.562-0.207-12.788,0.014c0.003-1.961-0.003-3.924-0.006-5.887   c0.382-0.027,0.759-0.073,1.138-0.162c2.061,0.503,4.147,0.778,6.273,0.546c0.781-0.085,0.824-1.26,0-1.251   c-1.687,0.018-3.318-0.124-4.952-0.402c-0.078-0.158-0.208-0.286-0.45-0.273c-0.715,0.039-1.368-0.05-2.011-0.169   c-0.004-2.63-0.006-5.259-0.008-7.889c4.715,0.275,9.43,0.603,14.153,0.577c0.893-0.005,0.861-1.286,0-1.365   c-4.705-0.435-9.432-0.518-14.155-0.652c-0.004-2.892-0.027-5.784-0.036-8.676c2.935,0.238,5.865,0.492,8.809,0.59   c0.909,0.03,0.865-1.289,0-1.384c-2.931-0.324-5.873-0.491-8.816-0.676c-0.01-2.523-0.065-5.045-0.081-7.567   c5.885-0.235,11.777-0.441,17.65-0.897c0.912-0.071,0.938-1.461,0-1.441c-5.893,0.124-11.781,0.501-17.665,0.847   c-0.021-3.009-0.072-6.018-0.096-9.026c3.226,0.044,6.452,0.109,9.677,0.005c0.878-0.028,0.88-1.337,0-1.365   c-3.229-0.104-6.461-0.038-9.692,0.005c-0.022-2.441-0.049-4.883-0.078-7.324c3.017,0.469,6.045,1.028,9.094,1.199   c0.649,0.036,0.789-0.99,0.154-1.136c-3.038-0.701-6.171-1.003-9.263-1.406c-0.009-0.627-0.007-1.254-0.02-1.881   c10.02,0.172,20.018,0.246,29.938,0.163C110.609,182.117,111.321,203.433,111.33,224.54z M82.143,155.001   c-0.017-0.685-0.045-1.369-0.064-2.053c3.463-0.999,7.066-1.224,10.65-0.9c0.81,0.073,1.008-1.305,0.194-1.434   c-3.762-0.598-7.296-0.212-10.885,1.001c-0.06-2.154-0.18-4.305-0.25-6.459c1.903,0.068,3.852,0.24,5.729-0.032   c0.588-0.085,0.589-1.103,0-1.189c-1.891-0.274-3.861-0.096-5.777-0.03c-0.069-2.045-0.168-4.088-0.238-6.133   c6.496,0.434,13.068,0.398,19.502-0.591c0.771-0.119,0.59-1.398-0.184-1.36c-6.472,0.32-12.893,0.674-19.368,0.659   c-0.064-1.795-0.142-3.59-0.209-5.385c0.023,0.001,0.03,0.022,0.053,0.021c2.438-0.071,4.811,0.175,7.181,0.757   c1.047,0.257,1.49-1.386,0.444-1.609c-2.527-0.54-5.043-0.743-7.625-0.589c-0.047,0.003-0.064,0.042-0.107,0.052   c-0.041-1.004-0.063-2.01-0.117-3.013c14.145,0.216,28.288,0.393,42.422,0.425c-0.504,3.461-0.758,6.966-0.945,10.473   c-0.133,0.046-0.271,0.077-0.404,0.125c-0.865,0.314-0.534,1.63,0.322,1.438c-0.089,1.868-0.171,3.734-0.255,5.593   c-0.191,4.209-1.102,9.103,0.188,13.201c-0.021-0.003-0.035-0.015-0.057-0.017C109.181,156.605,95.71,155.652,82.143,155.001z    M115.917,216.122c0.017-2.511,0.037-5.027,0.056-7.541c7.02,0.76,14.119,1.036,21.171,1.312c1.341,0.052,1.343-2.048,0-2.086   c-7.062-0.202-14.102-0.703-21.157-0.999c0.023-3.012,0.036-6.027,0.045-9.041c2.913,0.098,5.79-0.288,8.55-1.357   c0.723-0.28,0.45-1.415-0.328-1.189c-2.721,0.792-5.434,1.256-8.216,1.261c0.004-2.355-0.007-4.71-0.022-7.065   c5.038-0.177,10.078-0.305,15.1-0.781c0.894-0.085,0.932-1.432,0-1.422c-5.045,0.054-10.073,0.458-15.104,0.813   c-0.023-2.743-0.107-5.482-0.17-8.222c2.223-0.101,4.462-0.184,6.632-0.555c0.556-0.095,0.412-0.97-0.131-0.968   c-2.161,0.006-4.348,0.306-6.521,0.586c-0.059-2.352-0.144-4.701-0.235-7.05c4.949-0.071,9.96-0.03,14.851-0.593   c0.986-0.113,1.036-1.53,0-1.574c-4.937-0.207-9.948,0.202-14.908,0.492c-0.08-1.842-0.208-3.68-0.32-5.519   c2.516,0.285,4.88,0.122,7.312-0.629c0.699-0.216,0.412-1.268-0.302-1.097c-2.342,0.559-4.69,0.739-7.08,0.508   c-0.051-0.787-0.078-1.576-0.137-2.362c2.439-0.027,4.911,0.003,7.34-0.041c1.095-0.02,1.545-0.87,1.433-1.671   c0.679-1.08,1.13-2.288,1.459-3.554c3.371-0.265,6.739-0.526,10.087-1.011c0.687-0.1,0.524-1.244-0.164-1.21   c-3.218,0.159-6.418,0.53-9.618,0.901c0.371-1.985,0.495-4.04,0.619-6.04c2.393-0.329,4.794-0.643,7.14-1.196   c0.727-0.171,0.588-1.379-0.179-1.322c-2.299,0.17-4.577,0.559-6.853,0.947c0.02-0.265,0.033-0.553,0.056-0.812   c0.238-2.603,0.496-5.229,0.72-7.86c1.769-0.231,3.556-0.308,5.399-0.296c0.816,0.005,1.056-1.349,0.2-1.471   c-1.824-0.26-3.65-0.218-5.451,0.042c0.134-1.757,0.228-3.514,0.286-5.268c1.719,0.06,3.448,0.086,5.119-0.229   c0.552-0.104,0.553-1.011,0-1.115c-1.665-0.314-3.388-0.289-5.102-0.229c0.013-0.864,0.045-1.73,0.028-2.591   c-0.002-0.083-0.04-0.149-0.051-0.227c1.09-0.857,0.71-2.996-1.072-3.157c-5.964-0.541-11.963-0.953-17.979-1.304   c-0.359-1.976-0.596-4.003-0.787-6.049c7.806-0.145,15.753-0.009,23.476-0.978c0.921-0.116,0.977-1.435,0-1.479   c-7.816-0.351-15.769,0.44-23.6,0.924c-0.162-2.142-0.22-4.321-0.266-6.504c2.783,0.16,5.616,0.147,8.374,0.01   c0.951-0.047,0.952-1.431,0-1.479c-2.774-0.138-5.627-0.151-8.427,0.012c-0.02-1.713-0.009-3.434,0.007-5.153   c3.02,0.073,6.102,0.253,9.092-0.063c1.01-0.107,1.012-1.467,0-1.574c-2.986-0.315-6.061-0.136-9.077-0.063   c0.032-2.346,0.074-4.68,0.105-7.002c6.58,0.098,13.167,0.256,19.741-0.025c1.122-0.048,1.124-1.697,0-1.744   c-6.568-0.281-13.149-0.123-19.724-0.025c0.023-2.614,0.024-5.204-0.057-7.731c13.593,0.6,27.315,0.841,41.071,0.838   c0.38,43.485,2.638,87.092,3.722,130.474C139.996,214.901,127.934,215.306,115.917,216.122z M182.883,205.735   c-0.001,0.028,0.001,0.048,0.002,0.076c0.087,2.977,0.155,5.958,0.269,8.928c-9.268-0.116-18.537-0.177-27.798-0.071   c-1.103-43.357-1.052-86.995-2.861-130.418c10.823-0.046,21.66-0.293,32.479-0.64C182.867,124.23,181.702,165.271,182.883,205.735z    M152.231,78.441c-0.396-8.649-0.868-17.288-1.448-25.914c11.975,0.082,23.989-0.175,35.982-0.524   c-0.529,8.572-1.02,17.18-1.485,25.806C174.264,77.952,163.242,78.138,152.231,78.441z M232.74,215.818   c-15.439-0.4-30.943-0.813-46.455-1.037c0.13-2.745,0.199-5.502,0.316-8.25c6.942,0.021,13.903-0.251,20.763-1.326   c0.891-0.139,0.69-1.658-0.214-1.583c-6.84,0.572-13.636,1.159-20.488,1.33c0.121-2.904,0.19-5.818,0.297-8.725   c0.001,0,0.001,0.001,0.001,0.001c3.315,0.303,6.481-0.098,9.616-1.208c0.784-0.278,0.464-1.517-0.348-1.262   c-3.007,0.944-6.08,1.384-9.23,1.329c0.102-2.788,0.163-5.583,0.254-8.374c3.785-0.548,7.593-1.031,11.333-1.81   c0.752-0.156,0.598-1.444-0.184-1.359c-3.72,0.403-7.413,1.089-11.104,1.724c0.111-3.455,0.185-6.915,0.28-10.372   c7.278-0.04,14.711-0.343,21.806-1.995c0.856-0.199,0.694-1.66-0.211-1.564c-7.216,0.764-14.299,1.761-21.551,1.964   c0.111-4.065,0.154-8.138,0.249-12.206c3.566,0.474,7.118,0.354,10.697-0.49c0.791-0.187,0.45-1.355-0.333-1.207   c-3.44,0.652-6.891,0.832-10.339,0.484c0.058-2.55,0.087-5.102,0.141-7.653c2.771-0.264,5.529-0.267,8.348-0.249   c0.952,0.006,0.895-1.332,0-1.441c-2.764-0.337-5.559-0.198-8.32,0.175c0.048-2.334,0.053-4.669,0.099-7.004   c4.529-0.4,9.046-0.456,13.602-0.371c1.031,0.019,0.988-1.475,0-1.574c-4.541-0.455-9.068-0.212-13.58,0.337   c0.059-3.136,0.103-6.273,0.159-9.41c0.217-0.013,0.433-0.028,0.65-0.046c0.085,0.281,0.275,0.53,0.66,0.536   c7.404,0.131,14.81,0.4,22.21,0.047c1.048-0.05,1.05-1.581,0-1.631c-6.532-0.312-13.069-0.141-19.604-0.005   c-0.06-0.257-0.231-0.491-0.587-0.516c-1.069-0.075-2.185-0.219-3.296-0.286c0.049-2.815,0.067-5.629,0.113-8.444   c2.921,0.188,5.935,0.094,8.749-0.716c0.866-0.249,0.484-1.442-0.363-1.316c-2.82,0.419-5.537,0.731-8.367,0.659   c0.04-2.447,0.059-4.893,0.098-7.34c6.045,0.345,12.089,0.336,18.082-0.617c0.841-0.134,0.648-1.544-0.202-1.49   c-5.964,0.379-11.886,0.775-17.86,0.632c0.045-2.869,0.071-5.737,0.115-8.607c3.994,0.103,8.052-0.19,11.865-1.429   c0.857-0.279,0.502-1.491-0.368-1.335c-3.83,0.688-7.584,1.268-11.476,1.254c0.049-3.246,0.084-6.491,0.13-9.736   c2.949,0.09,5.886,0.321,8.835,0.56c0.918,0.074,1.106-1.395,0.216-1.602c-2.976-0.691-5.992-0.889-9.027-0.858   c0.031-2.306,0.075-4.614,0.093-6.919c14.604-0.515,29.162-1.252,43.565-2.195c0.472,44.972-0.395,90.073,1.446,135.014   C233.686,216.036,233.282,215.832,232.74,215.818z M241.377,77.506c-17.343-0.009-34.821,0.053-52.326,0.256   c0.006-0.841,0.015-1.679,0.022-2.52c4.673,0.182,9.397,0.448,14.038,0.147c1.097-0.071,1.099-1.635,0-1.707   c-4.637-0.301-9.356-0.035-14.025,0.147c0.019-2.455,0.044-4.904,0.064-7.358c3.157,0.32,6.377,0.207,9.457-0.529   c0.682-0.163,0.555-1.315-0.169-1.248c-3.116,0.292-6.171,0.447-9.276,0.426c0.037-4.397,0.07-8.796,0.115-13.186   c17.854-0.547,35.64-1.328,53.1-1.875C240.831,58.577,240.009,68.994,241.377,77.506z"></path><path d="M202.676,58.813c-4.109-0.587-8.231-0.832-12.372-1.095c-1.161-0.074-1.118,1.661,0,1.782   c4.044,0.439,8.072,0.907,12.14,1.025C203.403,60.555,203.666,58.955,202.676,58.813z"></path></g><g></g><g></g><g></g><g></g><g></g><g></g><g></g><g></g><g></g><g></g><g></g><g></g><g></g><g></g><g></g></svg>