<svg xmlns="http://www.w3.org/2000/svg" xmlns:xlink="http://www.w3.org/1999/xlink" fill="currentColor" version="1.1" id="Capa_1" viewBox="0 0 253.348 253.348" xml:space="preserve"><g><path d="M229.175,11.89c0.599-1.324,1.226-2.616,1.739-4.034c0.236-0.654-0.099-1.21-0.601-1.533   c-0.242-0.316-0.65-0.427-1.093-0.266c-0.297,0.037-0.56,0.179-0.765,0.432c-12.418,9.472-27.169,13.707-37.732-0.962   c-0.835-1.16-2.647-0.486-2.334,0.984c0,0,0.001,0.003,0.001,0.004c-0.061,0.109-0.148,0.191-0.16,0.345   c-0.542,6.866-5.692,12.072-12.484,12.941c-5.881,0.752-10.936-1.912-15.781-4.904c-0.228-0.141-0.456-0.183-0.679-0.187   c-0.37-0.563-1.332-0.718-1.455,0.122c-0.467,3.186-1.583,6.031-3.175,8.493c-0.122,0.083-0.198,0.181-0.242,0.316   c-1.373,2.032-3.044,3.819-5.069,5.203c-11.334-15.883-34.307-19.391-47.68-4.141c-1.349-2.674-2.242-5.547-2.792-8.561   c-0.131-0.718-0.807-0.814-1.339-0.567c-0.369-0.175-0.776-0.241-1.16,0.044c-4.975,3.694-10.877,6.193-16.871,2.955   c-6.087-3.288-7.963-10.544-6.358-16.87c0.016-0.061-0.027-0.107-0.023-0.166c0.011-0.182-0.012-0.362-0.076-0.533   c-0.006-0.01-0.01-0.019-0.016-0.029c-0.296-0.736-1.201-1.275-2.041-0.795C55.652,8.938,41.409,6.076,25.17,1.641   c-0.079-0.081-0.161-0.154-0.24-0.235c-1.232-1.259-3.057,0.587-1.967,1.897c-0.508,0.141-0.864,0.719-0.369,1.216   c6.064,6.097,10.357,12.434,13.301,19.126c-0.107,0.288-0.003,0.608,0.314,0.728c4.775,11.27,5.774,23.556,4.856,37.435   c-0.108,1.64,2.247,1.783,2.734,0.37c0.088-0.256,0.15-0.518,0.233-0.775c0.051-0.006,0.092,0.024,0.145,0.007   c6.591-2.134,12.006-4.548,19.182-3.75c4.264,0.474,7.737,1.904,11.083,3.786c-5.154,16.196-7.835,32.799-10.933,49.027   c-0.66,0.106-0.906,1.016-0.237,1.238c-5.503,28.574-12.537,55.91-36.964,77.687c-0.085,0.075-0.115,0.159-0.18,0.238   c-0.625-0.019-1.3,0.513-1.107,1.254c0.11,0.422,0.324,0.806,0.476,1.213c-0.209-0.007-0.419-0.013-0.629-0.02   c-0.703-0.025-0.692,1.04,0,1.087c0.359,0.024,0.718,0.051,1.077,0.076c3.209,6.673,11.916,11.282,20.447,14.77   c-5.913,8.979-8.514,19.129-6.06,27.63c-0.374,0.117-0.342,0.736,0.124,0.773c0.044,0.003,0.088,0.008,0.132,0.011   c2.122,6.43,7.224,11.848,16.16,14.958c21.005,7.312,34.724-6.789,39.568-26.3c0.004-0.018-0.001-0.033,0.003-0.051   c6.112,1.445,12.28,2.652,18.5,3.555c31.9,4.632,83.391,5.641,105.459-22.895c1.155-1.493,0.041-3.39-1.307-3.674   c-15.945-23.904-21.293-51.097-27.309-78.76c-4.381-20.145-8.546-41.999-22.156-58.024c0.879,0.112,1.77,0.267,2.68,0.48   c3.096,0.724,6.132,1.91,8.832,3.596c1.877,1.173,3.221,2.868,5.427,3.187c0.326,0.047,0.581-0.034,0.797-0.167   c0.549,0.477,1.441,0.483,1.943-0.256c4.386-6.462,6.326-12.395,14.036-15.987c5.9-2.749,12.134-1.078,17.961-2.807   c0.852,1.264,3.338,0.861,3.156-0.924c-0.781-7.63-1.401-14.929-0.264-22.567C225.008,23.516,227.403,17.832,229.175,11.89z    M103.262,25.724c3.909,0.499,7.826,1.112,11.762,1.3c0.633,0.03,0.793-1.009,0.152-1.123c-3.474-0.621-7.004-0.912-10.521-1.241   c2.004-1.447,4.106-2.628,6.256-3.595c3.591-0.049,7.135,0.22,10.707,0.7c0.788,0.106,1.164-1.064,0.34-1.232   c-2.551-0.517-5.13-0.727-7.716-0.757c11.647-3.804,24.274-0.674,32.3,10.655c-1.52,0.705-3.131,1.285-4.886,1.619   c-3.258-4.572-8.327-7.6-14.266-6.571c-0.291,0.05-0.493,0.198-0.65,0.378c-5.666,0.853-10.986,4.419-14.144,9.298   c-1.792-1.18-3.608-2.223-5.311-3.508c1.897,0.22,3.821,0.438,5.68,0.339c0.572-0.03,0.76-0.918,0.142-1.048   c-2.394-0.503-4.951-0.51-7.415-0.634c-0.5-0.471-1-0.941-1.459-1.508c-0.649-0.8-1.2-1.644-1.719-2.502   C102.759,26.092,103.016,25.92,103.262,25.724z M119.078,42.266c-1.956-0.068-3.922-0.012-5.883,0.033   c0.07-0.408,0.072-0.815,0.182-1.221c0.26-0.961,0.631-1.872,1.059-2.752c0.225-0.204,0.36-0.468,0.422-0.76   c0.049-0.089,0.127-0.158,0.177-0.245c2.93,0.076,5.867,0.174,8.788,0.036c0.797-0.037,0.798-1.201,0-1.239   c-2.637-0.123-5.285-0.055-7.931,0.016c0.922-1.32,2.062-2.465,3.286-3.519c4.702,0.068,9.436,0.299,14.134,0.074   c0.895-0.043,0.896-1.349,0-1.391c-4.168-0.199-8.361-0.045-12.539,0.041c2.179-1.52,4.634-2.644,7.231-3.184   c12.871-0.29,16.408,14.092,11.572,23.281c-0.523,0.193-0.797,0.783-0.706,1.325c-2.68,4.098-7.244,6.805-13.609,5.989   c-7.391-0.948-12.868-8.038-12.225-15.377c2.014,0.046,4.033,0.107,6.043,0.036C119.813,43.384,119.814,42.292,119.078,42.266z    M70.218,4.371c-1.313,6.34,1.298,13.357,6.982,16.853c6.016,3.7,14.965,2.994,19.814-2.277c0.349,4.297,2.027,8.364,4.688,11.807   c2.162,2.797,5.628,6.135,9.32,7.381c-0.35,0.832-0.653,1.683-0.873,2.561c-31.48-3.018-57.776-13.447-80.574-34.754   C42.86,10.413,58.49,12.747,70.218,4.371z M44.765,58.891c0.77-3.072,1.088-6.223,1.166-9.389c2.536,0.42,5.129,0.316,7.585-0.582   c0.644-0.235,0.383-1.109-0.279-1.011c-2.468,0.366-4.847,0.512-7.251,0.233c-0.01-2.019-0.193-4.042-0.452-6.06   c1.926,0.096,3.87,0.206,5.767,0.011c0.783-0.081,0.785-1.139,0-1.22c-1.952-0.201-3.955-0.08-5.936,0.018   c-0.377-2.487-0.939-4.958-1.655-7.393c1.941-0.11,3.884-0.243,5.765-0.606c0.765-0.148,0.582-1.363-0.182-1.348   c-1.99,0.038-4.001,0.34-6.002,0.654c-0.84-2.631-1.908-5.192-3.098-7.694c0.995,0.005,1.99-0.002,2.975-0.091   c0.71-0.064,0.712-1.041,0-1.106c-1.183-0.107-2.379-0.116-3.575-0.099c-1.605-3.183-3.466-6.231-5.579-9.057   c20.897,18.047,48.162,28.915,75.896,28.052c-0.668,4.449,0.611,8.924,3.113,12.533c-1.391,0.776-2.639,2.13-3.38,3.425   c-7.222-7.356-21.268-2.195-27.073,4.852C74.376,53.379,54.852,50.673,44.765,58.891z M62.9,248.82   c-3.748-0.721-7.396-2.048-10.578-4.018c2.142,0.263,4.287,0.503,6.431,0.64c0.654,0.042,0.82-1.063,0.157-1.161   c-2.858-0.42-5.749-0.675-8.64-0.912c-2.277-1.764-4.199-3.947-5.595-6.589c5.59,0.494,11.194,1.026,16.793,1.165   c0.762,0.019,0.729-1.087,0-1.163c-5.729-0.597-11.511-0.787-17.276-1.024c-0.151-0.334-0.334-0.641-0.468-0.99   c-0.991-2.578-1.301-5.114-1.222-7.617c3.4-0.015,6.721,0.341,10.13,0.76c0.638,0.078,0.78-0.994,0.152-1.123   c-3.344-0.688-6.815-0.717-10.228-0.464c0.151-2.163,0.674-4.289,1.317-6.398c4.964-0.341,9.901-0.227,14.881-0.163   c0.851,0.011,0.811-1.21,0-1.296c-4.854-0.517-9.727-0.191-14.557,0.418c1.134-3.398,2.648-6.736,4.144-9.995   c0.015-0.032-0.006-0.056,0.006-0.087c4.655,1.829,9.108,3.346,12.398,4.71c10.431,4.324,21.169,7.913,32.113,10.686   C87.513,238.123,80.612,252.228,62.9,248.82z M215.919,204.198c-20.758,24.172-65.2,24.419-94.289,21.27   c-15.828-1.714-31.427-5.376-46.494-10.477c-7.143-2.419-19.429-5.912-29.978-10.784c4.966,0.755,9.967,1.616,14.957,1.927   c0.73,0.045,0.91-1.162,0.175-1.292c-5.826-1.027-11.85-1.306-17.735-1.886c-5.458-2.731-10.167-5.884-13.24-9.474   c7.319,0.524,14.659,1.072,21.986,1.043c0.714-0.003,0.681-1.014,0-1.087c-7.597-0.809-15.269-1.001-22.914-1.242   c0.159-0.065,0.319-0.128,0.469-0.251c3.368-2.744,6.371-5.757,9.212-8.886c7.795,0.125,15.624,0.503,23.399,0.047   c0.833-0.049,0.835-1.247,0-1.296c-7.41-0.434-14.869-0.112-22.302,0.03c2.817-3.221,5.323-6.661,7.664-10.215   c5.105,0.048,10.212,0.149,15.316,0.045c0.944-0.019,0.946-1.449,0-1.468c-4.792-0.098-9.586-0.015-14.379,0.035   c2.202-3.467,4.172-7.089,5.991-10.806c4.163-0.14,8.33,0.076,12.46,0.622c0.75,0.099,0.929-1.194,0.18-1.329   c-3.981-0.721-7.914-0.914-11.923-0.719c2.323-4.906,4.322-10.012,6.1-15.237c4.585,0.279,9.175,0.581,13.764,0.544   c0.91-0.007,0.878-1.311,0-1.391c-4.404-0.405-8.834-0.498-13.26-0.599c1.468-4.446,2.716-9.003,3.878-13.595   c2.987,0.052,5.966-0.144,8.895-0.839c0.716-0.17,0.583-1.383-0.177-1.311c-2.791,0.265-5.557,0.518-8.336,0.615   c1.11-4.515,2.074-9.082,2.965-13.663c6.505,0.894,13.041,1.213,19.619,0.557c1.052-0.105,1.097-1.72,0-1.677   c-6.481,0.253-12.894,0.213-19.312-0.414c1.58-8.307,2.869-16.656,4.055-24.859c8.307-0.836,16.732-1.143,24.941-2.486   c0.935-0.153,0.658-1.556-0.215-1.591c-8.07-0.325-16.369,0.89-24.437,2.039c0.625-4.363,1.229-8.661,1.834-12.909   c4.816,0.219,9.648,0.535,14.466,0.465c1.263-0.018,1.238-1.856,0-1.944c-4.717-0.336-9.468-0.303-14.2-0.352   c0.335-2.332,0.668-4.682,1.011-6.958c1.679,1.021,3.352,2.128,5.103,3.283c0.36,0.238,0.771,0.231,1.146,0.098   c0.414,0.193,0.905,0.181,1.261-0.234c1.548-1.807,3.283-3.286,5.202-4.442c3.103,0.107,6.188,0.196,9.289,0.004   c0.833-0.052,0.835-1.245,0-1.296c-2.16-0.133-4.313-0.116-6.469-0.066c1.338-0.523,2.732-0.948,4.243-1.163   c4.866-0.691,8.372,1.176,12.928,2.136c0.246,0.052,0.455-0.007,0.661-0.066c0.567,0.391,1.536,0.264,1.888-0.581   c0.526-1.261,1.587-2.269,2.899-2.671c0.31-0.095,0.605-0.138,0.896-0.172c2.643,2.656,6.052,4.527,9.916,4.934   c6.646,0.701,12.945-2.37,16.771-7.381c0.375,0.153,0.752,0.313,1.125,0.508c1.406,0.733,2.695,1.686,3.818,2.803   c2.156,2.145,3.471,4.693,4.247,7.556c-0.487,0.964,0.265,2.373,1.538,1.984c4.895-1.497,9.418-2.7,14.255-2.59   C195.177,106.36,187.086,162.427,215.919,204.198z M220.496,50.833c-8.143,0.108-14.863-1.202-22.393,3.655   c-5.026,3.242-10.852,9.26-11.258,15.621c-0.072-0.005-0.139,0.026-0.21,0.039c0.126-0.535-0.309-1.009-1.402-1.413   c-0.523-0.408-1.045-0.817-1.568-1.225c-1.172-0.864-2.419-1.628-3.708-2.305c-3.076-1.616-6.427-2.652-9.857-3.177   c-5.704-0.873-12.104-0.365-17.293,2.348c-0.401-2.122-1.215-4.147-2.37-5.971c1.748,0.037,3.497,0.049,5.24-0.045   c0.784-0.042,0.786-1.177,0-1.22c-2.051-0.111-4.111-0.077-6.167-0.021c-0.18-0.233-0.336-0.481-0.528-0.705   c-1.31-1.527-3.305-3.375-5.454-4.383c0.152-0.294,0.274-0.605,0.411-0.907c3.457,0.285,6.943,0.601,10.382,0.51   c0.857-0.023,0.806-1.195,0-1.296c-3.238-0.408-6.553-0.456-9.846-0.512c0.626-1.722,1.016-3.55,1.066-5.466   c0.013-0.487-0.009-0.978-0.036-1.47c26.335,4.74,57.537,1.973,75.283-17.891C218.747,33.648,218.825,43.145,220.496,50.833z    M145.327,41.159c-0.187-1.274-0.545-2.527-0.975-3.76c4.447,0.051,8.92,0.216,13.358-0.013c0.834-0.043,0.835-1.253,0-1.296   c-4.608-0.237-9.255-0.049-13.87-0.005c-0.119-0.282-0.202-0.578-0.332-0.854c3.391-0.63,6.533-2.269,9.148-4.517   c4.213,0.196,8.627,0.223,12.661-0.889c0.627-0.173,0.509-1.15-0.154-1.142c-3.655,0.045-7.261,0.451-10.903,0.568   c1.306-1.385,2.387-2.963,3.247-4.646c2.329,0.062,4.66,0.112,6.981-0.077c0.857-0.07,0.859-1.265,0-1.334   c-2.101-0.171-4.21-0.143-6.319-0.092c0.639-1.577,1.116-3.219,1.274-4.928c9.928,8.117,29.161,6.231,30.439-7.872   c3.023,5.439,9.435,8.604,15.64,9.131c7.322,0.622,14.149-2.277,19.663-6.823C208.609,40.549,176.164,44.53,145.327,41.159z"></path><path d="M131.939,49.42c-1.502-0.13-2.957-0.011-4.412-0.495c-0.003-0.001-0.014-0.007-0.014-0.007   c0.751-0.55,1.596-1.007,2.616-1.244c0.957-0.222,0.539-1.614-0.4-1.452c-1.403,0.242-2.648,0.975-3.628,1.977   c-0.932-0.523-2.005-1.196-2.386-1.67c0.151-0.139,0.265-0.322,0.23-0.58c-0.011-0.081-0.022-0.161-0.033-0.242   c-0.032-0.23-0.259-0.379-0.453-0.453c-0.308-0.117-0.394-0.138-0.715-0.103c-0.326,0.035-0.695,0.219-0.763,0.581   c-0.33,1.745,1.411,3.239,2.865,4.156c-0.616,1.157-0.93,2.473-0.812,3.796c0.049,0.548,0.818,0.555,0.858,0   c0.09-1.236,0.52-2.271,1.113-3.178c1.884,0.932,4.217,1.49,6.173,0.674C133.1,50.795,132.992,49.512,131.939,49.42z"></path><path d="M79.961,97.022c-2.515-0.467-5.095-0.559-7.642-0.755c-0.931-0.071-0.892,1.322,0,1.43c2.471,0.3,4.957,0.714,7.449,0.748   C80.564,98.456,80.781,97.174,79.961,97.022z"></path><path d="M63.508,12.181c-7.423-0.93-14.847-1.778-22.213-3.106c-0.869-0.157-1.254,1.151-0.37,1.342   c7.459,1.608,14.953,2.881,22.583,3.251C64.486,13.715,64.43,12.297,63.508,12.181z"></path></g><g></g><g></g><g></g><g></g><g></g><g></g><g></g><g></g><g></g><g></g><g></g><g></g><g></g><g></g><g></g></svg>