<svg xmlns="http://www.w3.org/2000/svg" xmlns:xlink="http://www.w3.org/1999/xlink" fill="currentColor" version="1.1" id="Capa_1" viewBox="0 0 276.173 276.173" xml:space="preserve"><g><path d="M190.618,230.47c-0.027-2.779-1.336-5.739-2.752-8.002c-1.412-2.256-3.766-5.53-6.541-6.184   c0.012-0.013,0.026-0.025,0.038-0.039c0.77-0.845-0.242-2.37-1.282-1.661c-3.978,2.709-7.851,5.575-11.697,8.485   c-0.253-2.6-1.489-5.042-3.226-7.143c0.471-0.066,0.92-0.345,1.129-0.916c4.02-11.012,0.217-22.989-6.154-32.305   c-0.678-0.992-1.987-0.749-2.41,0.315c-0.991,2.493-2.158,4.861-3.338,7.245c-0.405-15.288-16.302-26.117-28.561-32.179   c-1.199-0.593-2.504,0.615-1.845,1.845c2.028,3.786,10.836,19.76,5.566,24.401c-1.035-3.01-1.988-5.624-2.135-8.931   c-0.041-0.925-1.168-1.839-2.051-1.177c-6.731,5.051-16.963,15.646-14.403,25.103c-0.743-0.71-1.534-1.369-2.165-2.236   c-1.127-1.55-1.708-3.349-1.842-5.245c-0.072-1.015-1.604-1.686-2.118-0.574c-1.825,3.953-2.479,8.412-1.273,12.574   c-0.005,0.1,0.019,0.184,0.065,0.271c0.189,0.609,0.419,1.211,0.691,1.803c0.003,0.006,0.009,0.005,0.012,0.011   c-4.938,1.06-10.201,5.062-12.319,8.466c-0.419,0.674-0.168,1.291,0.309,1.648c-0.257,0.348-0.323,0.804,0.007,1.238   c4.648,6.117,10.161,12.18,15.947,17.467c-8.577-3.178-17.303-5.99-25.785-8.505c-0.239-0.581-0.885-0.901-1.557-0.467   c-0.037-0.011-0.073-0.022-0.11-0.033c-0.36-0.106-0.639,0.279-0.579,0.581c-4.962,4.388-9.638,11.451-6.158,17.988   c0.141,0.264,0.365,0.335,0.593,0.335c0.032,0.014,0.035,0.048,0.07,0.059c18.018,5.654,36.166,11.35,54.448,16.082   c0.486,0.126,0.831-0.069,1.081-0.349c0.111,0.093,0.223,0.19,0.357,0.236c2.373,0.821,4.663-1.411,5.782-3.485   c0.186,0.241,0.451,0.414,0.795,0.293c18.311-6.435,36.776-14.856,53.415-24.841C191.605,232.054,191.343,230.938,190.618,230.47z    M166.142,223.991c-1.093-0.164-2.088-0.304-3.08-1.007c-1.264-0.897-2.229-2.208-3.056-3.5c-1.318-2.061-2.188-4.388-2.829-6.752   c0.255-0.285,0.34-0.598,0.314-0.896c2.395,1.221,4.488,3.001,6.028,5.232C165.062,219.301,165.545,221.563,166.142,223.991z    M135.349,166.721c-1.735-0.101-3.487-0.031-5.228,0.085c-0.632-1.589-1.289-3.093-1.909-4.403   C130.659,163.729,133.053,165.158,135.349,166.721z M105.544,195.961c1.004,2.783,2.873,5.387,5.66,5.723   c0.39,0.047,0.683-0.261,0.797-0.618c0.275-0.006,0.53-0.181,0.535-0.557c0.023-1.6,0.253-3.133,0.57-4.634   c1.885,0.047,3.769,0.106,5.655,0.073c0.772-0.013,0.774-1.187,0-1.201c-1.806-0.031-3.611,0.026-5.416,0.07   c0.331-1.284,0.788-2.517,1.305-3.724c0,0,0.002,0.001,0.004,0.001c2.232-0.247,4.404-0.252,6.643-0.12   c0.738,0.043,0.928-1.207,0.177-1.311c-2.131-0.292-4.25-0.146-6.345,0.306c0.858-1.778,1.951-3.437,3.148-5.032   c1.519,0.027,3.032,0.038,4.549-0.154c0.795-0.1,0.796-1.139,0-1.239c-1.122-0.142-2.242-0.172-3.363-0.17   c1.627-1.931,3.462-3.718,5.445-5.338c0.363,2.76,1.217,5.31,2.967,7.6c-0.071,0.407,0.189,0.851,0.729,0.713   c0.183-0.047,0.313-0.138,0.484-0.195c0.085-0.032,0.164-0.045,0.239-0.096c3.428-1.295,4.221-4.771,3.752-8.87   c1.666,0.095,3.342,0.169,4.997,0.057c0.906-0.061,0.908-1.349,0-1.411c-1.712-0.116-3.447-0.035-5.171,0.066   c-0.206-1.209-0.513-2.456-0.876-3.705c0.994,0.177,1.989,0.349,2.991,0.434c0.702,0.059,0.863-1.098,0.167-1.236   c-1.177-0.232-2.378-0.342-3.574-0.466c-0.318-0.991-0.671-1.966-1.033-2.926c1.651,0.1,3.311,0.163,4.953,0.056   c0.51-0.033,0.68-0.467,0.583-0.834c2.505,1.763,4.862,3.724,6.968,5.982c5.428,5.823,7.592,12.248,9.004,19.907   c0.241,1.309,2.003,0.905,2.203-0.216c0.135-0.016,0.271-0.065,0.387-0.208c1.685-2.089,3.05-4.334,4.334-6.658   c5.072,8.795,7.56,18.085,4.624,28.251v0.006c-2.272-2.15-5.061-3.746-7.765-4.467c-0.045-3.231-0.738-6.462-1.884-9.463   c-0.338-0.883-1.582-1.201-2.109-0.276c-1.187,2.086-2.727,3.991-4.197,5.913c0.096-8.11-3.589-16.512-7.873-23.174   c-0.617-0.959-2.477-0.691-2.343,0.635c0.885,8.698-0.491,17.201-3.978,25.196c-2.547-1.926-4.911-3.847-6.832-6.523   c-0.516-0.72-1.705-0.505-1.722,0.467c-0.074,4.122,0.675,8.12,2.264,11.875c-0.913-0.542-1.868-1.036-2.714-1.63   c-2.113-1.482-3.917-3.201-5.237-5.433c-0.297-0.502-1.266-0.487-1.365,0.178c-0.588,4.006-0.1,7.855,1.44,11.477   c-2.007-3.131-4.013-6.261-6.072-9.353c-0.305-0.599-0.645-1.125-1.022-1.578c-0.066-0.098-0.127-0.199-0.192-0.297   c-0.034-0.051-0.088-0.05-0.129-0.087c-1.683-1.764-3.94-2.293-6.35-2.025c0.038-0.113,0.088-0.223,0.061-0.352   c-0.076-0.37-0.119-0.733-0.181-1.1c2.912-0.194,5.816-0.323,8.742-0.289c0.607,0.007,0.565-0.841,0-0.915   c-2.973-0.387-5.964-0.344-8.92,0.126C104.944,200.725,104.979,198.325,105.544,195.961z M121.272,220.995   c-1.739-3.522-2.444-7.308-2.12-11.166c1.048,1.426,2.232,2.724,3.674,3.826c1.716,1.31,3.829,2.988,5.966,3.448   c0.582,0.125,1.007-0.555,0.584-1.003c-0.168-0.178-0.37-0.321-0.557-0.48c-1.244-3.377-1.955-6.804-2.047-10.355   c2.044,2.43,4.484,4.53,7.462,5.693c0.829,0.324,1.157-0.876,0.559-1.324c-0.034-0.025-0.066-0.05-0.1-0.075   c3.434-6.669,5.217-13.704,5.391-21.063c2.902,5.976,4.167,12.045,5.624,18.815c0.131,0.608,0.648,0.787,1.126,0.679   c0.237,0.226,0.614,0.317,0.874,0.031c1.539-1.699,3.035-3.498,4.643-5.156c0.81,2.859,1.126,5.723,1.133,8.761   c0.001,0.306,0.141,0.502,0.284,0.685c-8.311,7.49-16.194,15.419-23.893,23.533c-0.275-0.444-0.548-0.89-0.823-1.335   c0.01-0.058-0.024-0.082-0.073-0.118c-2.635-4.265-5.29-8.518-7.978-12.749C121.239,221.551,121.42,221.296,121.272,220.995z    M101.159,209.658c3.132-1.459,8.176-2.191,9.867,1.695c2.115,4.862-4.897,5.763-8.08,5.809c-2.941,0.042-5.714-0.627-8.429-1.655   C96.266,213.04,98.383,210.951,101.159,209.658z M96.734,218.376c2.177,0.724,4.476,1.117,6.77,1.158   c3.164,5.264,7.06,10.488,11.854,14.284c0.624,0.493,1.446-0.275,0.89-0.89c-3.996-4.417-7.93-8.646-11.411-13.446   c1.525-0.075,3.041-0.265,4.496-0.722c0.287-0.09,0.524-0.239,0.791-0.354c4.768,6.168,9.3,12.586,14.352,18.514   c0.452,0.53,1.317-0.155,0.958-0.739c-4.007-6.519-9.129-12.557-14.203-18.313c1.532-0.974,2.567-2.408,2.826-4.104   c6.313,10.781,12.894,21.437,19.581,31.976c-6.928-3.553-14.315-6.704-21.838-9.6C107.258,229.998,102.061,223.945,96.734,218.376z    M128.558,255.66c-0.065,0.641-0.034,1.621,0.178,2.516c-17.577-5.559-35.522-10.301-53.345-14.996   c-1.187-6.639,3.17-10.883,6.945-15.752c16.404,7.286,33.745,14.726,50.857,19.878C130.919,249.414,128.876,252.549,128.558,255.66   z M134.401,254.594c-0.675,2.136-2.193,2.704-3.73,3.788c-0.131-0.581-0.091-2.661-0.012-3.039c0.215-1.041,0.683-2.007,1.213-2.92   c0.723-1.246,1.61-2.373,2.425-3.552C134.731,250.769,134.969,252.798,134.401,254.594z M135.67,247.566l-0.001,0.002   c-0.173-0.313-0.359-0.618-0.546-0.923c0.541-0.181,0.956-0.723,0.572-1.357c-1.643-2.707-3.319-5.402-4.99-8.099   c8.334-7.732,16.783-15.343,25.072-23.124c0.116,0.778,0.28,1.543,0.482,2.297c-0.04,0.026-0.089,0.016-0.124,0.056   c-4.096,4.625-8.835,8.403-13.149,12.771c-0.6,0.608,0.173,1.657,0.924,1.198c5.02-3.07,9.252-8.038,12.778-12.738   c0.565,1.635,1.38,3.174,2.405,4.61c-1.705,1.964-3.387,3.944-5.209,5.802c-1.833,1.868-4.242,3.503-5.651,5.714   c-0.468,0.736,0.427,1.433,1.109,1.108c2.459-1.173,4.414-3.783,6.185-5.795c1.586-1.802,3.075-3.685,4.437-5.66   c1.079,1.229,2.581,2.488,4.164,2.885C154.752,233.528,145.499,240.944,135.67,247.566z M136.956,255.8   c0.717-2.278,0.375-4.526-0.519-6.633c0.055-0.02,0.1,0.012,0.156-0.021c15.096-8.696,31.956-19.232,43.99-32.106   c1.013,1.786,2.724,3.183,4.09,4.817c-0.025,0.008-0.049-0.005-0.073,0.008c-9.161,4.648-17.595,11.498-26.343,16.936   c-0.292,0.182-0.034,0.622,0.27,0.461c8.977-4.769,19.159-9.681,26.732-16.544c0.015-0.014,0.009-0.031,0.022-0.045   c0.132,0.187,0.292,0.356,0.41,0.552c1.477,2.449,1.872,5.016,2.774,7.568C171.241,238.941,154.072,247.421,136.956,255.8z"></path><path d="M87.242,240.131c-3.822-0.31-7.466-1.177-11.1-2.372c-0.302-0.099-0.52,0.394-0.22,0.523   c3.615,1.549,7.417,2.411,11.321,2.821C87.859,241.168,87.866,240.182,87.242,240.131z"></path><path d="M122.41,247.86c-12.707-4.624-25.966-8.122-39.067-11.438c-0.476-0.12-0.675,0.599-0.202,0.735   c13.037,3.753,25.948,8,39.006,11.658C122.769,248.99,123.002,248.075,122.41,247.86z"></path><path d="M122.052,251.343c-4.943-2.164-10.085-3.58-15.407-4.45c-0.406-0.066-0.585,0.548-0.172,0.625   c5.265,0.982,10.296,2.58,15.249,4.609C122.168,252.309,122.497,251.537,122.052,251.343z"></path><path d="M183.912,225.636c-1.514,0.884-2.792,2.147-4.266,3.111c-1.466,0.958-2.99,1.845-4.548,2.649   c-0.439,0.226-0.137,0.955,0.338,0.801c3.252-1.055,7.172-2.642,9.48-5.258C185.523,226.253,184.758,225.142,183.912,225.636z"></path><path d="M262.11,114.019c-0.039-0.673-0.494-0.995-0.985-1.078c-0.315-0.584-0.848-1.061-1.661-1.155   c-17.289-2.018-34.661-3.883-52.078-5.567c8.603-33.075,15.557-66.617,22.92-99.984c0.041-0.184,0.013-0.342,0.009-0.51   c1.449-0.746,2.084-2.841,0.296-3.814c-6.757-3.676-17.996-0.915-25.644-0.916c-16.898-0.002-33.797-0.004-50.696-0.007   c-32.355-0.007-65.22-1.616-97.492,0.802c-1.08,0.081-1.409,1.025-1.149,1.782c-0.212,0.295-0.352,0.66-0.3,1.153   c3.035,28.948,5.909,58.046,10.126,86.867c-0.136-0.03-0.266-0.038-0.403-0.072c-0.785-0.199-1.118,1.003-0.335,1.213   c0.303,0.081,0.618,0.133,0.927,0.202c0.262,1.774,0.478,3.557,0.752,5.328c-16.293-0.117-32.57,0.008-48.798,0.617   c-0.882,0.033-1.327,0.693-1.346,1.364c-0.125,0.152-0.251,0.309-0.281,0.551c-6.516,53.692-1.684,110.865,1.222,164.732   c0.053,0.981,0.707,1.548,1.455,1.738c0.145,0.223,0.342,0.418,0.645,0.501c9.462,2.59,21.6,4.415,31.251,2.207   c0.679-0.155,1.014-0.577,1.099-1.058c0.331-0.325,0.558-0.774,0.553-1.38c-0.389-43.006,2.732-85.789,4.446-128.635   c55.182,1.66,110.213,2.555,165.336,6.091c0.035,42.362,2.1,85.321,5.167,127.122c0.029,0.39,0.181,0.686,0.375,0.936   c-0.065,0.09-0.134,0.181-0.158,0.275c-0.024,0.094-0.048,0.188-0.072,0.282c-0.178,0.706,0.229,1.346,0.896,1.578   c4.327,1.508,10.236,0.86,14.764,0.788c5.51-0.088,11.114-0.243,16.549-1.193c0.574-0.1,0.906-0.455,1.073-0.887   c0.624-0.306,1.111-0.883,1.118-1.788C262.127,219.635,265.138,166.41,262.11,114.019z M34.824,266.483   c-4.627-0.225-9.226-0.687-13.84-1.055c-0.106-1.955-0.155-3.913-0.245-5.869c5.062-0.18,10.146-0.344,15.171-0.952   c0.769-0.093,0.821-1.234,0-1.239c-5.078-0.035-10.163,0.387-15.229,0.786c-0.108-2.454-0.18-4.91-0.271-7.365   c2.624,0.044,5.248,0.094,7.869-0.017c0.674-0.029,0.675-1.02,0-1.048c-2.635-0.111-5.272-0.06-7.909-0.016   c-0.09-2.497-0.122-4.999-0.197-7.498c5.406,0.073,10.694,0.702,16.096,1.444c0.646,0.089,0.955-0.85,0.279-1.011   c-5.346-1.275-10.903-1.525-16.398-1.332c-0.069-2.352-0.119-4.705-0.185-7.057c2.77,0.171,5.539,0.348,8.312,0.389   c0.795,0.012,0.772-1.155,0-1.22c-2.775-0.233-5.561-0.331-8.345-0.433c-0.043-1.627-0.106-3.253-0.128-4.881   c9.014,0.769,18.724,1.355,27.628-0.052c0.223-0.035,0.322-0.184,0.464-0.296c0.012,13.076,0.133,26.093,0.238,38.98   C43.735,266.4,39.221,266.696,34.824,266.483z M47.901,225.834c-0.213-0.204-0.484-0.354-0.82-0.362   c-9.066-0.202-18.197,0.603-27.301,0.55c-0.028-2.295-0.006-4.593-0.024-6.889c6.601-0.227,13.113,0.205,19.7,0.968   c0.91,0.105,1.128-1.455,0.218-1.61c-6.596-1.119-13.264-1.231-19.922-0.793c-0.018-2.517-0.013-5.035-0.026-7.552   c2.916,0.117,5.816,0.059,8.719-0.401c0.599-0.095,0.466-1.129-0.144-1.067c-2.859,0.288-5.715,0.391-8.579,0.33   c-0.012-2.279-0.012-4.558-0.024-6.837c3.37,0.015,6.738,0.057,10.107-0.037c0.883-0.025,0.885-1.348,0-1.372   c-3.37-0.095-6.741-0.052-10.112-0.037c-0.018-3.705-0.045-7.41-0.039-11.115c3.959,0.604,8.108,0.116,12.104,0.078   c5.11-0.049,10.226,0.201,15.333,0.077c0.553-0.013,0.947-0.245,1.205-0.57C47.99,201.421,47.9,213.651,47.901,225.834z    M48.332,187.233c-0.254-0.373-0.657-0.656-1.244-0.691c-5.09-0.304-10.241-0.056-15.333,0.178   c-4.011,0.184-8.225,0.104-12.101,1.203c0.006-3.313-0.002-6.625,0.002-9.937c2.362,0.019,4.74,0.122,7.098-0.048   c0.49-0.036,0.491-0.727,0-0.762c-2.357-0.17-4.735-0.068-7.098-0.048c0.002-2.382-0.01-4.761-0.01-7.142   c4.24-0.001,8.474-0.021,12.708-0.291c0.704-0.045,0.719-1.111,0-1.105c-4.246,0.03-8.476,0.31-12.709,0.61   c-0.001-2.892-0.018-5.781-0.027-8.672c0.002-0.005,0.007-0.008,0.009-0.013c0.021-0.054,0.041-0.108,0.061-0.162   c0.021-0.056-0.005-0.1-0.009-0.151c1.468,0.166,4.596,0.295,5.024,0.298c1.768,0.011,3.518,0.033,5.274-0.209   c0.814-0.113,0.512-1.256-0.18-1.329c-2.384-0.253-4.828-0.06-7.217,0.067c-0.874,0.047-2.025-0.061-2.966,0.199   c-0.01-2.602-0.059-5.2-0.078-7.801c3.875,0.073,7.733,0.401,11.565,1.029c1.082,0.177,1.569-1.446,0.462-1.673   c-4.013-0.823-7.99-1.088-12.043-0.977c-0.033-4.06-0.043-8.123-0.122-12.177c10.542,0.421,21.075,0.779,31.604,1.107   C49.57,154.801,48.765,171.009,48.332,187.233z M51.464,133.725c-10.739,0.305-21.453,0.776-32.127,1.472   c-0.039-1.789-0.109-3.575-0.155-5.363c4.221-0.219,8.419-0.229,12.653-0.21c1.108,0.005,1.071-1.6,0-1.697   c-4.22-0.378-8.494-0.13-12.697,0.428c-0.066-2.46-0.161-4.917-0.243-7.376c3.809,0.034,7.611,0.104,11.416-0.111   c0.968-0.054,0.97-1.451,0-1.506c-3.823-0.215-7.645-0.144-11.473-0.11c-0.206-5.859-0.45-11.715-0.819-17.558   c12.473,0.372,24.925,0.756,37.369,1.156C53.764,113.053,52.475,123.355,51.464,133.725z M205.215,106.016   c-4.576-0.438-9.167-0.796-13.749-1.205c-0.103-7.956-0.808-15.944-1.912-23.831c6.823,0.043,13.653,0.097,20.464,0.126   C208.342,89.396,206.714,97.696,205.215,106.016z M210.88,76.828c-0.375-0.054-0.752-0.108-1.127-0.163   c-0.438-0.063-0.801,0.014-1.122,0.144c-14.52-0.463-29.076-0.877-43.641-1.241c0.221-10.767-0.641-22.433-2.381-33.044   c-0.003-0.016-0.019-0.018-0.022-0.033c18.629-0.249,37.237-0.54,55.747-0.549C215.778,53.556,213.27,65.182,210.88,76.828z    M136.284,100.633c-17.59-1.028-35.192-1.752-52.78-2.124c0.153-3.562-0.089-7.121-0.243-10.682   c-0.135-3.125-0.021-6.315-0.607-9.389c18.18,0.887,36.396,1.546,54.633,1.916c-0.87,4.395-0.646,9.114-0.796,13.583   C136.432,95.662,135.809,98.528,136.284,100.633z M104.993,74.733c-1.062-10.66-1.935-21.43-3.34-32.053   c19.522,0.24,39.098,0.1,58.659-0.157c-0.04,0.116-0.139,0.194-0.138,0.332c0.11,10.65,1.292,22.191,3.334,32.682   C144.007,75.057,124.489,74.757,104.993,74.733z M139.683,80.418c-0.001-0.005-0.005-0.008-0.007-0.013   c15.661,0.304,31.315,0.45,46.955,0.556c1.02,7.885,1.924,15.772,2.824,23.672c-16.923-1.493-33.872-2.843-50.846-3.86   C139.193,98.591,139.842,81.968,139.683,80.418z M197.832,4.568c9.992-0.744,20.768-1.363,28.596,0.684   c-2.369,10.811-4.771,21.623-7.161,32.441c-0.123-0.023-0.222-0.077-0.36-0.08c-7.056-0.162-14.142-0.335-21.247-0.5   C198.68,26.48,199.376,15.171,197.832,4.568z M142.573,5.439c12.999,0.018,25.998,0.037,38.997,0.056   c3.947,0.006,8.716-0.355,13.741-0.737c-0.187,10.767,0.534,21.512,0.146,32.307c-20.8-0.478-41.764-0.882-62.695-0.774   c0.324-10.072,0.131-20.975-2.168-30.794C134.591,5.467,138.588,5.433,142.573,5.439z M77.73,5.503   c16.7,0.457,33.481,0.157,50.186,0.009c0.647,10.277,2.139,20.466,2.683,30.781c-17.828,0.123-35.623,0.63-53.259,1.797   C77.902,27.369,78.541,16.195,77.73,5.503z M62.403,32.324c2.354,0.037,4.692,0.034,7.05-0.104c0.711-0.042,0.712-1.064,0-1.106   c-2.409-0.141-4.796-0.143-7.202-0.103c-0.279-2.413-0.56-4.82-0.839-7.233c2.005,0.025,4.003,0.049,6.008-0.105   c0.833-0.064,0.834-1.232,0-1.296c-2.062-0.158-4.118-0.13-6.182-0.103c-0.483-4.165-0.966-8.328-1.45-12.49   c1.358,0.006,2.715,0.032,4.074-0.038c1.226-0.064,1.228-1.843,0-1.906c-1.435-0.075-2.869-0.049-4.304-0.04   c-0.119-1.024-0.237-2.051-0.356-3.075c-0.004-0.03-0.021-0.05-0.026-0.08c5.289,0.369,10.594,0.598,15.907,0.77   c-0.875,10.762-0.274,22.023,0.24,32.822c-4.048,0.28-8.102,0.531-12.131,0.886C62.933,36.854,62.664,34.592,62.403,32.324z    M66.24,68.317c-0.226-2.32-0.49-4.638-0.721-6.958c3.525,0.093,7.018,0.203,10.541-0.003c0.919-0.054,0.921-1.376,0-1.43   c-3.567-0.209-7.105-0.094-10.675,0c-0.007,0-0.008,0.006-0.014,0.007c-0.279-2.786-0.582-5.57-0.865-8.356   c5.188,0.721,10.377,1.085,15.621,0.689c0.993-0.075,1.018-1.541,0-1.563c-5.284-0.115-10.549-0.309-15.803-0.877   c-0.282-2.743-0.543-5.487-0.852-8.228c11.789,0.59,23.629,0.871,35.485,1.042c0.478,10.688,2.102,21.589,4.031,32.091   c-12.029-0.002-24.05,0.078-36.046,0.363c-0.146-1.582-0.34-3.161-0.491-4.743c6.244,0.242,12.514,0.617,18.759,0.375   c1.192-0.046,1.161-1.726,0-1.83C78.914,68.334,72.56,68.397,66.24,68.317z M73.043,91.794c-1.636,0.111-3.175,0.213-4.725,0.154   c-0.153-2.018-0.328-4.035-0.484-6.052c1.72-0.153,3.439-0.218,5.177-0.214c0.841,0.002,0.827-1.244,0-1.296   c-1.781-0.112-3.527,0.075-5.269,0.358c-0.185-2.348-0.352-4.696-0.563-7.044c4.343,0.259,8.704,0.404,13.054,0.623   c-0.006,0.037-0.042,0.057-0.046,0.095c-0.582,6.263,0.608,13.862,1.986,20.07c-4.45-0.089-8.9-0.174-13.348-0.215   c-0.109-1.64-0.272-3.28-0.394-4.92c1.612,0.109,3.228-0.013,4.744-0.585C73.659,92.585,73.643,91.754,73.043,91.794z    M117.527,105.389c-1.151,9.061-2.109,19.261-1.492,28.511c-19.772-0.582-39.527-0.748-59.2-0.299   c0.379-10.219,0.679-20.442,0.805-30.675c20.009,0.649,39.985,1.381,59.943,2.286C117.569,105.274,117.536,105.322,117.527,105.389   z M117.974,133.946c1.881-9.123,2.346-19.407,2.45-28.557c0.001-0.019-0.008-0.031-0.008-0.05   c15.499,0.717,30.986,1.563,46.471,2.547c-0.001,0.007-0.003,0.011-0.003,0.017c-0.346,9.285,0.378,19.152,1.561,28.441   C151.637,135.305,134.8,134.465,117.974,133.946z M221.995,140.262c-17.099-1.414-34.273-2.712-51.48-3.795   c0.477-9.311,0.419-19.185-0.625-28.399c17.495,1.135,34.986,2.467,52.483,4.081C222.126,121.47,222.022,130.853,221.995,140.262z    M229.996,213.975c1.39,0.021,2.778,0.01,4.154-0.131c0.905-0.093,0.907-1.318,0-1.411c-1.39-0.142-2.793-0.153-4.197-0.13   c-0.037-1.662-0.091-3.325-0.128-4.987c2.033,0.1,4.078-0.021,6.036-0.603c0.659-0.196,0.573-1.336-0.17-1.254   c-1.993,0.218-3.933,0.369-5.905,0.357c-0.051-2.278-0.123-4.556-0.176-6.833c5.591-0.226,11.179-0.362,16.738-1.029   c0.746-0.089,0.795-1.196,0-1.201c-5.607-0.034-11.185,0.47-16.772,0.881c-0.073-3.069-0.13-6.137-0.237-9.206   c9.067,1.33,18.576,2.384,27.676,2.671c0.125,0.004,0.214-0.036,0.325-0.051c-0.023,10.454,0.01,20.91,0.065,31.357   c-5.063-0.459-10.284-0.135-15.357-0.081c-2.362,0.025-4.725,0.046-7.087,0.085c-0.999,0.017-3.009,0.382-4.734,0.516   C230.178,219.945,230.06,216.957,229.996,213.975z M257.449,271.489c-8.886,0.106-18.153,0.337-27.028,1.043   c0.033-0.136,0.082-0.259,0.083-0.419c0.017-2.591-0.003-5.209,0.003-7.808c3.928,0.039,7.856,0.08,11.777-0.155   c0.883-0.053,0.884-1.319,0-1.373c-3.921-0.235-7.849-0.194-11.776-0.155c0.005-3.662-0.061-7.364-0.073-11.037   c3.1,0.065,6.223,0.197,9.307-0.01c1.053-0.07,1.055-1.569,0-1.639c-3.088-0.207-6.214-0.075-9.318-0.01   c-0.012-3.334-0.052-6.681-0.065-10.015c4.307-0.311,8.582-0.216,12.934-0.138c0.688,0.012,0.884-1.139,0.167-1.236   c-4.355-0.587-8.762-0.349-13.109,0.251c-0.02-4.505-0.02-9-0.089-13.529c3.116,0.439,7.208-0.091,9.423-0.03   c5.848,0.162,11.885,0.679,17.733,0.226C257.498,240.838,257.578,256.197,257.449,271.489z M257.342,187.752   c-0.11-0.034-0.204-0.089-0.328-0.104c-9.039-1.097-18.603-1.508-27.749-1.56c-0.068-1.869-0.165-3.734-0.239-5.602   c2.373-0.431,4.738-0.596,7.157-0.661c0.948-0.026,0.94-1.416,0-1.468c-2.434-0.134-4.846,0.235-7.215,0.777   c-0.132-3.251-0.292-6.498-0.44-9.746c0.013,0.001,0.017,0.013,0.03,0.014c3.21,0.152,6.445,0.304,9.658,0.171   c0.846-0.035,0.847-1.28,0-1.315c-3.213-0.132-6.448,0.02-9.658,0.172c-0.032,0.001-0.044,0.027-0.073,0.033   c-0.153-3.296-0.364-6.577-0.536-9.869c3.595-0.22,7.172-0.107,10.772-0.169c0.698-0.012,0.921-1.172,0.173-1.273   c-3.658-0.493-7.355-0.238-11.012,0.194c-0.213-4.008-0.391-8.026-0.653-12.022c10.252,0.69,20.508,1.444,30.769,2.351   C257.559,161.007,257.392,174.376,257.342,187.752z M258.16,143.374c-10.378-0.931-20.805-1.831-31.253-2.709   c-0.655-9.481-1.389-18.929-2.26-28.309c11.601,1.086,23.205,2.25,34.815,3.603c0.056,0.006,0.092-0.016,0.146-0.013   C258.953,125.063,258.504,134.211,258.16,143.374z"></path><path d="M30.82,109.514c-3.542-0.448-7.11-0.47-10.675-0.577c-1.296-0.039-1.275,1.918,0,2.002   c3.557,0.233,7.109,0.554,10.675,0.443C32.056,111.344,31.983,109.661,30.82,109.514z"></path><path d="M68.944,14.111c-2.541-0.272-5.074-0.142-7.625-0.086c-1.116,0.025-1.118,1.71,0,1.735   c2.551,0.057,5.084,0.186,7.625-0.086C69.948,15.566,69.95,14.219,68.944,14.111z"></path></g><g></g><g></g><g></g><g></g><g></g><g></g><g></g><g></g><g></g><g></g><g></g><g></g><g></g><g></g><g></g></svg>