<svg xmlns="http://www.w3.org/2000/svg" xmlns:xlink="http://www.w3.org/1999/xlink" fill="currentColor" version="1.1" id="Capa_1" viewBox="0 0 239.354 239.354" xml:space="preserve"><g><path d="M215.407,62.372c-0.027-0.161-0.086-0.326-0.206-0.494c-12.122-17.053-35.553-3.662-53.903,10.216   c18.004-29.583,2.374-73.583-39.897-72.054c-24.615,0.89-44.968,15.45-49.263,40.51c-2.628,15.333,2.383,30.384,12.919,40.528   c-24.57-12.419-66.671-27.892-64.498,5.315c0.019,0.291,0.166,0.516,0.333,0.717c0.616,6.092,5.412,11.582,10.789,15.695   c12.033,9.205,38.963,15.263,44.426,31.032c-0.04,1.627,0.053,3.386,0.621,4.734c-5.643,23.751-16.842,45.502-21.88,69.245   c-2.764,13.026-1.318,25.814,13.003,29.613c0.312,0.083,0.573,0.045,0.805-0.038c6.796,2.458,14.677-0.904,20.043-6.737   c4.495-4.888,7.003-11.206,9.579-17.218c4.576-10.683,7.963-28.328,20.208-32.46c14.735,2.148,22.21,38.994,30.436,48.928   c6.721,8.116,18.237,13.493,27.214,5.553c0.379-0.336,0.447-0.742,0.343-1.109c8.529-6.319,10.842-15.787,9.043-26.988   c-4.23-26.33-23.596-46.052-22.5-73.952c0.299-0.258,0.516-0.629,0.55-1.123c1.462-20.832,39.292-29.189,50.33-45.001   C219.413,79.388,220.947,69.421,215.407,62.372z M36.243,102.746c-3.222-1.998-6.004-4.184-8.153-6.652   c1.343,0.085,2.685,0.153,4.033,0.137c0.512-0.006,0.486-0.723,0-0.777c-1.606-0.18-3.218-0.242-4.831-0.293   c-1.232-1.588-2.174-3.305-2.791-5.171c5.011,0.409,10.01,0.658,15.039,0.411c0.753-0.037,0.761-1.156,0-1.176   c-5.1-0.135-10.204-0.139-15.302-0.316c-0.36-1.426-0.585-2.913-0.523-4.532c0.213-0.741,0.459-1.433,0.716-2.105   c4.029,0.208,8.033,0.41,12.074,0.269c0.679-0.024,0.663-0.986,0-1.043c-3.867-0.333-7.72-0.348-11.592-0.348   c0.651-1.457,1.435-2.704,2.298-3.824c3.323-0.1,6.644-0.007,9.967-0.059c0.795-0.013,0.763-1.136,0-1.214   c-2.968-0.301-5.917-0.175-8.871,0.093c1.243-1.318,2.673-2.333,4.22-3.146c2.702-0.564,5.455-0.588,8.181-0.102   c0.828,0.147,1.196-1.083,0.353-1.28c-1.082-0.252-2.147-0.37-3.208-0.428c4.347-0.831,9.32-0.521,14.609,0.602   c-5.322,10.369-9.472,20.764-16.176,30.465C36.174,102.42,36.184,102.59,36.243,102.746z M36.953,103.17   c0.113-0.02,0.229-0.046,0.318-0.156c7.146-8.739,14.502-19.621,16.976-30.815c2.6,0.623,5.257,1.448,7.923,2.344   c-3.593,12.201-9.078,22.886-15.37,33.801C43.338,106.685,39.983,104.995,36.953,103.17z M64.281,232.583   c-0.623-0.441-1.169-0.93-1.698-1.431c1.868,0.073,3.736,0.166,5.61,0.155c0.816-0.005,0.791-1.183,0-1.252   c-2.309-0.199-4.618-0.291-6.931-0.363c-0.991-1.228-1.746-2.599-2.337-4.064c3.988,0.137,7.973,0.263,11.964,0.299   c0.832,0.007,0.827-1.255,0-1.289c-4.152-0.17-8.302-0.248-12.457-0.311c-0.425-1.342-0.679-2.777-0.844-4.258   c3.148,0.435,6.288,0.433,9.43-0.193c0.687-0.137,0.539-1.275-0.166-1.229c-3.151,0.205-6.267,0.204-9.404-0.054   c-0.099-1.726-0.066-3.516,0.106-5.364c6.891,0.513,13.297,2.311,19.718,4.829c3.146,1.233,6.354,2.466,9.183,4.344   c0.366,0.243,1.411,1.254,2.435,1.971C82.912,233.364,74.992,239.008,64.281,232.583z M90.422,221.917   c-2.3-2.75-7.535-4.374-10.284-5.444c-7.227-2.812-14.674-4.876-22.459-4.772c0.396-3.112,1.149-6.339,2.052-9.566   c13.168,0.35,23.986,4.286,34.849,11.701C93.314,216.603,91.943,219.354,90.422,221.917z M173.072,234.198   c-8.154,3.62-14.136,1.894-18.877-2.702c2.339,0.141,4.697,0.125,7.037,0.054c0.683-0.021,0.684-1.041,0-1.062   c-2.466-0.076-4.954-0.103-7.417,0.066c-0.18,0.012-0.287,0.106-0.359,0.221c-1.411-1.497-2.701-3.273-3.913-5.217   c4.632,0.276,9.298,0.069,13.875-0.682c0.668-0.11,0.52-1.259-0.161-1.192c-4.832,0.474-9.614,0.691-14.468,0.65   c-0.419-0.718-0.83-1.452-1.23-2.211c2.261-1.194,4.393-2.59,6.526-3.989c5.759-0.483,11.519-0.946,17.259-1.627   c0.827-0.098,0.869-1.383,0-1.327c-4.879,0.312-9.744,0.784-14.608,1.264c1.824-1.161,3.672-2.287,5.645-3.227   c5.94-2.829,12.083-4.092,18.348-5.875c0.218-0.062,0.338-0.221,0.468-0.366C182.516,217.109,180.812,226.456,173.072,234.198z    M178.892,196.273c0.878,3.031,1.59,6.021,2.065,8.948c-0.162-0.09-0.311-0.202-0.541-0.189   c-11.245,0.634-26.258,6.844-33.476,15.858c-1.542-3.075-2.947-6.426-4.298-9.846c11.681-7.038,22.544-12.439,36.156-14.733   C178.835,196.305,178.857,196.282,178.892,196.273z M198.322,96.539c-7.109,4.963-14.541,9.492-21.769,14.28   c-8.316,5.509-15.224,10.414-16.104,20.7c-0.296,0.251-0.513,0.614-0.552,1.098c-1.487,18.167,11.637,40.416,18.161,60.993   c-12.905,1.542-26.709,6.916-35.803,16.466c-1.096-2.807-2.157-5.65-3.223-8.429c2.374,0.388,4.86,0.345,7.173-0.076   c0.592-0.108,0.432-1.016-0.138-1.024c-2.535-0.038-5.048-0.169-7.57-0.284c-0.759-1.957-1.526-3.861-2.31-5.695   c3.964,0.256,7.927,0.527,11.899,0.605c0.764,0.015,0.745-1.117,0-1.176c-4.124-0.324-8.261-0.44-12.395-0.581   c-0.978-2.216-1.994-4.284-3.067-6.16c5.152,0.266,10.299,0.52,15.46,0.612c0.823,0.015,0.811-1.221,0-1.271   c-5.416-0.33-10.831-0.481-16.254-0.627c-0.691-1.11-1.416-2.112-2.166-3.033c2.208,0.07,4.417,0.137,6.623,0.069   c0.683-0.021,0.684-1.041,0-1.062c-2.464-0.076-4.932,0.015-7.397,0.092c-2.608-2.865-5.608-4.504-9.273-4.168   c-0.332-0.233-0.764-0.347-1.273-0.246c-9.532,1.887-13.065,10.332-16.53,18.554c-1.634,3.877-3.61,9.379-6.056,15.036   c-3.634-2.974-7.716-5.346-12.048-7.11c1.458,0.069,2.916,0.13,4.374,0.144c0.737,0.007,0.726-1.094,0-1.138   c-2.608-0.157-5.228-0.187-7.842-0.234c-6.463-2.087-13.345-2.902-20.103-2.28c0.032-0.105,0.069-0.208,0.101-0.313   c4.678-0.25,9.352-0.519,14.025-0.88c0.903-0.07,0.921-1.47,0-1.422c-4.531,0.235-9.052,0.561-13.575,0.901   c0.666-2.1,1.405-4.171,2.165-6.208c4.925-0.063,9.838-0.493,14.777-0.448c0.788,0.007,0.772-1.16,0-1.214   c-4.697-0.329-9.611-0.425-14.291,0.347c0.747-1.954,1.514-3.858,2.272-5.684c2.73,0.214,5.41,0.215,8.153-0.191   c0.74-0.11,0.564-1.338-0.176-1.304c-2.439,0.115-4.892,0.096-7.334-0.035c1.412-3.351,2.743-6.372,3.818-8.926   c6.335-0.398,12.675-0.525,19.023-0.488c0.965,0.005,0.964-1.476,0-1.498c-6.204-0.141-12.373,0.222-18.541,0.821   c0.272-0.661,0.542-1.318,0.762-1.893c0.813-2.117,1.61-4.237,2.381-6.361c2.092-0.195,4.189-0.296,6.293-0.291   c0.722,0.002,0.689-1.027,0-1.1c-1.939-0.206-3.855-0.164-5.776-0.029c0.728-2.053,1.413-4.113,2.038-6.183   c3.272,0.029,6.539-0.038,9.809-0.359c0.775-0.076,0.802-1.278,0-1.232c-3.151,0.178-6.304,0.262-9.458,0.28   c0.72-2.504,1.323-5.029,1.803-7.575c2.163,0.114,4.314,0.053,6.459-0.308c0.625-0.105,0.487-1.19-0.151-1.117   c-2.035,0.232-4.056,0.336-6.092,0.338c0.309-1.806,0.508-3.631,0.646-5.466c5.184,0.219,10.365,0.364,15.556,0.314   c0.968-0.009,0.96-1.452,0-1.498c-5.157-0.247-10.312-0.299-15.474-0.281c0.026-0.554,0.087-1.103,0.094-1.66   c0.052-0.088,0.127-0.156,0.156-0.262c0.098-0.362,0.132-0.701,0.125-1.027c0.236-0.249,0.386-0.599,0.355-1.081   c-0.036-0.552-0.134-1.071-0.212-1.601c1.726,0.018,3.448,0.043,5.179-0.037c0.439-0.02,0.44-0.662,0-0.682   c-1.764-0.081-3.519-0.057-5.28-0.037c-0.336-1.774-0.932-3.415-1.713-4.96c2.104,0.093,4.206,0.163,6.321,0.13   c0.718-0.011,0.695-1.038,0-1.1c-2.351-0.208-4.697-0.29-7.049-0.35c-1.451-2.401-3.438-4.525-5.749-6.476   c4.037,0.368,8.101,0.606,12.122,0.776c0.999,0.042,0.971-1.45,0-1.536c-4.703-0.416-9.483-0.797-14.225-0.888   c-2.05-1.513-4.346-2.89-6.721-4.223c3.049,0.137,6.093,0.276,9.148,0.211c0.989-0.021,0.962-1.436,0-1.517   c-3.59-0.302-7.185-0.324-10.787-0.394c-0.356-0.007-0.546,0.192-0.661,0.434c-4.004-2.116-8.234-4.093-12.397-6.07   c0.007-0.009,0.014-0.019,0.022-0.029c5.355,0.172,10.712,0.172,16.069,0.102c0.903-0.012,0.904-1.391,0-1.403   c-5.045-0.066-10.09-0.058-15.134,0.085c1.702-2.163,3.249-4.45,4.712-6.792c2.906-0.227,5.822-0.294,8.736-0.194   c1.061,0.036,1.062-1.623,0-1.65c-2.628-0.065-5.226,0.076-7.832,0.349c0.998-1.674,1.922-3.395,2.811-5.134   c4.699,0.104,9.43,0.357,14.122,0.039c0.989-0.067,0.986-1.461,0-1.536c-4.43-0.336-8.897-0.163-13.34-0.087   c1-2.047,1.857-4.157,2.72-6.262c3.741,0.441,7.577,0.561,11.295,0.185c0.674-0.068,0.692-1.017,0-1.062   c-3.57-0.23-7.176-0.303-10.766-0.341c0.595-1.506,1.157-3.021,1.692-4.543c1.975,0.45,4.016,0.551,6.033,0.612   c0.594,0.018,0.756-0.974,0.144-1.061c-1.943-0.278-3.909-0.522-5.876-0.444c0.487-1.427,0.957-2.858,1.374-4.298   c13.284,4.803,26.503,11.89,34.36,15.005c0.306,0.122,0.528-0.032,0.658-0.253c0.491-0.266,0.667-1.138,0.061-1.463   c-3.296-1.763-6.195-3.765-8.795-5.919c1.566,0.221,3.202,0.241,4.719,0.265c0.703,0.011,0.657-0.978,0-1.062   c-1.947-0.25-4.059-0.518-6.046-0.326c-2.062-1.837-3.871-3.798-5.474-5.841c4.62,0.263,9.243,0.608,13.872,0.647   c0.742,0.006,0.719-1.075,0-1.138c-4.707-0.408-9.439-0.499-14.158-0.683c-0.206-0.008-0.342,0.08-0.434,0.203   c-2.776-3.748-4.798-7.785-6.159-11.957c2.987,0.294,5.952,0.563,8.953,0.666c0.66,0.022,0.628-0.936,0-1.005   c-3.085-0.34-6.155-0.502-9.254-0.643c-0.652-2.181-1.055-4.4-1.347-6.63c1.729,0.137,3.478,0.143,5.205,0.126   c0.909-0.009,0.896-1.349,0-1.403c-1.772-0.106-3.571-0.194-5.353-0.132c-0.17-1.747-0.207-3.499-0.168-5.249   c5.513,0.348,11.163,0.368,16.646-0.031c0.878-0.064,0.879-1.301,0-1.365c-5.452-0.398-11.071-0.377-16.555-0.035   c0.11-1.995,0.4-3.973,0.772-5.937c2.114-0.128,4.228-0.269,6.345-0.372c0.91-0.044,0.921-1.413,0-1.422   c-2.017-0.02-4.048,0.127-6.062,0.372c0.485-2.184,1.156-4.326,1.952-6.425c2.714,0.402,5.426,0.762,8.156,1.056   c0.8,0.086,0.996-1.301,0.192-1.415c-2.611-0.371-5.221-0.674-7.843-0.946c0.753-1.819,1.639-3.585,2.619-5.304   c3.474,0.177,6.956,0.231,10.424-0.017c0.573-0.041,0.574-0.85,0-0.891c-3.289-0.235-6.59-0.189-9.884-0.035   c1.173-1.952,2.51-3.814,3.969-5.59c3.325,0.007,6.642,0.134,9.96,0.376c0.924,0.068,0.892-1.322,0-1.422   c-2.935-0.328-5.873-0.388-8.817-0.319c2.082-2.344,4.426-4.488,7.002-6.393c3.61,0.305,7.326,0.194,10.917,0.058   c0.87-0.033,0.862-1.294,0-1.346c-2.802-0.171-5.683-0.329-8.533-0.292c1.848-1.195,3.804-2.269,5.859-3.21   c2.687,0.187,5.374,0.363,8.07,0.426c0.51,0.012,0.488-0.728,0-0.778c-2.025-0.207-4.053-0.351-6.082-0.475   c5.867-2.367,12.485-3.679,19.813-3.502c47.335,1.143,54.909,61.747,16.826,83.3c-0.884,0.5-0.984,1.384-0.673,2.108   c-0.635,0.601,0.272,1.516,1.001,1.187c0.072-0.032,0.147-0.074,0.219-0.107c0.373,0.09,0.785,0.07,1.214-0.175   c1.874-1.07,3.605-2.254,5.269-3.485c8.34-5.377,18.127-13.595,28.113-19.773c3.681,11.437,13.192,23.666,24.781,27.817   C200.207,95.081,199.269,95.878,198.322,96.539z M203.322,92.546c-5.468-3.67-10.856-6.547-15.448-11.508   c-4.215-4.553-7.368-9.837-9.964-15.432c2.639-1.571,5.286-3.027,7.921-4.186c4.137,10.887,12.303,20.205,21.419,27.273   C206.016,90.058,204.681,91.333,203.322,92.546z M208.79,86.892c-1.917-1.602-3.691-3.283-5.384-5.013   c1.901,0.107,3.773,0.344,5.693,0.597c0.532,0.07,0.58-0.74,0.121-0.894c-2.165-0.728-4.531-0.826-6.819-0.721   c-1.602-1.698-3.098-3.466-4.539-5.273c3.268,0.452,6.607,0.549,9.888,0.353c0.846-0.05,0.862-1.326,0-1.327   c-3.6-0.003-7.191-0.169-10.788-0.227c-0.003,0-0.005,0.003-0.008,0.003c-1.142-1.48-2.199-3.034-3.271-4.576   c5.556,0.471,11.2,0.896,16.764,0.415c0.822-0.071,0.836-1.239,0-1.29c-5.716-0.346-11.467-0.151-17.192-0.335   c-0.154-0.005-0.252,0.062-0.343,0.132c-1.003-1.477-1.941-3.042-2.906-4.569c3.421,0.388,6.894,0.551,10.326,0.678   c0.862,0.032,0.839-1.257,0-1.327c-3.682-0.311-7.422-0.618-11.121-0.601c-0.488-0.789-1.009-1.528-1.486-2.336   c8.218-3.23,16.25-3.774,23.392,1.159C217.95,70.1,214.88,79.353,208.79,86.892z"></path><path d="M110.022,26.435c-2.62-2.717-9.047-3.796-11.416-0.286c-3.304,1.49-4.124,7.612-2.65,10.602   c2.505,5.083,9.01,6.295,13.381,2.842C113.446,36.347,113.626,30.171,110.022,26.435z M108.47,36.44   c-2.077,2.482-5.933,3.117-8.436,0.909c-2.624-2.315-3.158-8.991,1.387-9.759c0.44-0.075,0.612-0.458,0.579-0.837   c0.325-0.124,0.673-0.213,1.065-0.244c1.621-0.128,3.229,0.317,4.451,1.415C109.888,30.053,110.585,33.914,108.47,36.44z"></path><path d="M139.076,22.927c-0.079,0.019-0.126,0.082-0.191,0.122c-4.066-0.475-7.594,2.429-7.836,6.79   c-0.249,4.507,3.311,9.649,8.073,9.906c4.684,0.253,8.579-3.871,8.502-8.458C147.555,27.208,143.634,21.864,139.076,22.927z    M139.918,36.716c-6.943,0.539-7.776-10.971-1.09-12.275c0.019,0.012,0.023,0.035,0.043,0.046c2.523,1.262,5.241,1.769,5.87,5.072   C145.332,32.654,143.284,36.455,139.918,36.716z"></path><path d="M129.406,95.733c-2.827-2.968-8.32-3.69-11.261-0.526c-0.127,0.137-0.145,0.289-0.184,0.439   c-3.158,2.248-2.56,7.969-0.439,10.859c2.834,3.863,8.162,4.808,11.589,1.158C132.097,104.483,132.512,98.994,129.406,95.733z    M127.737,104.822c-2.189,3.422-6.296,2.797-8.368-0.392c-1.869-2.876-1.158-5.402,0.431-7.895   c2.378-1.089,5.188-1.322,7.261,0.606C129.152,99.085,129.224,102.496,127.737,104.822z"></path><path d="M131.65,123.337c-0.496-4.128-4.782-8.039-9.076-7.193c-0.016,0.003-0.02,0.018-0.035,0.022   c-3.517,0.464-6.478,3.352-7.026,7.069c-0.737,5.002,3.125,9.443,8.168,9.402C128.552,132.597,132.224,128.104,131.65,123.337z    M123.682,129.545c-3.576,0.069-5.776-3.147-5.077-6.51c0.506-2.437,2.362-4.18,4.557-5.171c2.739,0.862,5.329,2.159,5.655,5.473   C129.118,126.407,126.872,129.484,123.682,129.545z"></path><path d="M123.867,137.582c-4.38-0.524-8.418,2.546-9.196,7.019c-0.824,4.74,2.164,9.318,6.942,10.194   C133.297,156.936,133.727,136.124,123.867,137.582z M121.4,151.759c-2.911-0.892-4.504-3.828-3.981-6.786   c0.54-3.054,2.979-4.874,5.801-5.495c0.1,0.068,0.169,0.171,0.307,0.192C130.808,140.785,128.7,153.996,121.4,151.759z"></path><path d="M146.855,51.751c-2.886-2.192-6.408-0.729-7.977,2.175c-0.02,0.036,0.003,0.064-0.012,0.1   c-5.647,5.712-13.126,8.607-21.304,6.362c-5.879-1.613-9.958-6.271-15.79-7.827c-2.43-1.718-5.629,1.196-6.041,3.687   c-0.103,0.623-0.07,1.297,0.038,1.978c-0.296-0.168-0.667,0.175-0.496,0.508c0.666,1.299,1.475,2.492,2.362,3.623   c0.197,0.241,0.394,0.481,0.613,0.692c12.079,14.212,40.774,14.101,49.813-3.039c0.151-0.286,0.167-0.55,0.118-0.785   C149.942,57.116,148.921,53.32,146.855,51.751z M99.047,61.338c-0.483-0.636-0.923-1.298-1.187-2.066   c-0.481-1.397-0.546-3.062,0.501-4.256c0.907-1.034,2.127-0.898,3.361-0.951c0.035-0.001,0.059-0.026,0.092-0.032   c7.341,4.029,13.08,9.466,22.04,9.241c7.178-0.18,13.424-3.644,17.898-9.151c0.092-0.114,0.147-0.234,0.188-0.355   c1.207-0.407,2.656-0.349,3.525,0.342c1.642,1.305,1.074,2.961,0.75,4.666c-0.032,0.035-0.07,0.053-0.1,0.094   C134.212,74.976,112.781,73.286,99.047,61.338z"></path><path d="M85.846,68.763c-1.804-0.509-3.646-0.697-5.517-0.748c-0.672-0.018-0.672,1.028,0,1.043   c1.785,0.041,3.512,0.294,5.27,0.601C86.178,69.76,86.432,68.929,85.846,68.763z"></path></g><g></g><g></g><g></g><g></g><g></g><g></g><g></g><g></g><g></g><g></g><g></g><g></g><g></g><g></g><g></g></svg>