<svg xmlns="http://www.w3.org/2000/svg" xmlns:xlink="http://www.w3.org/1999/xlink" fill="currentColor" version="1.1" id="Capa_1" viewBox="0 0 245.192 245.192" xml:space="preserve"><g><path d="M223.71,67.274c-2.827,5.428-4.409,11.69-11.714,10.958c0.86-6.653,0.681-13.401-0.644-20.042   c-0.441-2.208-3.603-1.214-3.309,0.913c0.855,6.194,1.079,12.282,0.471,18.304c-5.406-2.278-8.173-8.284-8.91-14.03   c-0.166-1.288-2.141-1.379-2.086,0c0.292,7.286,3.651,14.736,10.568,17.397c-0.576,3.677-1.467,7.332-2.791,10.97   c-1.904,5.232-4.483,10.128-7.648,14.695c-0.991,1.431-1.73,2.284-2.32,2.939c-8.011-14.329-19.347-26.873-33.234-36.318   c4.349-6.177,7.086-13.939,7.311-23.402c0.644-27.091-16.958-46.504-44.191-49.376C101.46-2.223,78.22,12.125,78.726,37.687   c0.004,0.218,0.067,0.395,0.127,0.572c-4.857,0.558-9.713,1.132-14.562,1.776c-1.391,0.185-1.743,1.886-0.889,2.558   c-0.128,0.405,0.025,0.893,0.582,1.117c4.546,1.832,9.321,3.392,14.191,4.784c-0.886,12.084,3.061,21.694,9.731,28.723   c-9.333,9.549-17.352,20.609-23.5,32.542c-0.033-0.004-0.067-0.007-0.1-0.011c-0.725-0.082-0.979,0.885-0.595,1.349   c-1.083,2.164-2.122,4.346-3.076,6.563c-8.954-6.758-14.118-14.585-17.619-23.598c10.73-2.019,14.351-14.914,9.869-24.091   c-0.829-1.697-3.113-0.415-2.842,1.198c1.336,7.942,1.17,18.026-8.277,19.42c-1.876-5.618-3.252-11.666-4.566-18.193   c-0.31-1.541-2.622-1.123-2.663,0.36c-0.162,5.822,0.736,11.95,2.563,17.867c-7.418-0.769-16.35-5.121-16.396-13.165   c-0.006-1.028-1.702-1.341-1.862-0.252C17.32,87.543,28.9,93.779,38.383,94.323c4.123,10.773,11.417,20.432,21.306,25.6   c-9.025,22.208-11.29,46.751-2.758,70.275c12.045,33.211,43.813,58.691,80.225,54.553c37.784-4.295,65.369-34.837,70.479-71.776   c2.983-21.566-1.348-42.969-11.201-61.539c1.605-1.447,3.419-3.26,3.67-3.56c1.429-1.715,2.648-3.748,3.779-5.669   c2.667-4.528,4.707-9.407,6.161-14.452c0.585-2.032,1.046-4.086,1.426-6.151c8.234,1.054,14.713-5.385,15.014-13.579   C226.537,66.572,224.39,65.968,223.71,67.274z M179.773,94.901c-2.536,3.98-5.533,7.376-8.889,10.251   c-3.138-8.775-10.907-16.973-18.027-22.991c2.473-1.764,4.82-3.703,6.84-6.022c0.015,0.01,0.019,0.025,0.035,0.035   C167.352,81.318,174.047,87.693,179.773,94.901z M163.053,177.074c7.815,2.797,18.687-1.038,25.975-4.341   c0.419,16.341-14.323,26.715-29.372,19.02c1.948-10.671,2.959-21.399,2.711-32.017c0.082,0.02,0.118,0.09,0.214,0.093   c8.081,0.223,16.301-1.673,23.282-5.821c1.167,5.031,2.1,10.151,2.855,15.259c-0.162-0.015-0.324-0.031-0.495,0.004   c-0.601,0.122-1.202,0.245-1.803,0.367c-0.582,0.118-0.821,0.472-0.929,0.872c-3.363,1.488-6.834,2.671-10.455,3.411   c-3.953,0.808-8.139,0.552-11.982,1.691C162.304,175.833,162.364,176.827,163.053,177.074z M184.44,151.123   c-7.003,3.77-13.892,6.061-21.859,6.639c-0.11,0.008-0.157,0.088-0.249,0.12c-0.275-7.267-1.15-14.477-2.804-21.569   c6.417,0.013,12.947-1.703,18.578-4.741c2.99,6.109,5.233,12.594,6.975,19.353C184.874,150.946,184.659,151.005,184.44,151.123z    M159.059,134.449c-1.399-5.534-3.246-10.998-5.65-16.357c4.243-1.375,8.273-3.125,12.017-5.234   c0.037,0.049,0.046,0.101,0.09,0.148c4.474,4.862,8.09,10.131,11.089,15.704C170.969,131.869,165.417,133.614,159.059,134.449z    M151.936,115.269c-0.312-0.133-0.7-0.006-0.892,0.282c-0.909,0.26-1.838,0.474-2.764,0.694   c-1.924-9.239-5.995-18.54-10.312-27.041c4.737-1.286,9.2-3.294,13.255-5.905c3.381,3.471,6.623,7.099,9.479,11.013   c2.864,3.926,4.954,8.399,7.858,12.255c0.068,0.09,0.155,0.151,0.238,0.219C163.781,110.612,158.083,113.414,151.936,115.269z    M119.959,91.036c5.286,0.335,10.631-0.098,15.767-1.251c3.596,8.931,6.391,18.072,9.812,27.049   c-8.882,1.721-18.384,1.776-27.79,0.592C118.846,108.91,120.519,99.57,119.959,91.036z M68.41,42.661   C83.2,42,98.054,39.967,112.656,37.679c1.092,5.099,0.316,10.086-1.886,14.79C96.935,48.953,82.57,44.992,68.41,42.661z    M85.889,66.107c1.557-0.222,3.044-0.104,4.669-0.193c0.567-0.031,0.655-0.778,0.131-0.969c-1.651-0.6-3.552-0.306-5.257,0.213   c-1.022-2.071-1.881-4.256-2.616-6.517c1.914,0.053,3.834,0.104,5.731-0.018c0.841-0.054,0.843-1.254,0-1.308   c-2.042-0.131-4.11-0.063-6.168-0.007c-0.517-1.763-0.905-3.599-1.228-5.469c1.342,0.084,2.7,0.198,4.032,0.083   c0.877-0.076,0.879-1.289,0-1.365c-1.396-0.121-2.818,0.01-4.222,0.094c-0.07-0.477-0.172-0.938-0.228-1.422   c9.805,2.654,19.961,4.592,29.597,6.279c0.581,0.102,1.045-0.104,1.379-0.431c0.183-0.05,0.363-0.143,0.519-0.341   c4.251-5.391,5.354-12.16,3.524-18.752c-0.16-0.574-0.525-0.903-0.95-1.061c-0.376-0.537-1.008-0.915-1.81-0.799   c-10.195,1.467-20.42,2.582-30.64,3.738c0.005-0.063,0.034-0.108,0.034-0.174c-0.013-1.635,0.082-3.21,0.268-4.732   c2.268-0.583,4.528-1.162,6.762-1.871c0.896-0.284,0.53-1.618-0.388-1.408c-2.047,0.468-4.054,1.053-6.068,1.631   c0.366-2.121,0.97-4.093,1.695-5.979c1.954-0.456,3.892-0.577,5.908-0.383c0.774,0.074,0.744-1.097,0-1.195   c-1.862-0.244-3.679-0.022-5.475,0.405c0.872-2.02,1.943-3.895,3.185-5.625c3.512-0.296,7.007-0.577,10.483-1.181   c0.454-0.079,0.347-0.82-0.108-0.801c-3.213,0.138-6.385,0.553-9.568,0.973c2.021-2.576,4.474-4.754,7.177-6.621   c3.041,0.047,6.077,0.103,9.117-0.004c0.915-0.032,0.916-1.39,0-1.422c-2.258-0.08-4.514-0.063-6.771-0.033   c2.042-1.19,4.228-2.175,6.496-2.996c3.103,0.13,6.235-0.105,9.245-0.812c0.719-0.169,0.667-1.197,0.082-1.432   c5.057-0.66,10.314-0.527,15.472,0.512c22.907,4.612,36.362,21.623,35.784,44.945c-0.492,19.837-12.096,33.047-28.88,37.273   c-0.091-0.175-0.181-0.356-0.272-0.53c-0.615-1.175-2.224-0.141-1.736,1.015c0.003,0.006,0.005,0.012,0.007,0.019   c-4.117,0.84-8.519,1.156-13.126,0.916c-9.34-0.488-17.373-3.414-23.832-8.137c1.62,0.06,3.244,0.067,4.838-0.09   c0.791-0.078,0.793-1.154,0-1.232c-2.175-0.214-4.412-0.156-6.603-0.002c-1.813-1.487-3.452-3.159-4.974-4.938   c2.071,0.096,4.145,0.166,6.192-0.013c0.618-0.054,0.6-0.872,0-0.948c-2.38-0.301-4.807-0.271-7.222-0.249   C88.467,70.704,87.116,68.452,85.889,66.107z M117.547,90.806c-1.756,8.366-1.464,17.814-1.578,26.393   c-8.339-1.192-16.56-3.301-24.13-6.157c0.698-0.6,1.125-1.904,1.465-2.787c2.775-7.202,5.231-14.57,7.661-21.9   C106.101,88.72,111.759,90.191,117.547,90.806z M89.495,78.755c2.662,2.496,5.719,4.578,8.999,6.33   c-1.504,4.314-2.937,8.65-4.369,12.988c-0.63,1.908-1.269,3.813-1.89,5.724c-0.427,1.269-0.832,2.545-1.216,3.828   c-0.645,0.787-0.801,1.37-0.572,1.795c-0.221,0.064-0.428,0.183-0.522,0.411c-0.048,0.118-0.096,0.235-0.144,0.353   c-0.01,0.024,0.004,0.059-0.001,0.086c-6.254-2.502-12.017-5.475-16.98-8.755C77.692,93.45,83.358,85.816,89.495,78.755z    M136.633,240.822c-16.908,1.893-32.564-2.758-45.553-11.604c3.404,0.752,6.995,1.204,10.261,1.605   c0.669,0.082,0.809-1.028,0.159-1.173c-4.013-0.898-8.523-1.879-12.767-2.145c-2.537-1.876-4.917-3.969-7.221-6.152   c3.242,0.067,6.486,0.148,9.728,0.094c0.781-0.013,0.782-1.201,0-1.214c-3.589-0.059-7.18,0.031-10.768,0.104   c-0.002,0-0.002,0.001-0.002,0.001c-1.595-1.566-3.106-3.221-4.575-4.919c5.113,0.236,10.228,0.474,15.346,0.575   c0.723,0.014,0.716-1.084,0-1.119c-5.399-0.263-10.804-0.375-16.207-0.497c-1.294-1.546-2.516-3.159-3.702-4.8   c3.484,0.11,7.005,0.362,10.486,0.232c0.54-0.02,0.534-0.798,0-0.835c-3.568-0.244-7.19-0.085-10.766-0.091   c-0.072,0-0.114,0.038-0.162,0.068c-1.317-1.856-2.538-3.787-3.71-5.749c7.12,0.406,14.291,0.221,21.368-0.641   c0.708-0.086,0.744-1.189,0-1.138c-7.344,0.508-14.641,0.771-22,0.737c-1.549-2.678-2.922-5.465-4.181-8.309   c4.003,0.66,7.982,0.917,12.048,0.615c0.699-0.052,0.712-1.139,0-1.1c-4.2,0.23-8.392,0.048-12.547-0.615   c-0.811-1.904-1.556-3.84-2.23-5.805c3.577,0.086,7.167,0.229,10.739,0.136c0.732-0.019,0.733-1.119,0-1.138   c-3.658-0.096-7.335,0.058-10.997,0.142c-0.545-1.649-1.068-3.306-1.503-4.996c-0.171-0.665-0.294-1.329-0.449-1.993   c4.624,0.344,9.23,0.121,13.804-0.675c0.75-0.13,0.586-1.421-0.181-1.341c-4.635,0.483-9.255,0.709-13.909,0.744   c-0.539-2.486-0.927-4.967-1.242-7.443c2.44,0.261,4.967,0.2,7.275-0.645c0.801-0.293,0.479-1.391-0.348-1.262   c-2.413,0.378-4.687,0.686-7.099,0.565c-0.333-2.985-0.499-5.959-0.528-8.919c5.056,0.325,10.115,0.736,15.181,0.823   c0.972,0.016,0.953-1.432,0-1.498c-5.036-0.351-10.093-0.38-15.14-0.494c0.01-3.062,0.226-6.1,0.536-9.125   c3.733-0.367,7.478-0.42,11.231-0.338c0.804,0.018,0.749-1.115,0-1.214c-3.724-0.489-7.386-0.301-11.068,0.218   c0.301-2.579,0.74-5.135,1.239-7.68c5.675,0.919,11.499,1.54,17.237,1.337c0.924-0.033,0.905-1.348,0-1.422   c-5.653-0.462-11.305-0.749-16.953-1.271c0.571-2.713,1.301-5.393,2.08-8.06c0.028,0.005,0.038,0.029,0.067,0.032   c3.333,0.291,6.759,0.203,10.095,0c0.999-0.061,1.001-1.494,0-1.555c-3.222-0.196-6.527-0.269-9.752-0.013   c0.917-2.983,2.001-5.919,3.159-8.832c5.336,0.117,10.682,0.318,16.015,0.077c0.707-0.032,0.708-1.068,0-1.1   c-5.202-0.234-10.416-0.049-15.622,0.068c1.137-2.792,2.382-5.548,3.712-8.268c2.392,0.358,4.788,0.707,7.195,0.867   c0.928,0.062,1.15-1.465,0.222-1.639c-2.164-0.405-4.358-0.656-6.554-0.887c1.21-2.387,2.454-4.759,3.82-7.075   c18.194,17.36,52.769,23.609,79.818,15.553c3.637,12.147,6.734,24.278,7.49,37.031c0.727,12.258-1.357,24.058-2.242,36.233   c-0.064,0.88,0.776,1.348,1.524,1.28c10.287,10.194,31.857,6.674,34.714-8.576c1.461,0.106,2.938,0.123,4.373-0.016   c0.974-0.094,0.976-1.422,0-1.517c-1.356-0.131-2.749-0.122-4.133-0.036c0.259-1.915,0.377-3.893,0.434-5.896   c1.766,0.067,3.509-0.094,5.255-0.629c0.785-0.241,0.46-1.395-0.338-1.225c-1.635,0.348-3.262,0.504-4.9,0.542   c0.018-2.547-0.135-5.156-0.407-7.795c0.742-0.135,1.481-0.289,2.218-0.493c0.596-0.165,0.494-1.124-0.149-1.099   c-0.752,0.03-1.487,0.111-2.22,0.205c-0.35-2.891-0.9-5.817-1.555-8.749c1.313-0.106,2.621-0.253,3.902-0.535   c0.531-0.117,0.4-0.926-0.126-0.931c-1.357-0.014-2.715,0.124-4.071,0.301c-0.864-3.658-1.985-7.308-3.249-10.912   c2.066,0.266,4.172,0.222,6.13-0.451c0.499-0.172,0.463-1.057-0.134-0.987c-2.218,0.261-4.28,0.442-6.39,0.27   c-1.046-2.884-2.223-5.718-3.482-8.492c2.253,0.136,4.481-0.005,6.708-0.61c0.848-0.23,0.469-1.398-0.353-1.28   c-2.346,0.338-4.674,0.491-7.025,0.421c-1.373-2.918-2.883-5.704-4.448-8.416c4.1-0.214,8.193-0.432,12.28-0.873   c0.924-0.1,0.97-1.519,0-1.479c-4.373,0.179-8.717,0.606-13.07,1.027c-1.624-2.723-3.328-5.318-5.094-7.752   c3.212,0.233,6.488,0.219,9.621-0.481c0.699-0.156,0.56-1.322-0.171-1.266c-3.504,0.266-6.913,0.598-10.414,0.474   c-1.3-1.722-2.623-3.379-3.987-4.887c0.572-0.371,1.102-0.79,1.658-1.179c4.009,0.123,8.025,0.271,12.032,0.083   c1.049-0.049,1.05-1.581,0-1.631c-3.293-0.154-6.592-0.075-9.889,0.023c1.891-1.47,3.668-3.061,5.311-4.779   c1.75,0.048,3.5,0.078,5.251,0.007c0.634-0.026,0.635-0.96,0-0.986c-1.457-0.059-2.913-0.05-4.37-0.017   c1.31-1.453,2.55-2.971,3.661-4.602C218.483,147.594,210.62,232.541,136.633,240.822z"></path><path d="M99.48,22.935c-1.503,1.239-1.522,4.203,0.013,5.52c2.406,2.065,6.569,0.067,6.287-3.15   C105.522,22.364,101.562,20.713,99.48,22.935z"></path><path d="M132.501,24.17c-0.184-0.28-0.446-0.506-0.865-0.509c-2.817-0.021-4.857,3.073-3.101,5.531   c1.682,2.355,5.324,2.148,6.419-0.619C135.72,26.638,134.534,24.179,132.501,24.17z"></path><path d="M137.359,54.737c-4.85,5.335-8.575,10.123-16.15,11.511c-8.455,1.55-16.089-2.294-21.843-8.299   c-0.674-0.703-1.926,0.22-1.37,1.057c9.174,13.824,35.676,15.106,41.169-3.217C139.47,54.775,138.09,53.934,137.359,54.737z"></path><path d="M95.935,125.503c-0.217,0.021-0.37,0.116-0.486,0.231c-0.198-0.291-0.475-0.521-0.892-0.497   c-4.382,0.254-7.105,5.245-6.858,9.249c0.286,4.649,4.373,7.723,8.902,7.437c4.521-0.286,8.521-3.735,8.263-8.487   C104.611,128.757,100.59,125.042,95.935,125.503z M96.047,138.644c-2.797,0.009-5.026-1.858-5.192-4.704   c-0.182-3.132,1.771-5.1,4.301-6.494c0.262-0.145,0.418-0.371,0.497-0.624c0.092,0.051,0.157,0.126,0.282,0.141   c3.193,0.391,5.945,3.88,5.76,7.061C101.526,136.926,98.745,138.636,96.047,138.644z"></path><path d="M99.888,134.106c-0.653-0.789-1.437-1.471-2.219-2.154c0.471-0.513,0.947-1.014,1.398-1.566   c0.511-0.627-0.125-1.631-0.908-1.176c-0.683,0.397-1.281,0.928-1.844,1.505c-0.689-0.582-1.391-1.154-2.024-1.779   c-0.712-0.702-1.727,0.345-1.086,1.086c0.606,0.701,1.239,1.424,1.895,2.128c-0.674,0.922-1.269,1.907-1.776,2.862   c-0.447,0.84,0.779,1.561,1.277,0.746c0.528-0.864,1.163-1.599,1.803-2.329c0.797,0.72,1.638,1.378,2.588,1.84   C99.764,135.641,100.428,134.758,99.888,134.106z"></path><path d="M99.836,156.981c-3.091-2.537-8.503-2.326-11.267,0.608c-4.079,2.45-5.535,7.856-2.503,11.916   c3.306,4.427,9.76,5.03,13.897,1.443C104.239,167.239,104.255,160.608,99.836,156.981z M99.559,166.83   c-0.019-0.185-0.065-0.376-0.208-0.555c-0.962-1.204-2.356-2.012-3.594-2.916c-0.076-0.055-0.149-0.113-0.225-0.168   c0.521-0.857,0.999-1.734,1.35-2.66c0.394-1.036-1.161-1.572-1.715-0.723c-0.46,0.704-0.874,1.422-1.299,2.137   c-0.748-0.558-1.502-1.108-2.243-1.678c-0.736-0.566-1.723,0.701-0.999,1.295c0.774,0.636,1.531,1.29,2.294,1.937   c-0.723,1.201-1.473,2.386-2.359,3.508c-0.634,0.803,0.436,1.951,1.153,1.153c0.948-1.055,1.896-2.174,2.755-3.353   c0.034,0.029,0.069,0.058,0.103,0.087c1.156,1,2.267,2.175,3.654,2.84c0.295,0.141,0.556,0.112,0.784,0.019   c-0.225,0.309-0.456,0.616-0.74,0.89c-2.677,2.582-6.901,2.38-9.534-0.149c-2.066-1.984-2.327-4.902-1.313-7.345   c0.406,0.385,1.039,0.527,1.487,0.035c2.302-2.533,5.285-4.649,8.672-2.388C100.34,160.636,100.928,164.101,99.559,166.83z"></path></g><g></g><g></g><g></g><g></g><g></g><g></g><g></g><g></g><g></g><g></g><g></g><g></g><g></g><g></g><g></g></svg>