<svg xmlns="http://www.w3.org/2000/svg" xmlns:xlink="http://www.w3.org/1999/xlink" fill="currentColor" version="1.1" id="Capa_1" viewBox="0 0 202.541 202.541" xml:space="preserve"><g><path d="M108.313,160.088c-0.148-3.164-0.339-6.309-0.589-9.465c0.009-0.17,0.016-0.314-0.03-0.48   c-0.004-0.045-0.005-0.091-0.008-0.137c-0.057-0.699-0.733-1.071-1.32-1.008c-0.015-0.001-0.021-0.014-0.035-0.015   c-9.046-0.382-18.22,0.584-27.346,0.543c12.636-21.445,34.662-58.834,7.331-77.931c-10.06-7.029-22.598-4.564-31.171,2.51   c-0.218,0.043-0.349,0.171-0.409,0.351c-7.569,6.477-11.877,16.586-8.128,26.968c-0.03,0.007-0.06,0.009-0.09,0.016   c-0.711,0.183-0.58,1.082,0,1.316c2.645,1.07,5.689,1.149,8.515,1.278c2.85,0.13,5.937,0.383,8.708-0.367   c1.081-0.293,1.26-1.815,0.415-2.409c0.439-2.251-0.53-4.413,0.116-6.772c0.466-1.701,1.417-3.437,2.553-4.925   c11.521-4.868,13.702,14.289,13.361,19.881c-0.404,6.607-2.822,12.847-6.371,18.352c-5.628,8.73-13.986,15.084-22.241,21.149   c-0.705,0.518-0.585,1.409-0.082,1.827c-1.117,3.4-0.464,7.339-0.395,10.885c0.07,3.553-0.302,7.484,0.947,10.847   c0.195,0.524,0.716,0.679,1.137,0.512c0.094,0.723,0.606,1.396,1.58,1.464c17.107,1.184,35.639,0.102,52.431-3.459   c0.729-0.155,1.001-0.824,0.909-1.441c0.125-0.146,0.265-0.282,0.323-0.48C109.255,166.256,108.451,163.03,108.313,160.088z    M54.76,171.12c-0.324,0.018-0.582,0.116-0.809,0.246c0.348-1.433,0.458-2.936,0.49-4.448c2.204,0.326,4.388,0.188,6.565-0.573   c0.843-0.295,0.508-1.505-0.368-1.335c-2.081,0.404-4.13,0.51-6.192,0.236c-0.015-1.185-0.046-2.363-0.051-3.508   c2.366-0.268,4.776-0.428,7.102-0.941c0.615-0.136,0.481-1.12-0.149-1.099c-2.318,0.081-4.632,0.507-6.928,0.834   c0.059-2.537,0.256-5.214-0.16-7.708c1.927-0.018,3.828-0.163,5.742-0.61c0.901-0.21,0.495-1.477-0.373-1.353   c-1.908,0.273-3.83,0.38-5.754,0.378c-0.051-0.169-0.067-0.35-0.126-0.516c-0.054-0.151-0.167-0.233-0.258-0.343   c2.098-1.169,4.166-2.45,6.186-3.819c1.959-0.027,3.906-0.164,5.849-0.552c0.713-0.142,0.402-1.193-0.297-1.079   c-1.275,0.209-2.548,0.348-3.824,0.426c2.289-1.643,4.454-3.457,6.53-5.357c1.678-0.109,3.355-0.209,5.032-0.376   c0.845-0.084,0.879-1.386,0-1.346c-1.137,0.051-2.267,0.157-3.399,0.236c2.113-2.072,4.053-4.295,5.798-6.643   c0.882-0.092,1.766-0.172,2.647-0.286c0.413-0.054,0.432-0.704,0-0.664c-0.722,0.068-1.439,0.166-2.159,0.25   c1.367-1.906,2.576-3.909,3.639-5.986c1.243-0.14,2.486-0.275,3.726-0.451c0.609-0.087,0.471-1.132-0.146-1.08   c-0.992,0.084-1.978,0.204-2.964,0.313c1.249-2.644,2.189-5.438,2.84-8.348c0.716-0.095,1.432-0.19,2.148-0.285   c0.311-0.041,0.258-0.475-0.058-0.428c-0.667,0.098-1.334,0.196-2.002,0.294c0.397-1.871,0.701-3.779,0.807-5.759   c0.052-0.965,0.026-2.013-0.036-3.089c0.833-0.208,1.663-0.43,2.467-0.732c0.667-0.251,0.407-1.176-0.292-1.06   c-0.762,0.126-1.51,0.319-2.255,0.528c-0.228-2.35-0.733-4.841-1.483-7.241c0.838-0.104,1.674-0.22,2.499-0.394   c0.646-0.137,0.506-1.185-0.157-1.155c-0.922,0.042-1.841,0.158-2.757,0.28c-0.829-2.32-1.921-4.492-3.26-6.308   c0.417-0.115,0.83-0.197,1.261-0.414c0.543-0.273,0.166-1.184-0.416-0.988c-0.561,0.189-1.118,0.306-1.68,0.36   c-3.235-3.723-7.753-5.37-13.601-2.283c-1.013,0.535-1.042,1.57-0.57,2.321c-0.976,0.985-1.743,2.196-2.286,3.66   c-0.771,2.075-1.376,5.586-0.241,7.815c-1.998-0.062-4.03,0.102-6.006,0.136c-2.384,0.042-4.846-0.056-7.211,0.326   c-0.107-1.747-0.077-3.507,0.068-5.255c1.169-0.098,2.326-0.19,3.489-0.396c0.587-0.104,0.454-1.078-0.141-1.043   c-1.096,0.065-2.166,0.235-3.243,0.397c0.191-1.698,0.551-3.361,0.991-4.997c0.113,0.034,0.222,0.078,0.37,0.024   c2.105-0.767,4.193-1.168,6.418-1.416c0.839-0.094,0.885-1.379,0-1.346c-2.2,0.08-4.316,0.596-6.378,1.343   c0.825-2.588,2.007-5.021,3.502-7.232c1.97,0,3.937,0.012,5.908-0.088c0.573-0.029,0.574-0.862,0-0.891   c-1.73-0.088-3.458-0.074-5.186-0.078c1.413-1.874,3.116-3.526,5.082-4.919c2.111-0.046,4.211-0.189,6.328-0.564   c0.645-0.115,0.505-1.226-0.156-1.155c-1.257,0.135-2.523,0.223-3.788,0.304c1.598-0.858,3.296-1.612,5.213-2.108   c22.302-5.779,31.027,18.216,28.041,35.158c-2.698,15.305-12.551,28.921-19.723,42.418c-0.916,1.724,0.892,3.239,2.318,2.761   c9.034,1.29,19.239,2.143,28.218,0.148c-0.401,2.583-0.668,5.149-0.638,7.82c0.031,2.793-0.123,5.814,0.91,8.427   C88.559,169.187,71.606,170.196,54.76,171.12z"></path><path d="M201.11,140.446c-1.462-43.572-3.676-87.102-6.532-130.605c-0.051-0.782-0.503-1.283-1.061-1.552   c0.555-0.537,0.7-1.429,0.082-2.109c-1.926-2.121-5.115-1.689-7.788-1.76c-3.889-0.103-7.81-0.153-11.693,0.104   c-1.014,0.067-1.556,1.318-1.121,2.044c0.004,0.103-0.013,0.198,0.009,0.308c0.929,4.735,2.987,9.041,2.511,14.023   c-0.568,5.947-4.294,11.947-10.646,12.581c-14.496,1.446-11.001-19.117-9.12-27.223c0.123-0.53-0.107-1.01-0.473-1.324   c-0.093-0.524-0.377-1.007-1.008-1.141c-4.231-0.904-8.837-0.196-13.14,0.012c-3.481,0.169-7.809-0.183-11.22,0.948   c-0.273-0.094-0.619-0.098-0.814,0.142c-0.067,0.082-0.134,0.164-0.201,0.246c-0.156,0.192-0.212,0.407-0.211,0.628   c-1.101,0.181-1.976,1.307-1.305,2.698c2.416,5.008,3.369,9.734,1.359,15.095c-1.792,4.779-6.546,11.22-12.311,11.163   c-13.433-0.134-10.682-19.99-4.654-26.479c1.022-1.1,0.055-2.418-1.1-2.391c-0.239-0.154-0.5-0.276-0.801-0.312   c-3.939-0.465-8.03-0.084-12.005-0.196c-3.476-0.098-7.183-0.817-10.521,0.268c-0.036,0.012-0.052,0.044-0.085,0.059   c-0.946,0.035-1.865,1.095-1.654,2.119c0.986,4.796,2.983,9.091,1.726,14.123c-1.191,4.77-4.637,8.889-9.62,9.77   C64.072,34.099,64.677,16.457,68.49,8.579c0.573-1.185-0.368-2.162-1.349-2.121c-0.297-0.336-0.722-0.568-1.293-0.563   c-7.863,0.074-15.849,1.303-23.746,1.606c-0.063,0.002-0.095,0.057-0.154,0.069c-1.109,0.23-2.051,1.556-1.376,2.769   c2.7,4.858,5.057,9.91,3.922,15.628c-1.114,5.609-5.586,10.735-11.478,11.235C21.277,38.198,17.06,20.289,24.561,13.18   c0.869-0.824,0.342-2.124-0.552-2.538c-0.263-0.337-0.61-0.609-1.101-0.663c-3.627-0.398-7.521,0.235-11.161,0.566   c-3.266,0.298-6.801,0.281-9.848,1.527c-0.272,0.112-0.453,0.331-0.582,0.576c-0.393,0.041-0.759,0.296-0.78,0.84   c-0.047,1.199-0.051,2.407-0.092,3.607c-0.363,0.183-0.372,0.685-0.023,0.884c-1.719,52.048,2.214,105.386,4.616,157.345   c0.031,0.661,0.404,1.082,0.871,1.298c-2.609,25.336,24.556,22.66,44.723,22.344c42.439-0.665,85.01-0.678,127.418-2.612   c0.188,0.116,0.401,0.198,0.664,0.185C209.693,194.965,201.877,163.305,201.11,140.446z M11.275,21.822   c-2.678-0.235-5.405-0.058-8.09-0.019c-0.044,0.001-0.058,0.037-0.099,0.043c-0.11-1.235-0.221-2.47-0.324-3.708   c1.829,0.054,3.662,0.106,5.479-0.008c0.756-0.047,0.757-1.128,0-1.176c-1.852-0.116-3.719-0.06-5.583-0.005   c-0.079-0.918-0.147-1.839-0.24-2.754c3.285,0.661,6.805,0.153,10.126-0.064c2.401-0.157,4.879-0.217,7.3-0.51   c-3.074,4.423-3.13,10.921-2.217,16.051c1.171,6.579,6.754,11.276,13.406,11.754c16.822,1.21,21.497-19.318,14.052-31.133   c6.313,0.851,13.231,0.969,19.355-0.444c-5.107,10.733-1.973,27.62,12.863,26.198c12.665-1.214,18.188-17.205,12.562-27.523   c2.568,0.699,5.405,0.719,8.004,0.871c2.871,0.167,5.813,0.344,8.713,0.191c-6.783,9.639-5.237,27.19,8.251,29.19   c14.989,2.223,23.487-19.831,16.477-31.076c2.318,0.439,5.439-0.119,7.093-0.139c4.549-0.055,9.625,0.364,14.178-0.502   c-4.149,11.104-4.257,31.293,11.827,30.657c14.458-0.572,18.472-19.062,12.815-30.114c4.583,0.71,9.447,1.275,13.951,1.157   c-0.201,0.281-0.342,0.623-0.312,1.08c0.892,13.767,1.708,27.54,2.469,41.316C131.133,49.913,67.537,51.32,5.61,57.737   c-0.101-2.038-0.256-4.063-0.368-6.098c10.954-0.461,21.921-0.807,32.839-1.834c0.99-0.093,1.03-1.594,0-1.574   c-10.995,0.214-21.963,1.119-32.93,1.903c-0.128-2.259-0.295-4.507-0.438-6.762c1.277,0.145,2.556,0.099,3.694-0.537   c1.852,0.024,3.692-0.073,5.543-0.472c0.628-0.135,0.354-1.054-0.262-0.951c-1.73,0.289-3.462,0.409-5.199,0.44   c-0.112-0.064-0.248-0.094-0.396-0.07c-0.115,0.019-0.219,0.043-0.332,0.064c-0.681-0.004-1.359,0.035-2.043-0.016   c-0.284-0.021-0.42,0.177-0.429,0.393c-0.213,0.022-0.427,0.047-0.647,0.051c-0.186-2.883-0.352-5.771-0.561-8.648   c2.307-0.135,4.621-0.264,6.9-0.62c0.876-0.137,0.653-1.541-0.207-1.527c-2.269,0.036-4.536,0.306-6.798,0.565   c-0.216-2.893-0.506-5.764-0.755-8.648c2.674,0.04,5.388,0.215,8.054-0.02C12.273,23.289,12.275,21.91,11.275,21.822z    M180.736,193.3c-0.033-0.002-0.055-0.018-0.088-0.018c-27.865-0.271-55.779,0.688-83.638,1.205   c-14.172,0.263-28.342,0.593-42.513,0.915c-12.944,0.294-28.76,2.875-38.275-4.822c4.041,0.077,8.191-0.445,11.957-1.328   c0.855-0.2,0.694-1.665-0.212-1.564c-4.633,0.515-9.242,0.629-13.862,0.884c-1.949-2.16-3.471-5.001-4.567-8.505   c8.81,0.492,17.705,0.759,26.513,0.603c1.055-0.019,1.044-1.576,0-1.631c-8.935-0.472-17.977-0.518-26.936-0.323   c-0.455-1.74-0.835-3.599-1.057-5.699c-0.024-1.457-0.035-2.931-0.057-4.39c4.464-0.19,8.95-0.28,13.387-0.793   c0.743-0.086,0.789-1.204,0-1.195c-4.474,0.052-8.942,0.533-13.402,0.911c-0.05-3.423-0.085-6.873-0.129-10.306   c8.201-0.161,16.461-0.731,24.654-1.173c1.211-0.066,1.23-1.886,0-1.896c-8.16-0.07-16.596,0.307-24.673,1.562   c-0.047-3.851-0.093-7.722-0.138-11.583c11.384-0.691,22.867-1.203,34.162-2.74c1.009-0.137,0.761-1.802-0.24-1.769   c-11.325,0.373-22.667,1.803-33.94,3.027c-0.044-3.833-0.096-7.677-0.144-11.517c4.959-0.144,9.918-0.293,14.857-0.778   c0.761-0.075,0.796-1.227,0-1.214c-4.969,0.081-9.92,0.501-14.87,0.925c-0.061-4.816-0.132-9.638-0.207-14.46   c14.185,0.046,28.577-0.197,42.621-2.128c0.977-0.134,0.739-1.748-0.232-1.713c-14.146,0.509-28.258,1.742-42.411,2.303   c-0.057-3.528-0.157-7.057-0.227-10.586c5.182-0.494,10.372-0.92,15.495-1.857c0.642-0.118,0.494-1.164-0.154-1.136   c-5.152,0.224-10.259,0.961-15.37,1.627c-0.089-4.364-0.212-8.727-0.324-13.09c0.074,0.211,0.22,0.394,0.512,0.397   c6.401,0.083,12.815,0.303,19.215,0.066c0.866-0.032,0.867-1.314,0-1.346c-6.399-0.237-12.814-0.017-19.215,0.066   c-0.305,0.004-0.455,0.201-0.521,0.425c-0.104-4.04-0.226-8.077-0.355-12.114c5.177,0.097,10.384,0.262,15.54-0.074   c0.999-0.065,1.001-1.49,0-1.555c-5.174-0.337-10.396-0.169-15.59-0.073c-0.072-2.176-0.177-4.349-0.261-6.523   c2.587,0.038,5.173,0.087,7.76,0.023c0.951-0.023,0.953-1.455,0-1.479c-2.607-0.064-5.212-0.015-7.818,0.023   c-0.098-2.453-0.176-4.908-0.294-7.359c62.627-0.326,125.129-5.356,187.836-4.984c0.792,14.538,1.512,29.081,2.152,43.626   C196.659,120.452,208.715,184.563,180.736,193.3z"></path><path d="M138.454,100.203c0.072-2.88,0.079-5.765-0.003-8.644c-0.062-2.22,0.033-4.417-0.538-6.51   c3.961,0.823,8.141,0.807,12.16,0.991c4.586,0.21,9.296,0.796,13.838,0.043c0.073-0.012,0.095-0.079,0.161-0.1   c0.68,0.067,1.405-0.304,1.387-1.15c-0.091-4.311,0.004-9.754-1.505-13.979c0.515-0.773,0.338-1.912-0.523-2.421   c-3.936-2.33-12.195-0.589-16.69-0.562c-7.869,0.048-15.744,0.013-23.589,0.678c-0.583-0.822-1.961-0.712-2.046,0.562   c-1.002,14.988-1.192,32.046,1.154,46.895c0.154,0.975,1.016,1.08,1.719,0.75c0.155,0.101,0.282,0.23,0.506,0.257   c5.282,0.646,10.403-1.349,15.719-0.162c6.627,1.479,11.549,6.381,12.38,13.238c0.786,6.483-2.592,12.694-8.278,15.88   c-6.673,3.739-13.916,2.024-20.044-1.837c-0.566-0.357-1.171-0.282-1.678-0.005c-0.235-0.416-0.839-0.534-1.193-0.027   c-1.811,2.585-2.951,5.143-3.982,8.121c-0.962,2.777-2.301,5.878-2.141,8.846c0.04,0.752,0.618,1.206,1.242,1.287   c-0.273,0.491-0.226,1.154,0.407,1.562c20.817,13.427,48.873,3.531,56.027-20.499C179.939,119.93,162.881,97.691,138.454,100.203z    M168.149,145.262c-7.657,19.37-29.014,25.353-47.172,17.881c1.524,0.003,3.05,0.041,4.574-0.015c0.597-0.022,0.598-0.907,0-0.929   c-2.248-0.083-4.498-0.049-6.747-0.022c-0.227-0.109-0.461-0.193-0.687-0.306c-0.112-0.056-0.217-0.07-0.325-0.093   c0.007-0.01,0.018-0.01,0.024-0.02c0.768-1.27,1.239-2.718,1.632-4.195c2.709,0.012,5.42,0.033,8.127-0.045   c0.537-0.015,0.537-0.819,0-0.834c-2.629-0.076-5.261-0.058-7.892-0.046c0.247-0.992,0.484-1.984,0.763-2.933   c0.178-0.605,0.298-1.195,0.465-1.792c1.884,0.008,3.769,0.033,5.652-0.042c0.427-0.017,0.428-0.647,0-0.664   c-1.818-0.072-3.638-0.048-5.458-0.041c0.37-1.369,0.771-2.738,1.069-4.119c9.044,7.044,22.332,5.911,29.532-1.833   c1.792-0.154,3.583-0.33,5.35-0.665c0.61-0.116,0.469-1.103-0.147-1.08c-1.357,0.05-2.708,0.194-4.057,0.368   c1.415-1.854,2.508-4.019,3.186-6.473c1.767-0.016,3.456-0.368,5.129-1.115c0.408-0.182,0.117-0.884-0.307-0.728   c-1.503,0.554-3.031,0.792-4.587,0.864c0.156-0.701,0.305-1.406,0.389-2.153c0.17-1.524,0.133-3.064-0.057-4.584   c1.492-0.293,2.981-0.584,4.46-0.94c0.544-0.131,0.304-0.909-0.227-0.823c-1.468,0.238-2.919,0.539-4.373,0.838   c-0.42-2.435-1.292-4.785-2.561-6.894c0.532-0.067,1.068-0.1,1.597-0.193c0.462-0.081,0.356-0.844-0.111-0.819   c-0.692,0.037-1.377,0.145-2.064,0.223c-1.146-1.698-2.509-3.252-4.192-4.477c-0.892-0.649-1.773-1.149-2.651-1.59   c1.45,0.025,2.903,0.065,4.353,0.033c0.488-0.011,0.489-0.748,0-0.758c-1.684-0.037-3.372,0.015-5.056,0.038   c-0.175,0.003-0.26,0.117-0.296,0.246c-6.666-2.822-13.092-0.473-20.518,0.174c0.165-1.753,0.195-3.593,0.29-5.393   c0.035,0.017,0.047,0.057,0.089,0.066c2.353,0.506,4.618,0.345,6.91-0.347c0.678-0.205,0.398-1.224-0.292-1.06   c-2.179,0.516-4.255,0.526-6.459,0.234c-0.08-0.011-0.127,0.04-0.191,0.061c0.108-2.336,0.139-4.708,0.142-7.089   c0.42-0.027,0.802-0.162,1.166-0.351c0.017-0.001,0.027,0.013,0.044,0.01c1.693-0.304,3.38-0.617,5.064-0.967   c0.458-0.095,0.259-0.771-0.192-0.695c-1.25,0.213-2.493,0.457-3.737,0.699c0.03-0.035,0.064-0.057,0.093-0.094   c0.31-0.385-0.112-1.124-0.586-0.759c-0.587,0.451-1.199,0.61-1.852,0.688c-0.016-2.434-0.066-4.88-0.157-7.326   c1.762-0.118,3.526-0.153,5.305-0.046c0.545,0.033,0.522-0.776,0-0.834c-1.788-0.202-3.561-0.158-5.332-0.019   c-0.09-2.199-0.255-4.376-0.398-6.561c1.473-0.031,2.939-0.198,4.351-0.655c0.508-0.164,0.458-1.055-0.133-0.987   c-1.446,0.167-2.867,0.302-4.295,0.372c-0.136-1.947-0.292-3.881-0.459-5.802c1.758,0.005,3.5-0.006,5.259-0.167   c0.609-0.056,0.61-0.892,0-0.948c-1.797-0.165-3.576-0.174-5.374-0.168c-0.181-1.972-0.374-3.929-0.599-5.846   c6.186,0.497,12.369,0.568,18.578,0.618c3.028,0.025,6.056,0.039,9.084,0.05c1.514,0.006,3.028,0.011,4.542,0.017   c1.829,0.45,3.376,0.117,4.675-0.904c-0.432,3.849,0.714,8.275,1.815,12.206c-4.009-0.68-8.198-0.514-12.244-0.604   c-4.544-0.102-9.247-0.516-13.718,0.396c-0.394,0.08-0.592,0.352-0.705,0.662c-0.319,0.175-0.603,0.415-0.721,0.76   c-0.968,2.81-0.263,6.047-0.018,8.962c0.251,2.988,0.57,5.975,0.991,8.944c0.058,0.409,0.28,0.649,0.561,0.788   c0.264,0.399,0.665,0.707,1.197,0.731c11.632,0.531,23.03,2.662,29.28,13.756C171.81,125.746,171.713,136.245,168.149,145.262z"></path></g><g></g><g></g><g></g><g></g><g></g><g></g><g></g><g></g><g></g><g></g><g></g><g></g><g></g><g></g><g></g></svg>