<svg xmlns="http://www.w3.org/2000/svg" xmlns:xlink="http://www.w3.org/1999/xlink" fill="currentColor" version="1.1" id="Capa_1" viewBox="0 0 273.715 273.715" xml:space="preserve"><g><path d="M122.114,66.782c2.862-4.615,0.884-11.841-3.473-15.42c-5.207-4.276-12.38-4.116-17.387-0.362   c0.387-7.412-6.959-14.418-14.185-15.384c-9.096-1.216-17.868,4.403-20.699,12.745c-2.2-4.293-9.12-6.515-13.541-5.419   c-4.605,1.142-8.796,5.431-8.512,9.867c-5.339-3.292-13.191-2.038-16.611,3.623c-2.907,4.814-0.736,12.424,4.22,14.316   c-8.59,4.771-7.308,19.219-0.465,25.771c1.966,1.882,4.757,3.296,7.807,4.15c-0.318,0.24-0.548,0.606-0.566,1.118   c-0.94,26.638,3.919,53.501,16.485,77.142c-25.351-7.42-60.013-0.369-54.63,32.524c2.492,15.227,15.576,24.268,29.929,26.584   c23.338,3.766,51.744-1.862,74.972-4.816c0.528-0.067,0.883-0.377,1.092-0.755c13.819-4.258,19.205-18.204,19.694-32.709   c1.151-34.121-10.445-66.044-5.088-100.595c0.044-0.289-0.003-0.541-0.086-0.773c3.381-0.453,6.687-2.011,9.219-4.925   C138.304,84.237,132.731,70.249,122.114,66.782z M106.13,230.631c-0.185-0.092-0.399-0.154-0.67-0.142   c-21.786,0.956-43.969,5.506-65.771,4.751c-8.241-0.285-13.774-1.495-21.03-5.57c-2.123-1.192-3.907-2.548-5.521-3.974   c4.836,0.161,9.674,0.087,14.491-0.416c0.728-0.076,0.749-1.215,0-1.156c-5.232,0.41-10.447,0.586-15.689,0.526   c-1.922-1.899-3.395-3.969-4.532-6.131c2.02,0.032,4.038,0.075,6.059,0.023c0.585-0.015,0.586-0.895,0-0.91   c-2.16-0.056-4.317-0.011-6.476,0.024c-0.865-1.824-1.444-3.717-1.804-5.639c7.99-0.188,15.988-0.415,23.956-1.033   c0.576-0.045,0.594-0.912,0-0.91c-8.044,0.021-16.087,0.442-24.119,0.898c-0.467-3.317-0.149-6.698,0.731-9.999   c3.245,0.035,6.489,0.076,9.735,0.023c0.781-0.013,0.782-1.2,0-1.214c-3.128-0.052-6.254-0.01-9.381,0.022   c0.737-2.346,1.824-4.621,3.165-6.792c6.201,0.122,12.399-0.106,18.541-1.039c0.785-0.119,0.609-1.474-0.189-1.397   c-5.836,0.564-11.639,0.995-17.484,1.06c1.587-2.296,3.521-4.427,5.748-6.332c2.732-0.039,5.465-0.024,8.194,0.073   c0.797,0.028,0.787-1.184,0-1.232c-2.194-0.135-4.374-0.159-6.551-0.095c1.674-1.265,3.446-2.448,5.411-3.43   c13.41-6.7,33.38,0.412,45.729,5.876c0.793,0.351,1.433-0.681,0.689-1.179c-3.417-2.288-7.455-4.185-11.822-5.654   c-0.889-2.141-1.7-4.275-2.525-6.411c3.516,0.049,7.017,0.064,10.535-0.075c0.768-0.03,0.77-1.164,0-1.195   c-3.694-0.146-7.369-0.126-11.063-0.071c-0.938-2.47-1.812-4.94-2.659-7.411c1.708,0.02,3.417,0.046,5.126,0.024   c0.695-0.009,0.697-1.072,0-1.081c-1.832-0.024-3.663,0.005-5.496,0.026c-0.636-1.884-1.218-3.772-1.798-5.66   c2.935-0.069,5.87,0.017,8.796,0.33c0.706,0.076,0.873-1.122,0.169-1.248c-3.143-0.56-6.267-0.65-9.422-0.523   c-0.738-2.466-1.414-4.939-2.052-7.418c6.479,0.065,12.935,0.474,19.41,0.623c0.994,0.023,0.951-1.418,0-1.517   c-6.533-0.682-13.156-0.577-19.72-0.381c-0.741-2.963-1.354-5.951-1.946-8.944c2.67,0.115,5.344,0.228,8.014,0.129   c0.854-0.032,0.855-1.296,0-1.327c-2.747-0.102-5.499,0.019-8.245,0.137c-0.518-2.703-0.96-5.424-1.351-8.16   c6.882,0.163,13.893,0.491,20.721-0.163c0.974-0.093,0.976-1.423,0-1.517c-6.906-0.662-14-0.318-20.958-0.158   c-0.392-2.971-0.68-5.974-0.916-8.994c3.925,0.043,7.839,0.106,11.761-0.139c0.731-0.046,0.732-1.092,0-1.138   c-3.956-0.247-7.906-0.181-11.866-0.139c-0.159-2.294-0.262-4.607-0.329-6.934c3.741-0.145,7.458,0.08,11.189,0.369   c0.951,0.074,1.172-1.493,0.227-1.676c-3.794-0.737-7.602-0.819-11.449-0.588c-0.037-2.2-0.053-4.408,0.011-6.647   c0.006-0.223-0.036-0.414-0.102-0.585c7.101,1.251,14.87-0.592,17.068-7.077c1.202,4.774,5.315,8.413,10.95,8.757   c6.552,0.4,11.171-3.529,13.414-8.85c2.006,4.954,5.83,9.111,11.649,9.421c7.034,0.374,11.149-4.622,12.803-10.499   c2.47,3.4,6.524,5.362,10.765,5.584c-3.051,19.347-2.087,38.272,0.25,57.659C121.296,179.408,132.086,217.97,106.13,230.631z    M108.31,87.685c0.029-0.71,0.037-1.416,0.001-2.107c-0.038-0.747-0.493-1.216-1.044-1.418c-0.322-1.157-2.176-0.782-2.22,0.423   c-0.037,0.991,0.044,1.922,0.184,2.82c0.103,6.23-4.604,10.204-14.236,11.867c-4.129-2.65-6.288-6.447-6.476-11.39   c-0.194-1.945-2.897-1.98-3.052,0c-0.94,11.988-18.43,17.091-21.452,1.995c1.084-0.002,2.141-0.198,3.019-0.822   c0.681-0.484,0.552-1.87-0.479-1.767c-1.393,0.139-2.677,0.556-4.094,0.316c-1.557-0.264-2.772-1.053-3.948-2.073   c-0.622-0.539-1.713,0.158-1.206,0.93c0.765,1.166,2.07,2.155,3.536,2.786c-1.658,3.718-3.594,7.311-7.723,8.743   c-5.214,1.809-11.333-0.264-15.175-3.952c-0.083-0.08-0.148-0.164-0.229-0.244c2.518,0.15,5.032,0.306,7.561,0.343   c0.569,0.008,0.551-0.825,0-0.872c-2.832-0.242-5.659-0.361-8.494-0.464c-1.288-1.483-2.098-3.036-2.666-4.603   c0.015,0.001,0.02,0.015,0.035,0.014c2.488-0.065,4.979,0.096,7.444,0.439c0.657,0.092,0.967-0.887,0.282-1.024   c-2.576-0.513-5.1-0.683-7.726-0.572c-0.18,0.008-0.313,0.085-0.406,0.191c-0.364-1.331-0.457-2.671-0.373-3.998   c3.529-0.299,7.041-0.606,10.554-1.088c0.71-0.097,0.54-1.279-0.169-1.248c-3.407,0.15-6.789,0.469-10.18,0.797   c0.397-2.129,1.336-4.189,2.686-6.092c4.691,0.117,9.382,0.257,14.069-0.018c0.78-0.046,0.782-1.168,0-1.214   c-4.334-0.254-8.672-0.149-13.01-0.041c1.078-1.27,2.285-2.48,3.734-3.531c0.173-0.125,0.265-0.323,0.314-0.534   c0.11-0.275,0.074-0.566-0.144-0.757c-0.065-0.082-0.159-0.122-0.264-0.162c-0.007-0.002-0.009-0.008-0.016-0.01   c-2.586-0.493-4.825-1.921-6.198-3.79c2.332,0.05,4.667,0.107,6.988-0.122c0.718-0.071,0.72-1.048,0-1.119   c-2.584-0.255-5.185-0.16-7.781-0.109c-0.675-1.521-0.75-3.235-0.028-4.978c2.265,0.141,4.53,0.291,6.798,0.385   c1.045,0.043,1.024-1.534,0-1.612c-1.955-0.15-3.914-0.249-5.871-0.358c0.152-0.211,0.239-0.423,0.419-0.633   c4.113-4.804,9.377-2.938,13.695,0.025c-0.902,1.062-1.607,2.316-2.075,3.54c-0.366,0.956,1.221,1.632,1.664,0.701   c0.698-1.469,1.655-2.458,2.748-3.347c0.16-0.09,0.3-0.178,0.416-0.329c0.662-0.508,1.355-1.004,2.099-1.539   c0.819-0.589,0.308-1.72-0.665-1.577c-0.625,0.092-1.202,0.308-1.749,0.582c-1.435-4.75,2.985-8.894,7.707-9.236   c5.743-0.415,7.99,3.44,9.593,8.172c0.311,0.918,1.429,0.82,1.774,0c0.074-0.177,0.104-0.343,0.164-0.516   c0.219-0.087,0.406-0.235,0.462-0.516c1.698-8.387,9.262-14.339,17.852-14.045c9.475,0.325,12.846,8.032,12.47,16.264   c-0.059,1.29,1.788,1.739,2.403,0.651c0.257-0.456,0.454-0.915,0.64-1.376c4.087-3.188,9.488-4.473,14.282-1.581   c5.307,3.203,6.501,8.852,3.066,13.115c-0.834,0.031-1.326,0.668-1.4,1.381c-0.149,0.129-0.252,0.276-0.412,0.401   c-1.205,0.944,0.102,2.996,1.475,2.535c0.579-0.194,1.102-0.433,1.59-0.699c8.478,3.036,15.614,11.656,9,20.72   C122.248,98.326,111.725,95.533,108.31,87.685z"></path><path d="M273.381,204.175c0.788-15.677-6.859-32.144-23.565-35.724c-9.316-1.997-19.738-0.438-28.665,3.866   c14.069-24.343,18.797-52.09,15.874-80.021c4.09-0.196,8.111-2.046,10.891-5.826c5.416-7.365,1.996-19.943-7.124-21.758   c9.776-6.083,0.678-20.733-7.475-24.819c-8.785-4.404-21.031-1.989-24.839,6.53c-4.02-15.214-29.749-19.325-36.044-2.812   c-2.452-3.054-7.431-4.384-10.931-3.105c-4.222,1.543-6.453,5.94-5.508,10.044c-7.033-4.19-17.125,2.377-19.938,9.234   c-2.94,7.164-0.502,19.372,7.978,19.783c-5.069,6.139-1.906,16.726,4.991,20.281c1.704,0.878,3.503,1.299,5.27,1.336   c0.413,31.135-0.356,62.649,1.701,93.719c1.007,15.227,4.746,30.348,19.109,38.068c26.266,14.119,95.382,11.348,98.605-28.129   C273.738,204.525,273.585,204.322,273.381,204.175z M148.949,95.857c-3.664-2.811-4.207-6.198-3.595-9.727   c2.321,0.181,4.641,0.377,6.966,0.497c0.735,0.038,0.724-1.083,0-1.138c-2.256-0.169-4.517-0.264-6.777-0.372   c0.322-1.396,0.788-2.807,1.304-4.209c0.471,0.355,1.006,0.632,1.636,0.725c0.984,0.146,1.72-1.144,0.723-1.715   c-0.549-0.315-0.901-0.716-1.169-1.149c0.316-0.477,0.145-1.168-0.418-1.334c-0.03-0.509,0.012-1.041,0.2-1.612   c0.319-0.97-1.026-1.733-1.712-0.996c-0.642,0.691-0.925,1.57-0.942,2.467c-3.618-0.454-5.745-3-6.677-6.208   c2.86,0.238,5.633,0.141,8.442-0.493c0.653-0.147,0.525-1.283-0.161-1.192c-2.86,0.379-5.718,0.552-8.598,0.331   c-0.36-2.002-0.272-4.152,0.136-6.189c3.297,0.524,6.622,0.948,9.958,1.031c0.712,0.018,0.898-1.13,0.172-1.267   c-3.235-0.609-6.521-0.899-9.808-1.079c0.319-1.115,0.708-2.188,1.24-3.122c0.538-0.944,1.125-1.742,1.747-2.437   c2.217,0.144,4.434,0.298,6.654,0.294c0.84-0.002,0.817-1.224,0-1.289c-1.775-0.143-3.557-0.181-5.338-0.208   c3.983-3.213,9.193-2.646,14.483-0.921c1.15,0.375,1.778-1.09,1.098-1.884c-0.005-0.025,0.013-0.04,0.006-0.066   c-1.187-4.094,0.536-8.928,5.308-9.413c4.206-0.427,5.551,3.007,8.412,5.093c0.672,0.49,1.715-0.165,1.669-0.958   c-0.016-0.264-0.118-0.493-0.165-0.745c3.114-7.797,11.91-12.114,20.052-9.801c8.152,2.316,11.206,9.784,12.053,17.466   c0.159,1.45,2.386,2.048,2.756,0.373c0.012-0.055,0.007-0.105,0.019-0.16c0.218-0.126,0.398-0.321,0.425-0.663   c0.782-10.211,10.739-15.361,20.029-12.205c8.553,2.904,18.458,14.763,7.871,21.698c-0.807,0.529-0.826,1.613-0.357,2.276   c-0.065,0.525,0.191,1.088,0.843,1.304c7.545,2.498,13.242,9.649,8.086,17.421c-4.55,6.858-13.249,6.151-18.664,1.272   c-0.333-0.973-0.96-1.903-1.994-2.726c-0.95-0.757-2.717-0.099-2.25,1.31c3.901,11.757-14.452,11.557-18.087,2.868   c0.232-0.074,0.477-0.124,0.697-0.216c0.986-0.413,1.011-2.117-0.278-2.049c-3.052,0.163-6.066,1.186-9.147,1.429   c-1.009,0.079-1.039,1.577,0,1.593c1.147,0.018,2.407,0.03,3.674-0.004c1.022,9.598-6.198,20.134-16.944,18.397   c-8.811-1.425-14.403-9.372-15.672-17.748c-0.126-0.833-1.259-0.735-1.567-0.089c-0.384-0.037-0.789,0.19-0.851,0.723   C163.544,96.628,155.093,100.572,148.949,95.857z M216.453,236.556c-16.494,0.695-33.614-1.871-44.716-11.927   c4.771,0.757,9.605,0.95,14.456,0.63c0.821-0.054,0.838-1.284,0-1.289c-5.614-0.037-11.12-0.6-16.632-1.499   c-2.023-2.191-3.758-4.725-5.231-7.549c2.235,0.08,4.453,0.334,6.639,0.843c0.273,0.063,0.386-0.341,0.116-0.421   c-2.348-0.688-4.688-0.974-7.105-1.027c-1.626-3.273-2.865-6.972-3.602-11.191c-0.023-0.131-0.033-0.268-0.055-0.399   c8.434,0.827,16.888,1.437,25.366,1.379c0.881-0.006,0.876-1.331,0-1.365c-8.524-0.34-17.037-0.647-25.544-1.282   c-0.596-3.62-1.049-7.292-1.444-10.985c3.093,0.208,6.189,0.434,9.287,0.434c0.758,0,0.727-1.084,0-1.156   c-3.137-0.312-6.295-0.393-9.448-0.496c-0.347-3.422-0.607-6.875-0.815-10.343c6.458,0.115,12.913,0.292,19.368-0.068   c0.781-0.044,0.781-1.167,0-1.214c-6.48-0.381-12.962-0.22-19.448-0.125c-0.219-3.951-0.34-7.93-0.425-11.92   c3.099-0.005,6.168-0.028,9.259-0.352c0.706-0.074,0.732-1.08,0-1.119c-3.109-0.163-6.18-0.023-9.28,0.135   c-0.063-3.488-0.037-6.993-0.031-10.495c6.372,0.301,12.821,0.44,19.124-0.598c0.885-0.146,0.643-1.515-0.207-1.527   c-6.308-0.086-12.61,0.365-18.923,0.355c0.018-4.244,0.072-8.491,0.136-12.729c2.791,0.39,5.566,0.269,8.332-0.458   c0.829-0.218,0.467-1.398-0.348-1.262c-2.661,0.447-5.299,0.492-7.962,0.287c0.042-2.647,0.076-5.262,0.119-7.898   c4.699,0.033,9.391,0.046,14.091-0.092c0.951-0.028,0.953-1.451,0-1.479c-4.692-0.137-9.375-0.125-14.066-0.092   c0.063-3.958,0.111-7.894,0.143-11.815c2.449-0.206,4.885-0.166,7.346-0.325c0.68-0.044,0.904-1.079,0.169-1.248   c-2.448-0.561-5.004-0.396-7.495-0.062c0.015-2.411-0.027-4.772-0.037-7.16c3.797,0.25,7.611,0.566,11.41,0.552   c1.015-0.004,0.983-1.47,0-1.555c-3.784-0.327-7.611-0.327-11.417-0.391c-0.014-1.832,0.007-3.693-0.029-5.506   c3.893-1.002,7.178-3.851,8.173-7.874c2.198,9.456,10.531,17.988,20.906,16.637c9.362-1.219,20.026-12.369,15.341-21.956   c0.128-0.017,0.251-0.046,0.378-0.064c1.706,6.635,9.741,10.249,16.269,9.056c3.366-0.615,7.234-3.956,8.265-7.523   c2.08,1.681,4.548,2.685,7.095,3.09c0.001,0.011-0.004,0.018-0.003,0.03c3.082,28.892-2.848,55.542-15.412,81.493   c-7.267,4.084-13.279,10.083-16.452,17.543c-0.472,1.11,1.064,2.103,1.67,0.976c7.464-13.88,24.503-22.066,40.227-20.864   c20.655,1.579,27.093,18.927,26.762,36.818C262.767,229.318,237.336,235.676,216.453,236.556z"></path><path d="M154.526,91.496c-2.739-0.445-5.508-0.7-8.264-1.016c-0.663-0.076-0.825,1.071-0.159,1.173   c2.742,0.423,5.48,0.908,8.239,1.203C155.11,92.938,155.296,91.621,154.526,91.496z"></path></g><g></g><g></g><g></g><g></g><g></g><g></g><g></g><g></g><g></g><g></g><g></g><g></g><g></g><g></g><g></g></svg>