<svg xmlns="http://www.w3.org/2000/svg" xmlns:xlink="http://www.w3.org/1999/xlink" fill="currentColor" version="1.1" id="Capa_1" viewBox="0 0 276.318 276.318" xml:space="preserve"><g><path d="M191.42,62.269c-6.651-19.89-29.253-27.433-48.448-22.768c-19.219,4.671-35.418,22.005-31.77,42.744   c2.696,15.33,18.862,30.799,33.522,20.662c3.453,11.554,22.188,6.709,25.82-3.019c0.312,0.31,0.723,0.54,1.276,0.57   C193.113,101.617,196.941,78.778,191.42,62.269z M171.821,96.514c-0.261-0.009-0.476,0.047-0.683,0.113   c0.695-12.565-14.483-21.479-22.659-9.637c-0.598,0.867,0.727,1.854,1.445,1.114c7.595-7.835,20.633-1.319,17.433,9.763   c-1.161,4.022-5.875,7.123-9.872,7.803c-4.732,0.805-7.49-1.411-10.594-4.589c0.303-0.74-0.6-1.529-1.407-1.184   c-20.009,8.541-34.67-12.611-30.445-30.567c3.649-15.505,18.515-24.943,33.48-26.742c12.487-1.501,25.777,1.788,33.9,11.959   C190.98,65.271,196.835,97.377,171.821,96.514z"></path><path d="M144.384,73.302c-1.242-0.342-2.565,0.629-2.544,1.937c0.001,0.089,0.022,0.148,0.027,0.23   c-0.793,1.367-0.13,3.748,2.02,3.907C147.829,79.667,147.794,74.241,144.384,73.302z"></path><path d="M162.857,69.066c-1.382,0.433-2.197,1.791-2.229,3.087c-0.053,0.688,0.112,1.405,0.624,2.032   c1.522,1.868,4.672,1.442,5.471-0.895C167.519,70.967,165.318,68.295,162.857,69.066z"></path><path d="M232.796,148.235c5.747-8.983,6.798-20.706,1.066-29.881c0.485-1.778-2.14-2.371-2.824-0.707   c-1.888,4.595-3.898,9.117-8.068,12.089c-3.018,2.152-6.547,2.927-9.784,2.091c-0.048-0.304-0.227-0.598-0.598-0.814   c-14.333-8.342-0.76-31.025,0.095-42.303c0.69-9.091-0.674-18.441-4.098-26.899c-6.829-16.866-21.228-29.267-38.746-33.563   C166.273-2.699,116.647-4.865,95.191,5.808C84.268,11.241,76.245,21.86,73.716,33.783c-5.112,24.106,22.029,53.754,3.014,75.131   c-3.301-5.179-11.369-6.24-14.897-0.225c-1.961,3.341-1.974,7.808,0.311,10.993c1.219,1.7,3.176,3.056,5.255,3.509   c-11.127,15.36-18.129,34.594-19.501,52.684c-14.233-0.025-9.965,16.298-1.065,21.616c-7.652,11.59,0.798,30.736,14.233,33.3   c11.569,2.208,23.368-7.773,22.034-19.431c2.518,1.471,5.626,1.214,7.363-1.838c2.47-4.338-0.536-8.654-3.612-11.715   c2.474-1.541,4.455-3.554,5.66-6.148c0.083-0.178,0.106-0.35,0.127-0.52c0.967,0.059,1.932,0.125,2.898,0.189   c-0.085,25.609,3.141,52.928,7.12,78.18c0.019,0.118,0.073,0.204,0.116,0.301c-0.164,0.517-0.019,1.123,0.631,1.252   c32.219,6.375,67.05,5.46,99.743,4.766c0.023-0.001,0.037-0.012,0.06-0.013c0.908,0.766,2.764,0.285,2.975-1.295   c2.456-18.427,5.433-36.869,8.077-55.32c0.394-0.484,0.515-1.13,0.25-1.719c1.206-8.491,2.354-16.983,3.305-25.477   c1.07-0.026,2.144-0.052,3.213-0.079c0.69-0.017,1.129-0.398,1.357-0.881c0.286-0.143,0.534-0.395,0.675-0.783   c2.776-7.629,5.5-16.499,5.818-24.66c0.001-0.008-0.003-0.014-0.003-0.023c0.983-1.047,0.488-3.409-1.465-3.613   c-2.778-0.29-5.554-0.521-8.329-0.719C224.812,158.36,230.088,152.469,232.796,148.235z M82.909,71.95   c1.877,0.017,3.751,0.029,5.627-0.11c0.792-0.059,0.793-1.174,0-1.232c-2.001-0.148-4.002-0.126-6.006-0.108   c-0.753-2.618-1.528-5.177-2.28-7.7c2.312,0,4.626,0.021,6.936-0.07c0.781-0.031,0.782-1.183,0-1.214   c-2.444-0.096-4.891-0.074-7.338-0.074c-0.003-0.008-0.005-0.017-0.007-0.025c-0.736-2.487-1.299-4.948-1.753-7.384   c0.077,0.084,0.186,0.145,0.335,0.147c1.809,0.025,3.586,0.035,5.393-0.085c0.512-0.034,0.513-0.762,0-0.796   c-1.807-0.12-3.584-0.111-5.393-0.085c-0.255,0.003-0.379,0.174-0.425,0.364c-0.422-2.353-0.686-4.669-0.829-6.949   c1.205,0.009,2.41,0.035,3.613-0.012c0.866-0.034,0.867-1.313,0-1.346c-1.227-0.048-2.456-0.022-3.684-0.012   c-0.094-2.539,0.017-5.012,0.299-7.422c0.905,0.012,1.809,0.04,2.711-0.013c0.83-0.048,0.831-1.241,0-1.289   c-0.845-0.049-1.694-0.022-2.541-0.012c0.317-2.143,0.853-4.196,1.495-6.204c0.064,0.044,0.09,0.115,0.181,0.138   c1.478,0.382,2.902,0.543,4.413,0.277c0.759-0.134,0.564-1.326-0.179-1.322c-1.32,0.006-2.573,0.004-3.871-0.271   c-0.054-0.011-0.086,0.025-0.135,0.025c0.598-1.677,1.363-3.277,2.204-4.838c1.84,0.104,3.677,0.272,5.509,0.462   c0.826,0.086,1.011-1.289,0.197-1.452c-1.632-0.327-3.247-0.439-4.875-0.479c1.576-2.604,3.529-5.016,5.866-7.207   c2.722,0.407,5.535,0.577,8.245,0.891c0.618,0.072,0.741-0.939,0.146-1.08c-2.206-0.524-4.646-0.949-7.02-0.997   c1.85-1.567,3.932-2.997,6.234-4.291c4.825,0.168,9.655,0.222,14.469-0.204c0.969-0.086,1.002-1.571,0-1.536   c-3.949,0.14-7.893,0.307-11.84,0.412c1.835-0.878,3.755-1.702,5.866-2.401c1.508-0.499,3.103-0.919,4.739-1.295   c3.215,0.292,6.428,0.558,9.661,0.668c0.847,0.029,0.804-1.198,0-1.289c-1.376-0.156-2.753-0.247-4.13-0.359   c20.482-2.753,46.443,3.695,52.818,24.524c-22.869-13.424-59.392,5.904-65.156,31.13c-0.242,0.004-0.482,0.006-0.723,0.009   c-0.781,0.011-0.782,1.203,0,1.214c0.156,0.002,0.311,0.004,0.466,0.006c-0.284,1.517-0.474,3.05-0.524,4.6   c-2.28-2.895-3.868-5.72-4.758-8.627c1.029,0.257,2.133,0.413,3.128,0.353c0.668-0.041,0.869-1.032,0.164-1.21   c-1.138-0.287-2.379-0.335-3.568-0.216c-0.27-1.115-0.41-2.251-0.466-3.404c1.648-0.018,3.24,0.142,4.885,0.352   c0.619,0.079,0.739-0.935,0.146-1.08c-1.658-0.407-3.319-0.443-5.01-0.34c0.01-1.096,0.134-2.222,0.333-3.37   c1.393-0.213,2.645-0.131,4.033,0.105c0.732,0.124,1.061-0.955,0.313-1.134c-1.392-0.333-2.75-0.29-4.138-0.07   c0.303-1.339,0.731-2.717,1.333-4.16c0.522-1.251-1.401-1.878-2.079-0.877c-2.16,3.19-3.073,7.135-2.891,11.026   c-1.809-2.372-2.916-5.545-3.476-8.927c0.44,0.002,0.881,0.013,1.324-0.005c0.622-0.026,0.623-0.941,0-0.967   c-0.507-0.021-1.01-0.01-1.514-0.006c-0.178-1.378-0.241-2.783-0.23-4.183c1.028,0.138,2.054,0.294,3.089,0.347   c0.909,0.047,0.86-1.28,0-1.384c-1.014-0.123-2.037-0.145-3.058-0.185c0.086-1.829,0.375-3.597,0.771-5.286   c2.24,0.017,4.408,0.356,6.666,0.498c0.888,0.056,0.953-1.202,0.199-1.471c-2.037-0.727-4.308-0.765-6.493-0.582   c0.609-2.009,1.443-3.817,2.51-5.251c0.72-0.967-0.82-2.079-1.637-1.264c-6.724,6.703-6.518,25.455,2.088,31.119   c0.815,4.676,3.355,8.964,7.516,11.452c0.04,0.418,0.047,0.823,0.076,1.236c-0.069,0.001-0.138,0.003-0.206,0.004   c-0.927,0.011-0.929,1.43,0,1.441c0.098,0.001,0.196,0.004,0.295,0.005c0.113,3.245-0.138,6.36-0.731,9.338   c-0.113-0.189-0.284-0.341-0.575-0.353c-4.983-0.208-9.999,0.051-14.985,0.147C84.172,76.452,83.538,74.198,82.909,71.95z    M85.628,98.156c0.917,0.007,1.798-0.009,2.709-0.136c0.498-0.069,0.498-0.936,0-1.006c-0.828-0.115-1.632-0.124-2.457-0.123   c0.312-1.855,0.4-3.756,0.4-5.671c1.315,0.02,2.628,0.064,3.941-0.019c0.549-0.034,0.55-0.819,0-0.853   c-1.318-0.083-2.638-0.038-3.958-0.018c-0.032-1.449-0.159-2.913-0.327-4.382c1.654,0.088,3.305,0.191,4.963,0.162   c0.664-0.012,0.653-0.981,0-1.024c-1.696-0.111-3.39-0.085-5.087-0.077c-0.222-1.693-0.551-3.396-0.903-5.097   c4.909,0.099,9.847,0.346,14.752,0.141c0.155-0.007,0.244-0.091,0.348-0.158c-2.44,10.824-9.228,19.867-18.044,27.171   C83.818,104.249,84.965,101.254,85.628,98.156z M65.235,118.435c-0.371-0.394-0.58-0.876-0.82-1.342   c1.517-0.147,3.035-0.207,4.567-0.165c0.682,0.019,0.655-0.977,0-1.043c-1.703-0.17-3.364-0.058-5.034,0.171   c-0.3-1.017-0.35-2.108-0.192-3.166c1.406,0.033,2.814,0.059,4.216,0.01c0.708-0.025,0.709-1.075,0-1.1   c-1.311-0.046-2.626-0.025-3.941,0.004c0.226-0.745,0.523-1.464,0.968-2.088c2.964-4.153,7.503-1.914,10.511,0.958   c-0.058,0.458,0.109,0.907,0.436,1.221c-0.052,0.279,0.063,0.556,0.263,0.749c-2.365,2.37-4.564,4.95-6.668,7.629   C67.955,120.055,66.477,119.753,65.235,118.435z M50.029,178.894c6.642,0.618,13.304,0.9,19.963,0.357   c0.684-0.056,0.706-1.075,0-1.081c-6.592-0.05-13.168-0.061-19.751-0.413c0.419-2.414,0.95-4.702,1.465-7.006   c0.609,0.006,1.215,0.015,1.83-0.019c0.047,0.036,0.077,0.089,0.147,0.099c2.514,0.386,5.008,0.557,7.546,0.326   c0.645-0.059,0.668-1.049,0-1.024c-1.721,0.064-3.431,0.035-5.141-0.06c-0.041-0.077-0.034-0.171-0.133-0.212   c-1.248-0.512-2.577-0.777-3.91-0.725c0.896-3.797,1.974-7.414,3.137-10.96c6.1,0.566,12.369,0.661,18.395-0.225   c0.883-0.13,0.665-1.571-0.209-1.546c-5.923,0.173-11.735,0.347-17.622,0.125c0.906-2.639,1.911-5.202,2.967-7.732   c2.963,0.463,5.91,0.716,8.923,0.557c0.774-0.041,0.786-1.226,0-1.214c-2.833,0.046-5.666-0.064-8.485-0.35   c1.147-2.683,2.406-5.299,3.724-7.886c5.419,0.163,10.826,0.212,16.222-0.391c1.088-0.122,1.151-1.746,0-1.744   c-5.095,0.007-10.184,0.23-15.28,0.276c1.338-2.527,2.762-5.017,4.269-7.482c3.199,0.219,6.331,0.264,9.5-0.322   c0.695-0.128,0.516-1.209-0.164-1.21c-2.806-0.006-5.607,0.124-8.412,0.113c1.224-1.951,2.515-3.887,3.844-5.817   c5.003,0.041,10.008,0.117,15.008-0.052c1.049-0.035,1.051-1.595,0-1.631c-4.588-0.155-9.182-0.103-13.773-0.061   c1.641-2.321,3.372-4.633,5.169-6.945c0.134,0.123,0.286,0.236,0.515,0.248c4.056,0.222,8.034,0.112,12.014-0.729   c0.855-0.181,0.681-1.625-0.209-1.546c-3.703,0.328-7.402,0.603-11.121,0.538c1.119-1.411,2.222-2.822,3.41-4.236   c0.767-0.543,1.508-1.154,2.254-1.751c2.246,0.088,4.454,0.027,6.666-0.479c0.834-0.191,0.667-1.562-0.204-1.508   c-1.459,0.09-2.913,0.171-4.369,0.217c2.92-2.613,5.629-5.592,7.926-8.879c-1.063,9.744,0.568,19.322,4.186,28.086   c-1.64,2.215-3.074,4.713-4.336,7.353c-0.643,0.046-1.276,0.038-1.935,0.153c-0.914,0.158-0.524,1.543,0.383,1.39   c0.289-0.049,0.576-0.034,0.865-0.069c-3.862,8.79-5.56,19.177-4.19,28.15c-1.754,0.098-3.517,0.132-5.266,0.267   c-0.679,0.052-0.999,0.516-1.015,0.998c-0.779-0.008-1.591,0.497-1.561,1.428c0.143,4.428,0.957,8.881,1.597,13.262   c0.354,2.42,0.677,4.87,1.175,7.272c-9.223,2.792-20.84,3.382-30.144-0.518c3.121,0.332,6.244,0.658,9.375,0.816   c0.756,0.038,0.723-1.077,0-1.157c-3.942-0.436-7.913-0.611-11.873-0.835c-1.026-0.552-2.049-1.11-2.992-1.795   c-0.283-0.206-0.561-0.186-0.815-0.082C49.714,180.426,49.897,179.689,50.029,178.894z M101.006,154.271   c-2.765-0.357-5.527-0.312-8.296-0.103c0.167-1.802,0.368-3.598,0.644-5.391c5.025-0.059,10.052-0.088,15.07-0.374   c0.822-0.047,0.836-1.303,0-1.289c-4.965,0.079-9.921,0.409-14.877,0.714c0.254-1.495,0.527-2.989,0.926-4.48   c0.172-0.645,0.404-1.258,0.603-1.889c2.197-0.175,4.392-0.225,6.603-0.125c0.835,0.038,0.82-1.227,0-1.29   c-2.074-0.157-4.131-0.071-6.189,0.117c0.809-2.347,1.772-4.615,2.806-6.855c0.844,0.038,1.688,0.089,2.536,0.238   c0.815,0.144,1.179-1.067,0.348-1.262c-0.76-0.178-1.502-0.214-2.248-0.289c0.788-1.658,1.586-3.312,2.41-4.97   c7.431,16.026,21.719,28.943,38.979,34.287c-16.079-0.115-32.24-0.61-48.217,0.218c0.167-2.077,0.323-4.138,0.499-6.193   c2.803-0.144,5.595-0.087,8.402,0.074C101.754,155.451,101.711,154.362,101.006,154.271z M88.72,206.397   c-0.055,1.127-0.653,2.59-1.654,3.211c-1.61,0.997-3.289-0.215-4.567-1.206c-0.026-0.086-0.035-0.17-0.062-0.256   c-0.372-1.15-2.215-1.004-2.179,0.295c0.328,11.535-7.318,22.895-20.307,19.029c-2.463-0.733-4.55-2.058-6.309-3.75   c2.171,0.413,4.351,0.725,6.576,0.737c0.648,0.004,0.645-0.984,0-1.005c-2.633-0.084-5.214-0.371-7.771-0.99   c-1.179-1.381-2.132-2.977-2.933-4.67c4.697,0.375,9.382,0.873,14.072,1.325c0.621,0.06,0.773-1.007,0.149-1.099   c-4.878-0.712-9.773-1.023-14.692-1.215c-0.643-1.534-1.125-3.152-1.477-4.803c2.868,0.221,5.763,0.3,8.61-0.083   c0.536-0.072,0.58-0.874,0-0.872c-2.919,0.007-5.821,0.096-8.733,0.038c-0.297-1.646-0.414-3.308-0.439-4.956   c2.147-0.293,4.296-0.456,6.473-0.471c0.782-0.005,0.78-1.19,0-1.214c-2.182-0.066-4.339,0.139-6.489,0.452   c0.064-2.361,0.399-4.656,1.072-6.735c0.035,0.016,0.065,0.039,0.1,0.055c8.338,3.734,25.413,5.741,36.16,0.934   c0.048,0.065,0.07,0.134,0.133,0.196C86.334,201.179,88.86,203.522,88.72,206.397z M67.273,198.137   c-3.842-0.014-7.968-0.181-11.694-0.952c-1.062-0.233-2.124-0.466-3.186-0.699c-3.774-0.723-6.123-2.311-7.223-4.657   c2.096,0.199,4.188,0.44,6.282,0.71c0.69,0.089,0.833-1.058,0.163-1.21c-2.304-0.526-4.642-0.778-6.99-0.947   c-0.257-1.19-0.176-2.585,0.091-4.093c1.684-0.054,3.37-0.053,5.051,0.039c0.525,0.029,0.658-0.844,0.126-0.931   c-1.674-0.275-3.322-0.342-4.978-0.323c0.519-2.017,1.458-4.29,2.829-6.824c-0.058,1.182-0.112,2.364-0.121,3.532   c-0.006,0.733,0.864,1.07,1.408,0.809c0.045,0.113,0.038,0.236,0.135,0.334c7.976,8.001,27.332,10.02,37.488,4.379   c0.213,0.744,0.426,1.489,0.707,2.213c-0.191,0.556,0.056,1.273,0.836,1.334c0.333,0.026,0.669,0.042,1.001,0.065   C84.938,197.912,74.493,198.164,67.273,198.137z M100.225,208.057c2.958,0.041,5.915,0.095,8.873-0.02   c0.805-0.031,0.806-1.22,0-1.251c-3.021-0.117-6.041-0.059-9.063-0.018c-0.298-2.009-0.616-4.006-0.938-6   c5.123,0.151,10.274,0.218,15.394,0.071c1.086-0.031,1.088-1.656,0-1.688c-5.199-0.149-10.432-0.081-15.634,0.076   c-0.434-2.614-0.896-5.21-1.401-7.773c11.663,0.742,23.391,1.163,35.142,1.388c0.388,6.773,0.735,13.569,1.597,20.298   c0.018,0.138,0.091,0.23,0.166,0.316c-11.157-0.392-22.315-0.744-33.476-0.923C100.682,211.032,100.442,209.551,100.225,208.057z    M192.772,243.674c-12.74-0.057-25.433-0.471-38.119-1.022c1.271-7.865,1.982-16.859,0.82-24.72c0.005,0,0.011,0.001,0.016,0.001   c8.798,0.372,17.596,0.695,26.399,0.962c2.566,0.078,6.229,0.545,10.156,0.9c0.001,0.033-0.013,0.055-0.01,0.089   C192.739,227.84,192.714,235.704,192.772,243.674z M166.801,214.592c-10.545-0.33-21.088-0.735-31.633-1.107   c0.074-0.087,0.14-0.189,0.145-0.345c0.218-6.741-0.085-13.5-0.345-20.24c12.307,0.206,24.64,0.187,36.957,0.04   c0.598,7.281,1.097,14.561,1.636,21.847C171.308,214.719,169.055,214.663,166.801,214.592z M153.486,217.842   c-0.711,8.05-0.354,16.615-0.272,24.743c-10.766-0.477-21.538-1.026-32.324-1.554c-0.001-0.038,0.03-0.062,0.024-0.102   c-1.199-8.187-1.065-16.655-1.436-24.919C130.804,216.775,142.142,217.354,153.486,217.842z M103.401,235.699   c1.561,0.006,3.123,0.02,4.686-0.005c0.72-0.011,0.719-1.097,0-1.119c-1.598-0.047-3.195-0.056-4.793-0.072   c-0.156-1.77-0.338-3.537-0.508-5.305c2.33,0.021,4.658,0.032,6.987-0.085c0.597-0.03,0.598-0.899,0-0.929   c-2.365-0.119-4.728-0.106-7.093-0.084c-0.19-1.934-0.435-3.853-0.643-5.782c3.371-0.13,6.744-0.246,10.106-0.499   c0.913-0.069,0.937-1.468,0-1.441c-3.422,0.098-6.841,0.339-10.259,0.563c-0.234-2.116-0.432-4.242-0.705-6.347   c5.316,0.484,10.637,0.889,15.961,1.262c0.448,8.196,0.107,17.057,2.012,25.094c-5.113-0.248-10.22-0.508-15.346-0.721   C103.689,238.719,103.53,237.209,103.401,235.699z M105.41,269.1c-0.045-1.223-0.117-2.479-0.167-3.71   c3.474,0.222,6.997,0.123,10.432-0.365c0.711-0.101,0.538-1.274-0.169-1.248c-3.445,0.128-6.881,0.202-10.324,0.26   c-0.087-2.027-0.199-4.077-0.299-6.118c6.122,0.06,12.269,0.211,18.375-0.147c0.899-0.052,0.907-1.365,0-1.403   c-6.134-0.259-12.3-0.005-18.443,0.156c-0.108-2.099-0.262-4.225-0.385-6.334c2.567-0.101,5.129-0.091,7.701,0.036   c0.83,0.041,0.828-1.249,0-1.289c-2.595-0.129-5.181-0.003-7.764,0.227c-0.141-2.338-0.252-4.66-0.427-7.016   c9.655,1.421,19.407,2.415,29.199,3.148c-0.467,4.064,0.078,8.259,0.187,12.341c0.108,4.053-0.322,8.401,0.603,12.371   C124.431,269.556,114.931,269.185,105.41,269.1z M179.485,247.224c-1.199,7.989-1.159,16.658-1.362,24.781   c-14.468-0.43-28.901-1.263-43.339-1.956c1.079-3.946,0.703-8.357,0.7-12.412c-0.002-4.023,0.264-8.246-0.534-12.214   c14.866,1.057,29.822,1.422,44.723,1.487C179.612,247.018,179.509,247.068,179.485,247.224z M202.868,272.227   c-7.602,0.156-15.18,0.039-22.751-0.162c1.39-7.816,2.502-16.736,1.604-24.539c-0.028-0.24-0.164-0.433-0.315-0.607   c7.928,0.021,15.843-0.016,23.709-0.135C204.152,255.345,203.406,263.877,202.868,272.227z M205.47,243.605   c-3.552,0.057-7.096,0.063-10.639,0.058c0.969-7.802,0.697-15.848-0.075-23.654c5.312,0.364,10.771,0.324,14.487-1.328   C207.716,226.917,206.465,235.264,205.47,243.605z M209.87,215.465c-3.03-0.331-6.458,0.179-9.122,0.107   c-8.417-0.229-16.834-0.478-25.252-0.729c0.42-7.279,0.033-14.71-0.934-21.943c13.664-0.183,27.307-0.502,40.868-0.838   C213.24,199.649,211.428,207.502,209.87,215.465z M225.705,165.914c-2.164,7.368-3.392,15.285-5.035,22.811   c-43.858,0.761-87.798-0.794-131.612,0.14c0.087-1.774-0.043-3.569-0.238-5.363c5.667,0.429,11.243,0.122,16.757-1.353   c0.804-0.215,0.454-1.361-0.338-1.225c-5.504,0.942-11.003,1.429-16.575,1.145c-0.231-1.774-0.506-3.535-0.741-5.277   c0.085,0.052,0.153,0.122,0.276,0.125c2.142,0.046,4.263,0.094,6.403-0.018c0.616-0.032,0.603-0.893,0-0.948   c-2.135-0.195-4.259-0.23-6.403-0.266c-0.179-0.003-0.303,0.071-0.402,0.166c-0.236-1.88-0.433-3.77-0.658-5.654   c3.271,0.251,6.547,0.386,9.822,0.092c0.825-0.074,0.856-1.299,0-1.308c-3.35-0.036-6.691-0.053-10.033-0.224   c-0.206-1.583-0.413-3.166-0.731-4.728C132.301,170.085,179.399,161.406,225.705,165.914z M212.933,160.897   c-18.96-0.944-37.885-0.148-56.926,0.319c-0.755,0.019-1.513,0.017-2.268,0.03c-7.692-1.359-14.593-3.697-20.759-6.796   c3.861,0.099,7.672,0.477,11.507,0.95c0.589,0.073,0.732-0.947,0.141-1.043c-4.052-0.66-8.168-0.861-12.27-0.852   c-0.271,0.001-0.403,0.198-0.423,0.406c-4.058-2.132-7.758-4.629-11.105-7.441c3.28,0.289,6.56,0.577,9.843,0.825   c0.734,0.055,0.721-1.07,0-1.138c-3.756-0.352-7.514-0.661-11.274-0.963c-2.368-2.123-4.469-4.474-6.445-6.922   c8.827,0.372,17.645,0.763,26.483,0.691c0.86-0.007,0.848-1.277,0-1.327c-9.159-0.538-18.32-0.58-27.491-0.659   c-2.161-2.835-4.051-5.876-5.699-9.081c4.21,0.13,8.413,0.261,12.626,0.215c0.749-0.008,0.74-1.113,0-1.157   c-4.424-0.258-8.848-0.321-13.278-0.394c-1.061-2.189-1.982-4.469-2.804-6.809c4.229,0.237,8.479,0.287,12.711,0.359   c0.843,0.014,0.84-1.284,0-1.308c-4.369-0.126-8.758-0.286-13.131-0.228c-0.78-2.363-1.399-4.818-1.933-7.319   c1.989,0.027,3.983,0.063,5.963-0.082c0.658-0.048,0.66-0.976,0-1.024c-2.052-0.15-4.119-0.107-6.18-0.08   c-0.456-2.327-0.79-4.718-1.042-7.148c1.455-0.035,2.902-0.145,4.342-0.467c0.626-0.14,0.503-1.193-0.154-1.136   c-1.451,0.125-2.895,0.203-4.342,0.234c-0.178-2.069-0.246-4.188-0.26-6.331c1.768,0.28,3.478,0.357,5.274,0.162   c0.748-0.081,0.78-1.239,0-1.194c-1.755,0.1-3.502,0.044-5.243-0.207c-0.012-0.002-0.018,0.009-0.03,0.007   c0.005-0.574-0.016-1.136,0.002-1.715c0.746-1.335,1.397-2.707,2.003-4.092c1.537,0.082,3.072,0.182,4.617,0.179   c0.761-0.001,0.723-1.077,0-1.157c-1.361-0.151-2.725-0.205-4.088-0.285c1.137-2.843,1.932-5.767,2.356-8.705   c0.913,0.023,1.824,0.071,2.745,0.018c0.78-0.045,0.782-1.169,0-1.214c-0.866-0.049-1.724-0.003-2.583,0.017   c0.267-2.479,0.228-4.959-0.129-7.407c0.906,0.008,1.811,0.002,2.713-0.056c0.915-0.059,0.916-1.363,0-1.422   c-0.995-0.064-1.994-0.069-2.993-0.057c-0.113-0.546-0.212-1.095-0.361-1.636c-0.087-0.315-0.296-0.524-0.549-0.654   c0.275-1.632,0.675-3.2,1.129-4.738c1.824,0.026,3.646,0.041,5.471-0.072c0.719-0.044,0.72-1.075,0-1.119   c-1.691-0.104-3.378-0.098-5.067-0.077c0.767-2.313,1.792-4.472,2.93-6.554c0.111,0.101,0.251,0.181,0.454,0.174   c2.131-0.074,4.287-0.056,6.402-0.332c0.925-0.121,0.995-1.486,0-1.498c-2.057-0.025-4.118,0.228-6.167,0.406   c1.561-2.634,3.421-5.053,5.492-7.276c2.796-0.411,5.603-0.518,8.429-0.517c0.805,0,0.778-1.163,0-1.233   c-2.36-0.21-4.682-0.063-6.993,0.312c1.753-1.719,3.651-3.293,5.659-4.727c2.584,0.105,5.177,0.206,7.74-0.003   c0.901-0.074,0.903-1.329,0-1.403c-1.825-0.149-3.667-0.138-5.51-0.083c13.349-8.496,30.925-10.945,45.563-5.606   c0.38,0.139,0.667,0.021,0.899-0.175c0.533,0.084,1.141-0.196,1.113-0.852c-0.005-0.109-0.024-0.209-0.029-0.316   c34.801,14.895,44.563,43.771,34.17,79.454c-2.47,8.48-2.91,16.886,4.018,21.803c3.367,3.857,8.804,4.649,13.681,2.531   c5.425-2.355,8.853-7.384,10.987-12.743c2.915,8.235,2.505,16.601-2.105,24.41C227.514,151.072,220.247,159.184,212.933,160.897z"></path></g><g></g><g></g><g></g><g></g><g></g><g></g><g></g><g></g><g></g><g></g><g></g><g></g><g></g><g></g><g></g></svg>