<svg xmlns="http://www.w3.org/2000/svg" xmlns:xlink="http://www.w3.org/1999/xlink" fill="currentColor" version="1.1" id="Capa_1" viewBox="0 0 240.526 240.526" xml:space="preserve"><g><path d="M187.114,46.502c0.225-0.904,0.025-1.894-0.946-2.378c-0.16-0.08-0.328-0.121-0.489-0.194   c8.618-11.095,11.923-33.342-2.382-41.421c-16.899-9.545-30.417,10.201-33.359,24.664c-1.591-0.538-3.339-0.742-5.21-0.478   c-1.426,0.201-2.752,0.691-3.943,1.375c-3.802-13.609-17.968-30.276-33.512-24.404c-17.378,6.565-11.809,28.517-4.884,41.063   c-17.192,0.392-34.386,0.858-51.543,1.887c-0.55-0.674-1.814-0.51-1.854,0.602c-0.18,5.088-0.323,10.211-0.476,15.326   c-0.086,0.237-0.093,0.455-0.021,0.687c-1.711,57.994-1.563,117.528,2.102,175.124c0.065,1.028,0.85,1.545,1.626,1.544   c0.242,0.368,0.641,0.636,1.245,0.627c42.728-0.577,85.313-2.181,128.064-1.292c0.787,0.016,1.313-0.35,1.637-0.851   c0.517-0.182,0.928-0.639,0.937-1.381c0.742-62.922,0.293-125.491,4.391-188.348C188.572,47.499,187.94,46.784,187.114,46.502z    M145.496,34.572c-1.972,0.398-3.861,0.618-5.836,0.491c0.592-2.297,2.28-4.224,5.313-4.748c2.805-0.485,5.322,0.515,6.982,2.579   c-0.359,0.059-0.727,0.108-1.085,0.167c-0.684,0.113-0.531,1.276,0.165,1.217c0.581-0.049,1.172-0.117,1.755-0.168   c0.054,0.102,0.138,0.169,0.188,0.274c1.451,3.035,2.262,6.396-0.38,8.849c-0.089,0.083-0.095,0.204-0.157,0.301   c-3.239,0.08-6.477,0.158-9.716,0.239c-0.776-0.59-1.374-1.337-1.887-2.135c0.76-0.098,1.517-0.215,2.277-0.427   c0.997-0.278,0.547-1.878-0.425-1.544c-0.868,0.298-1.734,0.51-2.611,0.649c-0.543-1.289-0.736-2.679-0.626-4.013   c2.147,0.266,4.319,0.209,6.353-0.611C146.49,35.418,146.244,34.422,145.496,34.572z M101.363,33.002   c0.069,0.029,0.106,0.092,0.189,0.101c2.71,0.278,5.411,0.56,8.131,0.716c0.96,0.055,0.916-1.361,0-1.468   c-2.706-0.314-5.414-0.503-8.131-0.698c-0.248-0.018-0.42,0.075-0.534,0.213c-0.515-1.738-0.911-3.487-1.194-5.224   c7.339-0.94,14.663-1.125,22.068-0.962c1.075,0.023,1.057-1.59,0-1.659c-7.475-0.486-14.894,0.129-22.266,1.331   c-0.31-2.578-0.235-5.097,0.35-7.476c4.153-0.244,8.304-0.632,12.43-1.101c0.882-0.1,0.92-1.474,0-1.41   c-4.016,0.278-8.039,0.642-12.043,1.124c0.922-2.651,2.594-5.085,5.328-7.148c13.798-10.404,28.48,8.94,32.824,20.459   c-1.539,1.598-2.525,3.704-2.611,6.146c-0.061,1.75,0.342,3.439,1.049,4.972c-0.079,0.285,0.042,0.589,0.359,0.722   c0.444,0.803,0.951,1.567,1.58,2.227c-3.447,0.087-6.894,0.168-10.342,0.255c-7.574,0.19-15.152,0.354-22.731,0.523   c-0.535-1.333-1.12-2.744-1.713-4.208c3.975,0.251,7.962,0.17,11.888-0.569c0.761-0.143,0.598-1.454-0.185-1.367   c-4.089,0.455-8.13,0.73-12.231,0.609C102.796,37.141,102.026,35.086,101.363,33.002z M53.832,237.355   c0.118-2.909,0.184-5.844,0.284-8.762c12.213-1.053,24.453-2.043,36.616-3.571c0.91-0.114,0.962-1.532,0-1.468   c-12.21,0.811-24.394,2.165-36.564,3.453c0.134-4.038,0.212-8.101,0.314-12.154c4.847,0.257,9.691,0.527,14.545,0.561   c1.016,0.007,0.993-1.491,0-1.563c-4.828-0.351-9.665-0.468-14.503-0.597c0.074-3.066,0.107-6.146,0.163-9.219   c7.059,0.219,14.088,0.065,21.124-0.71c1.062-0.117,1.105-1.771,0-1.696c-7.026,0.474-14.053,0.693-21.091,0.578   c0.031-1.799,0.007-3.612,0.032-5.413c3.167-0.388,6.321-0.484,9.53-0.336c1.032,0.048,0.994-1.482,0-1.582   c-3.188-0.323-6.369-0.131-9.521,0.351c0.045-3.465,0.004-6.951,0.029-10.422c5.201-0.118,10.402-0.234,15.594-0.567   c1.007-0.064,1.028-1.59,0-1.582c-5.201,0.039-10.396,0.294-15.59,0.547c0.016-2.572-0.025-5.154-0.02-7.729   c8.151-0.54,16.314-1.01,24.427-1.969c1.018-0.12,1.08-1.678,0-1.639c-8.161,0.289-16.296,1.072-24.431,1.784   c0.004-3.949-0.059-7.905-0.077-11.858c9.735-1.029,19.474-1.353,29.247-1.969c1.025-0.064,1.035-1.553,0-1.601   c-9.77-0.46-19.569,0.518-29.258,1.816c-0.016-2.847-0.075-5.695-0.102-8.543c4.14-0.13,8.28-0.247,12.417-0.482   c0.948-0.054,0.963-1.515,0-1.487c-4.149,0.122-8.29,0.361-12.434,0.59c-0.047-4.633-0.143-9.263-0.218-13.895   c7.161-0.371,14.319-0.728,21.463-1.368c1.069-0.096,1.109-1.723,0-1.697c-7.175,0.169-14.332,0.624-21.494,1.064   c-0.078-4.575-0.255-9.128-0.359-13.698c5.838-0.067,11.632-0.651,17.347-1.931c1.091-0.244,0.615-1.838-0.456-1.654   c-5.627,0.964-11.256,1.545-16.938,1.819c-0.1-4.242-0.263-8.464-0.382-12.7c5.481-0.401,10.975-0.796,16.383-1.754   c0.803-0.142,0.602-1.414-0.19-1.404c-5.432,0.067-10.846,0.704-16.248,1.329c-0.108-3.757-0.256-7.497-0.378-11.249   c10.622-1.071,21.313-2.06,31.827-3.858c1.149-0.197,0.889-2.117-0.276-2.041c-10.568,0.691-21.122,2.21-31.627,3.629   c-0.137-4.125-0.302-8.236-0.456-12.352c6.485-0.363,13.004-0.837,19.413-1.77c0.961-0.14,0.726-1.716-0.228-1.685   c-6.413,0.214-12.86,0.907-19.25,1.695c-0.164-4.283-0.398-8.529-0.588-12.798c7.965-0.306,15.927-0.495,23.898-0.667   c1.315-0.028,1.311-1.989,0-2.039c-7.997-0.308-16.015-0.063-23.997,0.554c-0.186-4.028-0.327-8.08-0.555-12.085   c21.872,0.355,43.759-0.262,65.627-0.658c4.412-0.08,8.823-0.161,13.235-0.241c0.296,61.96-2.412,123.961-1.981,185.869   C103.314,234.611,78.489,235.312,53.832,237.355z M157.596,234.285c0.003,0.182,0.116,0.272,0.178,0.409   c-9.381-0.118-18.77-0.192-28.163-0.172c6.719-61.07,6.045-124.602,3.881-185.923c4.837-0.088,9.675-0.176,14.512-0.264   c3.766-0.069,7.532-0.139,11.297-0.211C157.935,110.074,156.479,172.33,157.596,234.285z M180.95,235.068   c-7.079-0.14-14.174-0.248-21.27-0.343c0.074-0.143,0.194-0.245,0.203-0.44c0.083-1.858,0.143-3.719,0.222-5.578l3.808,0.047   c0.736,0.009,0.737-1.153,0-1.144c-1.255,0.015-2.511,0.031-3.766,0.046c0.107-2.549,0.155-5.105,0.253-7.655   c4.564,0.023,9.118,0.064,13.679-0.125c0.65-0.027,0.651-0.983,0-1.01c-4.547-0.189-9.088-0.149-13.638-0.126   c0.287-7.514,0.463-15.042,0.688-22.564c2.331-0.16,4.681-0.258,6.98-0.676c0.514-0.093,0.385-0.904-0.122-0.899   c-2.283,0.023-4.561,0.365-6.83,0.642c0.092-3.098,0.142-6.199,0.225-9.298c3.766-0.515,7.538-0.605,11.339-0.551   c0.752,0.011,0.715-1.065,0-1.144c-3.799-0.415-7.557-0.134-11.31,0.477c0.107-4.077,0.174-8.158,0.268-12.236   c0.07,0.029,0.11,0.09,0.198,0.095c2.693,0.154,5.396-0.12,7.797-1.405c0.608-0.325,0.188-1.267-0.463-1.098   c-2.45,0.639-4.776,1.239-7.335,1.187c-0.077-0.001-0.11,0.052-0.173,0.07c0.069-3.015,0.112-6.032,0.174-9.047   c2.482,0.093,4.978,0.221,7.454,0.009c0.698-0.059,0.699-1.027,0-1.086c-2.47-0.211-4.958-0.084-7.434,0.009   c0.067-3.257,0.087-6.516,0.146-9.774c4.255-0.576,8.432-0.459,12.708-0.488c0.933-0.006,0.875-1.302,0-1.411   c-4.205-0.524-8.53-0.024-12.69,0.705c0.077-4.227,0.11-8.452,0.178-12.679c1.79,0.115,3.552-0.139,5.294-0.74   c0.897-0.309,0.542-1.673-0.395-1.434c-1.629,0.417-3.241,0.528-4.876,0.521c0.049-3.114,0.075-6.227,0.12-9.341   c2.045,0.277,4.106,0.215,6.017-0.647c0.81-0.365,0.203-1.512-0.573-1.359c-1.853,0.366-3.565,0.622-5.424,0.463   c0.052-3.679,0.059-7.35,0.107-11.029c3.854-0.282,7.683-0.196,11.561-0.188c0.87,0.002,1.13-1.442,0.213-1.573   c-3.914-0.558-7.857-0.317-11.758,0.219c0.061-4.747,0.081-9.486,0.138-14.233c2.099,0.062,4.201-0.123,6.185-0.832   c0.645-0.231,0.611-1.383-0.175-1.292c-2.023,0.236-3.995,0.49-5.995,0.557c0.048-4.007,0.07-8.007,0.117-12.013   c2.88,0.634,6.037,0.981,8.772,0.06c0.644-0.216,0.51-1.109-0.157-1.161c-2.908-0.223-5.719,0.003-8.602-0.308   c0.039-3.36,0.059-6.716,0.098-10.076c4.451,0.159,9.061,0.53,13.428-0.062c0.81-0.11,0.81-1.526,0-1.636   c-4.363-0.591-8.966-0.223-13.41-0.063c0.04-3.563,0.065-7.122,0.104-10.684c2.731,0.311,5.676,0.503,8.337,0.166   c1.027-0.13,1.029-1.471,0-1.601c-2.656-0.337-5.598-0.145-8.325,0.164c0.018-1.719,0.031-3.436,0.05-5.155   c2.985,0.066,5.962,0.097,8.952-0.043c1.213-0.057,1.215-1.83,0-1.887c-2.984-0.14-5.954-0.109-8.933-0.043   c0.014-1.426,0.035-2.853,0.042-4.278c0.137-0.003,0.273-0.005,0.41-0.008c2.971-0.059,14.761-2.55,19.17-3.234   c0.04,0.035,0.079,0.064,0.121,0.096c-1.032,0.749-1.301,2.543,0.049,3.354l0.623,0.375c0.058,0.035,0.135,0.046,0.2,0.074   C179.635,110.437,176.885,173.26,180.95,235.068z M182.214,42.465c-0.066,0.122-0.079,0.247-0.114,0.372   c-4.718-0.831-9.834,0.218-14.645,0.328c-3.359,0.077-6.719,0.167-10.078,0.248c0.483-1.135,0.577-2.533,0.517-3.94   c2,0.215,4.004,0.426,6.01,0.473c0.836,0.02,1.068-1.368,0.203-1.498c-2.103-0.315-4.229-0.46-6.353-0.602   c-0.202-1.392-0.524-2.728-0.898-3.718c-0.052-0.138-0.127-0.255-0.183-0.389c3.184-0.324,6.366-0.698,9.486-1.246   c0.799-0.14,0.621-1.484-0.193-1.423c-3.32,0.248-6.658,0.701-9.982,1.201c-1.021-1.797-2.419-3.234-4.087-4.218   c0.201-0.487,0.428-1.012,0.651-1.53c7.036-0.888,14.078-1.705,21.077-2.855c0.893-0.147,0.695-1.679-0.215-1.591   c-6.686,0.641-13.333,1.585-19.989,2.48c1.155-2.544,2.549-5.295,4.143-7.948c3.774-0.317,7.571-0.606,11.303-1.206   c0.912-0.146,0.698-1.655-0.218-1.61c-3.322,0.164-6.642,0.585-9.953,1.005c5.746-8.788,13.915-15.523,24.066-7.688   C194.178,15.922,187.605,32.435,182.214,42.465z"></path><path d="M168.657,206.561c-2.255-0.099-4.52-0.03-6.777-0.019c-0.81,0.004-0.811,1.254,0,1.258c2.257,0.011,4.522,0.08,6.777-0.019   C169.442,207.747,169.443,206.596,168.657,206.561z"></path></g><g></g><g></g><g></g><g></g><g></g><g></g><g></g><g></g><g></g><g></g><g></g><g></g><g></g><g></g><g></g></svg>