<svg xmlns="http://www.w3.org/2000/svg" xmlns:xlink="http://www.w3.org/1999/xlink" fill="currentColor" version="1.1" id="Capa_1" viewBox="0 0 273.394 273.394" xml:space="preserve"><g><path d="M272.273,190.991c-0.17-0.503-0.509-0.805-0.9-0.958c-0.053-0.295-0.185-0.589-0.5-0.844   c-35.227-28.573-71.546-58.835-110.736-81.846c6.145-10.537,12.61-20.879,19.621-30.886c5.343-6.789,13.182-11.243,22.229-9.84   c5.361,0.831,10.679,3.226,13.706,7.95c4.172,6.508,1.588,13.425-0.619,20.009c-0.082,0.247-0.085,0.476-0.048,0.693   c-3.806,7.768-3.346,18.137,4.825,22.791c8.709,4.961,20.723,5.532,25.54-4.637c0.056-0.119,0.075-0.242,0.096-0.363   c5.311-7.423,8.251-15.472,9.303-23.602c0.069-0.181,0.084-0.36,0.066-0.534c4.721-39.673-36.364-81.038-78.479-61.253   c-3.907,1.835-7.591,4.173-11.087,6.892c-0.067-0.004-0.134-0.008-0.201-0.011c-0.514-0.029-0.74,0.366-0.714,0.761   c-14.218,11.45-25.226,29.3-34.751,46.428C98.373,54.619,57.473,13.956,17.529,50.321C-0.596,66.822-3.674,89.16,3.769,108.411   c-0.259,0.177-0.211,0.649,0.185,0.66c0.026,0.001,0.053,0.001,0.079,0.002c5.656,14.117,16.973,26.51,32.207,33.599   c0.309,0.144,0.567,0.048,0.768-0.113c5.929,3.138,12.32,4.226,19.108-0.095c9.097-5.789,10.41-17.763,4.664-26.37   c-0.094-0.14-0.23-0.165-0.346-0.25c0.039-0.499-0.534-1.023-1.056-0.697c-0.139,0.087-0.272,0.167-0.411,0.253   c-7.104-6.674-18.061-12.544-19.668-22.913c-1.629-10.507,6.869-17.866,16.843-14.12c4.943,1.857,9.617,5.333,14.21,7.9   c0.453,0.253,0.888,0.261,1.26,0.124c12.61,9.691,26.397,18.027,39.69,26.669c0.201,0.13,0.398,0.203,0.589,0.233   c-20.252,34.204-41.297,68.74-58.414,104.604c-5.916,10.315-8.453,22.99,3.901,29.98c12.291,6.954,23.257,0.759,30.274-9.676   c20.989-31.208,37.312-65.344,54.864-98.751c14.552,14.81,33.133,25.664,50.222,37.273c19.267,13.089,38.576,26.116,57.942,39.058   c0.517,0.346,1.014,0.322,1.43,0.121c4.622,2.883,11.993-0.15,15.56-3.801C273.109,206.535,274.736,198.283,272.273,190.991z    M221.581,155.584c4.441,3.259,8.819,6.608,13.235,9.903c-5.74-0.359-11.497-0.506-17.243-0.802   c0.401-1.235,0.89-2.456,1.394-3.676c1.933,0.199,3.868,0.401,5.811,0.422c0.774,0.008,0.719-1.071,0-1.166   c-1.775-0.236-3.564-0.318-5.352-0.392C220.065,158.433,220.77,157.003,221.581,155.584z M242.914,111.737   c-0.155,0.221-0.218,0.436-0.239,0.644c-2.161,2.474-3.786,4.567-7.269,5.385c-4.169,0.978-9.382-0.107-13.189-2.223   c-8.017-4.455-6.68-11.598-4.913-18.746c11.239,4.54,24.546,3.578,34.036-4.036C249.857,99.264,247.14,105.693,242.914,111.737z    M252.192,88.457c-10.164,8.366-21.4,9.503-33.974,6.958c0.855-1.719,1.515-3.456,2.032-5.186   c4.791,1.013,9.693,1.468,14.581,1.099c0.674-0.051,0.69-1.041,0-1.06c-4.797-0.133-9.52-0.462-14.265-1.134   c0.384-1.492,0.627-2.973,0.751-4.431c2.408,0.329,4.818,0.676,7.236,0.903c0.559,0.052,0.697-0.911,0.133-0.989   c-2.445-0.338-4.909-0.557-7.368-0.793c0.092-1.932-0.04-3.818-0.418-5.619c6.713,0.915,13.429,1.714,20.213,1.887   c0.802,0.02,0.759-1.131,0-1.219c-6.845-0.796-13.717-1.282-20.575-1.939c-0.373-1.309-0.84-2.582-1.51-3.767   c2.068-0.587,4.046-1.55,5.908-2.785c5.426,1.077,10.959,1.621,16.488,1.275c0.924-0.058,0.941-1.435,0-1.449   c-5.041-0.072-10.008-0.307-14.987-0.895c1.1-0.848,2.129-1.821,3.122-2.843c3.882,0.62,7.973,0.755,11.866,1.121   c0.736,0.069,0.884-1.118,0.174-1.284c-3.376-0.791-7.172-1.371-10.759-1.22c1.079-1.246,2.072-2.587,2.98-3.983   c2.624,0.453,5.299,0.972,7.914,1.113c0.675,0.037,0.793-0.989,0.157-1.163c-2.352-0.643-4.98-0.825-7.507-0.865   c0.693-1.135,1.316-2.305,1.883-3.492c2.508,0.59,5.019,1.25,7.541,1.595c0.665,0.091,0.905-0.748,0.277-1.005   c-2.257-0.927-4.896-1.318-7.439-1.482c1.351-3.027,2.304-6.146,2.664-9.137C249.489,58.148,254.308,73.322,252.192,88.457z    M217.895,31.7c7.383,2.945,13.735,7.193,18.932,12.321c-1.173,5.749-2.695,11.06-6.082,16.002   c-3.471,5.064-8.115,7.954-12.849,11.398c-2.439-3.319-6.15-5.975-11.317-7.524c-3.552-1.064-7.109-1.278-10.501-0.819   c1.076-10.669-2.629-26.937-12.517-33.183C193.523,26.484,204.833,26.489,217.895,31.7z M155.245,51.092   c1.684,0.202,3.587-0.036,5.124-0.016c3.252,0.042,6.502,0.034,9.753-0.059c0.965-0.028,0.969-1.485,0-1.502   c-2.642-0.045-5.282-0.054-7.924-0.042c-1.219,0.005-2.439,0.012-3.658,0.018c-0.61,0.004-1.219,0.007-1.829,0.009   c-0.023-0.005-0.041,0.007-0.064,0.002c1.81-2.057,3.676-4.016,5.598-5.868c5.98,0.214,11.951,0.2,17.931-0.188   c0.832-0.054,0.849-1.326,0-1.307c-5.542,0.122-11.084,0.206-16.627,0.285c2.348-2.167,4.792-4.14,7.324-5.918   c2.468,0.175,4.937,0.323,7.414,0.382c0.928,0.022,0.883-1.318,0-1.414c-1.725-0.187-3.453-0.309-5.181-0.431   c2.254-1.434,4.563-2.742,6.979-3.793c10.774,4.379,14.171,22.139,14.074,32.194c-5.391,1.18-10.253,4.115-13.756,8.466   c-0.624-0.17-1.342-0.038-1.816,0.62c-2.213,3.072-4.346,6.198-6.458,9.338c-0.442-3.791-1.676-7.442-3.426-10.841   c2.768,0.441,5.54,0.88,8.329,1.115c0.562,0.047,0.691-0.879,0.134-0.989c-2.987-0.59-6.023-0.943-9.05-1.313   c-0.863-1.528-1.851-2.988-2.933-4.376c2.79,0.387,5.581,0.774,8.386,1.035c0.51,0.047,0.635-0.822,0.122-0.902   c-3.11-0.487-6.24-0.821-9.369-1.169c-2.192-2.604-4.773-4.861-7.592-6.733c4.248,0.485,8.496,1.029,12.762,1.319   c0.74,0.05,0.702-1.041,0-1.131c-4.481-0.575-8.999-0.868-13.5-1.245c-0.234-0.02-0.349,0.114-0.407,0.276   c-1.149-0.697-2.333-1.329-3.557-1.877C153.082,53.693,154.155,52.379,155.245,51.092z M139.768,72.807   c3.276-5.253,6.729-10.45,10.406-15.355c11.219,5.533,17.703,14.895,20.307,26.86c-5.45,8.238-10.575,16.693-15.538,25.249   c-1.367-11.792-8.481-24.926-19.578-29.514C136.838,77.637,138.273,75.204,139.768,72.807z M51.051,142.042   c-7.012,2.365-13.658-0.54-19.505-4.349c-3.154-2.277-6.166-4.693-8.992-7.259c13.021,2.083,26.193-4.756,36.135-12.89   C64.404,126.312,61.547,138.502,51.051,142.042z M57.53,116.287c-12.062,7.476-22.796,13.043-37.666,11.536   c-1.265-1.26-2.462-2.573-3.624-3.911c5.334-0.195,10.666-0.358,15.987-0.778c0.705-0.056,0.725-1.133,0-1.113   c-5.595,0.156-11.172,0.596-16.755,0.985c-1.082-1.292-2.065-2.656-3.038-4.028c2.193,0.223,4.405,0.361,6.598,0.171   c0.502-0.044,0.52-0.793,0-0.795c-2.438-0.009-4.839-0.04-7.26-0.255c-0.573-0.84-1.082-1.724-1.61-2.595   c4.946-0.068,9.904-0.331,14.836-0.66c0.685-0.045,0.7-1.095,0-1.078c-5.149,0.129-10.321,0.321-15.456,0.739   c-0.992-1.715-1.865-3.512-2.672-5.355c2.17,0.063,4.339,0.102,6.507-0.062c0.499-0.038,0.5-0.739,0-0.778   c-2.298-0.174-4.598-0.121-6.898-0.052c-0.53-1.279-1.007-2.594-1.443-3.937c3.912,0.311,7.883,0.359,11.796,0.29   c0.814-0.014,0.8-1.201,0-1.255c-4.023-0.267-8.116-0.426-12.155-0.283c-0.324-1.099-0.637-2.205-0.887-3.353   c2.254-0.259,4.476-0.435,6.759-0.354c0.921,0.032,0.92-1.399,0-1.431c-2.33-0.082-4.674,0.136-6.944,0.684   c-0.539-2.874-0.812-5.734-0.807-8.562c9.526,7.937,22.508,10.81,34.278,6.363C40.562,105.056,49.747,112.5,57.53,116.287z    M37.351,82.149c-2.079,4.216-2.14,8.447-0.924,12.467c-12.075,3.079-24.223,0.696-33.509-8.003   c1.239-15.971,10.781-30.494,24.309-39.355c-1.971,10.428,3.951,24.807,13.306,30.303C39.365,78.745,38.292,80.243,37.351,82.149z    M42.136,76.217c-1.195-0.958-2.31-2.059-3.374-3.229c5.773,0.314,11.6,0.231,17.338-0.328c0.843-0.082,0.878-1.375,0-1.343   c-6.155,0.226-12.284,0.339-18.437,0.344c-1.211-1.482-2.285-3.107-3.255-4.796c3.24,0.354,6.497,0.501,9.754,0.307   c0.687-0.041,0.699-1.091,0-1.078c-3.452,0.065-6.884-0.028-10.325-0.199c-0.845-1.584-1.568-3.236-2.164-4.922   c8.612,0.179,17.344,0.085,25.851-1.288c0.713-0.115,0.537-1.268-0.169-1.249c-8.708,0.226-17.388,0.989-26.1,1.23   c-0.73-2.357-1.174-4.765-1.333-7.153c4.005,0.347,8.028,0.556,12.042,0.371c0.927-0.042,0.938-1.437,0-1.449   c-4.025-0.049-8.046-0.041-12.07-0.11c-0.037-1.635,0.026-3.258,0.312-4.835c0.019-0.103,0.002-0.191,0-0.285   c5.274,0.218,10.568,0.282,15.843,0.153c1.023-0.025,1.025-1.565,0-1.59c-4.964-0.121-9.945-0.059-14.911,0.127   c0.006-0.003,0.011-0.007,0.017-0.01c15.799-8.593,31-6.306,45.363,0.678c-11.177,6.957-10.962,25.442-6.401,36.895   C61.75,77.337,50.134,70.464,42.136,76.217z M99.764,101.48c-0.046-0.003-0.069,0.034-0.11,0.041   c-8.797-6.007-17.676-11.969-26.922-17.145c-3.867-10.907-5.308-30.421,6.762-36.898c0.126-0.068,0.199-0.159,0.293-0.242   c10.858,5.848,21.208,14.159,30.956,22.205c-7.436,6.027-12.197,15.347-12.044,24.775c-0.445,0.297-0.412,0.945,0.051,1.272   c0.13,2.009,0.405,4.016,1.021,5.992C99.77,101.48,99.767,101.48,99.764,101.48z M101.86,103.02   c-0.003-0.029-0.003-0.057-0.006-0.086c3.543,0.402,7.228,0.366,10.66-0.447c0.751-0.178,0.609-1.438-0.186-1.371   c-3.578,0.302-7.022,0.533-10.567,0.436c-0.157-1.935-0.179-3.808-0.132-5.652c5.61,0.472,11.406,0.472,16.916-0.409   c1.063-0.17,0.796-1.875-0.251-1.857c-5.539,0.095-11.046,0.324-16.58,0.37c0.111-1.615,0.347-3.18,0.65-4.72   c3.007,0.072,6.007,0.123,9.018,0.028c0.92-0.029,0.922-1.402,0-1.431c-2.92-0.092-5.829-0.045-8.744,0.023   c0.497-2.064,1.209-4.049,2.124-5.963c0.011,0.002,0.015,0.013,0.026,0.014c5.5,0.696,11.426,1.389,16.959,0.832   c0.993-0.1,0.981-1.422,0-1.537c-5.36-0.628-10.949-0.455-16.362-0.543c1.807-3.352,4.325-6.46,7.762-9.283   c5.314,4.398,10.457,8.662,15.376,12.306c-4.595,8.328-8.867,16.419-12.993,23.419c-0.744,1.264-1.5,2.531-2.247,3.796   c-0.11-0.176-0.26-0.338-0.465-0.475C109.167,108.021,105.518,105.522,101.86,103.02z M84.954,236.627   c-12.138,11.656-21.164,13.852-27.077,6.592c3.137,0.723,6.289,1.252,9.528,1.415c0.703,0.035,0.676-1.007,0-1.078   c-3.527-0.371-7.026-0.946-10.487-1.718c-0.828-1.24-1.566-2.752-2.259-4.402c6.752,0.493,13.519,0.882,20.285,1.015   c0.837,0.016,0.821-1.235,0-1.29c-6.891-0.458-13.805-0.656-20.712-0.742c-0.572-1.494-1.082-3.18-1.555-4.975   c4.371,0.289,8.775,0.744,13.155,0.643c0.688-0.016,0.65-0.964,0-1.043c-4.431-0.535-8.943-0.5-13.401-0.647   c-0.234-0.959-0.482-1.875-0.687-2.925c0.209-0.624,0.464-1.229,0.697-1.843c8.108,0.409,16.31,0.788,24.389-0.051   c0.788-0.082,0.824-1.234,0-1.255c-7.96-0.199-15.912,0.141-23.875-0.052c0.169-0.428,0.32-0.864,0.488-1.292   c0.951-1.556,1.874-3.129,2.813-4.692c4.346,0.051,8.688,0.11,13.034,0.049c0.819-0.012,0.82-1.261,0-1.272   c-4.111-0.058-8.218-0.002-12.328,0.046c1.153-1.928,2.278-3.873,3.422-5.807c3.908,0.244,7.817,0.545,11.733,0.577   c1.03,0.009,0.989-1.475,0-1.572c-3.58-0.352-7.179-0.481-10.774-0.633c1.665-2.823,3.345-5.636,4.991-8.469   c0.006,0.002,0.01,0.007,0.016,0.008c7.249,2.241,12.457,6.292,16.285,12.883c2.967,5.108,4.245,10.893,6.776,16.163   C88.054,232.607,86.597,234.803,84.954,236.627z M98.189,212.739c-2.474,4.5-4.785,10.119-7.493,15.23   c-1.979-12.308-9.938-27.068-22.898-29.234c5.639-9.746,11.195-19.543,16.689-29.378c11.007,7.915,17.742,18.908,19.774,32.338   L98.189,212.739z M105.827,198.844c-0.332-2.993-1.009-5.919-1.934-8.754c1.65,0.27,3.327,0.472,4.979,0.514   c0.623,0.016,0.789-0.997,0.15-1.111c-1.799-0.321-3.657-0.475-5.494-0.525c-0.553-1.551-1.221-3.053-1.941-4.53   c2.949,0.376,5.898,0.777,8.858,1.05c0.636,0.059,0.626-0.924,0-0.989c-3.053-0.32-6.123-0.503-9.186-0.718   c-1.129-2.224-2.504-4.305-3.987-6.309c5.422,0.667,10.835,1.194,16.31,1.276c0.825,0.012,0.812-1.221,0-1.272   c-5.68-0.356-11.366-0.589-17.045-0.944c-1.261-1.611-2.644-3.125-4.111-4.559c2.022,0.231,4.045,0.455,6.077,0.568   c0.496,0.027,0.477-0.708,0-0.76c-2.235-0.242-4.479-0.35-6.723-0.461c-1.794-1.681-3.736-3.216-5.843-4.554   c0.37-0.664,0.739-1.329,1.109-1.992c6.939,0.906,13.885,1.389,20.881,0.833c0.895-0.071,0.922-1.412,0-1.413   c-6.737-0.014-13.441-0.106-20.146-0.741c1.241-2.228,2.48-4.458,3.721-6.686c4.847-0.035,9.709-0.009,14.54-0.394   c0.775-0.062,0.793-1.188,0-1.219c-4.572-0.18-9.158,0.008-13.735,0.166c1.152-2.069,2.303-4.139,3.455-6.208   c3.008,0.119,6.013,0.236,9.024,0.225c0.962-0.003,0.947-1.425,0-1.484c-2.72-0.17-5.442-0.233-8.164-0.287   c1.429-2.568,2.858-5.135,4.287-7.703c0.021,0.013,0.031,0.033,0.054,0.045c12.47,6.371,16.486,18.229,20.424,30.633   L105.827,198.844z M124.756,164.41l-2.028,3.69c-2.721-12.486-7.927-25.562-20.478-30.65c5.246-9.416,10.521-18.816,15.886-28.164   c10.947,8.591,16.339,20.115,18.343,33.54C132.579,150.037,128.693,157.249,124.756,164.41z M138.347,139.37   c-0.407-5.445-2.014-10.686-4.441-15.549c2.649,0.246,5.294,0.486,7.948,0.668c0.557,0.038,0.552-0.825,0-0.866   c-2.765-0.203-5.53-0.346-8.299-0.48c-1.052-2.023-2.294-3.944-3.62-5.809c1.365,0.184,2.757,0.27,4.074,0.42   c2.92,0.334,5.839,0.699,8.777,0.831c0.78,0.035,0.985-1.268,0.188-1.388c-2.766-0.416-5.552-0.632-8.339-0.859   c-1.893-0.153-3.861-0.465-5.79-0.455c-2.078-2.711-4.471-5.156-7.03-7.401c4.264,0.424,8.524,0.52,12.81,0.017   c0.935-0.11,0.986-1.551,0-1.502c-4.898,0.243-9.762,0.29-14.642-0.149c-0.104-0.082-0.191-0.183-0.296-0.264   c1.642-2.849,3.351-5.659,5.008-8.498c4.107,0.338,8.197,0.19,12.305-0.392c0.752-0.106,0.583-1.411-0.181-1.336   c-3.76,0.369-7.503,0.38-11.255,0.252c0.988-1.688,1.993-3.366,2.979-5.056c2.659-0.04,5.317-0.107,7.968-0.319   c0.939-0.075,0.968-1.498,0-1.484c-2.378,0.034-4.751,0.189-7.123,0.37c1.547-2.646,3.077-5.301,4.668-7.921   c4.872,4.155,9.647,7.479,13.214,13.075c3.301,5.179,5.182,10.856,6.183,16.846C148.281,121.123,143.294,130.24,138.347,139.37z    M143.366,137.857c5.114-9.702,10.319-19.35,15.803-28.828c2.994,2.364,6.024,4.68,9.047,7.005   c-4.246,4.15-6.093,10.126-6.535,15.995c-0.449,5.965-0.031,14.646,2.731,20.73C157.386,147.81,150.363,142.858,143.366,137.857z    M169.705,156.468c3.693,0.548,7.378,1.097,11.097,1.454c0.589,0.057,0.732-0.945,0.141-1.041   c-4.114-0.667-8.248-1.098-12.391-1.554c-0.136-0.015-0.245,0.035-0.325,0.117c-0.366-0.257-0.736-0.506-1.101-0.763   c-0.349-0.768-0.657-1.582-0.93-2.429c0.638,0.093,1.302,0.118,1.799,0.183c2.672,0.348,5.284,0.302,7.934-0.151   c0.631-0.108,0.492-1.196-0.153-1.128c-1.762,0.186-3.551,0.31-5.324,0.284c-0.822-0.012-1.64-0.057-2.458-0.139   c-0.025-0.003-1.181-0.193-2.134-0.266c-0.544-1.976-0.871-4.104-1.114-6.25c7.045,1.342,14.256,2.026,21.4,1.105   c0.872-0.113,0.938-1.431,0-1.413c-7.242,0.138-14.324,0.17-21.514-0.887c-0.005-0.001-0.008,0.004-0.013,0.003   c-0.251-2.754-0.286-5.436-0.228-7.944c3.673,0.811,7.313,1.359,11.073,1.501c0.658,0.025,0.632-0.942,0-1.007   c-3.634-0.376-7.27-0.85-10.854-1.564c-0.08-0.016-0.133,0.027-0.201,0.04c0.013-0.351,0.001-0.751,0.019-1.09   c0.109-1.998,0.448-3.801,0.891-5.536c4.736,0.612,9.469,1.382,14.232,1.717c0.698,0.049,0.865-1.104,0.167-1.232   c-4.624-0.849-9.325-1.29-13.994-1.86c0.462-1.469,1.044-2.876,1.728-4.257c0.072,0.086,0.147,0.173,0.296,0.2   c2.462,0.444,4.909,0.882,7.39,1.196c0.612,0.077,0.744-0.946,0.146-1.076c-2.392-0.518-4.796-0.905-7.212-1.296   c-0.048-0.008-0.077,0.027-0.122,0.028c0.683-1.268,1.447-2.521,2.338-3.773c7.302,5.588,14.681,11.076,22.085,16.531   c-7.291,8.486-7.073,25.422-3.206,35.791C182.679,165.465,176.177,160.991,169.705,156.468z M213.824,186.903   c-7.603-5.199-15.204-10.4-22.776-15.639c-1.283-10.734-4.122-26.422,3.676-35.355c8.157,5.995,16.337,11.963,24.506,17.947   c-6.096,9.571-8.139,21.604-5.2,32.575C213.886,186.545,213.812,186.71,213.824,186.903z M232.815,199.747   c2.663,0.034,5.317,0.214,7.978,0.309c0.574,0.021,0.728-0.933,0.139-1.024c-3.085-0.477-6.144-0.398-9.251-0.164   c-0.042,0.003-0.061,0.035-0.097,0.047c-2.001-1.355-4.008-2.702-6.009-4.057c3.465,0.482,6.911,1.029,10.352,1.746   c0.751,0.157,1.074-0.959,0.32-1.158c-4.188-1.106-8.517-1.804-12.849-2.058c-2.524-1.711-5.067-3.401-7.584-5.12   c0.014-0.082,0.064-0.143,0.049-0.238c-0.018-0.118-0.023-0.232-0.041-0.351c4.95,0.488,9.938,0.44,14.801-0.708   c0.766-0.181,0.62-1.515-0.191-1.406c-4.952,0.665-9.796,1.084-14.765,0.791c-0.611-4.866-0.571-9.503,0.082-13.997   c0.075,0.23,0.232,0.431,0.549,0.436c3.038,0.045,6.072,0.115,9.11,0c0.829-0.031,0.831-1.259,0-1.29   c-3.038-0.115-6.072-0.045-9.11,0c-0.201,0.003-0.35,0.084-0.454,0.199c0.316-1.974,0.802-3.913,1.369-5.837   c6.364,0.664,12.79,1.202,19.188,0.969c0.062-0.002,0.087-0.047,0.139-0.061c4.366,3.267,8.77,6.48,13.098,9.801   c-6.781,8.415-8.217,20.767-5.292,30.954C240.491,204.95,236.656,202.345,232.815,199.747z M267.294,207.533   c-1.672,2.517-4.026,4.564-6.857,5.632c-3.17,1.195-5.678,0.379-8.5-0.509c-2.019-1.342-4.008-2.719-6.023-4.066   c0.059-0.131,0.116-0.268,0.082-0.446c-2.15-11.335,0.522-20.205,5.851-29.864c5.622,4.338,11.215,8.718,16.727,13.208   c0.219,0.178,0.45,0.279,0.684,0.336C270.956,197.109,270.406,202.848,267.294,207.533z"></path><path d="M224.779,177.866c-2.828-0.251-5.644-0.25-8.481-0.268c-0.688-0.005-0.675,1.015,0,1.06c2.832,0.19,5.642,0.4,8.481,0.357   C225.529,179.003,225.505,177.931,224.779,177.866z"></path><path d="M141.667,128.649c-1.65-0.422-3.894-0.888-5.542-0.424c-0.223,0.063-0.274,0.385-0.065,0.501   c1.482,0.827,3.794,0.905,5.478,0.878C142.077,129.595,142.209,128.788,141.667,128.649z"></path></g><g></g><g></g><g></g><g></g><g></g><g></g><g></g><g></g><g></g><g></g><g></g><g></g><g></g><g></g><g></g></svg>