<svg xmlns="http://www.w3.org/2000/svg" xmlns:xlink="http://www.w3.org/1999/xlink" fill="currentColor" version="1.1" id="Capa_1" viewBox="0 0 269.683 269.683" xml:space="preserve"><g><path d="M142.253,188.892c-0.729,0.757-1.368,1.58-2.035,2.38c-0.622-0.299-1.297-0.513-2.034-0.534   c-0.511-0.014-0.651,0.837-0.124,0.913c0.535,0.076,0.988,0.267,1.403,0.504c-0.258,0.318-0.541,0.613-0.799,0.934   c-0.409,0.511,0.26,1.232,0.737,0.738c0.317-0.328,0.599-0.68,0.911-1.009c0.424,0.443,0.776,0.972,1.023,1.61   c0.277,0.713,1.297,0.447,1.152-0.317c-0.179-0.944-0.674-1.677-1.321-2.237c0.648-0.705,1.326-1.382,1.931-2.137   C143.567,189.152,142.8,188.325,142.253,188.892z"></path><path d="M163.37,178.59c0.089-0.594-0.728-1.079-1.057-0.446c-0.235,0.452-0.461,0.887-0.692,1.31   c-0.402-0.379-0.845-0.724-1.352-0.989c-0.381-0.199-0.689,0.335-0.335,0.573c0.544,0.366,0.907,0.788,1.192,1.251   c-0.503,0.791-1.088,1.515-1.932,2.135c-0.518,0.381-0.062,1.231,0.517,0.884c0.739-0.442,1.426-1,2.025-1.631   c0.063,0.201,0.128,0.396,0.186,0.61c0.163,0.597,1.189,0.504,1.117-0.151c-0.06-0.553-0.256-1.041-0.503-1.498   C162.935,180.015,163.257,179.348,163.37,178.59z"></path><path d="M122.202,175.881c-0.642,0.115-1.243,0.152-1.822,0.129c0.307-0.406,0.661-0.784,1.07-1.138   c0.441-0.382-0.028-1.244-0.59-1.014c-0.922,0.377-1.585,0.994-2.004,1.758c-0.49-0.257-0.95-0.609-1.335-1.221   c-0.39-0.618-1.337-0.07-0.982,0.574c0.419,0.762,1.095,1.442,1.884,1.914c-0.069,0.388-0.109,0.789-0.083,1.213   c0.047,0.766,1.098,0.745,1.176,0c0.026-0.251,0.094-0.475,0.16-0.7c1.004,0.268,2.064,0.196,2.973-0.459   C123.183,176.551,122.861,175.762,122.202,175.881z"></path><path d="M198.699,69.353c-1.559,9.051-24.702,8.584-31.07,8.441c-5.509-0.124-31.201-0.339-29.705-8.401   c0.125-0.674-0.749-0.888-1.005-0.277c-4.786,11.374,22.148,10.855,28.479,11.178c7.22,0.369,36.031,1.473,35.424-10.653   C200.765,68.492,198.917,68.09,198.699,69.353z"></path><path d="M187.079,247.109c36.401-0.463,30.586-34.861,30.471-62.809c-0.099-24.169-1.566-48.298-0.99-72.476   c0.355-14.874,3.939-30.95-5.402-43.796c-10.146-13.953-27.441-17.76-44.164-15.603c-0.159-2.052-0.199-4.091-0.141-6.131   c5.934,1.028,11.813-1.854,14.995-7.224c7.711-13.012-7.504-24.164-4.366-37.433c0.073-0.31,0.021-0.573-0.079-0.807   c0.137-0.486-0.325-1.038-0.837-0.755c-0.645-0.206-1.413,0.012-1.626,0.861c-0.032,0.124-0.044,0.241-0.074,0.364   c-11.245,8.819-31.266,35.583-11.187,44.096c0.128,0.055,0.26,0.073,0.389,0.123c-0.093,2.448-0.017,4.903,0.25,7.332   c-8.933,1.495-17.589,4.608-24.758,8.775c-9.455,5.496-13.778,12.535-15.225,23.344c-3.089,23.08-0.95,49.14,0.386,72.39   c-3.609,0.383-7.186,2.006-9.97,5.12c-3.401,3.804-4.272,9.297-3.109,14.168c-3.553,1.58-7.058,1.138-10.005-1.468   c-0.063-0.056-0.141-0.045-0.21-0.078c-0.816-0.602-1.903,0.287-1.724,1.24c1.004,5.342,1.344,11.029-3.079,14.971   c-4.732,4.218-11.763,4.569-16.698,0.571c-0.209-0.169-0.426-0.225-0.626-0.209c-1.01-0.866-2.337,0.359-1.804,1.518   c2.789,6.063,2.284,11.548-2.023,16.735c-4.293,5.17-8.885,7.003-15.52,5.844c-1.04-0.182-1.385,0.98-0.675,1.535   c-0.344,0.251-0.605,0.641-0.512,1.123c1.25,6.456,2.066,12.231,0.807,18.319c-0.091,0.003-0.179-0.006-0.271-0.003   c-0.849,0.028-0.859,1.298-0.031,1.333c-0.304,1.186-0.663,2.383-1.146,3.606c-0.616,1.559-1.283,3.021-2.113,4.475   c-0.757,1.327-3.821,4.277-3.926,5.648c-0.021,0.274-0.092,0.439-0.144,0.607c-0.381,0.585-0.227,1.361,0.223,1.805   c0.092,0.47,0.396,0.882,1.052,0.855c7.11-0.283,14.045-2.15,21.192-1.919c9.272,0.299,17.126,3.203,25.342,7.312   c0.785,0.392,1.497,0.056,1.852-0.5c0.422-0.124,0.816-0.458,0.873-0.949c0.644-5.55,1.903-10.496,6.192-14.396   c4.966-4.514,11.056-4.594,17.3-3.699c0.755,0.108,1.458-0.43,1.725-1.064c0.038-0.071,0.11-0.099,0.129-0.192   c0.958-4.502,3.216-11.824,8.886-11.797c0.742,4.335-0.499,9.086-4.05,13.266c-0.584,0.688-0.51,2.125,0.604,2.288   c11.655,1.699,17.68,11.95,14.56,23.192c-0.158,0.571,0.146,0.946,0.545,1.139c-0.025,0.034-0.058,0.057-0.083,0.091   c-0.881,1.232,0.96,2.402,1.98,1.528c10.363-8.888,25.981-8.058,38.237-3.641c0.883,0.408,1.752,0.846,2.656,1.211   c0.609,0.246,0.956-0.442,0.758-0.939c0.201-0.238,0.312-0.551,0.116-0.867c-3.847-6.207-5.923-12.085-5.28-18.094   C186.859,247.074,186.955,247.111,187.079,247.109z M158.423,28.809c0.583-2.709,1.985-5.5,3.4-7.983   c1.562,0.108,3.112,0.247,4.676,0.422c0.646,0.072,0.789-1.004,0.154-1.136c-1.405-0.292-2.846-0.331-4.281-0.263   c0.473-0.804,0.942-1.577,1.364-2.276c0.205-0.34,0.44-0.655,0.653-0.99c1.7,0.098,3.329-0.058,4.994-0.631   c0.773-0.266,0.466-1.395-0.338-1.225c-1.257,0.266-2.524,0.442-3.797,0.553c0.885-1.311,1.878-2.529,2.847-3.768   c1.375,0.164,2.756,0.288,4.135,0.278c0.615-0.005,0.805-1.028,0.151-1.117c-1.143-0.156-2.298-0.226-3.455-0.262   c1.748-2.158,3.568-4.255,5.481-6.283c-0.412,4.305,0.604,8.112,2.274,12.49c1.258,3.298,2.953,7.428,3.771,11.492   c-2.59-4.085-7.414-7.071-11.944-6.658C164.13,21.851,160.354,24.916,158.423,28.809z M164.302,42.183   c-1.994-1.232-3.561-3.156-4.654-5.378c-0.022-5.266,1.001-10.535,7.043-12.355c3.112-0.937,6.529-0.353,8.886,1.964   c2.274,2.235,5.089,7.256,3.583,10.434c-0.287,0.605-0.097,1.172,0.275,1.551c-1.257,2.064-3.397,3.755-6.801,4.822   c-1.985,0.622-3.847,0.61-5.551,0.179c0.434-5.454,1.568-10.956,3.61-16.784c0.343-0.979-1.209-1.637-1.681-0.709   C166.474,30.897,164.901,36.475,164.302,42.183z M125.96,91.629c0.061,0.174,0.182,0.326,0.426,0.333   c1.805,0.052,3.588,0.106,5.393,0.019c0.671-0.032,0.672-1.01,0-1.043c-1.805-0.086-3.588-0.033-5.393,0.019   c-0.197,0.006-0.313,0.108-0.391,0.236c0.135-2.321,0.411-4.539,0.85-6.614c2.102,0.058,4.183,0.289,6.282,0.37   c0.642,0.025,0.772-0.959,0.152-1.118c-2.01-0.511-4.118-0.5-6.182-0.331c0.29-1.152,0.62-2.266,1.052-3.288   c0.301-0.712,0.708-1.333,1.045-2.015c1.311,0.045,2.625,0.11,3.934,0.066c0.805-0.027,0.807-1.225,0-1.252   c-1.114-0.037-2.231,0.019-3.348,0.057c2.243-4.17,5.217-7.677,8.621-10.658c2.395,0.292,4.79,0.624,7.201,0.717   c0.7,0.027,0.887-1.144,0.169-1.248c-2.044-0.294-4.103-0.421-6.164-0.545c1.217-0.982,2.552-1.801,3.869-2.643   c2.457,0.318,4.897,0.353,7.342-0.273c0.609-0.156,0.485-1.109-0.149-1.099c-1.696,0.026-3.383,0.044-5.067,0   c1.315-0.738,2.679-1.392,4.064-2.002c2.011,0.185,4.023,0.416,6.044,0.383c0.742-0.012,0.692-1.028,0-1.119   c-1.163-0.153-2.335-0.215-3.508-0.251c4.009-1.501,8.217-2.546,12.529-3c0.771,4.726,2.167,9.319,4.357,13.476   c0.323,0.615,1.336,0.193,1.126-0.475c-1.437-4.569-2.37-8.921-2.897-13.202c22.442-1.304,45.601,10.991,46.68,35.983   c1.004,23.242-0.353,46.958,0.23,70.304c0.317,12.694,0.591,25.419,0.334,38.116c-0.438,21.593,1.162,43.119-27.323,44.996   c0.4-1.707,1.033-3.43,1.891-5.177c1.828,0.306,3.816-0.087,5.5-0.711c0.685-0.254,0.41-1.185-0.297-1.079   c-1.506,0.225-3.063,0.347-4.585,0.572c0.359-0.646,0.746-1.296,1.18-1.951c0.48-0.723-0.128-1.374-0.809-1.437   c0.185-0.018,0.36,0.005,0.549-0.028c0.064-0.011,0.088-0.066,0.141-0.09c1.614,0.091,3.24,0.191,4.825-0.059   c0.516-0.081,0.516-0.961,0-1.042c-1.465-0.23-2.969-0.159-4.466-0.076c-0.102-0.205-0.253-0.378-0.5-0.434   c-2.642-0.597-4.477-2.505-5.769-4.78c1.956-0.157,3.914-0.232,5.872-0.378c0.697-0.052,0.717-1.099,0-1.1   c-2.127-0.002-4.244,0.28-6.346,0.594c-0.46-0.94-0.842-1.917-1.151-2.878c-0.313-0.973-0.501-1.9-0.589-2.802   c1.303-0.012,2.59-0.124,3.863-0.53c0.73-0.233,0.433-1.335-0.318-1.152c-1.18,0.288-2.348,0.5-3.533,0.648   c0.001-1.487,0.312-2.917,0.943-4.346c1.191-0.176,2.376-0.375,3.542-0.693c0.487-0.133,0.41-0.98-0.124-0.913   c-0.97,0.122-1.922,0.314-2.869,0.532c0.16-0.283,0.298-0.565,0.486-0.849c0.402-0.608,0.188-1.192-0.252-1.539   c0.041-0.01,0.083-0.014,0.124-0.024c0.615-0.155,0.669-1.177,0-1.298c-3.565-0.648-7.312-0.697-10.343-2.761   c1.417-0.022,2.828-0.119,4.257-0.375c0.645-0.116,0.505-1.22-0.156-1.155c-1.845,0.183-3.695,0.262-5.546,0.25   c-1.056-1.08-1.732-2.317-2.24-3.619c2.418-0.087,4.903-0.061,7.269-0.522c0.699-0.136,0.493-1.159-0.161-1.192   c-2.493-0.128-5.059,0.307-7.546,0.555c-0.428-1.542-0.582-3.183-0.57-4.865c1.13,0.068,2.258,0.128,3.393,0.086   c0.78-0.029,0.781-1.184,0-1.214c-1.232-0.046-2.455,0.027-3.682,0.102c-0.083-0.333-0.288-0.639-0.701-0.665   c-2.806-0.179-5.339-0.845-7.601-1.996c1.185,0.016,2.37,0.051,3.556,0.017c0.72-0.021,0.721-1.098,0-1.119   c-1.78-0.051-3.557-0.008-5.337,0.025c-1.176-0.816-2.286-1.748-3.254-2.936c1.895,0.007,3.723-0.251,5.389-0.863   c1.969-0.08,3.936-0.222,5.902-0.354c0.87-0.058,0.85-1.441,0-1.346c-1.147,0.128-2.291,0.28-3.438,0.41   c1.099-0.793,2.047-1.869,2.824-3.234c1.552,0.049,3.102,0.091,4.656,0.025c0.78-0.033,0.782-1.181,0-1.214   c-1.361-0.057-2.718-0.03-4.077,0.009c0.478-1.099,0.774-2.265,0.964-3.45c1.438-0.141,2.931-0.241,4.282-0.722   c0.528-0.188,0.466-0.999-0.136-1.006c-1.347-0.015-2.681,0.32-4,0.637c0.099-1.133,0.056-2.278-0.078-3.414   c1.017,0.041,2.035,0.071,3.046,0.011c0.719-0.043,0.72-1.076,0-1.119c-1.081-0.064-2.17-0.026-3.257,0.02   c-0.222-1.212-0.591-2.39-1.046-3.522c0.646,0.025,1.292,0.033,1.944-0.022c0.816-0.069,0.818-1.201,0-1.271   c-0.872-0.073-1.737-0.036-2.605,0.01c-0.429-0.839-0.842-1.691-1.42-2.426c-5.416-6.887-20.677-8.469-24.496-0.063   c-1.858-6.329-7.79-9.949-13.965-9.95c0.047-0.952,0.064-1.906,0.103-2.858c0.274,0.077,0.583,0.1,0.886,0.05   c0.013,0.002,0.018,0.014,0.033,0.014c2.016,0.018,4.055,0.125,6.068-0.01c0.402-0.027,0.403-0.599,0-0.626   c-1.71-0.115-3.438-0.057-5.156-0.025c-0.001-0.244-0.14-0.488-0.419-0.566c-0.526-0.147-0.948-0.149-1.369-0.043   c0.078-2.08,0.094-4.162,0.126-6.244c1.216,0.052,2.397-0.01,3.611-0.303c0.765-0.184,0.437-1.321-0.323-1.17   c-1.1,0.219-2.173,0.315-3.266,0.34c0.015-1.043,0.046-2.084,0.063-3.127c2.022,0.056,4.03,0.096,6.058-0.096   c0.755-0.072,0.756-1.104,0-1.176c-2.018-0.191-4.018-0.152-6.03-0.097c0.032-2.374,0.03-4.747,0.049-7.121   c3.534,0.12,7.032-0.003,10.549-0.618c0.76-0.133,0.594-1.442-0.184-1.359c-3.442,0.363-6.896,0.589-10.356,0.689   c0.017-2.144,0.028-4.287,0.045-6.43c0.058,0.038,0.109,0.085,0.196,0.09c1.902,0.096,3.829,0.3,5.731,0.18   c0.755-0.048,0.757-1.128,0-1.175c-1.902-0.12-3.829,0.084-5.731,0.18c-0.085,0.004-0.134,0.051-0.192,0.088   c0.016-2.032,0.034-4.064,0.042-6.095c0.057,0.015,0.083,0.064,0.149,0.066c2.553,0.067,5.217,0.358,7.753,0.028   c0.973-0.126,0.975-1.39,0-1.517c-2.536-0.329-5.201-0.038-7.753,0.029c-0.072,0.002-0.101,0.055-0.161,0.072   c-0.009-1.299-0.064-2.696-0.137-4.145c1.111,0.045,2.223,0.108,3.332,0.074c0.854-0.027,0.855-1.301,0-1.327   c-1.131-0.035-2.265,0.029-3.398,0.075c-0.062-1.086-0.138-2.219-0.213-3.358c2.311,0.418,4.621,0.69,6.983,0.487   c0.738-0.063,0.75-1.109,0-1.156c-2.366-0.15-4.725-0.301-7.068-0.652c-0.122-1.813-0.238-3.678-0.339-5.553   c1.53,0.154,3.085,0.18,4.562-0.277c0.685-0.212,0.601-1.358-0.176-1.304c-1.51,0.105-2.952,0.301-4.454,0.299   c-0.055-1.167-0.067-2.327-0.095-3.492c1.911-0.19,3.768-0.119,5.684,0.15c0.901,0.127,1.326-1.169,0.388-1.408   c-2.035-0.519-4.064-0.504-6.111-0.178C125.835,94.965,125.876,93.281,125.96,91.629z M155.038,181.494   c-0.79,0.036-1.578,0.087-2.368,0.133c-0.338-0.842-0.734-1.682-1.245-2.516c-0.423-0.689-0.981-1.327-1.547-1.958   c0.77,0.052,1.541,0.039,2.3-0.114c0.765-0.154,0.519-1.229-0.174-1.285c-1.325-0.106-2.607-0.101-3.919-0.27   c-2.129-1.734-4.687-3.044-7.309-3.399c0.061-0.141,0.179-0.231,0.181-0.416c0.003-0.25-0.04-0.476-0.048-0.72   c0.034-0.117,0.088-0.215,0.126-0.329c1.729,0.267,3.501,0.41,5.236,0.372c0.663-0.014,0.877-1.106,0.164-1.211   c-1.628-0.239-3.303-0.326-4.962-0.302c0.377-0.828,0.895-1.505,1.432-2.158c2.469,0.082,4.947,0.228,7.414,0.093   c0.573-0.032,0.574-0.86,0-0.891c-2.264-0.125-4.535-0.012-6.803,0.071c5.018-5.017,14.796-3.839,19.536,2.072   c2.963,3.694,4.077,8.866,2.325,13.352c-2.125,5.437-6.753,5.671-11.622,5.656c0.07-1.632-0.183-3.315-0.723-5.004   c0.669,0.035,1.337,0.082,2.007,0.113C155.868,182.822,155.869,181.455,155.038,181.494z M133.6,192.769   c-1.586-0.236-3.153-0.268-4.719-0.674c-0.18-0.047-0.318,0.003-0.426,0.09c-0.392-0.664-0.711-1.376-0.98-2.116   c1.549,0.038,3.091,0.084,4.64,0.026c0.695-0.026,0.697-1.055,0-1.081c-1.663-0.062-3.317-0.013-4.98,0.028   c-0.003-0.014-0.01-0.025-0.013-0.039c-0.284-1.24-0.338-2.437-0.221-3.583c1.629,0.149,3.241,0.305,4.88,0.315   c0.778,0.005,0.728-1.083,0-1.175c-1.555-0.198-3.104-0.262-4.667-0.327c0.335-1.527,1.003-2.938,1.9-4.212   c1.977,0.001,4.049,0.134,5.959-0.301c0.694-0.158,0.458-1.087-0.156-1.154c-1.553-0.171-3.203,0.054-4.806,0.261   c0.783-0.877,1.642-1.697,2.634-2.384c0.255,0.173,0.571,0.263,0.931,0.079c5.955-3.043,11.92-2.097,15.563,3.928   c4.347,7.189,1.033,14.895-6.806,17.23c-4.9,1.46-10.266-0.473-13.225-4.444c1.467,0.457,2.959,0.765,4.494,0.523   C134.087,193.68,134.091,192.842,133.6,192.769z M113.551,169.375c1.181-0.159,2.351-0.314,3.53-0.569   c0.556-0.12,0.444-1.059-0.136-1.006c-1,0.092-1.973,0.269-2.951,0.426c0.319-0.771,0.692-1.549,1.19-2.345   c0.237-0.379,0.515-0.701,0.778-1.043c1.451,0.101,2.911,0.164,4.355,0.088c0.841-0.045,0.842-1.264,0-1.309   c-1.101-0.058-2.212-0.035-3.322,0.018c7.339-7.481,21.41-3.722,21.573,8.033c0.002,0.14,0.102,0.201,0.139,0.316   c-2.248,0.132-4.403,1.025-6.144,2.962c-4.48,1.882-7.372,6.192-7.623,11.021C117.481,183.453,111.13,177.177,113.551,169.375z    M57.692,248.334c0.776-1.165,1.438-2.402,2.047-3.666c1.539,0.063,3.081,0.123,4.619,0.051c1.147-0.054,1.148-1.728,0-1.782   c-1.276-0.06-2.554-0.024-3.831,0.024c0.642-1.553,1.14-3.161,1.555-4.784c2.898,0.085,5.796,0.267,8.682,0.518   c0.666,0.058,0.82-1.048,0.159-1.173c-2.836-0.538-5.652-0.703-8.496-0.738c0.325-1.512,0.562-3.073,0.699-4.652   c3.866-0.003,7.714-0.168,11.543-0.737c0.82-0.122,0.632-1.513-0.197-1.452c-3.753,0.272-7.499,0.543-11.263,0.606   c0.08-1.922-0.03-3.848-0.301-5.739c2.505-0.042,5.017-0.003,7.515,0.146c0.827,0.049,0.797-1.185,0-1.27   c-2.593-0.278-5.155-0.322-7.744-0.233c-0.375-1.906-0.93-3.765-1.767-5.501c3.66,1.162,7.065,0.817,10.131-0.596   c2.942-0.039,5.882-0.069,8.824-0.225c0.726-0.038,0.737-1.144,0-1.138c-2.264,0.018-4.52,0.145-6.778,0.242   c1.675-1.089,3.191-2.576,4.605-4.247c3.188-0.44,6.379-0.45,9.588-0.155c0.778,0.072,0.969-1.255,0.186-1.378   c-2.871-0.449-5.684-0.401-8.506,0.016c1.238-1.721,2.218-3.729,2.845-5.827c3.063-0.219,6.111-0.176,9.182,0.118   c0.78,0.075,0.967-1.244,0.187-1.378c-2.998-0.516-5.974-0.555-8.969-0.282c0.512-2.503,0.471-5.074-0.369-7.414   c2.368,1.49,5.112,1.984,7.855,1.727c0.078,0.055,0.16,0.109,0.29,0.098c4.151-0.339,8.312-0.494,12.469-0.708   c0.668-0.034,0.674-1.021,0-1.043c-2.53-0.083-5.043,0.038-7.552,0.238c1.281-0.591,2.509-1.327,3.625-2.222   c1.206-0.968,2.253-2.317,3.11-3.842c-0.157,0.354-0.027,0.826,0.475,0.804c3.206-0.141,6.431-0.172,9.612-0.608   c0.732-0.1,0.536-1.266-0.171-1.266c-3.152-0.003-6.304,0.41-9.441,0.699c-0.164,0.015-0.279,0.096-0.372,0.193   c0.823-1.51,1.42-3.205,1.761-4.929c2.573-0.008,5.145-0.016,7.718-0.023c0.829-0.003,0.83-1.287,0-1.289   c-2.516-0.008-5.032-0.015-7.547-0.023c0.165-1.497,0.167-2.993-0.164-4.39c2.764,1.514,6.257,1.722,9.02,0.236   c1.932,4.557,5.82,8.052,11.261,8.119c-9.657,13.051-17.583,26.846-29.396,38.313c-11.087,10.763-23.886,19.055-38.181,24.703   C56.766,249.742,57.296,248.929,57.692,248.334z M126.109,237.992c-12.226-4.499-26.945,6.562-25.859,19.545   c-13.265-8.093-26.217-7.213-40.452-5.586c3.918-1.675,7.78-3.61,11.571-5.735c3.626,0.01,7.232,0.192,10.859,0.409   c0.605,0.036,0.583-0.867,0-0.929c-3.164-0.334-6.354-0.334-9.538-0.242c2.549-1.47,5.052-3.05,7.516-4.706   c3.831,0.189,7.637,0.576,11.457,0.961c0.644,0.065,0.796-1.021,0.154-1.136c-3.323-0.596-6.689-0.794-10.059-0.882   c1.91-1.324,3.768-2.738,5.613-4.167c0.332,0.08,0.671,0.156,1.006,0.234c0.146,0.048,0.303,0.051,0.445,0.11   c0.01,0.003,0.016-0.003,0.026-0.001c3.349,0.765,6.854,1.381,10.238,1.234c0.895-0.039,1.211-1.517,0.224-1.657   c-3.396-0.484-6.798-0.754-10.186-1.269c3.028-2.426,5.92-5.027,8.726-7.713c2.39-0.004,4.765,0.087,7.137,0.411   c0.853,0.117,1.025-1.066,0.159-1.173c-2.074-0.257-4.141-0.33-6.217-0.264c1.954-1.913,3.821-3.905,5.646-5.931   c3.211,0.432,6.427,0.777,9.672,0.788c0.952,0.003,0.924-1.384,0-1.46c-2.806-0.231-5.609-0.46-8.408-0.746   c1.225-1.402,2.35-2.872,3.506-4.321c0.106,0.182,0.264,0.335,0.523,0.368c3.126,0.403,6.291,0.595,9.438,0.742   c0.964,0.045,0.931-1.387,0-1.479c-3.04-0.3-6.105-0.554-9.161-0.616c1.509-1.931,2.957-3.901,4.34-5.906   c0.028,0.205,0.158,0.39,0.44,0.381c2.138-0.071,4.283,0.09,6.415,0.245c0.552,0.04,0.673-0.85,0.131-0.969   c-2.2-0.479-4.307-0.483-6.546-0.243c-0.039,0.004-0.055,0.036-0.089,0.047c1.052-1.544,2.06-3.11,3.031-4.693   c2.607,0.348,5.214,0.694,7.838,0.897c1.04,0.081,0.989-1.465,0-1.593c-2.342-0.303-4.694-0.488-7.048-0.662   c0.862-1.454,1.645-2.94,2.435-4.423c1.425,0.204,2.854,0.416,4.287,0.499c0.877,0.05,1.082-1.368,0.209-1.546   c-1.195-0.243-2.408-0.397-3.622-0.54c1.094-2.147,2.109-4.323,3.018-6.535c0.065,0.821,0.166,1.646,0.397,2.476   c0.937,3.366,3.372,6.256,6.406,8.206c-0.999,2.895-1.519,5.867-2.743,8.705c-0.896,2.077-2.368,4.057-3.035,6.22   c-0.98,0.333-1.193,2.065,0.081,2.548c4.776,1.806,8.073,5.017,9.692,8.808C129.673,224.932,126.341,232.295,126.109,237.992z    M150.332,265.614c0.875-3.122,1.148-6.271,0.668-9.297c1.732-0.143,3.464-0.285,5.186-0.53c0.569-0.081,0.438-1.045-0.136-1.006   c-1.76,0.12-3.511,0.352-5.262,0.577c-0.403-1.876-1.116-3.695-2.152-5.427c2.002,0.361,4.219,0.438,6.069,0.381   c0.492-0.015,0.643-0.788,0.121-0.894c-2.112-0.43-4.652-0.738-6.929-0.607c-0.272-0.385-0.529-0.775-0.839-1.149   c-0.637-0.768-2.019-1.658-3.557-2.555c2.041-0.041,4.077,0.026,6.144,0.225c0.55,0.053,0.674-0.861,0.13-0.969   c-2.615-0.519-5.266-0.491-7.897-0.183c-2.544-1.42-5.039-2.761-5.212-3.558c-0.082-0.378,0.214-1.246,0.636-2.272   c2.202-0.171,4.394-0.203,6.61-0.118c0.579,0.022,0.565-0.845,0-0.891c-2.081-0.17-4.155-0.084-6.226,0.103   c0.864-1.965,1.967-4.22,2.069-5.126c0.092-0.808,0.106-1.608,0.082-2.403c1.427-0.144,2.858-0.296,4.247-0.636   c0.695-0.171,0.548-1.259-0.169-1.248c-1.395,0.022-2.783,0.23-4.166,0.448c-0.152-1.321-0.454-2.625-0.907-3.907   c-0.314-0.889-0.768-1.652-1.198-2.436c1.192,0.061,2.384,0.107,3.573,0.034c0.786-0.048,0.775-1.146,0-1.214   c-1.394-0.121-2.796-0.082-4.196-0.042c-1.513-2.293-3.55-4.085-5.911-5.493c2.358,0.104,4.737,0.135,7.072,0.003   c0.757-0.043,0.757-1.133,0-1.176c-3.005-0.171-6.098-0.123-9.102,0.085c-0.013,0.001-0.017,0.012-0.03,0.014   c-0.316-0.148-0.612-0.323-0.937-0.46c1.094-1.051,1.935-2.437,2.647-3.845c2.023-0.011,4.064,0.027,6.074-0.173   c0.952-0.095,0.996-1.517,0-1.517c-1.811,0-3.626,0.195-5.436,0.373c0.175-0.388,0.353-0.779,0.512-1.15   c0.445-1.036,0.852-2.118,1.205-3.218c1.899-0.119,3.78-0.37,5.593-0.971c0.887-0.294,0.53-1.64-0.388-1.408   c-1.602,0.405-3.171,0.724-4.791,0.927c0.275-1.076,0.492-2.163,0.565-3.258c3.251,1.411,6.901,1.783,10.207,0.429   c0.062-0.025,0.106-0.065,0.167-0.09c2.244,23.206,15.311,47.361,35.114,60.716C169.237,258.588,157.219,258.979,150.332,265.614z    M188.7,263.333c-0.284-0.109-0.582-0.214-0.874-0.32c-3.437-2.404-6.67-4.903-9.738-7.489c1.234,0.015,2.464-0.007,3.69-0.179   c0.389-0.055,0.39-0.731,0-0.786c-1.659-0.233-3.332-0.196-5.004-0.151c-1.58-1.372-3.061-2.8-4.535-4.232   c1.569,0.108,3.139,0.203,4.712,0.194c0.621-0.004,0.596-0.888,0-0.948c-1.935-0.196-3.881-0.238-5.825-0.285   c-1.481-1.48-2.886-3.006-4.253-4.556c2.13-0.13,4.263-0.259,6.38-0.506c0.58-0.068,0.606-0.973,0-0.929   c-2.333,0.168-4.659,0.479-6.983,0.775c-1.505-1.739-2.918-3.537-4.278-5.37c2.066-0.001,4.139-0.027,6.193-0.18   c0.781-0.058,0.802-1.243,0-1.232c-2.298,0.03-4.611,0.18-6.903,0.403c-1.155-1.605-2.236-3.26-3.28-4.942   c2.448-0.113,4.874-0.238,7.308-0.619c0.66-0.103,0.477-1.126-0.154-1.136c-2.663-0.044-5.275,0.216-7.92,0.468   c-1.097-1.84-2.075-3.767-3.039-5.705c2.36-0.208,4.723-0.389,7.061-0.789c0.638-0.109,0.496-1.185-0.154-1.136   c-2.485,0.186-4.94,0.616-7.401,0.998c-1.355-2.811-2.51-5.775-3.563-8.819c0.222,0.005,0.496-0.003,0.784-0.014   c0.028,0.009,0.04,0.035,0.072,0.038c2.2,0.251,4.378,0.302,6.555-0.141c0.588-0.12,0.466-1.129-0.144-1.062   c-1.777,0.197-3.534,0.354-5.311,0.376c-0.72-0.549-1.352-0.876-2.284-0.503c-0.029,0.012-0.037,0.039-0.063,0.053   c-0.594-1.797-1.206-3.579-1.704-5.454c2.109,0.02,4.214,0.065,6.319-0.088c0.817-0.06,0.818-1.211,0-1.271   c-2.234-0.163-4.468-0.103-6.706-0.086c-0.412-1.664-0.782-3.365-1.122-5.089c2.438,0.007,4.919,0.098,7.3-0.408   c0.654-0.139,0.424-1.016-0.147-1.08c-2.427-0.275-4.926,0.079-7.366,0.315c-0.137-0.746-0.29-1.479-0.406-2.242   c3.734-1.995,6.201-4.992,7.236-8.456c2.851,4.651,8.401,7.75,13.867,7.257c-1.043,4.156,0.74,8.733,3.743,11.674   c3.058,2.996,7.419,4.011,11.585,3.517c-5.636,5.734-1.22,22.164,7.586,21.558c-0.204,0.017-0.411,0.061-0.586,0.209   C180.838,242.196,183.026,254.892,188.7,263.333z"></path></g><g></g><g></g><g></g><g></g><g></g><g></g><g></g><g></g><g></g><g></g><g></g><g></g><g></g><g></g><g></g></svg>