<svg xmlns="http://www.w3.org/2000/svg" xmlns:xlink="http://www.w3.org/1999/xlink" fill="currentColor" version="1.1" id="Capa_1" viewBox="0 0 210.57 210.57" xml:space="preserve"><g><path d="M205.942,55.797c-8.054-5.272-14.323-10.742-18.505-19.617c-3.977-8.438-5.61-17.814-7.799-26.813   c-0.072-0.296-0.292-0.437-0.539-0.511c-0.451-0.51-1.355-0.448-1.857,0.124c-0.22,0.178-0.389,0.412-0.408,0.722   c-1.174,18.714-22.476,27.411-38.714,26.621c-0.263-0.013-0.462,0.107-0.659,0.221c-0.03-0.004-0.038-0.011-0.071-0.015   c-0.682-0.08-1.062,0.689-0.949,1.246c0.517,2.563,2.69,4.387,3.948,6.657c2.554,4.611,3.819,9.849,3.445,15.129   c-0.847,11.95-9.551,17.475-18.953,22.698c-1.011,0.562-0.828,2.083,0.081,2.569c-0.264,0.935-0.195,1.838-0.312,3.038   c-0.129,1.317-0.397,2.621-0.752,3.9c-0.408,0.157-0.512,0.624-0.295,0.99c-0.422,1.299-0.937,2.567-1.566,3.771   c-2.468,4.726-6.391,8.048-11.213,10.082c-3.713-4.707-8.491-8.476-14.105-10.405c-0.3-4.031-1.112-7.965-0.894-12.073   c0.274-5.13,1.487-10.077,3.086-14.942c0.139-0.421-0.045-0.744-0.309-0.99c-0.151-0.499-0.442-0.962-0.951-1.121   c-7.495-2.336-15.676-1.433-21.078-8.383c-5.299-6.817-4.016-15.952-3.323-23.995c0.1-1.165-1.4-1.516-2.109-0.845   c-0.226-0.179-0.481-0.321-0.779-0.36c-11.144-1.456-20.369-3.836-29.109-11.369c-6.63-5.715-11.34-12.902-15.85-20.286   c-0.069-0.383-0.149-0.754-0.217-1.138c-0.168-0.948-1.384-0.871-1.801-0.183c-0.157,0.082-0.299,0.192-0.412,0.335   c-0.455,0.017-0.894,0.363-0.795,0.971c3.864,23.596,1.217,41.606-17.817,57.158c-0.741,0.606-0.388,1.69,0.308,2.162   c0.125,0.508,0.487,0.964,1.095,0.94c3.527-0.141,6.586,1.578,9.108,4.144c-0.139,0.003-0.278,0.006-0.417,0.009   c-0.854,0.017-0.855,1.31,0,1.327c0.559,0.011,1.119,0.022,1.678,0.035c1.562,1.905,2.872,4.124,3.879,6.382   c-0.104,0.29,0.013,0.639,0.348,0.788c0.873,2.102,1.49,4.203,1.818,6.072c1.482,8.446-1.836,15.085-5.752,22.299   c-0.621,1.144,0.288,2.271,1.328,2.312c0.138,0.045,0.266,0.004,0.404-0.056c0.245-0.061,0.487-0.163,0.71-0.371   c0.005-0.004,0.008-0.01,0.012-0.014c0.517,0.377,1.107,0.505,1.786,0.329c0.631-0.055,1.264-0.078,1.898-0.068   c2.096,0.028,4.174,0.313,6.169,0.971c3.673,1.213,7.089,3.641,9.604,6.667c-0.293,0.286-0.154,0.949,0.335,0.885   c0.114-0.015,0.228-0.004,0.342-0.018c0.253,0.341,0.556,0.651,0.784,1.004c5.172,8.043,3.793,16.464,2.85,25.336   c-0.177,1.669,1.753,1.88,2.727,0.992c1.533,0.246,3.443-0.645,4.889-0.936c3.816-0.768,7.543-0.637,11.347-0.888   c3.34,6.782,9.053,12.256,15.779,14.484c-24.375,12.76-17.591,58.686,13.765,56.462c0.2,0.109,0.431,0.184,0.698,0.209   c16.579,1.519,32.791-11.053,33.182-28.287c0.08-3.558-0.434-6.893-1.422-9.975c14.675,10.784,37.548,2.921,41.1-17.633   c1.214-7.024-0.222-13.594-3.346-19.127c0.874,0.723,2.488,0.196,2.545-1.173c0.025-0.609,0.086-1.189,0.133-1.78   c0.076-0.099,0.076-0.165,0.02-0.277c0.649-7.635,3.138-13.868,8.654-19.707c5.479-5.8,12.474-9.505,20.431-7.263   c0.148,0.179,0.265,0.374,0.419,0.549c0.915,1.045,2.939-0.06,2.408-1.402c-3.502-8.851-6.602-16.751-3.971-26.434   c2.199-8.094,7.566-14.035,13.66-19.469C206.699,58.106,207.047,56.521,205.942,55.797z M115.348,108.869   c2.457,0.558,4.939,1.124,7.442,1.197c0.747,0.022,0.848-1.05,0.171-1.266c-1.811-0.578-3.718-0.874-5.631-1.112   c2.508-1.733,4.676-3.937,6.404-6.478c1.039,0.017,2.077,0.017,3.114-0.048c0.78-0.049,0.782-1.165,0-1.214   c-0.77-0.048-1.541-0.037-2.312-0.035c0.168-0.285,0.364-0.55,0.521-0.842c0.743-1.381,1.622-3.45,2.251-5.665   c2.31,0.199,4.618,0.375,6.943,0.437c0.925,0.024,0.872-1.298,0-1.403c-2.182-0.263-4.365-0.422-6.552-0.558   c0.565-2.618,0.654-5.282-0.405-7.166c0.86-0.156,1.688-0.433,2.517-0.702c4.109,0.914,8.269,1.35,12.514,1.017   c0.855-0.067,0.876-1.319,0-1.346c-3.278-0.1-6.522-0.346-9.744-0.807c2.854-1.4,5.427-3.44,7.629-5.836   c0.039,0.007,0.054,0.042,0.097,0.044c2.435,0.12,4.973,0.246,7.403,0.028c1.011-0.091,1.013-1.483,0-1.574   c-2.023-0.181-4.111-0.112-6.162-0.019c1.4-1.751,2.575-3.664,3.533-5.644c2.452,0.022,4.891,0.23,7.34,0.402   c0.798,0.056,0.883-1.111,0.181-1.341c-2.181-0.715-4.398-0.963-6.653-0.982c0.364-0.925,0.679-1.859,0.931-2.798   c0.557-2.074,0.806-4.607,0.788-7.269c2.691,0.462,5.39,0.92,8.104,1.053c0.778,0.038,0.943-1.179,0.184-1.359   c-2.722-0.649-5.525-0.96-8.318-1.275c-0.149-2.886-0.653-5.865-1.551-8.589c3.891,0.486,7.815,0.924,11.718,1.054   c0.794,0.026,1.004-1.279,0.192-1.415c-4.137-0.695-8.368-1.063-12.564-1.375c-0.883-2.133-2.029-4.049-3.494-5.527   c2.681,0.449,5.521,0.211,8.356-0.399c5.177,0.555,10.385,1.206,15.585,1.329c0.8,0.019,1.023-1.313,0.194-1.434   c-3.817-0.557-7.681-0.828-11.544-1.067c2.275-0.792,4.489-1.787,6.565-2.861c1.813,0.344,3.633,0.668,5.455,0.762   c0.921,0.048,1.103-1.379,0.217-1.602c-1.025-0.258-2.087-0.399-3.145-0.547c1.023-0.592,2.004-1.19,2.914-1.783   c2.999-1.956,5.627-4.278,7.703-6.919c-7.8,38.479-25.837,67.825-54.307,97.305c-0.088,0.091-0.076,0.209-0.123,0.313   c-0.365,0.228-0.745,0.388-1.106,0.636c-0.478-2.748-1.314-5.463-2.404-8.091c1.105,0.148,2.234,0.103,3.306-0.162   c0.684-0.169,0.54-1.24-0.166-1.229c-1.313,0.02-2.561-0.029-3.816-0.129c-0.725-1.564-1.512-3.102-2.427-4.564   C113.949,109.696,114.638,109.263,115.348,108.869z M70.341,36.596c-1.576,8.343-2.204,17.755,3.332,24.73   c4.912,6.189,14.453,9.428,22.358,8.841c-3.561,7.342-5.496,17.004-3.259,25.031c-3.838-0.681-7.967-0.579-12.347,0.635   c-2.701,0.749-5.193,1.883-7.475,3.298c-2.46-2.612-4.781-5.252-7.028-7.909c2.373-0.016,4.678,0.298,7.045,0.612   c0.649,0.086,0.691-0.886,0.146-1.08c-2.535-0.902-5.251-0.793-7.865-0.323c-1.455-1.74-2.774-3.516-4.142-5.278   c3.743,0.049,7.487,0.114,11.227,0.011c0.976-0.027,0.977-1.49,0-1.517c-4.127-0.113-8.26-0.023-12.39,0.025   c-1.982-2.609-3.859-5.248-5.662-7.911c2.647,0.255,5.297,0.502,7.953,0.521c0.63,0.004,0.815-1.046,0.154-1.136   c-2.969-0.406-5.967-0.537-8.962-0.683c-1.5-2.26-2.925-4.545-4.303-6.849c5.714,0.171,11.45,0.265,17.153-0.062   c0.829-0.048,0.831-1.242,0-1.289c-5.973-0.343-11.986-0.232-17.969-0.044c-1.67-2.851-3.218-5.752-4.712-8.678   c3.299,0.107,6.604,0.255,9.894,0.011c0.951-0.07,0.952-1.408,0-1.479c-3.529-0.262-7.078-0.074-10.615,0.032   c-1.2-2.404-2.265-4.875-3.355-7.334c6.003,0.15,12.013,0.341,18.008-0.035c0.865-0.054,0.867-1.292,0-1.346   c-6.208-0.389-12.433-0.171-18.649-0.019c-1.3-3.004-2.519-6.053-3.67-9.144c2.741,0.56,5.6,0.854,8.354,0.32   c0.739-0.143,0.564-1.321-0.177-1.304c-2.93,0.068-5.699,0.221-8.613-0.277c-3.114-8.548-5.695-17.435-7.715-26.81   C36.267,25.282,52.148,39.134,70.341,36.596z M59.041,131.847c0.271,1.328,0.644,2.631,1.088,3.908   c-1.85-0.022-3.708,0.167-5.544,0.428c-0.546,0.078-5.434,1.306-8.126,2.332c0.864-2.708,1.251-5.627,1.278-8.579   c2.132,0.238,4.267,0.442,6.413,0.386c0.76-0.02,0.991-1.218,0.186-1.378c-2.184-0.434-4.399-0.602-6.618-0.735   c-0.082-1.835-0.352-3.66-0.737-5.458c2.171,0.068,4.344,0.13,6.506-0.034c0.804-0.061,0.806-1.191,0-1.252   c-2.283-0.173-4.579-0.097-6.872-0.024c-0.727-2.807-1.823-5.477-3.262-7.883c1.748,0.032,3.494,0.183,5.237,0.481   c0.795,0.136,1.146-1.066,0.338-1.225c-2.121-0.417-4.215-0.539-6.316-0.456c-0.513-0.754-1.049-1.489-1.645-2.169   c-3.111-3.544-7.983-6.592-13.005-7.635c8.728,0.213,17.496,0.385,26.199,0.001c0.841-0.037,0.843-1.271,0-1.308   c-10.509-0.465-21.118-0.119-31.632,0.133c-0.595,0.014-0.632,0.776-0.171,0.967c-0.43,0.063-0.868,0.08-1.29,0.185   c2.268-2.919,3.772-6.401,4.591-10.074c3.443,0.023,6.889,0.075,10.33-0.045c0.78-0.027,0.782-1.186,0-1.214   c-3.367-0.117-6.738-0.07-10.107-0.046c0.39-2.215,0.478-4.477,0.39-6.72c3.3-0.183,6.617-0.267,9.882-0.791   c0.711-0.114,0.519-1.223-0.166-1.229c-3.256-0.03-6.505,0.389-9.745,0.699c-0.227-2.794-0.819-5.527-1.791-8.052   c1.676-0.038,3.34-0.236,5.009-0.669c0.791-0.205,0.448-1.347-0.333-1.207c-1.754,0.315-3.51,0.462-5.271,0.511   c-0.896-2.016-2.112-4.094-3.548-6.03c1.413,0.01,2.826,0.014,4.238-0.048c0.915-0.04,0.916-1.382,0-1.422   c-1.816-0.08-3.633-0.077-5.449-0.049c-2.748-3.223-6.186-5.792-10.087-6.395c0.399-0.207,0.73-0.479,1.115-0.701   c4.586,0.027,9.164,0.076,13.748-0.078c1.049-0.035,1.05-1.595,0-1.631c-3.63-0.122-7.258-0.111-10.888-0.09   c2.359-1.748,4.374-3.809,6.096-6.095c1.57-0.218,3.16-0.303,4.791-0.313c1.007-0.006,0.938-1.394,0-1.517   c-1.185-0.156-2.363-0.137-3.535-0.047c1.081-1.661,2.005-3.433,2.817-5.273c1.589-0.129,3.176-0.278,4.759-0.488   c1.003-0.134,1.081-1.666,0-1.631c-1.36,0.045-2.714,0.14-4.068,0.249c1.79-4.658,2.88-9.703,3.213-14.896   c7.103,27.899,23.215,54.032,44.296,72.967C61.641,107.16,56.574,119.738,59.041,131.847z M71.192,145.542   c4.196,0.088,8.382,0.14,12.584,0.021c0.819-0.023,0.817-1.237,0-1.27c-4.667-0.194-9.317-0.185-13.984-0.139   c-1.942-2.109-3.448-4.6-4.6-7.272c6.621,0.388,13.358,0.994,19.932,0.578c0.858-0.054,0.823-1.209,0-1.308   c-6.726-0.814-13.683-0.565-20.495-0.574c-0.817-2.191-1.34-4.504-1.628-6.853c3.141-0.018,6.198,0.356,9.333,0.771   c0.761,0.1,0.898-1.136,0.179-1.322c-3.132-0.812-6.43-0.894-9.658-0.69c-0.196-2.401-0.111-4.829,0.259-7.206   c8.43,0.761,16.917,1.292,25.376,0.95c1.143-0.046,1.152-1.758,0-1.782c-8.371-0.179-16.711-0.258-25.063-0.783   c0.656-3.075,1.863-5.999,3.53-8.655c4.701,0.386,9.43,0.619,14.136,0.247c0.842-0.066,0.865-1.309,0-1.327   c-4.419-0.094-8.824-0.118-13.235-0.339c1.608-2.208,3.626-4.148,6.029-5.74c5.314,0.285,10.62,0.517,15.942,0.584   c1.011,0.013,0.987-1.481,0-1.555c-4.351-0.323-8.704-0.523-13.061-0.687c2.215-1.059,4.702-1.845,7.475-2.289   c10.088-1.615,18.677,3.249,24.313,10.591c0.124,0.604,0.473,1.117,0.989,1.358c9.528,13.785,9.101,34.896-10,39.835   c-0.38,0.098-0.645,0.289-0.861,0.51c-1.973-0.382-3.995-0.621-6.053-0.677c-2.989-0.082-5.718,0.209-8.246,0.755   C79.026,150.805,74.615,148.675,71.192,145.542z M91.852,207.146c-0.501-0.013-0.869,0.16-1.131,0.417   c-7.441-0.859-13.817-4.089-18.31-9.062c2.43,0.433,4.875,0.858,7.31,0.97c0.593,0.027,0.728-0.914,0.141-1.043   c-2.732-0.601-5.582-0.812-8.395-1.057c-1.323-1.642-2.375-3.504-3.29-5.46c5.416,0.426,10.842,0.747,16.273,0.469   c0.853-0.044,0.855-1.285,0-1.327c-5.609-0.277-11.227-0.256-16.84-0.418c-0.93-2.29-1.58-4.756-1.918-7.378   c3.112,0.04,6.225,0.1,9.334-0.006c0.756-0.026,0.757-1.15,0-1.176c-3.156-0.107-6.314-0.044-9.472-0.004   c-0.074-0.844-0.129-1.696-0.13-2.574c-0.001-1.228,0.152-2.365,0.287-3.512c8.494-0.162,17.016-0.411,25.479-1.106   c0.875-0.072,0.904-1.387,0-1.384c-8.452,0.03-16.926,0.509-25.364,1.071c0.463-2.747,1.318-5.242,2.498-7.47   c4.704,0.285,9.393,0.564,14.106,0.648c0.765,0.014,0.746-1.118,0-1.175c-4.449-0.342-8.895-0.505-13.353-0.658   c1.557-2.546,3.576-4.686,5.917-6.435c4.917,0.716,9.862,1.173,14.838,0.981c0.878-0.034,0.879-1.329,0-1.365   c-4.339-0.18-8.653-0.446-12.96-0.894c2.787-1.7,5.95-2.898,9.381-3.501c0.605-0.069,1.208-0.13,1.817-0.256   c2.47-0.285,5.035-0.317,7.668-0.021c14.264,1.6,26.085,12.666,25.614,27.738C120.867,197.683,106.314,207.512,91.852,207.146z    M160.874,153.592c-1.416,8.976-7.686,16.986-16.65,19.547c-6.584,1.881-12.392,0.515-17.519-2.516   c2.945,0.759,5.911,1.497,8.911,1.853c0.776,0.092,0.849-1.08,0.176-1.304c-3.906-1.3-8.078-1.905-12.11-2.708   c-0.066-0.013-0.106,0.029-0.166,0.032c-0.896-0.683-1.773-1.406-2.623-2.174c-0.421-0.71-0.961-1.332-1.437-2.002   c3.348,0.412,6.737,0.559,10.083,0.163c0.824-0.098,0.878-1.333,0-1.327c-3.782,0.022-7.48,0.001-11.214-0.411   c-1.542-1.904-3.333-3.592-5.276-5.101c0.495,0.016,0.99,0.032,1.476,0.059c2.545,0.146,5.061,0.288,7.61,0.169   c0.823-0.038,1.118-1.398,0.207-1.527c-2.427-0.344-4.824-0.468-7.273-0.56c-1.65-0.062-3.345-0.235-5.013-0.187   c-1.641-1.001-3.344-1.915-5.174-2.624c2.06-0.831,3.804-1.925,5.394-3.135c7.099,0.016,14.204-0.123,21.291-0.517   c0.859-0.048,0.873-1.35,0-1.346c-6.578,0.026-13.157,0.286-19.726,0.669c2.033-1.862,3.6-4.051,4.771-6.446   c3.184,0.118,6.388,0.155,9.562,0.011c0.768-0.035,0.77-1.159,0-1.194c-2.999-0.137-6.025-0.105-9.038-0.004   c0.92-2.183,1.503-4.526,1.815-6.949c4.658-0.303,9.32-0.586,13.956-1.105c0.924-0.103,0.968-1.533,0-1.479   c-4.62,0.257-9.227,0.748-13.833,1.221c0.133-1.615,0.183-3.25,0.064-4.911C138.292,116.297,164.672,129.509,160.874,153.592z    M191.058,102.32c-14.612-4.261-30.972,13.834-30.646,28.454c-0.874-0.24-1.748-0.345-2.606-0.343   c-7.378-8.561-19.241-13.149-30.435-10.205c1.66-1.377,3.277-2.82,4.869-4.295c4.924-0.526,9.845-0.579,14.796-0.497   c0.92,0.015,0.88-1.312,0-1.403c-4.369-0.455-8.704-0.276-13.04,0.215c2.333-2.247,4.561-4.629,6.737-7.069   c2.762,0.337,5.556,0.621,8.328,0.707c0.835,0.026,0.792-1.18,0-1.271c-2.446-0.281-4.93-0.402-7.404-0.477   c1.643-1.881,3.221-3.83,4.77-5.81c6.783-0.198,13.667-0.335,20.368-1.266c0.924-0.128,0.661-1.564-0.214-1.583   c-6.218-0.132-12.518,0.446-18.746,1.007c2.099-2.775,4.092-5.648,6.003-8.585c3.119,0.064,6.243,0.165,9.353-0.055   c0.938-0.066,0.94-1.394,0-1.46c-2.782-0.196-5.575-0.134-8.365-0.073c1.748-2.76,3.404-5.587,4.982-8.461   c4.72,0.111,9.436,0.357,14.147,0.665c1.018,0.067,0.967-1.435,0-1.555c-4.438-0.552-8.876-0.695-13.329-0.703   c1.592-2.978,3.058-6.024,4.463-9.097c2.956,0.071,5.952,0.192,8.87-0.142c0.986-0.113,0.988-1.423,0-1.536   c-2.65-0.303-5.365-0.228-8.056-0.158c1.043-2.356,2.013-4.741,2.945-7.139c0.065,0.031,0.09,0.104,0.171,0.116   c6.637,0.983,13.347,1.297,19.96-0.017c0.875-0.174,0.685-1.619-0.212-1.564c-6.49,0.395-12.841,0.634-19.308-0.169   c1.036-2.754,1.952-5.54,2.837-8.331c2.344,0.275,4.689,0.574,7.046,0.671c0.889,0.036,1.124-1.447,0.214-1.583   c-2.228-0.334-4.478-0.495-6.725-0.661c0.632-2.064,1.191-4.139,1.736-6.215c1.59,0.24,3.208,0.474,4.77,0.352   c0.817-0.063,1.021-1.194,0.197-1.452c-1.419-0.445-2.955-0.596-4.479-0.715c1.89-7.561,3.203-15.177,3.848-22.717   c2.297,16.015,8.565,34.527,24.34,40.057C188.2,65.961,182.015,87.749,191.058,102.32z"></path><path d="M107.324,197.182c-1.572,0.06-3.041,0.756-4.611,0.972c-0.21-1.198-0.403-2.399-0.631-3.597   c-0.192-1.007-1.533-0.628-1.639,0.222c-0.145,1.161-0.105,2.294,0.035,3.415c-1.073-0.055-2.142-0.163-3.241-0.257   c-0.831-0.07-1.235,1.289-0.44,1.626c1.124,0.475,2.585,0.805,4.112,0.921c0.176,0.67,0.382,1.338,0.62,2.004   c0.439,1.226,2.31,0.749,1.975-0.544c-0.127-0.488-0.204-0.984-0.309-1.475c1.855-0.144,3.62-0.641,4.801-1.667   C108.614,198.262,108.12,197.151,107.324,197.182z"></path><path d="M111.653,135.146c0.188-0.857-0.982-1.78-1.632-0.95c-0.906,1.155-1.873,2.241-2.955,3.109   c-0.306-0.602-0.659-1.187-1.101-1.747c-0.714-0.904-2.067,0.249-1.549,1.195c0.311,0.567,0.551,1.142,0.814,1.714   c-1.262,0.604-2.676,0.894-4.323,0.658c-1.38-0.197-2.014,1.879-0.59,2.139c1.813,0.331,3.869,0.141,5.747-0.505   c0.169,0.579,0.379,1.14,0.467,1.759c0.145,1.014,1.843,0.775,1.788-0.242c-0.045-0.831-0.175-1.623-0.35-2.397   C109.765,138.829,111.187,137.267,111.653,135.146z"></path><path d="M150.543,145.693c-0.934,1.062-1.786,2.176-2.71,3.235c-1.301-1.123-2.855-1.904-4.553-2.27   c-1.369-0.295-1.924,1.678-0.58,2.103c1.25,0.395,2.311,1.117,3.247,1.995c-1.279,1.064-2.654,1.987-4.154,2.726   c-1.23,0.606-0.153,2.359,1.062,1.817c1.534-0.683,3.142-1.596,4.623-2.693c0.539,1.082,0.83,2.275,1.633,3.193   c0.561,0.641,1.533,0.233,1.775-0.469c0.524-1.519-0.326-3.184-1.308-4.504c1.136-1.131,2.085-2.403,2.693-3.802   C152.724,145.982,151.444,144.669,150.543,145.693z"></path><path d="M38.827,30.06c-1.778-0.536-3.676-0.632-5.514-0.856c-0.653-0.08-0.807,1.036-0.156,1.154   c1.822,0.333,3.66,0.802,5.519,0.819C39.326,31.183,39.437,30.244,38.827,30.06z"></path></g><g></g><g></g><g></g><g></g><g></g><g></g><g></g><g></g><g></g><g></g><g></g><g></g><g></g><g></g><g></g></svg>