<svg xmlns="http://www.w3.org/2000/svg" xmlns:xlink="http://www.w3.org/1999/xlink" fill="currentColor" version="1.1" id="Capa_1" viewBox="0 0 228.745 228.745" xml:space="preserve"><g><path d="M211.366,17.927c-0.163-0.203-0.382-0.378-0.721-0.464c-6.536-1.661-13.009-3.351-19.275-5.887   c-6.044-2.447-11.6-5.971-17.662-8.305c-0.419-0.6-1.45-0.603-1.921,0.063c-1.184,1.671-1.516,3.929-2.08,5.879   c-0.574,1.985-1.214,3.973-1.664,5.993c-1.854-0.576-3.694-0.899-5.398-0.7c-0.19-0.147-0.426-0.243-0.739-0.191   c-3.305,0.55-5.935,4.083-5.585,7.415c0.246,2.35,2.118,4.457,4.379,4.782c-0.915,4.067-2.848,8.002-4.512,11.804   c-11.162-8.958-25.455-14.276-42.406-14.017c-14.218,0.216-27.693,4.594-39.262,11.869c-1.067-2.211-2.119-4.412-2.889-6.758   c-0.232-0.708-0.393-1.434-0.576-2.153c2.034-1.32,3.503-4.098,3.479-6.222c-0.02-1.837-1.012-3.705-2.512-4.751   c-0.115-0.301-0.303-0.573-0.639-0.696c-2.344-0.865-4.687-0.852-6.955-0.347c-2.247-5.348-5.775-10.309-10.036-14.26   c0.145-0.604-0.403-1.244-1.076-0.87c-5.981,3.324-11.362,7.632-17.306,11.046c-5.984,3.436-12.397,5.816-18.501,8.971   c-1.118,0.578-0.722,2.028,0.222,2.432c0.742,2.652,3.075,5.469,5.808,5.242c0.326-0.027,0.569-0.213,0.74-0.443   c8.455-0.698,15.965-5.515,24.498-6.481c0.299-0.034,0.528-0.162,0.723-0.322c1.254,0.469,2.268,1.255,3.316,2.23   c-0.671,0.751-1.334,1.509-1.896,2.27c-1.669,2.26-4.571,6.939-3.527,10.025c0.157,0.464,0.381,0.813,0.635,1.097   c1.179,3.815,6.251,5.845,9.764,3.486c2.046,1.487,4.114,2.949,6.206,4.374C48.476,57.815,38.344,77.53,38.13,99.281   c-0.001,0.056,0.046,0.084,0.055,0.135c-3.767,0.068-7.53,0.144-11.303,0.199c-1.077,0.016-1.536,0.864-1.44,1.665   c-0.119,0.228-0.202,0.483-0.185,0.793c0.657,11.74,1.722,24.001,3.344,35.662c-0.502,0.747-0.193,1.986,0.998,2.055   c4.37,0.253,8.758,0.454,13.134,0.689c0.784,27.035,5.407,54.429,9.239,81.149c-0.524,0.836-0.127,2.274,1.19,2.382   c35.226,2.886,70.547,4.113,105.879,4.734c1.369,0.024,1.95-1.141,1.799-2.194c0.112-0.182,0.205-0.383,0.24-0.632   c3.679-26.611,8.093-53.417,9.995-80.228c1.37,0.044,2.744,0.093,4.112,0.136c0.723,0.023,1.189-0.301,1.461-0.745   c0.521,0.041,1.078-0.201,1.334-0.839c3.061-7.633,5.498-15.517,8.038-23.336c1.732-5.33,5.847-12.949,5.527-18.544   c-0.025-0.438-0.24-0.858-0.523-1.221c0.246-1.234-0.417-2.713-2.051-2.769c-1.992-0.068-3.977-0.093-5.966-0.15   c-0.19-19.185-6.338-36.881-17.216-50.2c0.145-0.042,0.29-0.038,0.429-0.164c2.664-2.402,5.304-4.716,8.346-6.646   c1.612-1.022,3.344-1.844,5.05-2.7c2.437,1.572,5.438,2.99,8.309,1.868c2.038-0.797,4.442-3.397,3.076-5.642   c-0.081-0.132-0.195-0.198-0.303-0.274c-0.567-2.014-1.526-3.86-2.728-5.552c3.294-0.856,6.449-1.3,10-1.239   c3.482,0.059,6.938,0.274,10.314-0.565c0.707,0.3,1.627,0.092,1.973-0.891c0.79-2.242,1.297-4.739,1.641-7.092   C211.984,18.544,211.715,18.168,211.366,17.927z M49.918,18.828c-0.181-0.392-0.549-0.676-1.141-0.622   c-9.07,0.829-16.645,5.889-25.454,7.268c-0.696-0.483-1.426-0.923-2.062-1.507c1.205,0.074,2.409,0.189,3.617,0.19   c0.873,0.001,0.83-1.236,0-1.327c-1.602-0.176-3.212-0.242-4.822-0.283c-0.07-0.097-0.159-0.177-0.226-0.276   c2.333-0.642,4.742-1.5,7.161-2.468c2.511,0.072,5.014,0.012,7.507-0.36c0.733-0.109,0.568-1.37-0.177-1.304   c-1.355,0.12-2.704,0.21-4.054,0.267c2.011-0.913,4.013-1.927,5.978-3.017c2.954,0.021,5.904,0.041,8.859-0.035   c0.805-0.021,0.806-1.231,0-1.252c-2.202-0.057-4.402-0.033-6.603-0.026c1.363-0.814,2.703-1.666,4.004-2.551   c2.546-0.2,5.1-0.252,7.654-0.225c0.782,0.008,0.751-1.122,0-1.195c-1.902-0.184-3.778-0.149-5.657-0.034   c0.804-0.587,1.538-1.217,2.306-1.826c2.688-0.111,5.38-0.1,8.07-0.148c1.001-0.017,0.946-1.405,0-1.517   c-1.983-0.235-3.932-0.199-5.882-0.071c1.405-1.216,2.724-2.472,3.925-3.767c3.715,4.059,6.999,8.303,10.096,12.853   c-3.208,1.05-6.151,3.176-8.639,5.593C53.186,19.886,51.632,19.099,49.918,18.828z M52.508,37.996   c-0.894-0.468-1.52-1.172-1.99-1.986c0.005-0.108-0.037-0.152-0.108-0.231c-0.331-0.623-0.583-1.294-0.794-1.976   c0.407-1.894,1.844-4.687,2.268-5.353c1.383-2.172,3.1-4.155,5.009-5.884c4.066-3.681,8.367-5.136,13.742-4.797   c1.117,0.967,1.693,2.439,1.177,4.03c-0.334,1.031-0.949,1.641-1.639,2.166c-0.184-0.72-0.345-1.446-0.58-2.153   c-0.223-0.671-0.846-0.922-1.404-0.827c-0.384-0.358-0.901-0.527-1.399-0.248c-1.274,0.711-2.914,0.61-4.248,1.388   c-1.331,0.776-2.462,1.884-3.426,3.072c-2.357,2.907-4.11,6.485-4.931,10.132c-0.021,0.094,0.03,0.166,0.037,0.253   c-0.296,1.116,0.814,2.102,1.877,2.881C54.881,38.651,53.643,38.589,52.508,37.996z M62.278,40.023   c0.837-0.06,1.673-0.135,2.501-0.285c0.551-0.1,0.4-0.94-0.128-0.95c-1.196-0.023-2.387,0.108-3.577,0.224   c-0.666-0.554-1.335-1.104-2.009-1.648c-0.354-0.286-2.336-1.504-2.362-1.901c0-0.008-0.007-0.012-0.007-0.02   c1.758-0.045,3.517-0.094,5.261-0.313c0.694-0.087,0.742-1.102,0-1.119c-1.721-0.038-3.441,0.088-5.159,0.222   c0.49-0.908,1-1.804,1.52-2.695c1.618-0.155,3.241-0.307,4.813-0.703c0.651-0.164,0.501-1.144-0.157-1.155   c-1.217-0.02-2.433,0.108-3.647,0.263c0.464-0.719,0.933-1.434,1.456-2.113c1.929,0.12,3.817,0.08,5.704-0.437   c0.585-0.16,0.486-1.111-0.146-1.08c-1.507,0.074-3.005,0.188-4.508,0.251c0.788-0.862,1.674-1.638,2.753-2.092   c0.881-0.37,1.791-0.409,2.669-0.662c0.06,0.73,0.243,1.469,0.391,2.207c-0.469,0.645-0.244,1.477,0.403,1.824   c0.985,3.41,2.731,6.75,4.753,9.451c-2.538,1.689-5.013,3.469-7.338,5.432C64.409,41.815,63.343,40.919,62.278,40.023z    M48.295,157.979c1.971,0.057,3.938,0.111,5.911,0.053c0.915-0.027,0.917-1.395,0-1.422c-2.039-0.061-4.071-0.005-6.109,0.054   c-0.27-1.776-0.558-3.547-0.842-5.319c5.853,0.556,11.941,1.01,17.739,0.272c0.898-0.114,0.928-1.337,0-1.422   c-5.962-0.546-12.022-0.393-18.021-0.633c-0.21-1.277-0.454-2.544-0.675-3.818c2.636,0.08,5.276,0.022,7.91-0.062   c1.074-0.034,1.076-1.635,0-1.669c-2.739-0.087-5.485-0.153-8.226-0.055c-0.199-1.113-0.376-2.232-0.591-3.34   c28.304,1.501,56.715,2.664,85.088,3.684c0.364,6.489,0.569,13.402,1.941,19.712c-18.462-0.754-36.933-1.255-55.409-1.306   c0.901-6.167,0.738-12.862,0.039-18.888c-0.208-1.797-3.001-1.885-2.882,0c0.395,6.253,0.524,12.641,1.063,18.903   c-8.727-0.012-17.456,0.039-26.183,0.231C48.81,161.292,48.543,159.638,48.295,157.979z M51.947,185.679   c8.387,0.217,16.804,0.493,25.182,0.139c1.141-0.048,1.128-1.686,0-1.764c-8.451-0.583-16.96-0.525-25.435-0.533   c-0.196-1.653-0.425-3.3-0.626-4.952c2.134,0.142,4.229,0.024,6.339-0.42c0.683-0.144,0.541-1.278-0.166-1.229   c-2.115,0.147-4.23,0.216-6.347,0.268c-0.191-1.555-0.398-3.105-0.59-4.66c6.357-0.092,12.714-0.049,19.071-0.107   c1.177-0.011,1.166-1.764,0-1.82c-6.44-0.311-12.869-0.178-19.306,0.071c-0.231-1.845-0.446-3.694-0.7-5.534   c17.124,0.739,34.253,1.347,51.381,1.958c-0.119,0.195-0.202,0.417-0.179,0.695c0.709,8.505,1.465,16.751,1.392,25.289   c-16.396-0.432-32.8-0.667-49.221-0.667C52.484,190.169,52.211,187.924,51.947,185.679z M56.144,221.169   c-0.002-0.024,0.009-0.042,0.006-0.066c-0.185-1.419-0.333-2.861-0.511-4.283c1.466,0.226,3.033,0.125,4.505,0.133   c1.951,0.012,3.916,0.028,5.858-0.179c1.033-0.11,1.039-1.506,0-1.612c-3.35-0.341-6.716-0.016-10.068-0.122   c-0.095-0.059-0.203-0.101-0.309-0.107c-0.087-0.005-0.126,0.059-0.202,0.072c-0.214-1.735-0.411-3.481-0.622-5.217   c1.597,0.081,3.195,0.148,4.797,0.13c0.861-0.01,0.818-1.217,0-1.309c-1.656-0.184-3.317-0.276-4.979-0.356   c-0.218-1.803-0.429-3.613-0.646-5.416c2.889,0.153,5.766,0.298,8.66,0.305c0.838,0.002,0.82-1.23,0-1.29   c-2.941-0.212-5.873-0.284-8.819-0.347c-0.271-2.252-0.548-4.499-0.807-6.762c7.05,0.231,14.098,0.554,21.147,0.819   c0.478,8.816,1.101,17.771,2.274,26.521C69.668,221.783,62.907,221.478,56.144,221.169z M134.989,211.596   c-0.057,4.184-0.37,8.474-0.027,12.655c-19.043-0.555-38.078-1.256-57.111-2.102c0.105-8.784-0.385-17.711-0.991-26.48   c19.45,0.743,38.895,1.613,58.336,2.553C134.799,202.642,135.05,207.16,134.989,211.596z M157.161,224.868   c-6.614-0.123-13.222-0.365-19.833-0.552c1.543-8.105,1.717-17.855,0.897-25.946c7.388,0.361,14.776,0.696,22.162,1.091   c0.015,0.001,0.025-0.007,0.04-0.006C159.342,207.942,158.275,216.425,157.161,224.868z M160.913,195.713   c-0.168-0.056-0.326-0.127-0.526-0.139c-18.946-1.147-37.887-1.944-56.836-2.46c1.175-8.391,1.385-17.38-0.299-25.686   c-0.019-0.094-0.069-0.161-0.105-0.241c20.472,0.73,40.944,1.461,61.411,2.352C163.225,178.241,162.042,186.976,160.913,195.713z    M165.195,165.596c-10.127-0.577-20.26-1.058-30.396-1.485c0.523-6.388-0.234-13.222-0.777-19.677   c11.578,0.411,23.15,0.805,34.703,1.179C167.399,152.236,166.26,158.907,165.195,165.596z M187.386,102.737   c0.058,0.329,0.204,0.65,0.51,0.926c0.125,0.113,1.062,0.671,1.335,0.575c-0.514,0.37-2.684,2.563-3.01,3.096   c-1.212,1.981-1.783,5.705-2.443,7.844c-2.787,9.017-5.712,18.048-7.912,27.23c-0.2-0.099-0.421-0.177-0.677-0.202   c-47.267-4.747-96.441-6.798-143.959-5.077c0.137-1.596,0.15-3.267,0.208-4.912c1.378,0.43,3.385-0.03,4.549-0.053   c4.281-0.084,8.566-0.166,12.828-0.605c0.955-0.098,0.996-1.481,0-1.517c-3.096-0.113-6.169-0.016-9.265,0.1   c-1.489,0.056-5.886,0.901-7.717,0.41c-0.012-0.021-0.025-0.042-0.037-0.063c-0.066-0.112-0.175-0.151-0.276-0.205   c0.029-1.668-0.019-3.362-0.062-5.053c2.586,0.097,5.16,0.067,7.728-0.346c0.581-0.094,0.443-1.049-0.139-1.024   c-2.538,0.108-5.068,0.19-7.604,0.139c-0.06-1.678-0.16-3.361-0.286-5.041c1.616,0.02,3.237,0.059,4.846-0.048   c0.89-0.059,0.891-1.325,0-1.384c-1.652-0.109-3.318-0.065-4.977-0.046c-0.127-1.469-0.33-2.914-0.506-4.369   c5.086-0.191,10.174-0.249,15.259-0.466c0.902-0.038,0.904-1.367,0-1.403c-5.151-0.205-10.277,0.156-15.392,0.713   c-0.233-1.795-0.503-3.567-0.8-5.32c0.301,0.016,0.601,0.025,0.901,0.023c0.047,0.014,0.068,0.057,0.122,0.062   c2.245,0.184,4.487,0.417,6.74,0.453c0.942,0.015,0.908-1.356,0-1.441c-1.552-0.144-3.11-0.192-4.669-0.23   c-0.093-0.291-0.3-0.552-0.723-0.6c-0.656-0.075-1.315-0.086-1.973-0.064c-0.16-0.244-0.516-0.385-0.757-0.127l-0.002,0.001   c-0.122-0.644-0.226-1.303-0.363-1.936c25.165,1.699,50.658-1.539,75.859-1.747C132.288,100.799,159.842,101.763,187.386,102.737z    M179.089,98.125c-46.603-1.179-92.765,0.405-139.297,1.264c0.354-2.015,0.786-4.012,1.25-5.997   c9.209-0.082,18.365-0.564,27.5-1.821c0.722-0.099,0.56-1.367-0.174-1.285c-9.008,1.005-18.022,1.775-27.081,2.019   c0.623-2.552,1.367-5.06,2.169-7.542c3.93,0.104,7.845,0.066,11.766-0.361c0.639-0.07,0.672-1.05,0-1.024   c-3.785,0.143-7.57,0.23-11.357,0.192c0.697-2.071,1.472-4.104,2.292-6.112c5.379-0.181,10.758-0.172,16.139-0.307   c0.944-0.024,0.935-1.407,0-1.46c-5.155-0.291-10.31-0.106-15.459,0.204c0.939-2.19,1.98-4.318,3.068-6.414   c3.572-0.051,7.136-0.114,10.705-0.308c1.077-0.059,1.095-1.69,0-1.688c-3.268,0.008-6.527,0.131-9.789,0.267   c1.121-2.055,2.338-4.038,3.603-5.983c3.861-0.078,7.722-0.149,11.579-0.353c1.09-0.058,1.107-1.704,0-1.707   c-3.461-0.007-6.918,0.108-10.377,0.211c1.711-2.488,3.557-4.859,5.512-7.122c8.366-0.564,16.711-0.551,25.092-0.408   c1.208,0.021,1.151-1.716,0-1.839c-7.759-0.831-15.515-0.628-23.26,0.183c2.593-2.797,5.42-5.345,8.404-7.697   c5.057-0.044,10.067-0.387,15.052-1.306c0.821-0.151,0.644-1.553-0.199-1.471c-4.14,0.403-8.284,0.735-12.436,0.951   c2.134-1.536,4.382-2.926,6.698-4.217c4.37-0.394,8.744-0.751,13.082-1.42c1.097-0.169,0.84-1.996-0.262-1.937   c-2.496,0.133-4.983,0.378-7.467,0.653c7.457-3.317,15.746-5.368,24.871-5.796C153.361,26.491,176.555,59.142,179.089,98.125z    M164.814,46.451c-0.07,0.083-0.048,0.171-0.089,0.258c-2.174-2.529-4.462-4.949-6.988-7.112c1.625-3.013,3.061-6.143,4.411-9.284   c0.962-2.24,1.909-4.465,1.793-6.825c6.474,2.194,12.889,5.819,17.309,11.023C175.096,36.297,168.766,41.75,164.814,46.451z    M188.964,35.728c-0.148,0.599-0.277,1.178-0.755,1.68c-0.669,0.702-1.566,1.032-2.499,1.13c-1.484,0.156-2.913-0.366-4.275-0.979   c0.598-0.33,1.193-0.665,1.761-1.04c0.255-0.168,0.381-0.397,0.471-0.63c0.544-0.253,0.89-0.866,0.493-1.601   c-3.834-7.09-13.021-10.695-20.584-12.685c-0.556-1.085-2.333-0.838-2.339,0.515c-0.004,0.892-0.096,1.775-0.224,2.654   c-1.587-0.724-2.693-2.371-2.359-4.2c0.372-2.04,2.004-3.199,3.565-4.349c5.196,0.236,11.297,3.886,15.508,6.519   c2.569,1.606,4.677,3.401,6.471,5.446c0.015,0.622,0.4,1.205,1.024,1.326C186.657,31.376,187.916,33.395,188.964,35.728z    M207.582,24.818c-6.831-0.44-15.581-1.736-21.691,1.578c-1.845-1.958-3.99-3.665-6.204-5.095   c-2.616-1.688-6.311-4.102-10.08-5.571c0.825-1.781,1.504-3.634,2.223-5.458c0.63-1.6,1.479-3.257,1.864-4.963   c9.111,8.092,23.613,12.701,35.359,14.667C208.462,21.559,207.944,23.192,207.582,24.818z"></path></g><g></g><g></g><g></g><g></g><g></g><g></g><g></g><g></g><g></g><g></g><g></g><g></g><g></g><g></g><g></g></svg>