<svg xmlns="http://www.w3.org/2000/svg" xmlns:xlink="http://www.w3.org/1999/xlink" fill="currentColor" version="1.1" id="Capa_1" viewBox="0 0 265.633 265.633" xml:space="preserve"><g><path d="M258.519,134.109c-0.254-0.981-0.983-1.429-1.754-1.47c-0.838-0.241-1.776-0.063-2.19,0.856   c-6.413,14.232-13.706,30.647-27.695,39.078c-22.105,13.323-47.896-0.771-54.575-24.361c-4.922-17.389,1.608-47.112-13.7-60.398   c3.606-0.865,6.99-2.857,9.522-6.114c5.022-6.459,4.684-15.854-0.248-21.95c17.386,7.367,31.186,24.861,37.243,41.677   c0.213,0.593,0.616,0.902,1.055,1.025c-6.508,3.328-10.927,10.375-10.344,17.984c0.721,9.423,9.631,16.218,18.95,14.753   c9.593-1.508,15.956-10.886,14.919-20.301c-0.833-7.561-8.554-18.026-16.805-15.73c0.055-0.167,0.134-0.317,0.153-0.512   c4.869-51.834-37.105-91.554-86.314-97.703C85.61-4.195,19.061,11.04,16.328,61.988c-0.026,0.469,0.272,0.75,0.629,0.924   c-1.475,1.291-2.859,2.645-4.036,4.127c-0.093,0.031-0.188,0-0.278,0.064c-9.703,6.846-14.097,34.027,0.686,36.803   c-11.597,39.908-3.705,79.615,17.568,109.708c-0.135,0.275-0.017,0.71,0.394,0.763c0.061,0.008,0.122,0.018,0.183,0.026   c20.779,28.904,53.983,48.767,94.221,51.018C198.29,269.481,279.502,215.157,258.519,134.109z M211.099,131.648   c-3.344-0.281-6.158-1.811-8.218-4.016c2.695,0.076,5.399,0.159,8.088,0.061c0.635-0.023,0.636-0.963,0-0.986   c-2.943-0.108-5.905,0-8.851,0.08c-1.025-1.317-1.755-2.847-2.212-4.479c5.709,0.153,11.409,0.34,17.12,0.226   c0.893-0.018,0.889-1.347,0-1.384c-5.797-0.24-11.589-0.171-17.39-0.141c-0.272-1.581-0.318-3.23,0.038-4.919   c0.126-0.6,0.311-1.146,0.491-1.697c3.146,0.082,6.332,0.254,9.458,0.04c0.89-0.061,0.892-1.323,0-1.384   c-2.961-0.203-5.973-0.06-8.959,0.026c0.695-1.606,1.688-2.943,2.792-4.181c3.444-0.127,6.974-0.085,10.376-0.601   c0.734-0.111,0.533-1.259-0.172-1.266c-3.031-0.032-6.107,0.396-9.141,0.739c1.98-1.879,4.33-3.424,6.872-4.793   C230.339,99.633,230.815,133.302,211.099,131.648z M22.18,50.456c3.104-0.37,6.205-0.734,9.293-1.237   c0.771-0.126,0.6-1.469-0.187-1.378c-2.862,0.332-5.701,0.782-8.544,1.236c1.099-2.495,2.361-4.865,3.748-7.134   c5.314,0.224,10.587-0.085,15.743-1.532c0.711-0.2,0.604-1.444-0.182-1.341c-4.797,0.63-9.557,1.136-14.371,1.161   c2.032-3.08,4.389-5.883,6.902-8.54c8.097,0.094,16.188,0.185,24.285,0.026c0.976-0.019,0.978-1.498,0-1.517   c-7.638-0.15-15.271-0.074-22.908,0.013c3.35-3.333,7.091-6.281,11.081-8.936c0.097,0.096,0.216,0.177,0.386,0.188   c5.992,0.402,11.814-0.017,17.674-1.307c0.822-0.181,0.46-1.374-0.343-1.243c-5.316,0.864-10.671,1.272-16.051,1.292   c2.962-1.868,6.067-3.561,9.285-5.084c0.078,0.028,0.127,0.091,0.231,0.086c5.438-0.255,10.924-0.319,16.322-1.057   c0.85-0.116,0.623-1.471-0.199-1.471c-4.239-0.002-8.48,0.423-12.707,0.837C83.601,4.2,110.063,2.292,132.198,6.338   c44.552,8.143,80.618,45.354,76.528,92.307c-0.089,1.02,0.441,1.654,1.154,1.921c-0.033,0.023-0.067,0.034-0.1,0.057   c-0.205,0.143-0.281,0.339-0.382,0.524c-0.504,0.146-0.969,0.377-1.455,0.565c0.171-0.305,0.265-0.676,0.197-1.118   c-3.25-20.968-28.542-44.642-49.657-46.238c-0.011-0.001-0.015,0.01-0.026,0.009C133.354,40.15,99.398,40.073,71.768,44.351   c-14.191,2.198-38.687,5.995-52.993,17.033C19.596,57.519,20.764,53.894,22.18,50.456z M13.164,100.632   c-1.887-1.309-3.3-3.068-4.311-5.069c4.558,0.027,9.115,0.062,13.673-0.052c0.793-0.02,0.795-1.213,0-1.232   c-4.758-0.12-9.513-0.076-14.272-0.05c-0.762-1.925-1.17-4.026-1.284-6.16c3.843,0.064,7.679,0.152,11.519-0.084   c0.634-0.039,0.635-0.947,0-0.986c-3.849-0.236-7.695-0.147-11.547-0.083c-0.001-0.557-0.004-1.114,0.036-1.669   c0.098-1.318,0.336-2.548,0.646-3.735c5.934,0.326,11.924,0.197,17.801-0.673c0.861-0.127,0.665-1.594-0.207-1.527   c-5.737,0.441-11.424,0.738-17.163,0.754c0.364-1.085,0.783-2.14,1.277-3.16c0.283-0.006,0.556-0.097,0.716-0.418   c0.766-1.536,1.706-2.975,2.74-4.359c7.428,0.427,14.764,0.168,22.066-1.329c0.803-0.165,0.635-1.562-0.197-1.453   c-6.84,0.901-13.657,1.425-20.542,1.194c2.82-3.308,6.394-6.158,10.447-8.635c5.632,0.306,11.211,0.202,16.824-0.495   c0.901-0.112,0.933-1.532,0-1.441c-4.814,0.468-9.639,0.639-14.469,0.594c16.795-9.266,40.608-12.672,56.069-14.029   c25.836-2.267,52.856,0.149,76.32,11.716c0.484,0.239,0.937,0.2,1.315,0.022c7.003,5.174,10.311,13.813,4.498,21.396   c-3.958,5.163-10.083,6.408-15.735,4.794c0.003-0.515-0.209-1.015-0.769-1.284c-19.175-9.217-41.057-11.998-62.103-9.233   c-10.475,1.376-20.788,4.132-30.491,8.328C42.187,88.255,29.197,101.907,13.164,100.632z M79.059,172.472   c-3.026-0.217-6.047-0.186-9.076-0.154c-1.319-1.339-2.346-2.966-3.047-4.89c3.144,0.064,6.302,0.161,9.431-0.046   c0.609-0.04,0.61-0.908,0-0.948c-3.227-0.214-6.486-0.103-9.728-0.04c-0.396-1.399-0.676-2.902-0.688-4.639   c-0.006-0.915,0.06-1.792,0.192-2.635c7.668-0.429,15.339-0.561,23.012-0.885c0.922-0.039,0.932-1.438,0-1.441   c-7.592-0.025-15.186,0.558-22.747,1.227c0.572-2.446,1.739-4.559,3.283-6.408c0.089,0.276,0.282,0.512,0.614,0.475   c3.659-0.411,7.321-0.769,10.956-1.359c0.774-0.126,0.601-1.446-0.186-1.378c-3.533,0.302-7.038,0.824-10.55,1.303   c6.093-6.352,17.072-9.098,24.91-9.902c13.823-1.418,39.631,7.049,28.676,26.223c-5.483,9.596-19.02,10.674-28.689,12.405   c-0.085,0.015-0.143,0.06-0.217,0.088c-7.853-0.457-17.712-1.159-23.745-5.844c2.534,0.02,5.065,0.018,7.6-0.164   C79.693,173.412,79.694,172.517,79.059,172.472z M94.924,137.003c-13.898,1.52-34.468,9.511-32.395,26.857   c-28.388-1.684-32.036-43.352-28.383-63.804c0.062-0.346,0.031-0.658-0.049-0.944c10.974-5.054,21.669-13.377,31.861-16.731   c25.884-8.518,51.201-6.249,76.405,2.054c0.02,0.076,0.004,0.139,0.033,0.218c7.898,21.615,7.159,52.527-13.61,66.966   C123.925,139.564,107.238,135.657,94.924,137.003z M125.695,261.256c-8.463-0.479-16.458-1.703-24.003-3.563   c1.258-0.201,2.512-0.443,3.756-0.762c0.678-0.174,0.375-1.122-0.282-1.024c-2.299,0.344-4.588,0.652-6.884,0.884   c-5.791-1.607-11.315-3.582-16.545-5.926c6.055,0.436,12.116,0.815,18.178,0.995c0.887,0.026,0.866-1.297,0-1.365   c-7.078-0.561-14.183-0.863-21.285-1.093c-3.726-1.809-7.332-3.763-10.755-5.925c1.933,0.02,3.866,0.074,5.8,0.05   c0.732-0.009,0.733-1.128,0-1.138c-2.445-0.03-4.888,0.029-7.331,0.063c-4.11-2.695-8.054-5.572-11.704-8.744   c4.773,0.383,9.543,0.781,14.326,1.06c0.748,0.043,0.734-1.095,0-1.157c-5.211-0.442-10.428-0.757-15.646-1.081   c-3.283-2.949-6.396-6.063-9.287-9.369c4.938,0.632,9.89,1.193,14.836,1.709c0.962,0.1,0.945-1.39,0-1.498   c-5.347-0.614-10.711-1.19-16.076-1.658c-1.766-2.091-3.484-4.222-5.095-6.438c3.685,0.529,7.373,1.036,11.078,1.309   c0.622,0.046,0.773-0.992,0.149-1.099c-4.008-0.689-8.064-1.106-12.118-1.517c-2.347-3.325-4.553-6.759-6.554-10.334   c5.272,0.435,10.545,0.861,15.83,1.123c1.083,0.053,1.056-1.576,0-1.669c-5.564-0.492-11.14-0.803-16.717-1.111   c-1.929-3.575-3.74-7.229-5.323-11.017c3.533,0.105,7.064,0.206,10.599,0.175c0.866-0.008,0.868-1.339,0-1.346   c-3.676-0.032-7.349,0.079-11.023,0.187c-1.319-3.233-2.555-6.513-3.622-9.881c6.525,1.783,13.286,2.288,20.022,1.594   c0.897-0.092,0.921-1.496,0-1.422c-6.94,0.562-13.627-0.026-20.397-1.48c-0.796-2.607-1.549-5.236-2.193-7.912   c2.781,0.004,5.555,0.165,8.306,0.626c0.771,0.129,1.113-1.036,0.328-1.189c-2.968-0.577-5.921-0.723-8.904-0.656   c-0.463-2.006-0.962-3.997-1.339-6.037c4.248,0.311,8.504,0.674,12.759,0.686c0.869,0.002,0.836-1.247,0-1.327   c-4.306-0.413-8.649-0.465-12.977-0.577c-0.435-2.468-0.828-4.951-1.136-7.464c2.446,0.183,4.971,0.122,7.387,0.014   c1.073-0.048,1.075-1.621,0-1.668c-2.472-0.11-5.058-0.178-7.556,0.023c-0.355-3.2-0.632-6.426-0.782-9.685   c5.412,0.869,10.98,1.039,16.42,0.699c1.111-0.07,1.131-1.779,0-1.745c-5.538,0.171-10.983-0.117-16.479-0.489   c-0.104-2.894-0.156-5.801-0.097-8.732c2.36,0.468,4.729,0.713,7.149,0.553c0.833-0.055,0.846-1.346,0-1.308   c-2.415,0.107-4.773-0.062-7.138-0.502c0.061-2.137,0.163-4.282,0.312-6.434c4.015,0.857,8.101,1.285,12.21,0.907   c0.907-0.083,0.944-1.444,0-1.441c-4.099,0.013-8.113-0.222-12.121-0.974c0.189-2.413,0.423-4.832,0.722-7.258   c1.556,0.023,3.112,0.056,4.668,0.033c0.647-0.01,0.648-0.995,0-1.005c-1.517-0.022-3.034,0.01-4.551,0.032   c0.286-2.211,0.609-4.427,0.987-6.646c2.747,0.496,5.523,1.013,8.283,1.164c0.935,0.051,1.14-1.432,0.222-1.639   c-2.673-0.604-5.46-0.864-8.215-1.135c0.216-1.202,0.406-2.402,0.65-3.605c0.506-0.061,0.765-0.47,0.746-0.894   c4.259,0.144,8.494-0.796,12.691-2.356c-2.719,15.954-2.23,32.537,5.859,46.982c5.339,9.535,15.376,21.336,27.184,18.698   c3.756,14.701,22.349,17.162,35.29,15.588c13.57-0.91,31.204-5.948,31.877-22.128c0.08-1.931-0.125-3.693-0.485-5.358   c23.613-11.272,25.441-45.455,18.127-67.758c2.38,1.012,4.915,1.487,7.438,1.397c16.411,17.016,6.086,49.279,15.555,69.93   c5.41,11.798,15.685,20.027,28.327,22.943c28.943,6.675,46.036-17.047,56.542-40.29   C269.806,216.007,194.049,265.12,125.695,261.256z"></path><path d="M61.693,128.874c-1.892-0.432-4.608,0.392-5.127,2.53c-0.075,0.308-0.078,0.606-0.039,0.894   c-0.556,2.374,0.617,5.084,3.707,5.147C65.422,137.549,67.094,130.108,61.693,128.874z"></path><path d="M126.788,124.218c-2.059-0.919-4.952-0.54-5.983,1.705c-0.089,0.195-0.071,0.409-0.119,0.613   c-0.185,0.389-0.324,0.818-0.348,1.316c-0.114,2.45,2.027,4.525,4.263,5.136c2.388,0.652,4.883-0.563,5.353-3.078   C130.392,127.565,128.903,125.162,126.788,124.218z"></path></g><g></g><g></g><g></g><g></g><g></g><g></g><g></g><g></g><g></g><g></g><g></g><g></g><g></g><g></g><g></g></svg>