<svg xmlns="http://www.w3.org/2000/svg" xmlns:xlink="http://www.w3.org/1999/xlink" fill="currentColor" version="1.1" id="Capa_1" viewBox="0 0 216.592 216.592" xml:space="preserve"><g><path d="M95.884,73.892c-8.516-1.151-17.571-0.397-26.153-0.443c-0.012,0-0.019,0.006-0.031,0.006   c-2.448-5.529-6.004-10.606-9.736-15.334c-2.441-3.093-7.318-10.914-11.584-11.486c-3.673-0.493-5.908,4.905-7.005,7.36   c-0.451,1.01-0.853,2.047-1.274,3.074c-0.015,0.001-0.03,0.001-0.045,0.002c-0.785,0.033-0.945,0.919-0.512,1.342   c-2.301,5.821-4.17,11.859-5.715,17.888c-7.203-1.148-14.742-0.964-22.006-1.237c-3.601-0.136-9.537-0.96-11.404,3.244   c-1.756,3.956,2.414,7.237,4.949,9.468c6.663,5.864,13.571,11.467,20.508,17.001c0.057,0.045,0.119,0.054,0.177,0.092   c-3.478,7.105-4.557,15.65-5.664,23.385c-0.508,3.547-2.97,11.63,0.789,14.483c4.065,3.085,8.673-2.232,11.133-4.682   c6.516-6.489,12.581-13.38,18.324-20.557c5.012,5.307,10.739,9.9,16.566,14.283c2.886,2.171,9.73,9.466,14.052,7.405   c4.258-2.03,1.741-8.348,0.81-11.295c-2.574-8.154-4.592-17.116-8.467-24.754c5.842-0.679,11.475-5.793,15.992-9.248   c3.305-2.528,6.502-5.19,9.567-8.006c1.662-1.527,4.418-3.604,4.791-6.13C104.61,75.274,99.121,74.329,95.884,73.892z    M95.676,84.005c-4.377,3.945-9.024,7.586-13.868,10.94c-3.293,2.28-7.019,3.889-9.298,7.233c-0.037,0.054-0.035,0.117-0.051,0.177   c-0.73,0.058-1.452,0.809-1.32,1.682c0.896,5.916,3.268,11.703,5.096,17.401c0.791,2.468,1.597,4.933,2.375,7.405   c0.837,2.659,2.496,6.311-1.406,5.696c-2.107-0.332-5.461-3.842-7.178-5.112c-2.577-1.906-5.115-3.862-7.619-5.863   c-3.79-3.028-7.504-6.144-11.396-9.04c-0.646-0.883-1.852-1.284-2.718-0.2c-3.346,4.192-6.782,8.301-10.386,12.274   c-2.535,2.795-9.411,12.27-12.927,10.983c-2.211-0.809-1.872-3.314-1.352-5.758c1.547,0.065,3.082,0.196,4.629,0.381   c0.578,0.069,0.719-0.933,0.139-1.024c-1.519-0.238-3.044-0.286-4.573-0.27c0.145-0.658,0.285-1.302,0.365-1.881   c0.152-1.099,0.371-2.185,0.542-3.28c3.993,0.122,7.976,0.46,11.955,0.79c0.652,0.054,0.814-1.058,0.156-1.154   c-3.983-0.584-7.945-0.681-11.96-0.555c0.272-1.679,0.508-3.364,0.833-5.036c0.066,0.019,0.101,0.074,0.183,0.07   c1.769-0.08,3.466,0.063,5.22,0.314c0.808,0.115,1.19-1.072,0.348-1.262c-1.822-0.409-3.625-0.481-5.485-0.361   c0.358-1.69,0.757-3.376,1.145-5.063c2.51-0.141,5.02-0.123,7.535-0.048c0.789,0.023,0.769-1.151,0-1.214   c-2.449-0.2-4.866-0.061-7.294,0.205c0.449-2.006,0.807-4.025,1.06-6.058c2.196-0.003,4.383,0.151,6.574,0.33   c0.719,0.059,0.884-1.126,0.171-1.266c-2.194-0.432-4.37-0.474-6.584-0.371c0.02-0.225,0.067-0.445,0.083-0.67   c0.002-0.034-0.026-0.051-0.027-0.084c0.437-0.612,0.501-1.418-0.272-2.033c-2-1.591-3.969-3.22-5.954-4.83   c4.737,0.682,9.477,1.285,14.262,1.641c0.937,0.07,0.903-1.338,0-1.441c-5.443-0.62-10.891-1.215-16.329-1.877   c-1.085-0.887-2.187-1.754-3.265-2.649c-1.465-1.216-2.92-2.444-4.374-3.672c3.27,0.114,6.535,0.198,9.816,0.123   c0.887-0.021,0.869-1.302,0-1.365c-3.94-0.288-7.868-0.36-11.812-0.403c-2.488-1.941-4.667-3.119-4.369-6.453   c5.487,0.612,11.009,1.016,16.519,1.294c1.126,0.057,1.083-1.612,0-1.726c-5.385-0.563-10.802-1.005-16.215-1.249   c0.681-2.188,2.126-1.273,5.174-1.18c2.404,0.073,4.807,0.137,7.211,0.203c5.178,0.143,10.47,0.577,15.624,0.005   c0.864-0.096,1.365-1.143,1.011-1.784c0.208-0.539,0.409-1.08,0.616-1.619c1.517,0.178,3.57,0.242,3.717,0.244   c1.825,0.031,3.625-0.044,5.447-0.141c0.879-0.047,0.878-1.314,0-1.365c-2.52-0.147-5.019-0.208-7.542-0.128   c-0.337,0.011-0.71-0.001-1.09-0.007c0.74-1.938,1.476-3.877,2.213-5.816c4.933,0.22,9.923,0.565,14.847,0.249   c1.348-0.086,1.335-1.976,0-2.086c-4.68-0.385-9.43-0.174-14.133-0.04c0.327-0.859,0.653-1.718,0.981-2.577   c0.459-1.205,0.942-3.016,1.561-4.878c2.518,0.131,5.097,0.245,7.546-0.082c1.046-0.139,1.048-1.491,0-1.631   c-2.236-0.298-4.579-0.225-6.886-0.111c1.417-3.606,3.509-6.715,7.17-5.123c3.358,1.459,7.918,9.335,9.85,12.095   c2.635,3.766,4.79,7.815,7.351,11.62c0.188,0.28,0.457,0.445,0.748,0.549c0.241,0.631,0.789,1.131,1.666,1.131   c5.621,0,11.242-0.006,16.864,0c2.694,0.003,6.456-0.595,9.03,0.37c2.178-0.287,3.3,0.826,3.371,3.336   C97.906,81.96,96.799,82.992,95.676,84.005z"></path><path d="M64.204,50.693c-0.727,0.263-0.447,1.354,0.322,1.17c37.404-8.931,73.044-1.46,100.734,26.1   c23.22,23.111,35.443,52.966,49.361,81.955c0.505,1.052,2.335,0.304,1.906-0.804C192.51,97.091,141.538,22.745,64.204,50.693z"></path><path d="M188.111,169.723c-24.367-28.36-62.88-38.992-99.222-36.326c-0.928,0.068-0.95,1.436,0,1.46   c37.811,0.957,70.126,9.282,97.385,36.703C187.468,172.761,189.189,170.977,188.111,169.723z"></path><path d="M198.012,150.668c-25.588-31.298-69.826-49.043-109.866-40.934c-0.533,0.108-0.414,0.973,0.129,0.95   c42.649-1.823,78.32,10.472,108.249,41.472C197.484,153.151,198.853,151.696,198.012,150.668z"></path><path d="M181.421,120.449c-15.341-25.809-43.597-43.135-73.241-46.41c-0.88-0.097-1.073,1.365-0.209,1.546   c29.96,6.269,53.002,21.766,71.076,46.252C180.072,123.226,182.347,122.008,181.421,120.449z"></path></g><g></g><g></g><g></g><g></g><g></g><g></g><g></g><g></g><g></g><g></g><g></g><g></g><g></g><g></g><g></g></svg>