<svg xmlns="http://www.w3.org/2000/svg" xmlns:xlink="http://www.w3.org/1999/xlink" fill="currentColor" version="1.1" id="Capa_1" viewBox="0 0 268.792 268.792" xml:space="preserve"><g><path d="M238.682,183.206c13.358-6.79,13.053-27.642-1.48-33.185c16.865-10.574,11.483-35.867-7.053-41.732   c2.503-5.289,1.828-12.348-3.997-14.604c8.364-2.254,10.844-12.732,5.949-19.49c5.539-43.883-46.165-71.873-83.719-74.06   c-35.878-2.089-89.9,19.944-96.129,60c-2.352-3.242-6.695-5.151-11.172-4.213c-3.855,0.807-7.173,3.335-8.536,7.085   c-0.546,1.502-0.741,3.099-0.527,4.589c-3.683-1.123-7.82-0.062-10.052,3.712c-2.214,3.745-0.736,9.361,3.095,11.084   c-9.754,5.715-9.643,21.075-0.269,27.822c9.255,6.662,23.379,2.542,27.419-7.588c2.897,6.161,12.07,7.791,17.89,3.263   c3.797-2.954,6.264-8.024,5.288-12.874c-0.568-2.825-2.408-5.34-4.91-6.432c0.444-0.281,0.81-0.641,1.215-0.962   c-0.038,0.505,0.545,1.004,0.937,0.511c8.369-10.524,18.397-17.781,31.712-20.469c-0.105,1.101-0.152,2.207-0.061,3.315   c-0.882,0.221-1.739,0.495-2.523,0.856c-5.906,2.72-8.337,10.519-4.484,14.905c-2.042,0.409-4.13,1.317-5.469,2.013   c-5.529,2.872-9.813,8.488-9.674,14.919c0.095,4.372,2.581,8.57,6.359,10.648c-3.105,1.247-5.264,4.268-4.944,7.863   c0.201,2.258,1.473,4.476,3.293,5.885c-7.352,3.341-12.965,10.226-13.842,18.47c-0.717,6.74,2.84,14.268,9.006,16.908   c-5.025,2.541-9.372,7.279-9.943,12.757c-0.597,5.726,3.844,8.959,8.775,9.869c-9.28,7.936-13.43,21.231-7.558,32.747   c5.134,10.068,18.475,15.516,28.342,9.82c-6.249,16.258,2.041,35.163,19.212,40.729c16.178,5.244,39.381-4.272,37.467-23.931   c-0.006-0.062-0.036-0.105-0.047-0.164c0.087-0.008,0.165-0.04,0.251-0.05c-0.034,11.045,11.291,18.932,21.973,15.968   c8.964-2.488,16.193-12.07,15.324-21.27c4.834,6.229,12.787,9.542,20.88,6.635c8.908-3.199,13.42-13.814,8.623-21.905   c11.53,2.762,22.162-5.467,25.046-16.844C252.729,196.419,248.955,183.72,238.682,183.206z M68.004,86.024   c-0.393-0.011-0.786-0.021-1.196,0.039c-1.564,0.23-1.156,2.336,0,2.779c3.537,1.356,5.889,3.875,5.108,7.927   c-0.585,3.033-2.596,5.728-5.265,7.25c-5.564,3.173-12.369-0.053-13.362-6.366c0.018-0.325,0.073-0.634,0.072-0.968   c-0.007-1.573-2.239-1.837-2.7-0.365c-3.065,9.774-12.081,18.066-22.609,11.8c-0.194-0.115-0.352-0.247-0.537-0.366   c0.407-0.004,0.814-0.009,1.214-0.002c2.134,0.038,4.226,0.03,6.335-0.324c0.624-0.105,0.625-1.157,0-1.262   c-2.109-0.354-4.201-0.363-6.335-0.324c-1.168,0.021-2.376-0.031-3.545,0.096c-1.836-1.737-2.985-3.742-3.57-5.857   c4.029,0.385,8.272,0.441,12.17-0.326c0.864-0.17,0.662-1.55-0.207-1.527c-4.103,0.108-8.165,0.421-12.266,0.506   c-0.308-1.918-0.142-3.896,0.366-5.833c5.848,0.336,11.816,0.164,17.462-1.488c0.824-0.241,0.712-1.675-0.212-1.564   c-5.59,0.669-11.053,1.353-16.668,1.273c0.93-2.406,2.418-4.683,4.338-6.624c4.084-0.537,8.212-0.617,12.325-0.445   c0.993,0.042,0.949-1.414,0-1.517c-3.361-0.365-6.658-0.306-9.973,0.048c0.122-0.11,0.228-0.235,0.303-0.381   c0.028-0.02,0.054-0.044,0.082-0.064c0.608-0.425,0.304-1.37-0.416-1.321c-0.11-0.079-0.165-0.19-0.319-0.239   c-2.609-0.838-4.511-3-4.475-5.402c3.799,0.167,7.646,0.251,11.437,0.046c0.939-0.051,0.94-1.409,0-1.46   c-3.71-0.201-7.472-0.121-11.192,0.038c0.205-0.605,0.496-1.212,0.992-1.806c1.963-2.353,4.944-2.664,7.595-1.769   c0.484,0.761,1.135,1.439,2.006,1.974c1.333,0.819,2.616-1.002,1.62-2.099c-1.246-1.373-1.597-2.861-1.444-4.3   c2.609,0.06,5.219,0.117,7.826,0.019c0.963-0.036,0.965-1.462,0-1.498c-2.496-0.094-4.994-0.044-7.492,0.012   c1.014-2.677,3.821-4.929,6.705-5.448c4.623-0.832,8.757,2.185,9.542,6.386c-0.02,0.388-0.068,0.767-0.079,1.158   c-0.006,0.226,0.115,0.382,0.22,0.546c-0.021,0.582-0.065,1.17-0.221,1.775c-0.74-0.288-1.499-0.471-2.277-0.342   c-0.936,0.154-1.337,1.624-0.586,2.218c1.02,0.807,2.246,0.972,3.353,1.657c1.336,0.828,2.209,1.949,3.046,3.263   c0.56,0.879,1.926,0.319,1.681-0.709c-0.307-1.287-1.111-2.729-2.176-3.935c0.251-0.162,0.467-0.388,0.582-0.699   c3.404-9.156,15.002-8.271,18.341,0.55C75.904,76.822,73.193,82.795,68.004,86.024z M103.745,62.57   c-10.262,1.662-20.171,6.983-26.896,14.977c0.682-2.921,0.427-6.044-0.887-8.951c3.04-0.429,6.114-1.004,8.964-2.031   c0.841-0.303,0.517-1.565-0.373-1.353c-3.1,0.739-6.142,1.547-9.25,2.178c-0.421-0.73-0.835-1.463-1.411-2.148   c-0.699-0.831-1.528-1.527-2.415-2.142c3.148-0.095,6.296-0.249,9.376-0.717c0.872-0.132,0.599-1.428-0.199-1.471   c-4.23-0.231-8.535,0.132-12.795,0.442c-4.951-1.616-10.701-0.646-13.539,3.429c0.593-2.974,1.472-5.821,2.481-8.603   c5.104-0.555,10.226-1.049,15.286-1.915c0.765-0.131,0.593-1.412-0.184-1.36c-4.829,0.325-9.634,0.992-14.436,1.619   c1.165-2.935,2.622-5.716,4.206-8.423c6.656-0.452,13.329-1.141,19.835-2.6c0.745-0.167,0.599-1.461-0.184-1.359   c-6.239,0.814-12.444,1.73-18.697,2.353c1.721-2.756,3.691-5.355,5.795-7.855c10.144-0.903,20.29-1.866,30.394-3.138   c1.05-0.132,1.099-1.781,0-1.687c-9.669,0.82-19.315,1.929-28.95,3.094c2.428-2.712,5.079-5.251,7.894-7.634   c5.22-0.072,10.5-0.033,15.677-0.591c0.999-0.108,1.048-1.564,0-1.593c-4.524-0.125-9.089,0.21-13.626,0.528   c3.68-2.926,7.681-5.501,11.817-7.868c6.882-0.426,13.769-0.743,20.659-1.015c1.057-0.042,1.067-1.644,0-1.65   c-5.797-0.033-11.562,0.257-17.32,0.747c4.229-2.209,8.634-4.105,13.124-5.723c6.647-0.526,13.33-1.074,19.931-2.013   c1.075-0.153,0.825-1.967-0.257-1.899c-3.236,0.203-6.473,0.513-9.705,0.865c9.076-2.315,18.29-3.446,27.065-3.207   c35.877,0.977,87.027,26.39,84.758,67.997c-0.216-0.18-0.412-0.375-0.644-0.543c-8.542-6.208-20.876-1.814-24.622,7.483   c-1.663-3.087-4.902-5.454-8.308-5.994c-4.484-0.712-8.583,1.549-10.906,5.142c-4.668-18.542-32.578-20.036-38.641-1.828   c-1.342-6.796-8.231-12.223-15.211-11.697c-6.999,0.527-11.433,5.363-12.872,11.374c-0.705-2.069-1.837-3.945-3.642-5.257   c-2.534-1.843-5.98-2.326-9.188-1.863c0.289-1.155,0.597-2.278,0.925-3.385c3.632-0.079,7.268-0.317,10.894-0.513   c1.391-0.075,1.381-2.273,0-2.162c-3.442,0.278-6.898,0.528-10.333,0.9c0.666-1.984,1.456-3.887,2.473-5.705   c8.784,0.157,17.557-0.085,26.266-1.318c0.968-0.137,0.745-1.782-0.232-1.713c-8.318,0.589-16.613,1.183-24.949,1.339   c0.81-1.218,1.699-2.411,2.793-3.545c1.04-1.077,2.153-1.993,3.295-2.847c4.243,0.092,8.585,0.406,12.803,0.01   c1.047-0.098,1.049-1.532,0-1.631c-3.35-0.315-6.779-0.178-10.175-0.062c3.385-1.985,7.084-3.345,11.094-4.251   c1.017-0.23,0.769-1.777-0.242-1.788c-11.107-0.119-22.915,9.592-25.629,20.782C104.529,62.605,104.169,62.501,103.745,62.57z    M86.233,104.628c4.189-0.387,8.38-0.491,12.59-0.401c0.974,0.021,0.92-1.371,0-1.479c-4.373-0.512-8.699-0.344-13.042,0.223   c-0.074-0.429-0.169-0.851-0.18-1.3c-0.044-1.739,0.377-3.466,1.107-5.058c4.565-0.295,9.148-0.52,13.679-1.138   c0.893-0.122,0.673-1.593-0.212-1.564c-4.18,0.132-8.35,0.612-12.513,1.052c0.63-0.986,1.334-1.92,2.16-2.705   c1.275-1.211,9.981-7.135,11.678-4.593c0.517,0.774,1.946,0.312,1.594-0.672c-0.423-1.182-1.2-1.85-2.157-2.192   c-0.996-0.785-1.734-1.871-2.153-3.069c3.59,0.581,7.174,0.713,10.805,0.277c1.059-0.127,1.125-1.749,0-1.707   c-3.727,0.139-7.436,0.06-11.15-0.266c-0.063-0.702-0.042-1.409,0.123-2.097c0.303-1.267,1.019-2.275,1.882-3.149   c3.871,1.133,7.803,1.558,11.839,1.23c1.143-0.093,1.133-1.902,0-1.783c-3.519,0.37-6.958,0.134-10.371-0.654   c1.083-0.699,2.28-1.249,3.514-1.549c3.255-0.79,7.091-0.442,9.227,2.389c1.822,2.415,1.85,5.667,2.267,8.537   c0.234,1.612,2.843,1.204,2.812-0.381c-0.001-0.041-0.005-0.083-0.006-0.124c0.16-0.145,0.277-0.354,0.298-0.638   c0.525-7.074,4.032-14.257,12.215-14.322c6.922-0.055,10.686,5.765,11.728,11.845c-1.275,0.194-2.528,0.461-3.692,0.877   c-1.212,0.433-0.732,2.152,0.529,1.92c3.59-0.662,6.619-0.352,10.137,0.462c1.854,0.429,2.612-2.295,0.786-2.852   c-1.062-0.324-2.19-0.465-3.331-0.542c7.057-17.569,29.528-15.961,34.419,2.439c0.3,1.131,1.654,1.377,2.498,0.89   c0.382-0.009,0.747-0.178,0.946-0.612c1.618-3.523,5.29-6.206,9.32-5.552c4.422,0.717,5.952,4.162,7.243,7.948   c0.424,1.242,2.638,1.578,2.871,0c0.026-0.178-0.002-0.351,0.012-0.528c0.261-0.109,0.491-0.285,0.631-0.56   c3.589-7.047,9.43-14.29,18.387-10.431c9.153,3.944,8.506,16.601-1.119,19.27c-0.057-1.018-0.215-1.975-0.636-2.68   c-0.551-0.921-1.762-0.616-2.114,0.276c-0.535,1.355-0.218,2.879-0.328,4.318c-0.118,1.557-0.544,3.075-0.473,4.64   c0.046,1.015,1.241,1.241,1.802,0.488c0.717-0.962,1.281-2.482,1.585-4.085c0.085,0.309,0.267,0.603,0.564,0.828   c5.628,4.244,5.433,12.695-1.803,15.317c-6.741,2.443-15.178-1.452-16.458-8.747c-0.031-0.174-0.16-0.247-0.248-0.366   c-0.508-1.059-2.151-1-2.647,0.226c-2.023,5.006-4.529,10.016-10.645,10.471c-6.24,0.464-11.202-4.857-9.501-11.077   c0.353-1.289-1.107-1.866-1.945-1.217c-0.354-0.01-0.716,0.122-1.024,0.477c-2.122,2.448-4.899,4.277-8.291,3.586   c-3.367-0.686-5.655-3.557-6.158-6.831c1.005-0.617,1.921-1.356,2.582-2.377c0.654-1.009-0.643-2.281-1.647-1.647   c-3.194,2.013-5.862,3.803-9.853,3.145c-1.474-0.243-2.143,1.941-0.63,2.286c1.403,0.32,2.95,0.409,4.482,0.271   c5.068,19.765-27.212,22.746-32.071,5.115c-0.17-0.618-0.754-0.873-1.303-0.837c-0.692-0.58-1.947-0.41-2.318,0.645   c-1.883,5.359-4.142,11.21-10.933,11.259c-6.461,0.047-8.233-5.528-6.812-10.701c1.374,0.303,2.781,0.297,4.089-0.265   c0.878-0.377,0.664-1.946-0.274-2.097c-1.304-0.209-2.624-0.072-3.918-0.338c-1.422-0.292-2.686-0.925-3.861-1.762   c-0.983-0.701-2.169,0.859-1.287,1.668c0.69,0.632,1.504,1.21,2.378,1.699c-2.296,2.199-4.447,4.839-7.515,5.879   C91.968,111.135,87.754,108.624,86.233,104.628z M211.387,160.452c-3.825-0.759-8.136-0.037-11.221,1.784   c-3.253,1.92-5.429,4.959-6.464,8.37c-3.323-5.927-10.92-9.858-16.158-5.979c0.471-2.205,0.33-4.53-0.66-6.646   c-2.142-4.581-7.624-7.444-12.58-5.993c-4.783,1.4-8.44,6.726-7.163,11.669c0.471,1.823,3.13,1.374,3.203-0.433   c0.156-3.841,1.975-7.92,6.45-8.093c3.681-0.143,7.021,2.86,7.429,6.45c0.426,3.751-2.067,7.374-5.658,8.472   c-3.807,1.164-7.885-0.093-11.591-0.995c-0.273-0.066-0.521-0.007-0.737,0.106c-3.582-2.869-9.386-1.152-12.128,2.656   c-1.332-3.422-4.149-6.237-7.912-6.652c-5.197-0.574-9.262,2.633-12.168,6.584c-0.292-6.646-7.973-8.685-14.469-7.403   c3.124-9.291,4.672-24.69-4.09-29.066c2.467-0.846,4.478-3.202,5.533-5.547c1.595-3.541,1.13-7.438,0.064-11.079   c6.792,1.388,13.33-3.474,15.466-9.803c5.861,17.996,40.593,12.177,37.819-6.251c3.132,5.158,10.517,7.106,15.277,3.128   c0.32,5.33,4.487,9.915,10.246,10.618c6.221,0.759,12.393-3.207,14.772-8.854c1.944,3.968,5.994,6.567,10.422,7.453   c-1.172,2.599-0.481,5.896,1.338,8.258c-6.498,5.056-6.024,15.279,1.583,18.673c-3.938,1.111-7.249,5.213-8.192,8.966   C208.947,154.236,209.608,157.68,211.387,160.452z M245.596,208.587c-3.773,8.758-12.502,13.456-21.838,11.195   c-0.707-0.171-1.184,0.237-1.346,0.752c-0.977,0.385-1.727,1.645-1.134,2.753c4.336,8.11,0.129,17.176-9.288,18.285   c-7.831,0.922-13.983-4.344-17.544-10.82c-0.349-0.633-1.084-0.621-1.6-0.296c-1.206-0.707-3.127,0.202-2.56,1.83   c3.22,9.226-0.026,19.603-9.934,23.015c-9.35,3.22-18.359-3.412-19.401-12.769c0.397-0.181,0.811-0.335,1.159-0.601   c1.046-0.796,0.486-2.524-0.928-2.201c-1.638,0.375-3.028,1.131-4.759,1.234c-1.852,0.11-3.581-0.345-5.228-1.172   c-1.104-0.555-2.072,1.058-0.976,1.67c1.329,0.743,3.043,1.348,4.818,1.654c-0.023,0.108-0.069,0.198-0.075,0.32   c-0.878,17.839-20.336,25.887-35.541,18.949c-2.28-1.04-4.28-2.327-6.066-3.775c4.113,1.214,8.617,1.846,12.674,1.279   c1.268-0.177,0.814-1.982-0.282-2.086c-5.433-0.514-10.428-0.844-15.712-2.367c-1.559-1.796-2.794-3.795-3.807-5.9   c4.256,0.462,8.526,0.623,12.786,0.06c1.053-0.139,1.135-1.696,0-1.707c-4.562-0.041-9.1-0.031-13.648-0.362   c-0.918-2.37-1.497-4.877-1.796-7.449c4.472,0.098,8.961,0.296,13.43,0.116c1.049-0.042,1.05-1.589,0-1.631   c-4.516-0.182-9.052,0.022-13.571,0.119c-0.2-2.759-0.016-5.582,0.47-8.399c9.092-0.318,18.163-0.788,27.233-1.509   c1.069-0.085,1.096-1.734,0-1.688c-9.009,0.383-17.991,1.014-26.972,1.793c0.312-1.463,0.685-2.923,1.186-4.365   c0.138-0.396,0.04-0.744-0.165-1.021c0.059-1.004-1.124-1.969-2.213-1.396c-8.724,4.594-18.504,3.298-24.161-3.561   c4.831,0.503,9.908,0.346,14.633,0.285c1.165-0.015,1.126-1.68,0-1.782c-5.232-0.478-10.885-1.106-16.213-0.762   c-0.957-1.605-1.749-3.406-2.288-5.457c-0.251-0.954-0.363-1.886-0.481-2.819c4.983,0.027,9.964,0.053,14.947-0.045   c1.135-0.022,1.137-1.741,0-1.764c-5.038-0.099-10.075-0.072-15.113-0.044c-0.097-2.48,0.284-4.863,0.964-7.16   c9.459-0.5,18.812-0.357,28.281,0.268c1.185,0.078,1.14-1.693,0-1.82c-9.203-1.032-18.515-0.989-27.738-0.16   c1.031-2.74,2.562-5.308,4.364-7.717c0.093,0.224,0.302,0.414,0.604,0.366c4.616-0.73,9.252-0.455,13.854,0.271   c0.752,0.118,1.097-0.977,0.322-1.17c-4.746-1.186-9.453-1.046-14.238-0.157c1.257-1.605,2.603-3.155,4.071-4.585   c0.547-0.038,1.1-0.059,1.622-0.155c1.015-0.188,1.178-1.618,0.502-2.233c0.035-0.727-0.81-1.451-1.586-1.003   c-0.255,0.147-0.492,0.319-0.742,0.473c-1.796-0.207-3.599-0.448-5.22-1.252c-1.98-0.981-3.044-2.47-3.381-4.16   c3.788,0.521,7.601,0.689,11.413,0.201c0.903-0.116,0.969-1.457,0-1.46c-3.854-0.013-7.67-0.153-11.492-0.546   c0.106-1.258,0.521-2.563,1.24-3.817c0.32-0.559,0.718-1.036,1.092-1.539c1.884,0.041,3.734,0.243,5.619,0.559   c0.841,0.141,1.161-0.98,0.353-1.28c-1.508-0.559-3.084-0.789-4.673-0.837c1.885-1.961,4.174-3.468,6.695-4.606   c0.31,1.296,0.91,2.529,1.77,3.482c0.939,1.04,2.669-0.306,1.936-1.493c-1.523-2.468-1.067-4.522-0.079-7.083   c0.475-1.23-1.254-2.015-2.092-1.218c-0.827,0.787-1.313,1.781-1.565,2.843c-3.794-1.547-6.54-4.002-8.06-7.049   c5.999,0.325,11.997,0.524,18.006,0.562c1.02,0.006,1.004-1.513,0-1.574c-6.218-0.376-12.437-0.585-18.665-0.652   c-0.666-2.034-0.79-4.293-0.38-6.696c4.101-0.288,8.197-0.436,12.315-0.503c1.03-0.017,1.021-1.541,0-1.593   c-3.99-0.203-7.98-0.005-11.948,0.429c0.195-0.702,0.389-1.405,0.685-2.13c0.593-1.452,1.332-2.776,2.185-3.996   c3.7,0.044,7.399,0.101,11.097-0.046c1.097-0.043,1.1-1.663,0-1.706c-3.179-0.126-6.361-0.098-9.542-0.061   c2.362-2.689,5.26-4.871,8.479-6.652c0.352,0.032,0.702,0.07,1.066,0.039c1.055-0.092,1.45-1.091,1.077-1.831   c-0.014-0.67-0.584-1.361-1.382-1.168c-0.094,0.023-0.18,0.065-0.273,0.088c-1.521-0.689-2.916-1.64-3.626-3.091   c3.021,0.378,6.212,0.429,9.114-0.525c0.677-0.222,0.614-1.417-0.179-1.322c-3.135,0.373-6.119,0.811-9.284,0.606   c-0.031-0.169-0.112-0.303-0.126-0.483c-0.213-2.613,1.844-5.231,4.248-6.102c0.193-0.07,0.273-0.204,0.385-0.322   c0.263,0.058,0.511,0.154,0.781,0.192c4.148,0.584,7.845-1.467,10.742-4.339c0.194,3.244,2.54,6.614,5.465,8.353   c0.575,3.101,1.075,6.379,0.086,9.418c-1.146,3.521-3.407,4.35-6.413,5.837c-0.065,0.032-0.08,0.103-0.136,0.143   c-0.639-1.313-1.461-2.489-2.411-3.303c-0.713-0.611-1.976,0.182-1.385,1.068c1.096,1.643,1.955,3.313,2.113,5.32   c0.141,1.793-0.583,3.335-0.648,5.071c-0.04,1.072,1.539,1.856,2.266,0.939c1.198-1.512,1.457-3.551,1.157-5.591   c9.223,5.572,5.471,22.087,1.855,29.822c-0.752,1.608,0.817,3.478,2.518,2.518c5.11-3.795,9.448-1.798,13.015,5.99   c-0.352,1.822,1.95,2.653,2.847,1.312c0.343-0.005,0.693-0.138,0.951-0.488c2.668-3.617,6.191-7.994,11.246-7.48   c5.374,0.547,5.305,5.484,7.155,9.314c0.589,1.219,2.294,0.512,2.367-0.641c0.035-0.548,0.002-1.1-0.044-1.651   c0.976-2.226,2.592-4.045,5.161-4.503c2.648-0.473,4.732,0.854,6.879,2.161c0.678,0.413,1.293-0.153,1.319-0.798   c4.795,1.997,10.318,2.863,14.779-0.386c0.976-0.711,1.811-1.585,2.514-2.552c0.295,0.081,0.604,0.066,0.851-0.237   c2.835-3.487,8.058-3.634,11.421-0.743c3.155,2.712,3.195,6.215,4.112,9.768c-1.179,0.091-2.297,0.286-3.214,0.561   c-1.527,0.458-0.892,2.705,0.655,2.377c1.717-0.363,3.462-0.379,5.17,0.049c1.557,0.39,2.774,1.41,4.287,1.82   c1.467,0.398,2.211-1.319,1.375-2.361c-1.034-1.289-2.717-1.966-4.545-2.276c-0.512-5.273,1.833-10.785,6.719-13.265   c5.123-2.6,9.355-0.288,14.107,1.576c1.083,0.425,2.265-1.089,1.563-2.033c-0.258-0.347-0.587-0.61-0.885-0.911   c-0.049-0.117-0.05-0.24-0.165-0.343c-3.133-2.828-5.151-7.083-3.91-11.334c1.331-4.558,4.835-5.328,8.328-7.563   c0.72-0.46,0.858-1.626,0.282-2.216c0.228-0.474,0.16-1.048-0.453-1.313c-7.006-3.029-8.663-11.771-1.256-15.65   c0.904-0.474,1.231-2.058,0.353-2.738c-2.648-2.05-2.472-4.461-1.647-7.014c2.475-0.062,4.931-0.627,7.085-1.915   c0.767-0.459,1.463-1.043,2.095-1.705c0.121,0.061,0.214,0.143,0.358,0.184c18.455,5.167,19.899,26.765,5.684,37.356   c-1.624,0.224-2.018,2.678-0.205,3.36c13.963,5.257,15.307,22.674,1.84,29.243c-0.271-1.274-0.687-2.48-1.495-3.426   c-0.783-0.917-2.427-0.178-2.379,0.986c0.076,1.823,0.892,3.487,0.988,5.34c0.103,1.976-0.224,3.899-0.842,5.772   c-0.583,1.767,2.052,2.385,2.724,0.751c0.519-1.261,0.939-2.797,1.171-4.394C247.954,185.589,249.14,200.36,245.596,208.587z"></path><path d="M137.692,142.451c-1.55-2.559-4.531-4.182-7.532-3.927c-6.587,0.56-7.754,8.459-6.844,13.676   c0.288,1.652,2.674,1.123,2.775-0.376c0.21-3.109-0.245-8.571,3.525-9.837c2.366-0.794,4.855,0.89,5.712,3.059   c0.761,1.927-0.017,3.839,0.507,5.75c0.238,0.868,1.345,1.144,1.981,0.523C140.026,149.157,139.145,144.85,137.692,142.451z"></path><path d="M195.537,142.014c-1.369-3.06-4.278-5.038-7.628-5.206c-6.62-0.331-10.96,7.434-6.395,12.555   c1.09,1.223,3.175-0.374,2.278-1.758c-2.337-3.604,0.616-8.104,4.893-7.121c1.943,0.447,3.33,1.917,3.864,3.811   c0.505,1.792-0.328,3.45,0.08,5.189c0.193,0.822,1.383,1.427,2.117,0.861C197.133,148.509,196.651,144.503,195.537,142.014z"></path></g><g></g><g></g><g></g><g></g><g></g><g></g><g></g><g></g><g></g><g></g><g></g><g></g><g></g><g></g><g></g></svg>