<svg xmlns="http://www.w3.org/2000/svg" xmlns:xlink="http://www.w3.org/1999/xlink" fill="currentColor" version="1.1" id="Capa_1" viewBox="0 0 222.324 222.324" xml:space="preserve"><g><path d="M222.227,165.023c0.003-0.077,0.059-0.127,0.046-0.211c-1.823-11.826-1.981-23.029-1.657-34.934   c0.043-1.584-2.552-2.009-2.827-0.382c-0.003,0.018-0.004,0.037-0.007,0.055c-0.02-0.01-0.044-0.008-0.064-0.018   c0.265-0.478,0.328-1.067-0.046-1.699c-20.997-35.464-52.275-61.996-92.357-67.51c0.138-0.159,0.306-0.272,0.373-0.528   c3.507-13.357-11.973-22.003-23.197-18.425c-5.69,1.815-11.241,6.028-11.945,12.357c-0.219,1.969,0.075,5.691,1.953,6.857   c-29.922,4.673-58.454,21.609-76.111,46.238c-0.12-0.014-0.241-0.018-0.362-0.033c-0.539-0.065-0.698,0.69-0.352,0.987   c-4.049,5.787-7.5,11.99-10.23,18.551c-0.695-0.276-1.397-0.506-2.091-0.789c-0.487-0.199-0.904,0.113-1.086,0.532   c-0.325-1.187-2.045-0.796-2.133,0.353c-0.47,6.137,0.424,12.488,0.852,18.63c0.373,5.365,0.273,10.97,1.984,16.093   c0.016,0.046,0.079,0.039,0.107,0.077c-0.152,0.273-0.149,0.644,0.178,0.805c32.164,15.887,67.82,19.52,103.267,19.723   c38.636,0.22,77.891-2.474,114.77-14.732C222.251,166.7,222.483,165.763,222.227,165.023z M94.157,51.28   c0.937-1.851,2.795-3.571,4.533-4.657c3.519-2.2,8.2-3.419,12.292-2.738c8.177,1.359,11.164,8.078,11.841,15.524   c0.021,0.234,0.163,0.39,0.267,0.573c-6.007-0.702-12.202-0.946-18.594-0.666c-3.208,0.141-6.41,0.477-9.605,0.905   c0.053-0.497-0.221-1.054-0.816-1.031C92.131,59.266,93.861,51.865,94.157,51.28z M10.685,120.982   c8.095,0.795,16.189,1.715,24.308,2.213c1.129,0.069,1.089-1.618,0-1.735c-7.781-0.832-15.604-1.276-23.411-1.814   c2.634-3.86,5.422-7.576,8.339-11.151c4.773,0.639,9.566,1.075,14.39,1.021c0.865-0.009,0.852-1.282,0-1.334   c-4.458-0.275-8.908-0.556-13.351-0.942c2.109-2.529,4.311-4.952,6.562-7.314c15.147-0.651,30.283-0.472,45.433,0.156   c1.167,0.048,1.131-1.687,0-1.792c-14.619-1.349-29.182-1.22-43.792-0.095c4.672-4.74,9.654-9.083,14.909-13.006   c7.13,0.326,14.278,0.952,21.415,0.79c1.067-0.024,1.041-1.554,0-1.639c-6.535-0.532-13.117-0.408-19.676-0.455   c3.251-2.338,6.646-4.446,10.11-6.433c7.938-0.252,15.858-0.07,23.798-0.114c1.29-0.007,1.258-1.885,0-1.982   c-6.775-0.524-13.601-0.317-20.388,0.147c3.696-1.95,7.512-3.685,11.436-5.205c0.058,0.006,0.081,0.055,0.148,0.048   c4.957-0.478,9.934-0.553,14.907-0.742c1.026-0.039,1.01-1.508,0-1.582c-2.922-0.215-5.818-0.147-8.712,0.064   c9.524-3.006,19.661-4.736,30.412-4.907c48.422-0.772,82.007,28.227,106.972,66.514c0.137,0.21,0.303,0.358,0.474,0.487   c-33.17,16.068-70.48,16.829-106.698,15.885c-30.777-0.802-60.465-5.158-89.317-14.822c6.459,0.985,12.93,2.05,19.428,2.658   c0.783,0.074,0.973-1.258,0.187-1.385c-7.455-1.208-15.03-1.812-22.535-2.632c-0.158-0.017-0.263,0.068-0.339,0.18   c-2.939-1.028-5.88-2.045-8.802-3.187C8.115,124.876,9.39,122.919,10.685,120.982z M3.885,161.016   c0.417-2.162,0.497-4.372,0.478-6.591c4.489,1.09,9.162,1.962,13.698,2.506c0.855,0.102,1.031-1.307,0.202-1.498   c-4.502-1.035-9.26-1.792-13.905-2.278c-0.069-2.16-0.231-4.32-0.387-6.467c3.764,0.567,7.555,1.263,11.348,1.477   c0.657,0.037,0.816-1.036,0.157-1.161c-3.802-0.722-7.719-0.959-11.575-1.33c-0.045-0.65-0.098-1.306-0.135-1.95   c-0.082-1.449-0.144-2.906-0.207-4.366c3.002-0.339,5.83,0.009,8.885,0.603c0.817,0.159,1.14-0.98,0.344-1.25   c-2.966-1.005-6.21-0.893-9.273-0.25c-0.17-3.827-0.383-7.665-1.066-11.409c0.065,0.069,0.078,0.166,0.176,0.212   c34.129,16.156,71.716,21.152,109.15,21.979c35.829,0.792,73.147,0.051,105.611-16.765c-1.3,10.53-0.217,21.606,2.542,31.794   C153.05,184.106,69.223,188.15,3.885,161.016z"></path><path d="M129.22,116.068c0.504-0.484,0.691-1.319,0.119-1.896c-1.243-1.254-2.956-2.061-4.575-2.819   c0.571-0.038,1.156-0.029,1.723-0.08c1.76-0.157,2.517-3.088,0.456-3.37c-1.521-0.208-3.071-0.325-4.611-0.472   c0.697-0.683,1.397-1.362,2.08-2.056c0.851-0.866-0.404-2.05-1.307-1.308c-1.228,1.008-2.436,2.05-3.662,3.068   c-2.699-0.203-5.416-0.345-8.142-0.452c1.791-1.535,3.55-3.098,5.264-4.692c0.317,0.487,0.868,0.771,1.528,0.613   c2.913-0.697,6.873-1.197,9.247-3.081c0.911-0.723,0.054-1.955-0.849-2.05c-1.527-0.161-2.944,0.454-4.395,0.891   c-0.898,0.271-1.791,0.561-2.689,0.839c0.479-0.481,0.993-0.939,1.458-1.43c1.136-1.197-0.408-3.475-1.848-2.395   c-0.418,0.313-0.817,0.661-1.229,0.983c-0.387-1.596-0.736-3.203-1.129-4.775c-0.327-1.311-2.25-0.747-2.004,0.553   c0.365,1.921,0.778,3.87,1.131,5.823c-1.784,1.469-3.545,2.979-5.276,4.539c-0.026-2.708-0.14-5.378-0.291-8.004   c0.309-0.038,0.606-0.169,0.786-0.382c1.948-2.316,4.454-5.932,4.327-9.084c-0.052-1.281-1.627-1.642-2.327-0.63   c-0.867,1.254-1.163,2.773-1.808,4.152c-0.37,0.791-0.803,1.54-1.257,2.277c-0.157-1.946-0.3-3.915-0.519-5.751   c-0.249-2.098-3.259-2.211-3.355,0c-0.059,1.347-0.076,2.697-0.095,4.046c-1.133-0.816-2.242-1.669-3.289-2.595   c-0.805-0.712-1.932,0.394-1.186,1.186c1.39,1.476,2.895,2.775,4.45,4.016c-0.002,4.907,0.139,9.823,0.084,14.729   c-0.091-0.002-0.182-0.002-0.274-0.004c-2.081-1.606-4.151-3.224-6.215-4.849c-0.398-2.455-0.79-5.351-1.987-7.54   c-0.494-0.903-1.83-0.451-1.865,0.505c-0.054,1.464,0.273,3.036,0.692,4.569c-1.362-1.065-2.715-2.143-4.09-3.191   c-0.765-0.583-1.644,0.65-1.005,1.302c1.191,1.215,2.435,2.378,3.678,3.541c-1.917-0.071-3.834-0.174-5.748-0.287   c-1.016-0.06-0.985,1.465,0,1.563c2.727,0.272,5.462,0.533,8.171,0.958c1.259,1.13,2.521,2.258,3.804,3.362   c-2.755-0.039-5.462-0.095-8.2-0.132c-1.247-1.385-2.61-2.777-4.082-3.661c-0.991-0.595-2.196,0.596-1.591,1.591   c0.423,0.695,0.98,1.358,1.576,2.005c-1.463-0.027-2.961-0.03-4.41-0.071c-1.245-0.035-1.588,2.042-0.302,2.228   c2.301,0.332,4.662,0.652,7.027,0.968c-1.399,1.127-2.809,2.268-3.955,3.601c-0.642,0.747,0.154,1.854,1.063,1.377   c2.143-1.125,4.056-2.84,5.994-4.285c0.103-0.077,0.171-0.173,0.249-0.263c2.424,0.305,4.857,0.607,7.306,0.865   c-1.147,1.112-2.291,2.192-3.435,3.294c-2.431,0.322-4.616,0.537-6.902,1.69c-0.943,0.476-0.116,1.819,0.818,1.399   c1.218-0.547,2.597-0.957,3.974-1.065c-0.576,0.548-1.154,1.118-1.73,1.66c-1.088,1.02,0.508,2.554,1.618,1.618   c0.159-0.134,0.329-0.268,0.489-0.403c-0.204,1.633,0.039,3.256,1.098,4.342c0.501,0.513,1.544,0.312,1.689-0.446   c0.207-1.086-0.101-2.001-0.1-3.107c0.001-1.358,0.397-2.598,0.981-3.809c1.84-1.511,3.66-3.02,5.515-4.54   c-0.187,4.014-0.474,8.054-0.555,12.075c-1.537,1.933-3.12,3.831-4.696,5.729c-0.764,0.921,0.515,2.251,1.335,1.334   c1.119-1.251,2.228-2.514,3.353-3.763c0.024,1.308,0.058,2.615,0.166,3.913c0.092,1.101,1.682,1.439,2.003,0.271   c0.453-1.648,0.748-3.435,1.085-5.187c1.604,2.857,3.883,5.553,6.745,6.634c0.828,0.313,1.707-0.816,1.184-1.54   c-1.078-1.493-2.522-2.635-3.719-4.031c-1.412-1.648-2.451-3.47-3.44-5.387c0.335-2.409,0.628-4.849,0.809-7.343   c1.405,1.167,2.836,2.315,4.298,3.398c0.545,3.068,1.516,6.405,3.704,8.716c0.505,0.533,1.464-0.016,1.243-0.724   c-0.639-2.044-1.442-3.929-1.978-5.941c0.768,0.488,1.546,0.953,2.339,1.375c1.454,0.774,3.094-1.144,1.813-2.35l-0.006-0.005   c2.455,0.052,4.913,0.029,7.285-0.31C130.016,117.944,129.898,116.701,129.22,116.068z M118.204,115.621   c-1.835-1.439-3.726-2.825-5.649-4.17c1.834,0.081,3.657,0.101,5.476,0.111c1.617,0.744,3.259,1.427,4.852,2.226   c1.053,0.528,2.086,1.135,3.138,1.692C123.442,115.355,120.796,115.501,118.204,115.621z"></path></g><g></g><g></g><g></g><g></g><g></g><g></g><g></g><g></g><g></g><g></g><g></g><g></g><g></g><g></g><g></g></svg>