<svg xmlns="http://www.w3.org/2000/svg" xmlns:xlink="http://www.w3.org/1999/xlink" fill="currentColor" version="1.1" id="Capa_1" viewBox="0 0 244.731 244.731" xml:space="preserve"><g><path d="M136.843,56.54c-14.395-1.925-29.848-1.681-44.427-0.968C87.77,41.377,80.438,27.631,74.439,13.983   c-0.789-1.796-3.105-0.899-3.682,0.481c-4.37,10.455-8.671,20.924-12.801,31.464c-0.179,0.012-0.362,0.007-0.541,0.02   c-0.695,0.052-0.696,1.028,0,1.081c0.036,0.003,0.072,0.001,0.108,0.004c-1.096,2.81-2.249,5.597-3.304,8.425   c-0.289,0.027-0.581,0.046-0.87,0.074c-0.908,0.086-0.936,1.497,0,1.441c0.101-0.006,0.201-0.001,0.302-0.007   c-0.308,0.833-0.636,1.659-0.939,2.494c-16.004-3.188-34.767-0.459-50.746,1.052c-1.935,0.183-2.755,2.593-1.006,3.715   c13.367,8.576,26.816,17.176,40.737,24.833c0.18,0.099,0.353,0.13,0.526,0.169c-3.157,10.065-5.592,20.341-8.951,30.352   c-1.292,3.853-8.375,14.75-3.055,17.909c4.607,2.736,12.661-4.946,15.898-7.052c9.211-5.994,18.445-12.186,26.899-19.224   c0.115-0.095,0.167-0.212,0.249-0.319c9.391,7.027,19.019,13.727,28.702,20.345c5.682,3.883,14.63,13.399,21.82,13.017   c1.687-0.09,2.541-1.715,1.834-3.196c-6.463-13.529-12.383-27.28-17.753-41.28c-0.154-0.401-0.405-0.678-0.686-0.901   c10.205-12.189,21.459-25.24,29.538-38.933c0.005-0.009,0.005-0.019,0.01-0.028c0.038-0.003,0.077-0.001,0.115-0.004   C139.063,59.757,138.957,56.823,136.843,56.54z M104.699,96.983c-0.383,0.568-0.264,1.185,0.084,1.652   c-0.798,0.375-1.334,1.163-0.922,2.249c4.875,12.852,10.281,25.459,16.093,37.907c-2.87-1.619-5.868-4.431-7.82-5.756   c-4.284-2.907-8.573-5.806-12.868-8.696c-8.58-5.772-17.24-11.436-26.076-16.812c-0.633-0.385-1.195-0.209-1.553,0.186   c-0.365-0.025-0.74,0.03-1.105,0.284c-6.556,4.561-12.88,9.445-19.476,13.956c-3.77,2.578-7.581,5.095-11.433,7.549   c-1.926,1.227-3.861,2.439-5.807,3.635c-1.381,0.661-1.535,0.225-0.46-1.307c-0.162-1.785,1.078-4.624,2.25-7.178   c2.781,0.308,5.539,0.606,8.34,0.691c0.771,0.023,0.982-1.271,0.187-1.378c-2.632-0.356-5.257-0.526-7.902-0.675   c0.449-0.984,0.843-1.882,1.079-2.596c0.08-0.242,0.143-0.489,0.222-0.732c2.366,0.006,4.727,0.016,7.095-0.077   c0.915-0.036,0.916-1.386,0-1.422c-2.208-0.086-4.412-0.074-6.619-0.072c0.607-1.902,1.164-3.819,1.737-5.732   c4.319,0.248,8.631,0.516,12.959,0.554c1.028,0.009,0.992-1.483,0-1.574c-4.137-0.379-8.282-0.547-12.431-0.724   c0.147-0.513,0.323-1.017,0.464-1.532c0.456-1.662,0.885-3.327,1.294-4.996c8.052-0.109,16.086-0.252,24.131-0.687   c0.908-0.049,0.922-1.421,0-1.422c-7.935-0.017-15.846,0.253-23.771,0.556c1.022-4.367,1.79-8.779,2.281-13.248   c2.23,0.063,4.468,0.144,6.685-0.081c0.791-0.08,0.793-1.152,0-1.232c-2.157-0.219-4.333-0.148-6.504-0.085   c0.022-0.232,0.07-0.459,0.089-0.692c0.051-0.605-0.361-0.935-0.835-1.004c-0.138-0.207-0.327-0.398-0.583-0.559   c-4.385-2.738-8.79-5.437-13.192-8.142c3.64,0.407,7.286,0.772,10.933,1.009c0.798,0.052,1.001-1.306,0.192-1.415   c-4.685-0.631-9.404-1.071-14.123-1.444c-4.12-2.531-8.218-5.098-12.323-7.655c9.158,1.397,18.38,2.764,27.576,3.526   c1.032,0.086,1.283-1.653,0.247-1.825c-10.232-1.703-20.663-2.68-31.003-3.677c-1.201-0.753-2.414-1.485-3.612-2.243   c9.603-0.492,19.472-0.279,29.154-0.702c0.04,0.25,0.199,0.488,0.524,0.507c6.738,0.394,13.493,0.345,20.195-0.497   c0.849-0.107,0.891-1.437,0-1.365c-3.689,0.3-7.368,0.513-11.049,0.638c2.445-0.258,4.875-0.562,7.268-0.987   c0.619-0.11,0.782-0.756,0.612-1.276c0.555-1.156,1.081-2.324,1.626-3.484c4.999-0.15,9.986-0.073,14.995-0.102   c1.081-0.006,1.038-1.548,0-1.65c-4.703-0.462-9.472-0.312-14.199,0.046c1.24-2.661,2.402-5.355,3.605-8.032   c2.864,0.087,5.742,0.083,8.578-0.084c0.756-0.044,0.757-1.131,0-1.176c-2.632-0.155-5.302-0.168-7.964-0.107   c1.051-2.353,2.041-4.734,3.078-7.094c3.599,0.153,7.174,0.555,10.737,1.135c0.967,0.157,1.396-1.215,0.413-1.499   c-3.417-0.989-6.857-1.397-10.36-1.457c0.832-1.903,1.648-3.815,2.481-5.718c2.5,0.007,5.009,0.197,7.481,0.543   c0.892,0.125,1.299-1.113,0.383-1.389c-2.372-0.716-4.701-0.966-7.113-0.884c1.348-3.087,2.711-6.167,4.023-9.272   c5.324,12.712,10.202,26.05,16.978,37.929c0.679,1.191,2.274,0.958,2.932,0.05c12.811,1.425,26.312,2.435,39.269,1.951   C121.801,71.261,113.037,84.603,104.699,96.983z"></path><path d="M97.82,196.995c0.863-0.928,0.642-2.88-0.822-3.115c-6.334-1.016-12.735-1.511-19.147-1.092   c-0.557-1.662-1.458-3.31-2.138-4.7c-1.436-2.936-3.108-5.731-4.949-8.43c-0.666-0.977-2.311-1.213-2.922,0   c-2.624,5.207-5.302,10.455-7.675,15.788c-5.641-0.171-11.381,0.32-16.992,0.817c-1.727,0.153-2.661,2.088-1.421,3.431   c4.447,4.817,9.753,8.89,15.824,11.435c-2.948,5.874-5.094,12.078-7.246,18.289c-0.569,1.642,1.405,2.836,2.764,2.125   c6.15-3.221,12.301-6.55,18.158-10.283c0.092-0.059,0.136-0.137,0.213-0.202c5.591,4.584,12.334,7.674,19.175,9.86   c1.384,0.442,2.742-0.986,2.344-2.343c-1.565-5.337-3.995-13.156-8.44-16.778c-0.256-0.208-0.559-0.312-0.861-0.343   c0.01-0.008,0.022-0.01,0.031-0.019C88.651,206.89,93.252,201.906,97.82,196.995z M82.666,211.697   c-0.476,0.294-0.788,0.817-0.579,1.528c0.756,2.58,2.427,4.747,3.624,7.147c0.912,1.829,1.666,3.711,2.36,5.617   c-5.662-2.083-10.936-4.79-16.342-7.593c-0.045-0.024-0.09,0.003-0.136-0.014c-0.518-0.583-1.34-0.874-2.236-0.365   c-4.636,2.637-9.249,5.3-13.902,7.899c0.597-1.819,1.135-3.652,1.675-5.486c0.058,0.115,0.149,0.207,0.303,0.188   c1.824-0.223,3.698-0.331,5.492-0.734c0.543-0.122,0.437-1.038-0.133-0.987c-1.834,0.165-3.651,0.63-5.459,0.977   c-0.02,0.004-0.024,0.023-0.041,0.029c0.438-1.512,0.855-3.03,1.233-4.559c1.5,0.055,2.944-0.156,4.439-0.717   c0.561-0.21,0.34-1.098-0.252-0.914c-1.303,0.405-2.622,0.553-3.954,0.567c0.295-1.262,0.584-2.526,0.807-3.808   c0.232-0.35,0.339-0.777,0.356-1.2c1.938,0.128,3.899-0.014,5.729-0.692c0.533-0.197,0.32-0.926-0.232-0.841   c-1.955,0.301-3.831,0.486-5.759,0.456c-0.141-0.209-0.328-0.397-0.585-0.537c-2.245-1.221-4.371-2.509-6.402-3.908   c1.791,0.265,3.591,0.41,5.417,0.224c0.844-0.086,0.882-1.374,0-1.346c-2.648,0.084-5.214-0.04-7.808-0.608   c-0.885-0.685-1.75-1.398-2.594-2.151c4.402-0.425,8.831-0.963,13.119-1.883c0.195,0.002,0.361-0.093,0.542-0.216   c0.276-0.135,0.466-0.316,0.554-0.569c0.04-0.064,0.075-0.132,0.115-0.196c2.182,0.494,4.341,0.353,6.474-0.591   c0.656-0.29,0.19-1.389-0.489-1.161c-1.779,0.596-3.534,0.838-5.313,0.608c0.687-1.131,1.335-2.29,1.997-3.439   c1.166,0.017,2.332,0.046,3.498,0.007c0.732-0.025,0.733-1.113,0-1.138c-0.948-0.032-1.896-0.006-2.845,0.006   c1.388-2.445,2.747-4.91,4.063-7.391c1.07,1.777,2.091,3.582,2.986,5.46c1.168,2.449,1.683,5.589,3.678,7.477   c0.663,0.628,1.474,0.414,1.923-0.17c4.952-0.167,9.847-0.082,14.754,0.424c-3.761,4.187-7.507,8.418-10.936,12.865   C81.208,210.739,81.877,211.545,82.666,211.697z"></path><path d="M190.004,226.433c-30.004-1.524-60.184-3.169-90.219-3.753c-0.76-0.015-0.722,1.076,0,1.157   c29.777,3.316,60.263,4.417,90.219,4.379C191.157,228.214,191.145,226.491,190.004,226.433z"></path><path d="M235.756,216.629c-45.559-2.657-90.999-6.424-136.528-9.377c-0.672-0.044-0.843,1.096-0.161,1.192   c45.051,6.337,91.223,9.162,136.689,10.214C237.069,218.688,237.052,216.704,235.756,216.629z"></path><path d="M154.554,198.488c-17.019-3.923-35.519-3.483-52.758-1.494c-0.65,0.075-0.684,1.08,0,1.043   c17.814-0.958,34.822,0.756,52.518,2.22C155.327,200.341,155.536,198.714,154.554,198.488z"></path><path d="M231.054,186.211c-49.055-1.814-98.291-2.582-147.375-3.557c-1.022-0.02-1,1.501,0,1.574   c48.796,3.531,98.462,5.223,147.375,3.766C232.201,187.959,232.201,186.254,231.054,186.211z"></path><path d="M155.002,137.327c-8.277-0.417-16.619-0.044-24.902,0.104c-0.757,0.014-0.758,1.162,0,1.176   c8.282,0.149,16.625,0.521,24.902,0.104C155.893,138.666,155.894,137.372,155.002,137.327z"></path><path d="M228.365,124.572c-34.725-1.125-69.577-1.124-104.316-0.695c-0.965,0.012-0.964,1.47,0,1.498   c34.727,1.005,69.577,1.585,104.316,1.036C229.55,126.393,229.547,124.61,228.365,124.572z"></path><path d="M194.049,108.502c-24.316-1.67-49.244-0.079-73.403,2.907c-0.872,0.108-0.919,1.465,0,1.403   c24.493-1.649,48.891-1.977,73.403-2.812C195.019,109.967,195.006,108.568,194.049,108.502z"></path><path d="M229.051,94.399c-37.288-3.091-75.029-3.457-112.403-1.972c-1.069,0.043-1.079,1.669,0,1.669   c37.526-0.014,74.902,1.017,112.403,2.2C230.284,96.334,230.251,94.499,229.051,94.399z"></path><path d="M222.304,81.733c-30.647-1.177-61.527-1.024-92.198-0.933c-0.663,0.002-0.654,0.988,0,1.024   c30.573,1.704,61.588,2.726,92.198,1.654C223.426,83.438,223.427,81.776,222.304,81.733z"></path><path d="M180.575,63.804c-12.732-0.475-25.629,0.356-38.359,0.815c-0.984,0.036-0.993,1.542,0,1.536   c12.738-0.082,25.658,0.199,38.359-0.815C181.552,65.262,181.575,63.842,180.575,63.804z"></path><path d="M243.843,44.129c-48.31-2.251-97.084-1.375-145.383,0.762c-0.801,0.036-0.81,1.263,0,1.251   c48.486-0.714,96.903-0.149,145.383-0.174C245.032,45.967,245.021,44.184,243.843,44.129z"></path><path d="M144.235,29.503c-17.273,0.043-34.541,0.857-51.823,0.84c-0.831-0.001-0.83,1.271,0,1.289   c17.224,0.377,34.624,0.766,51.823-0.423C145.319,31.134,145.345,29.5,144.235,29.503z"></path><path d="M227.714,16.824c-48.163-3.653-97.134-3.7-145.391-2.112c-0.803,0.026-0.808,1.245,0,1.252   c48.484,0.391,96.922,1.905,145.391,2.529C228.799,18.507,228.773,16.904,227.714,16.824z"></path><path d="M57.415,94.349c-4.267-0.199-8.518-0.127-12.787-0.066c-0.854,0.012-0.855,1.315,0,1.327   c4.27,0.061,8.52,0.133,12.787-0.066C58.183,95.507,58.185,94.385,57.415,94.349z"></path></g><g></g><g></g><g></g><g></g><g></g><g></g><g></g><g></g><g></g><g></g><g></g><g></g><g></g><g></g><g></g></svg>