<svg xmlns="http://www.w3.org/2000/svg" xmlns:xlink="http://www.w3.org/1999/xlink" fill="currentColor" version="1.1" id="Capa_1" viewBox="0 0 221.888 221.888" xml:space="preserve"><g><path d="M100.035,37.814c0.912-0.396,0.443-1.911-0.502-1.855c-2.469,0.147-4.618,1.586-6.159,3.54   c-1.65-0.797-3.475-1.208-4.976-1.09c-0.882,0.069-0.899,1.345,0,1.384c1.412,0.063,2.779,0.479,3.969,1.218   c-0.773,1.379-1.283,2.889-1.399,4.359c-0.061,0.768,1.127,0.898,1.322,0.179c0.325-1.202,0.879-2.285,1.549-3.298   c0.98,1.091,1.388,2.386,2.199,3.61c0.514,0.775,1.715,0.479,1.749-0.474c0.071-1.964-1.07-3.594-2.657-4.801   c0.034-0.033,0.05-0.077,0.085-0.11C96.619,39.122,98.294,38.572,100.035,37.814z"></path><path d="M221.752,111.758c0.04-0.147,0.08-0.295,0.12-0.442c0.065-0.239-0.083-0.441-0.298-0.525   c-4.447-1.72-7.524-24.02-7.805-27.746c-0.722-9.594,0.647-18.992,3.31-28.198c0.354-1.224-0.856-2.483-2.098-2.098   c-16.862,5.221-35.572,4.726-43.496-13.611c-0.546-1.264-2.189-0.946-2.841,0.002c-0.033,0.019-0.064-0.003-0.097,0.02   c-12.997,8.966-31.948,7.093-42.049-5.146c-0.487-0.59-1.17-0.42-1.625,0.017c-0.236-0.262-0.616-0.425-0.898-0.212   c-1.677,1.266-2.244,3.631-3.382,5.359c-1.232,1.871-2.679,2.774-4.396,3.741c-6.15-6.542-14.889-10.852-24.378-12.009   c-0.556-0.068-0.885,0.337-1.03,0.807C71.722,29.72,61.573,48.856,62.697,67.142c-7.739,3.547-15.875,3.086-24.416-1.451   c-1.267-0.632-2.907,0.125-2.89,1.658c0.169,15.539-6.135,37.099-30.008,32.239c-1.328-0.27-2.885,1.205-1.944,2.529   c4.882,6.867,16.241,22.435,13.977,34.032c-0.029,0.066-0.045,0.12-0.055,0.191c-0.772,3.689-2.912,6.975-7.145,9.426   c-0.567-0.014-1.137-0.027-1.7-0.044c-0.61-0.018-0.579,0.863,0,0.929c0.008,0.001,0.016,0.002,0.023,0.003   c-2.058,0.967-4.509,1.773-7.421,2.378c-1.428,0.297-1.417,2.179-0.377,2.887c13.303,9.06,19.183,22.499,23.776,37.243   c0.001,0.057-0.003,0.115-0.001,0.172c0.008,0.316,0.145,0.531,0.307,0.709c0.161,0.762,1.184,1.343,1.765,0.596   c13.471-17.316,29.335-30.64,52.083-32.215c1.44-0.1,2.422-1.565,1.664-2.899c-11.636-20.476,3.963-34.739,19.597-45.608   c0.649-0.451,0.821-1.1,0.691-1.674c0.364-0.237,0.622-0.621,0.451-1.176c-0.952-3.089-1.617-5.965-2.001-9.161   c3.268-0.631,6.339-1.776,9.148-3.337c0.07,0.068,0.114,0.145,0.199,0.207c4.66,3.343,8.275,6.916,11.68,11.352   c-0.141,1.451,1.851,2.846,3.353,1.612c15.554-12.773,44.557-0.993,43.14,20.484c-0.126,1.924,2.184,2.371,3.41,1.412   c14.316-11.188,31.2-18.237,49.531-16.33c0.33,0.182,0.672,0.193,0.971,0.067c0.178,0.021,0.35,0.013,0.528,0.036   c0.852,0.111,0.997-0.898,0.537-1.423C221.628,111.904,221.726,111.851,221.752,111.758z M122.185,42.069   c1.041-1.432,2.292-3.526,2.761-5.532c2.785,7.539,12.298,10.377,19.591,11.455c8.915,1.319,17.709-0.047,24.418-6.168   c2.706,7.343,8.025,12.713,15.514,15.655c4.243,1.666,8.909,2.331,13.457,2.274c2.852-0.036,13.124-2.682,14.131-1.728   c1.178,1.115-1.553,12.85-1.661,15.351c-0.248,5.781,0.208,11.583,1.252,17.269c0.577,3.145,1.514,9.498,3.444,14.581   c-23.615-23.173-57.055-37.502-90.216-36.09c0.06-0.528,0.143-1.049,0.18-1.584c0.107-1.583,0.069-3.119-0.036-4.63   c3.868,0.104,7.726,0.21,11.596-0.006c0.866-0.048,0.867-1.298,0-1.346c-3.901-0.217-7.791-0.108-11.691-0.004   c-0.212-1.899-0.639-3.71-1.161-5.477c2.69,0.505,5.374,0.858,8.133,0.772c0.887-0.028,0.869-1.298,0-1.365   c-2.883-0.224-5.769-0.453-8.627-0.893c-0.704-2.008-1.638-3.89-2.685-5.702c3.881,0.338,7.751,0.654,11.651,0.782   c0.775,0.025,0.728-1.084,0-1.176c-4.206-0.527-8.41-0.841-12.634-1.136c-0.405-0.613-0.743-1.269-1.191-1.852   C119.912,44.689,121.225,43.389,122.185,42.069z M24.626,181.729c-1.205-4.681-2.868-9.195-5.062-13.485   c0.695,0.111,1.392,0.204,2.096,0.227c0.406,0.013,0.462-0.573,0.093-0.689c-0.888-0.28-1.802-0.447-2.721-0.596   c-0.868-1.608-1.827-3.177-2.871-4.709c1.946,0.245,3.872,0.582,5.844,0.775c0.679,0.067,0.712-0.911,0.151-1.117   c-2.136-0.785-4.557-0.987-6.91-0.996c-3.376-4.537-5.781-5.72-6.626-7.057c5.239,0.478,10.475,0.944,15.734,1.2   c0.767,0.037,0.738-1.099,0-1.175c-5.347-0.551-10.703-0.885-16.065-1.209c0.021-0.752,0.383-1.721,1.159-3.235   c0.532-1.037,1.106-1.913,1.696-2.701c3.714,0.447,7.489,0.888,11.194,0.769c0.591-0.019,0.782-0.967,0.146-1.08   c-3.4-0.603-6.927-0.746-10.416-0.837c2.493-2.885,5.13-4.562,6.551-8.614c2.159,0.436,4.641,0.509,6.752,0.313   c0.784-0.073,1.108-1.321,0.202-1.49c-2.033-0.38-4.367-0.577-6.51-0.403c0.22-0.927,0.404-1.93,0.505-3.108   c0.073-0.856,0.085-1.696,0.068-2.528c2.705,0.269,5.381,0.52,8.103,0.557c0.694,0.009,0.893-1.149,0.169-1.248   c-2.785-0.382-5.554-0.547-8.358-0.69c-0.232-3.055-1.006-5.968-2.052-8.812c5.453,1.094,11.101,1.83,16.64,1.575   c1.058-0.049,1.012-1.495,0-1.612c-5.743-0.663-11.53-0.98-17.286-1.545c-0.878-2.173-1.855-4.322-2.887-6.459   c-0.178-0.369-0.32-0.668-0.481-1.003c3.571,0.713,7.232,1.209,10.878,1.02c0.832-0.043,0.828-1.236,0-1.289   c-3.562-0.23-7.086-0.407-10.616-0.988c-0.333-0.055-0.559,0.137-0.687,0.373c-1.473-3.104-2.044-4.566-1.836-5.297   c7.26,0.651,14.479,1.499,21.676,2.677c1.03,0.169,1.491-1.38,0.439-1.59c-5.525-1.104-11.081-1.857-16.684-2.21   c1.394-0.229,3.024-0.635,4.894-1.436c2.738-1.171,5.23-2.847,7.419-4.859c0.114,0.106,0.251,0.195,0.452,0.2   c4.159,0.083,8.316,0.25,12.472,0.029c0.963-0.051,0.965-1.447,0-1.498c-3.909-0.208-7.821-0.072-11.733,0.013   c1.577-1.637,2.976-3.437,4.146-5.373c4.674,0.136,9.328,0.544,13.997,0.786c0.863,0.045,1.075-1.365,0.206-1.527   c-4.381-0.82-8.791-1.056-13.233-1.113c0.734-1.866,1.311-4.466,1.911-7.092c0.66,0.072,1.329,0.043,1.998-0.024   c0.08,0.196,0.217,0.358,0.469,0.396c3.324,0.495,6.638,1.045,9.989,1.317c0.855,0.069,1.057-1.351,0.204-1.508   c-2.631-0.487-5.285-0.794-7.942-1.097c-0.051-0.151-0.167-0.285-0.352-0.296c-1.323-0.081-2.65-0.301-3.975-0.442   c0.468-1.968,0.972-3.864,1.588-5.39c0.009,0.001,0.012,0.012,0.022,0.013c4.382,0.58,8.754,1.118,13.154,1.542   c0.768,0.074,0.956-1.243,0.184-1.36c-4.212-0.637-8.423-1.158-12.653-1.648c0.427-0.736,0.898-1.318,1.445-1.635   c-0.572,0.332,7.691,1.712,9.089,1.783c4.584,0.233,8.466-0.715,12.713-2.228c1.221,8.068,4.708,15.661,10.71,20.807   C44.515,110.326,26.266,147.311,24.626,181.729z M98.333,107.182c-9.078,4.526-18.066,10.542-22.622,19.962   c-1.699,3.513-2.743,7.238-3.161,11.102c-0.259,2.4,2.476,14.298,2.115,15.071c-1.941,4.16-17.374,5.892-22.717,8.904   c-10.259,5.785-18.382,14.213-24.889,23.857c0.401-4.695,1.004-9.213,1.784-13.59c2.053,0.042,4.074-0.037,6.125-0.448   c0.655-0.131,0.514-1.219-0.159-1.173c-1.899,0.128-3.804,0.219-5.709,0.248c0.564-2.987,1.244-5.884,1.984-8.738   c5.624-0.151,11.28-0.386,16.873-0.964c0.903-0.093,0.948-1.446,0-1.441c-5.486,0.03-10.995,0.398-16.469,0.842   c0.761-2.79,1.654-5.488,2.584-8.162c0.02-0.002,0.029-0.002,0.051-0.004c0.186-0.018,0.283-0.123,0.34-0.245   c3.267-0.091,6.546-0.151,9.786-0.576c0.726-0.095,0.781-1.166,0-1.176c-3.249-0.038-6.493,0.29-9.729,0.586   c0.99-2.74,2.07-5.42,3.237-8.051c8.017-0.083,16.064-0.274,24.021-1.279c0.949-0.12,1.017-1.564,0-1.536   c-7.743,0.21-15.474,0.784-23.212,1.147c1.21-2.619,2.535-5.175,3.921-7.701c3.614,0.121,7.284,0.332,10.864-0.061   c0.924-0.102,0.926-1.339,0-1.441c-3.279-0.36-6.633-0.211-9.951-0.09c1.387-2.445,2.885-4.837,4.435-7.208   c5.971,0.215,12.024,0.443,17.989,0.098c1.085-0.063,1.087-1.625,0-1.688c-5.632-0.326-11.339-0.133-16.985,0.069   c1.856-2.759,3.831-5.471,5.906-8.15c4.369-0.095,8.732,0.047,13.1-0.012c1.048-0.014,1.025-1.536,0-1.612   c-3.947-0.292-7.916-0.118-11.868,0.123c1.555-1.957,3.179-3.895,4.847-5.82c2.852,0.185,5.866,0.418,8.708,0.111   c0.924-0.1,0.926-1.341,0-1.441c-2.468-0.267-5.052-0.116-7.56,0.047c4.111-4.655,8.535-9.235,13.374-13.761   c4.646,3.437,10.582,5.54,17.953,5.493c0.867-0.005,1.719-0.061,2.564-0.135c0.144,3.011,1.068,6.197,2.615,8.801   C98.429,107.16,98.383,107.157,98.333,107.182z M99.166,94.446c-8.925,2.09-16.202,0.391-21.69-3.546   c0.01-0.015,0.002-0.033,0.011-0.049c4.082,0.273,8.184,0.34,12.271,0.25c0.701-0.015,0.688-1.031,0-1.081   c-4.482-0.322-8.992-0.495-13.484-0.366c-0.084,0.002-0.123,0.055-0.188,0.081c-1.591-1.333-2.997-2.875-4.243-4.558   c1.814,0.146,3.632,0.286,5.443,0.279c0.842-0.003,0.814-1.216,0-1.289c-2.077-0.187-4.178-0.183-6.271-0.197   c-0.957-1.441-1.753-3.001-2.474-4.607c4.946,0.266,9.882,0.168,14.812-0.313c0.786-0.076,0.819-1.279,0-1.251   c-5.105,0.175-10.21,0.286-15.317,0.37c-0.846-2.096-1.438-4.308-1.892-6.562c0.008,0,0.01,0.007,0.018,0.007   c2.481,0.019,4.946-0.144,7.417-0.346c0.754-0.062,0.779-1.202,0-1.195c-2.479,0.022-4.948,0.085-7.417,0.328   c-0.099,0.01-0.151,0.074-0.225,0.115c-0.093-0.55-0.246-1.084-0.312-1.641c0.027-0.304-0.01-0.603-0.102-0.887   c-0.139-1.481-0.163-2.971-0.131-4.459c3.963-0.099,7.93-0.138,11.893-0.137c1.011,0,0.988-1.482,0-1.555   C73.31,61.543,69.39,61.625,65.431,62c0.16-2.594,0.596-5.161,1.294-7.632c3.072,0.038,6.139,0.077,9.212,0.009   c0.72-0.016,0.721-1.103,0-1.119c-2.958-0.065-5.911-0.027-8.868,0.008c0.586-1.833,1.384-3.569,2.28-5.248   c0.01,0.276,0.184,0.554,0.513,0.547c3.037-0.068,6.074-0.112,9.108-0.235c0.594-0.024,0.802-1.005,0.148-1.099   c-3.144-0.453-6.277-0.336-9.4,0.272c-0.062,0.012-0.084,0.062-0.13,0.09c4.401-7.923,12.309-13.705,24.199-13.847   c0.092-0.001,0.146-0.065,0.223-0.093c7.875,1.669,15.312,5.875,20.486,11.924c0.107,0.213,0.229,0.401,0.425,0.537   c3.792,4.628,6.29,10.274,6.685,16.668C122.489,77.097,113.411,91.11,99.166,94.446z M188.611,113.957   c-2.912,1.13-14.426,9.508-16.61,9.042c-2.54-0.542-2.724-5.65-4.163-8.273c-9.051-16.503-31.414-21.925-46.018-10.581   c-1.079-2.142-2.507-4.169-4.133-6.019c1.475,0.158,2.949,0.336,4.432,0.418c0.629,0.035,0.791-1.025,0.151-1.117   c-1.94-0.281-3.893-0.443-5.844-0.621c-1.602-1.614-3.339-3.077-5.208-4.218c0.82-0.587,1.606-1.218,2.367-1.878   c4.72,0.581,9.548,0.767,14.264,0.441c0.751-0.052,0.761-1.141,0-1.175c-4.314-0.196-8.634-0.351-12.952-0.511   c1.852-1.794,3.418-3.863,4.821-6.05c4.166,0.233,8.346,0.473,12.512,0.402c0.861-0.015,0.847-1.274,0-1.327   c-3.921-0.249-7.868-0.219-11.803-0.182c1.12-1.907,2.055-3.935,2.804-6.051c3.454,0.094,6.895,0.333,10.347,0.532   c0.93,0.054,0.887-1.318,0-1.422c-3.307-0.39-6.636-0.384-9.961-0.283c0.396-1.27,0.744-2.562,0.978-3.899   c35.936,3.192,65.205,14.643,91.681,39.167C206.985,108.441,197.884,110.359,188.611,113.957z"></path></g><g></g><g></g><g></g><g></g><g></g><g></g><g></g><g></g><g></g><g></g><g></g><g></g><g></g><g></g><g></g></svg>