<svg xmlns="http://www.w3.org/2000/svg" xmlns:xlink="http://www.w3.org/1999/xlink" fill="currentColor" version="1.1" id="Capa_1" viewBox="0 0 248.396 248.396" xml:space="preserve"><g><path d="M223.13,138.657c-4.906-40.284-29.041-73.284-63.529-87.418c0.117-0.169,0.208-0.366,0.249-0.603   c4.421-25.606-8.702-55.134-38.932-50.062c-13.093,2.197-25.051,10.186-31.132,22.108c-3.409,6.684-7.5,20.958-2.353,28.101   c-7.209,3.206-13.88,7.42-20.053,12.302c-0.117-0.006-0.234-0.005-0.352-0.01c-0.547-0.027-0.761,0.411-0.708,0.83   c-30.942,25.151-47.574,69.139-40.002,108.529c9.9,51.5,64.235,81.973,114.035,74.965   C194.206,239.82,229.616,191.918,223.13,138.657z M89.115,41.284c2.872,0.425,5.732,0.482,8.606-0.085   c0.789-0.156,0.623-1.515-0.193-1.423c-2.787,0.314-5.534,0.385-8.312,0.043c0.215-2.815,0.516-5.436,0.695-6.818   c5.748,0.481,11.507,1.01,17.272,1.159c0.993,0.026,0.963-1.442,0-1.525c-5.676-0.491-11.388-0.613-17.085-0.775   c0.799-2.732,1.893-5.24,3.218-7.642c6.336-0.399,12.59-0.116,18.952,0.155c0.737,0.031,0.928-1.186,0.178-1.311   c-6.048-1.005-12.215-0.866-18.315-0.291c0.679-1.12,1.402-2.223,2.2-3.308c1.24-1.684,2.673-3.221,4.191-4.672   c5.261,0.354,10.556,0.58,15.814,0.449c0.981-0.024,0.956-1.427,0-1.506c-4.704-0.387-9.453-0.475-14.19-0.462   c2.258-1.917,4.749-3.568,7.39-4.922c4.652-0.085,9.27,0.253,13.918,0.385c0.896,0.026,1.125-1.416,0.215-1.591   c-3.174-0.609-6.392-0.768-9.614-0.734c3.325-1.195,6.8-1.95,10.32-2.125c26.438-1.316,34.774,23.396,31.943,45.598   c-5.267-1.936-10.757-3.448-16.449-4.477c0.014-0.103,0.054-0.184,0.052-0.298c-0.151-9.264-7.4-17.344-16.98-16.889   c-8.527,0.404-14.539,7.961-12.971,16.114c-0.236-0.051-0.479-0.09-0.753-0.047c-6.879,1.089-13.452,2.999-19.688,5.583   C88.861,48.664,88.882,44.991,89.115,41.284z M136.365,44.817c-7.705-1.113-15.756-1.347-24.074-0.647   c-0.154-6.551,4.419-12.444,11.422-12.368C131.066,31.883,135.553,38.07,136.365,44.817z M145.496,242.173   c-25.905,4.914-54.351-0.692-76.646-14.939c1.75,0.425,3.508,0.789,5.274,0.988c0.637,0.072,0.753-0.95,0.15-1.105   c-2.985-0.763-5.948-1.441-8.892-2.204c-3.072-2.153-5.954-4.537-8.734-7.029c5.625,0.968,11.223,2.063,16.841,3.081   c0.689,0.125,0.995-0.898,0.294-1.066c-6.104-1.465-12.324-2.431-18.544-3.288c-3.192-2.985-6.141-6.214-8.851-9.642   c8.388,0.754,16.794,1.658,25.206,1.936c0.739,0.024,0.702-1.046,0-1.125c-8.594-0.961-17.275-1.266-25.913-1.75   c-2.619-3.41-4.984-7.028-7.056-10.848c4.346,0.918,8.71,1.326,13.152,0.899c0.694-0.067,0.724-1.127,0-1.106   c-4.578,0.138-9.08-0.08-13.578-0.997c-0.068-0.014-0.111,0.026-0.171,0.033c-1.939-3.721-3.568-7.647-4.915-11.74   c6.896,0.354,13.786,0.766,20.691,0.83c0.829,0.008,0.814-1.223,0-1.277c-7.018-0.464-14.049-0.566-21.08-0.737   c-0.649-2.087-1.245-4.205-1.722-6.389c-0.26-1.189-0.468-2.387-0.683-3.582c2.742-0.42,5.468-0.472,8.239-0.362   c0.821,0.033,0.79-1.179,0-1.258c-2.847-0.285-5.653-0.032-8.454,0.494c-0.78-4.645-1.209-9.331-1.344-14.023   c5.124,0.445,10.245,0.921,15.391,0.95c0.703,0.004,0.666-0.992,0-1.067c-5.125-0.579-10.28-0.714-15.433-0.879   c-0.094-4.872,0.164-9.745,0.729-14.582c4.094,0.902,8.592,1.318,12.672,1.421c0.747,0.019,0.941-1.184,0.18-1.329   c-4.031-0.767-8.504-1.317-12.694-1.304c0.535-4.176,1.378-8.305,2.377-12.395c5.234,0.797,10.462,1.688,15.75,2.018   c0.604,0.038,0.75-0.954,0.145-1.067c-5.178-0.968-10.429-1.388-15.668-1.892c0.932-3.679,2.101-7.29,3.391-10.855   c8.579,1.521,17.171,0.991,25.542-1.532c1.019-0.307,0.59-1.894-0.441-1.599c-8.177,2.341-16.277,2.826-24.629,1.813   c1.845-4.91,4.06-9.665,6.548-14.261c4.966,1.557,10.071,2.77,15.26,3.247c0.762,0.07,0.95-1.241,0.183-1.348   c-5.044-0.704-9.961-1.587-14.85-2.983c1.869-3.367,3.919-6.624,6.114-9.77c11.322,1.257,23.091,1.132,34.473,0.952   c0.863-0.014,0.855-1.292,0-1.334c-11.217-0.553-22.817-1.057-34.034-0.223c2.782-3.928,5.819-7.657,9.082-11.16   c6.923,1.019,13.878,1.654,20.886,1.554c0.957-0.013,0.958-1.466,0-1.487c-6.646-0.141-13.263-0.465-19.873-1.118   c3.77-3.937,7.87-7.527,12.213-10.792c5.768,0.338,11.544,0.515,17.318,0.218c0.989-0.051,0.999-1.516,0-1.544   c-5.011-0.144-10.021-0.211-15.03-0.328c2.932-2.072,5.992-3.965,9.149-5.697c3.658,0.038,7.307,0.044,10.964-0.019   c1.054-0.018,1.056-1.621,0-1.639c-2.604-0.045-5.204-0.024-7.807-0.013c7.327-3.653,15.209-6.35,23.594-7.853   c0.633-0.114,1.033-0.439,1.243-0.854c51.172,1.014,95.629,26.988,105.741,80.415C227.1,179.692,200.57,231.725,145.496,242.173z"></path><path d="M195.186,126.926c-0.068,0.08-0.143,0.15-0.21,0.23c-8.907,0.001-17.824,0.639-26.734,0.778   c-7.602,0.118-15.314-0.357-22.832,0.822c-6.586-12.983-13.219-27.504-22.672-38.625c-0.229-0.27-0.598-0.24-0.87-0.065   c-0.357-0.104-0.777-0.008-0.971,0.462c-2.637,6.383-5.152,12.764-7.731,19.119c-0.299,0.022-0.595-0.003-0.895,0.03   c-0.612,0.067-0.629,1.027,0,0.972c0.165-0.015,0.325,0.006,0.489-0.005c-0.68,1.666-1.336,3.343-2.035,5.002   c-0.591-0.016-0.723,0.644-0.421,1.007c-1.773,4.178-3.604,8.337-5.632,12.441c-0.028,0.056-0.024,0.109-0.045,0.165   c-3.9,3.104-18.323,2.949-23.284,3.852c-8.014,1.46-16.191,2.897-23.904,5.528c-0.631,0.215-0.921,0.678-0.949,1.155   c-0.061,0.128-0.156,0.231-0.153,0.401c0.107,5.58,8.793,8.694,12.832,11.297c8.426,5.432,16.924,10.789,25.56,15.882   c0.021,0.012,0.041,0.011,0.062,0.021c0.017,0.103,0.11,0.166,0.158,0.255c-0.158-0.005-0.314-0.012-0.472-0.018   c-0.58-0.021-0.571,0.859,0,0.896c0.175,0.011,0.349,0.021,0.522,0.033c-4.245,16.54-7.833,33.895-9.754,50.813   c-0.174,1.535,2.281,1.805,2.658,0.36c0.006-0.021,0.01-0.043,0.015-0.065c0.026-0.024,0.057-0.029,0.08-0.058   c0.243,0.446,0.788,0.709,1.281,0.238c6.966-6.662,15.56-12.364,23.491-17.856c6.152-4.259,13.219-7.364,19.138-11.868   c13.024,8.568,26.518,19.049,40.799,25.169c1.031,0.442,2.372-0.839,1.328-1.721c-12.112-10.244-27.679-17.633-41.406-25.607   c-0.153-0.163-0.324-0.257-0.535-0.305c-0.018-0.011-0.038-0.022-0.057-0.032c-0.101-0.059-0.198-0.077-0.295-0.103   c0.374-0.204,0.654-0.558,0.603-1.134c-0.8-9.162-1.491-18.384-2.205-27.607c2.655,2.926,5.297,5.864,7.901,8.834   c5.129,5.849,10.192,11.756,15.189,17.718c5.899,7.039,16.311,16.622,18.967,25.311c0.176,0.576,0.782,0.791,1.302,0.702   c0.255,0.884,0.533,1.753,0.785,2.641c0.343,1.208,2.079,0.692,1.856-0.512c-3.232-17.426-9.354-34.182-17.024-50.122   c-0.032-0.067-0.081-0.098-0.118-0.155c0.135-0.006,0.269,0.026,0.403-0.052c14.644-8.539,27.45-20.811,38.17-33.836   C198.934,127.656,196.61,125.264,195.186,126.926z M142.267,129.848c-4.331,6.263-8.65,12.559-12.932,18.892   c-1.421-17.752-3.04-35.509-5.68-53.026C128.935,107.414,136.223,118.591,142.267,129.848z M107.306,130.632   c0.906-1.724,1.795-3.476,2.671-5.24c2.458,0.154,4.943,0.21,7.374,0.09c0.784-0.039,0.786-1.181,0-1.22   c-2.259-0.112-4.562-0.066-6.85,0.058c1.151-2.348,2.267-4.728,3.331-7.136c1.507,0.143,3.016,0.256,4.53,0.22   c0.637-0.015,0.839-1.044,0.157-1.161c-1.365-0.233-2.74-0.349-4.119-0.429c0.73-1.69,1.434-3.393,2.107-5.107   c0.916,0.087,1.83,0.185,2.754,0.366c0.668,0.131,0.959-0.874,0.284-1.03c-0.882-0.203-1.768-0.28-2.655-0.362   c1.879-4.892,3.504-9.867,4.689-14.909c0.721,18.432,2.512,36.895,4.398,55.328c-3.56-3.864-7.203-7.641-10.9-11.359   c1.434,0.167,2.866,0.349,4.305,0.455c0.736,0.054,0.697-1.034,0-1.125c-1.843-0.241-3.7-0.379-5.55-0.548   c-2.232-2.222-4.455-4.454-6.752-6.603C107.157,130.832,107.242,130.755,107.306,130.632z M71.573,138.619   c0.035,0.265,0.201,0.527,0.538,0.561c5.416,0.548,10.829,1.176,16.266,1.466c0.704,0.038,0.658-0.979,0-1.068   c-4.827-0.647-9.684-1.026-14.537-1.433c3.882-0.817,7.772-1.601,11.674-2.318c0.068,0.089,0.169,0.153,0.321,0.152   c4.582-0.018,9.069,0.28,13.591,1.064c0.644,0.112,0.929-0.863,0.274-0.993c-3.13-0.619-6.288-0.962-9.462-1.022   c4.651-0.527,12.084-0.253,15.198-3.729c6.61,7.725,13.497,15.211,20.36,22.718c-0.019,0.028-0.037,0.057-0.056,0.085   c-21.335-4.688-42.691-9.289-64.117-13.512C64.948,139.994,68.261,139.312,71.573,138.619z M87.755,159.373   c1.563,0.009,3.125,0.032,4.688,0.015c0.589-0.006,0.59-0.908,0-0.915c-2.04-0.022-4.08,0.003-6.121,0.019   c-2.572-1.571-5.141-3.149-7.703-4.735c3.392,0.57,6.846,0.837,10.266,0.772c0.861-0.016,0.857-1.298,0-1.334   c-4.547-0.193-8.991-0.69-13.474-1.434c-1.295-0.809-2.589-1.617-3.884-2.424c0.877,0.084,1.751,0.201,2.631,0.269   c0.621,0.048,0.593-0.879,0-0.953c-1.478-0.184-2.96-0.3-4.439-0.444c-0.071-0.044-0.142-0.088-0.212-0.132   c-2.055-1.275-7.015-3.528-9.596-5.937c20.819,4.93,41.733,9.482,62.662,13.951c-8.532,3.276-16.872,6.835-25.541,9.816   c-0.006-0.47-0.188-0.941-0.706-1.265C93.481,162.865,90.616,161.121,87.755,159.373z M89.262,213.901   c1.319-5.529,2.453-11.154,3.504-16.802c0.896-0.139,1.8-0.217,2.724-0.192c0.379,0.01,0.477-0.6,0.091-0.674   c-0.916-0.177-1.779-0.19-2.636-0.102c0.3-1.636,0.537-3.279,0.818-4.918c1.977-0.258,3.953-0.507,5.914-0.876   c0.531-0.1,0.416-1.027-0.129-0.955c-1.894,0.25-3.766,0.61-5.641,0.964c0.385-2.275,0.726-4.549,1.082-6.824   c2.722-0.285,5.384-0.227,8.124-0.14c0.68,0.022,0.636-0.948,0-1.029c-2.648-0.341-5.347-0.122-7.983,0.281   c0.353-2.284,0.623-4.551,0.945-6.83c4.039,0.091,8.108,0.269,12.126-0.045c0.723-0.056,0.724-1.068,0-1.125   c-3.963-0.31-7.974-0.141-11.958-0.048c0.272-1.966,0.568-3.938,0.816-5.898c2.525,0.161,5.048,0.306,7.583,0.31   c0.537,0.001,0.515-0.769,0-0.82c-2.395-0.236-4.791-0.343-7.191-0.433c8.399-1.526,17.203-4.231,24.815-8.346   C110.532,177.136,99.266,195.213,89.262,213.901z M130.88,187.696c-0.119,0.097-0.213,0.219-0.287,0.357   c-14.289,6.193-29.917,16.697-40.574,28.427c12.342-19.408,24.348-38.974,36.782-58.289c0.967,9.413,1.926,18.816,2.743,28.2   C129.614,187.208,130.237,187.631,130.88,187.696z M170.086,200.027c-5.559-8.619-15.149-16.802-20.643-23.237   c-5.249-6.148-10.568-12.287-15.962-18.363c7.758,1.648,15.516,3.292,23.271,4.945c-0.263,0.392-0.373,0.895-0.121,1.437   C161.993,176.327,166.293,188.046,170.086,200.027z M158.465,161.444c-0.13-0.11-0.288-0.201-0.499-0.247   c-9.122-2.004-18.243-4.02-27.366-6.029c-0.233-0.26-0.462-0.524-0.694-0.785c0.083-0.003,0.162,0.023,0.25-0.03   c0.174-0.105,0.348-0.211,0.523-0.316c0.136-0.082,0.148-0.299,0-0.379c3.686,1.976,12.859-2.663,16.444-3.785   c5.633-1.763,11.251-3.579,16.862-5.41c7.898-2.577,15.536-5.4,23.02-8.833C178.073,144.854,168.511,153.205,158.465,161.444z    M130.011,153.183c4.715-7.253,9.511-14.46,14.431-21.599c0.601-0.15,1.144-0.643,1.303-1.278c13.455,2.74,29.55,1.92,43.707,0.509   C170.292,140.039,148.976,143.781,130.011,153.183z"></path><path d="M118.367,131.426c-2.544-0.074-5.081-0.032-7.625,0c-0.724,0.009-0.725,1.116,0,1.125c2.544,0.032,5.081,0.074,7.625,0   C119.091,132.53,119.092,131.447,118.367,131.426z"></path></g><g></g><g></g><g></g><g></g><g></g><g></g><g></g><g></g><g></g><g></g><g></g><g></g><g></g><g></g><g></g></svg>