<svg xmlns="http://www.w3.org/2000/svg" xmlns:xlink="http://www.w3.org/1999/xlink" fill="currentColor" version="1.1" id="Capa_1" viewBox="0 0 242.894 242.894" xml:space="preserve"><g><path d="M210.103,46.648c10.099,0.016,19-9.514,16.492-19.681c-0.501-2.033-3.343-1.448-3.486,0.472   c-0.635,8.586-5.921,16.926-15.207,15.226c0.374-7.365-0.052-14.565-1.21-21.074c-0.463-2.601-4.294-1.459-3.922,1.081   c0.855,5.85,1.134,12.142,0.894,18.532c-6.214-3.149-9.311-10.067-10.956-16.577c-0.393-1.557-2.597-0.868-2.357,0.65   c1.295,8.179,5.561,16.791,13.14,20.025c-1.025,13.244-4.636,26.677-11.63,37.534c-10.249-14.997-22.814-28.2-36.338-38.198   c-0.131-0.097-0.258-0.13-0.387-0.179c0.277-1.335,0.503-2.69,0.631-4.076c4.181-45.194-64.612-56.896-73.938-12.117   c-0.008,0.036,0.02,0.065,0.018,0.1c-6.479,1.16-12.927,2.438-19.212,3.802c-0.682,0.148-0.77,0.919-0.464,1.41   c-0.237,0.415-0.179,0.985,0.435,1.18c6.368,2.022,12.89,3.587,19.466,4.913c-0.019,0.117-0.053,0.226-0.037,0.359   c0.912,7.634,3.919,14.742,8.459,20.502C77.79,70.52,66.417,83.324,57.567,97.719c-8.279-6.372-14.752-18.406-18.282-26.223   c-1.81-4.008-3.156-8.025-4.182-12.09c9.387-0.56,17.465-11.085,12.815-20.04c-0.691-1.33-2.906-0.723-2.839,0.769   c0.32,7.116-1,14.143-9.387,15.447c-0.451,0.07-0.931,0.102-1.427,0.111c-1.237-6.072-1.839-12.274-2.14-18.749   c-0.073-1.563-2.286-1.537-2.411,0c-0.496,6.125-0.035,12.319,1.151,18.394c-6.331-1.306-13.52-6.177-12.368-12.708   c0.249-1.412-1.75-2.016-2.179-0.601c-2.657,8.771,7.044,15.908,15.369,17.194c1.834,7.312,4.758,14.368,8.513,20.798   c3.428,5.868,9.113,15.122,15.951,20.102c-9.548,16.238-15.841,34.378-17.165,52.79c-0.371-0.013-0.743-0.027-1.115-0.041   c-0.562-0.021-0.556,0.837,0,0.87c0.349,0.021,0.698,0.042,1.047,0.063c-0.425,6.733-0.198,13.499,0.806,20.219   c6.787,45.413,53.594,68.705,95.723,68.868c46.079,0.178,75.963-27.473,81.469-72.444c3.492-28.514-6.286-58.779-22.846-84.293   c8.027-11.076,12.319-25.527,13.574-39.696C208.439,46.573,209.253,46.647,210.103,46.648z M80.311,36.488   c1.924,0.109,3.851,0.151,5.766,0.048c0.556-0.03,0.564-0.873,0-0.87c-5.41,0.026-10.645-0.406-15.985-1.287   c-0.079-0.013-0.101,0.061-0.154,0.097c-1.261-0.245-2.52-0.494-3.783-0.735c4.66-0.312,9.408-0.828,14.157-1.445   c4.325,0.512,8.676,0.483,13.026-0.29c0.532-0.095,0.415-1.025-0.129-0.954c-2.514,0.331-4.997,0.482-7.475,0.509   c3.851-0.601,7.664-1.329,11.424-2.148c2.109,0.011,4.217-0.004,6.326-0.09c0.538-0.022,0.539-0.815,0-0.837   c-0.808-0.033-1.616-0.021-2.425-0.035c1.822-0.444,3.68-0.841,5.453-1.345c0.008-0.002,0.013-0.008,0.021-0.011   c0.051,0.125,0.061,0.251,0.162,0.372c1.881,2.263,4.056,3.454,4.13,6.787c0.067,2.985-1.807,5.464-4.249,6.976   c-0.136-0.116-0.298-0.208-0.511-0.238C97.412,39.762,88.859,38.151,80.311,36.488z M85.192,40.298   c6.821,1.285,13.692,2.317,20.533,3.209c0.393,0.051,0.694-0.113,0.908-0.368c0.125,0.019,0.234,0.078,0.378,0.033   c3.785-1.182,6.546-4.412,6.748-8.468c0.174-3.485-2.109-8.628-5.94-9.167c-0.199-0.028-0.363,0.028-0.532,0.071   c-0.112-0.485-0.473-0.886-1.089-0.819c-7.456,0.802-15.051,1.933-22.61,3.255c0.999-2.264,2.149-4.45,3.419-6.543   c1.762,0.473,3.587,0.549,5.399,0.095c0.401-0.101,0.33-0.789-0.1-0.74c-1.674,0.194-3.263,0.198-4.861-0.081   c0.749-1.192,1.56-2.333,2.398-3.446c1.674,0.087,3.338,0.244,5.022,0.472c0.64,0.087,0.946-0.86,0.275-1.001   c-1.5-0.315-3.021-0.415-4.545-0.429c1.018-1.281,2.118-2.474,3.257-3.619c2.028-0.131,4.053-0.267,6.071-0.536   c0.71-0.095,0.768-1.17,0-1.155c-1.53,0.029-3.051,0.136-4.572,0.262c1.493-1.354,3.081-2.583,4.761-3.67   c2.304,0.294,4.634,0.615,6.933,0.605c0.742-0.003,0.95-1.179,0.18-1.332c-1.591-0.315-3.224-0.473-4.862-0.593   c4.631-2.515,9.899-3.97,15.823-3.897c18.508,0.229,34.181,15.456,34.285,34.063c0.099,17.774-13.977,33.164-31.91,34.033   c-10.792,0.523-19.987-3.938-26.387-11.178c-0.105-0.231-0.274-0.431-0.484-0.565C89.369,53.689,86.384,47.304,85.192,40.298z    M214.508,153.215c0.563,22.018-4.585,48.589-20.562,64.701c-16.06,16.195-39.272,22.089-61.506,21.44   c-15.049-0.439-30.246-3.909-43.772-10.18c3.587,0.511,7.177,0.938,10.802,1.174c0.82,0.053,0.785-1.164,0-1.255   c-3.835-0.448-7.674-0.897-11.499-1.42c-1.136-0.155-2.267-0.335-3.4-0.506c-3.721-1.935-7.269-4.12-10.65-6.497   c3.891,0.608,7.788,1.26,11.705,1.587c0.561,0.047,0.69-0.879,0.134-0.986c-4.497-0.87-9.097-1.305-13.641-1.881   c-3.022-2.239-5.861-4.675-8.522-7.272c11.743,1.734,23.532,2.977,35.423,2.641c0.82-0.023,0.818-1.239,0-1.272   c-12.228-0.492-24.413-0.934-36.565-2.483c-2.932-2.981-5.582-6.209-7.961-9.634c5.411,0.863,10.92,1.717,16.401,1.801   c0.787,0.012,0.734-1.094,0-1.189c-5.441-0.702-10.905-1.078-16.338-1.882c-0.338-0.05-0.567,0.155-0.69,0.399   c-2.282-3.395-4.232-7.026-5.889-10.837c10.299,1.202,20.605,2.566,30.949,3.283c0.686,0.048,0.86-1.123,0.165-1.217   c-10.468-1.407-21.029-2.16-31.551-3.08c-1.264-3.044-2.241-6.258-3.067-9.554c4.034,0.439,8.069,0.636,12.141,0.403   c0.737-0.042,0.748-1.173,0-1.155c-4.144,0.1-8.276-0.035-12.405-0.323c-0.751-3.215-1.279-6.549-1.591-9.988   c7.635,0.637,15.272,1.324,22.924,1.701c0.892,0.044,0.866-1.291,0-1.373c-7.659-0.721-15.347-1.131-23.027-1.591   c-0.142-1.961-0.233-3.948-0.203-5.991c0.033-2.263,0.167-4.509,0.336-6.748c2.867,0.173,5.734,0.334,8.605,0.419   c0.64,0.019,0.629-0.945,0-0.988c-2.849-0.193-5.702-0.31-8.556-0.415c0.262-3.113,0.699-6.19,1.212-9.248   c3.93,0.391,7.867,0.721,11.811,0.905c0.816,0.038,0.792-1.183,0-1.255c-3.865-0.354-7.744-0.567-11.623-0.72   c0.621-3.499,1.404-6.957,2.329-10.372c8.86,0.558,17.658,0.393,26.457-0.956c0.84-0.129,0.652-1.581-0.203-1.496   c-8.611,0.855-17.203,1.306-25.844,1.022c1.061-3.736,2.351-7.396,3.75-11.015c3.899,0.457,7.783,1.013,11.673,1.539   c0.688,0.093,1.003-0.947,0.294-1.065c-3.854-0.643-7.739-1.024-11.632-1.337c1.173-2.971,2.446-5.903,3.821-8.788   c6.743,1.673,13.605,1.928,20.424,0.351c1.224-0.283,0.7-2.116-0.516-1.872c-6.446,1.291-12.732,1.323-19.1-0.026   c1.126-2.285,2.271-4.561,3.538-6.778c2.068,1.051,4.215,1.675,6.424,1.639c1.021-0.016,1.318-1.624,0.249-1.841   c-1.845-0.375-3.624-1.127-5.345-2.115c1.416-2.371,2.926-4.687,4.478-6.977c4.07,1.299,8.464,1.7,12.697,1.533   c0.697-0.027,0.704-1.084,0-1.088c-4.119-0.024-8.068-0.62-12.076-1.349c1.501-2.181,3.103-4.294,4.718-6.395   c5.714,0.513,11.452,1.192,17.181,1.244c0.621,0.006,0.802-1.03,0.151-1.118c-5.465-0.738-11.016-0.919-16.533-1.209   c1.557-1.99,3.164-3.943,4.815-5.856c3.879,0.291,7.633,1.132,11.457,1.781c0.602,0.102,0.839-0.712,0.254-0.92   c-3.519-1.25-7.266-1.591-10.986-1.662c4.775-5.455,9.907-10.592,15.369-15.315c6.567,7.39,15.869,12.123,26.68,12.013   c16.585-0.168,30.997-11.209,35.686-26.582c12.638,9.573,25.111,23.047,35.42,38.266c-4.382,5.898-9.887,10.869-16.681,14.378   c-1.075,0.555-0.32,2.449,0.839,1.989c7.215-2.866,13.139-7.49,17.931-13.221C204.867,109.295,213.971,132.21,214.508,153.215z"></path><path d="M97.985,49.805c-0.514-0.369-1.064-0.685-1.612-1.004c0.228-0.764,0.437-1.536,0.665-2.282   c0.193-0.631-0.798-1.077-1.086-0.458c-0.295,0.633-0.618,1.276-0.931,1.922c-0.391-0.228-0.787-0.445-1.164-0.694   c-0.522-0.345-1.185,0.485-0.679,0.881c0.438,0.343,0.895,0.664,1.347,0.99c-0.264,0.616-0.538,1.23-0.697,1.867   c-0.212,0.851,1.018,1.432,1.453,0.613c0.269-0.505,0.442-1.064,0.639-1.61c0.526,0.302,1.045,0.618,1.627,0.815   C98.197,51.065,98.476,50.158,97.985,49.805z"></path><path d="M108.413,55.207c-0.657-0.622-1.357-1.174-2.064-1.716c0.429-0.958,0.819-1.936,1.235-2.853   c0.286-0.63-0.548-1.145-0.939-0.549c-0.515,0.786-1.09,1.585-1.639,2.402c-0.51-0.365-1.015-0.732-1.533-1.097   c-0.788-0.556-1.475,0.708-0.744,1.272c0.492,0.379,0.983,0.746,1.473,1.118c-0.408,0.695-0.781,1.403-1.029,2.143   c-0.244,0.725,0.826,1.395,1.329,0.773c0.455-0.562,0.829-1.197,1.178-1.853c0.651,0.456,1.303,0.91,2.004,1.305   C108.268,56.483,108.922,55.688,108.413,55.207z"></path><path d="M120.175,53.248c-0.486-0.114-0.982-0.147-1.476-0.199c0.042-0.995-0.061-2.005-0.298-2.89   c-0.201-0.75-1.231-0.412-1.13,0.311c0.126,0.898,0.023,1.678-0.154,2.435c-0.525-0.022-1.051-0.042-1.575-0.068   c-0.611-0.029-0.766,0.979-0.146,1.085c0.454,0.078,0.91,0.16,1.366,0.244c-0.191,0.571-0.393,1.15-0.575,1.778   c-0.197,0.682,0.694,1.198,1.189,0.692c0.599-0.612,0.915-1.403,1.117-2.235c0.502,0.059,1.003,0.136,1.509,0.13   C120.721,54.522,120.909,53.42,120.175,53.248z"></path><path d="M130.708,44.23c-0.725,0.09-1.423,0.264-2.121,0.444c-0.235-0.556-0.527-1.09-0.9-1.551   c-0.479-0.591-1.231,0.164-0.973,0.75c0.186,0.421,0.279,0.823,0.345,1.221c-0.489,0.15-0.978,0.294-1.469,0.447   c-0.957,0.296-0.564,1.73,0.414,1.501c0.402-0.094,0.798-0.193,1.198-0.287c0.012,0.288,0.025,0.581,0.057,0.887   c0.068,0.663,1.005,1.082,1.373,0.372c0.286-0.554,0.349-1.135,0.327-1.716c0.715-0.202,1.426-0.413,2.118-0.711   C131.723,45.308,131.41,44.143,130.708,44.23z"></path><path d="M135.412,33.901c-0.535,0.185-1.048,0.414-1.565,0.634c-0.16-0.436-0.321-0.867-0.464-1.287   c-0.2-0.586-1.031-0.349-0.92,0.253c0.089,0.479,0.165,0.98,0.248,1.484c-0.714,0.3-1.43,0.597-2.189,0.809   c-0.881,0.247-0.494,1.473,0.369,1.34c0.719-0.111,1.459-0.248,2.191-0.422c0.142,0.503,0.31,0.993,0.562,1.435   c0.261,0.459,0.979,0.251,0.982-0.266c0.003-0.519-0.093-1.04-0.221-1.56c0.594-0.209,1.173-0.451,1.697-0.784   C136.923,35.017,136.412,33.554,135.412,33.901z"></path><path d="M103.914,16.042c-0.236-1.31-2.41-1.311-2.647,0c-0.215,1.191-0.043,2.291,0.093,3.49c0.179,1.579,2.281,1.582,2.46,0   C103.956,18.337,104.129,17.232,103.914,16.042z"></path><path d="M112.211,14.855c-0.91,1.602-0.869,3.73-1.091,5.539c-0.166,1.347,1.884,1.481,2.269,0.307   c0.536-1.637,1.436-3.434,1.303-5.174C114.595,14.272,112.903,13.637,112.211,14.855z"></path><path d="M127.573,106.599c-1.765-1.145-3.519-2.321-5.277-3.489c0.97-0.902,1.933-1.815,2.685-2.866   c0.966-1.351-0.935-3.189-2.279-2.279c-1.258,0.852-2.32,2.058-3.329,3.26c-1.851-1.202-3.702-2.403-5.606-3.506   c-1.081-0.626-2.41,0.95-1.38,1.788c1.669,1.356,3.408,2.628,5.145,3.904c-1.149,1.348-2.283,2.717-3.261,4.19   c-0.865,1.3,1.072,2.751,2.143,1.653c1.253-1.286,2.437-2.639,3.665-3.95c1.939,1.394,3.887,2.775,5.808,4.182   C127.607,110.748,129.517,107.597,127.573,106.599z"></path><path d="M123.451,127.792c-0.798-1.227-2.133-2.052-3.46-2.821c0.851-0.91,1.681-1.835,2.235-2.893   c0.684-1.303-0.762-3.056-2.141-2.141c-1.201,0.797-2.133,2.012-2.985,3.254c-1.615-1.045-3.228-2.098-4.911-3.023   c-1.191-0.654-2.633,1.009-1.511,1.959c1.51,1.278,3.121,2.438,4.716,3.61c-1.209,1.79-2.382,3.625-3.264,5.595   c-0.682,1.524,1.319,2.764,2.269,1.326c1.119-1.693,2.165-3.425,3.36-5.065c1.245,1.035,2.563,2.075,4.01,2.386   C122.962,130.237,124.201,128.947,123.451,127.792z"></path><path d="M120.489,154.758c-0.667-0.887-1.594-1.472-2.57-1.998c0.701-0.945,1.321-1.933,1.585-2.997   c0.267-1.073-1.008-2.326-2.041-1.569c-1.025,0.751-1.761,1.821-2.432,2.937c-1.604-1.019-3.119-2.143-4.669-3.247   c-1.253-0.893-2.579,1.016-1.592,2.064c1.382,1.467,2.988,2.741,4.606,3.947c-1.204,1.92-2.405,3.842-3.604,5.765   c-0.859,1.378,1.222,2.517,2.139,1.25c1.274-1.761,2.547-3.522,3.817-5.287c1.074,0.733,2.22,1.353,3.461,1.402   C120.245,157.067,121.18,155.678,120.489,154.758z"></path><path d="M123.923,184.853c-0.869-1.547-2.622-2.576-4.19-3.596c0.924-0.997,1.842-2.002,2.783-2.977   c1.521-1.575-0.997-4.02-2.379-2.379c-0.979,1.162-1.989,2.304-2.992,3.45c-1.552-1.221-3.088-2.468-4.705-3.594   c-1.193-0.831-2.425,0.953-1.501,1.945c1.307,1.404,2.774,2.673,4.248,3.923c-1.462,1.686-2.909,3.385-4.259,5.153   c-0.898,1.176,0.982,2.476,1.985,1.531c1.585-1.492,3.09-3.074,4.581-4.671c1.434,1.33,2.995,2.915,4.806,3.328   C123.515,187.246,124.554,185.977,123.923,184.853z"></path></g><g></g><g></g><g></g><g></g><g></g><g></g><g></g><g></g><g></g><g></g><g></g><g></g><g></g><g></g><g></g></svg>