<svg xmlns="http://www.w3.org/2000/svg" xmlns:xlink="http://www.w3.org/1999/xlink" fill="currentColor" version="1.1" id="Capa_1" viewBox="0 0 243.742 243.742" xml:space="preserve"><g><path d="M192.704,132.809c0.013,0,0.013-0.02,0-0.02"></path><path d="M237.171,143.58c1.475-3.882-0.281-8.393-2.841-11.404c-4.191-4.931-13.836-6.781-18.63-2.3   c-0.067-6.809-4.575-13.646-12.345-10.078c-3.77,1.731-5.9,5.462-6.316,9.512c-0.236,2.297-0.155,5.495,0.971,7.881   c-0.48-0.155-0.985-0.234-1.474-0.362c-6.194-12.891-44.516-86.156-21.457-96.861c2.827-0.416,5.73,0.534,7.787,2.888   c2.399,2.745,3.902,6.171,6.225,8.988c0.389,0.472,0.865,0.55,1.289,0.408c8.282,6.633,22.858,4.177,25.269-7.415   c0.363-0.303,0.573-0.781,0.388-1.416C211.036,26.23,203,10.997,183.983,7.539c-15.675-2.85-36.831,1.506-46.042,15.669   c-1.797,2.763-3.045,5.681-3.883,8.694c-1.252-7.003-3.986-13.671-8.805-19.458C114.982,0.111,100.321-1.591,85.035,1.096   C67.056,4.258,59,16.22,53.487,32.965c-0.098,0.297-0.053,0.568,0.061,0.805c-0.043,0.212-0.054,0.427-0.087,0.641   c-0.67,0.088-0.918,1.088-0.154,1.253c-0.242,4.089,1.384,8.248,4.757,11.19c6.559,5.719,16.161,5.036,23.557,1.46   c0.703-0.34,0.832-1.08,0.626-1.72c1.749-2.279,2.715-5.476,4.277-7.845c1.458-2.212,3.384-4.303,5.455-6.118   c0.17-0.017,0.342-0.041,0.519-0.121c16.754-7.572,7.263,20.306,6.193,23.355c-2.709,7.725-5.754,15.327-8.943,22.863   c-5.593,13.216-12.276,25.849-18.285,38.866c-3.358-1.311-6.496-2.542-9.221-3.719c-0.611-0.264-1.185-0.153-1.652,0.123   c-2.525-0.41-4.985-0.043-7.345,0.857c-1.511-8.854-6.558-20.48-17.378-18.794c-7.964,1.241-9.466,8.166-7.284,14.24   c-5.421-2.839-12.263-3.402-15.501,2.548c-2.313,4.25,0.127,11.843,4.38,15.643c-6.95,0.69-14.054,5.067-10.465,12.851   c3.974,8.619,16.057,10.611,24.185,7.372c-0.316,9.046,5.274,15.179,12.606,19.668c-0.008,0.015-0.022,0.021-0.03,0.036   c-5.163,9.96-13.249,21.748-11.772,33.54c0.178,1.421,0.574,2.77,1.062,4.072c-0.071,0.27,0.027,0.547,0.289,0.708   c0.983,2.312,2.382,4.39,4.219,5.973c17.561,18.688,39.581-6.595,43.063-25.864c0.173-0.1,0.36-0.168,0.531-0.27   c0.246-0.147,0.397-0.331,0.508-0.526c9.427,2.398,18.509,2.064,25.793-3.681c-3.018,11.334,6.763,25.991,19.204,25.004   c9.818-0.779,11.299-13.264,6.359-20.17c1.739,0.166,3.606-0.172,5.029-0.743c3.163-1.268,5.441-3.974,5.988-7.352   c0.733-4.523-1.825-8.961-5.618-11.218c3.394-1.007,6.294-3.212,7.502-6.23c-1.387,5.656,3.309,11.163,8.779,12.89   c-5.411,3.309-9.074,9.679-6.198,15.937c3.884,8.452,13.645,6.033,19.499,0.962c-1.898,7.568-0.327,21.256,9.715,17.572   c2.736-1.004,4.783-2.742,6.338-4.875c2.988,8.537,7.125,16.704,11.272,24.715c3.162,6.106,5.391,12.877,12.704,14.458   c11.958,2.585,23.029-7.171,23.742-18.617c0.224-0.083,0.42-0.254,0.43-0.542c0.253-7.451-3.102-13.188-6.457-19.673   c-5.363-10.367-10.032-21.02-14.1-31.96c-0.049-0.132-0.131-0.223-0.202-0.327c1.465-2.444,2.539-5.128,3.047-7.982   c0.026,0.015,0.027,0.049,0.055,0.062c6.505,3.041,16.757,3.541,20.406-4.099c1.903-3.984,0.233-8.579-3.111-10.447   C234.209,148.136,236.262,145.971,237.171,143.58z M210.064,152.691c4.451,11.881-2.597,25.47-15.574,27.184   c-5.527,0.73-10.759-0.926-14.894-4.108c4.712,0.09,9.414,0.056,14.12-0.328c0.636-0.052,0.654-1.031,0-1.005   c-5.061,0.202-10.124,0.364-15.189,0.359c-1.922-1.694-3.537-3.743-4.811-6.021c10.408-0.15,20.881-1.074,30.993-3.563   c1.065-0.262,0.592-1.77-0.444-1.609c-10.373,1.618-20.665,3.19-31.127,4.012c-0.747-1.539-1.385-3.143-1.761-4.864   c-0.107-0.488-0.095-0.931-0.165-1.405c5.264,0.147,10.401-0.243,15.597-1.294c0.829-0.168,0.473-1.412-0.348-1.262   c-5.073,0.928-10.216,1.414-15.37,1.524c-0.221-2.347,0.025-4.515,0.603-6.531c9.266-0.159,18.483-0.757,27.615-2.409   c0.852-0.154,0.668-1.621-0.207-1.527c-8.932,0.965-17.847,1.919-26.819,2.358c0.669-1.683,1.612-3.232,2.726-4.677   c1.063,0.031,2.277-0.184,3.109-0.391c3.638-0.25,7.251-0.547,10.875-0.99c0.694-0.085,0.735-1.159,0-1.119   c-3.319,0.183-6.606,0.512-9.904,0.861c-0.108-0.179-0.269-0.319-0.542-0.3c-0.647,0.046-1.398,0.188-2.159,0.308   c2.445-2.627,5.533-4.827,8.919-6.585C195.67,138.205,206.174,142.308,210.064,152.691z M188.631,125.837   c1.826,3.538,3.734,7.03,5.731,10.467c-3.653-0.614-7.483-0.447-11.216,0.632c-0.743,0.215-0.985,0.798-0.897,1.35   c-5.497,1.474-9.659,5.704-12.054,10.861c0.107-0.297-0.115-0.671-0.535-0.61c-1.537,0.22-3.092,0.349-4.629,0.565   c-0.512-1.714-1.086-3.409-1.608-5.121c2.458-0.044,4.912-0.09,7.37-0.22c0.654-0.034,0.663-1.04,0-1.024   c-2.555,0.062-5.099,0.209-7.647,0.361c-0.526-1.72-1.087-3.43-1.617-5.15c5.791-0.538,11.594-1.01,17.358-1.777   c0.789-0.105,0.827-1.348,0-1.27c-5.893,0.553-11.758,1.415-17.624,2.199c-0.577-1.872-1.181-3.735-1.76-5.606   c3.877-0.075,7.757-0.136,11.627-0.396c0.843-0.057,0.862-1.346,0-1.327c-3.993,0.086-7.978,0.381-11.962,0.657   c-0.375-1.207-0.761-2.41-1.136-3.617c1.785,0.032,3.558,0.047,5.344-0.018c0.513-0.019,0.514-0.778,0-0.796   c-1.872-0.068-3.732-0.054-5.605-0.019c-0.455-1.46-0.898-2.923-1.374-4.376c8.611,6.614,22.106,6.819,32.021,4.338   C188.504,125.917,188.557,125.868,188.631,125.837z M170.168,149.211c-1.256,2.724-2.047,5.691-2.226,8.673   c-0.121-0.108-0.258-0.203-0.383-0.307c-0.689-2.46-1.466-4.894-2.191-7.343c1.542,0.069,3.089-0.262,4.538-0.801   C170.038,149.384,170.116,149.301,170.168,149.211z M174.616,93.3c3.625,10.257,7.908,20.283,12.777,29.993   c-10.136,2.556-23.434,2.322-31.955-4.624c-3.536-10.768-7.09-21.533-10.351-32.396c7.316,6.986,20.15,8.45,29.495,7.04   C174.596,93.311,174.603,93.302,174.616,93.3z M173.661,90.501c-7.211,0.68-14.254,0.111-20.621-2.412   c4.166,0.392,8.392,0.411,12.517-0.205c0.647-0.096,0.49-1.158-0.154-1.136c-5.089,0.179-10.084,0.333-15.172,0.034   c-0.028-0.002-0.042,0.023-0.068,0.026c-2.147-1.102-4.209-2.436-6.144-4.09l-0.006-0.02c6.422,0.685,12.957,0.752,19.361-0.053   c0.964-0.121,1.021-1.618,0-1.555c-6.611,0.41-13.124,0.556-19.733,0.276c-0.523-1.799-1.007-3.611-1.516-5.414   c3.69,0.619,7.411,0.802,11.139,0.33c0.978-0.124,1.028-1.655,0-1.574c-3.869,0.304-7.68,0.289-11.53-0.148   c-0.42-1.507-0.867-3.005-1.265-4.519c-0.097-0.367-0.171-0.746-0.266-1.115c7.142,0.583,14.317,1.143,21.487,0.959   c1.004-0.026,0.997-1.504,0-1.555c-7.181-0.368-14.385-0.285-21.572-0.473c-0.07-0.002-0.1,0.043-0.155,0.061   c-0.325-1.301-0.608-2.617-0.904-3.929c2.261,0.07,4.529,0.11,6.788,0.061c0.891-0.019,0.892-1.365,0-1.384   c-2.354-0.051-4.72-0.016-7.078,0.064c-0.542-2.506-1.034-5.02-1.394-7.533c2.852,2.242,6.533,4.07,8.921,4.983   c6.156,2.353,12.862,1.969,18.742-0.905c0.552,3.113,1.337,6.257,2.089,9.248C168.987,75.921,171.189,83.254,173.661,90.501z    M212.883,43.388c-2.23,4.387-4.711,8.224-9.997,9.444c-4.178,0.964-8.35-0.356-11.643-2.874c-0.798-1.677-1.806-3.642-3.009-5.527   c-0.483-4.618-0.804-9.033,0.349-13.675c1.289-5.192,4.085-8.974,7.085-13.233C203.004,23.443,208.525,32.496,212.883,43.388z    M193.601,15.943c-6.599,5.589-9.693,16.235-7.964,25.032c-1.351-1.494-2.864-2.723-4.554-3.367   c-1.688-0.643-3.411-0.736-5.049-0.42c-0.293-0.252-0.697-0.376-1.215-0.206c-0.68,0.223-1.281,0.489-1.882,0.754   c-1.529-0.583-3.034-2.345-4.362-4.35c3.24,0.647,6.748,0.689,9.973,0.369c0.904-0.09,0.945-1.46,0-1.441   c-3.587,0.073-7.152-0.121-10.728-0.123c-1.17-1.937-2.161-3.934-2.812-5.25c-0.072-0.146-0.122-0.286-0.19-0.431   c6.027,0.37,12.073,0.895,18.11,0.823c0.927-0.011,0.902-1.347,0-1.422c-6.17-0.513-12.392-0.402-18.582-0.472   c-0.759-1.86-1.135-3.64-1.351-5.437c4.832,0.404,9.692,0.863,14.541,0.844c0.843-0.003,0.813-1.214,0-1.289   c-4.866-0.454-9.786-0.426-14.672-0.454c-0.116-1.418-0.096-2.887-0.033-4.4c5.482,0.223,10.899,0.882,16.38,1.228   c0.792,0.05,0.978-1.24,0.189-1.397c-5.394-1.074-10.997-1.129-16.508-0.968c0.031-0.515,0.042-1.002,0.082-1.537   c0.013-0.177-0.081-0.3-0.14-0.442C175.648,8.485,185.65,10.435,193.601,15.943z M160.361,12.281   c-2.179,5.145-0.394,11.403,2.156,16.116c1.479,2.736,4.679,8.851,8.327,10.436c-6.752,4.174-7.227,11.647-5.978,19.449   c-6.181,1.257-12.384,1.224-18.203-1.541c-1.65-0.784-3.245-1.797-4.74-2.843c-1.381-1.004-2.722-2.06-4.021-3.167   c-0.474-0.704-0.837-1.025-1.135-1.12C135.56,33.216,140.099,18.223,160.361,12.281z M84.986,35.133   c-2.167,2.752-5.068,7.054-5.499,10.783c-5.893,2.071-12.191,3.264-17.855-0.295c-1.314-0.826-2.351-1.864-3.187-3.02   c3.287,0.397,6.572,0.813,9.867,1.138c0.737,0.073,0.709-1.044,0-1.138c-3.543-0.468-7.1-0.836-10.652-1.228   c-0.868-1.582-1.357-3.349-1.558-5.172c6.575,1.264,13.279,2.138,19.968,1.997c1.005-0.021,0.995-1.502,0-1.555   c-6.756-0.359-13.4-0.816-20.061-1.902c-0.008-0.444-0.029-0.887-0.002-1.333c0.653-1.393,1.337-2.762,2.044-4.109   c3.863,0.515,7.731,0.988,11.619,1.273c0.694,0.051,0.867-1.124,0.167-1.229c-3.688-0.552-7.393-0.934-11.106-1.273   c0.978-1.791,2.021-3.518,3.113-5.189c5.884,0.855,11.999,1.67,17.942,1.656c0.768-0.002,0.983-1.221,0.187-1.378   c-5.577-1.098-11.429-1.493-17.119-1.774c1.062-1.528,2.196-2.969,3.376-4.354c4.069,0.433,8.016,1.292,11.98,2.288   c1.007,0.253,1.423-1.257,0.428-1.554c-3.669-1.096-7.464-1.66-11.276-1.967c2.719-2.973,5.725-5.579,9.177-7.552   c6.149,7.092,11.145,14.875,10.659,24.588C86.423,33.507,85.682,34.249,84.986,35.133z M90.967,29.889   c-0.461,0.225-0.689,0.565-0.755,0.929c-0.546,0.256-1.021,0.642-1.525,0.973c1.203-9.504-3.626-17.742-9.835-24.769   c4.695-2.216,10.083-3.418,16.337-3.251c11.367,0.303,19.875,4.056,25.816,10.006c-0.569,4.984-1.266,9.271-4.799,13.305   c-3.159,3.605-7.547,5.697-12.191,6.612C101.73,29.194,97.194,26.857,90.967,29.889z M103.684,52.511   c3.782,0.168,7.611,0.11,11.328-0.654c0.735-0.151,0.581-1.379-0.179-1.322c-3.599,0.269-7.166,0.634-10.773,0.728   c0.515-1.906,0.894-3.806,1.193-5.7c3.418,0.073,6.843,0.188,10.256-0.036c0.914-0.06,0.915-1.362,0-1.422   c-3.336-0.219-6.683-0.113-10.024-0.04c0.021-0.169,0.06-0.339,0.079-0.507c0.162-1.469,0.162-2.923,0.015-4.316   c6.106,0.479,12.655,0.329,18.695-0.271c1.119-0.111,1.148-1.688,0-1.764c-6.143-0.402-12.799-0.323-18.961,0.389   c-0.156-0.779-0.346-1.538-0.598-2.253c9.366-0.699,18.503-8.416,19.393-17.924c5.699,7.77,8,18.173,7.262,29.417   c-0.379,0.026-0.744,0.168-0.936,0.57c-5.107,10.657-18.522,12.232-28.896,11.567C102.345,56.825,103.058,54.668,103.684,52.511z    M92.405,80.052c2.648-6.133,5.864-12.715,8.494-19.412c6.302,2.536,13.899,1.528,19.978-1.137c2.239-0.981,6.997-3.488,9.812-6.45   c-0.023,0.144-0.031,0.285-0.055,0.43c-1.982,11.831-6.066,23.254-10.782,34.52c-9.919,2.78-21.55,5.784-31.025,0.127   C90.038,85.444,91.238,82.754,92.405,80.052z M75.474,114.064c9.796,1.123,20.208,1.464,29.806-0.978   c0.802-0.204,0.658-1.527-0.199-1.471c-9.688,0.635-19.026,1.537-28.707,0.938c0.97-1.654,1.837-3.366,2.762-5.045   c3.811,0.091,7.617,0.223,11.428,0.085c0.964-0.035,0.965-1.463,0-1.498c-3.565-0.129-7.127-0.02-10.692,0.068   c0.85-1.571,1.66-3.163,2.485-4.747c4.638,0.144,9.299,0.416,13.938,0.24c1.116-0.042,1.104-1.652,0-1.725   c-4.345-0.288-8.721-0.184-13.077-0.16c0.673-1.311,1.286-2.652,1.94-3.972c0.005,0,0.007,0.005,0.012,0.005   c1.916,0.022,3.819,0.069,5.731-0.066c0.889-0.063,0.891-1.321,0-1.384c-1.669-0.118-3.332-0.095-5.002-0.073   c0.715-1.468,1.47-2.916,2.15-4.402c6.937,6.201,21.18,5.554,30.158,1.978c-3.598,8.347-7.41,16.627-10.919,24.936   c-0.332-0.119-0.722-0.106-1.132,0.126c-4.734,2.675-9.553,3.971-14.998,4.054c-5.012,0.076-13.479-0.159-17.386-4.049   C74.36,115.981,74.905,115.015,75.474,114.064z M105.757,120.422c-1.502,3.682-2.938,7.371-4.219,11.079   c-4.956-3.114-10.472-5.775-15.986-8.172c0.71,0.071,1.406,0.133,2.078,0.196C93.922,124.108,100.218,123.42,105.757,120.422z    M27.85,139.36c1.739,0.198,3.54,0.207,5.334,0.239c-0.65,1.782-1.2,3.503-1.525,5.026c-0.161,0.753-0.249,1.472-0.337,2.189   c-6.21,1.414-12.92,0.97-18.161-2.975c-3.837-2.887-5.398-7.865-1.028-11.156c3.502-2.638,7.679-1.622,11.695-1.644   c0.439-0.002,0.684-0.261,0.824-0.569c0.907-0.389,0.647-1.711-0.35-1.79c-5.952-0.473-13.075-12.541-6.252-16.366   c5.188-2.909,9.921,1.563,14.26,3.983c0.042,0.043,0.078,0.092,0.121,0.134c0.141,0.139,0.31,0.167,0.475,0.199   c0.069,0.035,0.14,0.082,0.208,0.117c1.182,0.587,2.14-0.771,1.355-1.757c-0.523-0.657-1.154-1.3-1.849-1.916   c-1.536-2.722-2.916-5.989-2.084-8.877c1.227-4.257,6.27-5.487,9.958-4.071c6.614,2.539,8.276,10.075,9.58,16.296   c-1.332,0.812-2.599,1.833-3.831,2.94c-1.184-1.619-2.118-3.39-3.344-4.977c-0.516-0.667-1.474,0.075-1.315,0.766   c0.484,2.1,1.88,3.903,3.317,5.505c-2.284,2.295-4.385,4.952-6.198,7.795c-1.97-0.766-4.107-1.123-6.046-2.089   c-0.856-0.426-1.597,0.803-0.756,1.293c1.652,0.963,3.757,2.094,5.798,2.4c-1.495,2.525-2.774,5.116-3.795,7.59   c-2.069-0.533-4.372-0.746-6.323-0.258C26.404,137.68,26.791,139.239,27.85,139.36z M69.232,205.151   c-3.604,5.351-9.01,10.174-15.788,10.617c-4.446,0.291-8.257-1.407-11.773-3.681c2.14,0.105,4.282,0.196,6.419,0.14   c0.719-0.019,0.695-1.034,0-1.1c-2.765-0.263-5.556-0.288-8.337-0.344c-0.932-0.667-1.852-1.351-2.753-2.04   c-0.358-0.54-0.623-1.111-0.886-1.683c7.835,0.603,15.902,0.907,23.643-0.309c0.844-0.133,0.629-1.482-0.199-1.471   c-8.028,0.104-15.954,0.645-23.979,0.374c-0.525-1.641-0.698-3.393-0.648-5.206c4.043,0.384,8.084,0.817,12.141,1.006   c0.645,0.03,0.617-0.918,0-0.986c-4.028-0.444-8.079-0.645-12.124-0.895c0.095-1.359,0.356-2.761,0.683-4.177   c3.673,0.289,7.423,0.276,11.108,0.374c0.667,0.018,0.848-1.08,0.161-1.192c-3.583-0.582-7.381-0.812-11.002-0.342   c0.526-1.967,1.221-3.967,2.027-5.968c12.503,5.996,27.573,6.018,40.043-0.072C74.606,193.516,72.762,199.91,69.232,205.151z    M38.603,186.612c2.592-6.07,5.865-12.03,7.567-16.861c2.694,1.462,5.545,2.742,8.38,3.885c7.357,4.51,15.446,8.725,23.425,11.305   C64.928,190.672,52.161,191.291,38.603,186.612z M66.271,176.067c5.611,0.591,11.161,1.459,16.704,2.536   c0.783,0.152,1.125-1.027,0.333-1.207c-6.265-1.417-12.634-2.286-19.03-2.844c-0.257-0.023-0.403,0.103-0.497,0.267   c-3.779-1.933-7.444-3.968-10.938-5.929c3.469,0.219,6.938,0.426,10.414,0.55c0.677,0.024,0.661-0.99,0-1.043   c-4.217-0.335-8.44-0.552-12.665-0.765c-3.469-1.953-6.737-3.795-9.616-5.278c-0.549-0.521-1.062-1.069-1.551-1.633   c10.601,0.947,21.321,1.469,31.926,0.567c1.018-0.086,1.053-1.613,0-1.612c-11.135,0.009-22.168,0.114-33.271-0.705   c-1.379-2.009-2.307-4.342-2.733-7.032c5.251,0.521,10.507,1.095,15.775,1.375c0.792,0.042,0.758-1.129,0-1.214   c-5.298-0.589-10.633-0.881-15.956-1.229c-0.117-1.201-0.149-2.462-0.037-3.827c0.099-1.206,0.354-2.522,0.704-3.886   c6.666,0.425,13.331,0.953,20.01,1.049c0.798,0.012,0.786-1.185,0-1.233c-6.609-0.4-13.237-0.377-19.858-0.45   c0.651-2.327,1.649-4.81,2.897-7.28c7.888,0.744,15.777,1.27,23.704,1.33c0.989,0.007,0.989-1.52,0-1.536   c-7.734-0.128-15.463-0.341-23.184-0.803c1.362-2.543,3.02-5.018,4.859-7.294c0.081,0.17,0.213,0.314,0.459,0.327   c6.053,0.341,12.145,0.859,18.203,0.442c0.876-0.061,0.855-1.256,0-1.346c-5.961-0.632-11.988-0.358-17.973-0.238   c1.673-1.965,3.498-3.733,5.425-5.179c3.62,0.142,7.238,0.3,10.861,0.337c1.238,0.013,1.227-1.857,0-1.915   c-2.687-0.127-5.377-0.16-8.067-0.211c2.506-1.378,5.132-2.184,7.804-2.096c20.982,9.334,63.032,17.076,52.989,49.778   C106.516,191.083,85.618,185.581,66.271,176.067z M141.741,162.839c-1.846,2.674-4.923,3.561-8.009,3.604   c-0.405-0.028-0.807-0.028-1.218-0.005c-0.154-0.009-0.311,0.011-0.464-0.002c-0.128-0.011-0.203,0.073-0.307,0.11   c-0.466,0.064-0.929,0.06-1.397,0.196c-0.956,0.278-1.264,1.748-0.292,2.235c2.252,1.13,4.865,0.858,7.135,2.055   c2.484,1.309,3.943,4.001,3.879,6.792c-0.069,3.038-2.017,5.544-4.87,6.554c-2.135,0.756-3.961,0.196-6.037,0.035   c-0.473-0.32-0.964-0.616-1.493-0.852c-1.08-0.483-2.788,0.643-1.868,1.868c2.269,3.019,4.764,5.519,5.185,9.501   c0.755,7.141-5.201,10.365-11.401,7.498c-8.548-3.952-11.274-12.069-11.349-20.839c-0.003-0.247-0.106-0.422-0.248-0.549   c1.141-1.062,2.234-2.265,3.275-3.614c0.026,0.01,0.032,0.038,0.061,0.044c2.152,0.455,3.265,1.832,4.659,3.365   c0.45,0.495,1.257-0.026,1.093-0.637c-0.613-2.285-2.856-3.454-5.068-3.812c0.865-1.22,1.698-2.527,2.469-4.004   c0.342-0.656,0.562-1.269,0.859-1.91c1.684,0.987,3.449,1.807,5.4,2.083c0.863,0.122,1.198-0.999,0.363-1.316   c-1.75-0.666-3.487-1.269-5.151-2.126c0.778-1.844,1.318-3.605,1.751-5.329c2.006,0.865,4.036,1.463,6.253,1.417   c0.799-0.017,1.047-1.3,0.196-1.452c-2.081-0.372-4.102-0.777-6.074-1.535c0.505-2.577,0.653-5.026,0.408-7.327   c0.288,0.032,0.591,0.018,0.907-0.117c5.413-2.322,12.083-5.947,17.974-2.916C142.57,154.02,144.674,158.589,141.741,162.839z    M145.641,154.55c-4.664-10.873-18.767-7.035-26.691-2.747c-1.967-7.877-8.038-14.132-15.77-19.277   c11.69-23.142,24.366-49.467,29.875-74.701c0.267-1.221,0.499-2.454,0.714-3.691c1.218,7.014,3.232,13.938,4.922,20.239   c7.344,27.368,14.958,55.645,26.574,81.594c-6.58-3.77-16.066-3.326-19.021,4.613C146.685,158.79,146.595,156.774,145.641,154.55z    M182.173,200.292c-0.72,1.238-1.603,2.565-2.654,3.541l-3.474,2.297c-1.732-1.362-3.464-2.725-5.195-4.087   c-2.033-2.9-1.007-9.129-0.523-12.371c0.027-0.184-0.031-0.357-0.109-0.514c0.067-0.083,0.145-0.162,0.209-0.246   c0.848-1.101-0.789-2.61-1.881-1.881c-4.793,3.2-13.987,10.499-17.311,1.407c-2.264-6.195,2.676-10.263,7.353-13.346   c1.413-0.064,2.798-0.407,4.063-1.136c1.398-0.806,0.471-3.065-1.103-2.617c-6.584,1.874-17.102-5.448-10.46-12.132   c5.012-5.043,11.289-1.407,16.741,0.583c0.033,1.29,0.171,2.569,0.438,3.815c0.072,0.337,0.179,0.661,0.266,0.994   c-1.325-0.158-2.63-0.364-3.952-0.82c-0.792-0.273-1.355,1.018-0.577,1.369c1.608,0.726,3.39,1.385,5.187,1.592   c0.844,2.348,2.062,4.523,3.524,6.503c-0.361,0.424-0.719,0.84-1.057,1.281c-1.347,0.947-2.458,2.232-3.618,3.393   c-0.594,0.595,0.288,1.445,0.912,0.912c1.246-1.066,2.688-2.086,3.704-3.377c0.051-0.066,0.047-0.147,0.073-0.221   c0.31-0.273,0.609-0.551,0.909-0.835c1.498,1.803,3.193,3.434,5.107,4.76c-0.018,0.054-0.064,0.089-0.068,0.151   c-0.14,2.352-0.197,4.59-0.946,6.85c-0.289,0.871,1.03,1.196,1.353,0.373c0.82-2.091,1.285-4.293,0.979-6.507   c1.013,0.612,2.054,1.173,3.143,1.63C185.053,187.762,185.499,194.574,182.173,200.292z M219.039,197.658   c3.639,7.613,8.101,14.831,10.786,22.816c-0.136,0.166-0.266,0.347-0.29,0.629c-0.74,8.623-4.157,15.636-12.821,18.802   c-5.275,1.927-9.563-0.279-12.942-3.801c2.478,0.349,4.966,0.593,7.474,0.482c0.818-0.036,0.817-1.227,0-1.27   c-2.916-0.154-5.823-0.283-8.724-0.621c-0.999-1.212-1.896-2.516-2.716-3.831c7.633-0.252,15.263-0.264,22.9-0.241   c0.918,0.003,0.913-1.388,0-1.422c-7.868-0.295-15.736-0.128-23.598,0.255c-0.038,0.002-0.051,0.035-0.086,0.041   c-0.407-0.703-0.846-1.417-1.201-2.093c-0.605-1.154-1.18-2.324-1.766-3.489c0.009,0.001,0.012,0.009,0.022,0.01   c4.746,0.191,9.425,0.138,14.158-0.271c0.646-0.056,0.666-1.052,0-1.024c-4.714,0.202-9.44,0.373-14.158,0.403   c-0.186,0.001-0.288,0.101-0.355,0.224c-0.864-1.728-1.707-3.468-2.554-5.206c8.734-0.333,17.464-0.872,26.166-1.668   c0.86-0.078,0.89-1.401,0-1.365c-8.932,0.359-17.859,0.982-26.759,1.823c-0.889-1.825-1.789-3.643-2.693-5.46   c4.536,0.191,9.075-0.132,13.446-1.435c0.8-0.239,0.467-1.412-0.343-1.243c-4.541,0.947-9.025,1.598-13.65,1.568   c-1.154-2.302-2.351-4.578-3.581-6.836c8.245,0.164,16.485-0.144,24.661-1.243c0.769-0.103,0.59-1.408-0.185-1.359   c-8.317,0.52-16.617,1.165-24.941,1.576c-0.027,0.001-0.035,0.023-0.059,0.028c-0.019-0.034-0.035-0.07-0.055-0.104   c0.533-0.982,0.911-2.062,1.27-3.15c2.991-0.177,5.974-0.359,8.958-0.631c0.862-0.079,0.886-1.416,0-1.365   c-2.852,0.165-5.691,0.416-8.535,0.67c0.32-1.217,0.587-2.461,0.736-3.735c9.457,3.752,20.068,3.061,29.135-1.611   C217.508,194.225,218.228,195.96,219.039,197.658z M215.637,190.046c-9.081,4.377-18.267,4.995-27.872,2.517   c0.213-3.327-0.106-6.697-0.819-9.677c3.017,0.696,6.206,0.777,9.424,0.1c5.433-1.143,9.902-4.082,13.111-8.004   C211.394,180.063,213.468,185.074,215.637,190.046z M232.077,144.919c-2.082,2.14-4.527,3.14-7.078,4.538   c-1.573,0.862-0.456,3.097,1.169,2.773c0.895-0.179,1.827-0.501,2.755-0.899c4.923,1.521,4.209,8.695-1.236,10.736   c-4.028,1.509-8.369,0.207-12.47-0.292c-0.175-0.021-0.295,0.081-0.441,0.132c0.136-1.742,0.013-3.521-0.239-5.308   c2.2,0.382,4.369-0.022,6.145-1.52c0.746-0.629-0.204-1.707-0.999-1.296c-1.747,0.904-3.507,1.383-5.443,1.088   c-0.07-0.324-0.082-0.647-0.167-0.972c-0.589-2.242-1.509-4.288-2.644-6.162c0.015-0.005,0.025,0.008,0.04,0.002   c1.995-0.774,4.471-2.369,4.913-4.623c0.149-0.761-0.747-1.383-1.347-0.784c-1.46,1.456-2.251,2.99-4.143,4.038   c-0.09,0.05-0.11,0.14-0.163,0.213c-1.428-2.077-3.194-3.85-5.159-5.359c0.321-1.567,0.987-2.999,1.281-4.546   c0.128-0.668-0.704-1.315-1.236-0.719c-1.019,1.14-1.375,2.722-1.429,4.258c-1.042-0.692-2.12-1.328-3.256-1.858   c-1.72-1.901-1.68-5.617-1.439-7.949c0.338-3.265,1.736-6.364,4.827-7.831c3.359-1.594,6.771-0.277,8.01,3.306   c1.036,2.999-0.053,5.908,0.04,8.938c0.035,1.114,1.78,1.817,2.297,0.622c0.108-0.251,0.186-0.52,0.277-0.781   c3.647-6.412,13.269-5.243,17.227,0.25C234.425,138.041,234.934,141.982,232.077,144.919z"></path></g><g></g><g></g><g></g><g></g><g></g><g></g><g></g><g></g><g></g><g></g><g></g><g></g><g></g><g></g><g></g></svg>