<svg xmlns="http://www.w3.org/2000/svg" xmlns:xlink="http://www.w3.org/1999/xlink" fill="currentColor" version="1.1" id="Capa_1" viewBox="0 0 263.849 263.849" xml:space="preserve"><g><path d="M224.408,145.787c-2.187-1.653-5.173-2.644-8.025-2.561c9.752-7.997,5.282-23.793-8.591-26.34   c-21.869-4.016-38.881,16.834-45.569,34.996c-4.122-9.712-8.426-19.309-12.883-28.744c12.464-9.702,17.782-26.404,14.673-45.231   c-2.285-13.834-8.757-29.13-21.086-36.872c-7.92-4.973-16.62-5.722-25.352-4.666c-0.104-0.094-0.237-0.163-0.409-0.165   c-6.618-0.076-12.959,1.592-18.712,4.5c-0.197,0.057-0.397,0.113-0.594,0.17c-0.407,0.118-0.669,0.353-0.857,0.627   C81.446,50.1,70.66,67.983,71.829,85.914c0.713,10.933,5.19,20.79,11.994,28.58c-0.134,0.001-0.267-0.004-0.4-0.002   c-0.662,0.007-0.663,1.021,0,1.029c0.475,0.006,0.949,0.049,1.424,0.059c3.49,3.766,7.483,7.061,11.939,9.635   c-2.717,7.304-5.298,14.699-7.878,22.094c-8.694-11.548-24.701-23.468-38.68-19.54c-11.196,3.146-11.952,16.422-4.234,22.16   c-6.192,0.616-11.842,4.542-11.945,11.601c-0.116,7.921,7.948,11.5,15.265,11.756c-1.135,1.02-2.174,2.188-3.057,3.436   c-0.037,0-0.073,0.001-0.11,0.001c-0.548,0.006-0.697,0.553-0.514,0.93c-2.865,4.623-3.347,10.161,2.221,13.95   c7.046,4.794,19.152,3.763,26.715-0.876c-5.486,17.457-10.72,34.979-15.708,52.433c-0.063,0.219-0.059,0.413-0.051,0.605   c-0.002-0.001-0.003-0.001-0.005-0.002c-0.954-0.387-1.476,1.092-0.676,1.603c39.436,25.143,94.763,23.639,135.121,1.532   c1.073-0.588,1.14-1.641,0.673-2.427c-0.009-0.125,0.011-0.238-0.024-0.374c-4.688-18.22-10.396-36.414-16.857-54.377   c8.424,5.265,19.65,7.82,27.273,0.285c4.218-4.17,5.059-10.308,2.656-14.819c9.21,1.632,19.653-4.164,22.268-13.59   C230.787,156.009,229.139,149.363,224.408,145.787z M90.28,115.806c4.952,0.245,9.898,0.601,14.832,1.128   c0.634,0.068,0.79-1.033,0.152-1.123c-5.45-0.774-10.896-1.171-16.375-1.289c-2.744-2.7-5.107-5.76-7.108-9.041   c4.387,0.481,8.769,0.966,13.169,1.313c0.843,0.066,0.81-1.199,0-1.296c-4.661-0.562-9.331-0.977-14.007-1.396   c-1.539-2.738-2.788-5.638-3.721-8.652c9.064,0.161,18.151,0.402,27.211,0.16c1.043-0.028,1.043-1.588,0-1.62   c-9.192-0.289-18.415-0.082-27.613,0.035c-1.157-4.252-1.687-8.712-1.412-13.286c0.01-0.162,0.035-0.314,0.046-0.474   c4.792,0.622,9.927,0.438,14.746,0.242c0.956-0.039,0.958-1.448,0-1.487c-4.784-0.195-9.883-0.374-14.648,0.233   c0.75-8.089,3.617-14.885,7.828-20.613c5.43-0.549,10.851-0.578,16.307-0.561c0.862,0.003,0.827-1.233,0-1.316   c-5.112-0.508-10.204-0.21-15.285,0.407c2.383-2.972,5.16-5.62,8.225-7.971c4.164-0.135,8.33-0.255,12.483-0.567   c0.918-0.069,0.943-1.464,0-1.449c-3.4,0.053-6.797,0.238-10.193,0.436c2.491-1.72,5.094-3.315,7.864-4.683   c9.937-2.66,20.665-5.023,30.662-1.925c15.241,4.724,23.083,20.428,26.113,34.782c6.671,31.6-14.263,57.406-47.025,51.286   c-2.387-0.446-4.707-1.12-6.966-1.943c3.461,0.216,6.923,0.428,10.389,0.515c0.606,0.015,0.594-0.893,0-0.934   c-4.256-0.296-8.524-0.406-12.788-0.549C98.428,122.122,94.081,119.258,90.28,115.806z M55.171,190.585   c-2.26-0.45-4.536-1.515-6.111-3.11c3.309,0.29,6.612,0.389,9.964,0.133c0.945-0.072,0.967-1.456,0-1.487   c-3.785-0.12-7.569-0.309-11.341-0.64c-0.633-1.312-0.88-2.824-0.439-4.562c0.267-1.05,0.736-1.993,1.277-2.895   c3.727,0.046,7.454,0.096,11.18-0.016c0.834-0.025,0.835-1.271,0-1.296c-3.44-0.104-6.882-0.068-10.322-0.026   c0.976-1.282,2.149-2.437,3.345-3.53c0.907-0.104,1.786-0.25,2.596-0.464c1.452-0.383,1.106-2.512-0.347-2.565   c-5.82-0.211-17.32-0.111-17.65-8.318c7.894,0.606,15.825,1.15,23.737,1.365c1.006,0.028,0.976-1.459,0-1.544   c-7.847-0.682-15.748-1.045-23.621-1.339c0.194-1.583,0.787-2.895,1.626-3.998c3.717,0.038,7.43,0.081,11.148,0.017   c0.822-0.014,0.823-1.263,0-1.277c-3.343-0.057-6.684-0.017-10.026,0.015c2.419-2.153,6.046-3.12,9.466-3.21   c0.707,0.234,1.446,0.428,2.235,0.556c1.931,0.313,2.795-2.444,0.826-2.996c-3.732-1.67-6.215-3.433-7.455-5.288   c3.91,0.067,7.821,0.145,11.731,0.076c0.92-0.016,0.921-1.413,0-1.43c-4.121-0.073-8.242,0.017-12.363,0.086   c-0.623-1.74-0.158-3.561,1.311-5.456c4.137,0.036,8.268,0.051,12.407-0.073c0.797-0.024,0.798-1.215,0-1.239   c-3.718-0.111-7.43-0.107-11.145-0.081c1.77-1.73,4.328-3.518,7.78-5.372c2.874,0.108,5.654,0.646,8.341,1.614   c3.641,1.17,7.28,2.998,10.511,5.025c5.499,3.45,10.017,7.798,14.149,12.643c-4.157,12.002-8.106,24.111-11.959,36.249   c-0.048,0.016-0.096,0.015-0.144,0.036C69.061,189.227,62.873,192.118,55.171,190.585z M190.104,244.192   c-43.521,19.659-84.731,17.771-128.321,0.716c0.228-0.199,0.43-0.443,0.551-0.792c0.264-0.767,0.521-1.543,0.784-2.31   c7.486,0.281,14.888,0.111,22.338-0.812c0.745-0.092,0.789-1.246,0-1.201c-7.273,0.416-14.563,0.662-21.849,0.573   c1.071-3.124,2.118-6.275,3.18-9.41c4.046,0.179,8.047-0.111,12.041-0.865c0.615-0.116,0.484-1.169-0.149-1.105   c-3.8,0.385-7.6,0.528-11.411,0.55c1.311-3.879,2.598-7.778,3.891-11.671c12.018,0.024,24.058-0.284,35.998-1.688   c0.914-0.107,0.961-1.527,0-1.468c-11.861,0.735-23.684,1.563-35.56,1.84c1.415-4.268,2.757-8.571,4.147-12.853   c4.144-0.108,8.292-0.191,12.426-0.494c0.895-0.065,0.918-1.43,0-1.41c-4.013,0.087-8.019,0.382-12.024,0.66   c1.065-3.289,2.088-6.594,3.139-9.889c14.028-0.682,28.062-0.843,42.094-1.363c1.101-0.041,1.108-1.696,0-1.716   c-13.881-0.245-27.768,0.575-41.613,1.565c1.457-4.577,2.881-9.163,4.305-13.749c0.012,0,0.016,0.012,0.028,0.011   c4.97-0.169,9.946-0.278,14.908-0.615c0.981-0.066,1.002-1.575,0-1.544c-4.848,0.152-9.687,0.52-14.526,0.837   c1.608-5.194,3.141-10.406,4.682-15.616c7.128-0.282,14.268-0.494,21.379-1.029c1.015-0.076,1.041-1.634,0-1.601   c-6.991,0.219-13.976,0.749-20.956,1.219c0.523-1.779,1.087-3.548,1.598-5.329c0.644,0.402,1.566-0.421,1.143-1.168   c-0.019-0.034-0.043-0.07-0.063-0.104c4.283,0.089,8.569,0.196,12.848,0.043c1.03-0.037,1.032-1.564,0-1.601   c-4.383-0.156-8.774-0.04-13.16,0.049c0.937-3.297,1.859-6.596,2.776-9.895c6.49,0.336,12.974,0.362,19.412-0.628   c0.835-0.129,0.627-1.481-0.198-1.46c-6.247,0.152-12.467,0.455-18.712,0.297c1.189-4.306,2.355-8.612,3.475-12.92   c7.485,3.909,15.961,6.029,24.747,5.693c9.421-0.361,17.35-2.924,23.675-7.139c4.295,11.177,8.46,22.377,12.566,33.589   c-0.001,0.071,0.02,0.087,0.056,0.154C170.162,186.984,180.102,215.532,190.104,244.192z M224.287,163.764   c-4.786,8.167-15.029,9.779-22.979,5.666c-0.613-0.317-1.277-0.128-1.745,0.267c-1.232-0.261-1.712,1.51-0.509,1.909   c0.141,0.047,0.244,0.11,0.381,0.16c0.016,0.014,0.02,0.031,0.037,0.044c1.238,1.009,2.577,1.796,3.977,2.38   c5.602,5.648-1.856,15.695-9.659,16.582c-4.995,0.568-9.288-1.076-13.38-3.332c2.694,0.062,5.39,0.106,8.068-0.057   c0.686-0.042,0.687-1.026,0-1.067c-3.338-0.203-6.704-0.091-10.057-0.016c-1.134-0.679-2.261-1.379-3.386-2.082   c-0.5-1.355-1.037-2.696-1.545-4.048c3.038,0.056,6.064-0.092,9.097-0.563c0.726-0.113,0.563-1.359-0.175-1.292   c-3.156,0.288-6.309,0.417-9.467,0.43c-1.255-3.318-2.544-6.623-3.839-9.924c7.191-0.052,14.602-0.157,21.605-1.521   c0.782-0.152,0.602-1.412-0.187-1.385c-7.311,0.246-14.598,1.21-21.92,1.607c-1.139-2.887-2.327-5.749-3.501-8.618   c4.514-0.158,9.129-0.935,13.367-1.987c0.789-0.196,0.441-1.32-0.329-1.195c-4.527,0.734-9.071,1.225-13.609,1.776   c-0.491-1.19-0.955-2.395-1.455-3.581c0.363,0.012,0.716-0.086,0.898-0.485c0.304-0.667,0.626-1.321,0.94-1.98   c6.798,0.088,13.64-0.119,20.362-1.2c0.777-0.125,0.604-1.468-0.188-1.385c-6.559,0.682-13.064,1.352-19.659,1.5   c1.668-3.418,3.496-6.713,5.572-9.818c4.53-0.511,9.139-0.887,13.584-1.835c0.686-0.146,0.544-1.284-0.167-1.236   c-4.182,0.284-8.362,1.072-12.513,1.783c2.433-3.447,5.223-6.619,8.501-9.418c5.03-0.498,10.071-0.953,15.06-1.758   c0.79-0.128,0.612-1.463-0.19-1.404c-4.269,0.314-8.515,0.891-12.759,1.472c0.192-0.145,0.363-0.306,0.559-0.448   c5.398-3.919,11.647-7.034,18.463-7.388c3.641-0.285,7.164,0.369,10.569,1.962c7.961,9.405,7.469,16.365-1.475,20.877   c-0.971,0.558-0.835,1.906-0.154,2.542c-0.312,0.596,0.257,1.275,0.937,1.166c4.294-0.694,8.221-1.211,11.652,2.269   C226.9,153.019,226.923,159.267,224.287,163.764z"></path><path d="M154.623,4.78c-5.067-2.083-13.184-6.459-18.94-4.101c-2.113,0.866-3.355,2.306-3.67,4.013   c-5.513,9.244,13.437,20.491,19.868,23.941c7.706,4.134,27.021,11.364,27.846-3.491C184.804,18.441,157.104,5.8,154.623,4.78z    M135.368,2.943c0.091-0.113,0.094-0.227,0.118-0.341c3.585-1.462,10.613,1.293,12.342,1.928c3.877,1.425,7.695,3.07,11.426,4.839   c2.864,1.357,22.001,10.654,17.592,15.497c-0.489,0.537-0.253,1.226,0.225,1.557C169.566,43.188,126.473,13.94,135.368,2.943z"></path><path d="M169.174,21.35c-4.74,2.141-11.986-1.438-15.957-3.826c-4.329-2.602-7.883-6.151-10.75-10.287   c-0.545-0.786-1.797-0.089-1.3,0.76c3.57,6.106,8.697,10.926,15.172,13.87c3.817,1.735,10.995,4.888,14.153,0.799   C171.151,21.813,169.93,21.009,169.174,21.35z"></path><path d="M99.687,68.966c-6.981-0.684-14.001-0.934-21.005-1.309c-0.679-0.036-0.665,0.993,0,1.048   c6.995,0.586,13.99,1.3,21.005,1.576C100.546,70.315,100.515,69.048,99.687,68.966z"></path></g><g></g><g></g><g></g><g></g><g></g><g></g><g></g><g></g><g></g><g></g><g></g><g></g><g></g><g></g><g></g></svg>