<svg xmlns="http://www.w3.org/2000/svg" xmlns:xlink="http://www.w3.org/1999/xlink" fill="currentColor" version="1.1" id="Capa_1" viewBox="0 0 267.128 267.128" xml:space="preserve"><g><path d="M223.994,212.404c-20.235-14.217-26.608-40.413-32.788-63.031c-5.811-21.264-10.083-42.918-15.975-64.161   c-5.442-19.62-14.198-43.854-32.527-53.471c0.034-0.14,0.099-0.256,0.108-0.413c0.5-8.469,0.485-18.15-5.728-24.722   c-5.515-5.834-14.192-7.701-21.887-6.006c-15.043,3.312-27.927,22.571-18.43,36.875c-3.494,2.75-6.61,5.998-9.419,9.543   c-0.335-0.045-0.668-0.065-1.003-0.115c-1.086-0.162-1.582,1.468-0.464,1.682c0.083,0.016,0.168,0.027,0.252,0.042   c-6.534,8.791-11.094,19.359-13.476,29.946c-4.238,18.838-3.141,38.196-3.582,57.356c-0.152,6.588-0.509,14.48-1.404,22.728   c-0.345,0.009-0.691,0.014-1.035,0.023c-1.012,0.027-1.014,1.549,0,1.574c0.285,0.007,0.571,0.024,0.857,0.032   c-2.431,20.783-8.508,43.494-24.13,53.629c-0.646,0.419-0.861,1.031-0.827,1.625c-0.529,0.508-0.707,1.355-0.021,2.062   c32.248,33.229,76.521,37.95,118.191,27.413c-0.965,13.019,13.742,26.232,26.345,20.899c12.997-5.499,16.767-22.711,7.611-33.008   c10.048-4.637,19.664-10.022,28.579-15.966C224.953,216.535,225.937,213.77,223.994,212.404z M98.126,23.938   c2.741,0.097,5.483,0.182,8.217-0.075c0.743-0.07,0.745-1.087,0-1.157c-2.67-0.251-5.348-0.174-8.025-0.081   c0.314-1.77,0.847-3.539,1.7-5.321c6.638-0.199,13.463-0.294,19.975-1.444c0.831-0.147,0.585-1.382-0.192-1.415   c-6.213-0.268-12.59,0.449-18.824,1.097c1.13-1.879,2.607-3.503,4.218-4.981c3.08-0.146,6.166-0.274,9.225-0.671   c0.913-0.118,0.983-1.474,0-1.479c-2.37-0.012-4.735,0.144-7.1,0.322c2.349-1.689,4.989-2.975,7.797-3.694   c7.511-1.923,16.648,0.163,20.745,7.282c2.996,5.205,2.723,11.629,2.493,17.501c-3.547-1.302-7.38-2.147-11.609-2.305   c-0.17-5.214-5.057-10.029-10.537-8.506c-4.552,1.266-6.903,6.52-5.405,10.782c-4.364,1.471-8.366,3.613-12.041,6.226   c-0.255-1.764-0.494-3.496-0.657-5.212c2.178,0.122,4.416-0.012,6.4-0.796c0.595-0.235,0.599-1.303-0.166-1.229   c-2.161,0.208-4.222,0.548-6.342,0.623C97.879,27.57,97.913,25.753,98.126,23.938z M123.295,27.452   c-3.572,0.153-6.965,0.708-10.188,1.6c-0.481-2.545,0.87-5.543,3.286-6.582C119.686,21.054,123.229,24.119,123.295,27.452z    M185.241,261.632c-6.757,2.884-11.504,0.31-14.996-4.143c3.599,0.12,7.208,0.163,10.804,0.016c0.878-0.036,0.879-1.33,0-1.365   c-3.914-0.16-7.845-0.108-11.761,0.039c-1.034-1.517-1.927-3.2-2.747-4.916c5.395,1.051,11.772,0.701,17.199,0.374   c1.121-0.067,1.123-1.677,0-1.744c-5.569-0.335-12.145-0.717-17.619,0.433c-0.018,0.004-0.01,0.029-0.026,0.035   c-0.941-2.069-1.75-4.172-2.462-6.12c0.91-0.246,1.811-0.531,2.717-0.791c5.797,0.092,11.593,0.237,17.39,0.092   c1.098-0.027,1.1-1.679,0-1.707c-4.016-0.1-8.033-0.056-12.049,0.008c6.317-2.016,12.547-4.343,18.626-6.981   C197.361,243.602,196.72,256.733,185.241,261.632z M72.073,233.375c4.246,0.05,8.488,0.092,12.734-0.09   c0.89-0.038,0.892-1.346,0-1.384c-5.268-0.226-10.531-0.117-15.801-0.06c-3.981-2.036-7.909-4.322-11.772-6.877   c4.251,0.278,8.515,0.568,12.761,0.493c1.046-0.019,0.999-1.487,0-1.593c-5.076-0.539-10.224-0.562-15.332-0.704   c-2.933-2.047-5.839-4.204-8.687-6.582c1.264-0.786,2.463-1.653,3.613-2.579c13.25,0.949,26.694,1.361,39.938,0.151   c1.193-0.109,1.24-1.919,0-1.896c-12.67,0.232-25.235,0.485-37.888-0.102c3.245-3.015,5.991-6.604,8.348-10.551   c5.358,0.099,10.712,0.189,16.072,0.119c0.976-0.013,0.977-1.504,0-1.517c-5.116-0.067-10.226,0.014-15.339,0.108   c2.565-4.546,4.574-9.566,6.23-14.757c4.476,0.305,8.935,0.28,13.377-0.478c0.847-0.145,0.658-1.574-0.204-1.508   c-4.244,0.32-8.465,0.546-12.711,0.473c1.046-3.464,1.889-6.994,2.627-10.527c2.018,0.078,4.047,0.143,6.02-0.071   c0.961-0.104,0.963-1.394,0-1.498c-1.873-0.203-3.798-0.153-5.716-0.08c0.758-3.853,1.35-7.677,1.835-11.402   c5.554,0.223,11.108,0.491,16.662,0.489c1.219,0,1.166-1.739,0-1.858c-5.447-0.557-10.938-0.62-16.418-0.538   c0.41-3.407,0.712-6.687,0.935-9.795c1.891,0.102,3.807,0.177,5.623-0.136c0.824-0.142,0.824-1.522,0-1.664   c-1.773-0.306-3.641-0.24-5.489-0.143c0.223-3.687,0.337-7.785,0.421-12.15c3.631,0.122,7.273,0.261,10.896,0.091   c1.414-0.066,1.417-2.133,0-2.2c-3.611-0.17-7.24-0.032-10.859,0.09c0.082-4.757,0.142-9.816,0.271-15.034   c2.502,0.186,4.985,0.053,7.469-0.515c0.978-0.224,0.548-1.64-0.409-1.481c-2.341,0.389-4.671,0.545-7.02,0.542   c0.089-3.252,0.21-6.561,0.382-9.893c3.824,0.17,7.756,0.481,11.512,0.053c1.192-0.136,1.195-1.722,0-1.858   c-3.725-0.425-7.62-0.122-11.415,0.049c0.212-3.719,0.512-7.456,0.894-11.172c2.649-0.053,5.448-0.578,7.657-1.813   c0.831-0.464,0.245-1.645-0.621-1.473c-2.326,0.463-4.547,0.945-6.833,1.296c0.253-2.24,0.561-4.46,0.898-6.666   c6.495-0.13,13.074-0.399,19.509-1.199c1.327-0.165,1.42-2.143,0-2.143c-6.367,0.002-12.81,0.542-19.158,1.201   c0.806-4.8,1.843-9.474,3.175-13.919c2.858,0.332,5.723,0.436,8.605,0.15c1.061-0.105,1.101-1.745,0-1.688   c-2.707,0.141-5.395,0.112-8.085-0.059c0.832-2.594,1.784-5.09,2.845-7.491c5.569-0.274,11.049-0.021,16.651,0.35   c0.953,0.063,1.171-1.483,0.227-1.676c-5.275-1.079-10.698-1.085-16.043-0.485c1.469-3.064,3.199-5.889,5.132-8.515   c5.095,0.793,10.283,1.19,15.404,0.63c1.279-0.14,1.35-2.049,0-2.048c-4.731,0.004-9.376,0.025-14.046-0.363   c6.854-8.404,16.54-13.978,30.382-14.765c48.113-2.736,53.893,73.435,62.456,107.333c6.524,25.828,13.058,56.765,34.787,74.268   C173.428,242.957,119.163,255.748,72.073,233.375z"></path></g><g></g><g></g><g></g><g></g><g></g><g></g><g></g><g></g><g></g><g></g><g></g><g></g><g></g><g></g><g></g></svg>