<svg xmlns="http://www.w3.org/2000/svg" xmlns:xlink="http://www.w3.org/1999/xlink" fill="currentColor" version="1.1" id="Capa_1" viewBox="0 0 269.143 269.143" xml:space="preserve"><g><path d="M268.86,197.759c0.763-0.861-0.125-2.615-1.402-2.172c-17.769,6.158-34.764,3.962-48.893-9.088   c-0.958-0.885-2.777-0.606-3.078,0.813c-4.085,19.282-23.681,21.447-36.126,8.251c-0.154-0.163-0.326-0.259-0.504-0.323   c-0.072-0.588-0.893-0.987-1.425-0.509c-3.269,2.936-6.378,6.022-9.605,8.844c4.752-30.682,6.54-62.06,8.823-92.987   c0.01-0.135-0.03-0.237-0.046-0.355c0.495-0.135,0.991-0.294,1.486-0.513c10.101-4.455,7.466-27.167,3.28-34.581   c-9.377-16.61-35.259-19.682-54.723-21.039c0.133-2.406,0.377-4.759,0.668-7.096c7.207,2.388,14.937-1.495,17.609-8.636   c3.775-10.086-6.784-19.423-9.373-28.582c-0.078-0.276-0.201-0.502-0.353-0.682c0.137-0.088,0.261-0.192,0.399-0.278   c0.993-0.623,0.13-2.023-0.904-1.547c-12.924,5.945-27.28,29.938-9.829,38.666c-0.172,2.708-0.248,5.407-0.135,8.02   c-2.754-0.182-5.361-0.336-7.744-0.498c-18.02-1.223-45.677-3.175-49.535,19.741c-0.008,0.051-0.035,0.091-0.033,0.143   c-0.02,0.12-0.059,0.219-0.078,0.341c-0.108,0.717,0.26,1.261,0.756,1.545c-0.583,5.243,1.177,10.511,6.435,13.211   c0.375,0.193,0.745,0.34,1.114,0.487c0.378,29.964,0.636,60.102,2.277,90.088c-0.105-0.013-0.21-0.02-0.315-0.034   c-0.759-0.1-0.948,1.238-0.182,1.348c0.193,0.028,0.387,0.05,0.58,0.077c0.456,8.123,0.993,16.238,1.689,24.331   c-4.105,1.561-8.578,1.737-13.059-0.55c-7.181-3.665-10.467-11.469-10.533-19.165c0.178-0.17,0.365-0.322,0.542-0.495   c0.923-0.901,0.2-2.026-0.769-2.188c-0.523-0.647-1.812-0.64-2.003,0.356c-0.04,0.207-0.036,0.419-0.07,0.627   c-15.787,11.913-33.77,14.717-51.817,5.262c-1.302-0.682-2.671,0.973-1.594,2.067c0.065,0.066,0.137,0.128,0.202,0.194   c-0.157,0.185-0.228,0.438-0.065,0.666c6.073,8.485,12.185,15.797,15.539,25.9c3.398,10.239,2.575,19.669,2.768,30.131   c0.019,1.031,0.951,1.417,1.729,1.19c0.327,0.196,0.734,0.274,1.167,0.087c14.914-6.458,35.661-9.094,44.54,7.769   c0.287,0.545,0.785,0.759,1.294,0.76c0.304,0.818,1.482,1.218,2.038,0.233c4.046-7.165,17.268-10.754,24.697-12.685   c7.926-2.061,15.942-2.659,24.066-2.275c5.656,2.631,12.572,3.205,18.028,1.494c3.932-1.233,7.186-3.536,9.555-6.465   c16.048,3.208,28.91,10.998,39.179,23.774c0.722,0.898,2.282,0.558,2.794-0.36c11.669-20.907,34.709-25.051,53.975-11.926   c0.249,0.826,1.236,0.949,1.725,0.351c0.944-0.425,1.554-1.78,0.585-2.565c-0.017-0.014-0.035-0.025-0.052-0.039   c1.276-9.932,7.359-16.997,12.55-25.322c3.925-6.293,5.508-16.499,11.689-20.828c0.945-0.662,0.849-1.809,0.284-2.492   C268.779,198.096,268.849,197.932,268.86,197.759z M177.454,197.586c4.247,6.692,10.974,10.998,19.201,10.935   c10.08-0.077,12.716-6.287,19.476-11.581c2.885-2.259,0.212-4.401,3.853-4.161c3.143,0.207,11.819,6.938,15.802,8.105   c7.726,2.264,15.369,2.403,22.8,0.65c-33.926,19.677-68.446,27.3-108.318,24.096c0.001-1.299-0.139-2.612-0.415-3.922   c2.349,0.069,4.702,0.137,7.044,0.031c0.846-0.038,0.847-1.277,0-1.315c-2.451-0.112-4.915-0.032-7.373,0.039   c-0.28-0.991-0.614-1.98-1.066-2.954c-0.074-0.159-0.174-0.323-0.256-0.484C160.54,216.099,170.378,207.365,177.454,197.586z    M122.848,21.995c2.27-4.406,5.56-7.918,9.42-10.842c1.202,4.206,2.898,7.921,5.069,11.63c-2.258-1.215-4.77-1.889-7.209-1.788   c-3.391,0.14-6.288,1.508-8.401,3.583C122.051,23.681,122.426,22.814,122.848,21.995z M120.466,30.915   c1.555-4.533,6.063-7.773,11.487-7.037c6.297,0.854,8.398,5.286,9.928,10.331c-0.038,0.566-0.12,1.148-0.264,1.755   c-1.292,5.443-6.289,9.368-12.174,8.1c-0.586-0.126-1.127-0.293-1.649-0.477c0.673-4.427,1.529-8.816,2.46-13.317   c0.292-1.412-1.625-1.905-2.132-0.588c-1.51,3.92-2.439,8.215-2.955,12.569C121.51,39.745,120.238,35.393,120.466,30.915z    M75.127,85.376c-2.036-1.165-3.323-2.801-4.088-4.669c2.866,0.07,5.727,0.113,8.591-0.077c0.674-0.045,0.675-1.003,0-1.049   c-2.998-0.199-5.992-0.146-8.992-0.07c-0.48-1.715-0.593-3.569-0.434-5.433c3.82,0.056,7.64,0.117,11.459-0.017   c0.944-0.033,0.946-1.434,0-1.468c-3.657-0.129-7.314-0.076-10.972-0.023c0.887-2.517,2.162-4.683,3.739-6.556   c5.348,0.07,10.699,0.187,16.044-0.019c1.03-0.04,1.032-1.562,0-1.601c-4.827-0.187-9.661-0.107-14.492-0.038   c15.731-15.061,54.712-7.027,71.413-3.582c12.419,2.562,28.326,5.518,33.017,20.663c1.616,7.203,1.248,14.305-1.103,21.307   c-9.106,5.097-14.187,2.746-15.242-7.055c0.053-0.531-0.308-0.835-0.733-0.964c-0.201-0.589-0.799-1.011-1.533-0.63   c-2.483,1.287-8.195,6.16-11.039,4.006c-2.538-1.923-3.263-7.528-3.486-11.103c1.848,0.576,3.715,1.026,5.549,1.117   c1.452,0.072,1.521-1.922,0.322-2.378c-4.191-1.592-8.668-2.403-12.891-4.014c-1.185-0.452-2.008,1.496-0.867,2.056   c1.432,0.701,2.973,1.391,4.546,2.036c-4.895,7.384-10.928,13.64-20.632,13.281c-10.537-0.39-18.025-8.986-19.907-18.768   c0.149-0.506,0.339-0.979,0.38-1.57c0.061-0.878-0.907-1.226-1.57-0.897c-0.56-0.129-1.172,0.117-1.156,0.89   c0.003,0.16,0.044,0.313,0.05,0.472c-1.316,1.957-2.999,3.604-5.623,3.461c-2.357-0.128-3.966-1.647-4.903-3.587   c0.062-0.263,0.153-0.515,0.203-0.781c0.163-0.875-0.609-1.619-1.352-1.639c-0.477-0.183-1.131,0.089-1.153,0.719   c-0.003,0.074,0.015,0.138,0.015,0.211C85.668,83.012,82.2,89.425,75.127,85.376z M79.433,123.263   c3.69-0.527,7.317-0.473,11.037-0.369c0.785,0.022,1.001-1.292,0.19-1.404c-3.755-0.519-7.542-0.209-11.262,0.44   c-0.093-3.556-0.146-7.111-0.232-10.666c0.081,0.058,0.121,0.144,0.244,0.167c3.95,0.731,7.933,1.059,11.924,0.484   c0.785-0.113,0.584-1.378-0.185-1.367c-3.816,0.055-7.552,0.035-11.328-0.606c-0.292-0.05-0.509,0.069-0.678,0.237   c-0.053-2.225-0.091-4.45-0.145-6.674c0.023-0.001,0.037,0.017,0.061,0.014c3.157-0.444,6.195-0.631,9.379-0.397   c0.799,0.059,0.756-1.12,0-1.22c-3.14-0.415-6.408-0.249-9.461,0.638c-0.054-2.251-0.096-4.502-0.147-6.754   c3.871-0.524,7.735-0.63,11.645-0.597c1.116,0.009,1.06-1.579,0-1.697c-3.913-0.433-7.813-0.153-11.686,0.446   c-0.03-1.415-0.071-2.83-0.092-4.245c4.928,0.423,8.936-3.078,10.951-7.787c2.703,3.596,8.712,4.246,11.958,1.396   c1.982,9.333,9.302,17.219,19.095,18.8c9.098,1.468,19.967-3.328,24.334-11.651c0.336,4.132,1.476,8.692,4.576,10.576   c3.402,2.068,8.919-0.867,12.066-3.669c-0.2,6.203,5.222,12.749,11.626,13.203c-0.001,0.011-0.007,0.018-0.008,0.03   c-2.442,31.491-6.217,63.088-7.454,94.647c-5.61,4.587-11.74,8.122-19.884,8.3c-0.021,0.001-0.035,0.011-0.056,0.012   c-4.864-5.977-13.842-11.346-20.099-7.423c-5.549,0.257-10.322,3.671-13.561,8.303c-2.879-0.688-5.614-1.057-8.326-2.09   c1.739-0.035,3.493-0.312,5.037-0.768c0.742-0.219,0.424-1.266-0.314-1.139c-2.425,0.417-4.797,0.524-7.203,0.702   c-0.226-0.129-0.452-0.203-0.678-0.347c-2.54-1.613-4.522-3.628-6.215-5.901c2.035,0.25,4.081,0.436,6.102,0.567   c0.887,0.057,0.84-1.247,0-1.353c-2.342-0.297-4.736-0.529-7.118-0.643c-0.805-1.231-1.561-2.51-2.237-3.878   c-0.163-0.329-0.433-0.439-0.718-0.462c-0.415-0.647-1.316-0.945-2.028-0.24c-2.176,2.155-4.659,4.008-7.332,5.278   c-0.006-3.617-0.093-7.235-0.129-10.852c3.67,0.365,7.364,0.293,10.967-0.537c0.952-0.219,0.527-1.573-0.395-1.434   c-3.544,0.537-7.012,0.805-10.589,0.516c-0.04-3.683-0.134-7.367-0.198-11.051c5.656,0.729,11.375,1.226,17.062,0.957   c0.823-0.039,0.821-1.231,0-1.277c-5.72-0.324-11.403-0.549-17.088-1.133c-0.117-6.488-0.273-12.977-0.435-19.466   c7.224,0.433,14.396,0.445,21.601-0.34c0.872-0.095,0.905-1.456,0-1.391c-7.201,0.513-14.405,0.855-21.624,0.715   c-0.109-4.33-0.233-8.659-0.351-12.989c3.927,0.265,7.86,0.61,11.794,0.721c0.883,0.025,0.853-1.274,0-1.353   c-3.93-0.366-7.887-0.5-11.83-0.712c-0.083-3.025-0.161-6.051-0.244-9.076c6.957,0.255,13.939,0.369,20.889,0.067   c0.662-0.029,0.663-1.001,0-1.03c-6.957-0.302-13.948-0.189-20.913,0.067C79.625,130.792,79.532,127.028,79.433,123.263z    M5.979,193.335c1.702-0.578,13.248,2.663,21.039,3.57c-1.887-0.091-3.769-0.218-5.669-0.234c-0.604-0.005-0.598,0.903,0,0.934   c6.06,0.31,12.098,0.97,18.105,1.822c0.847,0.12,1.224-1.168,0.36-1.305c-2.883-0.456-5.766-0.771-8.655-1.005   c0.367-0.019,0.727-0.041,1.036-0.091c3.112-0.502,6.003-1.376,8.791-2.438c2.714,0.04,5.429,0.064,8.146,0.021   c0.822-0.013,0.823-1.264,0-1.277c-1.678-0.027-3.354-0.013-5.03-0.002c3.334-1.581,6.457-3.555,9.376-5.969   c-0.007,8.712,4.474,17.294,12.915,20.783c7.882,3.257,18.804,1.098,23.467-6.409c0.221,0.629,0.545,1.263,0.845,1.896   c-0.147,0.273-0.102,0.651,0.273,0.728c0.018,0.004,0.037,0.005,0.055,0.008c3.588,6.886,11.497,13.482,19.191,13.499   c-1.157,2.422-1.957,5.006-2.227,7.597c-18.518,0.784-36.045,0.832-54.073-4.723c-9.784-3.015-19.199-7.247-27.917-12.613   C22.093,205.719,8.9,192.343,5.979,193.335z M15.97,207.403c-1.179-2.19-2.483-4.285-3.909-6.245   c2.813,2.255,5.748,4.382,8.75,6.42C19.197,207.599,17.579,207.531,15.97,207.403z M88.459,243.026   c-6.529,2.28-15.46,5.391-19.632,11.391c-6.912-18.792-32.109-15.405-46.886-8.343c0.799-2.912,1.157-6.041,1.263-9.243   c3.666-0.361,7.326-0.433,11.011-0.23c0.721,0.04,0.693-1.031,0-1.105c-3.685-0.395-7.327-0.202-10.96,0.408   c0.03-2.29-0.151-4.63-0.437-6.978c3.123,0.043,6.25,0.103,9.368-0.008c0.49-0.017,0.491-0.745,0-0.763   c-3.149-0.112-6.307-0.05-9.46-0.006c-0.899-6.615-3.001-13.285-6.04-19.318c1.966,0.186,3.941,0.192,5.91-0.029   c25.041,16.419,55.905,24.861,85.305,18.194c-0.022,0.772-0.012,1.541,0.059,2.298c0.368,3.906,2.184,7.121,4.822,9.616   C104.522,238.991,96.361,240.267,88.459,243.026z M129.11,241.986c-2.249-0.036-4.444-0.416-6.498-1.071   c-0.076-0.82-0.618-1.626-1.663-1.711c-0.833-0.068-1.664-0.102-2.495-0.147c-0.238-0.142-0.446-0.315-0.676-0.466   c3.56,0.018,7.103,0.152,10.677,0.435c0.562,0.044,0.695-0.888,0.134-0.992c-4.072-0.758-8.243-0.899-12.375-0.589   c-1.49-1.246-2.718-2.729-3.602-4.413c2.832,0.18,5.809,0.434,8.468-0.043c0.382-0.068,0.382-0.703,0-0.772   c-2.78-0.498-5.9-0.204-8.843-0.024c-0.693-1.577-1.051-3.329-1.081-5.209c2.885,0.022,5.761-0.107,8.614-0.621   c0.757-0.136,0.423-1.246-0.314-1.14c-2.756,0.398-5.508,0.635-8.278,0.733c0.06-1.092,0.199-2.213,0.523-3.393   c0.53-1.931,1.363-3.672,2.326-5.313c0.496-0.231,0.776-0.683,0.77-1.167c2.065-3.036,4.778-5.527,8.115-7.124   c-0.61,1.163,1.107,2.293,2.08,1.385c9.471-8.836,22.409,7.027,22.189,15.94C146.948,235.81,138.023,242.129,129.11,241.986z    M253.781,219.865c-5.114,8.385-10.977,15.676-11.874,25.347c-13.911-9.874-32.234-11.042-46.19,0.227   c-11.522,9.304-7.12,10.759-20.871,0.895c-8.378-6.009-17.48-9.069-27.548-10.617c0.09-0.145,0.159-0.3,0.245-0.447   c1.764,0.036,3.517,0.055,5.285-0.119c0.661-0.065,0.662-0.964,0-1.03c-1.532-0.151-3.055-0.153-4.582-0.131   c0.659-1.327,1.109-2.739,1.451-4.182c1.947,0.032,3.894,0.079,5.843,0.015c0.785-0.026,0.786-1.194,0-1.22   c-1.875-0.062-3.747-0.016-5.621,0.014c0.079-0.473,0.222-0.931,0.263-1.411c37.626,7.414,79.56-1.631,111.231-23.51   C258.327,208.682,256.807,214.902,253.781,219.865z"></path><path d="M125.76,214.16c0.174-0.218,0.329-0.44,0.507-0.66c0.465-0.573-0.152-1.639-0.866-1.123   c-0.492,0.356-0.938,0.753-1.343,1.184c-1.308-0.376-2.631-0.583-3.761-0.612c-0.868-0.022-0.845,1.265,0,1.334   c0.951,0.078,1.866,0.266,2.749,0.554c-0.678,0.997-1.2,2.105-1.582,3.276c-0.248,0.759,0.954,1.288,1.306,0.551   c0.535-1.12,1.193-2.117,1.897-3.085c0.251,0.129,0.52,0.2,0.764,0.35c1.325,0.816,2.223,2.081,3.511,2.908   c0.499,0.32,1.271-0.219,1.05-0.807C129.323,216.245,127.665,214.984,125.76,214.16z"></path><path d="M28.788,218.726c-2.473-0.299-4.963-0.438-7.447-0.623c-0.374-0.027-0.355,0.526,0,0.572   c2.479,0.319,4.956,0.684,7.447,0.89C29.333,219.61,29.312,218.79,28.788,218.726z"></path><path d="M92.505,168.52c-3.553-0.398-7.275-0.422-10.842-0.133c-0.681,0.055-0.667,0.974,0,1.048   c3.557,0.394,7.277,0.483,10.842,0.19C93.224,169.566,93.208,168.598,92.505,168.52z"></path></g><g></g><g></g><g></g><g></g><g></g><g></g><g></g><g></g><g></g><g></g><g></g><g></g><g></g><g></g><g></g></svg>