<svg xmlns="http://www.w3.org/2000/svg" xmlns:xlink="http://www.w3.org/1999/xlink" fill="currentColor" version="1.1" id="Capa_1" viewBox="0 0 275.152 275.152" xml:space="preserve"><g><path d="M213.586,132.87c-12.644-0.331-22.392-9.074-35.525-7.805c-8.267,0.799-16.289,4.231-22.189,10.053   c-0.165-2.834-1.302-5.388-3.282-7.637c5.881-2.274,7.757-10.218,3.348-14.829c-0.266-0.279-0.56-0.391-0.852-0.434   c0.131-0.057,0.275-0.058,0.383-0.194c4.028-5.064,7.885-12.173,7.947-18.878c15.6,10.475,37.079,6.483,47.524-9.617   c4.408-6.795,7.457-17.966,2.217-25.247c-2.148-2.985-5.38-4.46-7.575-0.804c-0.041,0.068-0.049,0.131-0.076,0.197   c-3.228,2.273-3.289,7.705-4.229,11.804c-4.343,18.926-20.797,20.905-35.819,12.983c4.111-8.276,6.231-17.465,7.717-26.529   c14.742-2.139,28.286-12.443,29.641-28.179c0.521-6.05-0.873-14.497-6.101-18.456c-3.664-2.775-7.604-2.162-9.961,1.598   c-0.45,0.718,0.015,1.407,0.65,1.67c-0.331,1.662-0.382,3.28-0.345,4.907c-0.004,0.023,0.003,0.042,0.001,0.066   c0.063,2.552,0.394,5.13,0.635,7.96c0.769,9.01-3.632,13.324-10.129,15.935c0,0-0.007,0-0.01,0c-0.03,0.001-0.04,0.025-0.067,0.03   c-1.579,0.63-3.245,1.189-5.03,1.658c1.513-10.476,0.494-24.215-5.356-33.107c-1.124-1.708-3.316-3.392-5.563-4.168   c-0.026-0.02-0.029-0.057-0.057-0.075c-4.527-2.906-8.681,1.519-8.521,6.235c0.136,4.018,2.831,6.728,4.775,10.004   c4.01,6.759,4.967,13.994,3.72,21.668c-4.312-0.237-6.769-2.104-9.311-6.022c-1.113-1.717-2.202-3.848-4.23-4.646   c-1.288-0.506-2.636-0.385-3.658,0.208c-0.364-0.216-0.801-0.297-1.16-0.024c-4.198,3.184-2.869,9.312-0.103,13.041   c3.68,4.963,9.447,8.15,15.502,9.073c-0.002,0.016-0.011,0.027-0.012,0.042c-0.619,7.743-1.339,15.48-2.028,23.217   c-2.347-1.579-4.626-2.5-6.341-5.116c-1.388-2.117-2.238-4.642-2.446-7.18c0.231-0.098,0.433-0.258,0.508-0.559   c0.516-2.065-1.04-4.203-2.967-4.893c-1.567-0.561-3.136-0.121-4.295,0.892c-0.29-0.172-0.625-0.24-0.985,0.035   c-3.028,2.319-3.298,6.112-2.478,9.666c-0.025,0.122,0.009,0.245,0.082,0.354c0.377,1.493,0.92,2.938,1.555,4.192   c2.853,5.637,7.945,9.958,14.081,11.395c-0.219,3.973-0.712,7.897-1.663,11.77c-0.818,3.329-3.19,7.461-3.061,10.867   c-0.027-0.709-1.007-0.679-1.081,0c-0.012,0.109-0.009,0.143-0.016,0.216c-1.886-0.826-4.528,0.458-5.898,1.76   c-1.696,1.612-2.515,3.851-2.147,6.113c-0.935,0.025-1.876,0.114-2.809,0.112c-0.917-0.002-1.822-0.126-2.729-0.211   c0.386-2.224-1.64-4.994-3.156-6.212c-1.883-1.514-4.329-2.12-6.618-1.498c-4.014-7.532-6.894-15.085-9.918-23.008   c11.894,1.218,18.946-13.255,22.273-22.96c1.454-4.242,3.608-11.824,0.048-15.747c-2.113-2.327-4.956-2.586-7.196-0.523   c-0.076,0.07-0.075,0.169-0.12,0.252c-0.285,0.133-0.523,0.341-0.578,0.712c-0.858,5.792-1.185,10.994-4.181,16.242   c-2.833,4.961-7.093,8.991-11.988,11.895c-2.246-4.909-0.435-13.011-0.139-17.898c0.38-6.264,0.88-12.521,0.618-18.795   c9.573,3.422,19.995-0.976,23.925-10.618c1.471-3.609,2.678-9.525-0.471-12.675c-2.184-2.184-5.367-1.86-7.071,0.565   c-0.239,0.34-0.273,0.682-0.185,0.988c-1.032,3.704-1.2,6.927-4.455,9.6c-2.872,2.357-6.009,2.629-9.472,2.865   c1.65-5.765,4.085-10.977,7.227-16.106c1.728-2.821,4.186-6.45,3.046-9.966c0.371-0.295,0.605-0.789,0.472-1.256   c-1.786-6.309-9.882-3.704-13.141-0.275c-2.939,3.093-5.111,6.929-6.739,11c-0.315,0.132-0.448,0.505-0.347,0.834   c-0.716,1.903-1.347,3.837-1.814,5.795c-0.13,0.026-0.261,0.052-0.391,0.078c-0.567,0.112-0.448,1.086,0.135,1.023   c-0.143,0.668-0.352,1.334-0.465,2c-1.36-1.639-3.198-2.95-4.196-5.019c-0.967-2.004-1.611-4.817-1.672-7.379   c0.235-0.16,0.437-0.384,0.54-0.628c0.373-0.888,0.137-1.74-0.401-2.481c-0.069-0.192-0.197-0.349-0.379-0.426   c-0.94-1.002-2.37-1.745-3.407-1.976c-1.387-0.309-2.737-0.065-3.896,0.564c-0.342,0.032-0.682,0.166-0.949,0.555   c-0.016,0.023-0.026,0.048-0.041,0.071c-0.42,0.368-0.797,0.801-1.104,1.311c-0.152,0.251-0.118,0.494-0.021,0.712   c-4.381,9.584,2.395,23.193,11.261,27.469c-1.72,12.276-2.372,27.06,1.829,38.893C89.877,75.107,85.924,64.58,81.786,55.977   c-0.048-3.03-4.5-4.937-7.07-3.86c-0.48,0.201-0.882,0.487-1.242,0.809c-0.444,0.009-0.89,0.267-1.034,0.762   c-0.09,0.31-0.11,0.651-0.179,0.97c-0.234,0.587-0.333,1.214-0.342,1.85c-1.382,14.841,16.211,37.297,31.415,32.608   c0.018,8.871,5.457,18.595,12.365,24.226c-4.087,3.854-2.51,10.704,2.109,13.253c-1.24,1.145-2.208,2.601-2.958,4.15   c-4.058-5.373-9.365-9.092-16.368-9.886c-11.812-1.34-24.662,6.06-35.945,2.376c-0.118-0.038-0.204,0.024-0.311,0.026   c-0.398-0.284-0.935-0.396-1.402-0.325c-0.123,0.019-0.246,0.037-0.369,0.056c-1.419,0.216-1.504,2.024-0.767,2.905   c3.257,3.901,9.33,6.148,13.175,9.809c3.38,3.219,6.126,7.04,10.221,9.436c10.382,6.075,19.425-0.403,29.818-1.77   c-3.931,35.049-57.175,50.844-32.561,91.138c16.336,26.743,52.426,29.986,78.919,18.587c-0.943,7.92,1.94,17.599,8.67,21.804   c0.365,0.228,0.751,0.269,1.111,0.192c3.686,0.316,7.394-0.6,10.53-2.576c2.311-1.457,5.05-3.635,6.038-6.32   c2.438,3.22,7.843,2.897,9.669-1.298c0.977-2.244,0.553-4.852-1.215-6.577c-0.776-0.757-1.91-1.376-3.08-1.641   c1.179-1.598,2.208-3.688,1.997-5.476c0.316-0.279,0.495-0.745,0.265-1.177c-3.183-5.977-10.633-10.672-17.73-10.309   c11.517-5.141,18.539-16.989,16.074-30.146c-4.732-25.254-33.292-32.75-32.996-62.004c0.003-0.297-0.054-0.555-0.15-0.779   c10.656,0.45,20.828,7.136,31.462,3.193c8.401-3.116,15.172-10.079,23.294-14.01c0.533-0.258,0.613-0.693,0.514-1.106   c0.048-0.011,0.092-0.009,0.141-0.021C214.981,134.58,214.698,132.899,213.586,132.87z M198.767,23.936   c-0.101-0.082-0.197-0.173-0.351-0.192c-2.578-0.319-5.177-0.494-7.766-0.713c-0.133-1.486-0.276-2.976-0.417-4.464   c2.499,0.351,4.997,0.683,7.521,0.873c0.114,0.008,0.2-0.039,0.274-0.099C198.354,20.892,198.599,22.473,198.767,23.936z    M197.845,18.504c-2.566-0.517-5.145-0.88-7.732-1.229c-0.179-1.881-0.357-3.761-0.527-5.643   C194.029,8.085,196.534,12.885,197.845,18.504z M74.844,55.136c0.325-0.37,0.753-0.642,1.291-0.738   c2.068-0.368,2.723,1.467,3.547,2.869c0.082,0.139,0.206,0.209,0.322,0.292c0.426,1.582,0.958,3.166,1.573,4.723   c-0.077-0.053-0.146-0.117-0.262-0.123c-1.664-0.076-3.332-0.053-4.998-0.053C75.817,59.849,75.399,57.545,74.844,55.136z    M113.046,106.151c-0.997-1.455-1.94-2.951-2.749-4.562c-0.009-0.019-0.014-0.037-0.024-0.055c1.558,0.264,3.105,0.527,4.674,0.716   c0.358,0.043,0.444-0.572,0.086-0.634c-1.594-0.272-3.189-0.463-4.795-0.659c-0.088-0.011-0.106,0.08-0.154,0.137   c-0.773-1.619-1.334-3.248-1.835-4.89c1.345,0.028,2.69,0.038,4.023-0.065c0.499-0.039,0.5-0.739,0-0.777   c-1.427-0.11-2.867-0.092-4.307-0.059c-0.482-1.677-0.917-3.395-1.376-5.119c0.772-0.001,1.544,0.013,2.318-0.017   c0.61-0.023,0.611-0.924,0-0.948c-0.862-0.033-1.722-0.02-2.582-0.018c-0.052-0.189-0.096-0.366-0.149-0.556   c-0.147-0.52-0.525-0.765-0.944-0.893c-0.077-0.617-0.63-1.238-1.354-1.08c-5.282,1.155-10.758-1.261-15.315-4.845   c2.733,0.344,5.439,0.833,8.122,1.535c0.641,0.167,0.895-0.783,0.272-0.988c-3.227-1.061-6.549-1.595-9.921-1.821   c-1.507-1.33-2.867-2.768-4.073-4.215c1.652,0.02,3.297,0.129,4.946,0.404c0.532,0.089,0.771-0.71,0.227-0.823   c-1.941-0.403-3.875-0.468-5.827-0.383c-0.6-0.762-1.166-1.522-1.655-2.265c-0.594-0.901-1.086-1.797-1.534-2.693   c1.404,0.016,2.808,0.042,4.211,0.015c0.537-0.011,0.537-0.824,0-0.834c-1.529-0.03-3.059-0.001-4.588,0.016   c-1.015-2.208-1.656-4.418-2.19-6.67c1.586,0.063,3.173,0.146,4.76,0.135c0.293-0.002,0.434-0.197,0.48-0.414   c3.52,8.556,9.96,16.046,19.848,16.249c1.79,0.037,1.919-2.483,0.427-2.938c0.128-1.097,0.122-2.205,0.135-3.311   c1.338,0.031,2.677,0.05,4.009-0.034c0.768-0.048,0.769-1.147,0-1.195c-1.315-0.083-2.637-0.065-3.957-0.035   c-0.041-2.043-0.232-4.096-0.447-6.147c0.905-0.094,1.784-0.341,2.663-0.811c0.488-0.261,0.155-1.076-0.38-0.901   c-0.814,0.266-1.603,0.437-2.402,0.521c-0.228-2.086-0.44-4.165-0.578-6.234c1.256,0.031,2.517,0.054,3.756-0.061   c0.694-0.065,0.696-1.016,0-1.081c-1.268-0.118-2.559-0.091-3.844-0.059c-0.09-1.835-0.12-3.665-0.111-5.492   c1.321,0.061,2.649,0.122,3.955,0.026c0.853-0.063,0.854-1.265,0-1.327c-1.296-0.095-2.613-0.036-3.923,0.024   c0.027-1.581,0.127-3.158,0.218-4.736c1.517,0.051,3.038,0.117,4.54-0.097c0.579-0.082,0.58-1.088,0-1.17   c-1.48-0.21-2.981-0.15-4.477-0.099c0.087-1.251,0.249-2.501,0.372-3.751c0.102,0.299,0.382,0.545,0.785,0.456   c1.068-0.233,1.935-0.085,2.922,0.363c0.741,0.337,1.321-0.626,0.641-1.097c-1.229-0.85-2.503-0.969-3.922-0.564   c-0.188,0.053-0.297,0.168-0.373,0.296c0.108-1.05,0.172-2.102,0.313-3.152c0.154-1.152-1.154-1.699-2.107-1.42   c-1.86-1.381-3.506-2.961-4.942-4.7c1.474,0.17,2.939,0.403,4.403,0.707c0.623,0.129,0.861-0.741,0.262-0.951   c-1.837-0.644-3.698-0.915-5.604-0.963c-0.991-1.371-1.784-2.882-2.453-4.474c1.523,0.26,3.084,0.513,4.581,0.425   c0.644-0.038,0.794-0.939,0.154-1.136c-1.691-0.519-3.542-0.604-5.329-0.736c-0.037-0.112-0.097-0.208-0.132-0.321   c-0.337-1.093-0.536-2.137-0.661-3.158c1.542,0.204,3.084,0.397,4.637,0.503c0.62,0.041,0.775-1,0.149-1.099   c-1.623-0.257-3.256-0.419-4.89-0.572c-0.09-1.526,0.007-3.01,0.182-4.514c1.018,0.288,2.041,0.554,3.073,0.759   c0.653,0.131,0.926-0.81,0.277-1.005c-1.052-0.318-2.142-0.511-3.223-0.742c0.182-1.338,0.402-2.697,0.614-4.135   c0.752-0.089,1.544,0.018,2.254,0.281c1.062,0.395,1.519,1.2,2.129,1.938c-0.851,2.805-0.869,5.323,0.436,8.602   c1.154,2.9,3.907,7.5,7.438,7.551c0.071,0.001,0.12-0.038,0.185-0.049c0.438,0.076,0.948-0.103,1.098-0.593   c0.362-1.176,0.879-2.805,1.538-4.655c0.793-0.097,1.583-0.209,2.365-0.368c0.68-0.139,0.54-1.307-0.166-1.23   c-0.573,0.063-1.139,0.167-1.707,0.265c0.533-1.428,1.145-2.949,1.824-4.47c1.29,0.228,2.586,0.432,3.879,0.456   c0.768,0.015,0.929-1.147,0.181-1.341c-1.101-0.286-2.244-0.438-3.392-0.557c0.477-0.998,0.994-1.968,1.529-2.916   c2.131,0.463,4.271,0.937,6.437,1.102c0.756,0.057,0.859-1.079,0.174-1.285c-1.885-0.566-3.85-0.877-5.809-1.178   c0.647-1.039,1.333-2.001,2.05-2.868c1.835-0.043,3.628,0.143,5.45,0.53c0.774,0.165,1.045-0.893,0.322-1.17   c-1.452-0.557-2.928-0.786-4.431-0.823c2.045-1.951,4.333-2.958,6.824-2.236c0.042,0.184,0.092,0.373,0.231,0.6   c0.272,0.443,0.867,0.305,1.035-0.087c0.026,0.014,0.053,0.032,0.079,0.046c0.94,4.983-4.634,10.673-6.714,14.76   c-1.954,3.839-3.407,7.842-4.534,11.996c-0.421,1.553,1.332,2.405,2.41,1.801c7.851,3.669,19.195-4.821,17.831-13.444   c1.003,0.408,2.005,0.815,3.008,1.223c0.06,0.789,0.119,1.577,0.179,2.366c-0.037,1.749-0.458,3.341-1.061,4.95   c-0.937,2.502-2.399,4.726-4.365,6.558c-4.558,4.248-11.463,5.129-17.29,3.477c-0.977-0.277-1.454,0.69-1.141,1.4   c-0.003,0.014-0.018,0.016-0.02,0.031c-1.568,8.923-1.74,18.08-2.313,27.109c-0.267,4.209-2.016,10.939,2.754,13.08   c0.595,0.267,1.416-0.122,1.519-0.71c10.643-4.789,20.122-17.369,17.759-29.51c6.302-1.539,3.479,10.717,2.876,12.721   c-1.068,3.548-2.776,6.872-4.551,10.11c-3.628,6.618-8.316,13.481-16.893,12.773c-1.027-0.084-1.231,1.551-0.242,1.788   c0.118,0.028,0.228,0.029,0.345,0.054c0.758,6.99,3.421,14.17,6.948,20.461c-0.059-0.08-0.129-0.156-0.262-0.186   C117.136,106.833,115.085,106.508,113.046,106.151z M192.386,145.159c-11.528,6.471-22.905-2.122-34.979-0.52   c-0.669,0.089-1.005,0.64-0.997,1.158c-0.822,0.124-1.571,0.695-1.592,1.769c-0.225,11.462,2.551,21.308,9.446,30.53   c4.215,5.637,9.594,10.266,14.115,15.633c13.374,15.876,11.648,35.454-7.3,45.339c-0.697,0.364-0.606,1.17-0.178,1.656   c-1.174,0.752-1.053,2.849,0.651,2.785c3.812-0.142,7.121-0.515,10.808,0.829c3.224,1.175,6.11,3.266,8.453,5.775   c-0.601,0.791-0.681,1.671-0.983,2.67c-0.418,1.387-1.143,2.634-1.908,3.853c-0.107,0.171-0.072,0.337-0.084,0.507   c-0.161,0.11-0.328,0.208-0.473,0.353c-0.622,0.626-0.375,1.844,0.54,2.044c1.166,0.256,2.362-0.013,3.416,0.672   c1.14,0.74,1.606,1.978,1.154,3.283c-1.067,3.083-4.952,2.427-6.217-0.105c-0.369-0.737-1.293-0.495-1.595,0.103   c-0.271-0.027-0.54,0.009-0.762,0.171c-2.301,1.678-3.577,4.272-6.066,5.875c-2.412,1.553-5.049,2.417-7.847,2.802   c-2.208-3.449-4.75-6.247-6.126-10.254c-1.197-3.487-1.524-7.061-1.495-10.699c0.256-0.456,0.238-0.984,0.011-1.463   c0.001-0.035-0.001-0.069,0.001-0.104c0.034-0.956-0.896-1.309-1.625-1.064c-0.312-0.029-0.637-0.007-0.978,0.147   c-19.426,8.805-41.786,10.1-60.52-1.35c2.307,0.239,4.624,0.304,6.961,0.089c0.609-0.056,0.631-0.991,0-0.967   c-2.974,0.114-5.914-0.027-8.851-0.406c-2.56-1.731-4.871-3.646-6.926-5.708c12.841,1.364,25.744,2.225,38.661,1.919   c0.817-0.02,0.819-1.253,0-1.271c-13.359-0.289-26.647-0.768-39.945-2.072c-1.795-1.968-3.345-4.064-4.688-6.244   c2.315,0.028,4.63,0.069,6.944,0.028c0.708-0.012,0.709-1.087,0-1.1c-2.514-0.044-5.031,0.001-7.546,0.031   c-1.261-2.192-2.268-4.477-3.066-6.815c6.892,0.309,13.809,0.766,20.703,0.767c0.898,0,0.882-1.327,0-1.384   c-7.015-0.451-14.084-0.43-21.115-0.575c-0.704-2.311-1.108-4.684-1.349-7.076c2.329,0.041,4.664,0.112,6.989,0.028   c0.744-0.027,0.745-1.13,0-1.156c-2.365-0.086-4.74-0.012-7.108,0.03c-0.176-2.502-0.083-5.028,0.259-7.552   c9.245,0.247,18.504,0.213,27.712-0.715c0.761-0.077,0.793-1.247,0-1.214c-9.172,0.395-18.314,0.8-27.492,0.686   c0.545-3.202,1.542-6.388,2.956-9.508c2.651,0.168,5.279-0.055,7.884-0.704c0.789-0.196,0.45-1.358-0.333-1.206   c-2.31,0.447-4.611,0.609-6.932,0.647c0.95-1.916,2.122-3.788,3.411-5.633c5.937-0.651,11.846-0.653,17.813-0.576   c0.78,0.01,0.753-1.126,0-1.194c-5.661-0.516-11.315-0.136-16.938,0.591c0.481-0.641,0.898-1.297,1.429-1.925   c1.84-2.179,3.794-4.264,5.768-6.318c1.9,0.105,3.805,0.199,5.703,0.154c0.842-0.02,0.843-1.288,0-1.308   c-1.569-0.038-3.142,0.063-4.715,0.126c1.703-1.756,3.407-3.491,5.07-5.237c5.662,0.917,11.411,1.515,17.143,1.117   c0.943-0.066,0.96-1.446,0-1.479c-5.323-0.183-10.587-0.355-15.862-0.996c2.49-2.672,4.796-5.408,6.809-8.284   c3.442,0.689,6.899,0.927,10.398,0.498c0.728-0.089,0.777-1.195,0-1.176c-3.211,0.078-6.387-0.078-9.56-0.53   c1.157-1.765,2.162-3.604,3.016-5.522c2.936,0.213,5.925,0.12,8.754-0.711c0.657-0.193,0.568-1.334-0.169-1.248   c-2.697,0.317-5.319,0.608-7.998,0.577c0.836-2.136,1.446-4.389,1.793-6.783c2.941,0.046,5.961,0.252,8.877-0.041   c0.791-0.079,0.793-1.153,0-1.232c-2.875-0.289-5.851-0.094-8.753-0.044c0.156-1.548,0.172-3.172,0.098-4.844   c1.54,0.212,3.079,0.438,4.626,0.593c0.61,0.061,0.76-0.987,0.146-1.08c-1.604-0.245-3.218-0.417-4.83-0.602   c-0.024-0.305-0.013-0.591-0.048-0.901c-0.114-1.027-1.297-1.144-1.712-0.4c-10.98-3.059-20,7.664-31.594-1.981   c-0.396-0.329-0.756-0.699-1.132-1.051c3.182,0.08,6.368,0.091,9.547,0.027c0.695-0.014,0.696-1.067,0-1.081   c-3.538-0.072-7.087-0.062-10.626,0.051c-1.879-1.906-3.632-3.96-5.571-5.805c6.205,1.482,12.501,2.576,18.889,2.753   c0.552,0.015,0.704-0.905,0.134-0.987c-7.097-1.027-14.147-2.015-21.133-3.598c-0.891-0.726-1.773-1.465-2.706-2.136   c-0.284-0.219-0.597-0.396-0.89-0.602c3.44,0.416,6.871-0.177,10.671-0.875c-0.132,0.311-0.068,0.732,0.321,0.789   c6.756,1.004,13.498,1.605,20.334,1.473c0.769-0.015,0.769-1.172,0-1.194c-6.452-0.191-12.891-0.555-19.301-1.314   c0.32-0.059,0.62-0.114,0.947-0.172c5.47-0.972,11.265-1.988,16.838-1.368c7.003,0.78,10.85,4.696,15.708,9.071   c-0.004,0.015-0.011,0.029-0.016,0.044c-0.351,1.196,1.439,2.025,2.052,0.945c0.596-0.183,1.033-0.757,0.82-1.412   c1.2-1.991,2.727-3.56,4.34-5.331c0.943-1.036,0.012-2.739-1.215-2.561c-0.774-0.586-1.481-1.309-2.039-2.117   c1.113,0.301,2.262,0.495,3.401,0.592c0.565,0.048,0.682-0.861,0.134-0.987c-1.285-0.295-2.685-0.507-4.029-0.482   c-0.288-0.559-0.529-1.135-0.647-1.738c-0.076-0.389-0.041-0.733-0.04-1.091c2.184-0.492,4.355-0.649,6.601-0.454   c0.587,0.051,0.574-0.849,0-0.91c-2.239-0.238-4.417,0.002-6.582,0.517c0.214-1.346,0.904-2.52,1.69-3.719   c1.631,0.034,3.263,0.084,4.893,0.041c0.561-0.015,0.562-0.857,0-0.872c-1.469-0.039-2.941,0.008-4.412,0.037   c0.367-0.72-0.104-1.5-0.785-1.791c-1.396-1.685-2.756-3.364-4.02-5.111c1.683,0.349,3.368,0.701,5.064,0.962   c0.437,0.067,0.688-0.361,0.59-0.675c0.82,1.457,1.672,2.881,2.574,4.226c0.443,0.661,1.174,0.682,1.684,0.365   c2.067-0.263,4.061,0.376,5.598,1.835c0.702,0.667,1.278,1.511,1.574,2.439c0.178,0.557,0.239,1.096,0.329,1.631   c-0.485,0.419-0.525,1.276,0.29,1.525c2.743,0.835,6.524,1.777,9.317,0.778c0.971-0.347,1.034-1.362,0.466-1.922   c-0.14-1.719,0.48-3.317,1.791-4.469c0.597-0.524,1.324-0.965,2.094-1.17c0.837-0.224,1.652-0.026,2.462-0.349   c0.329-0.131,0.588-0.41,0.707-0.725c0.108,0.006,0.218,0.005,0.322-0.038c1.444-0.604,2.381-2.247,3.066-4.038   c1.329,0.163,2.619,0.015,3.861-0.666c0.385-0.211,0.124-0.836-0.299-0.711c-1.118,0.331-2.161,0.499-3.252,0.517   c0.455-1.357,0.792-2.72,1.103-3.723c0.086-0.278,0.146-0.562,0.228-0.84c0.876,0.006,1.752,0.012,2.628,0.018   c0.586,0.005,0.587-0.914,0-0.91c-0.797,0.006-1.594,0.011-2.391,0.017c0.446-1.615,0.733-3.257,1.046-4.894   c0.873-0.196,1.747-0.304,2.689-0.33c0.409-0.011,0.538-0.665,0.101-0.745c-0.894-0.164-1.746-0.095-2.582,0.102   c0.346-1.981,0.589-3.978,0.769-5.986c0.61,0.013,1.218-0.006,1.823-0.103c0.389-0.062,0.389-0.724,0-0.786   c-0.578-0.093-1.159-0.117-1.741-0.108c0.037-0.521,0.105-1.036,0.127-1.558c0.044-1.031-0.896-1.425-1.67-1.213   c-2.766-1.276-5.572-3.048-7.948-5.189c0.997,0.193,2.011,0.291,3.049,0.211c0.615-0.047,0.629-0.946,0-0.967   c-1.526-0.052-2.971-0.204-4.396-0.554c-1.855-1.941-3.294-4.145-4.085-6.528c0.831,0.077,1.673,0.06,2.545-0.096   c0.523-0.094,0.406-0.967-0.126-0.931c-0.941,0.063-1.841,0.057-2.731-0.037c-0.605-2.53-0.453-5.246,0.845-8.084   c0.825-0.738,1.934-1.147,3.046-0.778c1.301,0.432,1.586,1.62,1.931,2.762c-0.625,3.352-0.107,6.594,1.827,9.52   c1.747,2.643,5.059,5.957,8.462,5.862c0.715-0.02,1.019-0.592,0.945-1.148c0.344-0.047,0.664-0.207,0.735-0.613   c0.382-2.18,0.651-4.362,0.966-6.543c1.163,0.083,2.334,0.123,3.497,0.09c0.683-0.019,0.684-1.042,0-1.062   c-1.12-0.032-2.247,0.012-3.366,0.087c0.287-2.039,0.535-4.084,0.782-6.128c0.68-0.13,1.363-0.246,2.032-0.421   c0.701-0.183,0.39-1.166-0.292-1.061c-0.536,0.083-1.063,0.215-1.593,0.33c0.229-1.962,0.4-3.936,0.584-5.907   c0.842,0.012,1.683,0.042,2.526,0c0.646-0.033,0.647-0.973,0-1.005c-0.809-0.041-1.618-0.011-2.426,0   c0.066-0.737,0.161-1.467,0.218-2.205c0.063-0.823-0.507-1.241-1.14-1.291c-0.107-0.23-0.276-0.428-0.541-0.519   c-3.66-1.264-7.179-2.926-10.22-5.325c1.547,0.406,3.102,0.777,4.669,0.981c0.572,0.074,0.606-0.778,0.128-0.95   c-2.164-0.776-4.481-1.22-6.751-1.706c-1.326-1.325-2.154-2.673-2.711-4.069c1.313,0.262,2.634,0.497,3.967,0.606   c0.555,0.045,0.668-0.844,0.131-0.969c-1.492-0.347-3.03-0.539-4.555-0.7c-0.457-1.79-0.331-3.706,0.355-5.865   c1.346-0.798,4.146,1.789,4.626,2.514c0.552,0.834,1.024,1.716,1.599,2.538c0.957,1.369,2.014,2.67,3.331,3.71   c2.59,2.045,6.281,3.296,9.24,1.408c0.667-0.426,0.628-1.376,0.079-1.789c0.404-1.315,0.701-2.635,0.932-3.959   c1.101,0.597,2.459,0.597,3.433-0.427c0.334-0.351-0.088-0.907-0.517-0.67c-0.931,0.514-1.979,0.574-2.772-0.038   c0.306-2.288,0.357-4.592,0.061-6.924c0.523,0.092,1.039,0.222,1.568,0.281c0.503,0.055,0.599-0.759,0.118-0.875   c-0.613-0.149-1.231-0.26-1.851-0.361c-0.069-0.411-0.12-0.82-0.212-1.233c-0.304-1.363-0.732-2.702-1.232-4.016   c0.433-0.005,0.865-0.005,1.299-0.067c0.552-0.077,0.553-1.037,0-1.115c-0.622-0.088-1.239-0.1-1.857-0.086   c-0.272-0.626-0.511-1.268-0.823-1.871c-0.449-0.851-1.002-1.637-1.523-2.443c1.351,0.196,2.706,0.354,4.038,0.34   c0.716-0.007,0.916-1.129,0.174-1.285c-1.661-0.349-3.397-0.443-5.126-0.522c-0.025-0.034-0.042-0.073-0.067-0.107   c-1.232-1.353-1.809-2.787-1.743-4.301c2.704,0.477,5.394,0.961,8.131,1.228c0.638,0.063,0.772-0.979,0.151-1.117   c-2.676-0.598-5.378-0.97-8.09-1.359c0.315-1.174,0.996-2.394,2.048-3.66c3.211,0.227,5.263,1.724,6.119,4.534   c0.622,1.324,1.127,2.693,1.515,4.105c0.807,2.545,1.433,5.199,1.889,7.828c1.065,6.138,0.812,12.144,0.472,18.316   c-0.003,0.062,0.022,0.111,0.027,0.169c-0.474,0.879,0.006,2.283,1.23,2.206c4.374-0.278,8.889-1.559,12.584-3.998   c0.745-0.007,1.492,0.02,2.232-0.045c0.706-0.062,0.708-1.037,0-1.099c-0.234-0.021-0.471-0.001-0.705-0.015   c1.022-0.826,1.925-1.786,2.759-2.816c1.845,0.106,3.722,0.206,5.508-0.082c0.57-0.092,0.571-1.06,0-1.152   c-1.458-0.235-2.977-0.207-4.49-0.133c0.087-0.135,0.202-0.245,0.285-0.383c0.933-1.546,1.498-3.167,1.806-4.847   c0.975,0.011,1.949,0.001,2.913-0.09c0.901-0.085,0.903-1.317,0-1.403c-0.896-0.084-1.802-0.1-2.708-0.093   c0.077-0.948,0.102-1.908,0.033-2.893c-0.071-1.01-0.177-2.026-0.262-3.038c2.546,0.258,5.093,0.556,7.646,0.713   c0.207,0.013,0.351-0.061,0.46-0.162c0.246,2.543,0.273,4.58,0.159,5.162c-0.862,4.377-2.868,8.585-5.77,11.979   c-5.454,6.38-13.149,9.77-21.096,11.897c-0.823-0.37-1.855-0.164-2.045,0.967c-1.537,9.128-4.164,17.927-6.231,26.924   c-0.991,0.088-1.764,1.345-0.859,2.176c7.465,6.852,18.868,9.016,28.136,4.491c4.178-2.04,7.458-5.254,9.756-9.266   c2.891-5.046,2.605-15.917,6.808-20.421c2.705-1.613,4.45,8.453,4.507,9.192c0.275,3.56-1.276,8.184-2.919,11.284   c-2.657,5.011-6.882,9.457-11.799,12.278c-10.99,6.304-23.409,5.174-34.287-0.772c-0.532-0.29-0.994-0.054-1.205,0.335   c-0.485,0.033-0.958,0.263-1.136,0.857c-0.917,3.069-1.284,6.243-2.364,9.289c-1.182,3.33-2.873,6.395-4.803,9.343   c-0.437,0.668,0.099,1.384,0.736,1.587c-0.967,0.318-1.651,1.607-0.738,2.597c2.932,3.178,1.567,8.656-2.262,10.414   c-0.743,0.341-0.734,1.214-0.345,1.797c-0.924,0.332-1.587,1.594-0.712,2.563c1.915,2.123,2.991,4.987,3.117,7.839   c0.018,0.393,0.172,0.669,0.388,0.85c0.33,0.772,1.367,1.219,2.248,0.498c10.323-8.446,22.528-13.202,35.874-8.995   c5.665,1.786,10.362,4.7,15.748,5.337C202.182,137.528,197.775,142.134,192.386,145.159z"></path></g><g></g><g></g><g></g><g></g><g></g><g></g><g></g><g></g><g></g><g></g><g></g><g></g><g></g><g></g><g></g></svg>