<svg xmlns="http://www.w3.org/2000/svg" xmlns:xlink="http://www.w3.org/1999/xlink" fill="currentColor" version="1.1" id="Capa_1" viewBox="0 0 262.487 262.487" xml:space="preserve"><g><path d="M261.769,162.815c-3.345-15.455-18.561-24.825-33.622-20.429c-1.969,0.575-1.439,3.263,0.286,3.463   c0.05,0.038,0.079,0.09,0.136,0.123c8.991,5.288,13.549,13.481,12.215,23.35c-7.96,26.586-38.075,28.752-65.983,26.81   c-0.013-3.426-1.026-6.896-1.745-10.232c-0.724-3.359-1.438-6.764-2.537-10.027c11.403-4.065,21.487-10.794,28.644-21.983   c9.66-15.102,17.08-36.523,13.289-54.968c14.563-11.269-3.26-34.219-15.009-40.24c-14.473-7.417-33.373-3.804-43.627,8.353   c-0.058,0.031-0.121,0.048-0.175,0.089c-6.819,5.297-6.332,14.143-5.483,21.967c0.847,7.811,1.93,17.837-6.141,22.489   c-7.202,4.152-14.771,0.797-19.563-4.855c-7.594-16.137-11.412-32.106-25.573-44.428C86.37,53.148,73.09,47.177,59.162,46.003   c-14.521-1.224-54.68,7.694-57.917,26.913c-3.217,5.887,0.161,13.769,6.008,16.64c6.426,3.156,14.55-0.112,17.895-6.204   c4.077,1.347,7.129,3.801,9.473,6.967c-0.004,0.001-0.009,0.001-0.013,0.002c-0.552,0.123-0.444,1.076,0.136,1.006   c0.198-0.024,0.386-0.024,0.583-0.045c1.395,2.101,2.513,4.479,3.408,7.057c-0.316,0.479-0.132,1.214,0.502,1.464   c2.354,7.657,2.985,16.82,3.482,25.41c-0.855,0.167-0.841,1.473,0.089,1.537c0.39,6.821,0.758,13.207,1.921,18.052   c2.453,10.216,6.742,19.341,15.355,25.766c3.636,2.712,7.864,4.789,12.414,6.459c-1.386,3.366-2.424,6.882-3.791,10.275   c-10.42-0.611-20.832-1.031-31.22-1.083c-0.425-0.002-0.684,0.313-0.806,0.668c-3.722,0.027-6.904,3.7-7.206,7.309   c-0.176,2.105,0.543,4.244,1.911,5.852c0.838,0.984,1.71,1.511,2.685,1.809c0.119,0.29,0.322,0.532,0.7,0.596   c36.598,6.189,74.031,8.85,111.033,11.473c27.219,1.93,58.095,6.544,84.169-4.084C247.951,202.514,266.38,184.117,261.769,162.815z    M171.985,195.93c-2.19-0.173-4.367-0.362-6.507-0.568c0.018-0.158,0.04-0.315,0.008-0.493c-0.994-5.515-2.767-11.046-5.437-16.01   c2.856-0.62,5.638-1.413,8.376-2.3c0.329,2.828,0.843,5.641,1.359,8.435C170.446,188.583,170.802,192.465,171.985,195.93z    M162.304,195.047c-8.048-0.822-15.564-1.738-21.863-2.193c-19.184-1.385-38.482-3.235-57.783-4.638   c0.899-2.555,1.736-5.161,2.448-7.762c18.762,3.512,40.414,1.976,55.843,0.965c5.734-0.376,11.454-1.027,17.012-2.111   C159.579,184.532,161.139,189.688,162.304,195.047z M9.376,86.613c-4.247-1.776-6.003-5.891-5.67-10.049   c3.173-13.382,21.986-22.116,32.987-25.15c14.356-3.959,30.373-2.814,43.77,3.895c24.652,12.344,27.74,33.794,40.745,54.992   c0.129,0.21,0.283,0.361,0.449,0.465c1.609,2.503,4.324,4.144,7.304,4.015c4.684,2.173,10.195,2.206,15.557-1.236   c14.078-9.039,3.366-28.283,9.063-41.54c8.916-9.424,20.493-16.16,34.212-13.059c6.547,1.48,12.714,5.09,17.405,9.863   c5.575,5.672,12.803,19.083,6.29,26.297c-0.646-2.149-1.416-4.261-2.417-6.291c-6.881-13.94-22.287-23.263-37.418-16.389   c-6.39,2.902-11.693,8.54-13.305,15.452c-1.028,4.409,0.293,6.769,0.599,11.403c1.406,21.3-8.9,31.268-29.051,26.631   c-34.464-7.93-21.57-53.301-54.788-64.978c-21.398-7.521-41.933,2.254-57.093,17.266c-0.692,0.179-1.128,0.667-1.293,1.275   c-0.014,0.015-0.03,0.029-0.044,0.043c-0.816,0.842-0.206,1.911,0.656,2.129c0.318,0.286,0.719,0.502,1.257,0.527   c1.63,0.076,3.129,0.297,4.539,0.616C19.54,86.387,14.438,88.73,9.376,86.613z M64.463,167.264c2.888,0.338,5.758,0.781,8.681,1.07   c0.809,0.08,0.89-1.128,0.184-1.359c-3.473-1.138-7.324-1.451-11.073-1.486c-2.342-2.064-4.222-4.394-5.811-6.897   c7.802,0.7,15.603,1.429,23.423,1.876c1.182,0.068,1.149-1.711,0-1.82c-8.138-0.771-16.302-1.237-24.46-1.747   c-1.265-2.264-2.233-4.713-3.087-7.238c5.011,0.272,9.998,0.232,14.98-0.554c0.844-0.133,0.646-1.531-0.202-1.49   c-5.097,0.249-10.175,0.503-15.274,0.435c-1.128-3.704-1.914-7.647-2.565-11.722c5.693,0.557,11.436,1.252,17.139,1.237   c0.854-0.002,1.111-1.409,0.209-1.546c-5.795-0.878-11.731-1.042-17.598-1.347c-0.381-2.547-0.715-5.144-1.045-7.773   c2.34,0.064,4.679,0.096,6.997-0.049c1.146-0.072,1.148-1.711,0-1.782c-2.397-0.15-4.817-0.111-7.236-0.043   c-0.291-2.326-0.599-4.674-0.926-7.027c3.788,0.397,7.791,1.069,11.523,0.719c0.791-0.074,1.1-1.297,0.201-1.49   c-3.802-0.814-7.999-0.597-11.931-0.66c-0.391-2.695-0.862-5.393-1.393-8.085c3.934-0.414,7.822-0.311,11.78-0.39   c1.03-0.021,1.362-1.724,0.255-1.881c-4.113-0.582-8.321-0.124-12.4,0.601c-0.267-1.25-0.501-2.505-0.819-3.748   c-0.246-0.961-0.548-1.881-0.833-2.814c4.819,0.428,9.64,0.849,14.477,0.982c1.214,0.033,1.141-1.699,0-1.839   c-5.025-0.619-10.079-0.928-15.131-1.239c-0.874-2.51-1.913-4.884-3.139-7.065c2.635,0.014,5.233,0.261,7.954,0.671   c0.881,0.133,1.283-1.118,0.378-1.371c-2.949-0.826-6.109-0.963-9.197-0.666c-2.057-3.283-4.611-6.032-7.741-8.046   c4.461,0.375,8.923,0.713,13.407,0.875c1.264,0.046,1.215-1.811,0-1.934c-6.032-0.61-12.068-0.914-18.118-1.205   c-1.28-0.434-2.613-0.797-4.054-1.011c2.705-2.189,5.533-4.251,8.467-6.114c7.071-0.016,14.094,0.433,21.112,1.346   c0.949,0.123,1.167-1.493,0.227-1.676c-6.083-1.188-12.183-1.645-18.34-1.48c3.107-1.781,6.324-3.306,9.621-4.526   c0.117,0.092,0.231,0.19,0.415,0.2c5.367,0.287,10.778,0.82,16.153,0.531c0.669-0.036,0.916-1.145,0.169-1.248   c-4.238-0.581-8.534-0.668-12.818-0.756c8.299-2.362,17.057-2.6,25.967,0.553c19.223,6.802,21.37,22.397,26.943,39.169   c4.671,14.055,14.256,22.679,28.752,25.885c10.696,2.366,25.437,2.62,33.541-6.014c0.475-0.507,0.905-1.01,1.294-1.514   c2.852-0.188,5.701-0.405,8.547-0.7c0.963-0.1,1.004-1.584,0-1.536c-2.466,0.119-4.926,0.29-7.384,0.491   c1.537-2.644,2.038-5.454,2.028-8.861c2.808,0.108,5.68-0.052,8.276-0.798c0.85-0.244,0.718-1.631-0.214-1.583   c-2.744,0.14-5.424,0.412-8.133,0.55c-0.276-3.104-1.929-5.862-2.367-8.849c3.026,0.236,6.12,0.375,9.137,0.281   c0.89-0.028,0.892-1.356,0-1.384c-3.05-0.095-6.179,0.046-9.236,0.287c-0.31-3.007-0.266-5.61-0.072-8.032   c5.553,0.365,11.169,0.799,16.712,0.616c1.242-0.041,1.194-1.772,0-1.896c-5.46-0.569-11.032-0.543-16.542-0.571   c0.399-2.917,1.173-5.366,2.226-7.406c4.537,0.673,9.105,1.374,13.656,1.594c0.936,0.045,1.167-1.479,0.224-1.657   c-4.221-0.8-8.542-1.189-12.843-1.572c7.948-11.75,27.155-6.04,35.647,7.031c17.601,27.092-5.175,72.697-33.106,82.993   c-24.977,9.206-60.48,8.091-86.325,3.243C75.439,173.437,69.213,170.765,64.463,167.264z M74.802,177.832   c2.541,0.826,5.143,1.57,7.853,2.151c-0.79,2.652-1.469,5.377-2.065,8.085c-3.339-0.236-6.677-0.455-10.015-0.658   C72.278,184.401,73.943,181.117,74.802,177.832z M247.211,193.505c-7.983,8.452-18.748,13.156-29.813,15.944   c-18.022,4.54-37.391,2.925-55.735,1.823c-42.141-2.532-83.989-7.895-126.057-11.05c-1.699-1.273-3.157-3.427-3.158-5.316   c-0.003-3.27,2.742-4.556,5.326-5.605c0.45-0.183,0.735-0.64,0.819-1.102c45.626,6.365,92.707,8.261,138.676,10.977   c24.864,1.469,63.711,0.327,66.725-32.139c0.052-0.563-0.311-0.888-0.748-1.062c0.833-8.119-2.788-16.309-9.841-20.893   C262.067,141.688,261.43,178.45,247.211,193.505z"></path></g><g></g><g></g><g></g><g></g><g></g><g></g><g></g><g></g><g></g><g></g><g></g><g></g><g></g><g></g><g></g></svg>