<svg xmlns="http://www.w3.org/2000/svg" xmlns:xlink="http://www.w3.org/1999/xlink" fill="currentColor" version="1.1" id="Capa_1" viewBox="0 0 260.696 260.696" xml:space="preserve"><g><path d="M230.627,12.157c-16.133,0.079-30.688,12.993-41.666,23.474c-15.81,15.094-28.396,33.102-40.766,51.009   c-2.994-3.608-7.083-6.344-11.945-7.553c-5.687-1.413-11.783-0.64-16.801,1.921c-17.253-32.627-45.777-65.195-85.509-66.662   C22.043,13.908,9.249,16.891,3.297,28.204c-9.494,18.044,4.597,38.985,3.968,57.468c-0.727,21.352-12.826,40.166-3.486,61.39   c6.146,13.968,18.783,24.102,33.833,26.779c11.777,2.095,21.482-0.211,29.959-5.035c-2.521,9.236-4.141,18.687-4.843,28.213   c-0.165,0.008-0.331,0.018-0.496,0.026c-0.915,0.043-0.925,1.458,0,1.43c0.125-0.004,0.25-0.006,0.375-0.009   c-0.384,6.05-0.39,12.129,0.002,18.204c0.288,4.461-0.215,17.474,3.876,21.929c-0.874,1.345,0.408,3.289,2.027,2.356   c5.472-3.153,10.177-8.025,15.1-11.989c4.896-3.943,9.972-7.724,14.63-11.954c4.859,6.609,11.358,12.4,17.013,18.285   c4.94,5.142,9.859,10.732,16.738,13.197c0.232,0.083,0.411,0.035,0.583-0.018c0.994,0.142,2.035-0.39,1.904-1.661   c-2.25-21.916-1.602-42.859,0.895-63.579c18.139,27.113,50.963,45.228,81.777,52.697c1.356,0.329,2.225-0.804,2.21-1.871   c0.137-0.092,0.242-0.224,0.225-0.445c-0.563-7.357-4.014-14.418-6.511-21.317c-2.732-7.552-5.465-15.104-8.198-22.656   c13.578-3.277,27.005-7.587,40.308-11.8c1.992-0.631,1.404-3.483-0.391-3.513c-1.687-0.601-3.319-1.342-4.87-2.24   c-0.786-0.455-1.503-1.007-2.221-1.554c8.82-3.192,14.428-10.611,16.428-20.196c2.097-10.051-0.696-19.728-2.439-29.535   c-2.818-15.855-0.427-27.216,4.838-41.888C264.427,56.901,263.756,11.994,230.627,12.157z M119.605,84.829   c5.717-3.43,13.613-3.737,19.538-0.827c8.672,4.26,13.006,14.638,9.715,23.859c-3.505,9.822-12.583,11.943-21.658,11.771   c-4.734-1.292-8.655-4.218-11.329-8.054c3.545,1.251,7.491,1.887,11.205,1.202c0.785-0.145,0.602-1.417-0.188-1.388   c-3.933,0.144-7.517,0.04-11.314-1.159c-0.216-0.068-0.376-0.007-0.501,0.099c-1.365-2.282-2.308-4.834-2.758-7.523   c4.028,0.521,8.083,0.977,12.142,1.049c1.028,0.018,0.955-1.422,0-1.549c-4.069-0.543-8.193-0.704-12.299-0.792   c-0.25-2.361-0.133-4.806,0.438-7.26c5.552,0.504,11.139,1.127,16.701,1.206c1.215,0.017,1.141-1.699,0-1.839   c-5.332-0.653-10.753-0.808-16.133-1.049c0.77-2.113,1.988-3.892,3.486-5.382c3.601,0.264,7.231,0.348,10.834,0.305   c0.996-0.012,0.974-1.46,0-1.532c-2.975-0.219-5.973-0.33-8.967-0.354c0.229-0.164,0.437-0.355,0.675-0.508   C119.344,85.031,119.474,84.935,119.605,84.829z M58.837,168.62c-13.734,4.429-28.302,1.193-39.006-7.205   c2.646,0.34,5.293,0.663,7.952,0.858c0.623,0.045,0.779-1.013,0.149-1.103c-3.176-0.456-6.374-0.735-9.571-1.014   c-2.541-2.185-4.785-4.717-6.767-7.468c8.215,0.182,16.45,0.447,24.66,0.193c1.063-0.033,1.063-1.613,0-1.651   c-8.545-0.309-17.119-0.055-25.669,0.081c-1.595-2.419-2.87-5.074-3.946-7.85c3.425,0.135,6.895,0.323,10.281,0.011   c0.776-0.072,0.778-1.137,0-1.209c-3.539-0.326-7.167-0.107-10.743,0.027C6.024,141.85,5.809,141.447,5.67,141   c-0.863-2.769-1.343-5.507-1.58-8.226c8.195,0.27,16.4,0.082,24.494-1.327c0.761-0.133,0.59-1.411-0.184-1.354   c-8.159,0.594-16.261,1.214-24.433,1.196c-0.199-3.814,0.138-7.587,0.718-11.346c3.673,0.103,7.371,0.271,11.027-0.019   c0.798-0.063,0.8-1.179,0-1.243c-3.585-0.284-7.211-0.128-10.813-0.025c0.535-3.145,1.249-6.281,1.988-9.42   c8.377,0.377,16.79,0.181,25.138-0.571c1.063-0.096,1.097-1.735,0-1.685c-8.257,0.374-16.497,0.569-24.759,0.644   c1.029-4.325,2.059-8.661,2.786-13.04c3.287,0.113,6.607,0.241,9.889,0.066c0.931-0.05,0.932-1.397,0-1.447   c-3.215-0.171-6.465-0.051-9.685,0.059c0.082-0.55,0.183-1.098,0.254-1.649c0.349-2.723,0.439-5.296,0.393-7.805   c4.828,0.073,9.654,0.197,14.476-0.076c0.876-0.05,0.877-1.312,0-1.362c-4.83-0.274-9.664-0.149-14.5-0.076   c-0.214-4.722-1.022-9.206-2.016-13.784c3.285,0.083,6.588,0.257,9.87,0.082c0.832-0.044,0.833-1.249,0-1.294   c-3.365-0.179-6.753,0.01-10.12,0.089c-0.738-3.313-1.544-6.677-2.324-10.27c-0.069-0.318-0.141-0.65-0.211-0.972   c5.622,0.455,11.239,0.972,16.88,1.078c0.909,0.017,0.858-1.278,0-1.379c-5.718-0.672-11.469-0.924-17.215-1.246   c-0.744-3.46-1.457-7.111-1.679-10.739c5.057,0.368,10.229,0.763,15.276,0.482c0.819-0.046,0.777-1.142,0-1.243   c-5.03-0.65-10.231-0.635-15.317-0.64c-0.074-3.053,0.224-6.071,1.222-8.925c0.059-0.169,0.139-0.308,0.201-0.474   c7.861,0.059,15.7,0.543,23.559,0.657c1.073,0.016,1.022-1.524,0-1.634c-7.582-0.816-15.27-0.754-22.9-0.58   c1.549-3.441,3.707-6.039,6.238-8.023c0.458,0.279,0.984,0.427,1.53,0.512c0.094,0.267,0.276,0.503,0.635,0.526   c3.624,0.232,7.243,0.497,10.875,0.55c0.914,0.013,0.878-1.31,0-1.396c-2.801-0.273-5.609-0.415-8.417-0.548   c-0.05-0.304-0.279-0.584-0.653-0.591c-0.76-0.015-1.364-0.213-1.946-0.459c8.661-5.286,20.797-4.44,30.231-2.476   c33.614,7.001,56.27,34.589,71.481,63.53c-1.917,1.478-3.555,3.284-4.802,5.381c-3.541-4.447-10.528-6.98-15.762-7.46   c-0.605-0.055-0.672,0.849-0.138,1.02c3.059,0.98,6,2.222,8.709,3.957c2.218,1.421,3.954,3.354,5.989,4.939   c-0.644,1.596-1.095,3.318-1.272,5.18c-0.248,2.616-0.062,5.387,0.503,8.11c-1.868,1.281-3.51,2.762-5.723,3.598   c-2.746,1.037-5.734,1.267-8.624,0.817c-1.118-0.174-1.59,1.352-0.475,1.723c4.673,1.556,11.918,0.892,15.679-2.977   c1.033,3.163,2.576,6.148,4.622,8.582c-11.772,9.005-20.269,22.651-30.335,34.082c-0.309,0.073-0.49,0.3-0.513,0.576   C76.91,158.542,69.096,165.311,58.837,168.62z M130.73,244.93c-11.272-9.285-19.364-22.021-30.84-30.961   c-0.061-0.047-0.133-0.065-0.198-0.103c-0.199-0.151-0.416-0.218-0.675-0.218c-0.705-0.072-1.42,0.247-1.748,0.79   c-5.155,2.979-9.91,6.626-14.607,10.272c-4.782,3.711-10.233,7.464-14.423,11.954c-1.205-2.067-1.863-5.71-2.204-9.856   c1.758,0.053,3.503,0.099,5.262-0.044c0.667-0.054,0.668-0.984,0-1.038c-1.786-0.145-3.559-0.096-5.344-0.042   c-0.148-2.187-0.213-4.482-0.23-6.745c5.282,0.078,10.563,0.17,15.845,0.09c0.844-0.013,0.843-1.289,0-1.311   c-5.281-0.136-10.563-0.099-15.845-0.078c0.001-3,0.08-5.887,0.166-8.316c2.407,0.034,4.811,0.054,7.22-0.056   c0.7-0.032,0.702-1.057,0-1.089c-2.394-0.109-4.784-0.09-7.176-0.057c0.07-1.829,0.136-3.335,0.162-4.294   c0.05-1.834,0.221-3.641,0.347-5.458c7.866-0.186,15.759-0.293,23.586-0.995c0.87-0.078,0.903-1.368,0-1.379   c-7.823-0.097-15.666,0.402-23.488,0.823c0.361-4.472,0.962-8.896,1.701-13.3c0.666,0.151,1.334,0.275,2.004,0.373   c-0.088,0.299,0.04,0.669,0.447,0.677c1.615,0.029,3.22,0.068,4.833-0.018c0.412-0.022,0.517-0.429,0.357-0.695   c0.474-0.292,0.293-1.203-0.357-1.189c-2.397,0.054-4.729-0.005-7.085-0.416c0.607-3.461,1.344-6.907,2.138-10.349   c7.688-0.222,15.429-0.354,23.075-1.053c0.997-0.091,1.037-1.588,0-1.583c-7.56,0.035-15.159,0.629-22.718,1.14   c0.323-1.357,0.621-2.715,0.971-4.07c0.027-0.106,0.007-0.193,0.017-0.292c1.704-1.194,3.348-2.51,4.962-3.884   c4.989-0.244,9.983-0.632,14.953-1.094c0.891-0.083,0.919-1.463,0-1.413c-4.386,0.237-8.78,0.552-13.16,0.95   c3.106-2.805,6.054-5.92,8.928-9.166c5.641,0.045,11.281,0.083,16.923-0.078c0.821-0.023,0.822-1.253,0-1.277   c-5.213-0.148-10.424-0.124-15.637-0.086c2.48-2.862,4.9-5.827,7.301-8.809c0.103,0.105,0.25,0.177,0.453,0.168   c4.855-0.21,9.671-0.127,14.526-0.122c0.957,0.001,0.923-1.379,0-1.464c-4.638-0.428-9.406-0.229-14.041,0.248   c1.967-2.45,3.929-4.886,5.896-7.295c0.099,0.042,0.162,0.126,0.293,0.127c2.818,0.017,5.644,0.107,8.458-0.034   c1.062-0.053,1.064-1.598,0-1.651c-2.471-0.124-4.95-0.071-7.425-0.045c3.943-4.771,7.94-9.351,12.175-13.311   c2.298,2.121,5.046,3.624,8.215,4.115c0.097,0.096,0.133,0.229,0.278,0.291c6.986,3.013,14.913,0.82,20.621-3.969   C129.284,157.376,126.638,203.225,130.73,244.93z M240.365,175.519c-12.333,3.621-24.744,7.302-36.769,11.795   c-1.243-0.749-3.251,0.151-2.632,1.846c2.927,8.019,5.853,16.038,8.78,24.058c2.31,6.328,4.109,13.318,7.686,19.082   c-11.566-2.98-21.854-7.125-31.326-12.244c3.195,0.508,6.491,0.707,9.657,0.706c0.709,0,0.691-1.035,0-1.089   c-4.099-0.324-8.201-0.783-12.301-1.069c-3.199-1.821-6.278-3.796-9.306-5.841c2.935,0.522,6.071,0.753,8.913,0.806   c0.62,0.011,0.781-0.976,0.149-1.103c-3.544-0.714-7.574-1.246-11.209-1.16c-3.613-2.531-7.105-5.254-10.539-8.088   c5.09,1.187,10.353,1.999,15.564,1.883c0.844-0.019,0.82-1.223,0-1.294c-5.862-0.503-11.603-1.033-17.364-2.299   c-0.059-0.013-0.094,0.025-0.148,0.026c-3.36-2.85-6.65-5.86-9.911-8.968c3.489,0.455,6.98,0.931,10.491,1.133   c0.612,0.035,0.768-0.989,0.147-1.087c-3.942-0.619-7.932-0.899-11.907-1.243c-2.516-2.432-5.01-4.964-7.496-7.548   c4.438,0.68,8.964,0.87,13.412,0.248c0.746-0.104,0.56-1.325-0.176-1.304c-5.001,0.142-9.835,0.082-14.774-0.571   c-1.114-1.175-2.229-2.324-3.34-3.533c0.351-2.629,0.801-5.251,1.208-7.876c4.092,0.154,8.198,0.062,12.245-0.589   c0.671-0.108,0.516-1.227-0.161-1.187c-3.977,0.234-7.915,0.472-11.88,0.447c0.377-2.383,0.816-4.766,1.232-7.148   c4.455,0.211,8.918-0.042,13.245-1.187c0.894-0.236,0.505-1.514-0.375-1.362c-4.212,0.725-8.366,1.202-12.625,1.131   c0.73-4.11,1.529-8.225,2.359-12.345c3.763,0.211,7.567,0.162,11.245-0.688c0.758-0.175,0.606-1.415-0.185-1.371   c-3.595,0.198-7.138,0.49-10.724,0.444c0.596-2.914,1.254-5.841,1.894-8.764c2.951-0.01,5.928-0.094,8.834-0.447   c0.76-0.092,0.811-1.231,0-1.226c-2.859,0.02-5.752,0.307-8.615,0.658c0.529-2.399,1.134-4.826,1.686-7.233   c2.514-0.089,4.99,0.074,7.51,0.192c0.537,0.025,0.673-0.855,0.129-0.953c-2.454-0.439-4.957-0.359-7.435-0.113   c0.78-3.38,1.519-6.743,2.366-10.152c11.845,14.513,25.629,26.926,41.299,37.303c12.488,8.27,27.545,18.148,43.332,15.709   c0.474-0.073,0.895-0.222,1.354-0.316C235.557,173.437,237.894,174.709,240.365,175.519z M247.723,121.9   c1.135,7.355,4.717,15.687,2.901,23.055c-4.278,17.356-15.787,26.567-33.514,21.44c-26.106-7.55-50.32-30.78-68.45-50.488   c0.087-0.345,0.169-0.688,0.257-1.033c1.489-1.879,2.71-3.947,3.476-6.182c3.69,2.562,9.787,4.568,14.124,2.867   c1.381-0.542,1.184-2.469-0.351-2.591c-2.381-0.19-4.608,0.238-7.016-0.261c-1.085-0.225-2.127-0.55-3.153-0.965   c-0.789-0.319-1.911-1.178-2.879-1.723c0.662-3.275,0.561-6.558-0.152-9.67c1.749-0.757,3.444-1.525,5.407-1.739   c2.277-0.248,4.333,0.37,6.555,0.617c1.243,0.139,1.666-1.766,0.627-2.316c-3.655-1.931-9.617-1.139-13.125,1.493   c-0.548-1.696-1.265-3.332-2.178-4.856c0.449-0.096,0.882-0.332,1.21-0.796c16.879-23.871,35.143-52.14,61.425-66.748   c12.937-7.19,29.415-6.757,38.036,6.672c4.528,7.052,6.838,16.934,6.907,25.192c0.12,14.425-7.201,26.131-10.48,39.728   C244.991,103.381,246.206,112.077,247.723,121.9z"></path></g><g></g><g></g><g></g><g></g><g></g><g></g><g></g><g></g><g></g><g></g><g></g><g></g><g></g><g></g><g></g></svg>