<svg xmlns="http://www.w3.org/2000/svg" xmlns:xlink="http://www.w3.org/1999/xlink" fill="currentColor" version="1.1" id="Capa_1" viewBox="0 0 269.798 269.798" xml:space="preserve"><g><path d="M209.849,71.589c-3.546-39.565-36.948-74.668-78.627-71.375c-38.843,3.07-68.765,30.448-70.691,68.804   c-0.03,0.004-0.06,0.005-0.09,0.009c-1.033,0.128-1.101,1.689-0.029,1.677c-0.072,2.559-0.029,5.163,0.153,7.813   c2.346,34.266,29.458,63.529,62.838,68.3c-2.414,31.866-1.28,64.233,1.047,96.189c-0.356,0.176-0.333,0.709,0.061,0.881   c0.386,5.253,0.796,10.497,1.235,15.723c0.04,0.468,0.249,0.816,0.528,1.073c0.614,12.721,26.424,11.856,23.349-0.893   c-0.007-0.029-0.025-0.045-0.033-0.073c-0.954-37.288-0.883-74.809-3.599-112.014C184.526,143.519,213.508,112.412,209.849,71.589z    M146.225,260.131c0.01,0.395,0.155,0.693,0.345,0.945c-0.664,4.698-5.844,6.164-10.087,5.506c-3.56-0.552-6.393-2.897-7.697-6.109   c0.138-0.233,0.233-0.506,0.202-0.862c-0.026-0.308-0.042-0.615-0.068-0.922c3.048,0.472,6.346,0.244,9.402,0.056   c0.817-0.05,0.818-1.22,0-1.271c-3.085-0.19-6.413-0.425-9.487,0.065c-0.125-1.547-0.214-3.09-0.329-4.635   c1.471,0.08,2.915,0.015,4.383-0.395c0.46-0.128,0.267-0.819-0.197-0.713c-1.424,0.325-2.818,0.426-4.238,0.392   c-0.2-2.736-0.357-5.467-0.525-8.2c1.661-0.051,3.312-0.2,4.953-0.599c0.496-0.12,0.405-0.977-0.124-0.913   c-1.636,0.201-3.266,0.334-4.9,0.407c-0.17-2.821-0.25-5.635-0.39-8.454c2.498,0.018,4.979-0.097,7.469-0.529   c0.645-0.112,0.503-1.241-0.156-1.155c-2.447,0.32-4.905,0.466-7.367,0.504c-0.154-3.168-0.236-6.332-0.358-9.498   c4.416-0.566,8.852-0.924,13.29-1.281c0.911-0.073,0.94-1.444,0-1.441c-4.485,0.015-8.919,0.488-13.351,1.109   c-0.101-2.716-0.159-5.431-0.241-8.147c2.094,0.206,4.161,0.002,6.174-0.791c0.686-0.27,0.432-1.349-0.313-1.133   c-1.97,0.57-3.907,0.825-5.899,0.663c-0.084-2.85-0.099-5.703-0.166-8.553c2.148,0.106,4.269-0.022,6.364-0.619   c0.582-0.166,0.498-1.179-0.149-1.099c-2.087,0.258-4.151,0.424-6.241,0.407c-0.086-3.766-0.123-7.537-0.189-11.304   c4.329,0.179,8.746,0.355,12.998-0.05c0.84-0.08,0.842-1.228,0-1.308c-4.26-0.405-8.685-0.229-13.021-0.049   c-0.052-3.074-0.058-6.164-0.103-9.24c1.171-0.019,2.342-0.013,3.517-0.088c0.756-0.049,0.757-1.127,0-1.176   c-1.18-0.076-2.356-0.069-3.532-0.088c-0.026-1.863-0.043-3.73-0.062-5.597c0.59-0.103,1.166-0.29,1.728-0.552   c1.743,0.087,3.377-0.083,5.071-0.645c0.765-0.253,0.456-1.377-0.333-1.207c-1.792,0.386-3.58,0.481-5.399,0.3   c-0.396-0.039-0.589,0.206-0.669,0.495c-0.139,0.006-0.279,0.006-0.417,0.005c-0.023-2.264-0.047-4.526-0.075-6.787   c0.051,0.006,0.071,0.05,0.128,0.047c4.897-0.301,9.785-0.088,14.681-0.276c0.975-0.037,0.923-1.365,0-1.479   c-4.847-0.597-9.828-0.249-14.681,0.143c-0.064,0.005-0.089,0.058-0.145,0.074c-0.036-2.963-0.062-5.931-0.099-8.894   c2.631,0.519,5.364,0.882,7.985,0.252c0.613-0.147,0.41-0.964-0.138-1.024c-2.621-0.289-5.239-0.179-7.86-0.493   c-0.026-2.255-0.063-4.503-0.075-6.766c2.708,0.287,5.442,0.46,8.215,0.412c0.253,0.378,0.658,0.659,1.256,0.671   c2.941,0.063,5.833-0.054,8.684-0.291C143.218,185.292,145.25,222.805,146.225,260.131z M138.178,144.889   c-0.073-0.069-0.128-0.154-0.243-0.181c-3.676-0.86-7.235-2.157-10.676-3.753c2.009-0.053,4.01-0.13,6.009-0.394   c0.659-0.087,0.704-1.031,0-1.062c-0.59-0.026-5.484,0.154-8.295,0.323c-2.493-1.288-4.88-2.802-7.203-4.427   c7.018,0.244,14.038,0.498,21.059,0.451c0.809-0.005,0.802-1.215,0-1.251c-7.584-0.348-15.179-0.347-22.772-0.383   c-2.242-1.675-4.373-3.521-6.417-5.473c3.653,0.14,7.354,0.238,10.986,0.034c0.792-0.045,0.794-1.188,0-1.232   c-4.02-0.226-8.133-0.096-12.162,0.07c-2.061-2.059-3.999-4.255-5.815-6.555c2.305,0.541,4.62,0.816,6.981,0.488   c0.548-0.076,0.404-0.953-0.128-0.95c-2.355,0.013-4.641,0.009-6.965-0.434c-0.195-0.037-0.329,0.06-0.42,0.187   c-1.69-2.193-3.247-4.49-4.691-6.856c2.671,0.058,5.364,0.216,8.031,0.046c0.707-0.045,0.708-1.055,0-1.1   c-2.688-0.172-5.4-0.01-8.09,0.047c-0.202,0.004-0.319,0.113-0.395,0.247c-1.406-2.365-2.629-4.825-3.766-7.321   c4.918-0.444,9.843-0.471,14.778-0.535c0.61-0.008,0.583-0.867,0-0.929c-5.074-0.538-10.113-0.262-15.174,0.311   c-0.039,0.004-0.054,0.039-0.09,0.05c-1.035-2.375-1.906-4.807-2.678-7.263c2.017,0.104,4.032-0.017,6.004-0.524   c0.86-0.221,0.476-1.423-0.358-1.298c-2.049,0.307-4.056,0.458-6.099,0.413c-0.743-2.546-1.324-5.124-1.759-7.717   c3.02,0.007,6.007,0.212,9.032,0.507c0.803,0.078,0.989-1.263,0.192-1.415c-3.104-0.593-6.285-0.696-9.443-0.582   c-0.389-2.711-0.559-5.436-0.585-8.157c4.643-0.203,9.233,0.027,13.9,0.271c0.67,0.035,0.843-1.084,0.161-1.192   c-4.657-0.734-9.396-0.627-14.086-0.177c0.027-2.717,0.3-5.421,0.727-8.107c2.539,0.032,5.075,0.063,7.617,0.022   c0.768-0.012,0.77-1.182,0-1.195c-2.484-0.04-4.962-0.008-7.442,0.022c0.066-0.361,0.091-0.726,0.165-1.086   c0.378-1.833,0.907-3.52,1.428-5.214c1.857,0.018,3.703-0.087,5.537-0.504c0.903-0.205,0.51-1.528-0.378-1.371   c-1.594,0.28-3.179,0.412-4.772,0.461c0.572-1.698,1.266-3.268,1.975-4.821c8.041-0.074,16.221-0.068,24.216-0.967   c0.796-0.089,0.837-1.242,0-1.27c-7.851-0.263-15.811,0.355-23.652,0.905c2.022-4.106,4.559-7.614,7.416-10.654   c3.898,0.061,7.789,0.13,11.687-0.066c0.805-0.04,0.806-1.211,0-1.252c-3.437-0.172-6.871-0.134-10.308-0.083   c2.075-2.007,4.325-3.746,6.7-5.236c5.065,0.22,10.213,0.353,15.238-0.012c0.792-0.057,0.794-1.175,0-1.232   c-4.227-0.307-8.543-0.262-12.823-0.11c16.966-9.11,39.597-5.976,55.824,9.335c15.038,21.332,10.592,57.532-15.76,67.751   c-8.916,3.457-18.863,2.575-26.855-1.989c2.064,0.068,4.133,0.095,6.187-0.035c0.658-0.041,0.66-0.982,0-1.024   c-2.606-0.164-5.238-0.101-7.85,0.022c-2.246-1.483-4.28-3.302-6.085-5.384c1.947,0.153,3.891,0.318,5.848,0.367   c0.784,0.02,0.747-1.114,0-1.195c-2.303-0.249-4.606-0.367-6.917-0.485c-0.967-1.255-1.876-2.57-2.65-4.013   c-0.311-0.58-0.564-1.164-0.83-1.747c3.293,0.349,6.587,0.708,9.892,0.887c0.825,0.045,0.773-1.149,0-1.251   c-3.48-0.458-6.985-0.718-10.483-1c-0.812-2.06-1.316-4.13-1.606-6.195c0.164-0.032,0.329-0.065,0.493-0.1   c0.049,0.21,0.185,0.399,0.469,0.407c4.202,0.105,8.44,0.362,12.641,0.161c0.89-0.042,0.892-1.342,0-1.384   c-3.752-0.179-7.531,0.003-11.291,0.119c-0.011-0.187-0.123-0.37-0.344-0.385c-0.681-0.044-1.399-0.126-2.116-0.169   c-0.178-1.984-0.173-3.96,0.06-5.91c2.273,0.172,4.54,0.009,6.764-0.505c0.726-0.168,0.405-1.21-0.302-1.097   c-2.114,0.339-4.208,0.451-6.329,0.496c0.378-2.399,1.079-4.745,1.994-7.029c4.094-0.35,8.204-0.658,12.23-1.469   c0.687-0.138,0.523-1.221-0.164-1.211c-3.816,0.06-7.614,0.57-11.403,1.067c1.007-2.201,2.257-4.316,3.668-6.336   c3.258-0.104,6.515-0.199,9.762-0.515c0.798-0.078,0.834-1.265,0-1.271c-2.894-0.019-5.78,0.141-8.667,0.31   c1.063-1.396,2.257-2.694,3.467-3.973c2.07-0.117,4.139-0.228,6.207-0.364c0.573-0.038,0.567-0.945,0-0.891   c-1.87,0.177-3.739,0.375-5.609,0.569c0.127-0.128,0.226-0.28,0.355-0.406c9.094-3.961,20.539-0.899,26.877,8.094   c4.409,6.254,5.356,14.336-1.111,19.431c-9.041,7.124-14.734-2.607-15.189-11.015c-0.121-2.243-3.369-2.248-3.489,0   c-0.469,8.816,3.199,18.204,13.503,17.72c9.602-0.451,15.096-10.101,13.647-19.009c-3.15-19.37-33.523-28.877-43.024-10.094   c-5.447,7.094-7.248,15.714-6.206,23.984c-0.123,0.26-0.094,0.557,0.113,0.742c2.422,16.424,16.222,31.206,36.242,29.353   c32.612-3.018,44.684-45.418,29.479-70.66c0.279-0.381,0.366-0.884,0.049-1.359c-20.89-31.197-68.244-26.427-83.299,7.874   c-3.073,7.002-4.4,14.829-4.364,22.861c-0.53,0.12-0.551,0.921-0.001,0.928c0.507,27.849,18.161,58.014,44.18,65.826   c-14.294-2.505-27.614-7.997-38.407-16.472c1.3,0.024,2.599,0.042,3.896,0.006c0.805-0.022,0.806-1.229,0-1.252   c-1.812-0.05-3.628-0.018-5.444,0.029c-1.831-1.522-3.55-3.169-5.215-4.873c2.375,0.036,4.749,0.056,7.118-0.067   c0.683-0.036,0.684-1.026,0-1.062c-2.738-0.143-5.485-0.097-8.229-0.052c-1.875-2.016-3.617-4.167-5.242-6.424   c4.152,0.132,8.346,0.327,12.46-0.037c0.694-0.061,0.695-1.019,0-1.081c-4.379-0.388-8.848-0.143-13.26-0.015   c-1.327-1.929-2.547-3.955-3.678-6.056c1.992,0.262,3.993,0.216,5.979-0.353c0.642-0.184,0.354-1.053-0.267-0.969   c-2.119,0.286-4.174,0.419-6.249,0.201c-1.373-2.669-2.581-5.474-3.621-8.409c2.148-0.102,4.298-0.202,6.428-0.487   c0.77-0.103,0.832-1.252,0-1.251c-2.294,0-4.583,0.214-6.869,0.412c-0.853-2.578-1.566-5.263-2.127-8.057   c5.191,0.12,10.395,0.288,15.573-0.077c0.89-0.063,0.891-1.321,0-1.384c-5.27-0.372-10.567-0.191-15.852-0.07   c-0.467-2.636-0.789-5.243-0.978-7.817c2.052-0.257,4.09-0.306,6.211-0.411c0.651-0.033,0.887-1.11,0.164-1.211   c-2.112-0.294-4.287-0.075-6.403,0.359c-0.127-2.283-0.136-4.535-0.054-6.758c4.117-0.126,8.228-0.188,12.358-0.171   c1.151,0.005,1.115-1.668,0-1.763c-4.045-0.344-8.144-0.34-12.206-0.033c0.198-3.026,0.652-5.964,1.222-8.856   c1.877-0.173,3.75-0.369,5.573-0.861c0.619-0.167,0.494-1.118-0.152-1.118c-1.727,0.002-3.431,0.258-5.132,0.549   c0.519-2.363,1.203-4.656,1.959-6.914c4.083-0.321,8.182-0.424,12.276-0.461c0.894-0.008,0.86-1.284,0-1.365   c-3.93-0.373-7.797-0.239-11.691,0.159c1.12-3.071,2.462-6.031,3.999-8.87c4.092,0.204,8.18,0.198,12.259-0.325   c0.866-0.111,0.929-1.433,0-1.403c-3.815,0.124-7.624,0.276-11.437,0.324c1.848-3.219,3.976-6.256,6.326-9.115   c3.383,0.041,6.763,0.06,10.151-0.031c1.012-0.027,1.014-1.547,0-1.574c-2.918-0.079-5.831-0.074-8.745-0.047   c2.675-3.047,5.651-5.839,8.86-8.384c5.694,0.457,11.355,0.637,17.075,0.247c0.867-0.059,0.888-1.373,0-1.365   c-5.146,0.046-10.296,0.039-15.441-0.111c2.277-1.699,4.687-3.25,7.19-4.68c5.615-0.247,11.238-0.054,16.847-0.344   c0.877-0.045,0.828-1.218,0-1.327c-4.443-0.586-8.947-0.475-13.419-0.15c3.542-1.776,7.293-3.253,11.195-4.468   c4.118-0.079,8.244-0.142,12.339-0.461c1.105-0.086,1.138-1.759,0-1.744c-1.523,0.02-3.049,0.128-4.575,0.205   c2.184-0.431,4.409-0.78,6.68-1.025c35.7-3.853,69.635,21.458,76.426,56.772C212.937,107.254,183.042,142.47,138.178,144.889z"></path></g><g></g><g></g><g></g><g></g><g></g><g></g><g></g><g></g><g></g><g></g><g></g><g></g><g></g><g></g><g></g></svg>