<svg xmlns="http://www.w3.org/2000/svg" xmlns:xlink="http://www.w3.org/1999/xlink" fill="currentColor" version="1.1" id="Capa_1" viewBox="0 0 250.218 250.218" xml:space="preserve"><g><path d="M144.921,105.02c-2.332-5.942-9.364-11.024-15.52-6.753c-2.868,1.989-4.093,5.62-3.792,8.994   c0.227,2.545,1.286,6.924,4.515,6.777c0.835-0.038,1.372-1.092,0.711-1.716c-3.144-2.969-1.99-10.656,2.382-11.651   c4.077-0.929,6.731,2.582,8.204,5.824C142.307,108.449,145.715,107.046,144.921,105.02z"></path><path d="M178.853,85.268c-6.098-0.374-9.971,6.49-8.167,11.885c0.375,1.121,2.157,1.293,2.45,0c0.66-2.91,1.213-7.934,5.335-7.735   c4.48,0.216,3.917,5.308,4.87,8.212c0.432,1.314,2.65,1.974,3.31,0.433C188.884,92.845,184.603,85.62,178.853,85.268z"></path><path d="M235.686,122.188c-7.946-4.989-16.626-8.763-25.675-11.522c0.005-0.022,0.017-0.033,0.021-0.056   c3.308-20.893-2.368-37.066-12.853-48.338c0.476-0.323,0.811-0.885,0.71-1.592c-1.348-9.417-5.702-16.328-11.863-21.212   c-7.966-46.166-51.867-46.55-85.887-27.979c-0.013-0.022-0.011-0.043-0.025-0.065c-4.021-6.341-12.847-7.972-18.6-2.894   c-2.839,2.506-4.61,6.213-4.645,10.01c-0.022,2.349,0.619,6.053,2.647,7.766c-20.712,19.389-29.998,46.217-8.039,68.931   c-0.503,8.18,2.669,15.424,11.843,20.121c0.9,8.391,3.292,16.503,7.091,23.847c-5.623,9.973-7.022,18.803-5.474,26.478   c-0.033,0.038-0.077,0.042-0.108,0.087c-10.51,15.24-27.133,21.875-43.058,29.868c-7.755,3.892-18.391,7.728-23.662,15.256   c-7.023,10.031-4.894,27.197,4.839,34.8c13.435,10.494,31.384,0.458,43.519-7.151c18.29-11.468,33.321-26.657,45.341-44.497   c13.308,6.002,29.273,8.729,42.732,7.984c17.427-0.963,35.347-7.56,46.628-21.426c9.4-11.554,12.439-26.147,0.159-35.859   c2.769-3.886,5.161-8.082,6.976-12.642c9.348-1.547,18.415-3.868,26.649-7.142c0.309-0.123,0.496-0.323,0.619-0.54   C236.323,124.052,236.552,122.732,235.686,122.188z M83.89,10.382c4.444-3.269,10.634-2.097,13.556,2.603   c0.004,0.007,0.01,0.009,0.015,0.015c-5.919,3.458-11.493,7.481-16.463,11.933C77.962,20.501,79.748,13.428,83.89,10.382z    M66.686,82.196c1.2,0.109,2.419,0.03,3.63-0.217c0.837-0.17,0.663-1.59-0.204-1.508c-1.367,0.128-2.688,0.063-4.014-0.05   c-0.391-1.219-0.677-2.439-0.953-3.659c3.007,0.071,6.015,0.133,9.024,0.055c0.732-0.019,0.733-1.119,0-1.138   c-3.095-0.081-6.19-0.013-9.285,0.061c-0.453-2.263-0.658-4.519-0.739-6.768c2.551,0.22,5.102,0.425,7.662,0.498   c0.782,0.022,0.749-1.118,0-1.195c-2.565-0.263-5.137-0.391-7.712-0.505c-0.011-1.455,0.073-2.903,0.207-4.345   c3.618-0.265,7.236-0.337,10.875-0.283c0.883,0.013,0.844-1.259,0-1.346c-3.58-0.369-7.14-0.243-10.693,0.15   c0.224-1.764,0.582-3.509,1.008-5.243c4.13,0.045,8.252,0.258,12.383,0.396c0.967,0.032,0.93-1.387,0-1.479   c-4.006-0.396-8.027-0.386-12.048-0.308c0.71-2.562,1.702-5.062,2.813-7.528c8.616,0.215,17.16,0.988,25.739,1.803   c0.968,0.092,1.205-1.567,0.232-1.713c-8.431-1.266-16.936-1.489-25.444-1.2c1.186-2.487,2.603-4.898,4.144-7.255   c5.007,0.041,10.006,0.091,15.014,0.009c0.768-0.013,0.769-1.182,0-1.194c-4.758-0.078-9.509-0.031-14.264,0.008   c2.085-3.045,4.53-5.903,7.122-8.657c4.861,0.209,9.709,0.603,14.557,1.017c1.138,0.097,1.082-1.6,0-1.745   c-4.336-0.58-8.688-0.774-13.051-0.844c2.404-2.415,4.98-4.692,7.689-6.824c4.832,0.018,9.647,0.335,14.465,0.702   c1.041,0.08,1.299-1.677,0.249-1.844c-4.03-0.642-8.059-0.863-12.112-0.834c1.399-1.011,2.826-1.988,4.296-2.905   c1.258-0.785,2.526-1.457,3.792-2.164c7.837,1.22,16.107,1.411,23.999,0.895c1.051-0.069,1.072-1.627,0-1.649   c-7.29-0.15-14.614-0.387-21.909-0.438c2.669-1.397,5.349-2.556,8.029-3.605c1.066,0.156,2.166,0.056,3.249-0.145   c0.1,0.168,0.253,0.301,0.518,0.299c5.785-0.056,11.448,0.608,17.193,1.158c0.924,0.088,1.124-1.425,0.22-1.62   c-5.302-1.143-10.767-1.222-16.171-0.922c-0.039-0.025-0.065-0.064-0.118-0.071c-0.345-0.047-0.7-0.095-1.056-0.141   c27.405-9.033,54.133,0.293,67.508,29.094c-20.593-12.611-56.121-7.029-74.355,4.794c-11.645,7.55-33.222,31.033-36.364,50.481   C69.599,88.945,67.932,85.576,66.686,82.196z M83.185,102.147c-0.201,0.194-0.211,0.515-0.066,0.768   c-0.261,3.462-0.285,6.914-0.028,10.326c-11.274-11.594-6.679-30.216,1.429-42.414c7.285-10.961,16.454-21.143,27.955-27.795   c24.052-13.913,73.388-15.772,82.021,16.558C162.583,29.929,94.501,40.068,84.043,95.623   C83.634,97.797,83.374,99.973,83.185,102.147z M91.62,141.492c2.385,4.194,5.282,8.064,8.549,11.607   c-0.082,0.061-0.186,0.078-0.252,0.165c-5.414,7.182-6.227,19.065-3.097,27.826C86.927,170.21,87.076,155.814,91.62,141.492z    M44.305,245.793c-3.697-0.954-7.007-1.993-9.939-3.116c2.265-0.009,4.528-0.086,6.769-0.331c0.686-0.075,0.722-1.123,0-1.1   c-3.118,0.102-6.219,0.254-9.324,0.349c-1.338-0.584-2.552-1.195-3.703-1.82c1.875,0.082,3.75,0.076,5.609-0.092   c0.778-0.07,0.806-1.217,0-1.232c-2.711-0.054-5.41-0.068-8.11-0.154c-1.46-0.954-2.722-1.952-3.787-2.993   c2.732-0.076,5.466-0.135,8.195-0.298c0.665-0.04,0.675-1.062,0-1.043c-3,0.085-5.995,0.284-8.991,0.465   c-1.48-1.649-2.432-3.415-2.965-5.274c5.422-0.079,11.151-0.599,16.176-2.579c0.798-0.314,0.506-1.469-0.358-1.298   c-5.406,1.072-10.581,2.294-16.077,2.635c-0.338-1.983-0.123-4.088,0.558-6.297c2.945-0.255,5.954-0.434,8.789-1.127   c0.698-0.171,0.546-1.253-0.169-1.248c-2.693,0.02-5.43,0.515-8.128,0.962c0.842-2.115,2.155-4.333,3.898-6.647   c1.747-0.101,3.491-0.229,5.24-0.438c0.812-0.097,0.863-1.335,0-1.308c-1.347,0.042-2.683,0.138-4.017,0.247   c1.339-1.628,2.822-3.287,4.609-5.014c0.985-0.853,2.036-1.66,3.145-2.428c2.318,14.428,11.122,29.763,24.88,35.806   C52.695,242.607,48.605,244.42,44.305,245.793z M78.68,225.809c-6.236,5.05-13.006,9.664-20.076,13.518   c-12.769-9.276-22.239-19.882-24.272-36.36c8.144-4.902,18.579-8.275,28.077-12.615c3.027,12.403,11.983,23.711,23.721,28.9   C83.722,221.507,81.265,223.717,78.68,225.809z M87.686,217.801c-2.37-1.47-4.544-3.064-6.592-4.745   c2.695,0.066,5.384,0.011,8.06-0.388c0.631-0.094,0.486-1.159-0.151-1.117c-3.136,0.206-6.254,0.365-9.395,0.267   c-1.447-1.278-2.759-2.653-4.029-4.061c6.139-0.284,12.295-0.826,18.305-2.129c0.737-0.16,0.414-1.234-0.308-1.115   c-6.187,1.023-12.335,2.059-18.579,2.659c-1.447-1.66-2.728-3.45-3.932-5.304c3.337,0.132,6.672,0.11,9.983-0.377   c0.571-0.084,0.436-1.033-0.136-1.006c-3.517,0.169-7.015,0.364-10.537,0.267c-0.983-1.611-1.862-3.31-2.675-5.067   c2.606-0.072,5.211-0.135,7.816-0.262c0.703-0.034,0.711-1.118,0-1.1c-2.759,0.072-5.515,0.211-8.271,0.341   c-0.738-1.693-1.398-3.454-1.962-5.304c7.994,0.086,16.021-0.162,23.908-1.522c0.801-0.138,0.614-1.452-0.191-1.415   c-6.963,0.314-13.899,0.836-20.859,1.078c2.606-1.409,5.057-2.959,7.313-4.68c3.728-0.245,7.457-0.415,11.187-0.65   c0.943-0.06,0.935-1.386,0-1.46c-3.005-0.239-6.052-0.085-9.047,0.351c1.21-1.064,2.307-2.223,3.345-3.433   c1.904-0.156,3.802-0.313,5.701-0.561c0.877-0.115,0.941-1.459,0-1.422c-1.444,0.057-2.878,0.194-4.313,0.309   c1.356-1.838,2.506-3.849,3.392-6.08c-0.094,0.238,0.313,0.411,0.416,0.175c0.003-0.005,0.004-0.008,0.006-0.013   c3.576,9.691,12.109,17.263,22.721,22.612C102.574,201.734,95.581,210.184,87.686,217.801z M117.283,183.571   c0.19,2.695,0.325,7.708,2.1,10.398c-2.565-0.76-5.086-1.621-7.49-2.638c-0.179-0.122-0.373-0.215-0.587-0.269   c-2.244-0.979-4.384-2.078-6.378-3.312c3.19,0.488,6.561,0.632,9.687,0.705c0.624,0.014,0.797-1.02,0.152-1.118   c-3.836-0.578-8.028-1.136-11.919-0.974c-1.231-0.883-2.395-1.79-3.455-2.736c-0.107-0.504-0.207-1.001-0.313-1.502   c2.371,0.137,4.732,0.273,7.11,0.258c0.757-0.005,0.729-1.087,0-1.157c-2.458-0.237-4.912-0.312-7.379-0.392   c-0.307-1.498-0.566-2.993-0.782-4.492c4.176,0.37,8.341,0.757,12.538,0.775c0.825,0.004,0.781-1.164,0-1.251   c-4.225-0.476-8.461-0.575-12.705-0.697c-0.241-2.037-0.336-4.095-0.183-6.206c2.724,0.145,5.447,0.305,8.176,0.332   c0.886,0.009,0.869-1.307,0-1.365c-2.663-0.178-5.331-0.227-7.998-0.29c0.188-1.485,0.518-2.902,0.895-4.299   c2.367,0.138,4.735,0.284,7.104,0.281c0.963-0.001,0.938-1.406,0-1.479c-2.224-0.174-4.457-0.216-6.689-0.257   c0.736-2.415,1.619-4.783,2.443-7.258c5.124,5.189,11.207,9.479,18.117,12.575C117.555,172.265,116.898,178.122,117.283,183.571z    M140.341,197.838c-5.852-0.532-12.316-1.592-18.601-3.263c0.002-0.176-0.069-0.34-0.219-0.442   c-0.067-0.046-0.134-0.092-0.201-0.137c-0.265-0.181-0.544,0.017-0.619,0.273c-0.128-1.513-0.772-8.102-0.733-7.736   c-0.213-1.958-0.289-3.966-0.239-5.935c0.11-4.352,1.21-8.288,2.212-12.43c2.489,0.994,5.075,1.841,7.767,2.508   c6.643,1.646,13.435,2.208,20.135,1.822c-1.411,9.038,0.672,18.239,6.275,25.52C150.86,198.41,145.559,198.312,140.341,197.838z    M173.878,194.404c-5.121,1.836-10.457,2.919-15.858,3.454c0-0.144,0.027-0.289-0.062-0.433c-0.851-1.382-1.581-2.784-2.251-4.197   c3.535,0.437,7.171,0.664,10.684,0.075c0.787-0.132,0.592-1.393-0.187-1.378c-3.746,0.073-7.396,0.289-11.135-0.057   c-0.715-1.669-1.271-3.369-1.724-5.091c7.756,0.327,15.544,0.588,23.301,0.25c0.949-0.041,0.954-1.446,0-1.479   c-7.85-0.271-15.719-0.124-23.574-0.102c-0.485-2.193-0.757-4.433-0.814-6.722c4.425,0.22,8.864,0.306,13.267-0.252   c0.855-0.108,0.917-1.398,0-1.384c-4.423,0.066-8.831,0.31-13.255,0.277c0.02-1.337,0.113-2.691,0.295-4.067   c6.787,0.123,13.584,0.354,20.371,0.11c0.964-0.035,0.965-1.463,0-1.498c-6.133-0.22-12.276-0.052-18.412,0.073   c8.827-1.116,17.38-3.861,25.097-8.098c0.671,7.739,5.874,15.432,12.092,19.867C185.169,188.987,178.05,192.908,173.878,194.404z    M192.957,182.734c-2.91-2.66-5.504-5.572-7.411-9.068c-1.969-3.611-2.709-7.278-3.604-11.148   c6.563-3.946,12.482-8.913,17.292-14.9C213.747,159.06,204.662,172.947,192.957,182.734z M146.132,169.189   c-8.305,0.094-16.073-1.556-23.126-4.483c2.828-0.013,5.648,0.105,8.469,0.354c0.639,0.057,0.617-0.911,0-0.986   c-3.363-0.407-6.73-0.465-10.113-0.309c-0.142,0.007-0.245,0.069-0.32,0.152c-2.974-1.364-5.792-2.986-8.46-4.808   c5.169,0.215,10.353,0.31,15.523,0.332c0.832,0.003,0.828-1.261,0-1.289c-5.723-0.192-11.468-0.317-17.195-0.259   c-2.243-1.652-4.348-3.472-6.33-5.418c2.108,0.202,4.22,0.395,6.334,0.402c0.506,0.002,0.654-0.831,0.123-0.913   c-2.519-0.386-5.073-0.519-7.618-0.676c-1.696-1.761-3.25-3.652-4.721-5.609c7.781,0.214,15.552,0.427,23.338,0.348   c0.832-0.008,0.828-1.256,0-1.289c-8.08-0.323-16.154-0.335-24.238-0.354c-1.504-2.114-2.829-4.356-4.06-6.655   c2.472,0.065,4.931,0.191,7.398-0.029c0.561-0.05,0.562-0.822,0-0.872c-2.473-0.22-4.936-0.094-7.416-0.028   c-0.182,0.005-0.289,0.1-0.361,0.219c-1.124-2.166-2.099-4.418-2.966-6.72c5.379,0.049,10.764,0.182,16.137-0.077   c0.914-0.044,0.915-1.378,0-1.422c-5.567-0.268-11.148-0.115-16.72-0.071c-0.716-2.069-1.314-4.189-1.812-6.346   c2.357,0.043,4.711,0.08,7.07,0.01c0.818-0.024,0.819-1.246,0-1.271c-2.433-0.073-4.862-0.032-7.294,0.014   c-0.435-2.082-0.733-4.208-0.96-6.353c3.314,0.061,6.628,0.13,9.94-0.03c0.963-0.046,0.965-1.451,0-1.498   c-3.365-0.162-6.731-0.089-10.098-0.027c-0.257-3.208-0.276-6.473,0.007-9.79c4.938,0.304,9.852,0.424,14.809,0.062   c0.819-0.06,0.84-1.274,0-1.289c-4.883-0.091-9.765-0.08-14.647-0.172c0.26-2.454,0.675-4.83,1.162-7.166   c2.359-0.105,4.716-0.076,7.078-0.156c0.607-0.021,0.814-1.021,0.152-1.118c-2.315-0.338-4.62-0.255-6.93-0.02   c0.519-2.271,1.183-4.457,1.91-6.603c5.995,0.392,12.012,0.763,18.015,0.779c1.281,0.003,1.254-1.883,0-1.972   c-5.782-0.41-11.601-0.487-17.403-0.538c0.806-2.174,1.751-4.256,2.765-6.285c0.017,0.007,0.01,0.033,0.028,0.038   c4.84,1.348,10.971,0.742,15.962,0.637c0.946-0.02,0.933-1.401,0-1.46c-4.856-0.308-10.734-1.1-15.554-0.092   c1.425-2.74,3.059-5.319,4.849-7.763c0.091,0.033,0.142,0.112,0.254,0.117c8.668,0.363,17.314,0.845,25.959,1.596   c0.947,0.082,1.18-1.534,0.226-1.676c-8.34-1.243-16.734-1.865-25.168-1.739c2.102-2.662,4.478-5.066,7.003-7.309   c5.531-0.072,11.058,0.065,16.59-0.005c0.77-0.01,0.74-1.103,0-1.176c-5.048-0.495-10.086-0.416-15.133-0.149   c2.95-2.444,6.184-4.564,9.621-6.409c5.546,0.355,11.079,0.547,16.634,0.195c1.026-0.065,1.047-1.604,0-1.612   c-4.575-0.034-9.148-0.015-13.721-0.077c7.218-3.372,15.352-5.434,24.233-5.91c37.459-2.005,66.864,24.688,61.365,63.533   c0,0.003,0.001,0.005,0.001,0.008c-16.028-4.403-33.083-5.676-49.302-4.592c-1.003,0.067-1.602,0.722-1.821,1.482   c-4.061,2.91-3.628,12.452-2.863,16.449c0.596,3.112,2.907,10.791,6.775,10.604c0.18,0.076,0.366,0.146,0.59,0.165   c14.114,1.207,29.869,0.958,45.043-1.255C192.893,154.502,172.278,168.892,146.132,169.189z M160.101,130.325   c-0.142,0.001-0.248,0.048-0.371,0.073c-1.034-0.745-1.79-2.015-2.352-3.454c3.496,0.156,7.008,0.391,10.503,0.313   c0.987-0.022,0.963-1.44,0-1.517c-3.651-0.291-7.341-0.239-11.005-0.296c-0.345-1.21-0.572-2.447-0.726-3.569   c7.402,0.256,14.795,0.755,22.18,1.301c0.965,0.071,0.921-1.366,0-1.479c-7.434-0.914-14.871-1.271-22.353-1.344   c-0.028-0.326-0.056-0.654-0.071-0.924c-0.036-0.664-0.063-1.869-0.016-3.213c0.067,0.027,0.107,0.084,0.193,0.088   c3.586,0.189,7.199,0.152,10.786,0.028c0.83-0.029,0.831-1.261,0-1.289c-3.586-0.124-7.201-0.161-10.786,0.028   c-0.06,0.003-0.084,0.047-0.135,0.062c0.058-0.84,0.174-1.678,0.324-2.483c3.067,0.259,6.176,0.41,9.25,0.406   c0.961-0.001,0.941-1.413,0-1.479c-2.965-0.208-5.973-0.27-8.952-0.232c0.314-1.032,0.757-1.866,1.402-2.238   c26.484-1.117,49.25,4.869,73.531,14.118C207.426,126.613,184.627,130.179,160.101,130.325z"></path></g><g></g><g></g><g></g><g></g><g></g><g></g><g></g><g></g><g></g><g></g><g></g><g></g><g></g><g></g><g></g></svg>