<svg xmlns="http://www.w3.org/2000/svg" xmlns:xlink="http://www.w3.org/1999/xlink" fill="currentColor" version="1.1" id="Capa_1" viewBox="0 0 288.052 288.052" xml:space="preserve"><g><path d="M119.452,119.362c-2.354-0.37-5.194,0.261-7.484,0.832c-0.811,0.202-0.666,1.56,0.201,1.49   c2.344-0.189,5.022-0.121,7.283-0.749C120.174,120.734,120.282,119.492,119.452,119.362z"></path><path d="M136.01,118.187c-2.545-0.651-5.363-0.478-7.889,0.216c-0.919,0.253-0.774,1.793,0.232,1.713   c2.498-0.199,4.916-0.148,7.417-0.16C136.775,119.951,137.009,118.442,136.01,118.187z"></path><path d="M151.633,120.556c-2.383-1.069-5.214-1.109-7.788-1.119c-0.955-0.004-0.92,1.375,0,1.46   c2.477,0.229,4.936,0.959,7.414,1.037C151.957,121.956,152.317,120.863,151.633,120.556z"></path><path d="M168.341,122.686c-2.257-0.564-4.648-0.745-6.956-1.022c-0.884-0.106-1.095,1.412-0.211,1.564   c2.292,0.394,4.631,0.899,6.958,1.003C169.019,124.271,169.199,122.9,168.341,122.686z"></path><path d="M182.851,127.064c-2.329-0.87-4.742-1.501-7.128-2.195c-0.995-0.29-1.38,1.198-0.424,1.536   c2.346,0.828,4.676,1.726,7.078,2.378C183.502,129.088,183.909,127.459,182.851,127.064z"></path><path d="M191.364,130.744c-0.977-0.64-1.995-1.153-3.037-1.677c-0.714-0.359-1.332,0.668-0.632,1.081   c1.007,0.593,1.988,1.169,3.057,1.645C191.455,132.105,192.031,131.181,191.364,130.744z"></path><path d="M142.29,260.936c-0.577,1.614-0.815,3.157-0.626,4.869c0.068,0.62,0.953,0.647,0.986,0c0.08-1.559,0.29-3.068,0.737-4.567   C143.598,260.529,142.533,260.255,142.29,260.936z"></path><path d="M148.42,248.806c-1.548,1.447-2.529,3.359-3.097,5.383c-0.147,0.523,0.658,0.897,0.901,0.38   c0.841-1.787,1.92-3.269,3.147-4.811C149.901,249.094,149.069,248.199,148.42,248.806z"></path><path d="M157.002,238.292c-1.785,1.143-3.154,3.174-4.117,5.032c-0.308,0.594,0.503,1.045,0.884,0.517   c1.21-1.672,2.685-3.015,3.956-4.611C158.115,238.74,157.621,237.895,157.002,238.292z"></path><path d="M168.094,230.485c-1.77,1.056-3.289,2.48-4.814,3.856c-0.55,0.496,0.187,1.487,0.804,1.042   c1.665-1.2,3.386-2.381,4.791-3.886C169.365,230.974,168.74,230.1,168.094,230.485z"></path><path d="M181.713,224.188c-2.344,0.391-4.486,1.409-6.519,2.61c-0.783,0.463-0.094,1.615,0.708,1.212   c2.001-1.007,4.101-1.637,6.224-2.322C183.094,225.375,182.687,224.026,181.713,224.188z"></path><path d="M74.217,273.898c-0.259,2.014-0.294,4.05-0.383,6.077c-0.017,0.397,0.649,0.502,0.708,0.095   c0.296-2.051,0.65-4.102,0.775-6.173C75.36,273.176,74.304,273.217,74.217,273.898z"></path><path d="M74.135,258.191c-0.147-0.82-1.443-0.615-1.434,0.194c0.029,2.382,0.368,4.718,0.663,7.079c0.115,0.917,1.542,0.97,1.479,0   C74.685,263.021,74.567,260.604,74.135,258.191z"></path><path d="M70.401,244.173c-0.445-0.575-1.197,0.158-0.938,0.724c1.022,2.235,1.893,4.265,2.043,6.749   c0.046,0.761,1.212,0.775,1.195,0C72.642,248.991,72.05,246.303,70.401,244.173z"></path><path d="M65.842,231.107c-0.565-0.764-1.681-0.127-1.277,0.746c0.954,2.061,2.138,3.961,2.969,6.089   c0.295,0.755,1.503,0.463,1.243-0.343C68.065,235.388,67.235,232.99,65.842,231.107z"></path><path d="M63.294,225.624c-1.582-2.257-3.369-4.476-5.677-6.023c-0.78-0.523-1.632,0.636-0.988,1.281   c1.825,1.828,3.722,3.475,5.306,5.537C62.535,227.2,63.886,226.468,63.294,225.624z"></path><path d="M239.413,38.68c-1.656-0.45-3.367-0.715-5.052-1.037c-0.854-0.163-1.227,1.123-0.363,1.316   c1.674,0.374,3.349,0.81,5.047,1.055C239.9,40.139,240.298,38.921,239.413,38.68z"></path><path d="M258.566,65.581c0.214-0.398,0.314-0.868,0.088-1.313c-0.072-0.143-0.204-0.243-0.3-0.37   c-3.128-19.009-17.3-35.021-39.016-35.629c-9.036-0.253-16.291,2.227-22.184,6.417c0.793-3.126,0.321-6.958-1.182-9.436   c-1.968-3.244-6.032-4.716-9.665-3.8c-1.167,0.294-2.348,0.8-3.333,1.499c-0.107-3.983-2.563-7.948-6.443-9.417   c-4.513-1.709-9.564,0.591-11.24,4.746c-2.948-5.293-9.981-7.88-15.033-2.764c-1.77,1.793-2.681,4.165-2.968,6.642   c-0.839-1.032-1.844-1.834-2.926-2.506c4.12-5.14,8.455-15.051,0.259-18.942c-5.319-2.526-10.176,2.136-11.1,7.233   c-1.725-4.73-5.321-9.205-10.811-7.156c-4.761,1.777-5.541,6.479-4.24,10.636c-2.46-1.094-5.273-1.558-7.518-1.139   c-3.327,0.622-6.226,3.842-5.005,7.097c-4.482-2.903-9.794-4.953-16.171-5.821c-31.337-4.267-50.261,17.39-46.957,47.378   c0.056,0.507,0.344,0.845,0.699,1.044c0.176,7.26,5.889,12.337,14.005,12.418c7.696,0.077,16.096-6.756,14.377-14.887   c0.359-3.539,0.454-7.079,0.904-10.626c1.002-7.926,8.694-13.868,16.42-9.499c4.497,2.543,6.85,6.418,8.562,11.318   c4.187,11.983,4.228,25.932,5.594,38.464c0.039,0.353,0.192,0.618,0.384,0.843c-0.158,0.182-0.238,0.399-0.181,0.625   c-0.016,0.062-0.071,0.099-0.071,0.17c0.113,38.756,2.943,76.911,1.005,115.751c-29.785,0.447-78.797,5.811-75.28,45.517   c1.193,13.463,7.306,27.393,19.479,34.238c16.274,9.151,33.707-0.716,49.67-5.916c15.328-4.994,31.221-8.583,47.4-5.583   c7.973,1.478,15.856,5.283,24.094,5.327c11.621,0.063,19.748-6.307,23.411-17.157c6.913-20.471,0.553-47.458,0.541-68.722   c-0.018-30.337,2.543-60.308,10.039-89.774c0.173-0.679-0.029-1.226-0.388-1.63c0.641-0.733,0.756-1.947-0.335-2.577   c-2-1.156-4.03-2.223-6.075-3.245c0.039-0.067,0.107-0.082,0.135-0.166c3.498-10.351,6.6-21.065,12.467-30.402   c4.357-6.934,13.504-10.638,20.067-3.85c5.221,5.399,3.093,12.546,2.594,19.097c-0.018,0.229,0.042,0.419,0.131,0.59   c-3.762,14.153,23.919,17.875,25.363,2.433c0.004-0.018,0.016-0.027,0.02-0.046C259.118,76.963,259.287,71.166,258.566,65.581z    M151.237,18.61c2.379-3.447,7.148-4.332,10.135-1.2c1.833,1.922,2.39,4.542,3.618,6.81c0.441,0.816,1.677,0.415,1.696-0.459   c0.013-0.613-0.04-1.211-0.128-1.798c0.486-4.762,5.366-7.724,9.723-5.277c4.419,2.483,3.724,7.097,2.355,11.12   c-0.422,1.24,1.368,2.305,2.235,1.301c0.131-0.152,0.197-0.33,0.316-0.487c0.483,0.139,1.117-0.173,1.178-0.778   c0.351-3.482,5.858-4.293,8.391-3.117c2.95,1.37,3.636,4.397,3.571,7.402c-0.132,6.127-7.358,7.582-12.101,9.1   c-0.254,0.081-0.447,0.208-0.606,0.355c-0.683-0.991-1.461-1.896-2.29-2.747c0.24-0.403-0.047-1-0.599-0.85   c1.262-0.344,2.192-1.709,3.297-2.399c0.986-0.615,2.057-1.039,3.086-1.569c1.02-0.526,0.281-1.977-0.746-1.767   c-2.492,0.508-5.311,2.59-6.529,4.859c-0.044,0.082-0.071,0.177-0.101,0.269c-1.793-1.504-3.794-2.738-5.959-3.602   c1.049-2.379,1.759-5.414,1.808-7.979c0.016-0.867-1.133-0.906-1.416-0.191c-0.895,2.267-1.41,5.262-1.384,7.77   c-2.931-0.996-6.099-1.251-9.305-0.791c-0.645-2.269-1.737-4.575-3.328-6.302c-0.679-0.738-1.732,0.199-1.325,1.023   c0.925,1.872,2.009,3.683,3.013,5.523c-1.42,0.329-2.841,0.788-4.249,1.461C150.764,30.905,147.423,24.137,151.237,18.61z    M189.327,42.186c-1.624,2.042-3.14,4.197-4.462,6.533c-0.406-1.637-1.002-3.188-1.744-4.645   C184.985,43.684,187.202,43.065,189.327,42.186z M186.653,121.547c-1.945-0.868-3.898-1.72-5.879-2.495   c2.011-8.051,4.55-16.914,4.901-25.14c2.02,0.757,4.04,1.623,6.061,2.514c-2.378,8.157-4.084,16.673-5.098,25.077   C186.637,121.521,186.654,121.529,186.653,121.547z M184.491,93.68c-2.703,7.707-3.608,16.798-4.708,24.977   c-2.17-0.828-4.353-1.616-6.56-2.33c2.087-8.053,4.708-16.485,5.891-24.68c1.841,0.569,3.682,1.189,5.522,1.859   C184.586,93.563,184.519,93.6,184.491,93.68z M171.706,115.813c-3.134-0.97-6.293-1.848-9.487-2.567   c0.074-0.087,0.171-0.14,0.203-0.283c1.848-8.065,3.471-16.202,4.837-24.364c3.388,0.654,6.765,1.524,10.139,2.506   C174.374,98.697,172.906,107.7,171.706,115.813z M160.999,112.97c-2.224-0.477-4.456-0.914-6.701-1.263   c0.913-8.206,1.386-16.474,2.099-24.704c2.952,0.301,5.888,0.734,8.818,1.246c-1.542,8.076-2.974,16.184-4.31,24.295   C160.877,112.713,160.946,112.838,160.999,112.97z M149.366,82.64c-0.162-1.643-0.348-3.285-0.539-4.928   c0.161,0.037,0.316,0.087,0.481,0.098c5.149,1.211,10.478,2.05,15.773,2.139c0.711,0.012,0.674-1.005,0-1.081   c-4.555-0.51-9.085-1.029-13.612-1.715c0.118-0.221-0.013-0.517-0.305-0.459c-0.933,0.185-1.733-0.014-2.501-0.392   c-0.204-1.747-0.404-3.495-0.588-5.243c3.106,0.918,6.376,1.48,9.591,1.481c0.764,0,0.718-1.069,0-1.156   c-3.31-0.404-6.515-0.957-9.736-1.727c-0.229-2.352-0.372-4.707-0.447-7.062c5.056,0.665,10.137,1.088,15.239,0.881   c0.779-0.032,0.783-1.193,0-1.214c-5.113-0.139-10.195-0.345-15.277-0.919c-0.032-2.04,0.048-4.082,0.212-6.124   c2.896,0.004,5.789,0.257,8.661,0.61c0.425,0.052,0.514-0.653,0.101-0.745c-2.881-0.642-5.724-0.799-8.659-0.709   c0.123-1.265,0.231-2.53,0.462-3.797c0.195-1.067,0.49-2.036,0.804-2.983c6.451,0.334,12.981,0.686,19.427,0.384   c0.848-0.04,0.835-1.242,0-1.308c-6.289-0.501-12.678-0.381-18.996-0.261c0.799-1.982,1.866-3.668,3.117-5.078   c0.014,0.001,0.019,0.015,0.034,0.015c3.339,0.049,6.633,0.443,9.929,0.958c0.858,0.134,1.253-1.122,0.367-1.335   c-2.926-0.703-5.893-0.951-8.889-1.005c9.33-8.167,26.184-3.553,28.61,11.839c0.04,0.249,0.157,0.431,0.302,0.584   c-5.01,10.449-7.55,22.823-8.648,34.065C166.127,84.315,157.783,83.082,149.366,82.64z M154.257,86.775   c-0.773,8.194-1.45,16.473-1.335,24.704c-2.295-0.329-4.6-0.565-6.909-0.755c0.775-8.092,1.055-16.228,1.319-24.351   C149.649,86.456,151.959,86.578,154.257,86.775z M146.684,25.475c0.187,0.248,0.418,0.382,0.655,0.455   c0.647,3.971,2.959,7.664,6.678,9.232c-13.764,8.335-10.494,34.731-5.974,47.398c-5.509-0.233-11.045-0.125-16.58,0.319   c-0.166-1.546-0.344-3.147-0.522-4.746c1.714,0.118,3.435,0.165,5.151,0.094c0.671-0.028,0.672-1.015,0-1.043   c-1.748-0.072-3.499-0.029-5.245,0.095c-0.168-1.486-0.354-3.003-0.542-4.519c4.066,0.09,8.137,0.105,12.19-0.259   c0.705-0.063,0.729-1.15,0-1.119c-4.102,0.176-8.193,0.413-12.297,0.477c-0.186-1.47-0.392-2.954-0.604-4.44   c1.605,0.143,3.199,0.301,4.811,0.306c0.474,0.002,0.615-0.786,0.116-0.856c-1.682-0.239-3.367-0.316-5.061-0.412   c-0.266-1.803-0.564-3.611-0.881-5.418c2.392,0.142,4.773,0.271,7.177,0.145c0.876-0.046,0.829-1.22,0-1.327   c-2.488-0.321-4.973-0.369-7.472-0.41c-0.273-1.468-0.613-2.917-0.928-4.374c2.464,0.035,4.922,0.059,7.389,0   c0.805-0.019,0.807-1.232,0-1.252c-2.555-0.061-5.101-0.039-7.655,0c-0.472-2.079-0.997-4.136-1.574-6.164   c4.542-0.163,9.107-0.34,13.614-0.899c0.868-0.108,0.926-1.437,0-1.403c-4.652,0.171-9.301,0.747-13.923,1.326   c-0.479-1.623-1.01-3.214-1.569-4.785c2.345-0.221,4.707-0.306,7.061-0.278c0.855,0.01,0.826-1.234,0-1.308   c-2.554-0.229-5.034-0.079-7.554,0.269c-0.842-2.241-1.812-4.387-2.86-6.473c0.091,0.064,0.166,0.146,0.297,0.161   c3.821,0.452,7.613,0.911,11.462,1.018c0.749,0.021,0.955-1.226,0.181-1.341c-3.87-0.574-7.739-0.798-11.643-1.024   c-0.408-0.023-0.597,0.25-0.622,0.552c-0.335-0.647-0.637-1.32-0.998-1.946c0.062-0.092,0.126-0.184,0.124-0.317   c-0.027-1.442,0.434-2.722,1.199-3.858c0.093,0.058,0.168,0.137,0.302,0.148c3.778,0.302,7.559,0.154,11.309-0.362   c0.772-0.106,0.588-1.396-0.185-1.36c-3.452,0.164-6.899,0.251-10.353,0.314c1.418-1.465,3.341-2.621,5.306-3.529   c0.094,0.279,0.285,0.525,0.668,0.541c2.248,0.094,4.49,0.203,6.739,0.141c1.032-0.028,1.017-1.525,0-1.593   c-1.636-0.109-3.273-0.121-4.911-0.12c0.873-0.312,1.718-0.575,2.483-0.782C137.478,19.165,142.99,20.577,146.684,25.475z    M138.704,86.357c2.351-0.036,4.705-0.084,7.034-0.023c-0.676,8.08-1.187,16.186-1.053,24.297c-2.052-0.145-4.11-0.154-6.168-0.187   C138.451,102.42,138.928,94.365,138.704,86.357z M137.009,110.398c-2.525-0.007-5.052,0.08-7.576,0.243   c0.846-7.823,0.529-16.101-0.467-23.916c2.733-0.171,5.449-0.298,8.146-0.363C136.248,94.275,136.627,102.446,137.009,110.398z    M115.259,12.933c2.232,0.599,3.877,1.902,5.716,3.059c0.049,0.056,0.086,0.126,0.135,0.181c0.145,0.159,0.321,0.207,0.495,0.197   c0.201,0.118,0.39,0.248,0.6,0.36c0.778,0.414,1.638-0.42,1.206-1.206c-0.54-0.983-1.356-1.853-2.331-2.598   c-1.449-3.796-1.769-8.902,3.062-9.906c5.368-1.116,7.12,5.876,8.262,9.564c0.354,1.142,2.365,1.008,2.198-0.297   c-0.015-0.117-0.04-0.243-0.058-0.362c0.223-0.115,0.416-0.297,0.441-0.584c0.218-2.51,0.789-4.944,2.653-6.765   c2.438-2.382,5.864-2.205,7.63,0.81c2.55,4.354-0.582,9.179-3.206,12.693c-0.087,0.117-0.122,0.238-0.16,0.359   c-0.676-0.242-1.391-0.382-2.103-0.528c0.131-0.139,0.222-0.319,0.209-0.549c-0.145-2.592,0.646-4.824,1.534-7.214   c0.267-0.719-0.771-1.272-1.268-0.738c-2.087,2.242-2.448,5.253-1.961,8.181c0.006,0.038,0.043,0.046,0.054,0.08   c-2.404-0.277-4.885-0.013-7.24,0.59c-1.277-1.735-2.626-3.398-4.182-4.89c-0.656-0.629-1.879,0.211-1.31,1.011   c1.11,1.562,2.375,2.977,3.711,4.341c-2.023,0.679-4.236,1.614-6.195,2.832c-1.727-1.887-3.921-3.268-6.406-3.89   c-0.687-0.172-1.167,0.833-0.497,1.178c2.036,1.049,3.982,2.149,5.891,3.399c-2.5,1.794-4.377,4.129-4.425,7.171   c-2.778-4.321-6.197-8.071-10.363-11.062c0.027-0.082,0.054-0.165,0.027-0.271C106.09,13.099,111.685,11.975,115.259,12.933z    M69.611,56.513c-0.5,7.367-4.781,13.308-12.854,12.948c-3.37-0.15-7.017-1.596-9.151-4.224c-0.3-0.37-0.545-0.78-0.768-1.204   c2.558,0.113,5.116,0.23,7.677,0.291c0.576,0.014,0.571-0.863,0-0.891c-2.689-0.134-5.378-0.21-8.069-0.289   c-0.482-1.202-0.773-2.523-0.988-3.849c1.445,0.114,2.893,0.237,4.338,0.257c0.524,0.007,0.497-0.741,0-0.796   c-1.451-0.162-2.917-0.221-4.378-0.289c-0.024-1.387-0.028-2.782-0.01-4.178c5.485,0.1,10.887-0.05,16.332-0.952   c0.555-0.092,0.431-1.035-0.134-0.987c-5.379,0.454-10.772,0.908-16.172,1.013c0.033-1.572,0.137-3.135,0.248-4.696   c1.483,0.099,2.96,0.199,4.451,0.223c0.673,0.011,0.64-0.954,0-1.024c-1.465-0.159-2.926-0.243-4.392-0.328   c0.183-2.124,0.446-4.227,0.847-6.278c1.949,2.421,5.71,4.693,7.214,5.567c4.824,2.804,10.515,4.184,16.08,3.64   C69.692,52.536,69.604,54.59,69.611,56.513z M70.068,48.688c-4.304-0.268-8.443-0.89-12.416-2.74   c-1.737-0.809-3.422-1.789-4.966-2.923c-0.57-0.419-5.075-3.689-4.888-4.815c0.06-0.362-0.062-0.665-0.248-0.919   c2.136-7.311,6.234-13.716,13.939-17.899c4.198-2.28,8.868-3.76,13.666-4.569c-3.54,4.446-0.597,13.267,2.501,18.087   C73.045,35.551,70.9,42.035,70.068,48.688z M89.616,33.425c-4.096-1.846-7.383-2.135-10.02-1.353   c-0.366-0.884-0.696-1.745-1.004-2.597c1.524,0.178,3.046,0.367,4.578,0.483c0.536,0.04,0.671-0.872,0.128-0.95   c-1.684-0.244-3.375-0.408-5.066-0.582c-0.396-1.188-0.709-2.362-0.953-3.539c4.664,0.099,9.324,0.391,13.978,0.7   c0.515,0.034,0.644-0.831,0.123-0.913c-4.747-0.745-9.481-0.97-14.269-0.952c-0.203-1.291-0.293-2.601-0.274-3.952   c2.445,0.207,4.886,0.418,7.34,0.53c0.756,0.034,0.724-1.079,0-1.157c-2.424-0.26-4.85-0.421-7.279-0.586   c0.091-1.287,0.273-2.61,0.63-4.018c0.011-0.043-0.012-0.084-0.009-0.128c9.261-1.073,18.863,0.623,26.629,5.34   c3.196,1.941,5.861,4.294,8.181,6.905c-6.896,0.233-13.651,5.646-16.122,11.91C94.394,36.411,92.254,34.615,89.616,33.425z    M97.158,39.707c1.98-3.156,4.41-5.892,7.67-7.792c3.126-1.821,6.173-2.196,9.579-2.747c7.104,9.506,9.927,22.124,11.873,34.616   c-7.426-1.354-14.87-0.234-21.231,3.769C104.161,57.431,102.335,46.756,97.158,39.707z M125.96,66.516   c0.273,0.053,0.511,0.014,0.729-0.061c0.844,5.726,1.556,11.378,2.459,16.638c-7.62,0.74-15.222,2.112-22.73,4.069   c-0.159-1.443-0.283-3.07-0.396-4.776c2.693,0.225,5.495,0.321,8.16,0.094c0.938-0.08,0.94-1.38,0-1.46   c-2.69-0.229-5.523-0.131-8.239,0.099c-0.069-1.116-0.138-2.332-0.206-3.517c1.578,0.11,3.159,0.232,4.738,0.219   c0.615-0.005,0.576-0.855,0-0.929c-1.59-0.203-3.198-0.27-4.801-0.351c-0.061-1.062-0.15-2.208-0.219-3.303   c5.687-0.263,11.389-0.635,16.986-1.69c0.726-0.137,0.571-1.377-0.176-1.304c-5.639,0.553-11.243,1.312-16.893,1.741   c-0.067-0.98-0.113-1.908-0.194-2.921C111.809,66.196,118.777,65.119,125.96,66.516z M128.237,110.754   c-2.998,0.227-5.992,0.591-8.976,1.067c-0.609-8.012-1.812-15.963-2.32-23.999c-0.002-0.018-0.019-0.023-0.021-0.041   c3.368-0.354,6.709-0.665,10.016-0.899C127.425,94.835,127.722,102.807,128.237,110.754z M105.187,89.197   c3.186-0.436,6.318-0.81,9.436-1.159c0.367,7.917,1.099,16.341,3.275,23.997c-3.229,0.56-6.444,1.271-9.636,2.167   C107.542,105.785,106.58,97.424,105.187,89.197z M65.185,283.06c-7.188-0.262-13.436-2.408-18.612-6.347   c2.392,0.522,4.816,0.891,7.267,0.978c0.545,0.02,0.523-0.781,0-0.835c-2.977-0.301-5.891-0.776-8.788-1.425   c-1.197-1.043-2.311-2.221-3.38-3.469c3.718,0.268,7.441,0.491,11.156,0.806c0.729,0.062,0.696-1.028,0-1.119   c-4.005-0.521-8.069-0.848-12.121-0.904c-1.131-1.447-2.172-3.032-3.14-4.726c6.428,0.292,12.873,0.579,19.306,0.306   c0.623-0.026,0.622-0.934,0-0.967c-6.615-0.35-13.249-0.313-19.87-0.48c-0.601-1.134-1.216-2.248-1.734-3.506   c-0.453-1.099-0.832-2.202-1.174-3.305c3.098,0.064,6.199,0.16,9.295,0.01c0.902-0.044,0.904-1.359,0-1.403   c-3.228-0.157-6.459-0.046-9.688,0.017c-0.553-2.056-0.853-4.101-1.035-6.135c5.034,0.264,10.061,0.594,15.103,0.563   c0.56-0.003,0.537-0.8,0-0.853c-5.042-0.497-10.103-0.633-15.165-0.836c-0.097-1.718-0.02-3.409,0.136-5.083   c3.448-0.254,6.858-0.186,10.309,0.114c0.61,0.053,0.759-0.982,0.146-1.08c-3.433-0.551-6.88-0.547-10.325-0.162   c0.262-2.049,0.713-4.053,1.344-5.992c5.076,0.354,10.157,0.813,15.244,0.921c0.909,0.019,0.866-1.291,0-1.384   c-4.878-0.525-9.789-0.73-14.688-1.014c0.61-1.602,1.39-3.132,2.251-4.622c1.43-0.092,2.746-0.131,4.201,0.143   c0.319,0.06,0.528-0.112,0.628-0.33c2.646,0.297,5.289,0.605,7.948,0.803c0.906,0.068,0.887-1.317,0-1.403   c-3.705-0.358-7.411-0.61-11.129-0.783c-0.196-0.009-0.32,0.071-0.402,0.183c-0.133,0.012-0.267,0.01-0.399,0.03   c1.79-2.77,3.979-5.328,6.678-7.523C62.354,233.192,68.931,263.954,65.185,283.06z M169.883,274.373   c-7.213,0.64-15.663-3.669-22.716-5.07c0.069-0.078,0.156-0.124,0.192-0.25c5.856-20.904,22.174-35.168,43.835-36.586   c0.035,1.845,0.1,3.69,0.109,5.536C191.373,252.669,193.743,272.258,169.883,274.373z M190.037,188.446   c-0.061,11.686,0.519,23.349,0.907,35.013c-1.171,0.11-2.342,0.303-3.49,0.476c-0.921,0.139-0.715,1.733,0.222,1.639   c1.098-0.111,2.219-0.207,3.324-0.37c0.045,1.4,0.099,2.8,0.134,4.2c-22.371,1.264-41.288,16.751-45.147,39.27   c-0.03,0.173,0.03,0.307,0.09,0.436c-25.258-4.378-44.638,7.742-68.585,12.811c-3.316,0.702-6.481,1.067-9.512,1.152   c4.114-19.217-2.933-52.533-22.303-61.675c0.463-0.347,0.913-0.704,1.398-1.032c16.72-11.294,40.066-10.84,59.332-12.822   c1.095-0.113,1.565-1.11,1.398-1.928c0.053-0.153,0.116-0.299,0.126-0.483c0.022-0.381,0.041-0.767,0.062-1.149   c1.609,0.264,3.219,0.512,4.841,0.677c0.624,0.063,0.766-0.977,0.149-1.099c-1.63-0.321-3.276-0.554-4.924-0.771   c0.097-1.733,0.185-3.482,0.278-5.224c5.551,0.546,11.067,0.608,16.633,0.003c0.656-0.071,0.676-1.099,0-1.043   c-5.531,0.463-11.056,0.529-16.584,0.117c0.109-2.067,0.206-4.147,0.307-6.224c2.482,0.516,4.976,0.798,7.511,0.61   c0.518-0.038,0.531-0.808,0-0.815c-2.465-0.036-4.881-0.177-7.304-0.658c-0.066-0.013-0.11,0.022-0.166,0.033   c0.108-2.26,0.203-4.53,0.298-6.799c0.497,0.069,1.003,0.067,1.51,0.011c3.909,0.265,7.809,0.527,11.726,0.647   c0.654,0.02,0.635-0.95,0-1.005c-3.442-0.296-6.887-0.463-10.335-0.635c-0.043-0.015-0.071-0.046-0.125-0.044   c-1.01,0.036-1.872-0.101-2.716-0.324c0.087-2.132,0.129-4.279,0.202-6.417c2.256,0.437,4.455,0.508,6.734,0.016   c0.737-0.159,0.414-1.235-0.307-1.115c-2.133,0.354-4.262,0.378-6.394,0.047c0.063-1.934,0.088-3.876,0.137-5.814   c4.83,0.167,9.658,0.331,14.493,0.26c0.896-0.013,0.886-1.336,0-1.384c-4.818-0.263-9.637-0.292-14.458-0.317   c0.058-2.421,0.077-4.847,0.111-7.271c5.003,0.265,10.028,0.437,15.021,0.052c0.747-0.058,0.765-1.154,0-1.176   c-4.999-0.145-10.002-0.033-15.003-0.052c0.031-2.472,0.03-4.946,0.032-7.419c0.335-0.018,0.67-0.081,1.005-0.125   c-0.293,0.381-0.143,1.067,0.481,1.06c6.967-0.08,13.933,0.093,20.9,0.054c0.792-0.004,0.768-1.148,0-1.214   c-6.743-0.574-13.453-0.489-20.203-0.176c0.158-0.234,0.079-0.64-0.24-0.701c-0.648-0.124-1.292-0.206-1.938-0.24   c-0.002-1.898-0.075-3.79-0.097-5.687c3.433-0.068,6.824-0.357,10.195-1.053c0.913-0.189,0.504-1.498-0.378-1.371   c-3.267,0.47-6.545,0.799-9.842,0.919c-0.034-2.42-0.122-4.834-0.185-7.251c7.551,0.566,15.118,1.249,22.693,1.316   c0.997,0.009,0.949-1.415,0-1.517c-7.545-0.807-15.153-1.003-22.732-1.313c-0.038-1.314-0.1-2.625-0.148-3.938   c4.494,0.47,9.212-0.027,13.623-0.665c0.767-0.111,0.592-1.417-0.184-1.36c-4.466,0.332-9.03,0.265-13.49,0.683   c-0.16-4.087-0.355-8.168-0.681-12.23c30.544-4.952,58.722-1.882,86.139,13.031C191.457,148.662,190.141,168.457,190.037,188.446z    M200.598,100.784c-0.149,0.189-0.27,0.42-0.344,0.704c-2.078,8.028-3.748,16.098-5.13,24.2c-2.313-1.263-4.668-2.439-7.055-3.539   c0.132-0.102,0.261-0.216,0.302-0.411c1.748-8.148,3.622-16.244,5.5-24.358C196.111,98.425,198.352,99.533,200.598,100.784z    M195.376,94.215c-6.425-3.078-13.042-5.546-19.799-7.397c1.71-6.831,3.193-14.211,5.249-21.304   c2.055,7.013,11.964,11.634,18.647,13.512C197.625,83.959,196.169,89.032,195.376,94.215z M205.185,66.316   c-1.851,3.534-3.507,7.205-4.992,10.942c-3.317-1.51-6.724-2.832-9.771-4.856c2.13,0.59,4.606,0.731,6.68,0.824   c0.603,0.027,0.743-0.932,0.144-1.062c-2.534-0.55-5.711-1.227-8.279-0.804c-1.253-1.014-2.181-2.135-3.016-3.304   c3.44,0.607,7.043,0.933,10.46,1.064c0.658,0.025,0.834-1.076,0.159-1.173c-3.672-0.527-7.593-0.954-11.345-0.91   c-1.099-1.736-2.014-3.608-3.124-5.608c0.174-0.523,0.37-1.032,0.553-1.549c4.257,1.241,8.661,2.003,13.105,1.849   c0.78-0.027,0.783-1.195,0-1.214c-4.351-0.104-8.569-0.526-12.773-1.565c0.662-1.797,1.397-3.543,2.193-5.245   c2.945,0.515,5.892,0.895,8.895,0.991c0.709,0.023,0.704-1.065,0-1.1c-2.839-0.141-5.669-0.4-8.486-0.772   c0.728-1.489,1.524-2.927,2.381-4.316c3.219,0.85,6.474,1.453,9.815,1.466c0.776,0.003,0.731-1.088,0-1.175   c-3.031-0.366-6.039-0.793-9.016-1.451c0.851-1.285,1.785-2.502,2.768-3.679c1.313,0.415,2.61,0.616,4.007,0.418   c0.515-0.073,0.38-0.897-0.121-0.894c-1.099,0.007-2.138-0.128-3.174-0.375c1.468-1.655,3.081-3.19,4.905-4.546   c-0.07,8.734,5.622,16.134,11.964,21.723C207.622,61.886,206.365,64.063,205.185,66.316z M218.971,53.964   c-3.64,0.525-6.353,2.22-8.558,4.536c-5.531-6.417-10.79-12.565-10.546-21.609c0.004-0.146-0.035-0.261-0.065-0.383   c2.439-1.465,5.103-2.735,8.182-3.637c9.09-2.662,17.431-1.764,24.553,1.48c-5.116,4.778-8.004,12.917-8.083,19.883   C222.686,53.82,220.838,53.695,218.971,53.964z M234.349,61.828c0.958,0.183,1.944,0.246,2.873,0.203   c0.639-0.029,0.629-0.937,0-0.986c-1.228-0.097-2.432-0.288-3.637-0.474c-0.076-0.114-0.13-0.233-0.21-0.346   c-1.596-2.237-3.744-3.908-6.151-4.999c3.511,0.832,7.101,1.491,10.664,1.918c0.684,0.082,0.847-1.091,0.164-1.21   c-3.874-0.679-7.773-1.33-11.665-1.91c0.382-1.909,0.829-3.777,1.406-5.617c4.266,1.103,8.766,1.766,13.138,2.022   c0.931,0.055,0.886-1.316,0-1.422c-4.27-0.508-8.542-1.091-12.815-1.577c0.36-1.038,0.754-2.07,1.239-3.088   c0.181-0.379,0.396-0.728,0.594-1.092c3.268,0.852,6.584,1.423,9.97,1.167c0.629-0.048,0.613-0.898,0-0.967   c-3.14-0.351-6.261-0.681-9.348-1.343c1.358-2.246,2.972-4.276,4.472-6.451c9.653,5.39,16.683,15.285,19.655,26.515   c-2.23-0.333-4.775-0.128-6.2,0.075c-4.623,0.659-8.685,2.788-12.421,5.479C235.868,65.686,235.343,63.704,234.349,61.828z    M255.674,81.378c-2.577,4.875-4.864,8.619-11.315,8.222c-2.713-0.167-5.47-0.602-7.48-2.542c-1.955-1.887-2.031-4.34-2.058-6.834   c0.021-0.058,0.058-0.101,0.071-0.167c0.675-3.452,1.36-7.061,1.291-10.565c3.013-1.513,6.094-2.953,9.381-3.753   c1.745-0.425,3.475-0.684,5.27-0.674c0.378,0.002,3.282,0.576,4.609,0.393C256.425,70.652,256.566,76.052,255.674,81.378z"></path></g><g></g><g></g><g></g><g></g><g></g><g></g><g></g><g></g><g></g><g></g><g></g><g></g><g></g><g></g><g></g></svg>