<svg xmlns="http://www.w3.org/2000/svg" xmlns:xlink="http://www.w3.org/1999/xlink" fill="currentColor" version="1.1" id="Capa_1" viewBox="0 0 210.888 210.888" xml:space="preserve"><g><path d="M98.882,130.374c-3.637,0.439-7.119,0.84-10.791,0.607c-0.793-0.05-0.757,1.125,0,1.214   c3.612,0.424,7.429,0.489,10.987-0.368C99.869,131.636,99.723,130.272,98.882,130.374z"></path><path d="M176.251,37.72c-3.361-0.135-6.732-0.043-10.095-0.019c-1.366,0.01-1.369,2.114,0,2.124   c3.363,0.024,6.734,0.116,10.095-0.019C177.592,39.752,177.595,37.774,176.251,37.72z"></path><path d="M209.83,115.124c-4.149-2.32-9.617-2.999-15.284-3.133c1.016-20.938,2.562-42.207,1.085-63.145   c-0.533-7.548-1.297-24.171-10.816-26.689c-8.52-2.254-20.797,10.458-25.681,15.616c-12.442,13.137-22.432,28.958-31.16,44.716   c-0.024,0.043-0.021,0.083-0.041,0.126c-4.721-4.253-14.866-2.792-20.167-2.179c-3.1,0.358-5.694,0.977-7.715,2.073   c-0.062-0.108-0.104-0.218-0.199-0.322C88.683,70.021,76.497,58.488,63.313,48.512c-7.071-5.351-20.015-15.295-29.921-12.17   c-7.063,2.229-8.43,10.053-9.047,16.423c-1.858,19.191,0.012,39.538,1.619,58.727c-6.215,0.221-12.429,0.462-18.626,0.827   c-0.503,0.03-0.818,0.281-1.032,0.599c-0.987-1.449-3.878-1.062-3.991,1.216c-0.658,13.321-1.403,26.729-1.738,40.13   c-0.76,0.041-0.771,1.16-0.032,1.211c-0.16,7.003-0.236,14.005-0.049,20.988c-0.049,0.187-0.041,0.351,0.02,0.529   c0.067,2.384,0.143,4.768,0.265,7.147c0.032,0.61,0.35,0.993,0.752,1.191c-0.267,0.733,0.033,1.651,1.084,1.7   c33.411,1.587,67.168-0.214,100.63,0.065c33.493,0.279,67.139,2.433,100.61,1.777c0.726-0.014,1.188-0.369,1.443-0.833   c1.191,0.376,2.756-0.247,2.804-1.881c0.651-22.573,1.357-45.145,2.233-67.71C211.258,117.485,210.979,115.767,209.83,115.124z    M128.795,98.785c4.918,0.289,9.831,0.242,14.713-0.51c0.881-0.136,0.681-1.632-0.212-1.564c-4.674,0.352-9.317,0.563-13.992,0.456   c0.708-2.426,1.115-4.815,1.177-7.019c5.837,0.086,11.666,0.152,17.503,0.031c1.208-0.025,1.21-1.852,0-1.877   c-5.852-0.122-11.696-0.055-17.549,0.031c-0.041-0.513-0.065-1.037-0.16-1.515c-0.168-0.847-0.469-1.569-0.828-2.235   c0.368-0.049,0.724-0.244,0.981-0.657c0.917-1.478,2.2-3.612,3.76-6.165c4.822,0.107,9.649,0.224,14.469,0.048   c0.878-0.032,0.879-1.333,0-1.365c-4.558-0.166-9.121-0.068-13.682,0.033c1.684-2.741,3.663-5.905,5.849-9.258   c11.024,0.499,22.03,0.356,32.941-1.436c0.84-0.138,0.649-1.545-0.201-1.49c-10.546,0.684-21.042,1.365-31.607,1.201   c2.215-3.349,4.628-6.85,7.167-10.298c5.452,0.111,10.909,0.123,16.36-0.042c1.171-0.035,1.173-1.785,0-1.82   c-4.974-0.15-9.952-0.142-14.928-0.058c1.772-2.345,3.601-4.634,5.458-6.825c0.127,0.28,0.337,0.521,0.725,0.552   c5.046,0.406,10.061,0.427,15.066-0.384c0.97-0.157,0.744-1.765-0.231-1.713c-4.834,0.255-9.643,0.498-14.483,0.298   c11.13-12.772,23.248-21.175,31.754-11.051c5.85,6.964,2.786,30.598,2.656,39.475c-0.188,12.792-0.814,25.573-1.432,38.35   c-4.997,0.083-9.935,0.379-14.074,0.216c-17.922-0.707-35.856-1.024-53.792-1.15c1.138-1.348,2.24-2.998,3.263-4.793   c5.041-0.237,10.086-0.459,15.109-0.944c0.882-0.085,0.915-1.444,0-1.403c-4.826,0.215-9.637,0.673-14.447,1.127   C127.162,103.058,128.066,100.931,128.795,98.785z M99.68,88.762c4.891-0.161,9.78-0.334,14.657-0.762   c0.897-0.079,0.929-1.445,0-1.422c-4.618,0.112-9.22,0.455-13.823,0.816c2.872-3.523,8.707-3.634,13.995-3.743   c2.524-0.052,6.128-0.464,8.504,0.474c5.59,2.207,3.276,7.488,2.055,11.333c-1.755,5.529-5.049,10.166-7.04,15.518   c-0.002,0.005-0.001,0.009-0.003,0.014c-5.46-0.029-10.929-0.066-16.402-0.104c0.076-0.378-0.077-0.761-0.596-0.847   c-0.837-0.138-1.368-2.049-1.71-4.535c3.984,0.229,7.913,0.061,11.83-0.809c0.727-0.161,0.584-1.406-0.179-1.322   c-3.939,0.433-7.874,0.701-11.834,0.606c-0.233-2.302-0.338-4.846-0.388-6.915c3.439,0.362,7.019,0.438,10.408-0.276   c0.678-0.143,0.54-1.315-0.167-1.229c-3.462,0.42-6.786,0.779-10.263,0.598c-0.024-1.301-0.028-2.321-0.033-2.815   C98.673,91.43,99.079,89.986,99.68,88.762z M27.375,65.285c4.986,0.073,9.957,0.118,14.946-0.122c1.061-0.051,1.063-1.599,0-1.65   c-4.949-0.238-9.881-0.196-14.826-0.124c0.282-3.688,0.809-7.097,1.583-10.149c6.427,0.159,12.893,0.4,19.3,0.035   c1.353-0.077,1.356-2.028,0-2.105c-6.227-0.354-12.507-0.137-18.755,0.022c1.924-6.079,5.183-10.126,10.48-10.342   C50.92,40.411,65.56,55.77,73.036,62.12c8.438,7.167,16.551,14.691,24.683,22.199c0.004,0.004,0.008,0.004,0.012,0.008   c-0.984,1.042-1.69,2.352-2.122,3.96c-0.003,0.024-0.014,0.043-0.013,0.067c-0.371,1.409-0.544,3.035-0.443,4.987   c0.145,2.839-0.142,14.294,3.224,17.522c-22.717-0.155-45.513-0.26-68.218,0.444c-0.181-2.127-0.521-5.117-0.908-8.648   c8.84,0.236,17.692,0.328,26.529,0.097c0.939-0.025,0.941-1.435,0-1.46c-8.882-0.233-17.781-0.14-26.666,0.099   c-0.344-3.178-0.707-6.778-1.031-10.559c3.589,0.682,7.223,0.999,10.872,0.63c1.106-0.112,1.153-1.812,0-1.763   c-3.713,0.156-7.346,0.073-11.014-0.555c-0.269-3.349-0.484-6.836-0.619-10.333c11.501,0.323,23.01,0.746,34.514,0.512   c1.043-0.021,1.032-1.553,0-1.612c-11.513-0.65-23.056-0.642-34.586-0.735C27.136,73.003,27.162,69.051,27.375,65.285z    M83.804,142.527c-0.56,0.263-0.565,1.057,0.003,1.264c0.034,12.993,0.041,25.986-0.458,38.992c0,0.009,0.004,0.015,0.004,0.023   c-26.613-0.315-53.454-0.648-79.831,1.58c0.02-0.084,0.059-0.154,0.067-0.248c0.185-2.225,0.281-4.459,0.433-6.688   c12.098-0.383,24.303-0.819,36.299-2.327c1.032-0.13,1.105-1.692,0-1.669c-12.056,0.26-24.136,1.307-36.177,2.124   c0.19-2.952,0.316-5.911,0.464-8.868c4.345,0.147,8.695-0.001,12.997-0.689c0.701-0.112,0.544-1.311-0.169-1.248   c-4.269,0.379-8.496,0.647-12.758,0.603c0.159-3.294,0.251-6.595,0.379-9.892c14.441-0.015,28.896-0.048,43.323-0.673   c1.141-0.049,1.153-1.779,0-1.782c-14.425-0.049-28.854,0.495-43.27,1.055c0.127-3.371,0.244-6.743,0.362-10.114   c4.431,0.061,8.863,0.14,13.293-0.008c1.135-0.038,1.137-1.725,0-1.763c-4.409-0.147-8.819-0.07-13.23-0.009   c0.145-4.136,0.339-8.265,0.496-12.399c14.089,1.156,28.219,2.442,42.347,2.837c1.314,0.037,1.264-1.887,0-2.01   c-14.039-1.366-28.188-1.855-42.282-2.462c0.085-2.183,0.18-4.364,0.262-6.547c4.815-0.144,9.631-0.275,14.429-0.691   c0.826-0.072,0.854-1.33,0-1.308c-4.804,0.12-9.595,0.525-14.385,0.918c0.075-1.939,0.136-3.879,0.233-5.815   c0.201,0.143,0.39,0.303,0.704,0.317c25.465,1.169,51.018,0.692,76.536,0.47C83.749,124.513,83.779,133.521,83.804,142.527z    M103.247,182.999c-5.358-0.029-10.737-0.087-16.122-0.149c0.002-0.025,0.015-0.042,0.016-0.067   c0.059-1.595,0.113-3.194,0.168-4.791c6.123,1.198,13.12,0.336,19.155-0.51c0.862-0.121,0.665-1.596-0.206-1.527   c-6.205,0.488-12.735,0.165-18.911,0.979c0.075-2.176,0.119-4.36,0.184-6.54c0.432,0.074,0.865,0.142,1.302,0.192   c-0.046,0.354,0.137,0.738,0.6,0.743c2.473,0.027,4.932,0.066,7.403-0.057c0.768-0.038,0.769-1.157,0-1.195   c-1.172-0.058-2.341-0.076-3.51-0.08c-0.035-0.259-0.23-0.517-0.528-0.545c-1.768-0.17-3.493-0.258-5.228-0.461   c0.079-2.788,0.121-5.58,0.174-8.372c3.933-0.189,7.862-0.367,11.784-0.723c0.835-0.076,0.868-1.345,0-1.327   c-3.925,0.08-7.837,0.338-11.754,0.585c0.038-2.251,0.043-4.502,0.059-6.753c2.776,0.054,5.558,0.138,8.33,0.045   c0.792-0.027,0.794-1.206,0-1.233c-2.769-0.093-5.548-0.009-8.321,0.045c0.013-2.501-0.001-5.003-0.023-7.503   c7.95-0.261,15.9-0.499,23.829-1.152c0.922-0.076,0.953-1.469,0-1.46c-7.956,0.079-15.895,0.576-23.836,1.047   c-0.076-6.216-0.348-12.419-0.738-18.611c4.598,0.089,9.204,0.253,13.799,0.022c0.914-0.046,0.916-1.376,0-1.422   c-4.627-0.233-9.264-0.065-13.894,0.024c-0.151-2.241-0.253-4.487-0.458-6.722c6.657-0.053,13.312-0.09,19.962-0.064   c8.463,0.032,16.927,0.105,25.39,0.215c-3.247,22.118-4.632,45.095-4.54,67.412C119.286,183.037,111.251,183.042,103.247,182.999z    M203.987,185.419c-0.047-0.007-0.081-0.032-0.13-0.036c-24.112-2.084-48.548-2.301-72.881-2.333c0.14-2.08,0.27-4.17,0.407-6.254   c10.477-0.532,20.977-0.952,31.409-2.063c0.829-0.088,0.873-1.34,0-1.327c-10.447,0.156-20.879,1.005-31.301,1.742   c0.185-2.824,0.327-5.663,0.504-8.492c3.985-0.126,7.976-0.237,11.951-0.55c1.033-0.081,1.063-1.659,0-1.631   c-3.959,0.105-7.913,0.411-11.863,0.702c0.219-3.534,0.395-7.073,0.599-10.61c5.553-0.34,11.117-0.631,16.644-1.266   c1.074-0.123,1.136-1.761,0-1.726c-5.523,0.171-11.033,0.685-16.54,1.152c0.204-3.585,0.377-7.17,0.562-10.756   c9.35-0.171,18.834-0.668,28.113-1.704c1.206-0.135,1.276-1.944,0-1.934c-9.299,0.071-18.739,0.706-28.008,1.64   c0.169-3.351,0.262-6.692,0.408-10.04c0.003,0,0.005,0.003,0.008,0.003c0.433,0.001,0.857-0.107,1.286-0.159   c0.06,0.33,0.271,0.621,0.712,0.592c4.934-0.326,9.919-0.446,14.828-1.046c0.998-0.122,1.066-1.633,0-1.612   c-3.643,0.073-7.288,0.406-10.93,0.73c0.143-0.371-0.036-0.856-0.539-0.854c-1.764,0.004-3.588,0.067-5.294,0.56   c0.175-4.158,0.397-8.322,0.507-12.472c6.132,0.087,12.264,0.178,18.395,0.324c7.722,0.185,15.442,0.417,23.16,0.722   c5.145,0.201,10.289,0.434,15.432,0.697c4.919,0.877,9.731,0.527,14.447-0.907c-0.307,0.531-0.355,1.172,0.017,1.764   C205.009,140.653,204.334,163.028,203.987,185.419z"></path></g><g></g><g></g><g></g><g></g><g></g><g></g><g></g><g></g><g></g><g></g><g></g><g></g><g></g><g></g><g></g></svg>