<svg xmlns="http://www.w3.org/2000/svg" xmlns:xlink="http://www.w3.org/1999/xlink" fill="currentColor" version="1.1" id="Capa_1" viewBox="0 0 257.139 257.139" xml:space="preserve"><g><path d="M228.641,121.375c-13.946-5.118-23.44-15.346-39.254-14.473c-11.223,0.619-21.192,5.831-28.546,14.091   c-0.765-1.893-1.745-3.668-2.919-5.352c7.969-1.448,9.973-13.347,4.614-19.093c4.252-5.032,7.758-10.618,10.655-16.503   c2.4,0.475,4.883,0.665,7.441,0.484c12.869-0.91,34.286-14.919,29.593-29.866c-0.617-1.965-3.948-1.738-3.763,0.509   c1.264,15.427-17.508,25.9-31.163,24.382c4.98-11.831,7.31-24.782,6.679-37.582c3.282-0.222,6.602-0.947,9.877-2.32   c8.526-3.574,14.84-10.957,16.957-19.972c0.929-3.951,2.501-14.644-3.292-15.645c-1.822-0.316-2.858,1.559-1.734,2.978   c3.498,4.417,0.237,14.517-2.238,18.688c-4.12,6.943-11.954,11.316-19.945,11.941c-1.136-11.179-4.49-22.124-10.331-31.948   c-1.341-2.255-4.458-0.282-3.44,2.011c4.431,9.986,7.242,19.931,8.416,29.772c-12.757-1.415-21.677-10.427-27.542-21.644   c-0.457-0.873-1.861-0.271-1.585,0.668c4.015,13.656,16.004,23.907,29.529,25.359c0.868,12.483-0.962,24.779-5.546,36.761   c-13.868-4.376-22.06-16.712-26.233-30.179c-0.397-1.284-2.159-0.729-1.967,0.542c2.143,14.135,12.422,29.126,26.369,33.973   c-2.376,5.378-5.255,10.696-8.779,15.926c-6.323-4.3-15.849-2.07-18.595,5.286c-10.717-5.32-24.797-3.062-34.95,2.824   c-1.151-2.146-3.578-3.839-5.67-4.635c-3.712-1.411-7.775-0.695-10.87,1.755c-0.156,0.124-0.261,0.279-0.408,0.409   c-4.716-6.694-8.808-13.452-12.156-20.318c0.217-0.03,0.436-0.038,0.653-0.072c17.755-2.719,41.924-18.834,38.663-39.106   c-0.333-2.065-3.412-1.438-3.501,0.474c-0.881,18.854-19.954,32.234-37.688,34.526c-4.468-10.149-7.34-20.544-8.113-31.349   c2.461,0.226,5.022,0.078,7.667-0.589c8.697-2.193,16.3-10.453,19.498-18.604c1.431-3.647,3.821-12.423-2.82-12.164   c-2.184,0.085-2.569,3.076-0.509,3.763c4.088,1.362-6.229,15.259-7.325,16.383c-4.637,4.752-10.276,7.5-16.698,6.627   c-0.18-10.193,1.438-20.749,5.22-31.795c0.876-2.556-3.125-3.617-4.025-1.11c-3.572,9.945-5.49,20.763-5.652,31.647   c-12.069-4.469-17.119-16.483-16.758-28.786c0.039-1.345-2.09-1.672-2.378-0.322c-2.924,13.73,5.904,29.852,19.205,34.006   c0.384,11.247,2.696,22.421,7.021,32.663c-17.811-0.15-31.612-10.958-41.522-24.95c-0.697-0.984-2.072-0.152-1.597,0.933   c7.716,17.62,26.14,28.607,45.108,28.242c3.984,8.096,9.251,15.526,16.042,21.727c-3.264,4.573-2.529,11.081,1.973,14.645   c-1.073,0.923-1.848,2.6-2.414,3.581c-0.454,0.786-1.006,1.77-1.522,2.791c-0.063-0.006-0.127-0.006-0.192-0.012   c-0.582-0.051-0.739,0.791-0.312,1.057c-0.055,0.128-0.13,0.248-0.181,0.376c-1.972-5.076-6.095-8.758-11.79-9.806   c-4.232-0.778-8.456,0.398-12.452,1.643c-8.678,2.703-15.449,4.871-24.956,3.504c-1.418-0.203-2.771,0.817-2.371,2.371   c5.156,20.003,26.138,23.361,43.674,19.537c-14.248,24.648-22.726,55.266-6.993,81.313c14.704,24.344,46.391,35.575,73.896,33.557   c58.972-4.325,70.461-82.854,30.142-117.01c18.086,4.518,35.488-12.515,53.274-14.617   C230.323,125.019,230.835,122.179,228.641,121.375z M168.913,134.871c-1.088-0.452-1.821,0.915-1.379,1.793   c-0.757,0.943-0.893,2.501,0.392,3.401c24.186,16.944,31.344,47.221,23.047,74.941c-9.029,30.164-36.775,41.307-66.308,36.275   c-10.036-1.71-19.809-4.89-28.422-9.753c0.668,0.115,1.336,0.232,2.004,0.348c3.701,0.643,7.405,1.242,11.123,1.781   c0.771,0.112,1.124-1.05,0.329-1.195c-5.399-0.984-10.82-1.812-16.245-2.646c-0.026-0.004-0.062-0.013-0.089-0.018   c-3.991-2.516-7.687-5.432-10.995-8.767c14.201,1.953,28.683,3.186,42.947,4.09c1.083,0.069,1.035-1.536,0-1.658   c-14.584-1.717-29.456-3.155-44.156-3.745c-2.153-2.312-4.096-4.841-5.859-7.541c4.979,0.356,9.957,0.753,14.944,0.904   c0.707,0.021,0.688-1.031,0-1.087c-5.194-0.426-10.41-0.584-15.619-0.801c-1.535-2.473-2.841-5.156-3.998-7.968   c10.279,0.525,20.523,1.412,30.793,2.07c1.048,0.067,0.998-1.48,0-1.601c-10.411-1.26-20.926-1.66-31.408-1.915   c-0.066-0.174-0.151-0.332-0.216-0.507c-1.508-4.127-2.414-8.23-2.903-12.311c4.211,0.454,8.445,0.797,12.671,0.993   c0.944,0.044,0.912-1.359,0-1.449c-4.264-0.42-8.559-0.696-12.845-0.852c-0.279-2.909-0.304-5.802-0.158-8.683   c6.379,0.254,12.732,0.836,19.097,1.313c0.754,0.056,0.931-1.188,0.18-1.329c-6.336-1.195-12.73-1.634-19.164-1.818   c0.288-3.636,0.914-7.244,1.731-10.828c14.891,1.287,29.776,2.693,44.706,3.427c1.048,0.052,1.002-1.491,0-1.601   c-14.725-1.625-29.512-2.597-44.287-3.675c1.048-4.188,2.459-8.32,3.989-12.425c5.639,0.208,11.276,0.427,16.92,0.395   c1.087-0.006,1.071-1.613,0-1.678c-5.41-0.323-10.826-0.413-16.244-0.506c1.03-2.664,2.161-5.293,3.293-7.919   c0.345,0.1,0.701,0.165,1.066,0.19c0.015,0.361,0.248,0.721,0.716,0.745c5.918,0.297,11.862,0.704,17.79,0.604   c1.042-0.018,1.017-1.521,0-1.601c-5.438-0.432-10.914-0.436-16.369-0.491c-0.084-0.168-0.218-0.316-0.417-0.339   c-0.769-0.088-1.473-0.323-2.169-0.587c0.825-1.887,1.69-3.729,2.538-5.594c3.368-0.221,6.723-0.069,10.067,0.43   c1.097,0.164,1.609-1.44,0.472-1.71c-3.186-0.755-6.37-0.961-9.604-0.782c0.493-1.072,0.968-2.169,1.465-3.232   c0.57-1.217-0.521-2.289-1.523-2.121c-0.331-0.135-0.702-0.202-1.142-0.085c-9.022,2.4-19.641,2.951-28.061-0.462   c3.539,0.527,7.105,0.873,10.678,0.876c0.832,0.001,0.81-1.214,0-1.277c-4.992-0.39-9.924-0.878-14.837-1.733   c-2.39-1.542-4.448-3.575-6.141-6.059c9.568,2.076,19.304,3.563,29.107,3.564c0.784,0,0.759-1.134,0-1.201   c-10.122-0.895-20.137-1.889-30.108-3.837c-0.6-1.058-1.134-2.195-1.59-3.421c4.337,0.406,8.612,0.302,12.897-0.524   c6.048,0.946,12.055,2.003,18.084,3.093c0.939,0.17,1.354-1.21,0.401-1.451c-4.729-1.196-9.631-2.037-14.529-2.574   c11.083-3.16,21.77-8.148,28.97,5.396c0.279,0.525,0.797,0.604,1.231,0.432c0.403,0.224,0.905,0.228,1.313-0.178   c0.906-0.904,1.391-2.222,1.881-3.496c2.957,0.314,5.94,0.416,8.899,0.138c0.688-0.065,0.71-1.055,0-1.086   c-2.783-0.122-5.558-0.228-8.332-0.385c0.051-0.111,0.094-0.234,0.148-0.34c0.769-1.505,1.643-3.181,2.71-4.54   c3.652,0.722,7.325,1.199,11.065,1.246c0.691,0.009,0.682-1.03,0-1.068c-3.366-0.183-6.716-0.495-10.06-0.889   c0.546-0.425,0.793-1.19,0.117-1.739c-1.349-1.094-2.352-2.516-2.997-4.041c2.78-0.256,5.555-0.33,8.363-0.283   c0.805,0.013,0.758-1.129,0-1.22c-2.947-0.355-5.903-0.243-8.841,0.089c-0.403-1.636-0.285-3.313,0.359-4.85   c2.655,0.185,5.312,0.37,7.973,0.391c0.763,0.006,0.73-1.088,0-1.163c-2.433-0.247-4.877-0.356-7.322-0.456   c0.508-0.746,1.137-1.449,2.004-2.045c2.324-1.599,5.207-1.778,7.703-0.473c2.085,1.09,2.857,3.092,4.536,4.541   c0.913,0.789,2.25,0.248,2.327-0.963c0.003-0.044-0.011-0.084-0.009-0.128c11.293-4.706,21.055-4.172,33.009-2.391   c0.274,0.041,0.533-0.004,0.781-0.082c0.481,1.642,2.933,1.968,3.707,0.003c2.134-5.418,7.832-8.662,13.162-4.981   c5.33,3.681,4.356,14.201-2.976,14.751c-1.386,0.104-1.709,1.562-1.009,2.35c-0.189,0.565-0.16,1.208,0.315,1.781   c1.817,2.191,3.325,4.549,4.596,7.095c0.025,0.05,0.064,0.075,0.093,0.119c0.426,1.391,2.123,2.347,3.318,0.94   c9.141-10.755,22.968-16.574,37.094-13.415c8.107,1.812,14.838,6.995,22.162,10.817   C204.055,127.631,187.712,142.69,168.913,134.871z"></path></g><g></g><g></g><g></g><g></g><g></g><g></g><g></g><g></g><g></g><g></g><g></g><g></g><g></g><g></g><g></g></svg>